<?xml version="1.0" encoding="UTF-8" standalone="no"?>
<!-- Created with Inkscape (http://www.inkscape.org/) -->
<svg id="svg3010" xmlns:rdf="http://www.w3.org/1999/02/22-rdf-syntax-ns#" xmlns="http://www.w3.org/2000/svg" height="700" width="1200" version="1.1" xmlns:cc="http://creativecommons.org/ns#" xmlns:dc="http://purl.org/dc/elements/1.1/">
 <defs id="defs3012"></defs>
 <metadata id="metadata3015">
  <rdf:RDF>
   <cc:Work rdf:about="">
    <dc:format>image/svg+xml</dc:format>
    <dc:type rdf:resource="http://purl.org/dc/dcmitype/StillImage"/>
    <dc:title/>
   </cc:Work>
  </rdf:RDF>
 </metadata>
 <g id="layer1" transform="translate(0,-352.36218)">
  <path id="path3918" transform="matrix(2.7924403,0,0,1.6453548,199.53764,521.6995)" fill="#c83737" d="M126,318,87.1,196-37.2,226,33.5,119-67,40.5,60.3,29.4,59.3-98.4,147-5.76,247-86.2,229,40.4,354,67.8,244,133,300,248,181,202z"/>
  <path id="path3057" fill="#e6e6e6" d="m228,723,65.8,62.3c13.4,11.1,141,19.9,297,19.9,158,0,288-9.03,293-14.7l87.4-66.5c-6.25,7.07-173,31.5-371,31.5-201,0-369-25.9-372-32.4z"/>
  <path id="path3018" fill="#999" d="m973,720c0,23.2-167,42.1-373,42.1s-373-18.8-373-42.1c0-23.2,167-42.1,373-42.1s373,18.8,373,42.1z"/>
  <path id="path3842" fill="#f9f9f9" d="m612,600c-56.3,0-102,45.7-102,102,0,4.98,0.359,9.87,1.05,14.7,22.7,8.91,55.9,11.9,95.3,11.9,40.6,0,79.5-3.14,107-12.7,0.618-4.54,0.938-9.16,0.938-13.9,0-56.3-45.7-102-102-102z"/>
  <path id="path3866" fill="#000" d="m592,727c0.216-0.169,0.463-0.0662,0.707-0.0749,0.125-0.005,0.245-0.0573,0.37-0.0675,0.258-0.0575,0.492-0.0143,0.75-0.0137,0.216,0.00053,0.441-0.0876,0.659-0.101,0.182-0.0537,0.381,0.0272,0.563-0.0192,0.0467-0.0119,0.0612-0.0888,0.109-0.0948,0.125-0.0159,0.251,0.0366,0.376,0.0331,0.0985-0.003,0.327-0.0831,0.422-0.114,0.36,0.0699,0.696-0.0928,1.04-0.132,0.211-0.0244,0.424-0.005,0.635-0.0198,0.199-0.316,0.602-0.145,0.885-0.267,0.0503-0.0216,0.0618-0.0904,0.0927-0.136,0.0997-0.0147,0.199-0.0294,0.299-0.0441,0.23-0.103,0.496-0.0479,0.682-0.239,0.0403-0.0414,0.0424-0.121,0.0947-0.145,0.0942-0.0442,0.209-0.0175,0.309-0.0445,0.0737-0.0198,0.139-0.0632,0.208-0.0948,0.319-0.009,0.462-0.317,0.712-0.434,0.451-0.21,0.09,0.0718,0.403-0.206,0.168-0.175,0.376-0.292,0.565-0.436,0.0618-0.047,0.104-0.118,0.169-0.16,0.388-0.251,0.159,0.0425,0.37-0.297,0.0815-0.039,0.163-0.078,0.245-0.117,0.0348-0.0595,0.0465-0.141,0.104-0.179,0.0907-0.0586,0.214-0.0432,0.311-0.0898,0.298-0.143,0.0933-0.137,0.333-0.319,0.0758-0.0576,0.169-0.0879,0.253-0.132,0.039-0.064,0.0584-0.145,0.117-0.192,0.256-0.206,0.307-0.0411,0.508-0.304,0.0491-0.0641,0.0518-0.153,0.0852-0.227,0.117-0.258,0.0946-0.195,0.322-0.379,0.133-0.105,0.279-0.204,0.378-0.345,0.0465-0.066,0.0538-0.157,0.109-0.216,0.0668-0.0714,0.173-0.0958,0.245-0.162,0.0761-0.0694,0.227-0.317,0.282-0.404,0.0538-0.0629,0.107-0.126,0.161-0.189,0.0786-0.0503,0.174-0.0807,0.236-0.151,0.0514-0.0585,0.0411-0.154,0.0871-0.217,0.0516-0.0704,0.141-0.105,0.198-0.172,0.0363-0.0421,0.21-0.352,0.239-0.403,0.43-0.0405,0.201-0.351,0.431-0.554,0.327-0.288,0.363,0.0348,0.447-0.574,0.201-0.163,0.328-0.364,0.47-0.57,0.0462-0.0668,0.127-0.111,0.156-0.187,0.0284-0.0747-0.0345-0.171,0.007-0.24,0.0481-0.0802,0.155-0.105,0.232-0.158,0.164-0.182,0.167-0.492,0.316-0.677,0.266-0.331,0.351-0.103,0.437-0.65,0.376-0.127,0.327-0.353,0.476-0.663,0.0379-0.0788,0.0499-0.176,0.112-0.237,0.365-0.358,0.31,0.081,0.272-0.445-0.0394-0.226,0.224-0.288,0.277-0.459,0.028-0.0913-0.054-0.194-0.0257-0.285,0.056-0.18,0.28-0.269,0.35-0.444,0.0343-0.0861,0.022-0.184,0.033-0.276,0.197-0.12,0.0973-0.361,0.193-0.519,0.0549-0.0899,0.175-0.124,0.237-0.209,0.104-0.143,0.253-0.573,0.287-0.751,0.314-0.232,0.18-0.677,0.363-0.959,0.271-0.416,0.228,0.04,0.194-0.483,0.243-0.193,0.0744-0.533,0.183-0.763,0.0428-0.0906,0.159-0.131,0.206-0.219,0.044-0.0813,0.031-0.183,0.0588-0.271,0.0274-0.0868,0.0709-0.168,0.106-0.252,0.0637-0.0725,0.151-0.13,0.191-0.217,0.0375-0.0822-0.004-0.186,0.0308-0.269,0.035-0.0837,0.123-0.135,0.171-0.212,0.128-0.208,0.234-0.461,0.313-0.692,0.163-0.126-0.002-0.348,0.0868-0.486,0.0544-0.0847,0.199-0.0799,0.253-0.165,0.0459-0.0718-0.005-0.172,0.0153-0.255,0.0194-0.0806,0.0837-0.146,0.101-0.227,0.018-0.0866,0.001-0.177,0.002-0.265,0.0754-0.55-0.0569,0.0238,0.232-0.443,0.0501-0.0808,0.0849-0.398,0.122-0.479,0.199-0.278,0.121-0.13,0.237-0.444-0.0854-0.28,0.106-0.466,0.16-0.72,0.0173-0.0812-0.0188-0.173,0.0161-0.248,0.289-0.623,0.134,0.264,0.215-0.442,0.0608-0.0714,0.148-0.127,0.183-0.214,0.008-0.248-0.0145-0.29,0.0833-0.519,0.153-0.359,0.248-0.324,0.192-0.746,0.133-0.844-0.0888,0.325,0.189-0.474,0.0289-0.0831-0.011-0.181,0.0185-0.263,0.0296-0.0833,0.131-0.131,0.152-0.217,0.0449-0.18-0.0338-0.37-0.0447-0.555,0.028-0.0803,0.0716-0.157,0.084-0.241,0.0132-0.0899-0.0166-0.182-0.008-0.272,0.007-0.0763,0.103-0.425,0.113-0.501,0.0132-0.0978,0.009-0.394,0.009-0.493,0.0857-0.245-0.0324-0.495-0.0152-0.741,0.005-0.0723,0.0564-0.138,0.0556-0.21-0.002-0.16-0.0639-0.315-0.0714-0.475,0.0714-0.479-0.221-0.931-0.174-1.39-0.005-0.0738,0.001-0.15-0.0165-0.221-0.0529-0.214-0.149-0.298-0.238-0.499-0.109-0.246-0.1-0.455-0.214-0.71-0.0129-0.3-0.184-0.482-0.322-0.726-0.0425-0.0749-0.0596-0.162-0.0998-0.238-0.0434-0.0823-0.138-0.143-0.15-0.235-0.009-0.0674,0.0625-0.121,0.0938-0.181-0.0512-0.0863-0.102-0.173-0.154-0.259,0.0104-0.0639,0.0535-0.131,0.0312-0.192-0.0372-0.102-0.147-0.162-0.196-0.258-0.0341-0.0668-0.0164-0.152-0.0477-0.22-0.195-0.425-0.164-0.049-0.158-0.427-0.0912-0.195-0.312-0.448-0.387-0.643-0.0198-0.0518,0.0217-0.114,0.004-0.166-0.0285-0.0839-0.245-0.359-0.292-0.421-0.009-0.0617,0.004-0.132-0.0278-0.185-0.0538-0.0893-0.157-0.14-0.219-0.224-0.211-0.286-0.025-0.117-0.132-0.39-0.0318-0.0808-0.221-0.358-0.266-0.426-0.0529-0.406,0.0439,0.0358-0.256-0.424-0.0349-0.0535-0.0101-0.132-0.0426-0.187-0.0978-0.165-0.347-0.413-0.474-0.576-0.194-0.0202-0.121-0.217-0.205-0.306-0.0697-0.074-0.176-0.106-0.248-0.178-0.0383-0.0382-0.0354-0.107-0.0747-0.144-0.33-0.219-0.196-0.0999-0.418-0.34-0.0453-0.0507-0.0825-0.11-0.136-0.152-0.325-0.257-0.271-0.13-0.556-0.379-0.0439-0.0384-0.068-0.0962-0.112-0.134-0.142-0.122-0.306-0.216-0.457-0.325-0.221-0.289-0.551-0.387-0.846-0.576-0.495-0.319,0.567,0.192-0.425-0.246-0.464-0.279-0.914-0.551-1.38-0.83-0.429-0.263-0.88-0.496-1.32-0.741-0.42-0.259-0.881-0.452-1.34-0.642-0.685-0.274-0.683-0.271,1.46,0.506,0.0654,0.0238-0.133-0.04-0.201-0.0576-0.28-0.0733-0.443-0.0929-0.742-0.2-0.405,0.0706-0.826-0.195-1.23-0.0507-0.447-0.0478-0.862,0.068-1.3,0.106-0.144,0.0778-0.311,0.0153-0.46,0.0558-0.103,0.0279-0.169,0.138-0.271,0.168-0.154,0.0452-0.317,0.0574-0.472,0.1-0.0747,0.0211-0.149,0.0422-0.224,0.0633-0.0524,0.0321-0.0988,0.0771-0.157,0.0962-0.0855,0.028-0.187,0.00068-0.267,0.0427-0.0479,0.0252-0.0382,0.108-0.0809,0.141-0.111,0.0862-0.398,0.123-0.511,0.145-0.0743,0.0326-0.154,0.055-0.223,0.0979-0.358,0.222,0.0891,0.0481-0.329,0.246-0.223,0.105-0.411,0.187-0.621,0.322-0.069,0.0407-0.138,0.0814-0.207,0.122-0.0495,0.0508-0.0878,0.116-0.149,0.152-0.316,0.19-0.21-0.0142-0.444,0.236-0.0451,0.0483-0.0508,0.134-0.108,0.166-0.0925,0.0521-0.207,0.0468-0.311,0.0702-0.0861,0.277-0.401,0.145-0.545,0.375-0.0328,0.0524,0.006,0.144-0.044,0.18-0.0844,0.0607-0.208,0.0308-0.304,0.0699-0.0653,0.0265-0.115,0.082-0.172,0.123-0.18,0.0286-0.111,0.223-0.198,0.31-0.0558,0.0564-0.147,0.0625-0.212,0.108-0.0544,0.038-0.0877,0.102-0.142,0.14-0.301,0.158-0.163,0.0681-0.417,0.264-0.22,0.0922-0.308,0.313-0.513,0.427-0.0798,0.0446-0.178,0.0535-0.253,0.105-0.0548,0.0377-0.0836,0.103-0.125,0.155-0.0693,0.0405-0.139,0.081-0.208,0.121-0.008,0.0648,0.0115,0.14-0.0247,0.194-0.0715,0.108-0.807,0.537-0.959,0.627-0.0903,0.0307-0.215,0.0147-0.271,0.092-0.045,0.0622,0.0671,0.155,0.0406,0.227-0.032,0.0869-0.343,0.205-0.391,0.245-0.57,0.47,0.478-0.193-0.318,0.28-0.0328,0.0557-0.0432,0.133-0.0984,0.167-0.0901,0.0551-0.21,0.0368-0.306,0.0804-0.0396,0.018-0.293,0.241-0.319,0.279-0.0344,0.0524-0.0203,0.13-0.0612,0.178-0.0504,0.0586-0.131,0.0817-0.197,0.122-0.0463,0.208-0.491,0.274-0.575,0.361-0.0448,0.046,0.024,0.142-0.017,0.192-0.562,0.674,0.004-0.36-0.316,0.273-0.0761,0.0394-0.152,0.0789-0.228,0.118-0.0188,0.064-0.006,0.148-0.0564,0.192-0.0791,0.0685-0.212,0.0449-0.294,0.111-0.0589,0.048-0.0495,0.147-0.0962,0.207-0.397,0.509-0.0322-0.169-0.3,0.382-0.0533,0.0612-0.107,0.122-0.16,0.184-0.0993,0.0422-0.221,0.0508-0.298,0.127-0.106,0.105-0.0156,0.32-0.113,0.433-0.716,0.826,0.12-0.444-0.362,0.327-0.565,0.516,0.137-0.192-0.212,0.374-0.436,0.708,0.0435-0.39-0.339,0.316-0.251,0.464,0.206-0.0551-0.212,0.368-0.0494,0.0576-0.1,0.114-0.148,0.173-0.1,0.123-0.182,0.22-0.244,0.368-0.0573,0.138-0.0458,0.284-0.171,0.393-0.071,0.0616-0.168,0.085-0.251,0.128-0.141,0.28-0.278,0.575-0.473,0.824-0.0542,0.0692-0.135,0.12-0.174,0.198-0.0377,0.0754-0.0329,0.165-0.0493,0.248-0.0704,0.0605-0.167,0.0999-0.211,0.181-0.0401,0.0735,0.0105,0.174-0.0243,0.25-0.0371,0.0814-0.138,0.12-0.18,0.199-0.0389,0.072-0.0242,0.164-0.0559,0.239-0.0458,0.109-0.214,0.314-0.284,0.404-0.007,0.0804,0.0218,0.173-0.0222,0.241-0.0527,0.0811-0.17,0.0961-0.24,0.163-0.357,0.341,0.0592,0.0524-0.237,0.419-0.461,0.57-0.0108-0.228-0.324,0.379-0.122,0.796,0.0997-0.322-0.228,0.422-0.0336,0.0763,0.0307,0.172,0.001,0.25-0.0419,0.111-0.394,0.442-0.486,0.546-0.0478,0.0635-0.0957,0.127-0.144,0.191-0.0289,0.0714-0.0407,0.152-0.0867,0.214-0.0511,0.0686-0.145,0.0969-0.196,0.165-0.0448,0.06-0.0351,0.151-0.0833,0.209-0.342,0.408-0.139-0.125-0.281,0.374-0.172,0.089-0.161,0.299-0.271,0.428-0.0638,0.0748-0.179,0.0981-0.234,0.179-0.0471,0.0685-0.0292,0.164-0.0563,0.243-0.09,0.261-0.0987,0.218-0.314,0.394-0.353,0.419,0.004-0.0502-0.236,0.409-0.0361,0.0693-0.103,0.12-0.137,0.19-0.0333,0.0678-0.0225,0.154-0.0632,0.218-0.548,0.857,0.135-0.486-0.277,0.361-0.685,0.544,0.227-0.235-0.264,0.357-0.0565,0.0681-0.172,0.0739-0.22,0.148-0.0417,0.0641,0.0125,0.161-0.0244,0.228-0.246,0.206-0.15,0.0857-0.294,0.357-0.181,0.248-0.355,0.517-0.573,0.735-0.0575,0.0576-0.151,0.0842-0.186,0.158-0.0342,0.0714-0.002,0.158-0.003,0.238-0.464,0.38,0.0136-0.0715-0.264,0.376-0.101,0.1-0.239,0.222-0.312,0.348-0.0355,0.0616-0.0267,0.149-0.0769,0.199-0.0664,0.0666-0.167,0.0864-0.251,0.13-0.0382,0.0447-0.245,0.278-0.268,0.338-0.0255,0.0676,0.01,0.15-0.0206,0.216-0.0518,0.113-0.351,0.382-0.448,0.476-0.379,0.402,0.0585-0.0953-0.231,0.34-0.233,0.35-0.266,0.254-0.346,0.71-0.243,0.0675-0.309,0.299-0.473,0.449-0.0584,0.053-0.156,0.0617-0.199,0.128-0.0374,0.0588,0.001,0.141-0.0153,0.208-0.0167,0.068-0.0556,0.128-0.0835,0.193-0.0627,0.0504-0.143,0.0846-0.188,0.151-0.0427,0.0631-0.0287,0.152-0.0628,0.22-0.0354,0.0708-0.0949,0.127-0.142,0.19-0.0545,0.0641-0.126,0.117-0.164,0.192-0.0365,0.0723,0.003,0.179-0.0535,0.237-0.0791,0.0813-0.207,0.0919-0.311,0.138-0.0291,0.0732-0.069,0.143-0.0873,0.22-0.0188,0.0789,0.008,0.167-0.0229,0.242-0.0317,0.0759-0.116,0.119-0.158,0.19-0.0385,0.0655-0.0296,0.157-0.0799,0.214-0.317,0.359-0.225-0.0825-0.255,0.38-0.0601,0.151-0.218,0.222-0.303,0.35-0.0393,0.0594-0.0324,0.145-0.0791,0.198-0.0588,0.0678-0.176,0.0741-0.223,0.15-0.513,0.822,0.552-0.355-0.184,0.406-0.0329,0.219-0.16,0.434-0.293,0.61-0.0505,0.0668-0.13,0.108-0.179,0.176-0.0504,0.0687-0.0777,0.152-0.117,0.227-0.0567,0.0743-0.113,0.149-0.17,0.223,0.002,0.222-0.265,0.295-0.319,0.479-0.0306,0.104,0.0627,0.224,0.0243,0.325-0.133,0.352-0.389,0.0971-0.47,0.772-0.0453,0.0851-0.0905,0.17-0.136,0.255-0.0194,0.0915-0.0171,0.19-0.0582,0.275-0.0421,0.0862-0.136,0.138-0.184,0.221-0.166,0.286-0.126,0.409-0.372,0.693,0.0472,0.275-0.321,0.49-0.383,0.648-0.0326,0.0828,0.0504,0.189,0.008,0.267-0.31,0.21-0.198,0.0769-0.352,0.384-0.143,0.211-0.0983,0.475-0.258,0.678-0.0548,0.0695-0.149,0.103-0.199,0.176-0.009,0.0132-0.133,0.419-0.138,0.435-0.653,0.237-0.121-0.0649-0.322,0.342-0.245,0.497-0.132-0.159-0.302,0.345-0.0237,0.0704,0.024,0.161-0.0176,0.222-0.0487,0.0721-0.149,0.0898-0.223,0.135-0.0283,0.237-0.237,0.335-0.356,0.517-0.036,0.055-0.0353,0.134-0.0834,0.179-0.0645,0.0601-0.186,0.0464-0.236,0.119-0.04,0.0582,0.006,0.141,0.009,0.212-0.0729,0.0407-0.158,0.065-0.219,0.122-0.0464,0.0436-0.055,0.115-0.0903,0.168-0.151,0.226-0.391,0.426-0.621,0.561-0.185,0.0335-0.106,0.23-0.19,0.322-0.0539,0.0588-0.16,0.0524-0.21,0.115-0.0387,0.0488,0.006,0.133-0.0278,0.185-0.0398,0.0607-0.126,0.0756-0.177,0.127-0.0438,0.0442-0.069,0.104-0.103,0.155-0.271,0.0168-0.227,0.289-0.409,0.406-0.242,0.156-0.373,0.0863-0.477,0.384-0.109,0.0161-0.226,0.006-0.328,0.0482-0.0555,0.023-0.0668,0.104-0.118,0.137-0.288,0.182-0.457,0.108-0.723,0.408-0.428,0.119-0.913,0.253-1.27,0.531-0.106,0.0109-0.216,0.002-0.318,0.0326-0.0575,0.0174-0.0911,0.0806-0.145,0.108-0.206,0.104-0.457,0.133-0.682,0.166,0,0-1.92-0.918-1.92-0.918,0.971,0.0244-0.214,0.0391,0.428-0.0741,0.119-0.0209,0.25,0.0375,0.361-0.01,0.0998-0.0427-0.0455-0.31,0.177-0.273,0.827-0.0426,0.0316,0.0659,0.491-0.134,0.275-0.12,0.584-0.118,0.799-0.369,0.215-0.0728,0.407-0.172,0.613-0.267,0.121-0.056,0.213-0.172,0.341-0.211,0.102-0.0312,0.211-0.0274,0.316-0.0411,0.228-0.148,0.255-0.274,0.405-0.389,0.166-0.127,0.316-0.134,0.444-0.374,0.158-0.366-0.0694,0.0602,0.303-0.252,0.0477-0.04,0.042-0.119,0.0796-0.169,0.122-0.161,0.331-0.262,0.477-0.397,0.0565-0.111,0.0757-0.246,0.162-0.335,0.0556-0.0572,0.145-0.0705,0.205-0.123,0.162-0.143,0.162-0.389,0.413-0.444,0.0204-0.0624,0.0253-0.132,0.0612-0.187,0.0385-0.0589,0.114-0.0864,0.155-0.143,0.131-0.181,0.0187-0.194,0.202-0.344,0.0681-0.056,0.19-0.0503,0.231-0.128,0.0366-0.0689-0.0272-0.154-0.0408-0.231,0.376-0.279,0.544-0.712,0.867-1.04,0.106-0.463-0.0474,0.0252,0.233-0.39,0.0425-0.0629,0.0375-0.15,0.0787-0.214,0.0944-0.146,0.296-0.211,0.369-0.369,0.0361-0.0787,0.01-0.173,0.0145-0.259,0.411-0.372,0.0634,0.0348,0.196-0.442,0.0896-0.322,0.542-0.47,0.622-0.812-0.143-0.597-0.0948-0.013,0.164-0.479,0.0439-0.0791-0.006-0.185,0.0227-0.271,0.0854-0.258,0.323-0.489,0.452-0.724,0.0332-0.0898,0.168-0.472,0.224-0.551,0.0628-0.0896,0.178-0.137,0.233-0.232,0.0515-0.0888,0.0253-0.209,0.0751-0.299,0.0507-0.0915,0.173-0.132,0.216-0.227,0.0397-0.0869,0.0119-0.191,0.0179-0.286,0.147-0.295,0.0784-0.208,0.294-0.449,0.0558-0.0625,0.135-0.108,0.172-0.183,0.126-0.252-0.0395-0.417,0.334-0.59,0.008-0.0184,0.177-0.398,0.19-0.417,0.0483-0.0653,0.13-0.101,0.179-0.166,0.126-0.169,0.191-0.406,0.304-0.584,0.0542-0.0583,0.108-0.117,0.163-0.175,0.0421-0.0621,0.0761-0.131,0.126-0.186,0.0583-0.0645,0.153-0.0961,0.197-0.171,0.0395-0.0673,0.0117-0.158,0.0391-0.231,0.0739-0.197,0.172-0.251,0.324-0.388,0.0631-0.575,0.167-0.293,0.433-0.6,0.155-0.178,0.019-0.492,0.306-0.59,0.0802-0.257,0.207-0.318,0.364-0.519,0.0392-0.0499,0.0519-0.117,0.0886-0.169,0.0409-0.0577,0.115-0.0921,0.142-0.157,0.0261-0.063,0.005-0.136,0.008-0.204,0.176-0.111,0.24-0.117,0.338-0.298,0.0308-0.0564,0.0221-0.133,0.0633-0.182,0.0525-0.0627,0.161-0.0674,0.204-0.137,0.32-0.52-0.405,0.103,0.204-0.354,0.131-0.295,0.275-0.236,0.417-0.489,0.0684-0.122,0.0479-0.284,0.128-0.398,0.0464-0.0661,0.127-0.1,0.19-0.15,0.199-0.404,0.531-0.711,0.741-1.11,0.134-0.088,0.3-0.168,0.379-0.322,0.0331-0.0645,0.007-0.151,0.0449-0.213,0.133-0.213,0.382-0.251,0.368-0.581,0.126-0.11,0.268-0.204,0.386-0.324,0.216-0.22,0.206-0.577,0.498-0.74,0.12-0.425,0.303-0.263,0.442-0.525,0.0371-0.0701,0.003-0.161,0.0274-0.236,0.0469-0.148,0.179-0.283,0.273-0.397,0.0476-0.067,0.0885-0.139,0.143-0.201,0.058-0.066,0.151-0.103,0.192-0.18,0.0402-0.0751-0.004-0.179,0.0392-0.252,0.0478-0.0809,0.164-0.102,0.217-0.18,0.543-0.816-0.456,0.314,0.249-0.441,0.0574-0.0622,0.115-0.124,0.172-0.187,0.0205-0.0711,0.0114-0.159,0.0614-0.213,0.065-0.0709,0.211-0.0483,0.256-0.133,0.0418-0.0786-0.0597-0.175-0.0451-0.263,0.0268-0.162,0.231-0.279,0.338-0.361,0.0862-0.459,0.224-0.25,0.407-0.569,0.0389-0.0683,0.0196-0.163,0.0666-0.226,0.055-0.0737,0.149-0.108,0.223-0.162,0.0451-0.069,0.0903-0.138,0.135-0.207,0.0443-0.0673,0.0829-0.139,0.133-0.202,0.0523-0.0661,0.14-0.107,0.173-0.184,0.0319-0.0753-0.0116-0.166,0.009-0.245,0.0604-0.232,0.27-0.416,0.393-0.612,0.0587-0.0605,0.117-0.121,0.176-0.182,0.0115-0.0827-0.0178-0.183,0.0345-0.248,0.0671-0.0834,0.218-0.0652,0.285-0.149,0.134-0.167-0.0851-0.589,0.162-0.721,0.0958-0.0511,0.219-0.0688,0.287-0.153,0.0545-0.0674,0.0105-0.176,0.0436-0.256,0.0328-0.0793,0.114-0.132,0.149-0.21,0.124-0.276,0.008-0.49,0.374-0.61,0.058-0.445-0.0551-0.0137,0.248-0.359,0.0486-0.0553,0.0451-0.142,0.0832-0.205,0.146-0.241,0.403-0.249,0.301-0.582,0.0688-0.0494,0.133-0.107,0.207-0.148,0.0862-0.0481,0.201-0.0488,0.271-0.118,0.214-0.213-0.115-0.231-0.0116-0.461,0.073-0.163,0.392-0.102,0.462-0.272,0.0853-0.166,0.268-0.428,0.398-0.561,0.0619-0.0636,0.162-0.0865,0.214-0.158,0.0443-0.061,0.01-0.161,0.0594-0.218,0.0653-0.0752,0.173-0.0989,0.259-0.148,0.29-0.36,0.528-0.757,0.9-1.05,0.0847-0.101,0.143-0.231,0.251-0.306,0.0746-0.0519,0.177-0.0545,0.251-0.107,0.0532-0.038,0.0707-0.112,0.118-0.156,0.0653-0.0612,0.315-0.203,0.385-0.245,0.0133-0.0618,0.003-0.134,0.0399-0.185,0.205-0.288,0.77-0.325,0.99-0.625,0.0336-0.0529,0.0781-0.1,0.101-0.159,0.024-0.0613-0.0169-0.156,0.0368-0.194,0.0906-0.0641,0.227-0.0155,0.327-0.0635,0.0612-0.0293,0.0785-0.113,0.131-0.156,0.332-0.272,0.103,0.0509,0.304-0.288,0.191-0.0793,0.436-0.202,0.571-0.37,0.0405-0.0499,0.0298-0.132,0.0748-0.178,0.107-0.109,0.304-0.1,0.383-0.253,0.374-0.255,0.73-0.49,0.992-0.859,0.344-0.343-0.0989,0.0534,0.435-0.238,0.322-0.176,0.0301-0.0973,0.215-0.321,0.0887-0.107,0.263-0.122,0.327-0.26,0.386-0.318-0.113,0.0512,0.471-0.201,0.819-0.353-0.391,0.0897,0.198-0.323,0.0911-0.0638,0.218-0.0448,0.327-0.0673,0.0577-0.0428,0.115-0.0855,0.173-0.128,0.108-0.0906,0.199-0.202,0.316-0.28,0.262-0.174,0.549-0.281,0.752-0.538,0.0985-0.026,0.202-0.0375,0.296-0.078,0.127-0.0551,0.191-0.222,0.325-0.26,0.127-0.0355,0.275,0.0349,0.394-0.0203,0.0572-0.0265,0.0305-0.122,0.0457-0.183,0.109-0.0159,0.218-0.0319,0.327-0.0478,0.229-0.424,0.791-0.402,1.21-0.53,0.0132-0.0517-0.006-0.128,0.0397-0.155,0.155-0.0898,0.373,0.01,0.532-0.0734,0.0395-0.0208,0.0169-0.106,0.0595-0.12,1.01-0.323-0.102,0.21,0.456-0.0708,0.641,0.0477,0.228-0.107,0.612-0.114,0.111-0.002,0.22,0.0368,0.331,0.034,0.0581-0.001,0.112-0.0312,0.168-0.0468,0.085,0.003,0.17,0.007,0.255,0.0105,0.453-0.0693,0.899,0.079,1.36,0.0674,0.844,0.135,3.27,0.895,3.28,1.1,0.506,0.169,0.96,0.43,1.43,0.684,0.429,0.261,0.908,0.444,1.31,0.746,0.427,0.31,0.908,0.524,1.35,0.811,0.263,0.119,0.562,0.254,0.792,0.435,0.04,0.0313,0.0539,0.0889,0.0942,0.12,0.571,0.438,0.0777-0.0408,0.425,0.312,0.0932,0.0578,0.186,0.116,0.28,0.173,0.0319,0.0447,0.0527,0.1,0.0957,0.134,0.0946,0.0751,0.213,0.115,0.31,0.188,0.173,0.129,0.258,0.341,0.424,0.477,0.184,0.12,0.338,0.192,0.473,0.361,0.034,0.0424,0.0399,0.104,0.0779,0.143,0.0725,0.0742,0.174,0.116,0.247,0.189,0.046,0.046,0.0708,0.109,0.106,0.164,0.0783,0.068,0.157,0.136,0.235,0.204,0.18,0.421,0.617,0.698,0.649,1.18,0.171,0.205,0.285,0.394,0.39,0.639,0.0274,0.0634,0.0255,0.142,0.0688,0.195,0.0805,0.1,0.223,0.143,0.291,0.252,0.0301,0.0478-0.0185,0.111-0.0277,0.167,0.0611,0.0748,0.138,0.139,0.183,0.224,0.0583,0.109,0.0259,0.25,0.0707,0.365,0.0288,0.0744,0.0868,0.135,0.114,0.21,0.158,0.429-0.176-0.0883,0.208,0.421,0.0482,0.0776,0.0964,0.155,0.145,0.233-0.008,0.0636-0.0463,0.131-0.0243,0.191,0.0364,0.0994,0.142,0.161,0.188,0.256,0.0312,0.065,0.007,0.148,0.0376,0.213,0.226,0.483,0.181,0.0438,0.186,0.47,0.201,0.306,0.248,0.605,0.392,0.931,0.0396,0.0897,0.11,0.165,0.144,0.257,0.0273,0.0737,0.0251,0.155,0.0376,0.233,0.005,0.233,0.0175,0.482,0.117,0.698,0.0434,0.0944,0.12,0.171,0.162,0.266,0.0663,0.151,0.0462,0.332,0.136,0.476-0.004,0.145-0.0496,0.29-0.0308,0.433,0.0118,0.0902,0.068,0.17,0.0875,0.258,0.017,0.0775,0.003,0.16,0.0211,0.237,0.148,0.621,0.0721-0.068,0.117,0.498,0.121,0.68,0.0171-0.162-0.0446,0.445-0.009,0.0848,0.0404,0.167,0.0415,0.252,0.001,0.0795-0.0409,0.157-0.0352,0.236,0.0385,0.535,0.142,0.0217,0.007,0.497-0.0544,0.26-0.0327,0.501-0.0622,0.764-0.01,0.0868-0.0397,0.172-0.0384,0.259,0.0147,0.995,0.0956-0.375,0.0267,0.555-0.235,0.422-0.0811,0.382-0.14,0.773-0.0265,0.177-0.195,0.552-0.18,0.763-0.193,0.305-0.148,0.136-0.127,0.508-0.0406,0.0911-0.169,0.114-0.228,0.194-0.16,0.215-0.179,0.527-0.11,0.771-0.154,0.199-0.276,0.424-0.33,0.676-0.0178,0.0829,0.0149,0.174-0.0136,0.254-0.271,0.761-0.0657-0.359-0.186,0.447-0.0762,0.0975-0.258,0.298-0.27,0.438-0.008,0.0965,0.0744,0.188,0.0617,0.284-0.0114,0.0862-0.304,0.55-0.28,0.681-0.333,0.478-0.006-0.0539-0.2,0.47-0.151,0.41-0.108,0.0255-0.209,0.439-0.0201,0.0826,0.003,0.175-0.0318,0.253-0.0357,0.0804-0.114,0.134-0.17,0.202-0.257,0.778,0.116-0.305-0.198,0.456-0.0333,0.0808-0.0367,0.173-0.0747,0.252-0.0393,0.0813-0.123,0.138-0.154,0.223-0.0614,0.168,0.0213,0.369-0.0878,0.529-0.0923,0.159-0.164,0.33-0.26,0.487-0.0475,0.0782-0.125,0.138-0.164,0.22-0.0373,0.0799-0.0308,0.174-0.0598,0.258-0.21,0.602-0.0334-0.141-0.166,0.491-0.33,0.759,0.096-0.322-0.0815,0.52-0.116,0.551-0.132-0.0731-0.382,0.415-0.0423,0.0828,0.0278,0.186,0.0165,0.278-0.0104,0.0849-0.0537,0.162-0.0806,0.244-0.167,0.328-0.0671,0.172-0.303,0.466-0.169,0.323-0.153,0.75-0.433,1.03-0.0287,0.0845-0.0647,0.167-0.0862,0.254-0.0215,0.0866-0.005,0.183-0.0424,0.264-0.0402,0.0871-0.131,0.141-0.182,0.223-0.138,0.221-0.199,0.497-0.336,0.72-0.0819,0.158-0.204,0.294-0.281,0.455-0.0373,0.0776-0.0324,0.171-0.0662,0.25-0.0358,0.0839-0.106,0.15-0.141,0.235-0.0343,0.0833-0.0121,0.189-0.0643,0.263-0.0606,0.0852-0.169,0.123-0.254,0.185-0.0526,0.0731-0.0995,0.151-0.158,0.219-0.0605,0.0712-0.167,0.111-0.198,0.199-0.031,0.091,0.08,0.203,0.032,0.287-0.0544,0.0947-0.212,0.0786-0.287,0.157-0.115,0.12-0.0327,0.367-0.239,0.436-0.111,0.378-0.281,0.492-0.503,0.797-0.0474,0.0652-0.0666,0.156-0.133,0.202-0.0981,0.067-0.224,0.0791-0.336,0.119,0.006,0.0897,0.0494,0.184,0.0191,0.269-0.0289,0.0808-0.127,0.116-0.181,0.183-0.273,0.337,0.024,0.0678-0.285,0.381-0.0586,0.0595-0.151,0.0911-0.187,0.166-0.0342,0.071-0.004,0.158-0.007,0.236-0.186,0.212-0.429,0.31-0.621,0.507-0.163,0.168-0.24,0.435-0.447,0.571-0.335,0.378-0.56,0.843-0.971,1.16-0.0315,0.0228-0.421,0.3-0.442,0.331-0.0447,0.0682,0.003,0.177-0.049,0.24-0.0681,0.0816-0.206,0.0771-0.28,0.153-0.493,0.509,0.449-0.0504-0.358,0.364-0.108,0.159-0.528,0.548-0.691,0.648-0.155,0.0951-0.359,0.0948-0.489,0.24-0.255,0.315,0.009,0.0465-0.424,0.278-0.27,0.144-0.484,0.403-0.726,0.586-0.258,0.295,0.0287,0.0208-0.398,0.226-0.058,0.0279-0.093,0.0913-0.149,0.123-0.0732,0.0411-0.177,0.0311-0.234,0.0925-0.0412,0.0443,0.0296,0.145-0.0196,0.18-0.0862,0.0615-0.208,0.0378-0.313,0.0568-0.073,0.0302-0.146,0.0604-0.219,0.0906-0.0511,0.0424-0.0945,0.0964-0.153,0.127-0.281,0.147-0.63,0.154-0.889,0.359-0.912,0.228,0.307-0.0942-0.458,0.158-0.256,0.0842-0.524,0.104-0.786,0.153-0.0777,0.0145-0.152,0.0426-0.228,0.0639-0.304,0.141-0.488,0.0171-0.773,0.125-0.0534,0.0202-0.0835,0.0889-0.14,0.0992-0.2,0.0364-0.411-0.0628-0.609,0.0191-0.3,0.112-0.62,0.167-0.939,0.169-0.12,0.00083-0.239-0.0383-0.359-0.0304-0.0598,0.004-0.112,0.0437-0.167,0.0655-0.478,0.0399-0.944,0.189-1.43,0.114-0.382,0.009-0.755,0.108-1.13,0.0972,0,0-1.86-0.913-1.86-0.913z"/>
  <path id="path3868" fill="#000" d="m626,728c0.339-0.0511,0.683-0.073,1.03-0.101,0.16-0.003,0.369-0.123,0.512-0.142,0.31-0.0415,0.323,0.0604,0.492-0.187,0.217-0.0687,0.436-0.0255,0.634-0.151,0.0452-0.0287,0.0764-0.0786,0.125-0.101,0.364-0.168,0.107,0.0589,0.328-0.168,0.0791-0.0184,0.158-0.0387,0.237-0.0553,0.225-0.047,0.357-0.0723,0.49-0.273,0.0287-0.0435,0.0229-0.111,0.0641-0.143,0.06-0.0464,0.144-0.0491,0.215-0.0736,0.0681-0.0284,0.136-0.0569,0.204-0.0854,0.0111-0.0524-0.0109-0.127,0.0333-0.157,0.207-0.142,0.3,0.0373,0.471-0.149,0.274-0.297-0.362-0.0763,0.319-0.221,0.0932-0.163,0.154-0.309,0.323-0.408,0.0654-0.0383,0.152-0.0407,0.208-0.0928,0.335-0.316-0.404-0.0244,0.326-0.236,0.148-0.76-0.146,0.52,0.228-0.292,0.0308-0.067-0.0797-0.156-0.0393-0.218,0.167-0.255,0.336,0.0684,0.449-0.48,0.562-0.33,0.003,0.073,0.286-0.342,0.0457-0.067,0.15-0.081,0.191-0.151,0.0371-0.063,0.003-0.149,0.0264-0.218,0.0174-0.0514,0.205-0.324,0.232-0.364,0.0311-0.0678,0.0471-0.145,0.0933-0.203,0.0541-0.0686,0.15-0.0974,0.2-0.169,0.0679-0.0972,0.0803-0.336,0.105-0.443,0.0494-0.218,0.0679-0.224,0.168-0.422,0.165-0.168,0.0878-0.45,0.206-0.635,0.217-0.339,0.317-0.0964,0.187-0.637,0.296-0.134,0.224-0.346,0.331-0.587,0.0311-0.0697,0.113-0.111,0.136-0.184-0.006-0.308-0.0374-0.163,0.087-0.435,0.0324-0.0669,0.0648-0.134,0.0972-0.201-0.0103-0.0808-0.058-0.166-0.0308-0.242,0.027-0.0761,0.144-0.0925,0.176-0.167,0.0308-0.0711-0.0248-0.158-0.003-0.233,0.167-0.251,0.107-0.115,0.181-0.405-0.179-0.439,0.185-0.524,0.233-0.858,0.0632-0.439-0.151-0.0828,0.138-0.444,0.0612-0.149,0.0122-0.325,0.0692-0.475,0.0292-0.0764,0.114-0.125,0.136-0.204,0.023-0.0823-0.0175-0.171-0.007-0.256,0.01-0.0799,0.0438-0.155,0.0657-0.232,0.009-0.0825,0.017-0.165,0.0256-0.247-0.004-0.087-0.0276-0.176-0.011-0.261,0.0157-0.0805,0.0785-0.145,0.105-0.223,0.107-0.312,0.105-0.697,0.0733-1.02-0.184-0.418,0.117-0.466,0.167-0.734,0.0348-0.184-0.0894-0.369-0.0821-0.557,0.003-0.0843,0.038-0.164,0.057-0.247-0.0303-0.0986-0.1-0.193-0.0909-0.296,0.0492-0.53,0.246,0.0948,0.209-0.464-0.006-0.1-0.0736-0.186-0.105-0.282-0.0896-0.276-0.0714-0.24-0.0963-0.517,0.13-0.441,0.0443-0.0156,0.0114-0.512-0.0324-0.174,0.0697-0.34,0.0605-0.512-0.0117-0.217-0.123-0.411-0.209-0.603,0.282-0.41,0.0188-0.467,0.007-0.805-0.003-0.0854,0.0714-0.157,0.0883-0.241,0.0403-0.2-0.004-0.313-0.0428-0.509-0.006-0.0835-0.005-0.168-0.0183-0.25-0.0375-0.242-0.0944-0.477-0.0924-0.725,0.0006-0.0729,0.0548-0.15,0.027-0.217-0.049-0.119-0.16-0.201-0.241-0.302,0.0254-0.069,0.0695-0.134,0.0763-0.207,0.018-0.192-0.0935-0.961-0.156-1.15,0.0112-0.16-0.0965-0.292-0.117-0.443-0.009-0.0671,0.036-0.138,0.0162-0.202-0.0295-0.0965-0.115-0.167-0.157-0.259-0.0612-0.134-0.0782-0.284-0.119-0.426,0.0401-0.229,0.119-0.408-0.029-0.623-0.0698-0.102-0.205-0.156-0.254-0.269-0.0245-0.0576,0.0637-0.114,0.0637-0.177-0.00004-0.0759-0.0426-0.146-0.0639-0.218-0.0147-0.0725-0.0295-0.145-0.0442-0.217-0.031-0.0719-0.0768-0.139-0.0931-0.216-0.098-0.462,0.229-0.273-0.216-0.833,0.002-0.229-0.146-0.412-0.21-0.616-0.0185-0.0586,0.00097-0.124-0.0156-0.184-0.0174-0.0622-0.163-0.348-0.193-0.409-0.0501-0.0719-0.132-0.13-0.15-0.216-0.0118-0.0568,0.0786-0.101,0.0724-0.158-0.0192-0.178-0.286-0.409-0.301-0.752-0.13-0.16-0.144-0.383-0.23-0.558-0.111-0.225-0.272-0.326-0.315-0.581-0.275-0.364-0.435-0.774-0.676-1.16-0.0267-0.0616-0.0391-0.132-0.08-0.185-0.0694-0.0903-0.176-0.147-0.245-0.238-0.194-0.257,0.0307-0.0909-0.0701-0.356-0.004-0.0105-0.291-0.404-0.293-0.407-0.275-0.383-0.57-0.742-0.784-1.16-0.0888-0.239-0.33-0.355-0.476-0.548-0.0376-0.05-0.046-0.117-0.0789-0.17-0.115-0.186-0.2-0.229-0.378-0.379,0.0573-0.232,0.0461-0.0381-0.141-0.306-0.0285-0.0407-0.0357-0.0928-0.0535-0.139-0.0907-0.0674-0.195-0.12-0.272-0.202-0.0393-0.042-0.0342-0.111-0.0658-0.159-0.0414-0.0628-0.1-0.112-0.15-0.168-0.0548-0.317-0.301-0.424-0.467-0.65-0.032-0.0437-0.0186-0.108-0.0425-0.157-0.0295-0.0601-0.0769-0.11-0.115-0.164-0.216-0.396-0.648-0.624-0.881-0.998-0.281-0.399,0.118,0.14-0.302-0.31-0.0295-0.0315-0.028-0.086-0.0603-0.115-0.0784-0.0692-0.181-0.105-0.263-0.171-0.0897-0.0721-0.158-0.169-0.246-0.242-0.344-0.23-0.645-0.535-1-0.72-0.219-0.213-0.513-0.318-0.756-0.494-0.0939-0.0682-0.15-0.178-0.235-0.257-0.0338-0.0419-0.0569-0.0954-0.101-0.126-0.103-0.0704-0.231-0.101-0.334-0.171-0.0472-0.032-0.0688-0.0917-0.111-0.13-0.152-0.141-0.295-0.279-0.447-0.422-0.0744-0.0535-0.167-0.0882-0.223-0.16-0.0237-0.0304,0.035-0.0874,0.008-0.115-0.141-0.148-0.367-0.16-0.486-0.339-0.0188-0.0285,0.0183-0.0658,0.0274-0.0987-0.0657-0.054-0.131-0.108-0.197-0.162-0.29-0.269-0.597-0.514-0.86-0.812-0.0371-0.0434-0.0741-0.0868-0.111-0.13,0.0106-0.027,0.0421-0.0537,0.0319-0.0809-0.0915-0.243-0.222-0.0773,0.147-0.347-0.0607-0.201-0.0397-0.0262,0.192-0.0659,0.0231-0.004-0.0126-0.0601,0.009-0.0696,0.0798-0.0355,0.329,0.0161,0.405,0.029,0.268,0.0393,0.181,0.0475,0.465,0.0975,0.0202,0.004,0.0381-0.0256,0.058-0.0206,0.37,0.0926,0.166,0.132,0.335,0.0898,0.362,0.114,0.741,0.186,1.08,0.322,0.683-0.48,0.0108-0.0199,2.27,0.823,2.22,0.826-6.27-2.34,0.687,0.255,0.0644,0.0236,0.258,0.094,0.193,0.0709-3.74-1.34-0.27-0.107,0.951,0.374,0.378,0.151,0.78,0.331,1.25,0.496,0.362,0.194,0.753,0.315,1.13,0.478,0.108,0.0351,0.429,0.144,0.323,0.105-4.14-1.51-0.151-0.093,1.09,0.43,0.816,0.354,2.94,1.12-0.76-0.257,0.792,0.29,1.59,0.577,2.38,0.87,0.0647,0.0239,0.128,0.0524,0.191,0.079,0.0519,0.0217,0.208,0.0852,0.155,0.0659-4.01-1.47-0.712-0.238,0.646,0.236-4.34-1.67,0.0312,0.106,1.35,0.508,0.416,0.198,0.855,0.377,1.29,0.528,0.421,0.164,0.833,0.361,1.25,0.532,0.486,0.182,0.902,0.421,1.4,0.6,0.495,0.247,1.03,0.401,1.52,0.668,0.594,0.238,1.18,0.506,1.79,0.7-0.591-0.218-2.36-0.881-1.77-0.655,0.753,0.29,1.51,0.566,2.27,0.845,1.41,0.521-2.4-0.859-1.19-0.466,0.124,0.0401,0.244,0.0898,0.366,0.135,0.575,0.191,1.16,0.336,1.74,0.516,0.562,0.176,1.13,0.298,1.69,0.481,0.546,0.171,1.11,0.291,1.66,0.423,0.647,0.23,1.33,0.348,1.97,0.57,0.661,0.151,1.29,0.422,1.96,0.553,0.611,0.233,1.24,0.405,1.86,0.631,0.616,0.254,1.26,0.41,1.89,0.607,1.32,0.386,2.59,0.928,3.9,1.37-0.551-0.2-1.1-0.399-1.65-0.6-0.0983-0.0359,0.198,0.0691,0.296,0.104,0.749,0.269,1.5,0.545,2.25,0.809,0.574,0.202-1.15-0.409-1.71-0.622-0.18-0.0673,0.367,0.115,0.548,0.179,0.523,0.177,1.05,0.336,1.57,0.523,0.502,0.15,0.989,0.324,1.49,0.477,0.437,0.0254,0.841,0.319,1.27,0.337,0.464,0.16,0.933,0.323,1.41,0.432,0.42,0.0846,0.83,0.211,1.24,0.35,0.428,0.14,0.869,0.218,1.3,0.34,0.108,0.0376,0.217,0.0751,0.325,0.113,0.0195-0.0122,0.0358-0.0407,0.0585-0.0366,0.117,0.0213,0.225,0.0774,0.34,0.109,0.203,0.0558,0.414,0.0674,0.619,0.114,0.287,0.143,0.61,0.104,0.911,0.184,0.451,0.12,0.213,0.146,0.455,0.102,0.486,0.128,0.981,0.218,1.46,0.363,0.252-0.0199,0.467,0.0931,0.704,0.157,0.198,0.0537,0.408,0.0689,0.608,0.122,0.9,0.173,1.44,0.64,2.34,1.15-0.26-0.0708-0.522-0.136-0.782-0.209-0.352-0.0766-0.7-0.184-1.04-0.305-0.372-0.0555-0.734-0.159-1.09-0.279-0.4-0.0978-0.804-0.171-1.19-0.303-0.462-0.116-0.914-0.226-1.37-0.389-0.397-0.0921-0.79-0.191-1.18-0.323-0.465-0.145-0.925-0.306-1.39-0.449-0.434-0.131-0.853-0.305-1.29-0.428-0.452-0.174-0.911-0.298-1.36-0.473-0.443-0.111-0.86-0.303-1.3-0.429-0.446-0.154-0.889-0.293-1.34-0.443-0.43-0.133-0.863-0.251-1.29-0.376-0.433-0.0528-0.845-0.358-1.28-0.353-0.436-0.105-0.887-0.373-1.34-0.376-0.448-0.141-0.905-0.287-1.37-0.378-0.426-0.124-0.866-0.211-1.29-0.329-0.45-0.11-0.88-0.234-1.33-0.342-0.316-0.0274-0.613-0.181-0.923-0.255-0.115-0.0277-0.237-0.0225-0.353-0.0487-0.24-0.119-0.532-0.081-0.778-0.163-0.225-0.0756-0.442-0.177-0.665-0.258-0.0115,0.0126-0.0177,0.0408-0.0344,0.0378-0.1-0.0179-0.192-0.0699-0.291-0.0957-0.281-0.0737-0.563-0.137-0.84-0.232-0.231-0.0258-1.04-0.358-1.13-0.306-0.463-0.178-0.939-0.307-1.41-0.477-0.407-0.135-0.824-0.25-1.23-0.398-0.408-0.125-0.814-0.254-1.22-0.392-0.44-0.148-0.904-0.278-1.38-0.412-0.468-0.188-0.961-0.283-1.44-0.438-0.453-0.128-0.912-0.253-1.36-0.411-0.421-0.115-0.83-0.251-1.25-0.367-0.401-0.139-0.811-0.254-1.23-0.331-0.475-0.155-0.949-0.296-1.42-0.474-1.4-0.389-5.11-1.84-1.09-0.352-0.92-0.638-2.12-0.638-3.07-1.2-0.457-0.181-0.888-0.402-1.34-0.594-0.263-0.244-0.639-0.317-0.921-0.537-0.302-0.251-0.74-0.307-1-0.61-0.332-0.218-0.669-0.416-0.996-0.643-0.0828-0.0466-0.166-0.0932-0.248-0.14,0.003-0.0246,0.0283-0.0581,0.009-0.0738-0.0832-0.0683-0.201-0.0853-0.285-0.152-0.0213-0.017,0.0113-0.0619-0.008-0.0813-0.105-0.107-0.248-0.169-0.369-0.258-0.115-0.178-0.335-0.229-0.471-0.385-0.0225-0.0258-0.0122-0.0721-0.0369-0.0958-0.117-0.112-0.263-0.191-0.383-0.3-0.177-0.147-0.28-0.355-0.463-0.491-0.0749-0.0557-0.166-0.0906-0.232-0.156-0.0239-0.0234-0.0171-0.0647-0.0257-0.0971-0.0785-0.0449-0.157-0.0899-0.235-0.135-0.002-0.0309,0.0171-0.0727-0.007-0.0928-0.0861-0.0735-0.206-0.0978-0.296-0.166-0.106-0.0801-0.276-0.308-0.371-0.414-0.325-0.297-0.614-0.566-0.796-0.972-0.0438-0.0669-0.0988-0.128-0.131-0.201-0.192-0.432,0.147,0.0798-0.129-0.392-0.0496-0.0846-0.145-0.144-0.172-0.239-0.0171-0.0606,0.0356-0.121,0.0534-0.181-0.031-0.0767-0.062-0.153-0.0929-0.23-0.374-0.729-0.0104,0.154-0.0124-0.426-0.00058-0.173-0.158-0.314-0.18-0.485-0.0812-0.61,0.127,0.219-0.0627-0.455,0.0816-0.131,0.0117-0.286,0.0505-0.422,0.0193-0.0678,0.11-0.114,0.104-0.184-0.008-0.1-0.13-0.167-0.14-0.267-0.007-0.071,0.0648-0.127,0.0962-0.191,0.0308-0.0628,0.0602-0.126,0.0904-0.189-0.002-0.696-0.024,0.235,0.0695-0.418,0.0105-0.0732-0.0259-0.149-0.0103-0.222,0.0147-0.068,0.0774-0.118,0.0983-0.184,0.009-0.0288,0.0451-0.399,0.0479-0.427,0.118-0.0979,0.003-0.566,0.0324-0.65,0.0267-0.0749,0.142-0.0911,0.172-0.165-0.015-0.295-0.041-0.156,0.0705-0.418-0.033-0.16,0.114-0.261,0.142-0.4,0.0155-0.0759-0.0279-0.158-0.008-0.232,0.0188-0.0705,0.101-0.113,0.119-0.184,0.134-0.539-0.206,0.0562,0.106-0.416,0.0247-0.068,0.0494-0.136,0.0741-0.204,0.001-0.0772-0.019-0.158,0.004-0.232,0.0228-0.0733,0.109-0.117,0.128-0.192,0.0734-0.286-0.115-0.31,0.0712-0.691,0.13-0.177-0.0894-0.337-0.0587-0.503,0.0295-0.16,0.242-0.238,0.288-0.394,0.136-0.46-0.179-0.0547,0.184-0.428,0.114-0.177-0.12-0.346-0.0739-0.512,0.0232-0.0836,0.159-0.0952,0.192-0.175,0.129-0.313-0.224-0.211,0.297-0.608-0.037-0.093-0.12-0.179-0.111-0.279,0.007-0.0782,0.116-0.11,0.153-0.18,0.0412-0.0783,0.157-0.77,0.165-0.883,0.0124-0.0759,0.0249-0.152,0.0373-0.228,0.058-0.061,0.153-0.101,0.174-0.183,0.0224-0.0848-0.0569-0.169-0.058-0.257-0.00092-0.0761,0.048-0.146,0.0522-0.222,0.006-0.107-0.0499-0.385-0.0688-0.49,0.0492-0.469-0.0329-0.93-0.199-1.37-0.192-0.641,0.0884,0.2-0.255-0.496-0.0329-0.0668-0.0285-0.146-0.0504-0.217-0.0709-0.23-0.203-0.398-0.255-0.634-0.241-0.585,0.146,0.278-0.307-0.416-0.0308-0.0472-0.00033-0.117-0.0258-0.167-0.0361-0.0713-0.109-0.118-0.153-0.185-0.0597-0.0934-0.0861-0.211-0.116-0.316-0.308-0.337-0.576-0.701-0.942-0.983-0.176-0.167-0.394-0.275-0.555-0.459-0.0323-0.0368-0.0478-0.0885-0.0859-0.119-0.405-0.327-0.171-0.0244-0.356-0.289-0.2-0.206-0.496-0.276-0.724-0.436-0.0268-0.0187-0.018-0.0678-0.0439-0.0877-0.0885-0.0679-0.524-0.248-0.573-0.269-0.16-0.159-0.398-0.195-0.581-0.306-0.0208-0.0127-0.002-0.0578-0.0234-0.0693-0.396-0.148-0.242-0.0693-0.478-0.202,0.214,0.0875-0.861-0.337-0.644-0.257,0.554,0.203,1.11,0.401,1.66,0.609,0.0583,0.022-0.121-0.029-0.18-0.0502-0.731-0.265-1.46-0.538-2.19-0.807,3.48,1.2,1.27,0.48,0.437,0.256-0.56-0.183-1.12-0.373-1.68-0.554-0.478-0.0822-0.941-0.306-1.42-0.419-0.507-0.0668-0.973-0.238-1.47-0.372-0.484-0.0796-0.958-0.2-1.45-0.255-0.28,0.004-0.546-0.0876-0.82-0.118-0.055-0.006-0.109,0.0259-0.164,0.0243-0.201-0.006-0.399-0.0466-0.598-0.0635-0.0409,0.0231-0.0759,0.0647-0.123,0.0693-0.105,0.0102-0.211-0.0301-0.317-0.0266-0.0626,0.002-0.12,0.0431-0.183,0.0432-0.119,0.00018-0.235-0.0364-0.353-0.0424-0.175-0.009-0.35,0.0155-0.525,0.0229-0.344,0.0221-0.712,0.003-1.05,0.0838-0.0633,0.0152-0.119,0.0614-0.184,0.0657-0.129,0.008-0.258-0.0187-0.387-0.0281-0.239,0.173-0.536,0.0405-0.795,0.101-0.0537,0.0125-0.0763,0.0897-0.13,0.102-0.406,0.005-0.225-0.0256-0.547,0.0641-0.32,0.136-0.68,0.105-1.02,0.165-0.14,0.0248-0.268,0.0943-0.402,0.141-0.0784,0.0175-0.157,0.035-0.235,0.0525-0.0474,0.0335-0.0868,0.0833-0.142,0.1-0.0918,0.0283-0.194,0.007-0.286,0.032-0.174,0.0461-0.378,0.171-0.527,0.271-0.0651,0.0277-0.138,0.0411-0.195,0.0832-0.0441,0.0326-0.0535,0.0994-0.0969,0.133-0.253,0.196-0.138-0.0164-0.433,0.161-0.592,0.356,0.654-0.117-0.367,0.225-0.147,0.252-0.398,0.424-0.626,0.597-0.0659,0.0502-0.155,0.0714-0.21,0.133-0.0456,0.0512-0.0523,0.127-0.0785,0.19-0.338-0.006-0.271,0.313-0.492,0.444-0.394,0.234-0.25-0.0608-0.474,0.438-0.205,0.1-0.232,0.32-0.421,0.441-0.284,0.183-0.306,0.1-0.372,0.46-0.126,0.184-0.381,0.244-0.522,0.407-0.0434,0.0507-0.0466,0.127-0.0864,0.181-0.353,0.475,0.003-0.167-0.256,0.337-0.0159,0.069-0.002,0.152-0.0476,0.207-0.0566,0.0684-0.172,0.0658-0.232,0.131-0.435,0.47,0.296-0.0872-0.111,0.404-0.363,0.438-0.168-0.172-0.285,0.33-0.144,0.532,0.0639-0.13-0.192,0.373-0.0662,0.13-0.003,0.304-0.0745,0.431-0.264,0.465-0.184-0.166-0.204,0.378-0.0317,0.0645-0.0737,0.125-0.0951,0.194-0.0439,0.141-0.04,0.293-0.0741,0.437-0.0524,0.221-0.167,0.4-0.247,0.612,0.0346,0.155-0.0657,0.294-0.0685,0.443-0.002,0.0846,0.0745,0.174,0.0392,0.251-0.0387,0.0844-0.183,0.0788-0.228,0.16-0.0392,0.0714,0.0156,0.164,0.006,0.244-0.009,0.0767-0.042,0.149-0.0631,0.223,0.073,0.25,0.001,0.482-0.0294,0.728-0.01,0.0798,0.006,0.162-0.0109,0.241-0.0169,0.0767-0.0847,0.139-0.0904,0.217-0.007,0.0908,0.0368,0.178,0.0552,0.267-0.0259,0.0753-0.0707,0.147-0.0776,0.226-0.008,0.0886,0.0228,0.176,0.035,0.264,0.0462,0.332,0.0967,0.678,0.01,1-0.0332,0.217,0.201,0.344,0.226,0.537,0.009,0.0737-0.0813,0.132-0.0854,0.206-0.005,0.0865,0.0576,0.166,0.0604,0.253,0.0153,0.475-0.179-0.103,0.0632,0.451,0.136,0.206,0.0907,0.467,0.156,0.688,0.0761,0.257,0.191,0.389,0.183,0.668,0.144,0.428,0.218,0.852,0.378,1.27,0.0214,0.03,0.307,0.425,0.319,0.462,0.0167,0.0538-0.046,0.112-0.0315,0.166,0.0652,0.245,0.244,0.29,0.267,0.583,0.202,0.191,0.229,0.156,0.294,0.388,0.0136,0.0481-0.002,0.104,0.0221,0.148,0.124,0.226,0.377,0.256,0.391,0.526,0.223,0.158,0.296,0.447,0.478,0.638,0.0615,0.0646,0.157,0.0956,0.206,0.17,0.0228,0.0344-0.008,0.0822-0.0117,0.123,0.13,0.13,0.322,0.186,0.454,0.314,0.262,0.254-0.17-0.0132,0.181,0.244,0.148,0.109,0.316,0.187,0.471,0.287,0.0678,0.0437,0.136,0.0874,0.203,0.131-0.0122,0.0222-0.0574,0.052-0.0367,0.0666,0.0957,0.0674,0.219,0.0841,0.324,0.136,0.187,0.0918,0.354,0.211,0.547,0.298,0.613,0.359,1.92,0.781-1.23-0.401-0.115-0.0432,0.234,0.0793,0.355,0.0993,0.47,0.173,0.97,0.217,1.45,0.324,0.462,0.0908,0.929,0.0707,1.4,0.0992,0.225,0.081,0.447-0.0276,0.665-0.0317,0.108-0.002,0.216,0.0418,0.323,0.0299,0.045-0.005,0.0682-0.0643,0.111-0.0778,0.0696-0.0218,0.145-0.0167,0.217-0.0251,0.466,0.005,0.871-0.209,1.33-0.218,0.0833-0.009,0.172,0.003,0.25-0.0274,0.0441-0.0174,0.0619-0.0719,0.0929-0.108,0.0521-0.0257,0.102-0.0561,0.156-0.077,0.219-0.0846,0.414-0.0542,0.608-0.193,0.283-0.0147,0.431-0.255,0.67-0.359,0.0711-0.031,0.159-0.0287,0.219-0.0775,0.0433-0.035,0.044-0.102,0.066-0.153,0.082-0.0255,0.181-0.0204,0.246-0.0765,0.0433-0.0373,0.005-0.12,0.0371-0.168,0.0767-0.113,0.259-0.127,0.328-0.244,0.293-0.497-0.333,0.122,0.163-0.319,0.342-0.705-0.256,0.463,0.267-0.31,0.0375-0.0555,0.0154-0.135,0.0434-0.196,0.0902-0.196,0.243-0.363,0.409-0.492-0.024-0.0834-0.08-0.164-0.0719-0.25,0.0112-0.12,0.277-0.453,0.326-0.57,0.386-0.919-0.332,0.473,0.147-0.424-0.0165-0.0865-0.0644-0.173-0.0495-0.26,0.0131-0.0757,0.0939-0.123,0.127-0.192,0.0651-0.134,0.0914-0.284,0.155-0.419,0.0327-0.0687,0.102-0.125,0.108-0.201,0.007-0.0923-0.0497-0.178-0.0745-0.267-0.0338-0.237,0.1-0.421,0.121-0.651,0.007-0.074-0.015-0.151,0.004-0.223,0.11-0.406,0.164,0.0374,0.0517-0.419-0.0235-0.0809-0.0589-0.159-0.0704-0.243-0.0369-0.266,0.0544-0.18,0.008-0.454-0.0397-0.237-0.153-0.502-0.24-0.726-0.0355-0.428,0.0353-0.0251-0.188-0.472-0.0342-0.0682-0.0247-0.154-0.0641-0.22-0.0563-0.0934-0.166-0.149-0.216-0.246-0.315-0.603,0.538,0.371-0.24-0.424-0.0236-0.324,0.0317-0.047-0.187-0.383-0.0345-0.053-0.034-0.125-0.0733-0.175-0.0622-0.0784-0.16-0.123-0.224-0.2-0.0414-0.0491-0.0592-0.114-0.0888-0.171-0.0493-0.0574-0.0986-0.115-0.148-0.172-0.0699-0.271-0.37-0.339-0.529-0.538-0.0273-0.034-0.001-0.091-0.0231-0.129-0.0696-0.12-0.183-0.209-0.271-0.316-0.687-0.469,0.0264,0.0672-0.318-0.296-0.0508-0.0535-0.126-0.08-0.175-0.135-0.0227-0.0257-0.005-0.0757-0.031-0.0982-0.254-0.137-0.155-0.0616-0.313-0.202-0.0328-0.0268-0.151-0.151-0.145-0.193,0.105-0.751,1.49,0.316,2.21,0.546,0.205,0.102,0.394,0.252,0.641,0.354,0.234,0.191,0.532,0.254,0.797,0.393,0.228,0.192,0.56,0.225,0.788,0.403,0.433,0.139,0.845,0.328,1.28,0.473,0.324,0.177,0.69,0.3,1.04,0.442,0.432,0.145,0.84,0.35,1.27,0.507,0.343,0.15,0.68,0.286,1.02,0.444,0.252,0.0635,0.47,0.228,0.707,0.321,0.486,0.19,0.205,0.0153,0.454,0.185,0.196,0.129,0.421,0.167,0.61,0.317,0,0-1.98-0.404-1.98-0.404-0.259-0.112-0.497-0.255-0.767-0.348-0.334-0.169-0.699-0.273-1.02-0.471-0.4-0.137-0.791-0.314-1.18-0.476-0.389-0.166-0.781-0.325-1.17-0.48-0.373-0.208-0.82-0.262-1.2-0.469-0.382-0.148-0.761-0.303-1.14-0.462-0.312-0.134-0.58-0.317-0.898-0.431-0.16-0.0854-0.312-0.138-0.476-0.218-0.0214-0.0105-0.0306-0.0365-0.0458-0.0548-0.00059-0.0129,0.009-0.0317-0.002-0.0388-0.0541-0.0355-0.118-0.0525-0.178-0.0788-0.169-0.153-0.404-0.181-0.588-0.323,0.611,0.18,1.21,0.395,1.83,0.539,0.0371,0.009,0.006-0.0966,0.0428-0.106,0.0923-0.0234,0.335,0.12,0.159,0.121,0.124,0.105,0.298,0.196,0.406,0.311,0.0277,0.0297,0.0181,0.0838,0.0469,0.112,0.336,0.334,0.164,0.0104,0.293,0.299,0.121,0.12,0.264,0.218,0.377,0.345,0.0386,0.0432,0.068,0.096,0.0858,0.151,0.0137,0.0424-0.025,0.102,0.006,0.134,0.406,0.419,0.303,0.024,0.36,0.364,0.0882,0.07,0.176,0.14,0.265,0.21,0.006,0.0508-0.012,0.11,0.0166,0.152,0.0588,0.087,0.163,0.134,0.231,0.214,0.139,0.163,0.277,0.378,0.315,0.589,0.537,0.64-0.008-0.0958,0.221,0.43,0.0391,0.0902,0.119,0.157,0.167,0.243,0.124,0.224,0.176,0.485,0.271,0.72,0.0572,0.234,0.332,0.819,0.312,1.02-0.008,0.079-0.124,0.128-0.118,0.207,0.008,0.105,0.104,0.184,0.155,0.277-0.3,0.446,0.0127-0.109-0.0814,0.426-0.0129,0.0734-0.108,0.116-0.118,0.19-0.0107,0.0862,0.0675,0.166,0.0626,0.253-0.004,0.0755-0.0591,0.139-0.0887,0.209,0.005,0.0844,0.01,0.169,0.015,0.253-0.006,0.08-0.0175,0.16-0.018,0.24-0.00055,0.0833,0.0426,0.171,0.0148,0.249-0.0276,0.0779-0.12,0.115-0.168,0.182-0.142,0.202-0.116,0.422-0.162,0.653-0.17,0.422-0.29,0.857-0.446,1.28,0.004,0.0786,0.0507,0.167,0.0129,0.236-0.0418,0.0764-0.159,0.0789-0.219,0.142-0.0477,0.0498-0.0506,0.131-0.0937,0.184-0.128,0.16-0.303,0.272-0.374,0.482-0.0221,0.638-0.0455,0.194-0.396,0.448-0.0481,0.0348,0.004,0.129-0.0336,0.175-0.343,0.426-0.105-0.174-0.255,0.284-0.355,0.217-0.702,0.44-1.08,0.605-0.266,0.213-0.315,0.124-0.548,0.24-0.0463,0.0231-0.0535,0.101-0.103,0.116-0.166,0.053-0.359-0.0397-0.518,0.0644-0.44,0.229,0.301-0.127-0.474,0.0662-0.0444,0.0111-0.0376,0.0947-0.0802,0.111-0.218,0.0862-0.489-0.0513-0.692,0.1-0.249,0.0431-0.524-0.0195-0.763,0.0318-0.0418,0.009-0.0539,0.0769-0.0958,0.0854-0.155,0.0313-0.32-0.0496-0.474,0.0153-0.528-0.0327-1.06-0.0492-1.58-0.16-0.313,0.0738-1.05-0.168-1.38-0.252-1.09-0.241-2.13-0.696-3.15-1.16-0.372-0.232-0.741-0.45-1.11-0.688-0.173-0.184-0.264-0.23-0.451-0.395-0.161-0.143-0.252-0.38-0.479-0.459-0.0781-0.394-0.408-0.694-0.694-0.952-0.0393-0.102-0.0415-0.221-0.104-0.31-0.0556-0.0788-0.147-0.126-0.207-0.202-0.125-0.157-0.212-0.371-0.297-0.55-0.0581-0.131-0.136-0.253-0.179-0.39-0.0188-0.0599,0.0009-0.13-0.0265-0.187-0.0855-0.177-0.333-0.466-0.399-0.675-0.0477-0.131-0.0498-0.276-0.0978-0.407-0.105-0.287-0.337-0.561-0.262-0.884-0.0936-0.447-0.385-0.896-0.27-1.35-0.0191-0.16-0.0844-0.314-0.0982-0.475-0.006-0.075,0.0528-0.152,0.0308-0.224-0.0337-0.111-0.152-0.182-0.188-0.292-0.0498-0.154,0.114-0.334-0.0146-0.485,0.0898-0.453,0.0413-0.0159-0.0347-0.516-0.0465-0.306-0.0417-0.708,0.005-1.01,0.034-0.493-0.0346-0.993,0.0892-1.48,0.0239-0.251,0.149-0.448,0.151-0.689,0.00081-0.0857-0.0562-0.172-0.0339-0.255,0.0208-0.0775,0.102-0.124,0.153-0.186,0.0193-0.0724,0.0386-0.145,0.0578-0.217-0.0269-0.387,0.0453-0.318,0.215-0.619,0.124-0.22,0.0304-0.464,0.285-0.61-0.00099-0.0505-0.0132-0.406,0.004-0.46,0.0214-0.0689,0.0842-0.118,0.118-0.181,0.107-0.202,0.163-0.421,0.357-0.568,0.115-0.175,0.209-0.365,0.292-0.557,0.0284-0.0657,0.0285-0.145,0.0694-0.203,0.0453-0.0652,0.139-0.0879,0.18-0.156,0.0362-0.0596,0.0265-0.137,0.0397-0.205,0.579-0.402-0.0523,0.123,0.212-0.373,0.0732-0.137,0.291-0.146,0.376-0.277,0.0353-0.0544,0.0217-0.128,0.0326-0.192,0.0459-0.0534,0.0918-0.107,0.138-0.16,0.0618-0.0424,0.49-0.367,0.516-0.417,0.0327-0.0628-0.0555-0.16-0.008-0.212,0.5-0.544,0.144,0.3,0.347-0.27,0.0881-0.0319,0.188-0.0413,0.264-0.0956,0.16-0.114,0.14-0.413,0.297-0.521,0.0832-0.0574,0.2-0.0447,0.289-0.0936,0.066-0.0364,0.109-0.104,0.164-0.156,0.101-0.108,0.252-0.182,0.308-0.319,0.0284-0.069-0.0595-0.177-0.002-0.224,0.097-0.0792,0.253-0.0262,0.368-0.0752,0.145-0.0618,0.19-0.287,0.393-0.264,0.165-0.112,0.338-0.235,0.489-0.365,0.0451-0.0388,0.0672-0.106,0.121-0.132,0.0816-0.0398,0.184-0.018,0.266-0.0571,0.0533-0.0254,0.0816-0.0854,0.122-0.128,0.0533-0.0182,0.379-0.126,0.429-0.159,0.0443-0.0302,0.0528-0.0998,0.0994-0.126,0.195-0.111,0.462-0.0243,0.597-0.241,0.109-0.003,0.22,0.0108,0.328-0.009,0.139-0.0256,0.24-0.17,0.396-0.153,0.108-0.0149,0.219,0.0116,0.327-0.007,0.065-0.0112,0.121-0.0535,0.181-0.0803,0.0916-0.0127,0.183-0.0254,0.275-0.0381,0.24-0.046,0.477-0.112,0.72-0.146,0.196-0.0281,0.399-0.002,0.592-0.0445,0.0581-0.0129,0.103-0.0593,0.155-0.089,0.292,0.0145,0.611,0.0269,0.9-0.0368,0.0586-0.0129,0.106-0.0627,0.165-0.0706,0.202-0.0268,0.41,0.041,0.613-0.003,0.307-0.0728,0.473-0.0266,0.778-0.0408,0.0594-0.003,0.112-0.0461,0.171-0.0497,0.196-0.0116,0.392,0.0538,0.589,0.0284,0.107,0.0104,0.214,0.0208,0.321,0.0312,0.0497-0.0176,0.0964-0.0517,0.149-0.0527,0.35-0.007,0.712,0.127,1.06,0.125,0.501-0.0195,0.977,0.209,1.47,0.246,0.365-0.0113,1.02,0.3,1.42,0.339,0.491,0.118,0.953,0.314,1.44,0.422,0.518,0.174,1.03,0.363,1.56,0.498,1.22,0.334,2.4,0.77,3.58,1.22-4.01-1.43,0.187,0.0448,1.47,0.545,0.34,0.261,0.79,0.329,1.12,0.614,0.379,0.252,0.786,0.442,1.11,0.764,0.377,0.287,0.766,0.537,1.07,0.908,0.1,0.0645,0.218,0.108,0.301,0.193,0.0301,0.0312-0.0159,0.0962,0.0117,0.13,0.068,0.0823,0.17,0.129,0.255,0.193,0.0182,0.0498,0.0217,0.108,0.0545,0.149,0.25,0.316,0.217,0.0522,0.214,0.333,0.0856,0.0708,0.171,0.142,0.257,0.212-0.0187,0.0449-0.0763,0.0904-0.0562,0.135,0.0416,0.0914,0.148,0.137,0.214,0.212,0.156,0.177,0.257,0.385,0.331,0.607-0.0183,0.0573-0.0808,0.118-0.055,0.172,0.0525,0.111,0.182,0.166,0.26,0.261,0.308,0.376,0.0643,0.0873,0.14,0.442,0.0357,0.166,0.179,0.3,0.161,0.484,0.0191,0.0474,0.196,0.478,0.203,0.529,0.0113,0.0762-0.0343,0.154-0.0238,0.23,0.0119,0.0871,0.0889,0.16,0.0893,0.248,0.0003,0.0701-0.0583,0.127-0.0874,0.191,0.016,0.0819,0.0319,0.164,0.0479,0.246,0.009,0.481-0.0241,0.965-0.123,1.44-0.137,0.762,0.0929-0.301-0.196,0.416-0.0946,0.235,0.0277,0.646-0.205,0.866-0.0363,0.398-0.185,0.305-0.218,0.642-0.008,0.0792,0.0472,0.168,0.01,0.239-0.302,0.566-0.213-0.23-0.234,0.408,0.0746,0.344,0.0384,0.39-0.167,0.673-0.0479,0.0663-0.131,0.113-0.153,0.192-0.0228,0.0801,0.0324,0.165,0.0278,0.248-0.004,0.0748-0.0358,0.145-0.0537,0.218,0.006,0.159,0.061,0.32,0.027,0.475-0.0167,0.0761-0.0974,0.128-0.115,0.203-0.0186,0.0792,0.0236,0.164,0.0102,0.244-0.0123,0.0739-0.0571,0.139-0.0856,0.208-0.008,0.0756-0.0153,0.151-0.0229,0.227-0.0194,0.0704-0.0387,0.141-0.0581,0.211-0.0406,0.0616-0.0961,0.116-0.122,0.185-0.0865,0.234-0.0759,0.602-0.175,0.842,0.0244,0.0833,0.0907,0.165,0.0731,0.25-0.0154,0.0743-0.121,0.0972-0.159,0.163-0.0335,0.0592-0.0201,0.136-0.0464,0.199-0.0987,0.236-0.18,0.309-0.164,0.607-0.173,0.325-0.05,0.0241-0.0924,0.403-0.0309,0.277-0.239,0.513-0.165,0.804,0.126,0.74-0.0122-0.237-0.001,0.425,0.001,0.0799,0.0519,0.155,0.0472,0.235-0.0109,0.184-0.156,0.39-0.14,0.587,0.132,0.187,0.275,0.252,0.16,0.476-0.0331,0.0647-0.161,0.0876-0.149,0.159,0.0196,0.115,0.168,0.166,0.222,0.27,0.0439,0.0838,0.0335,0.329,0.0334,0.421,0.03,0.074,0.0801,0.143,0.0899,0.222,0.007,0.06-0.0675,0.122-0.0408,0.177,0.0526,0.107,0.196,0.148,0.252,0.252,0.0975,0.181-0.27,0.272,0.327,0.574-0.209,0.277,0.0691,0.278,0.278,0.463,0.113,0.0999,0.0869,0.383,0.31,0.4,0.335,0.256,0.585,0.605,0.966,0.809,0.173,0.299,0.187,0.153,0.468,0.399,0.0238,0.0209-0.0243,0.0699-0.005,0.0949,0.0863,0.111,0.254,0.14,0.316,0.279,0.158,0.212,0.414,0.31,0.592,0.508,0.027,0.03,0.0328,0.0764,0.0626,0.104,0.0575,0.0527,0.129,0.0874,0.194,0.131,0.342,0.21,0.598,0.519,0.96,0.702,0.106,0.078,0.229,0.131,0.329,0.217,0.0212,0.0183,0.009,0.0619,0.0327,0.0773,0.207,0.136,0.459,0.218,0.667,0.356,0.24,0.282,0.671,0.376,0.97,0.586,0.323,0.193,0.649,0.342,0.968,0.539,0.371,0.164,0.722,0.368,1.1,0.523,0.829,0.288,2.82,1.18-0.736-0.221,0.738,0.263,1.48,0.522,2.21,0.788,0.0509,0.0183,0.2,0.0826,0.149,0.0645-0.605-0.214-1.21-0.438-1.81-0.653-0.196-0.0696,0.78,0.283,0.591,0.197,0.441,0.164,0.906,0.258,1.34,0.437,0.423,0.0626,0.822,0.207,1.23,0.335,0.434,0.113,0.854,0.284,1.29,0.377,0.448,0.0964,0.875,0.287,1.32,0.393,0.479,0.171,0.982,0.258,1.45,0.451,0.468,0.116,0.924,0.274,1.39,0.404,0.433,0.158,0.882,0.274,1.31,0.442,0.395,0.111,0.777,0.278,1.17,0.379,0.432,0.171,0.883,0.271,1.33,0.426,0.364,0.0341,0.821,0.282,1.19,0.353,0.459,0.105,0.91,0.234,1.35,0.384,0.313-0.0113,0.877,0.281,1.21,0.314,0.429,0.102,0.87,0.154,1.29,0.306,0.433,0.12,0.877,0.196,1.31,0.324,0.448-0.005,0.86,0.323,1.32,0.336,0.443,0.137,0.897,0.22,1.34,0.36,0.48,0.102,0.957,0.225,1.41,0.412,0.443,0.0113,0.841,0.235,1.26,0.346,0.47,0.0324,0.923,0.295,1.37,0.407,0.0795,0.0278,0.159,0.0556,0.238,0.0833,0.005-0.0121,0.002-0.0396,0.0144-0.0363,0.34,0.0894,0.653,0.241,0.991,0.339,0.413,0.17,0.845,0.282,1.27,0.418,0.457,0.156,0.922,0.295,1.37,0.48,0.477,0.134,0.932,0.331,1.4,0.487,0.284-0.008,0.958,0.341,1.27,0.388,0.429,0.0971,0.828,0.302,1.26,0.38,0.445,0.0952,0.864,0.282,1.31,0.362,0.382,0.127,0.776,0.197,1.16,0.295,0.382,0.108,0.761,0.225,1.15,0.302,0.34,0.104,0.669,0.212,1.02,0.285,0.283,0.0897,0.554,0.128,0.824,0.252,3.67,1.92,2.16,1.06,1.22,0.765-0.221,0.115-0.942-0.209-1.19-0.217-0.11-0.0332-0.22-0.0663-0.33-0.0995-0.0255,0.0105-0.049,0.0326-0.0766,0.0315-0.301-0.0124-0.569-0.229-0.877-0.197-0.505-0.158-1.02-0.252-1.54-0.376-0.205-0.0424-0.414-0.0736-0.619-0.118-0.199-0.0436-0.388-0.129-0.588-0.165-0.0267-0.005-0.0515,0.017-0.0773,0.0255-0.459-0.0846-0.948-0.268-1.4-0.388-0.4-0.13-0.814-0.215-1.22-0.341-0.461-0.122-0.91-0.281-1.37-0.414-0.448-0.118-0.894-0.242-1.34-0.365-0.505-0.199-1.03-0.286-1.54-0.495-0.216-0.008-0.0358,0.01-0.4-0.121-0.346-0.124-0.709-0.189-1.05-0.342-0.228-0.0694-0.351-0.104-0.576-0.185-7.73-2.77,1.19,0.435-0.824-0.288-0.779-0.279-1.56-0.568-2.33-0.852-0.593-0.238-1.55-0.618,1.35,0.475,0.0764,0.0288-0.16-0.0351-0.237-0.0606-0.343-0.113-0.669-0.284-1.03-0.342-0.613-0.195-1.24-0.346-1.84-0.571-0.629-0.225-1.26-0.438-1.89-0.667-0.683-0.167-1.35-0.4-2.02-0.587-0.651-0.157-1.28-0.385-1.93-0.556-0.561-0.154-1.13-0.267-1.69-0.425-0.561-0.145-1.1-0.343-1.67-0.475-0.602-0.154-1.2-0.329-1.79-0.529-0.256-0.0575-0.217-0.0424-0.526-0.152-7.6-2.7,4.09,1.41-3.09-1.12-0.587-0.247-1.19-0.452-1.77-0.71-0.465-0.243-0.967-0.396-1.43-0.646-0.513-0.189-0.983-0.445-1.5-0.618-0.369-0.277-0.884-0.339-1.3-0.534-0.43-0.212-0.886-0.377-1.34-0.536-0.359-0.15-0.0216-0.0136-0.491-0.185-0.076-0.0277-0.152-0.0545-0.226-0.0872-0.038-0.0168-0.148-0.0748-0.109-0.061,0.151,0.0532,5.33,1.95-0.451-0.162-1.28-0.465,3.28,1.19,1.51,0.532-0.709-0.264-1.43-0.508-2.14-0.762-0.0831-0.0296-0.167-0.057-0.25-0.0884-0.0644-0.0245-0.256-0.102-0.191-0.0792,0.588,0.208,1.17,0.422,1.76,0.633-1.1-0.393-2.19-0.771-3.26-1.23-0.385-0.125-0.251-0.0751-0.568-0.198-0.0766-0.0297-0.307-0.117-0.23-0.09,0.622,0.217,4.71,1.68-0.264-0.134-0.117-0.0429-0.238-0.0761-0.357-0.114-0.385-0.183-0.788-0.312-1.17-0.492-0.414-0.166-0.827-0.311-1.23-0.494-0.102-0.0424-0.2-0.0924-0.302-0.134-0.0746-0.0302-0.303-0.11-0.227-0.0827,3.9,1.39,0.749,0.251-0.518-0.199,0.571,0.201,2.29,0.794,1.71,0.604-0.716-0.236-1.43-0.491-2.14-0.744-0.66-0.235-1.72-0.66,1.52,0.535,0.0622,0.0229-0.126-0.0416-0.189-0.0625-0.243-0.0383,0.1,0.0239-0.403-0.157-0.198-0.0712-0.436-0.0933-0.64-0.166-0.276,0.0811-0.569-0.213-0.851-0.185-0.18-0.0171-0.373-0.078-0.524-0.0429-0.279-0.0727-0.003,0.0501,0.0864,0.241,0.0409,0.309,0.649,0.476,0.758,0.77,0.252,0.297-0.0497-0.0371,0.34,0.301,0.0477,0.0414,0.0847,0.0936,0.127,0.14,0.0324,0.0448,0.0557,0.0979,0.0973,0.134,0.338,0.295,0.183,0.0335,0.311,0.293,0.125,0.139,0.28,0.3,0.434,0.406,0.0967,0.0663,0.215,0.099,0.308,0.17,0.0353,0.0271,0.044,0.0774,0.066,0.116,0.0693,0.0499,0.139,0.0998,0.208,0.15,0.357,0.22,0.621,0.52,0.989,0.724,0.381,0.192,0.685,0.499,1.03,0.747,0.104,0.0928,0.781,0.7,0.796,0.729,0.0183,0.0352-0.0109,0.0785-0.0164,0.118,0.365,0.278,0.659,0.66,0.921,1.03,0.128,0.316-0.0264-0.002,0.269,0.35,0.174,0.207,0.288,0.477,0.499,0.659,0.0523,0.0586,0.105,0.117,0.157,0.176-0.0153,0.0406-0.073,0.088-0.0458,0.122,0.0791,0.0977,0.225,0.12,0.314,0.209,0.0347,0.0348,0.0115,0.1,0.0365,0.143,0.33,0.559,0.0162-0.148,0.215,0.329,0.0582,0.0617,0.116,0.123,0.175,0.185,0.009,0.0498-0.004,0.11,0.0273,0.149,0.0666,0.0853,0.177,0.127,0.251,0.206,0.137,0.147,0.133,0.403,0.325,0.512,0.0976,0.13,0.204,0.254,0.301,0.385,0.0894,0.121,0.144,0.265,0.233,0.386,0.06,0.0805,0.15,0.137,0.204,0.222,0.0343,0.0543,0.0358,0.123,0.0536,0.185,0.334,0.377,0.523,0.849,0.838,1.24-0.005,0.254,0.143,0.352,0.259,0.567,0.0317,0.0591,0.0334,0.134,0.0743,0.187,0.0685,0.0889,0.193,0.131,0.246,0.229,0.0256,0.0471-0.0247,0.104-0.0371,0.156,0.082,0.131,0.478,0.68,0.497,0.8,0.009,0.0539-0.0755,0.0906-0.0759,0.145-0.00047,0.0664,0.049,0.123,0.0736,0.185,0.0695,0.0951,0.226,0.285,0.257,0.412,0.0133,0.0536-0.0195,0.111-0.0112,0.165,0.0325,0.212,0.211,0.364,0.217,0.583,0.161,0.399,0.295,0.81,0.411,1.22,0.0402,0.264,0.213,0.425,0.255,0.657,0.0111,0.0609-0.0446,0.123-0.0297,0.183,0.183,0.745,0.117-0.189,0.141,0.44,0.283,0.57,0.0297-0.0594,0.077,0.417,0.0294,0.296,0.131,0.167,0.189,0.464,0.0124,0.0638-0.0299,0.128-0.0266,0.193,0.004,0.0725,0.0317,0.142,0.0476,0.212,0.218,0.409,0.0122,0.296,0.166,0.66,0.0363,0.0861,0.114,0.155,0.134,0.246,0.127,0.566-0.369-0.288,0.152,0.467-0.0304,0.0636-0.091,0.12-0.0912,0.191-0.00027,0.0869,0.0716,0.16,0.0898,0.245,0.0484,0.226-0.0321,0.224,0.0282,0.453,0.0246,0.0932,0.104,0.17,0.113,0.266,0.007,0.0724-0.0446,0.138-0.0669,0.208,0.0412,0.0881,0.104,0.169,0.123,0.264,0.0149,0.0718-0.0287,0.146-0.0233,0.219,0.0103,0.14,0.112,0.344,0.084,0.491-0.0151,0.078-0.129,0.131-0.114,0.209,0.0227,0.123,0.14,0.208,0.21,0.312,0.0118,0.176,0.078,0.352,0.0533,0.526-0.012,0.085-0.0876,0.151-0.108,0.234-0.0661,0.277,0.0134,0.587,0.113,0.842-0.143,0.532,0.0951,1.05,0.0343,1.59-0.0439,0.22-0.0704,0.253-0.0323,0.483,0.0159,0.096,0.0825,0.185,0.0749,0.282-0.007,0.0853-0.107,0.144-0.115,0.229-0.018,0.183,0.16,0.359,0.0506,0.551,0.004,0.277-0.0639,0.496-0.0984,0.766-0.011,0.0865,0.002,0.175-0.0123,0.261-0.0141,0.0827-0.0844,0.158-0.0731,0.241,0.0156,0.115,0.0991,0.21,0.149,0.314-0.216,0.424-0.0486,0.0171-0.124,0.486-0.0133,0.0821-0.0671,0.156-0.0712,0.239-0.005,0.0938,0.0484,0.184,0.0459,0.278-0.004,0.167-0.127,0.318-0.0882,0.493-0.14,0.3-0.0969,0.142-0.128,0.475-0.0284,0.0791-0.133,0.125-0.141,0.209-0.0106,0.0998,0.0948,0.188,0.0888,0.288-0.009,0.159-0.244,0.255-0.175,0.444,0.002,0.0833,0.0298,0.17,0.006,0.25-0.106,0.364-0.181,0.0114-0.203,0.407-0.005,0.0848,0.0696,0.171,0.0421,0.251-0.238,0.696-0.19-0.358-0.183,0.399-0.33,0.367-0.0739-0.0255-0.0705,0.457,0.00051,0.0746-0.0684,0.133-0.0912,0.204-0.0227,0.0706-0.007,0.154-0.0444,0.218-0.0415,0.0704-0.139,0.095-0.181,0.165-0.0371,0.0618-0.0298,0.141-0.0447,0.212-0.0248,0.0708-0.0592,0.139-0.0745,0.212-0.0157,0.0753,0.0255,0.166-0.0177,0.23-0.0524,0.0772-0.208,0.0589-0.238,0.147-0.0308,0.0887,0.105,0.172,0.0949,0.265-0.0173,0.152-0.285,0.205-0.222,0.402,0.0725,0.59,0.0668-0.07-0.198,0.4-0.0386,0.0686,0.0264,0.159,0.0106,0.236-0.0457,0.223-0.288,0.38-0.261,0.629-0.124,0.268-0.216,0.591-0.386,0.832-0.0462,0.0654-0.12,0.11-0.158,0.181-0.0372,0.0691-0.0409,0.151-0.0614,0.227,0.002,0.0824,0.0403,0.172,0.006,0.247-0.0333,0.0738-0.131,0.0962-0.188,0.154-0.207,0.211-0.229,0.539-0.473,0.727-0.188,0.452-0.423,0.288-0.537,0.469-0.041,0.0649,0.0677,0.157,0.0372,0.227-0.0108,0.025-0.366,0.227-0.385,0.238-0.101,0.186-0.254,0.25-0.378,0.414-0.0333,0.0441-0.032,0.113-0.0749,0.148-0.321,0.26-0.165-0.0827-0.273,0.25-0.129,0.0706-0.269,0.119-0.395,0.194-0.579,0.341,0.224-0.0922-0.253,0.25-0.335,0.241-0.111-0.0612-0.292,0.228-0.0992,0.071-0.177,0.18-0.291,0.221-0.093,0.0338-0.201,0.0102-0.293,0.0462-0.159,0.0621-0.212,0.341-0.435,0.305-0.0672,0.0251-0.134,0.0503-0.202,0.0754-0.0366,0.0352-0.0647,0.082-0.11,0.106-0.223,0.116-0.5,0.154-0.709,0.31-0.97,0.0496,0.146-0.0585-0.406,0.105-0.079,0.0234-0.167-0.002-0.246,0.0195-0.0471,0.0127-0.0765,0.0637-0.122,0.0801-0.119,0.0422-0.255,0.0211-0.367,0.0906-0.143,0.004-0.284,0.0464-0.427,0.0442-0.105-0.002-0.207-0.0585-0.311-0.0442-0.0232,0.003-0.0471,0.253-0.357,0.109,0,0-1.89-0.962-1.89-0.962z"/>
  <path id="path3948" fill="#000" transform="translate(0,352.36218)" d="m343,456c-0.216,1.15,0.165-0.141-0.797,0.884-0.17,0.181-0.105,0.522-0.292,0.687-0.628,0.555-1.75,0.274-2.37,0.83-0.236,0.209-0.0723,0.626-0.108,0.939-0.661,0.623-1.68,0.548-2.39,1.05-0.296,0.21-0.364,0.646-0.641,0.881-1.05,0.894-2.65,1.53-3.85,2.21-0.398,0.262-0.77,0.568-1.19,0.786-0.495,0.254-1.06,0.357-1.55,0.624-1.43,0.777-3.27,2.27-4.46,3.38-1.16,0.187-1.84,1.2-2.82,1.67-0.614,0.293-1.32,0.356-1.94,0.638-1.44,0.659-2.71,1.87-4.09,2.67-0.79,0.752-1.85,1.06-2.74,1.65-0.395,0.265-0.684,0.675-1.1,0.914-1.64,0.951-2.61,0.935-4.13,2.29-1.04,2.16,0.29,0.0148-1.93,1.54-0.253,0.174-0.254,0.572-0.466,0.794-0.634,0.66-1.4,0.453-1.53,1.43-0.181,1.29-12.3-3.23-6.65-3.36,0.229-0.092,0.444-0.233,0.688-0.276,0.43-0.076,0.883,0.0246,1.31-0.0767,0.59-0.141,1.06-0.586,1.62-0.821,1.22-0.51,1.11-0.424,2.49-0.774,3.11-1.29,6.53-1.97,9.52-3.54,2.24-1.49,0.276-0.36,3.21-1.44,0.57-0.21,1.1-0.514,1.67-0.735,0.625-0.244,1.32-0.33,1.9-0.66,4.24-2.4-3.07,0.351,3.12-1.71,1.89-1.08,4.11-1.48,6.07-2.36,3.3-1.47,0.202-0.538,3.26-2.14,0.667-0.349,1.41-0.536,2.11-0.805,0.688-0.267,1.41-0.452,2.06-0.802,0.525-0.283,0.952-0.719,1.43-1.08,0.511-0.334,0.99-0.722,1.53-1,0.639-0.332,1.34-0.518,2-0.827,0.484-0.23,2.92-1.61,3.41-1.89,1.65-0.958,3.47-1.56,5.19-2.37,0.507-0.24,0.953-0.615,1.48-0.793,3.53-1.18,1.01,0.429,3.31-1.27,1.61-1.12,0.685-0.662,2.82-1.27,0,0,8.64,3.94,8.64,3.94-2.3,0.619-1.17,0.278-3.41,1.02-0.977,0.444-1.89,1.03-2.88,1.44-1.97,0.829-1.74,0.304-3.51,1.39-0.457,0.28-0.805,0.717-1.27,0.991-0.566,0.337-1.2,0.553-1.79,0.83-1.7,1.01-1.6,1.03-3.52,1.8-0.704,0.282-1.47,0.406-2.14,0.771-0.488,0.269-0.804,0.779-1.26,1.1-1.29,0.903-2.27,1.21-3.73,1.81-3.07,1.93-0.0591,0.199-3.86,1.83-2.54,1.09-4.76,2.85-7.47,3.58-2.98,1.88,0.191,0.115-3.73,1.43-2.22,0.744-4.18,2.3-6.42,3.03-0.298,0.135-2.86,1.31-3.19,1.41-0.638,0.204-1.33,0.214-1.96,0.447-0.46,0.17-0.814,0.559-1.27,0.748-0.553,0.231-1.18,0.261-1.73,0.505-0.359,0.16-0.638,0.461-0.957,0.691-1.59,0.467-3.29,0.759-4.85,1.29-0.256,0.0871-0.445,0.332-0.708,0.396-0.381,0.0932-0.783,0.043-1.17,0.0645-0.406,0.598-0.313,0.735-1.36,0.417-3.07-0.934-6.14-1.87-9.12-3.06-0.224-0.09-0.303-0.455-0.234-0.687,0.051-0.171,0.332-0.13,0.497-0.196,0.0415-0.154,0.0829-0.308,0.124-0.461,0.586-0.661,0.346-0.287,0.706-1.13,0.907-1.08,2.44-1.68,3.19-2.95,1.39-0.654,1.58-0.676,2.83-1.52,0.416-0.281,0.777-0.644,1.21-0.897,0.485-0.282,1.06-0.392,1.53-0.699,0.816-0.533,1.27-1.53,2.23-1.89,1.57-0.604,1.91-0.62,3.25-1.55,0.429-0.3,0.761-0.734,1.21-0.996,1.09-0.63,2.45-0.691,3.51-1.37,0.378-0.242,0.573-0.69,0.86-1.04,1.28-0.768,2.36-1.75,3.66-2.49,0.442-0.252,0.936-0.409,1.36-0.683,2.34-1.5-0.508-0.374,2.77-1.39,1.5-0.838,3.32-1.81,4.58-3,0.249-0.236,0.33-0.632,0.611-0.83,0.353-0.247,0.808-0.299,1.21-0.448,1.02-0.885,0.466-0.49,1.68-1.17,0.214-0.182,0.267-0.515,0.491-0.684,0.268-0.201,0.707-0.13,0.929-0.38,0.146-0.164-0.192-0.54-0.007-0.658,0.306-0.196,0.726-0.0229,1.09-0.0343,0,0,8.19,3.39,8.19,3.39z"/>
  <path id="path3954" fill="#d4aa00" d="m568,809c0.0778,0.0664,0.248,0.175,0.246,0.305-0.00065,0.0335-0.0562,0.0599-0.0431,0.0908,0.181,0.192,0.124,0.0881,0.195,0.297,0.121,0.299,0.416,0.537,0.511,0.849,0.0178,0.0579,0.003,0.121,0.005,0.182,0.0604,0.0726,0.139,0.134,0.181,0.218,0.0282,0.056-0.002,0.129,0.0227,0.187,0.0353,0.0815,0.108,0.142,0.153,0.218,0.13,0.22,0.25,0.454,0.347,0.69,0.0359,0.0837,0.0718,0.167,0.108,0.251,0.0187,0.0808,0.024,0.166,0.0562,0.243,0.0413,0.0979,0.121,0.176,0.162,0.275,0.0326,0.0784,0.0205,0.171,0.0557,0.249,0.306,0.672,0.115-0.0591,0.248,0.56,0.0762,0.106,0.181,0.198,0.229,0.319,0.031,0.0786-0.025,0.172-0.003,0.254,0.0593,0.219,0.212,0.402,0.304,0.61,0.0433,0.0982,0.0778,0.2,0.117,0.3,0.0477,0.104,0.0955,0.209,0.143,0.313,0.394,0.816-0.0463-0.138,0.255,0.641,0.0449,0.116,0.112,0.223,0.156,0.34,0.0396,0.105,0.0477,0.221,0.0938,0.324,0.116,0.258,0.282,0.49,0.416,0.74,0.0975,0.214,0.0435,0.472,0.133,0.687,0.0617,0.148,0.184,0.263,0.253,0.408,0.0569,0.12,0.0722,0.255,0.121,0.378,0.11,0.277,0.253,0.539,0.38,0.808,0.174,0.569,0.341,1.14,0.564,1.69,0.323,0.8,0.122,0.117,0.32,0.896,0.209,0.594,0.359,1.2,0.557,1.8,0.0509,0.154,0.126,0.302,0.157,0.461,0.0261,0.135,0.008,0.274,0.0126,0.412,0.0515,0.154,0.103,0.308,0.154,0.462,0.0295,0.149,0.0406,0.302,0.0885,0.446,0.0565,0.17,0.164,0.319,0.223,0.488,0.152,0.437,0.201,0.938,0.295,1.39,0.0177,0.624,0.209,1.21,0.349,1.81,0.0306,0.132,0.137,0.76,0.16,0.894,0.0677,0.162,0.173,0.313,0.203,0.487,0.0239,0.136-0.0517,0.274-0.0453,0.412,0.0279,0.597,0.129,0.327,0.254,0.92,0.0294,0.139,0.008,0.285,0.0199,0.427,0.0125,0.144,0.0362,0.287,0.0544,0.431,0.00071,0.319,0.166,0.599,0.22,0.905,0.0245,0.14-0.006,0.286,0.0209,0.425,0.0313,0.159,0.117,0.304,0.153,0.463,0.0618,0.268,0.061,0.599,0.0708,0.872,0.0391,0.152,0.0783,0.304,0.117,0.456,0.0173,0.142,0.0202,0.286,0.0519,0.426,0.035,0.154,0.127,0.294,0.147,0.451,0.0168,0.13-0.0354,0.261-0.0385,0.392-0.0118,0.498,0.0137,0.405,0.221,0.897-0.0119,0.133-0.0485,0.266-0.0356,0.399,0.014,0.145,0.221,0.759,0.248,0.897,0.0268,0.136,0.0168,0.278,0.0402,0.415,0.163,0.952,0.0679-0.0828,0.131,0.828,0.0551,0.398,0.193,0.794,0.225,1.2,0.009,0.113-0.0279,0.228-0.0123,0.341,0.0106,0.0768,0.204,0.646,0.229,0.721,0.0543,0.213,0.001,0.44,0.0469,0.654,0.0252,0.118,0.101,0.223,0.122,0.342,0.0168,0.0956-0.021,0.194-0.0111,0.291,0.0793,0.778,0.088-0.129,0.0621,0.583,0.076,0.109,0.197,0.198,0.228,0.327,0.0187,0.0775-0.0962,0.139-0.0961,0.219,0.00008,0.096,0.0773,0.177,0.0965,0.271,0.0161,0.0784-0.008,0.161,0.008,0.24,0.0331,0.164,0.108,0.316,0.149,0.478-0.048,0.201,0.162,0.309,0.195,0.477,0.0126,0.065-0.0394,0.127-0.0591,0.19,0.0117,0.0676,0.0141,0.137,0.0351,0.203,0.0946,0.295,0.129,0.0943,0.0496,0.328,0.0263-0.004,0.253,0.334,0.264,0.341,0.0497,0.0343,0.234,0.0545,0.178,0.0329-0.479-0.184-0.963-0.353-1.44-0.529,0.11-0.131,0.162-0.009,0.315-0.0665,0.0277-0.0104-0.0163-0.0607-0.006-0.0886,0.0288-0.0794,0.124-0.0958,0.188-0.121,0.0267-0.0245,0.0598-0.0434,0.0802-0.0734,0.0435-0.0638,0.0486-0.148,0.09-0.213,0.0813-0.128,0.186-0.241,0.267-0.371,0.0707-0.103,0.072-0.242,0.141-0.345,0.0412-0.0616,0.121-0.0934,0.155-0.159,0.0353-0.0693,0.008-0.16,0.0428-0.229,0.0377-0.0752,0.115-0.123,0.167-0.189,0.0536-0.0676,0.1-0.141,0.15-0.211,0.122-0.277,0.256-0.741,0.45-0.971,0.359-0.425,0.167,0.0536,0.314-0.45,0.109-0.156,0.109-0.363,0.207-0.523,0.053-0.0864,0.152-0.139,0.202-0.227,0.0925-0.162,0.0711-0.363,0.134-0.532,0.0314-0.0842,0.0877-0.157,0.132-0.236,0.0444-0.0769,0.0889-0.154,0.133-0.231,0.0745-0.0662,0.169-0.115,0.223-0.199,0.0489-0.075,0.0346-0.178,0.0746-0.258,0.0429-0.086,0.124-0.148,0.17-0.233,0.0904-0.167,0.143-0.352,0.227-0.522,0.164-0.183,0.271-0.274,0.377-0.498,0.043-0.0905,0.0532-0.194,0.0961-0.285,0.128-0.27,0.345-0.487,0.491-0.749,0.0601-0.511-0.0647-0.059,0.282-0.413,0.046-0.0469,0.0405-0.126,0.0727-0.183,0.0768-0.136,0.21-0.216,0.326-0.313,0.71-0.235,1.63,0.0483,2.09,0.668,0.005,0.0302-0.001,0.0645,0.0146,0.0905,0.0276,0.0445,0.0782,0.0705,0.111,0.112,0.321,0.409-0.17-0.162,0.148,0.267,0.0472,0.0637,0.13,0.102,0.162,0.174,0.0177,0.0408-0.0201,0.0866-0.0302,0.13,0.114,0.377,0.184,0.752,0.361,1.11,0.0577,0.736-0.075-0.575,0.166,0.401,0.0146,0.059-0.0596,0.114-0.0542,0.174,0.008,0.0922,0.213,0.63,0.254,0.729-0.0368,0.261,0.216,0.515,0.202,0.766-0.004,0.076-0.108,0.128-0.103,0.204,0.006,0.0963,0.0962,0.168,0.131,0.258,0.0305,0.0778,0.0431,0.161,0.0647,0.242,0.147,0.334,0.166,0.704,0.267,1.05,0.0528,0.181,0.133,0.353,0.195,0.531,0.0163,0.187,0.136,0.342,0.178,0.521,0.0376,0.16,0.0149,0.33,0.0478,0.491,0.0448,0.22,0.0874,0.285,0.179,0.492-0.0343,0.322,0.142,0.596,0.266,0.875,0.0433,0.0967,0.0599,0.203,0.0973,0.302,0.006,0.0358-0.008,0.081,0.0172,0.107,0.0582,0.0613,0.149,0.0815,0.214,0.136,0.0101,0.009-0.0177,0.0315-0.007,0.0393,0.0464,0.0336,0.118,0.041,0.175,0.0496-0.491-0.179-0.982-0.358-1.47-0.537,0.0886,0.0221,0.251,0.0525,0.336,0.002,0.0348-0.0207,0.0248-0.0876,0.0615-0.105,0.724-0.339-0.105,0.208,0.405-0.148,0.0716-0.186,0.255-0.24,0.386-0.362,0.0409-0.0382,0.052-0.103,0.0945-0.139,0.106-0.0909,0.244-0.137,0.363-0.211,0.0745-0.232,0.314-0.212,0.482-0.339,0.0445-0.0338,0.0609-0.0967,0.106-0.13,0.0395-0.0297,0.328-0.153,0.377-0.174,0.378-0.753,2.17,0.351,2.21,0.366,0.0633,0.0434,0.299,0.197,0.339,0.26,0.021,0.033-0.0246,0.0831-0.005,0.117,0.0394,0.07,0.122,0.107,0.169,0.172,0.0354,0.0507,0.0477,0.114,0.0716,0.171,0.06,0.0739,0.12,0.148,0.18,0.222,0.0331,0.0738,0.0594,0.151,0.0994,0.221,0.111,0.196,0.224,0.283,0.299,0.498,0.0582,0.168,0.0165,0.325,0.0886,0.491,0.047,0.108,0.127,0.199,0.19,0.299,0.322,0.563,0.0708,0.0347,0.206,0.578,0.027,0.109,0.0888,0.207,0.113,0.316,0.0221,0.0991-0.004,0.206,0.0249,0.303,0.219,0.444,0.136,0.22,0.259,0.67,0.023,0.11,0.0345,0.222,0.0691,0.329,0.041,0.126,0.119,0.239,0.156,0.366,0.16,0.548-0.0754,0.124,0.122,0.682,0.327,0.927,0.0726-0.14,0.256,0.728,0.0123,0.116,0.002,0.236,0.0368,0.347,0.045,0.143,0.145,0.264,0.199,0.405,0.102,0.265,0.115,0.492,0.174,0.766,0.093,0.428,0.0845,0.353,0.258,0.773,0.377,0.97-0.0151-0.129,0.214,0.793,0.034,0.137,0.102,0.263,0.139,0.398,0.0344,0.125,0.0345,0.258,0.0759,0.38,0.351,1.04,0.0757-0.161,0.272,0.8,0.0532,0.137,0.129,0.267,0.16,0.411,0.0252,0.117-0.0197,0.243,0.006,0.36,0.0317,0.146,0.126,0.272,0.163,0.416,0.0314,0.123,0.012,0.254,0.0404,0.377,0.0147,0.0638,0.265,0.748,0.286,0.807-0.0352,0.411,0.257,0.742,0.308,1.13,0.0143,0.112-0.0418,0.226-0.0219,0.337,0.0242,0.135,0.106,0.253,0.151,0.383,0.0436,0.124,0.0775,0.251,0.116,0.376,0.0253,0.12,0.0506,0.24,0.076,0.36,0.0508,0.128,0.12,0.251,0.152,0.385,0.0249,0.104,0.00065,0.215,0.0165,0.321,0.0559,0.374,0.19,0.676,0.378,0.998,0.0276,0.3,0.144,0.579,0.212,0.867,0.0216,0.0908,0.015,0.187,0.0374,0.277,0.0656,0.266,0.145,0.367,0.281,0.61,0.00003,0.009,0.002,0.546,0.003,0.554,0.0176,0.105,0.0721,0.2,0.0955,0.304,0.0217,0.0957,0.008,0.199,0.0391,0.292,0.0366,0.11,0.113,0.203,0.161,0.309,0.0437,0.0964,0.0757,0.198,0.114,0.297-0.0839,0.388,0.17,0.739,0.201,1.12,0.0503,0.605-0.141-0.149,0.0562,0.504,0.156,0.224,0.144,0.498,0.221,0.746,0.0254,0.0823,0.0897,0.153,0.1,0.238,0.0616,0.498-0.282-0.18,0.112,0.444,0.0185,0.368,0.207,0.704,0.377,1.02,0.353,0.348,1.76,0.813-1.21-0.411-0.039-0.0161,0.0829,0.0181,0.125,0.0198,0.0997,0.004,0.16-0.0171,0.255-0.0398,0.123-0.0615,0.272-0.0293,0.396-0.0835,0.0518-0.0227,0.0805-0.08,0.126-0.113,0.0528-0.0385,0.127-0.0504,0.168-0.101,0.372-0.46-0.375,0.159,0.2-0.279,0.299-0.109,0.395-0.408,0.604-0.614,0.321-0.317,0.115-0.004,0.328-0.398,0.0637-0.0711,0.137-0.135,0.191-0.213,0.0529-0.0773,0.0786-0.171,0.127-0.251,0.0741-0.124,0.264-0.354,0.323-0.487,0.0391-0.0887,0.0511-0.187,0.0766-0.28,0.0442-0.0863,0.0884-0.173,0.133-0.259,0.0653-0.0602,0.41-0.365,0.45-0.454,0.0382-0.321,0.008-0.321,0.161-0.608,0.291-0.549,0.0821,0.0195,0.269-0.57,0.193-0.194,0.305-0.268,0.414-0.522,0.0412-0.0961,0.0336-0.21,0.0805-0.303,0.0475-0.0947,0.137-0.162,0.197-0.25,0.43-0.637-0.145,0.0976,0.36-0.523-0.007-0.366,0.372-0.543,0.487-0.843,0.0418-0.108,0.006-0.235,0.0386-0.346,0.008-0.0256,0.314-0.613,0.322-0.629,0.0724-0.102,0.166-0.192,0.217-0.306,0.0497-0.112,0.0354-0.244,0.0782-0.359,0.0418-0.112,0.122-0.207,0.173-0.315,0.153-0.324,0.301-0.656,0.428-0.991,0.409-0.6,0.0758-0.0132,0.278-0.71,0.0366-0.126,0.126-0.234,0.158-0.361,0.0324-0.13-0.0275-0.281,0.032-0.402,0.466-0.943,0.254,0.34,0.355-0.701,0.0756-0.112,0.176-0.211,0.227-0.336,0.0504-0.125,0.0326-0.268,0.0699-0.397,0.0368-0.127,0.103-0.245,0.151-0.368,0.145-0.372,0.309-0.73,0.447-1.1,0.0114-0.139-0.009-0.284,0.0343-0.416,0.0414-0.128,0.152-0.223,0.212-0.344,0.134-0.273,0.167-0.489,0.254-0.778,0.138-0.461,0.0987-0.334,0.314-0.769,0.0212-0.443,0.386-0.744,0.498-1.15,0.038-0.139,0.007-0.29,0.0456-0.429,0.423-1.52-0.0273,0.759,0.253-0.787,0.189-0.52,0.257-1.08,0.448-1.6,0.259-0.707,0.116,0.009,0.225-0.731,0.0938-0.363,0.26-0.684,0.323-1.06,0.0216-0.126,0.0107-0.258,0.0472-0.38,0.25-0.834,0.135,0.172,0.193-0.723,0.263-1.23-0.13,0.49,0.217-0.675,0.256-0.859-0.17,0.178,0.176-0.657,0.0439-0.106,0.123-0.201,0.14-0.314,0.0196-0.125-0.0211-0.251-0.0317-0.377,0.0244-0.0887,0.162-0.579,0.175-0.672,0.0165-0.119-0.0149-0.243,0.0141-0.359,0.0275-0.11,0.133-0.193,0.152-0.305,0.156-0.958-0.264,0.162,0.0729-0.634,0.0252-0.0839,0.0548-0.167,0.0756-0.252,0.0182-0.0743,0.0197-0.152,0.0412-0.226,0.0329-0.112,0.122-0.205,0.148-0.319,0.005-0.0242-0.0138-0.215-0.0172-0.252,0.0583-0.004,0.124,0.0163,0.175-0.0121,0.024-0.0134-0.003-0.0548-0.005-0.0822,0.55,0.223,1.11,0.42,1.65,0.669,0.0312,0.0144,0.0134,0.0674,0.0202,0.101,0.0341,0.169,0.004,0.0821,0.11,0.26,0.178,0.231,0.213,0.51,0.289,0.78,0.0226,0.081,0.17,0.461,0.196,0.53,0.003,0.153-0.003,0.382,0.046,0.528,0.0381,0.115,0.125,0.21,0.159,0.326,0.029,0.096,0.0109,0.201,0.029,0.299,0.0405,0.22,0.11,0.433,0.158,0.652-0.025,0.383,0.211,0.696,0.308,1.05,0.062,0.224,0.0326,0.467,0.0934,0.691,0.0357,0.132,0.0983,0.255,0.147,0.382,0.1,0.356,0.211,0.73,0.253,1.1,0.0126,0.111-0.024,0.226-0.00054,0.335,0.0281,0.131,0.104,0.247,0.152,0.372,0.0469,0.122,0.0885,0.246,0.133,0.37,0.199,0.338,0.235,0.737,0.364,1.1,0.0459,0.129,0.12,0.246,0.171,0.373,0.503,1.25-0.269-0.533,0.278,0.714,0.123,0.208,0.159,0.452,0.258,0.67,0.0515,0.114,0.132,0.213,0.181,0.327,0.0421,0.0967,0.0557,0.204,0.0928,0.303,0.122,0.326,0.156,0.345,0.343,0.646-0.0604,0.347,0.216,0.552,0.338,0.842,0.0318,0.0752,0.0179,0.165,0.053,0.239,0.0411,0.0863,0.31,0.416,0.371,0.493,0.111,0.309-0.0114,0.0508,0.245,0.342,0.027,0.0307,0.0285,0.0813,0.0604,0.107,0.125,0.0997,0.341,0.193,0.494,0.25-3.26-1.29-1.35-0.355-0.973-0.448,0.0269-0.007,0.0419-0.0363,0.0629-0.0545,0.0744-0.002,0.149-0.004,0.223-0.006,0.417-0.0899,0.713-0.433,1.05-0.676,0.0806-0.0521,0.178-0.0844,0.242-0.156,0.0555-0.0627,0.0505-0.163,0.101-0.23,0.06-0.0804,0.156-0.128,0.223-0.203,0.0672-0.075,0.114-0.167,0.178-0.244,0.195-0.236,0.242-0.253,0.483-0.449,0.456-0.526,0.942-1.02,1.39-1.56,0.078-0.0906,0.156-0.181,0.234-0.272,0.106-0.0758,0.232-0.13,0.318-0.227,0.735-0.833-0.483,0.244,0.338-0.535,0.615-0.582-0.0274,0.161,0.453-0.422,0.152-0.0679,0.448-0.176,0.57-0.315,0.0493-0.0563,0.0378-0.151,0.0873-0.207,0.0543-0.0616,0.145-0.0783,0.209-0.13,0.0475-0.0384,0.0673-0.109,0.121-0.137,0.0747-0.0391,0.164-0.0371,0.247-0.0556,0.164-0.0483,0.508-0.187,0.687-0.15,0.0671,0.0137,0.13,0.0439,0.194,0.0659,0.168,0.067,1.96,0.471,2.18,1.17,0.0372,0.0487,0.0743,0.0975,0.112,0.146,0.0739,0.0625,0.16,0.113,0.222,0.188,0.0378,0.0458,0.0415,0.112,0.0691,0.164,0.104,0.199,0.251,0.34,0.338,0.548,0.114,0.206,0.48,0.472,0.597,0.645,0.037,0.0549,0.0115,0.135,0.0418,0.194,0.0854,0.166,0.31,0.349,0.435,0.465,0.181,0.45,0.603,0.725,0.905,1.09,0.251,0.254,0.569,0.47,0.905,0.597-2.39-0.0228-1.61-0.516-1.1-0.484,0.0675,0.004,0.133,0.0406,0.2,0.0319,0.023-0.003,0.0209-0.0414,0.0314-0.0621,0.0793,0.008,0.159,0.0158,0.238,0.0236,0.0785-0.178,0.288-0.0626,0.413-0.144,0.0327-0.0212-0.008-0.0832,0.0131-0.116,0.142-0.101,0.0882-0.0385,0.166-0.184,0.315-0.174,0.418-0.514,0.571-0.813,0.008-0.0664,0.002-0.136,0.0233-0.199,0.0213-0.0648,0.0707-0.117,0.101-0.178,0.143-0.29,0.213-0.576,0.254-0.895,0.0951-0.247,0.25-0.45,0.289-0.718,0.0134-0.0919-0.007-0.188,0.0129-0.278,0.212-0.978,0.0165,0.488,0.136-0.537,0.0216-0.0937,0.057-0.185,0.0648-0.281,0.009-0.105-0.0283-0.212-0.0162-0.317,0.0113-0.0974,0.0613-0.186,0.0854-0.281,0.0764-0.301,0.117-0.6,0.135-0.909,0.0733-0.311,0.126-0.634,0.126-0.955-0.00015-0.116-0.0547-0.235-0.0215-0.346,0.272-0.358,0.184-0.16,0.27-0.59-0.0201-0.122-0.0712-0.243-0.0603-0.367,0.009-0.108,0.0839-0.199,0.119-0.301,0.0354-0.102,0.0724-0.205,0.0926-0.311,0.168-0.884-0.0969,0.222,0.0198-0.681,0.0139-0.107,0.0636-0.207,0.0954-0.31,0.0726-0.223-0.0901-0.465-0.0332-0.688,0.0277-0.108,0.159-0.171,0.183-0.28,0.0268-0.118-0.0391-0.24-0.0378-0.361,0.003-0.265,0.0701-0.425,0.145-0.675-0.0244-1.06-0.0425,0.278,0.123-0.706,0.009-0.0562-0.0339-0.697-0.0282-0.753,0.0119-0.118,0.0655-0.227,0.0886-0.343s0.0331-0.234,0.0497-0.351c0.0444-0.722,0.147-1.44,0.0554-2.16,0.0548-0.229,0.005-0.471,0.0494-0.7,0.0215-0.11,0.0999-0.206,0.11-0.318,0.0109-0.124-0.04-0.246-0.0491-0.371-0.0122-0.168-0.00008-0.538,0.004-0.708,0.006-0.115,0.004-0.232,0.018-0.346,0.0638-0.528,0.0828-0.138,0.0759-0.68-0.005-0.399-0.0615-0.649-0.0105-1.06,0.0954-0.335-0.0542-0.676-0.0415-1.01,0.004-0.0992,0.0481-0.193,0.0655-0.29,0.061-0.342,0.0434-0.266,0.001-0.618-0.0526-0.402,0.0224-0.813-0.005-1.21-0.009-0.141-0.0841-0.457-0.114-0.594,0.228-0.567,0.0145,0.11,0.008-0.56-0.00092-0.0931,0.0896-0.173,0.0852-0.266-0.006-0.119-0.114-0.22-0.114-0.339,0.00043-0.965,0.338,0.529,0.0161-0.628,0.008-0.107,0.0218-0.214,0.0232-0.322,0.001-0.111-0.0138-0.222-0.0146-0.333-0.003-0.432,0.0586-0.845,0.004-1.27,0.0146-0.104,0.0519-0.208,0.0438-0.312-0.01-0.125-0.0782-0.24-0.0961-0.364-0.0163-0.113,0.002-0.228-0.006-0.342-0.0306-0.468-0.0716-0.566,0.0986-1.02-0.33-0.405-0.0283-0.651-0.0439-1.07-0.005-0.13-0.0756-0.25-0.0891-0.379-0.0239-0.228,0.0137-0.458,0.0157-0.688-0.199-0.301,0.053-0.725,0.002-1.02-0.0234-0.137-0.139-0.246-0.163-0.383-0.0178-0.102,0.0403-0.205,0.0431-0.309,0.003-0.108-0.0174-0.215-0.0261-0.322,0.043-0.317-0.0765-0.614-0.095-0.928-0.006-0.101,0.0144-0.202,0.00052-0.302-0.0941-0.677-0.111,0.0108-0.0675-0.609,0.0114-0.294-0.054-0.59-0.045-0.884,0.003-0.0952,0.0392-0.189,0.0345-0.284-0.0842-0.42-0.0645-0.211-0.0631-0.626-0.141-0.303-0.08-0.615-0.0955-0.933-0.005-0.104-0.0363-0.207-0.0322-0.311,0.004-0.0958,0.0717-0.188,0.0557-0.282-0.0213-0.126-0.108-0.231-0.162-0.346-0.187-0.293-0.001-0.556-0.026-0.858-0.0166-0.203-0.158-0.385-0.165-0.589-0.003-0.0827,0.0495-0.158,0.0742-0.237-0.119-0.255-0.0917-0.528-0.138-0.798-0.0148-0.0873-0.0546-0.172-0.0522-0.26,0.002-0.0764,0.0433-0.147,0.0649-0.22-0.003-0.0803-0.007-0.161-0.0103-0.241-0.021-0.13-0.0653-0.335-0.045-0.472,0.0103-0.0694,0.0676-0.129,0.069-0.199,0.002-0.082-0.0487-0.157-0.0603-0.238-0.0103-0.0721-0.003-0.146-0.005-0.219-0.0111-0.0755-0.0222-0.151-0.0334-0.227,0.0309-0.0614,0.082-0.116,0.0928-0.184,0.0117-0.0741-0.0274-0.148-0.0282-0.223-0.00075-0.069,0.0232-0.137,0.0235-0.206,0.00087-0.194-0.0249-0.405-0.0552-0.596,0.0664-0.102,0.0449-0.209,0.0628-0.32,0,0,1.58,0.518,1.58,0.518,0.009,0.123-0.0578,0.212-0.004,0.338-0.012,0.0533-0.139,0.531-0.139,0.533,0.0148,0.275,0.323,0.416,0.0224,0.65,0.127,0.39,0.0138,0.339,0.0441,0.665,0.008,0.0821,0.0687,0.157,0.0621,0.24-0.049,0.609-0.215-0.286-0.0357,0.435,0.16,0.584,0.0539-0.0357-0.0373,0.465-0.0151,0.0827,0.0207,0.167,0.0254,0.251,0.005,0.0822-0.01,0.166,0.002,0.247,0.131,0.878,0.0398-0.297,0.0914,0.534,0.0545,0.278,0.0407,0.541,0.0781,0.818,0.0136,0.101,0.0563,0.196,0.0679,0.297,0.0108,0.0934-0.00073,0.188-0.001,0.282,0.0141,0.101,0.0282,0.201,0.0423,0.302-0.0592,0.535-0.0468,0.0321,0.0949,0.625,0.0243,0.102,0.0183,0.209,0.0295,0.313,0.0114,0.105,0.0398,0.209,0.0384,0.315-0.001,0.0967-0.0534,0.19-0.0462,0.286,0.009,0.116,0.0619,0.223,0.0928,0.335,0.0003,0.102,0.009,0.204,0.00089,0.306-0.008,0.0954-0.0597,0.188-0.0489,0.283,0.0132,0.117,0.104,0.215,0.119,0.331,0.0113,0.0938-0.0419,0.185-0.0447,0.28-0.006,0.203,0.0515,0.408,0.094,0.604,0.025,0.152,0.0845,0.46,0.0748,0.617-0.006,0.096-0.0593,0.186-0.0605,0.282-0.001,0.106,0.0437,0.208,0.0531,0.313,0.0517,0.576-0.0861,0.009,0.104,0.632,0.004,0.106,0.0207,0.211,0.0121,0.317-0.008,0.103-0.0699,0.2-0.0629,0.302,0.009,0.127,0.0932,0.239,0.109,0.366,0.0134,0.11-0.0401,0.222-0.0235,0.332,0.131,0.862,0.177-0.0528,0.0987,0.719-0.0207,0.26-0.0491,0.435-0.01,0.698,0.0192,0.129,0.0846,0.25,0.093,0.381,0.0223,0.347-0.18,0.703-0.0149,1.05-0.0118,0.113-0.0196,0.226-0.0353,0.338s-0.0623,0.221-0.0589,0.334c0.004,0.127,0.0618,0.247,0.0802,0.372,0.05,0.342-0.0362,0.654-0.0114,0.996,0.0275,0.316,0.041,0.643,0.0253,0.96-0.0104,0.21-0.087,0.415-0.0804,0.625,0.004,0.118,0.042,0.233,0.0629,0.349,0.0212,0.22,0.0863,0.437,0.0786,0.657-0.003,0.0961-0.0656,0.184-0.0679,0.28-0.002,0.105,0.0516,0.205,0.0541,0.31,0.0148,0.62-0.148-0.0996,0.0483,0.577,0.245,1.17-0.0479-0.507-0.0426,0.545,0.00057,0.115,0.109,0.212,0.107,0.327-0.002,0.0969-0.114,0.169-0.118,0.266-0.005,0.119,0.0618,0.23,0.0927,0.345-0.006,0.101-0.0122,0.202-0.0183,0.303-0.0986,0.561-0.028,0.0123-0.0227,0.611,0.00089,0.102-0.0249,0.203-0.0228,0.305,0.002,0.112,0.0499,0.222,0.0361,0.333-0.013,0.104-0.11,0.189-0.114,0.294-0.006,0.126,0.0564,0.246,0.0846,0.369,0.0318,0.783,0.0252-0.0641-0.0518,0.686-0.0119,0.116,0.009,0.234-0.004,0.35-0.012,0.111-0.0669,0.216-0.0693,0.328-0.003,0.126,0.0439,0.248,0.0545,0.373,0.01,0.118,0.005,0.237,0.007,0.355-0.0186,0.282-0.0329,0.416-0.0293,0.7,0.002,0.12,0.0302,0.241,0.0157,0.36-0.0136,0.112-0.0885,0.21-0.0989,0.322-0.0226,0.242,0.0998,0.485,0.0323,0.729-0.0248,0.17-0.0826,0.524-0.0815,0.695,0.00081,0.125,0.0419,0.249,0.0365,0.374-0.005,0.116-0.0599,0.225-0.0676,0.34-0.0166,0.249,0.0568,0.499,0.0368,0.749-0.141,0.402-0.14,0.637-0.196,1.05-0.0161,0.119-0.047,0.236-0.0547,0.355-0.008,0.127,0.0314,0.256,0.007,0.381-0.0228,0.116-0.0969,0.216-0.145,0.324,0.0488,0.306,0.109,0.428,0.008,0.726-0.0353,0.104-0.139,0.18-0.159,0.287-0.0612,0.327,0.198,0.679-0.0663,1-0.0434,0.441-0.164,0.87-0.21,1.31-0.0117,0.112,0.008,0.227-0.007,0.339-0.015,0.108-0.056,0.21-0.0839,0.315,0.0289,0.671,0.0584,0.0394-0.134,0.64-0.13,0.407-0.0235,0.865-0.184,1.27,0.0413,0.334,0.0301,0.614-0.0584,0.942-0.0513,0.19-0.168,0.362-0.196,0.557-0.0142,0.102,0.0119,0.205,0.0178,0.308-0.009,0.238,0.003,0.34-0.0658,0.569-0.0259,0.0868-0.0803,0.164-0.103,0.252-0.0647,0.253-0.0564,0.528-0.199,0.763-0.0311,0.0783-0.0621,0.157-0.0932,0.235-0.008,0.0817,0.00045,0.167-0.0251,0.245-0.0236,0.0721-0.083,0.127-0.119,0.194-0.101,0.189-0.156,0.393-0.197,0.603-0.103,0.155-0.179,0.324-0.286,0.476-0.0331,0.0473-0.0783,0.0858-0.108,0.135-0.0272,0.0456-0.0246,0.108-0.0607,0.147-0.0428,0.0463-0.109,0.0634-0.164,0.0951-0.0967,0.237,0.0178,0.0263-0.185,0.207-0.0311,0.0277-0.0408,0.075-0.0727,0.102-0.104,0.0875-0.268,0.1-0.353,0.218-0.776,0.317-1.97-0.348-2.51-0.548-0.001-0.0132,0.008-0.0329-0.004-0.0396-0.0781-0.0452-0.171-0.0617-0.249-0.107-0.0357-0.0205-0.0555-0.0613-0.088-0.0866-0.172-0.134-0.379-0.225-0.5-0.416-0.148-0.117-0.276-0.2-0.386-0.353-0.0352-0.0489-0.0476-0.112-0.0819-0.161-0.156-0.226-0.358-0.431-0.551-0.624-0.0991-0.155-0.238-0.283-0.335-0.44-0.0364-0.0584-0.0304-0.136-0.0644-0.196-0.135-0.237-0.356-0.448-0.542-0.642-0.139-0.249-0.302-0.477-0.453-0.717-0.0278-0.044-0.0328-0.101-0.0662-0.141-0.052-0.0624-0.123-0.106-0.184-0.159-0.27-0.591-2.03-0.998,0.865,0.0506-0.256-0.116-0.666-0.265-0.905-0.0686-0.441,0.192-0.853,0.441-1.17,0.807-0.351,0.526,0.0882-0.0607-0.458,0.416-0.0788,0.0688-0.123,0.17-0.192,0.248-0.235,0.269-0.496,0.522-0.762,0.759-0.0873,0.107-0.364,0.455-0.465,0.547-0.0976,0.0889-0.228,0.139-0.318,0.237-0.211,0.231-0.268,0.628-0.601,0.776-0.438,0.413-0.74,0.979-1.29,1.27-0.141,0.398,0.0307,0.0762-0.326,0.341-0.053,0.0393-0.0738,0.111-0.124,0.155-0.166,0.144-0.385,0.129-0.54,0.284-0.0564,0.0176-0.115,0.03-0.169,0.0528-0.0389,0.0163-0.0678,0.057-0.109,0.0635-0.615,0.0966-2-0.893-2.15-0.644-0.144-0.0671-0.303-0.171-0.416-0.287-0.15-0.154-0.188-0.436-0.418-0.527-0.122-0.256-0.28-0.489-0.404-0.743-0.173-0.354-0.0554-0.18-0.186-0.544-0.0362-0.101-0.0849-0.197-0.127-0.296-0.315-0.854,0.146,0.329-0.332-0.642-0.0959-0.194-0.113-0.421-0.206-0.617-0.0582-0.123-0.156-0.227-0.205-0.354-0.039-0.0992-0.0381-0.21-0.0571-0.315-0.34-0.72-0.508-1.51-0.873-2.22-0.18-0.911,0.0531,0.221-0.171-0.714-0.057-0.238-0.0745-0.485-0.142-0.72-0.0381-0.132-0.107-0.254-0.145-0.387-0.0326-0.115-0.043-0.236-0.0645-0.354-0.544-1.48,0.158,0.571-0.134-0.713-0.0306-0.134-0.122-0.248-0.167-0.378-0.119-0.344-0.0638-0.707-0.248-1.03-0.154-0.612-0.236-1.24-0.468-1.83-0.0349-0.335-0.187-0.602-0.277-0.925-0.0157-0.0564-0.009-0.12-0.035-0.172-0.0319-0.064-0.0893-0.112-0.134-0.168,0.0112-0.238,0.0282,0.0276-0.17-0.247-0.209-0.289,1.98,0.867,1.43,0.395-0.0249,0.0131-0.0645,0.0131-0.0748,0.0393-0.0147,0.0374,0.0158,0.0799,0.0123,0.12-0.0246,0.285-0.232,0.497-0.304,0.767-0.061,0.413-0.0515,0.197-0.0169,0.648-0.0153,0.112-0.0916,0.209-0.118,0.319-0.0277,0.115-0.0191,0.236-0.0437,0.351-0.153,0.718-0.0793-0.0689-0.123,0.696-0.119,0.281-0.167,0.35-0.22,0.652-0.0202,0.114-0.0143,0.231-0.0349,0.344-0.0629,0.346-0.22,0.671-0.267,1.02-0.0175,0.126-0.039,0.251-0.0526,0.377-0.0141,0.13,0.002,0.265-0.0305,0.392-0.0309,0.122-0.112,0.226-0.156,0.344-0.127,0.344-0.212,0.705-0.391,1.03-0.0411,0.249-0.0742,0.516-0.158,0.756-0.0443,0.127-0.121,0.241-0.165,0.368-0.135,0.392-0.205,0.812-0.379,1.19-0.0175,0.139-0.0155,0.282-0.0524,0.417s-0.117,0.255-0.167,0.386c-0.0495,0.131-0.0759,0.27-0.13,0.399-0.055,0.13-0.151,0.242-0.197,0.375-0.0152,0.0441-0.14,0.797-0.148,0.842-0.133,0.355-0.15,0.428-0.315,0.769-0.0177,0.0367-0.36,0.689-0.376,0.731-0.0937,0.248-0.0889,0.528-0.234,0.761-0.0327,0.129-0.159,0.644-0.205,0.771-0.0448,0.125-0.117,0.238-0.162,0.363-0.045,0.127-0.0464,0.268-0.106,0.389-0.0611,0.125-0.192,0.208-0.249,0.334-0.0546,0.121-0.0519,0.261-0.0779,0.392-0.351,1.09,0.155-0.359-0.348,0.701-0.0559,0.118-0.0657,0.253-0.107,0.377-0.122,0.367-0.238,0.741-0.416,1.09-0.0455,0.113-0.0843,0.229-0.137,0.34-0.006,0.0125-0.342,0.619-0.347,0.634-0.0403,0.114-0.0234,0.243-0.0659,0.357-0.0432,0.115-0.125,0.212-0.187,0.318-0.0381,0.116-0.0762,0.231-0.114,0.347-0.0895,0.093-0.194,0.174-0.268,0.279-0.197,0.278-0.126,0.334-0.235,0.641-0.107,0.301-0.248,0.597-0.378,0.889-0.25,0.265-0.233,0.199-0.372,0.525-0.0399,0.0936-0.0463,0.203-0.102,0.287-0.0629,0.0951-0.188,0.14-0.245,0.238-0.106,0.183-0.0264,0.439-0.181,0.607-0.354,0.518-0.575,1.12-0.998,1.59-0.141,0.371-0.346,0.703-0.593,1.02-0.0636,0.0801-0.144,0.147-0.203,0.23-0.0535,0.0754-0.0885,0.162-0.133,0.244-0.0221,0.045-0.193,0.402-0.233,0.446-0.0587,0.0656-0.14,0.106-0.213,0.156-0.0727,0.0498-0.18,0.0657-0.223,0.142-0.219,0.389,0.409,0.107-0.259,0.303-0.219,0.291-0.496,0.497-0.798,0.696-0.242,0.0449-0.117,0.0312-0.375,0.0382-0.0316,0.005-0.056,0.0514-0.0865,0.0417-1.71-0.539-1.34-0.167-1.84-0.796-0.177-0.22-0.142-0.233-0.215-0.481-0.0593-0.202-0.145-0.389-0.158-0.605-0.11-0.47-0.343-0.919-0.363-1.41-0.0689-0.548,0.035,0.0707-0.169-0.542-0.0298-0.0895-0.0258-0.188-0.0523-0.278-0.0302-0.103-0.0923-0.195-0.117-0.3-0.021-0.0879-0.001-0.182-0.0193-0.27-0.0199-0.0991-0.0621-0.192-0.0932-0.288,0.003-0.151,0.0199-0.392-0.024-0.54-0.0337-0.113-0.112-0.209-0.148-0.322-0.0933-0.288,0.001-0.603-0.172-0.871-0.258-0.553-0.328-1.16-0.509-1.75-0.0374-0.0959-0.219-0.551-0.242-0.652-0.0227-0.103,0.006-0.215-0.0263-0.315-0.0433-0.136-0.156-0.244-0.195-0.381-0.031-0.109-0.007-0.227-0.01-0.34-0.0508-0.127-0.102-0.255-0.153-0.382-0.25-1.52,0.174,0.915-0.204-0.745-0.0258-0.113,0.003-0.234-0.0219-0.347-0.0822-0.38-0.3-0.737-0.314-1.14-0.278-0.77-0.429-1.57-0.639-2.36-0.0762-0.256-0.113-0.523-0.196-0.777-0.0461-0.142-0.139-0.267-0.179-0.411-0.0331-0.12-0.006-0.251-0.0362-0.372-0.421-1.67,0.0511,0.725-0.232-0.792-0.146-0.529-0.363-1.04-0.513-1.56-0.0343-0.121-0.0368-0.249-0.0756-0.368-0.0441-0.135-0.114-0.26-0.172-0.391-0.002-0.11,0.0212-0.224-0.006-0.331-0.44-1.74,0.0849,0.95-0.33-0.747-0.0256-0.105,0.0105-0.218-0.0124-0.323-0.221-1.02-0.0856,0.234-0.163-0.679-0.58-0.997,0.0217,0.172-0.213-0.655-0.0351-0.124-0.129-0.223-0.177-0.342-0.0391-0.0969-0.0451-0.205-0.0833-0.302-0.207-0.526-0.139-0.0886-0.177-0.564-0.0659-0.101-0.144-0.195-0.198-0.304-0.0394-0.0799-0.0433-0.174-0.0783-0.256-0.0387-0.0907-0.0975-0.172-0.141-0.26-0.116-0.233-0.157-0.492-0.338-0.689-0.0665-0.113-0.105-0.241-0.176-0.351-0.127-0.195-0.338-0.31-0.496-0.471,0.457,0.161,0.914,0.322,1.37,0.482,0.0413,0.0144-0.0796-0.0389-0.123-0.0462-0.121-0.0205-0.386,0.0933-0.498,0.13-0.09,0.0759-0.204,0.121-0.291,0.2-0.0415,0.0379-0.0563,0.0979-0.0923,0.141-0.128,0.153-0.303,0.259-0.485,0.334-0.131,0.133-0.259,0.274-0.42,0.372-0.0616,0.0375-0.137,0.0519-0.193,0.0974-0.327,0.266,0.244,0.0225-0.327,0.214-0.165,0.253,0.0134,0.0368-0.296,0.214-0.044,0.0253-0.0654,0.0827-0.112,0.104-0.0589,0.0265-0.131,0.009-0.191,0.0326-0.0264,0.0107-0.0362,0.0441-0.0543,0.0661-0.0238,0.007-0.0477,0.0132-0.0715,0.0198-0.584-0.203-1.17-0.405-1.75-0.608,0.007-0.01,0.0277-0.0205,0.0202-0.0298-0.0284-0.0351-0.0828-0.0434-0.109-0.0801-0.0134-0.0186,0.0104-0.0473,0.002-0.0688-0.0334-0.0899-0.123-0.152-0.142-0.25-0.236-0.382-0.258-0.838-0.463-1.23,0.0239-0.0654,0.0784-0.127,0.0718-0.196-0.009-0.0945-0.0891-0.169-0.115-0.26-0.0226-0.0787-0.0105-0.164-0.0295-0.244-0.0666-0.279-0.25-0.505-0.303-0.788-0.0578-0.556,0.0299,0.0927-0.127-0.517-0.022-0.0857-0.007-0.18-0.0365-0.263-0.038-0.107-0.132-0.189-0.164-0.298-0.045-0.156,0.084-0.336-0.0432-0.484-0.0157-0.205-0.004-0.278-0.0961-0.474-0.0471-0.1-0.146-0.176-0.171-0.284-0.0172-0.073,0.0684-0.145,0.053-0.219-0.137-0.653-0.219,0.0364-0.116-0.505-0.0719-0.123-0.237-0.351-0.234-0.519,0.001-0.0643,0.0763-0.113,0.0751-0.178-0.004-0.189-0.219-0.385-0.171-0.591-0.03-0.049-0.22-0.352-0.24-0.415-0.0651-0.205,0.0159-0.485-0.152-0.678-0.0559-0.276,0.0238,0.001-0.166-0.297-0.0718-0.113-0.129-0.299-0.208-0.417-0.0493-0.0279-0.0973-0.0583-0.148-0.0836-0.0381-0.019-0.158-0.0624-0.118-0.0491,2.55,0.846,1.85,0.365,1.28,0.533-0.173,0.0177-0.27,0.0726-0.36,0.239-0.03,0.0556-0.0199,0.128-0.0533,0.182-0.0344,0.0553-0.341,0.335-0.373,0.365-0.0413,0.0905-0.196,0.439-0.251,0.518-0.0598,0.0871-0.158,0.145-0.21,0.237-0.0489,0.0871-0.0377,0.199-0.0849,0.288-0.421,0.787-0.0174-0.291-0.296,0.525-0.405,0.488-0.0193-0.0354-0.28,0.504-0.0408,0.0842-0.111,0.151-0.157,0.233-0.129,0.233-0.202,0.498-0.346,0.724-0.152,0.17-0.231,0.232-0.323,0.445-0.0366,0.0851-0.0389,0.183-0.0786,0.267-0.122,0.257-0.351,0.458-0.358,0.768-0.163,0.227-0.292,0.451-0.41,0.705-0.00069,0.001-0.221,0.49-0.224,0.494-0.0533,0.077-0.131,0.134-0.197,0.201-0.0857,0.211-0.144,0.476-0.282,0.661-0.0463,0.0621-0.121,0.0994-0.165,0.163-0.0279,0.0405-0.115,0.308-0.131,0.356-0.0821,0.165-0.188,0.231-0.301,0.367-0.0528,0.0635-0.0579,0.162-0.119,0.217-0.0373,0.0337-0.0908,0.0435-0.136,0.0653-0.0201,0.0291-0.0474,0.0544-0.0603,0.0873-0.0119,0.0303,0.0121,0.0749-0.0119,0.0969-0.0299,0.0274-0.369,0.154-0.426,0.203-0.619-0.189-1.59-0.109-1.8-0.721-0.0965-0.279,0.208,0.122-0.175-0.287-0.0415-0.181,0.009-0.352-0.0302-0.53-0.0178-0.0811-0.0687-0.152-0.0898-0.232-0.0379-0.145-0.01-0.303-0.0825-0.441-0.142-0.266-0.183-0.434-0.2-0.736-0.005-0.0798,0.0296-0.163,0.007-0.24-0.0331-0.11-0.14-0.19-0.169-0.301-0.0214-0.0826,0.0167-0.17,0.025-0.255-0.274-0.776,0.0129,0.128-0.127-0.602-0.0215-0.112-0.0918-0.213-0.101-0.326-0.008-0.0986,0.0523-0.194,0.0489-0.293-0.008-0.226-0.137-0.438-0.112-0.67-0.0747-0.479-0.161-0.964-0.26-1.44-0.029-0.139-0.0834-0.273-0.106-0.413-0.0203-0.129-0.0142-0.26-0.0213-0.391-0.0921-0.416-0.181-0.845-0.242-1.27-0.0202-0.139,0.004-0.285-0.0324-0.42-0.0448-0.167-0.175-0.306-0.208-0.475-0.0258-0.133,0.0244-0.269,0.0366-0.404-0.0591-0.156-0.149-0.305-0.177-0.469-0.0231-0.132,0.0322-0.268,0.0253-0.402-0.0301-0.592-0.262-1.17-0.361-1.75,0.0787-0.743,0.0679-0.0802-0.122-0.883-0.0331-0.14-0.0263-0.286-0.0474-0.428-0.0668-0.449-0.122-0.904-0.267-1.34-0.0319-0.149-0.0721-0.297-0.0957-0.448-0.0673-0.431-0.048-0.871-0.139-1.3-0.0333-0.157-0.0924-0.308-0.13-0.464-0.0357-0.15-0.0594-0.302-0.0891-0.452-0.198-0.544-0.181-0.37-0.213-0.911-0.008-0.142,0.0123-0.286-0.0122-0.425-0.028-0.16-0.102-0.309-0.144-0.467-0.499-1.9,0.327,1.04-0.234-0.928-0.0457-0.475-0.155-0.905-0.256-1.37-0.032-0.147-0.0371-0.3-0.0814-0.443-0.051-0.165-0.151-0.313-0.203-0.478-0.045-0.143-0.0577-0.294-0.0865-0.441-0.0549-0.153-0.122-0.302-0.165-0.459-0.0387-0.142-0.0427-0.292-0.0784-0.435-0.0384-0.154-0.0974-0.302-0.143-0.454-0.0453-0.149-0.0725-0.305-0.13-0.449-0.0666-0.166-0.179-0.312-0.241-0.48-0.0514-0.138-0.0652-0.288-0.0978-0.431-0.168-0.984,0.0719,0.179-0.304-0.892-0.0471-0.134-0.0369-0.284-0.0799-0.419-0.134-0.421-0.409-0.801-0.455-1.25-0.195-0.39-0.427-0.793-0.571-1.21-0.0411-0.118-0.0474-0.246-0.088-0.363-0.0871-0.253-0.245-0.52-0.371-0.753-0.115-0.33-0.162-0.708-0.338-1.01-0.0756-0.131-0.196-0.234-0.265-0.369-0.0994-0.195-0.0558-0.444-0.199-0.625-0.0584-0.107-0.127-0.21-0.175-0.322-0.0531-0.125-0.114-0.462-0.18-0.582-0.0667-0.122-0.177-0.215-0.248-0.334-0.111-0.186-0.147-0.362-0.203-0.567-0.006-0.0841,0.008-0.172-0.0165-0.252-0.0311-0.101-0.102-0.186-0.148-0.281-0.161-0.331-0.249-0.691-0.418-1.02-0.191-0.275-0.16-0.19-0.263-0.471-0.025-0.0686-0.0351-0.143-0.0683-0.208-0.12-0.236-0.34-0.409-0.436-0.659-0.0371-0.175-0.0878-0.377-0.181-0.533-0.0969-0.162-0.201-0.252-0.212-0.453-0.0933-0.106-0.212-0.192-0.287-0.312-0.0171-0.0276-0.003-0.0651-0.008-0.0971-0.0294-0.167-0.0295-0.062-0.191-0.222-0.0207-0.0204-0.0274-0.0512-0.0411-0.0768,0,0,1.62,0.424,1.62,0.424z"/>
  <path id="path3958" fill="#000" d="m843,803c0.618,0.601,1.65,0.654,2.27,1.26,0.107,0.103-0.0985,0.341,0.007,0.446,0.913,0.906,2.48,0.764,3.03,2,2.5,1.35,4.8,2.94,7.21,4.42,2.07,1.49,4.59,2.33,6.62,3.9,0.687,0.267,1.41,0.459,2.06,0.801,0.232,0.121,0.364,0.375,0.546,0.563,0.339,0.208,0.658,0.453,1.02,0.623,1.43,0.677,2.85,1.1,4.21,1.92,2.74,1.19,5.45,2.43,8.15,3.69,1.39,1.75,4.84,1.59,6.34,3.34,0.403,0.399,3.25,0.961,2.09,1.36-2.9-4.12-10.4-1.08-14.5-3.82-0.0996-0.0657-0.0492-0.253-0.142-0.329-0.6-0.49-1.38-0.707-2.08-1.05,0.18-0.0951,0.629-0.102,0.54-0.285-0.0953-0.197-2.01-1.34-2.14-1.46-0.167-0.159-0.143-0.457-0.307-0.62-1.53-1.12-0.85-0.518-2.05-1.76-0.268-0.322-0.535-0.644-0.803-0.967,0.101-0.207,0.447-0.441,0.303-0.62-0.447-0.559-1.33-0.649-1.77-1.21-0.156-0.201,0.353-0.471,0.273-0.713-0.1-0.304-1.64-1.91-1.83-2.12-0.386-0.382-0.773-0.764-1.16-1.15-0.0966-0.281-0.112-0.605-0.29-0.843-0.323-0.434-0.832-0.701-1.17-1.12-0.601-0.741-1.08-1.85-1.4-2.75-0.467-0.38-1.02-0.677-1.4-1.14-0.43-0.517-0.369-1.32-0.757-1.87-0.811-1.15-1.76-2.07-2.5-3.29,0,0,12.7,3.29,12.7,3.29,0.767,2.06-0.22-0.223,1.42,2.11,0.206,0.294,0.239,0.686,0.439,0.985,0.74,1.1,1.87,1.96,2.56,3.12,0.481,0.673,1.06,1.27,1.52,1.96,0.19,0.281,0.237,0.65,0.456,0.909,0.88,1.04,1.94,1.77,2.51,3.08,1.97,2.85-0.877-1.12,1.89,2.13,2.25,2.64-0.78-0.574,0.802,1.71,2.19,3.16,0.0923-0.713,1.36,1.73,1.22,1.71,2.7,2.32,3.94,3.79,4.9,2.63,11.6,4.99-8.78-0.61-0.409,0.101-1.67-0.696-2.25-1.08-2.36-0.923-4.95-1.92-6.95-3.44-2.5-1.04-4.94-2.28-7.33-3.53-3.01-1.15-5.63-2.72-8.52-4.1-2.03-1.43-4.13-2.53-6.12-3.87-2.57-1.29-4.78-3.26-7.42-4.48-1.13-1.6-3.49-2.05-4.74-3.6,0,0,12.2,2.67,12.2,2.67z"/>
  <path id="path3979" d="m658,289a12.9,12.9,0,1,1,-25.8,0,12.9,12.9,0,1,1,25.8,0z" transform="matrix(1.5550055,0.33964814,-0.2133915,0.97696677,-298.51586,121.59684)" fill="#FFF"/>
 </g>
</svg>
