<?xml version="1.0" encoding="UTF-8" standalone="no"?>
<!-- Created with Inkscape (http://www.inkscape.org/) -->
<svg id="svg2" xmlns:rdf="http://www.w3.org/1999/02/22-rdf-syntax-ns#" xmlns="http://www.w3.org/2000/svg" height="600" width="1200" version="1.1" xmlns:cc="http://creativecommons.org/ns#" xmlns:dc="http://purl.org/dc/elements/1.1/">
 <defs id="defs4"></defs>
 <metadata id="metadata7">
  <rdf:RDF>
   <cc:Work rdf:about="">
    <dc:format>image/svg+xml</dc:format>
    <dc:type rdf:resource="http://purl.org/dc/dcmitype/StillImage"/>
    <dc:title/>
   </cc:Work>
  </rdf:RDF>
 </metadata>
 <g id="layer1" transform="translate(0,-452.36218)">
  <path id="path3014" fill="#c8beb7" d="m1278.4,652.58c-7.3337-2.5216-16.244-1.7966-20.344,5.336-6.2525,6.0691-6.6323,17.327-15.95,20.904-12.453,5.0223-27.385-0.62492-39.056,7.5235-8.2464,4.4538-13.243,13.323-16.982,21.452-3.0862,4.5276-7.4671,8.8708-13.976,9.9012-13.403,4.0172-26.331-7.2779-39.669-4.2531-8.2244,3.9294-14.357,10.169-16.999,19.067-3.9844,10.339-7.6352,22.676-18.662,27.683-7.518,4.5766-16.466,4.042-24.463,7.3875-7.5303,5.8982-5.5085,18.01-13.492,22.784-4.0334,4.0657-11.349,4.076-17.176,5.2399-4.7921,1.8782-6.7684,7.8528-7.921,11.215-2.4251,7.1136-5.1762,16.415-12.505,20.24-8.973,6.2049-18.607,13.934-30.217,14.645-15.631,1.4297-31.953-2.0331-47.255,0.90035-3.8705-2.9872,13.399-2.2106,18.057-2.4701,16.197,1.1213,34.681,2.8511,47.814-7.9522,7.8382-4.9333,16.931-9.8444,19.115-19.541,3.1872-7.0788,4.0923-17.599,13.564-18.862,9.1463-0.1036,18.544-4.6975,20.511-14.168,2.0355-5.8897,3.8107-13.698,11.324-14.621,11.751-2.2246,25.665-4.9693,31.541-16.727,4.1545-6.3407,6.0833-15.008,8.9162-20.919,2.7631-6.0617,7.8019-10.938,13.959-14.457,9.9311-4.2253,21.414,3.4128,31.824,4.1799,8.4648,0.87924,18.305-2.0126,22.126-8.9404,2.7185-3.6276,4.54-8.8272,7.1041-12.617,7.0595-10.254,19.88-16.298,32.527-15.304,9.1909-0.53039,19.544,0.10636,24.556-8.3021,3.9969-7.1578,7.2229-15.46,14.261-20.191,4.9698-2.8298,12.453-1.624,17.467,0.86756z"/>
  <path id="path2987" fill="#e6e6e6" d="m945.29,868.27c-83.978,26.478,0.1612,0.1568-92.815,29.056-26.992-21.274-24.626-73.693-9.8399-93.525,101.12,17.84-0.11644,0.0992,100.91,17.121,13.648,10.3,16.377,34.059,1.7463,47.348z"/>
  <path id="path3026" fill="#808080" d="m842.71,804.4c6.1892,1.1009,8.84,7.2176,12.154,11.687,3.171,4.763,4.0496,10.297,6.2024,15.527,2.1723,7.4446,5.5934,14.907,3.9875,22.767-0.45832,7.1096-1.7044,14.301-1.9749,21.505-1.2598,7.4511-3.2699,15.02-8.0327,20.673-2.8166,0.91467,0.42132-1.3389,0.8582-2.501,4.9678-8.1037,6.7302-17.966,6.9051-27.632,0.92886-5.2855,1.2392-11.407,1.7446-16.376,0.23432-5.9684-2.4352-11.522-3.7599-16.907-2.4203-5.7102-3.2817-12.057-6.8683-17.174-1.8501-3.4812-4.7217-6.6221-7.2818-9.7006-3.3979-2.092-0.27103-0.34436-3.9338-1.8703z"/>
  <path id="path3076" fill="#b7c4c8" d="m869.34,814.33c4.5994,7.5194,5.893,16.321,7.5271,24.868,0.54815,6.1888,0.44137,12.529,0.51687,18.91-1.636-1.0335-0.1729-4.213-0.68367-6.0528,0.36366-9.1838-1.091-18.46-3.4573-27.214-0.71478-3.8836-2.9387-7.1974-4.5755-10.695l0.54254,0.14886,0.13105,0.0359h-0.002z"/>
  <path id="path3080" fill="#b7c4c8" d="m880.57,818.19c3.8292,7.0252,4.6966,15.146,5.4873,22.992,0.0343,3.8651-0.0666,7.5987,0.15064,11.485-1.3957-1.0785-0.47378-3.9573-0.76388-5.761,0.22281-7.8891-0.94636-16.143-3.1733-23.687-0.50861-1.8888-1.4271-3.5508-2.3628-5.2102l0.54254,0.14887,0.11885,0.0327h0.00059z"/>
  <path id="path3084" fill="#b7c4c8" d="m891.7,820.39c2.653,7.336,2.1912,15.451,3.2302,23.091-1.3147-1.1745-0.7239-4.1655-1.1971-6.0046-0.603-5.9427-0.5119-11.816-2.7361-17.279l0.5425,0.14887,0.1611,0.0442h-0.0006z"/>
  <path id="path3086" fill="#b7c4c8" d="m901.22,824.23c2.7245,4.2671,0.6,9.2921,0.975,13.835-1.5187-1.2691-0.1193-4.4237-0.3658-6.3955,0.2678-2.5386,0.3784-5.4064-1.2211-7.6007l0.5439,0.1437,0.069,0.018h-0.0003z"/>
  <path id="path3088" fill="#b7c4c8" d="m909.62,827.74c1.0504,1.0848,2.2406,4.7266,0.9016,4.8449,0.7391-1.4965-2.0891-5.0531-0.9019-4.8449h0.0003z"/>
  <path id="path3114" fill="#ff7f2a" d="m847.91,840.32c-8.7565-3.8556-15.762-6.7945-24.018-10.938-9.2256-6.5268-22.451-10.368-26.088-22.206-2.2366-6.0058-5.5294-11.707-5.9685-18.192,1.4213-3.902,2.566,6.32,3.4335,8.067,2.1001,4.6981,3.4614,8.7642,5.3953,13.336,5.3435,10.292,17.24,13.675,26.176,19.979,5.8566,3.0047,18.904,8.3466,19.982,9.3549,0.3617,0.19942,0.72572,0.39942,1.0869,0.5987z"/>
  <path id="path3116" fill="#ff7f2a" d="m849,852.74c-13.534-1.7539-27.835-0.14527-40.859-0.54731-7.6979-0.1806-15.1,1.528-22.304,3.9541-3.3776-2.0141,9.0338-3.3374,11.033-4.0863,8.3632-1.1112,15.32-0.48866,23.811-0.7281,9.2238-0.15271,18.711-1.0625,27.688,1.0768l0.49842,0.26095,0.13315,0.0697v0.00017z"/>
  <path id="path3118" fill="#ff7f2a" d="m844.77,865.6c-3.8493,0.98288-9.7358,2.7208-14.312,3.8529-7.0395,1.9076-14.485,3.0884-21.549,4.938-5.9328,0.88499-14.527,2.6428-20.932,5.2515-9.0326,2.9956-16.275,8.5948-23.871,13.96-6.7479,6.1095-14.129,12.758-17.335,21.001-5.2818,2.9015,1.548-6.7764,2.8331-8.6949,5.3867-6.2708,11.032-12.457,18.221-16.796,2.6501-2.1926,8.1222-5.431,11.869-7.6172,4.4043-2.2698,10.74-4.0883,16.42-5.6925,15.612-3.4514,31.512-6.2694,46.855-11.048,0.60067,0.28195,1.2019,0.56474,1.8022,0.84622z"/>
  <path id="path3120" fill="#ff7f2a" d="m776.3,741.24c4.2682-4.3249,10.243-8.7242,16.725-5.5657,9.6669,2.9906,12.263,15.181,9.7759,23.58-0.72666,4.682-4.9842,8.76-7.4667,11.526-3.7458,2.4333-3.3954,8.768-4.5899,11.253-2.9332-2.2744-0.15457-8.3579,2.1228-10.953,2.6772-3.8228,7.4735-7.0152,7.9407-12.071,1.4988-2.78,1.2456-7.7478,0.67965-11.432-1.3205-6.1927-6.1933-11.822-10.07-11.973-5.5949-0.83627-9.7289,2.7823-13.29,6.3768-0.60945-0.2469-1.2188-0.49409-1.8283-0.74082z"/>
  <path id="path3122" fill="#ff7f2a" d="m773.33,810.55c-0.1365,6.3222,2.3353,13.632,4.0685,20.219,1.4941,8.1605,2.9213,16.155,2.7502,24.539-3.682-1.7148-0.94207-7.8026-2.4509-11.582-0.68211-8.354-2.81-16.934-5.3334-25.057,0.64716-1.9926-3.1553-10.589,0.96564-8.1194z"/>
  <path id="path3124" fill="#ff7f2a" d="m777.05,863.3c5.5934-2.705,4.657,4.3425,2.738-0.37237,6.1748,0.17035-1.3765,2.1674-2.738,0.37237z"/>
  <path id="path3126" fill="#ff7f2a" d="m728.01,935.31c8.6427-1.6482,16.266-5.9686,24.429-8.9329,3.1916,1.9005-6.5925,3.2579-8.9664,5.1312-4.1164,2.0988-9.4518,3.8832-14.117,4.4503-0.44827-0.21617-0.89663-0.43247-1.3448-0.64855z"/>
  <path id="path3128" fill="#ff7f2a" d="m733.09,921.36c9.2515,7.0168,16.362,16.605,21.773,26.716-4.876-2.9979-6.8708-10.317-10.943-14.759-0.67985-2.8143-14.488-12.796-10.83-11.957z"/>
  <path id="path3130" fill="#ff7f2a" d="m745.74,925.38c-2.0418,3.3975-3.6956,5.9271-5.7291,9.8742-0.17433,5.1875-5.9754,8.8757-2.7779,1.77,2.1482-4.5059,4.0822-8.3463,6.7602-12.303,0.58225,0.21948,1.1645,0.43909,1.7468,0.6585z"/>
  <path id="path3229" fill="#000" d="m495.56,868.12c-18.978-12.619-13.001-11.875-33.062-11.557-25.645,3.7207-42.864,25.022-65.366,34.947-16.637,4.0663-36.418,10.605-55.04,11.029-17.482,2.1262-35.157,2.0194-52.306-2.8581-16.15-2.831-37.414-5.9078-50.73-2.9908-15.187,1.9161-28.838,7.7037-42.881,12.825-25.001,11.365-45.222,28.724-70.411,39.493-22.445,13.415-41.739,31.609-67.474,40.229-10.92,5.6737-26.946,8.653-38.02,5.5406-17.146-8.8374,26.353-3.9906,22.006-0.41211,7.557,3.5738,29.812,7.3058,44.23,6.6902,20.809-0.4302,41.494-4.0496,62.437-4.0236,17.18-0.65541,31.178-0.42121,48.541,0.71284,25.233-0.17284,50.058,2.2901,75.404,0.10476,15.768,0.62115,30.08-0.9678,46.587-1.0454,40.636-1.7726,81.392-6.2088,121.72-6.9134,17.603-3.6054,35.519-0.46335,53.048-4.1338,25.944-1.5107,51.504-2.5557,77.815-2.6468,18.804-1.9674,40.015-1.188,56.973-7.5329,6.758-2.2542,13.98-7.8506,20.334-12.715,4.5568-4.754,12.558-12.943,13.958-21.901,5.6868-13.217,4.9438-28.224,5.7964-41.252,0.37173-8.3529-1.1777-16.639-2.5761-22.801-2.5102-10.545-2.0376-25.21-13.404-32.798-9.2478-7.7986-32.671-9.7724-51.276-12.138,9.6527,4.4461,5.7435,1.8847,20.346,7.377-1.7585-2.9426,22.419,10.754,21.898,22.926,3.9165,12.834-0.46525,26.418-10.942,34.876-10.476,11.722-30.062,16.425-45.555,11.817-16.096-6.8798-15.621-26.92-14.39-41.244,2.3415-13.539,14.621-22.522,20.819-35.133,7.0188-6.8286,10.463-18.337,5.8366-27.46-2.3614-5.8083-17.972-16.561-15.924-14.198-14.588-5.9669-31.411-4.2635-42.149,7.0344-10.064,8.9796-19.12,22.162-18.093,36.055-1.5947,14.375,4.7605,29.665-4.9485,42.714-10.911,14.06-25.815,25.346-40.536,35.296-6.9563,6.5065-16.712,9.8665-24.219,15.544-16.673,9.0013-32.912,18.42-48.963,27.407-11.947,6.393-24.608,13.203-37.007,14.268,10.41-0.90939,22.001-5.7576,30.825-8.3717,17.884-6.0221,35.143-13.202,52.073-21.071,19.247-8.6452,35.672-18.759,54.233-29.101,14.417-8.7056,25.398-23,38.232-34.304,1.0057-3.4775,16.246-17.647,7.9885-2.7426-5.2807,6.1356-11.956,12.598-16.788,16.783-11.76,13.273-25.992,23.373-41.932,31.336-17.263,10.636-37.743,20.051-54.889,27.804-17.707,6.4738-35.409,14.414-53.482,19.002-11.584,7.1359-26.125-2.4561-5.4514-5.1285,22.749-7.9922,41.235-22.869,63.37-32.909,14.66-9.8159,30.729-17.464,43.169-28.504,10.439-6.5117,18.656-15.493,27.331-23.882,8.3919-9.8951,8.2285-23.365,6.5402-35.715,0.84933-9.0942-1.0379-16.13,3.3994-25.821,5.2174-12.049,15.059-21.804,25.924-28.084,16.502-7.5252,41.309-0.0445,53.078,14.24,9.2763,10.703,2.8366,25.525-5.6012,34.764-7.4028,13.122-20.94,23.464-19.052,40.33-2.874,11.484,7.4983,32.46,13.526,30.859,14.722,0.60364,30.708-3.6429,40.074-14.508,7.7334-7.6183,12.527-16.803,9.94-28.805-2.2333-10.769-6.721-22.193-19.008-25.588-0.45431,0.93191-41.392-14.298-11.444-8.4218,19.24,3.2312,45.003,4.5747,55.426,23.275,4.2476,14.246,6.4446,28.128,8.0259,42.133-0.89918,14.252-0.69079,26.756-3.8639,40.724-3.6784,13.158-12.245,26.283-25.187,33.278-20.977,15.631-49.871,11.4-74.871,14.615-27.844-0.48801-55.115,1.3374-82.662,3.3549-15.629,1.9588-32.309,0.79031-48.107,3.3778-24.052,0.0112-49.993,2.8797-72.482,3.9573-34.581,2.5934-69.064,3.8224-103.74,4.0338-23.605,1.6872-47.111-0.94388-70.693-0.75787-32.963-2.1451-65.66,0.84867-98.295,3.6993-18.534,0.2959-37.526-1.8523-54.813-9.214,3.6788,1.5523-14.047-8.6327-19.58,0.2571-1.6629,0.3036,26.337-0.15023,36.111-7.0491,9.6662-3.5505,18.492-8.4639,25.947-12.821,7.5151-3.8084,14.77-10.251,21.334-14.325,15.491-12.686,34.599-19.026,51.622-30.356,16.294-10.259,30.981-20.61,49.391-26.147,22.918-9.3964,47.859-12.908,72.833-7.1402,17.064,1.7053,33.958,8.5916,50.984,4.7255,13.083,0.0791,29.678-2.13,39.914-4.6352,15.105-4.1954,29.324-5.8777,41.662-15.739,12.632-8.6072,24.123-17.766,38.889-23.408,15.167-8.1046,38.398,1.8095,36.85,1.9361,1.9141-0.028,21.957,12.924,10.772,8.9325z"/>
  <path id="path3231" fill="#000" d="m566.22,819.35c-0.753,1.427-2.5083,1.9493-3.2256,3.4141-0.23263,1.1357-1.2682,1.7123-2.0052,2.4168-0.11334,0.95583-0.9651,0.86389-1.4466,1.6699-0.26798,0.8678-1.0255,1.4022-1.6929,1.9589-0.6735,0.56818-1.4685,0.98221-1.9222,1.7622-0.785,0.99758-1.986,1.6525-2.5551,2.8114-1.0025,0.50614-1.7272,1.2645-2.571,2.0382-0.60527,0.26177-0.9509,1.383-1.6549,0.82881-1.1788-0.49368-2.3575-0.98736-3.5363-1.481,0.3511-0.33642,0.95245-1.1544,0.35543-0.28461,0.54688-0.35797,1.511-0.94082,1.6205-1.4953-0.28796-0.0173,1.1582-0.33531,1.225-0.85655,0.82377-1.1262,1.7319-2.3453,3.1047-2.8138,0.65022-0.60793,0.95317-1.4969,1.8582-1.8889,0.34089-0.18907-0.98002,0.66362-0.31579-0.023,0.4368-0.8283,1.66-0.92591,1.8682-1.8516,0.13839-0.60654,1.0737-1.6704,1.4206-1.6426-0.20085,0.50388-0.61728,1.1046-0.11301,0.29387,0.60273-0.73168,0.79996-1.942,1.8426-2.1776,0.98432-0.0932,0.94346-0.90371,1.0146-1.6539,0.885-0.56235,1.8244-1.0798,2.289-2.1027,0.27346-0.62078,0.77936-0.47856,1.2454-0.21725,1.0648,0.43153,2.1296,0.86303,3.1944,1.2946z"/>
 </g>
</svg>
