<?xml version="1.0" encoding="UTF-8" standalone="no"?>
<!-- Created with Inkscape (http://www.inkscape.org/) -->
<svg id="svg2" xmlns:rdf="http://www.w3.org/1999/02/22-rdf-syntax-ns#" xmlns="http://www.w3.org/2000/svg" height="600" width="1200" version="1.1" xmlns:cc="http://creativecommons.org/ns#" xmlns:dc="http://purl.org/dc/elements/1.1/">
 <defs id="defs4"></defs>
 <metadata id="metadata7">
  <rdf:RDF>
   <cc:Work rdf:about="">
    <dc:format>image/svg+xml</dc:format>
    <dc:type rdf:resource="http://purl.org/dc/dcmitype/StillImage"/>
    <dc:title/>
   </cc:Work>
  </rdf:RDF>
 </metadata>
 <g id="layer1" transform="translate(0,-452.36218)">
  <path id="path3014" fill="#c8beb7" d="m1214.3,464.46c-7.3337-2.5216-16.244-1.7966-20.344,5.336-6.2525,6.0691-6.6323,17.327-15.95,20.904-12.453,5.0223-27.385-0.62492-39.056,7.5235-8.2464,4.4538-13.243,13.323-16.982,21.452-3.0862,4.5276-7.4671,8.8708-13.976,9.9012-13.403,4.0172-26.331-7.2779-39.669-4.2531-8.2244,3.9294-14.357,10.169-16.999,19.067-3.9844,10.339-7.6352,22.676-18.662,27.683-7.518,4.5766-16.466,4.042-24.463,7.3875-7.5303,5.8982-5.5085,18.01-13.492,22.784-4.0334,4.0657-11.349,4.076-17.176,5.2399-4.7921,1.8782-6.7684,7.8528-7.921,11.215-2.4251,7.1136-5.1762,16.415-12.505,20.24-8.973,6.2049-18.607,13.934-30.217,14.645-15.631,1.4297-31.953-2.0331-47.255,0.90035-3.8705-2.9872,13.399-2.2106,18.057-2.4701,16.197,1.1213,34.681,2.8511,47.814-7.9522,7.8382-4.9333,16.931-9.8444,19.115-19.541,3.1872-7.0788,4.0923-17.599,13.564-18.862,9.1463-0.1036,18.544-4.6975,20.511-14.168,2.0355-5.8897,3.8107-13.698,11.324-14.621,11.751-2.2246,25.665-4.9693,31.541-16.727,4.1545-6.3407,6.0833-15.008,8.9162-20.919,2.7631-6.0617,7.8019-10.938,13.959-14.457,9.9311-4.2253,21.414,3.4128,31.824,4.1799,8.4648,0.87924,18.305-2.0126,22.126-8.9404,2.7185-3.6276,4.54-8.8272,7.1041-12.617,7.0595-10.254,19.88-16.298,32.527-15.304,9.1909-0.53039,19.544,0.10636,24.556-8.3021,3.9969-7.1578,7.2229-15.46,14.261-20.191,4.9698-2.8298,12.453-1.624,17.467,0.86756z"/>
  <path id="path2987" fill="#f9f9f9" d="m881.16,680.15c-83.978,26.478,0.1612,0.1568-92.815,29.056-26.992-21.274-24.626-73.693-9.8399-93.525,101.12,17.84-0.11644,0.0992,100.91,17.121,13.648,10.3,16.377,34.059,1.7463,47.348z"/>
  <path id="path3026" fill="#808080" d="m778.57,616.27c6.1892,1.1009,8.84,7.2176,12.154,11.687,3.171,4.763,4.0496,10.297,6.2024,15.527,2.1723,7.4446,5.5934,14.907,3.9875,22.767-0.45832,7.1096-1.7044,14.301-1.9749,21.505-1.2598,7.4511-3.2699,15.02-8.0327,20.673-2.8166,0.91467,0.42132-1.3389,0.8582-2.501,4.9678-8.1037,6.7302-17.966,6.9051-27.632,0.92886-5.2855,1.2392-11.407,1.7446-16.376,0.23432-5.9684-2.4352-11.522-3.7599-16.907-2.4203-5.7102-3.2817-12.057-6.8683-17.174-1.8501-3.4812-4.7217-6.6221-7.2818-9.7006-3.3979-2.092-0.27103-0.34436-3.9338-1.8703z"/>
  <path id="path3076" fill="#b7c4c8" d="m805.21,626.21c4.5994,7.5194,5.893,16.321,7.5271,24.868,0.54815,6.1888,0.44137,12.529,0.51687,18.91-1.636-1.0335-0.1729-4.213-0.68367-6.0528,0.36366-9.1838-1.091-18.46-3.4573-27.214-0.71478-3.8836-2.9387-7.1974-4.5755-10.695l0.54254,0.14886,0.13105,0.0359h-0.002z"/>
  <path id="path3080" fill="#b7c4c8" d="m816.44,630.07c3.8292,7.0252,4.6966,15.146,5.4873,22.992,0.0343,3.8651-0.0666,7.5987,0.15064,11.485-1.3957-1.0785-0.47378-3.9573-0.76388-5.761,0.22281-7.8891-0.94636-16.143-3.1733-23.687-0.50861-1.8888-1.4271-3.5508-2.3628-5.2102l0.54254,0.14887,0.11885,0.0327h0.00059z"/>
  <path id="path3084" fill="#b7c4c8" d="m827.56,632.26c2.653,7.336,2.1912,15.451,3.2302,23.091-1.3147-1.1745-0.7239-4.1655-1.1971-6.0046-0.603-5.9427-0.5119-11.816-2.7361-17.279l0.5425,0.14887,0.1611,0.0442h-0.0006z"/>
  <path id="path3086" fill="#b7c4c8" d="m837.09,636.1c2.7245,4.2671,0.6,9.2921,0.975,13.835-1.5187-1.2691-0.1193-4.4237-0.3658-6.3955,0.2678-2.5386,0.3784-5.4064-1.2211-7.6007l0.5439,0.1437,0.069,0.018h-0.0003z"/>
  <path id="path3088" fill="#b7c4c8" d="m845.49,639.62c1.0504,1.0848,2.2406,4.7266,0.9016,4.8449,0.7391-1.4965-2.0891-5.0531-0.9019-4.8449h0.0003z"/>
  <path id="path3114" fill="#ff7f2a" d="m783.78,652.19c-8.7565-3.8556-15.762-6.7945-24.018-10.938-9.2256-6.5268-22.451-10.368-26.088-22.206-2.2366-6.0058-5.5294-11.707-5.9685-18.192,1.4213-3.902,2.566,6.32,3.4335,8.067,2.1001,4.6981,3.4614,8.7642,5.3953,13.336,5.3435,10.292,17.24,13.675,26.176,19.979,5.8566,3.0047,18.904,8.3466,19.982,9.3549,0.3617,0.19942,0.72572,0.39942,1.0869,0.5987z"/>
  <path id="path3116" fill="#ff7f2a" d="m784.86,664.61c-13.534-1.7539-27.835-0.14527-40.859-0.54731-7.6979-0.1806-15.1,1.528-22.304,3.9541-3.3776-2.0141,9.0338-3.3374,11.033-4.0863,8.3632-1.1112,15.32-0.48866,23.811-0.7281,9.2238-0.15271,18.711-1.0625,27.688,1.0768l0.49842,0.26095,0.13315,0.0697v0.00017z"/>
  <path id="path3118" fill="#ff7f2a" d="m780.63,677.47c-3.8493,0.98288-9.7358,2.7208-14.312,3.8529-7.0395,1.9076-14.485,3.0884-21.549,4.938-5.9328,0.88499-14.527,2.6428-20.932,5.2515-9.0326,2.9956-16.275,8.5948-23.871,13.96-6.7479,6.1095-14.129,12.758-17.335,21.001-5.2818,2.9015,1.548-6.7764,2.8331-8.6949,5.3867-6.2708,11.032-12.457,18.221-16.796,2.6501-2.1926,8.1222-5.431,11.869-7.6172,4.4043-2.2698,10.74-4.0883,16.42-5.6925,15.612-3.4514,31.512-6.2694,46.855-11.048,0.60067,0.28195,1.2019,0.56474,1.8022,0.84622z"/>
  <path id="path3120" fill="#ff7f2a" d="m712.17,553.12c4.2682-4.3249,10.243-8.7242,16.725-5.5657,9.6669,2.9906,12.263,15.181,9.7759,23.58-0.72666,4.682-4.9842,8.76-7.4667,11.526-3.7458,2.4333-3.3954,8.768-4.5899,11.253-2.9332-2.2744-0.15457-8.3579,2.1228-10.953,2.6772-3.8228,7.4735-7.0152,7.9407-12.071,1.4988-2.78,1.2456-7.7478,0.67965-11.432-1.3205-6.1927-6.1933-11.822-10.07-11.973-5.5949-0.83627-9.7289,2.7823-13.29,6.3768-0.60945-0.2469-1.2188-0.49409-1.8283-0.74082z"/>
  <path id="path3122" fill="#ff7f2a" d="m709.19,622.43c-0.1365,6.3222,2.3353,13.632,4.0685,20.219,1.4941,8.1605,2.9213,16.155,2.7502,24.539-3.682-1.7148-0.94207-7.8026-2.4509-11.582-0.68211-8.354-2.81-16.934-5.3334-25.057,0.64716-1.9926-3.1553-10.589,0.96564-8.1194z"/>
  <path id="path3124" fill="#ff7f2a" d="m712.91,675.17c5.5934-2.705,4.657,4.3425,2.738-0.37237,6.1748,0.17035-1.3765,2.1674-2.738,0.37237z"/>
  <path id="path3126" fill="#ff7f2a" d="m663.88,747.18c8.6427-1.6482,16.266-5.9686,24.429-8.9329,3.1916,1.9005-6.5925,3.2579-8.9664,5.1312-4.1164,2.0988-9.4518,3.8832-14.117,4.4503-0.44827-0.21617-0.89663-0.43247-1.3448-0.64855z"/>
  <path id="path3128" fill="#ff7f2a" d="m668.96,733.24c9.2515,7.0168,16.362,16.605,21.773,26.716-4.876-2.9979-6.8708-10.317-10.943-14.759-0.67985-2.8143-14.488-12.796-10.83-11.957z"/>
  <path id="path3130" fill="#ff7f2a" d="m681.6,737.26c-2.0418,3.3975-3.6956,5.9271-5.7291,9.8742-0.17433,5.1875-5.9754,8.8757-2.7779,1.77,2.1482-4.5059,4.0822-8.3463,6.7602-12.303,0.58225,0.21948,1.1645,0.43909,1.7468,0.6585z"/>
  <path id="path3523-6" fill="#000" d="m249.32,837.2c-0.83439,0.91419-1.7155,1.8852-2.7257,2.6086-1.0545,0.89123-1.9352,1.9526-2.9606,2.8783-0.7836,0.47283-1.1827,1.4266-1.9452,1.9063-0.0966,0.0605-0.21522,0.0362-0.32287,0.0605-0.21649,0.24657-0.43413,0.4946-0.65059,0.74128-0.95412,1.0666-2.1486,1.8387-3.1753,2.8294-0.98674,0.8356-2.1149,1.4711-3.0785,2.3336-1.0049,0.99399-2.2756,1.5301-3.406,2.3382-1.0932,0.24684-2.5002,2.1133-3.5908,2.2347-0.84165,0.0605-1.2746,0.83557-1.9499,1.1645-0.12928,0.0605-0.28538-0.13311-0.42204-0.0966-0.52963,0.16193-0.96378,0.54899-1.4655,0.78359-0.1971,0.0229-0.41114-0.023-0.59251,0.0605-0.3132,0.14024-0.55263,0.40872-0.8489,0.58285-0.79932,0.46798-1.9039,0.90934-2.8131,0.98553-1.454,0.50911-2.9315,0.97225-4.4544,1.2384-0.29627,0.13183-0.59133,0.26362-0.8876,0.39664-0.20552-0.0362-0.41357-0.15963-0.61671-0.10884-0.364,0.0966-0.63245,0.43653-0.99885,0.51635-0.20908,0.0485-0.40752-0.17161-0.62155-0.16319-0.5236,0.0229-1.4226,0.45107-1.8579,0.63245-0.25039-0.007-0.50184-0.0127-0.75213-0.023-0.36885,0.18258-0.69414,0.55866-1.1065,0.549-0.24429-0.005-0.19584-0.5466-0.43535-0.5877-0.34584-0.0605-0.6554,0.25637-0.99522,0.34464-0.28779,0.0724-0.58163,0.13184-0.87913,0.13897-0.24913,0.005-0.49338-0.0727-0.74005-0.10884-1.7482-0.13413-3.3978-0.0966-5.1326,0.20195-0.59616-0.0846-1.941-0.23459-2.5051-0.16676-1.445,0.17161-1.1415,0.57077-2.6252-0.0485-0.91176,0.16446-1.984,0.45467-2.9241,0.37243-0.26362-0.023-0.48975-0.2249-0.75458-0.24785-0.6288-0.0485-1.2582,0.10884-1.8889,0.10884-0.27692-0.0485-0.55142-0.16318-0.82953-0.13794-0.38335,0.0362-0.72919,0.26363-1.1113,0.31681-1.5028,0.20808-0.32045-0.14152-1.6124-0.37243-0.42565-0.0727-1.5671,0.12698-1.9599,0.18385-0.29143-0.023-0.58408-0.0605-0.87551-0.0846-0.32648,0.023-0.65178,0.0966-0.97829,0.0846-0.28054-0.0127-0.54415-0.18385-0.82471-0.17059-0.37366,0.0127-0.71709,0.25397-1.0907,0.26242-0.55384,0.0127-1.069-0.28779-1.6076-0.4184-1.7851,0.32771-3.5541,0.29262-5.3623,0.52725-0.34103,0.18257-0.64576,0.45709-1.0218,0.54899-0.19837,0.0485-0.39181-0.15835-0.59616-0.14994-0.7848,0.0362-2.3091,0.5478-3.0479,0.84649-0.21777,0.0127-0.44863-0.023-0.65178,0.0485-0.32771,0.13056-0.57682,0.41477-0.89605,0.56592-1.0726,0.50547-1.6757,0.33861-2.8688,1.0811-0.80415,0.42083-1.7621,0.5877-2.5622,0.98555-1.9935,0.99159,0.25268,0.17646-1.3581,0.71829-0.78963,0.37245-1.3955,1.0509-2.1188,1.4983-0.13541,0.0846-0.33011,0.007-0.46799,0.0846-1.3284,0.76424-0.20424,0.55263-1.2225,0.66509-0.52482,0.48975-0.84889,0.88274-1.4807,1.1959-0.14152,0.0727-0.32651,0.0362-0.45469,0.12571-0.30352,0.21521-0.49338,0.57319-0.81141,0.76787-0.0966,0.0605-0.23586-0.14381-0.32287-0.0724-0.37608,0.29628-0.63364,0.71831-0.95046,1.0786-1.237,0.53691-2.111,1.5898-3.2222,2.3408-1.0714,0.91179-2.2276,1.674-3.1708,2.7252-1.0895,0.90818-2.1766,1.8314-3.2058,2.8023-1.1923,0.92026-2.3092,1.9401-3.4242,2.9529-1.2259,0.97225-2.2437,2.0242-3.323,3.1369-0.19481,0.21163-0.36519,0.45104-0.58527,0.63607-0.0727,0.0605-0.17646,0.0485-0.26607,0.0726-0.13897,0.10884-0.29989,0.1994-0.41838,0.33133-0.5877,0.64816-1.1742,1.3743-1.7135,2.0666-1.0327,1.1476-2.0492,2.2987-2.972,3.5376-1.0061,1.1596-2.0272,2.3173-2.888,3.5833-1.0242,1.2685-2.0335,2.5272-2.9681,3.8663-0.86946,1.1548-1.8414,2.2139-2.695,3.3831-4.2218,6.3396,5.4281-8.4303-1.8038,2.4333-0.51877,0.77875,1.1016-1.5138,1.6517-2.2705-0.8997,1.2748-1.8001,2.5496-2.7002,3.8244,0.0362-0.15478-1.327,1.9266-0.99642,1.4441,4.3409-6.3358,0.0727,0.21649-1.6135,2.1054-0.90571,1.2674-1.8404,2.504-2.7446,3.7722-0.99884,1.2159-1.8707,2.5215-2.8052,3.7839-0.0485,0.002-0.12699-0.0362-0.1609,0.01-0.17901,0.21521-1.023,1.5753-1.202,1.8268-0.45952,0.64816-0.96979,1.2796-1.469,1.8982-0.4716,0.61309-0.95047,1.2212-1.4224,1.8275-0.19455,0.24914-0.72192,1.04-0.53933,0.77999,1.4345-2.0441,3.6228-5.2098-0.95047,1.3878,4.0484-5.7766,0.42325-0.46917-0.42081,0.9118-0.87551,1.3291-1.8151,2.6625-2.4684,4.1205-1.0073,1.5626-1.8753,3.208-2.823,4.8049-0.63002,1.3921-1.5023,2.6456-2.2895,3.9541-1.1379,1.9656-2.5388,3.7704-3.8597,5.6122-0.68806,0.96017-0.29262,0.53571-0.91781,1.1331-0.91298,1.323-1.9685,2.4802-3.2733,3.412-1.017,1.2803-2.5613,1.8151-3.7685,2.8263-0.57199,0.24199-0.94565,0.78239-1.4842,1.069-0.34949,0.18614-0.80297,0.0727-1.1633,0.23459-1.7581,0.80051-0.10884,0.39421-1.4602,0.6675-1.4597,0.5236-2.8544,1.3196-4.4035,1.5327-0.93958,0.49096-1.9828,0.25143-2.9656,0.42323-0.29627,0.0485-0.56592,0.23714-0.86581,0.24658-0.21164,0.007-0.40268-0.1331-0.60343-0.1994-0.3253,0.13183-0.62639,0.36277-0.97706,0.39663-0.21649,0.023-2.7451-0.8513-3.1032-0.99884-1.273,0.23943-1.1149-0.54779-1.6741-0.8259-0.21776-0.10884-0.52966,0.10884-0.72677-0.0362-0.1994-0.14279-0.13056-0.48369-0.27208-0.68322-0.12084-0.16676-0.32166-0.2527-0.48371-0.37971-0.18385-0.0966-0.42323-0.12207-0.55141-0.28418-0.15478-0.19583-0.12207-0.48733-0.2323-0.71104-0.38574-0.78118-0.93232-1.0472-1.0714-1.9626,0.01274-0.23816,0.03624-0.47765,0.04848-0.71589-0.07273-0.12083-0.1971-0.2152-0.21393-0.35069-0.07272-0.58285,0.10884-1.5869,0.32648-2.1169,0.36762-1.7442,2.5752-5.1319,3.5405-5.4888,0.71104-1.0835,1.8719-1.604,2.8712-2.3595,0.69773-0.0127,1.8384-1.1633,2.3245-1.3239,0.13412-0.0485,0.2323,0.15963,0.34826,0.23815,0.31562-0.25513,0.63002-0.5115,0.94565-0.76664,1.403,0.16931,2.6848-0.78965,4.0528-0.71226,0.69048,0.29143,1.4203-0.1535,2.0907-0.12084,0.19837,0.01,0.3555,0.19455,0.55261,0.22719,0.46555,0.0727,0.94442-0.01,1.4158-0.002,0.1632,0.12084,0.29143,0.32529,0.49096,0.35551,0.98314,0.14865,0.60706-0.48853,1.463,0.005,0.18513,0.10884,0.24301,0.39301,0.44623,0.46194,0.24427,0.0847,0.51755-0.0724,0.77512-0.0485,0.21878,0.023,0.42445,0.12084,0.63607,0.17289,0.80658,1.2908-0.19099,0.0727,1.15,0.57438,0.21393,0.0846,0.26845,0.40026,0.47767,0.48853,0.243,0.0966,0.55502-0.0724,0.78962,0.0485,0.58408,0.77392,0.21291,0.50064,1.1077,0.83075,1.8301,0.24173-0.1706-0.15835,1.3088,0.53328,0.22489,0.10884,0.52843,0.0127,0.72918,0.1609,0.20324,0.14994,0.1887,0.48973,0.37729,0.65783,0.34464,0.30715,0.84526,0.38092,1.234,0.63002,0.22974,0.0724,0.45952,0.13667,0.69048,0.2045,0.16192,0.17058,0.26362,0.4317,0.48492,0.51029,0.26725,0.0966,0.60101-0.16676,0.8513-0.0362,0.22618,0.12084,0.15835,0.52117,0.36037,0.67597,2.6234,2.001-1.0025-1.7116,1.2056,0.66871,0.42808,0.88275,1.1524,0.60584,1.8735,0.93112,0.22133,0.0966,0.3652,0.32047,0.55866,0.46557,0.66146,0.50064,0.53932,0.39058,1.3187,0.68323,1.0037-0.12927,1.1427,0.80417,1.8595,1.1694,0.23459,0.12084,0.54415,0.0362,0.77512,0.15963,1.8129,0.99038-0.91661,0.21037,1.2582,0.71466,0.99642-0.15835,1.1343,0.8513,1.8035,1.1851,1.0787,0.53813,1.0266-0.50062,1.8096,1.121,2.21,0.40752-0.58648-0.30955,1.1403,0.82956,0.22133,0.14636,0.53811,0.002,0.79085,0.0846,0.81382,0.26119,0.68806,0.76908,1.7261,1.173,0.15962,0.17059,0.28781,0.37728,0.47886,0.51151,0.19226,0.13539,0.45588,0.14279,0.64452,0.28176,0.86221,0.63122,1.0569,1.3342,2.1546,1.7131,2.2774,0.99038-0.93234-0.55022,1.0944,0.93958,0.20424,0.15122,0.54779,0.0362,0.73401,0.20451,0.94685,0.8755-0.51878,0.76544,1.8141,1.1669,0.84044,1.1052,0.023,0.23459,1.1645,0.93112,0.21521,0.13182,0.36762,0.35672,0.59133,0.47282,0.23331,0.12084,0.5369,0.0725,0.75701,0.2226,0.2152,0.14152,0.30592,0.4184,0.49215,0.59736,0.18028,0.17289,0.39905,0.2999,0.59859,0.44986,0.57197,0.4051,1.4505,0.56712,1.9907,1.0025,0.19839,0.1609,0.2757,0.43412,0.45226,0.61794,0.48613,0.50666,0.63245,0.4728,1.2776,0.69893,0.23102,0.10884,0.49335,0.15248,0.69169,0.30837,0.20552,0.1609,0.29627,0.43533,0.48611,0.61549,0.71468,0.67599,1.6865,1.156,2.5188,1.6675,1.1137-0.30351,1.0702,0.81987,1.9571,1.0653,0.28418,0.0846,0.63122-0.13182,0.88517,0.023,0.49942,0.95289,0.13182,0.62276,1.0641,1.0351,0.79084,0.0485,1.2668,0.73767,1.9839,0.96378,0.25633,0.0847,0.55502,0.005,0.79688,0.12084,0.44379,0.21164,0.71831,0.67114,1.0968,0.98434,0.61067,0.62757,1.7015,0.29504,2.3747,0.59856,0.24071,0.10884,0.31077,0.44743,0.54053,0.57681,2.0441,1.1524-0.33616-0.87186,1.3715,0.70742,0.2527,0.0846,0.49338,0.22363,0.75701,0.24555,0.3265,0.023,0.6554-0.15835,0.9783-0.0966,0.0727,0.0127,1.2248,0.75338,1.2917,0.7824,0.63848,0.28055,0.94564,0.22975,1.6385,0.26482,0.19456,0.17543,0.33014,0.45831,0.58286,0.5248,0.32651,0.0846,0.68324-0.19097,1.0085-0.0966,0.25876,0.0727,0.34946,0.43172,0.59132,0.54901,0.25998,0.12699,0.58165,0.0485,0.85253,0.15478,0.49334,0.18258,0.90814,0.53209,1.3766,0.77153,0.37728-0.0846,0.7461-0.27815,1.1306-0.24914,0.25879,0.023,1.3436,0.75218,1.5562,0.8477,0.85132,0.38334,1.79,0.61431,2.7058,0.75458,1.0593,0.51151,2.349,0.53086,3.3719,1.1222,1.3455,0.77877-0.12084,0.4063,1.549,0.65542,0.22362,0.15479,0.40752,0.40026,0.67115,0.46556,0.3253,0.0846,0.67234-0.0846,1.0049-0.0485,1.0835,0.13311,2.1649,0.80778,3.2452,1.0399,0.64575-0.0485,1.1427,0.44744,1.7435,0.54537,0.3543,0.0605,0.73643-0.12084,1.0762-0.007,0.28901,0.0966,0.39422,0.53085,0.69049,0.60221,4.3239,1.0339-1.371-1.257,2.0186,0.20807,0.9021,0.44258,1.9979,0.12826,2.9212,0.36642,0.27813,0.0726,0.49338,0.29867,0.75941,0.40992,0.7703,0.32528,0.9529,0.27691,1.7898,0.35795,0.33133,0.002,0.66994-0.0605,0.994,0.01,0.27572,0.0605,0.497,0.27569,0.76788,0.35188,1.2092,0.3398,2.3873,0.26846,3.5648,0.78119,1.0762,0.60463,2.4152,0.26119,3.5159,0.71346,1.4561,0.59978-0.18258,0.50789,1.706,0.37728,0.55868,0.5369,1.2464-0.0127,1.8393,0.15121,0.2636,0.0723,0.3555,0.48491,0.62395,0.52966,0.37124,0.0605,0.72677-0.24658,1.1029-0.23817,0.21776,0.005,1.3012,0.52603,1.491,0.61311,0.9021,0.42565,2.0216-0.40148,2.9078-0.14994,0.25879,0.0727,0.33375,0.46798,0.59012,0.55021,1.2395-0.0725,0.66993-0.17415,1.7188,0.24914,1.2056-0.38578,2.2185,0.39782,3.3499,0.58646,0.23459,0.0362,1.6608-0.0605,1.8817-0.0726,0.26361,0.0726,0.52725,0.13667,0.79085,0.20423,0.34947-0.0605,0.69776-0.2624,1.046-0.19837,0.25876,0.0485,0.35188,0.44378,0.60702,0.50304,1.1802,0.27208,1.2068-0.64573,2.6344,0.23103,1.714,0.45589,3.6385-0.3241,5.2758,0.40872,2.8565,0.73038-1.589-0.31199,1.7591,0.10884,0.25998,0.0362,0.46917,0.24784,0.72554,0.30474,0.82229,0.18129,1.7131,0.15605,2.552,0.33737,0.37004-0.0966,0.72556-0.2999,1.1089-0.29625,0.26481,0.002,0.46798,0.2757,0.73039,0.3144,0.9553,0.14025,2.0546-0.50426,2.9784-0.31077,0.25878,0.0485,0.42806,0.31077,0.64211,0.46555,1.3447-0.01,2.7364-0.29142,4.0886-0.20909,3.623,0.21878-1.9329,0.18384,1.9982,0.16446,0.28781,0.0966,0.56111,0.30354,0.86462,0.29386,0.43654-0.0127,0.82471-0.32771,1.2603-0.35674,0.30836-0.023,0.59375,0.19482,0.90332,0.21292,0.36277,0.023,0.72312-0.0966,1.0871-0.0966,0.33499-0.001,0.66752,0.0605,1.0013,0.0846,0.36885-0.005,0.73886-0.007,1.1077-0.0127,1.8382,0.67721-0.10884,0.14509,2.196,0.0605,0.33738-0.0127,0.65784,0.18512,0.99522,0.19226,1.2056,0.023,2.2-0.39905,3.4951-0.34464,2.0812,0.18257,4.1169,0.35191,6.2054,0.1632,0.33376,0.01,0.67112-0.01,1.0025,0.0362,0.30231,0.0362,0.5865,0.17161,0.88759,0.21037,1.3701,0.17772,2.751-0.12929,4.1174-0.16676,0.66266,0.18869,1.3466-0.14994,2.007-0.0362,0.27691,0.0485,0.4873,0.34099,0.76664,0.34584,0.41115,0.007,0.78238-0.30835,1.1948-0.3132,0.29263-0.002,0.54052,0.24071,0.82833,0.29142,0.33498,0.0605,0.68082,0.023,1.0206,0.0362,0.42685-0.12084,0.83802-0.36762,1.2802-0.35553,0.30231,0.007,0.53813,0.27572,0.80658,0.41356,0.30352,0.0846,0.5986,0.24786,0.913,0.23816,0.42565-0.0127,0.81624-0.32528,1.2418-0.30231,0.29749,0.0127,0.52845,0.2745,0.79327,0.41234,0.37365-0.0485,0.74731-0.0846,1.121-0.12927,0.20807-0.023,1.9585-0.22848,2.1868-0.20553,1.4227,0.14381,0.26606,0.46556,1.7646,0.43774,0.73282-0.0127,1.4515-0.22133,2.1828-0.2757,0.22744,0.17059,0.40147,0.47402,0.68321,0.51271,0.39182,0.0485,0.76183-0.23102,1.156-0.2624,0.312-0.023,0.62037,0.0966,0.93234,0.0966,1.0787-0.023,1.9244-0.27207,3.0102-0.0966,2.0307,0.82231-0.76426-0.12084,1.9818-0.0485,0.27572,0.007,0.44621,0.36278,0.7183,0.41355,1.7717,0.33498,1.2528-1.4851,2.9858-0.13182,0.39302-0.12084,0.7703-0.3652,1.1802-0.35189,0.2733,0.01,0.43896,0.3664,0.70741,0.41598,0.23944,0.0485,1.8422-0.23459,2.0657-0.23459,0.61068,0.0006,1.2153,0.14152,1.826,0.14764,1.2242,0.3894,2.4485,0.023,3.6521-0.26965,0.34949-0.0846,0.68082-0.3144,1.0399-0.29022,0.24683,0.0127,0.41722,0.26603,0.6264,0.40025,1.2194-0.57438,2.5192-0.31801,3.8096-0.33495,2.4597-0.0362-0.40391-0.16192,1.9162-0.023,1.323-0.4051,2.7,0.005,4.0341-0.10884,3.5273-0.30714-1.0484-0.18869,2.2833-0.22975,2.3114,0.67113,4.1737-0.23815,6.5425,0.1331,2.1112,0.10884,4.1578-0.21393,6.271-0.34221,0.32286-0.023,0.64693-0.0966,0.97102-0.0605,0.27572,0.023,0.52967,0.18384,0.80535,0.20194,1.0593,0.0724,0.94202-0.23331,2.0082-0.50426,0.60341-0.1535,1.0944-0.0724,1.697-0.0362,1.7044,0.18385-0.22745,0.10884,1.8606-0.39785,0.24172-0.0605,0.49699,0.0485,0.7449,0.0362,0.92749-0.0362,1.6166-0.43896,2.5518-0.3785,0.24427,0.0362,0.49216,0.14764,0.734,0.0966,0.35552-0.0724,0.65059-0.32529,0.99763-0.4317,1.1827-0.36157,2.3516-0.2745,3.5771-0.69653,1.1198-0.26482,2.3071-0.12698,3.4311-0.29142,1.1923-0.30959,0.6034-0.20323,1.7644-0.33255,1.2997-0.1632,2.6126-0.93236,3.9286-0.96137,2.119-0.0485-0.7957,0.8102,2.0676-0.29262,2.102-0.3132,4.144-0.18386,6.2089-0.77152,0.31078,0.002,0.62518,0.0605,0.93112,0.01,0.41599-0.0724,0.78965-0.31803,1.2068-0.39422,0.68928-0.12571,1.4077,0.0485,2.0999-0.0605,0.42082-0.0605,0.81261-0.33013,1.238-0.31197,0.30109,0.0127,0.54052,0.26602,0.8102,0.40026,2.154-0.67599,4.3759-0.55626,6.5961-0.6796,0.96378-0.64454,2.0215,0.30955,2.9754,0.16191,0.46798-0.0727,0.86339-0.41114,1.3273-0.51153,0.68083-0.14764,1.3944-0.0362,2.0873-0.10884,2.2944-0.27208,4.6093-0.0846,6.8785-0.52844,0.35794,0.0362,0.71466,0.13667,1.075,0.12084,0.4317-0.023,0.84284-0.21521,1.2747-0.22719,0.34584-0.01,0.67959,0.1512,1.0267,0.16191,0.39058,0.0127,0.77876-0.10884,1.1681-0.0966,2.2741,0.10884-0.47888,0.4873,2.2562-0.0605,1.1621-0.54051,2.3017-0.17644,3.4801-0.19353,1.2609-0.0127,2.5762-0.46436,3.8139-0.68082,0.71831-0.2504,1.4722,0.19711,2.1884,0.0605,0.49941-0.0966,0.93111-0.42082,1.4233-0.55023,1.0339-0.27206,2.2658-0.15962,3.326-0.18257,0.364-0.0605,0.72919-0.12083,1.0932-0.17288,0.29989,0.0362,0.60101,0.13667,0.89967,0.0966,0.39906-0.0485,0.75216-0.33134,1.1548-0.35192,0.27449-0.0127,0.50911,0.2576,0.7848,0.25517,0.37608-0.002,0.72314-0.21649,1.0956-0.27207,0.3144-0.0485,0.63487-0.023,0.95288-0.0362,0.38818-0.13055,0.75941-0.33497,1.1658-0.39059,0.28777-0.0362,0.57315,0.10884,0.86461,0.10884,1.2876-0.001,2.7087-0.21648,3.9811-0.40994,1.7217,0.48614,3.9205-0.023,5.7135-0.15121,1.3091,0.3398,2.6198-0.16192,3.9221-0.12928,2.4778,0.0605-0.8368,0.364,1.9841,0.023,1.0279-0.179,2.113,0.14866,3.1361-0.0605,0.47403-0.0966,0.89122-0.46676,1.3748-0.45829,0.31197,0.005,0.52965,0.33133,0.79447,0.49819,0.3785-0.023,0.75701-0.0485,1.1367-0.0723,1.4221,0.53086,3.1505-0.42808,4.4997-0.33133,0.30232,0.023,0.56111,0.22974,0.84165,0.34464,0.34949-0.002,0.69775-0.005,1.0472-0.007,0.36279-0.023,0.72676-0.0485,1.0895-0.0846,0.37365-0.0362,0.74247-0.13412,1.1174-0.14637,0.20195-0.007,1.7754,0.16575,1.9734,0.14279,3.7095-0.4196-0.95774-0.29989,2.255-0.32528,2.1601-0.20552,4.3373-0.12084,6.494-0.31563,0.3652-0.0724,0.72316-0.18869,1.0932-0.2249,0.63123-0.0605,1.2713,0.0127,1.9034-0.0362,1.0388-0.0966,2.0655-0.26364,3.0935-0.43655,0.93476-0.49218,2.1242,0.0846,2.903,0.0605,0.39544-0.01,0.76909-0.19097,1.1609-0.25269,0.37246-0.0605,0.74974-0.0724,1.1246-0.10884,0.40027-0.0724,0.80055-0.13412,1.2008-0.20068,1.5884-0.40994,3.238-0.445,4.846-0.64695,2.0968-0.26241,0.31197-0.37123,2.147-0.14764,0.51877-0.30109,0.98071-0.73159,1.5551-0.9033,0.2999-0.0846,0.6131,0.17415,0.92631,0.15733,0.40145-0.023,0.77512-0.2323,1.1742-0.2745,0.3253-0.0362,0.65663,0.0846,0.98314,0.0362,3.0904-0.36639-0.52724-0.31199,2.1708-0.29021,1.6336,0.12699,3.1549-0.64695,4.7574-0.77999,0.75579-0.0605,1.5157,0.0362,2.2737,0.0362,1.1851-0.14279,2.408,0.0485,3.5872-0.023,1.3451-0.0846,2.5741-0.36037,3.938-0.33133,1.6373-0.0485,3.3769-0.52,5.0223-0.35433,0.34344,0.0362,0.65785,0.27329,1.0013,0.25517,0.47402-0.023,0.91541-0.25517,1.3729-0.38213,0.33375,0.0846,0.65784,0.24555,1.0025,0.25878,0.42565,0.0127,0.84284-0.13309,1.2666-0.17288,1.593-0.15223,3.2764-0.37851,4.8498-0.13055,0.40754-0.001,0.81383-0.002,1.2214-0.005,0.43896-0.0605,0.87429-0.17288,1.3183-0.18512,0.37488-0.01,0.7437,0.13183,1.1186,0.12084,0.43173-0.023,0.8453-0.21394,1.2772-0.21648,2.6086-0.023-0.8767,0.69775,2.3164-0.14867,0.30714,0.0966,0.59978,0.29869,0.92023,0.28055,0.46074-0.023,0.86704-0.33496,1.3227-0.40631,0.34464-0.0485,0.69652,0.0485,1.046,0.0362,0.3797-0.0127,0.75457-0.15732,1.1343-0.12953,0.30596,0.023,0.57198,0.28661,0.87912,0.27691,0.43173-0.0127,0.83318-0.23229,1.2493-0.34826,0.31683,0.0485,0.63003,0.14381,0.94928,0.1354,1.0968-0.023,2.2221-0.40026,3.3224-0.44258,0.33135-0.0127,0.65905,0.0605,0.98918,0.0846,0.36157-0.0127,0.72315-0.0362,1.0835-0.0485,1.0533,0.0127,2.1902,0.26242,3.2392,0.0485,0.48734-0.0966,0.91661-0.45952,1.4134-0.47645,0.32529-0.01,0.59375,0.26606,0.89121,0.39786,0.4172-0.0727,0.83438-0.14152,1.2523-0.21163,1.4955-0.76549,3.1371-0.30717,4.7154-0.52725,2.2286-0.31077,0.30231-0.36762,2.2576-0.20449,0.34946,0.002,0.70137,0.0485,1.0484,0.007,1.1899-0.12444,1.156-0.364,2.3397-0.4293,1.2523-0.0724,1.7589,0.0727,3.0657-0.24071,1.0327,0.29265,1.9799-0.29022,2.9687-0.37486,0.28296-0.023,0.5635,0.14024,0.84648,0.10884,2.1646-0.22745,0.15249-0.5115,1.917-0.14764,2.092-0.26118,4.2145,0.005,6.2655-0.46555,0.28661,0.0966,0.55869,0.30835,0.861,0.28899,0.45227-0.023,0.84768-0.33494,1.2911-0.42806,0.70137-0.14637,1.3911-0.023,2.0936-0.023,0.61309,0.001,1.7167-0.0727,2.3172-0.10884,1.0303-0.21776,2.4337,0.22362,3.3929,0.23102,0.45348,0.002,0.89486-0.18028,1.3484-0.18614,2.8013-0.0362-0.69775,0.55383,2.5769-0.15835,0.41962-0.023,0.84042-0.0362,1.2604-0.0605,0.37246,0.0724,0.73886,0.20807,1.1174,0.20068,0.48129-0.007,0.94201-0.25637,1.4238-0.24786,0.37848,0.007,0.71828,0.26846,1.0968,0.29506,0.83319,0.0605,2.0174-0.28055,2.7981-0.45952,0.36762,0.0726,0.72917,0.19838,1.104,0.2068,0.43654,0.01,0.86581-0.15835,1.3028-0.15121,0.73523,0.0127,1.401,0.3809,2.1417,0.36034,0.82231-0.023,1.6312-0.24071,2.4534-0.26482,0.37123-0.01,0.74367,0.01,1.1137-0.0362,0.40753-0.0485,0.79933-0.20936,1.208-0.22134,0.64818-0.023,1.2712,0.34102,1.9185,0.31321,0.78722-0.0362,1.5464-0.30352,2.3252-0.42447,4.4485-1.0666-1.3383,0.0727,1.9386,0.0727,0.79447-0.00097,1.5158-0.53086,2.3075-0.60221,2.9932-0.26725-1.3299,0.54899,1.9581-0.14865,1.8087,0.30474-0.36881,0.0846,1.9334-0.31076,0.26484-0.0485,0.52967,0.13413,0.79812,0.12084,0.92869-0.0605,2.0118-0.40752,2.888-0.69895,0.93839,0.37485,1.7586-0.22363,2.657-0.30232,0.25636-0.023,0.50547,0.16804,0.7606,0.13668,0.71468-0.0846,1.3846-0.41114,2.0954-0.52724,1.9983-0.39301,4.0389-0.60826,6.0236-1.1427,0.32894-0.0362,0.65784-0.0727,0.98556-0.0966,0.36519-0.0966,0.72192-0.24071,1.0968-0.27935,0.29747-0.0362,0.60101,0.12571,0.89487,0.0723,0.42442-0.0846,0.79203-0.35915,1.2112-0.46313,0.31077-0.0727,0.63848-0.0485,0.95893-0.0727,0.35431-0.0847,0.70984-0.17646,1.0642-0.26483,0.37608-0.12571,0.7328-0.35191,1.1294-0.3785,0.26603-0.0127,0.49458,0.28538,0.75941,0.25396,0.56231-0.0605,2.6231-1.0774,3.1806-1.1657,0.24174-0.0362,0.47041,0.13668,0.70623,0.20552,0.40267-0.21521,0.77149-0.51515,1.2094-0.64696,0.23586-0.0727,0.49095,0.0846,0.73643,0.0605,1.2188-0.0966,2.4197-0.6832,3.6129-0.93354,1.713,0.0847,3.1673-1.0581,4.8489-0.97949,0.78603-0.60946,1.6886-0.41235,2.5542-0.57802,0.93112-0.17774,1.9384-0.66389,2.8275-0.99158,0.97948-0.0485,1.8949-0.51516,2.8466-0.66751,0.26968-0.0485,0.55387,0.0485,0.82111-0.002,0.682-0.14764,1.3106-0.47888,1.9786-0.6772,1.173-0.50424,2.4747-0.56108,3.6759-0.9686,2.3534-0.79931-0.12698-0.28659,1.8835-0.6397,0.96863-0.20322,1.827-0.8356,2.7467-1.1331,0.20908-0.0727,0.44501,0.023,0.66026-0.023,0.51755-0.10884,1.1318-0.43533,1.5998-0.65783,1.4833-0.13667,2.7316-1.598,4.2415-1.5506,1.5194-0.83561,2.9797-1.8168,4.6127-2.4311,0.85615-1.1137,2.4417-0.98915,3.505-1.7511,0.35191-0.25269,0.6373-0.5877,0.95652-0.88156,1.5281-0.74369,2.7939-1.8333,4.0655-2.9379,1.3296-0.9541,2.3643-2.227,3.5361-3.3556,1.1657-1.098,2.0757-2.4092,3.0386-3.6781,0.94201-1.1162,1.8482-2.1984,2.7813-3.3148,0.57197-0.92631,2.6556-3.4771-0.68324,1.0049-0.20909,0.28173,0.42687-0.55988,0.59497-0.86704,0.21036-0.38333,0.32648-0.81263,0.53448-1.1972,0.93354-1.3655,1.4713-2.9345,2.0475-4.471,0.96498-1.4796,1.2159-3.2349,1.9661-4.8076,0.45225-1.6407,0.80293-3.2711,1.3232-4.9084,0.37606-1.7274,0.82349-3.435,1.2183-5.1574,0.63245-1.5874,0.84043-3.2653,1.2244-4.9201,0.66144-1.6645,0.73763-3.4345,1.3144-5.1276,0.45952-1.6584,0.76548-3.3482,1.2481-4.9994,0.22133-1.6583,0.93356-3.2661,1.0484-4.9247,0.28781-1.0496,0.12084-2.1866,0.30231-3.2419,0.37002-1.3093,0.23944-0.68444,0.42323-1.8667,0.12344-1.1222,0.4825-2.2298,0.5224-3.3618,0.0966-2.6513-0.41961,1.975,0.023-1.501-0.19353-1.0508,0.54657-2.0369,0.6143-3.0258,0.0127-0.18869-0.22261-0.32043-0.25517-0.50665-0.12084-0.67116,0.16574-1.3899,0.32651-2.0086,0.002-1.8225-0.10884-3.6136,0.0846-5.4285-0.601-1.0472-0.0127-2.316-0.34101-3.3858-0.74005-2.4137-0.0724,1.921-0.47403-1.3597,0.50789-1.0581-0.3386-1.5189-0.48733-2.4043-0.0605-0.35553,0.0485-0.72193,0.0362-1.0823-0.023-0.83437-0.0966-0.91056-0.33013-1.6674-0.33861-1.5598-0.74733-3.1132-1.275-4.6334-0.33256-1.5458-1.0605-3.0713-1.2008-4.637-0.1354-0.17288-0.36038-0.30354-0.4051-0.51877-0.0727-0.35916,0.10884-0.73524,0.0605-1.1004-0.023-0.24427-0.21292-0.44862-0.25637-0.68926-0.0605-0.31562,0.0485-0.65542-0.0485-0.96135-0.13055-0.42084-0.53571-0.70138-0.77029-1.0738-0.0229-0.30836,0.023-0.63-0.0605-0.92508-0.0605-0.20679-0.30837-0.32043-0.39544-0.51997-0.40388-0.92387-0.51271-2.1642-0.70739-3.1516-0.78484-0.77996-0.45348-1.9842-0.9251-2.8682-0.69411-1.3001-0.35189,0.62395-0.50909-1.379-0.0846-0.98799-0.93958-1.6249-1.2334-2.5049-0.14024-0.41961-0.21876-1.2676-0.27086-1.6926-0.16702-0.12825-0.37489-0.21775-0.50185-0.38574-0.25636-0.3398-0.364-1.0255-0.50427-1.4006-0.24657-0.65905-0.59373-1.3076-0.88032-1.9517-0.0966-0.22618-0.21648-0.44138-0.27572-0.6772-0.0727-0.29624-0.0127-0.62034-0.12208-0.90815-0.0847-0.21876-0.29384-0.36157-0.40992-0.56349-0.12927-0.22745-0.17773-0.49822-0.32167-0.71589-0.26603-0.40509-0.63848-0.7328-0.91178-1.1331-0.43654-0.96258-0.64211-2.1064-1.3032-2.9616-0.96378-1.247-0.27088,0.43535-0.83684-1.3851-1.5401-3.4969,0.79935,1.567-0.88274-1.3566-0.15248-0.26483-0.12344-0.61189-0.289-0.86824-0.13413-0.20908-0.4547-0.25759-0.57561-0.47405-0.28054-1.2182-0.0605-0.66386-0.64331-1.6761-0.24429-0.12083-0.57442-0.13412-0.73404-0.35431-0.1994-0.27449-0.12084-0.67232-0.24071-0.98915-0.66024-1.6982-0.13311,0.12344-1.0049-1.276-1.8706-3.0046,1.1367,0.95532-0.79569-1.4994-0.87066-0.4462-0.79689-1.3982-1.2575-2.1094-0.27812-0.42926-1.3118-1.4001-1.7064-1.783-0.20552-0.19226-0.41234-0.38333-0.61791-0.57561-0.24556-0.13897-0.52725-0.22847-0.73644-0.41718-0.21648-0.19457-0.29385-0.51394-0.5103-0.70863-0.2068-0.18511-0.52725-0.21036-0.72797-0.40147-0.21037-0.20068-0.28054-0.51151-0.46314-0.73765-0.16931-0.21038-0.39059-0.37367-0.5853-0.55989-0.33616-0.60944-1.3229-1.2761-1.7158-1.7172-0.83317-0.93595-0.39663-1.0013-1.7191-1.7578-1.5813-0.69171-2.6509-2.0062-3.9255-3.1058-0.30957-0.0723-0.65782-0.0485-0.9287-0.22005-0.51153-0.31805-1.213-1.5384-1.878-1.9206-1.7733-1.0194-0.023,0.57319-1.4622-0.89485-1.2316-1.1028-2.7421-1.7914-4.0639-2.8282-0.243-0.12571-0.54174-0.17901-0.72919-0.37848-0.21037-0.22362-0.15733-0.64576-0.4051-0.82955-0.24071-0.17773-0.62638,0.0127-0.89121-0.12826-0.24071-0.12928-0.27935-0.50666-0.5212-0.63365-1.789-0.93354-0.12083,0.87066-1.3904-0.74127-1.0279-0.3253-2.2269-1.7921-3.0706-2.2184-0.23689-0.12084-0.51636-0.12084-0.77514-0.18027-0.29867-1.233-1.2997-0.41114-2.033-1.1101-0.97951-0.93354,0.0362-1.0532-2.0337-1.0702-0.32891-1.6798-2.1434-1.5416-3.2692-2.3836-0.58889-0.48368-1.1851-0.73885-1.665-0.14764-0.33376-2.747,2.307-3.3577,1.9671-1.9688-0.20323,0.83195-0.51516,0.50304-0.0605,0.82713,0.19226,0.32407,0.20068,0.71828,0.39664,1.0412,0.13055,0.21649,0.48733,0.26845,0.5599,0.51029,0.0724,0.2323-0.023,0.4837-0.0362,0.72556,0.41475,0.38818,0.30109,1.1016,0.52843,1.535,0.41962,0.79932,0.72073-0.10884,0.81263,1.534,0.0846,0.18996,0.17058,0.37972,0.25637,0.56956,0.13539,0.13182,0.32286,0.2249,0.40509,0.39422,0.10885,0.22489,0.023,0.5103,0.1354,0.73523,0.0847,0.17415,0.34342,0.22975,0.40391,0.41356,0.54899,1.6817-0.50669,0.30594,0.41718,1.3444,0.98918,0.91296,0.55626,0.67356,0.85735,1.7749,0.30597,1.1186,0.71106,0.01,1.0146,1.6337,0.72312,1.2328,1.1633,2.6312,1.4564,4.0428,1.0085,1.15-0.17288-0.37247,0.52602,1.3194,0.0726,0.18996,0.34947,0.25636,0.42203,0.44862,0.10884,0.27692-0.0485,0.62276,0.0846,0.88639,0.0966,0.18513,0.35793,0.21292,0.53691,0.32045,0.0605,0.25515,0.12208,0.5103,0.18384,0.76545,0.31318,1.4858,1.1766,2.815,1.2737,4.3548,0.0605,0.25879,0.10885,0.51879,0.1632,0.77754,0.15351,0.13897,0.38213,0.22491,0.45952,0.41722,0.21521,0.53086,0.0605,1.1548,0.22745,1.7044,0.0727,0.22618,0.18257,0.43413,0.27449,0.65058,0.0605,0.24913,0.12928,0.49823,0.19354,0.74855,0.35553,1.5367,0.82229,3.0512,1.2355,4.5916-0.0966,1.1403,0.52602,2.141,0.74005,3.2238,0.10884,0.58044,0.12826,1.1766,0.23689,1.7575,0.007,0.32771,0.0127,0.65543,0.023,0.98314,0.13056,0.17773,0.36762,0.3144,0.3918,0.53448,0.0485,0.41841-0.2504,0.82833-0.20196,1.2469,0.023,0.22489,0.37125,0.31801,0.40995,0.54052,0.12698,0.74006-0.12084,1.4985-0.13412,2.2496,0.17415,0.13897,0.46797,0.20195,0.52359,0.41838,0.0966,0.38213-0.0966,0.78362-0.12084,1.1778-0.0485,1.1331-0.0846,2.5856,0.41961,3.592-0.12571,2.0341-0.023,4.0821-0.12571,6.1284,0.4716,1.7312,0.33013,3.6482,0.37004,5.4547,0.0362,1.9388-0.0727,3.857-0.0846,5.7922-0.0966,1.28-0.34221,2.5375-0.40024,3.8226-0.0127,0.29871,0.0485,0.60344-0.007,0.89607-0.0846,0.45709-0.28778,0.88517-0.4317,1.3281,0.10884,0.14508,0.30717,0.25514,0.32168,0.43411,0.0362,0.4704-0.48371,1.912-0.54779,2.287-0.0485,0.2576,0.0362,0.52482,0.002,0.78482-0.0727,0.60826-0.38213,1.5646-0.54899,2.1319,0.0127,1.7183-0.64695,3.3158-0.97829,4.9836-0.25636,1.6684-1.0254,3.2009-1.3306,4.8617-0.23944,1.215-1.0363,2.2412-1.3389,3.4292-0.42082,1.6506,0.87792-1.4498-0.39784,1.3047-0.60948,1.5686-1.4282,3.0113-2.2988,4.4452-1.2194,2.5-3.0634,4.6054-4.587,6.918-0.92751,0.7449-1.7065,1.6481-2.6867,2.3461-0.55989,0.23101-0.86098,0.81019-1.3668,1.1053-0.13539,0.0846-0.32167-0.023-0.46797,0.0362-0.2527,0.0966-0.45348,0.29747-0.70381,0.39786-0.4184,0.16804-0.8755,0.21776-1.3012,0.36397-1.9036,1.0436-0.0605,0.26121-1.4865,0.41842-1.3413,0.14763-1.3269,0.58769-2.8415,0.23942-0.23459-0.5345-2.0065-0.15962-2.1234-0.20551-0.2249-0.0846-0.14508-0.49943-0.34342-0.63729-0.21165-0.14764-1.3425-0.10884-1.5342-0.10884-0.24429-0.0485-0.5127-0.023-0.73279-0.14025-0.20679-0.10884-0.29022-0.37609-0.48371-0.50909-0.36762-0.25142-1.8542-0.6022-2.0068-0.70863-0.20323-0.14153-0.25999-0.42204-0.38937-0.63365-0.364-0.30594-0.90694-0.25999-1.2883-0.5236-0.19226-0.13183-0.27815-0.38335-0.46436-0.52239-0.6385-0.47645-1.1198-0.49823-1.6546-1.1548-0.5333-0.2091-1.3747-0.54899-1.7268-1.0448-0.16089-0.22745-0.10884-0.5732-0.29507-0.78119-0.23331-0.26241-1.127-0.37969-1.411-0.43531-0.48007-0.82594-1.3191-1.4254-1.8177-2.2306-0.73402-1.1851,0.17773-0.34464-0.85373-1.1391-0.13184-0.4607-0.65423-0.72192-0.80296-1.1717-0.0966-0.30354-0.005-0.65058-0.10884-0.95412-0.0727-0.21878-0.2987-0.35672-0.39421-0.56592-1.202-2.6455,0.71103,0.87309-0.56231-1.3942-0.8356-0.74731-0.48853-1.39-0.57197-2.3695-0.0726-0.78722-0.33498-0.50424-0.52362-1.2008-0.0726-0.25517-0.0485-0.52605-0.0726-0.78965,0.37605-0.55022-0.4293-0.74733-0.42808-1.1585,0.001-0.38333,0.23332-0.73401,0.29625-1.1125,0.10884-0.65904-0.0485-1.3529-0.16931-1.9976,0.0362-0.62036,0.38454-1.1935,0.42323-1.8133,0.01-0.17899-0.12084-0.34344-0.12572-0.52239-0.0229-0.70499,0.22746-1.4244,0.27453-2.1304,0.32528-1.5598,0.66748-3.0333,1.2148-4.5296,0.60585-1.4078,1.0521-2.8828,1.6921-4.2806,0.58287-1.4177,1.3048-2.7752,2.071-4.124,0.56233-1.4157,1.3521-2.7026,2.1005-4.0271,0.58162-1.2383,1.2008-2.4593,1.7231-3.7263,0.32529-0.81746,0.88637-1.5744,1.2101-2.3867,0.0362-0.0966-0.0605-0.21292-0.0362-0.31682,0.0966-0.45829,0.53205-1.202,0.71346-1.5503,0.12207-0.25999,0.24427-0.51997,0.36639-0.77996-0.0362-0.0846-0.13795-0.17543-0.10884-0.26483,0.13414-0.3652,0.43293-0.65419,0.57442-1.0182,0.0485-0.12343-0.0605-0.27088-0.023-0.39664,0.2129-0.64332,0.58768-1.2205,0.86823-1.8372,0.023-1.3391,0.97952-2.5551,1.017-3.8737,0.75215-1.5956,0.994-3.3268,1.3956-5.021,0.23204-0.7582,0.0846-1.624,0.23102-2.3772,0.0846-0.4051,0.31443-0.7715,0.38213-1.1778,0.0362-0.21393-0.0485-0.4305-0.0725-0.64573,0.12571-0.38333,0.25142-0.76546,0.3761-1.1488-0.16932-1.2032,0.39298-2.3698,0.5127-3.5514,0.023-0.21394-0.0846-0.42324-0.12208-0.63485,0.0727-0.34826,0.1512-0.69652,0.22618-1.0448-0.0127-0.7437,0.43049-1.3731,0.55626-2.0796,0.0727-0.42926-0.16702-0.87307-0.0966-1.3033,0.37608-2.2813,0.36035-0.12344,0.3132-1.8104,0.0966-1.2573,0.48128-2.4578,0.5635-3.7205,0.0127-0.24429-0.0362-0.48854-0.0605-0.73282,0.023-0.29384,0.0362-0.58889,0.0605-0.88275,0.15352-1.7388,0.21037-3.4136,0.0485-5.1403,0.39179-1.6898-0.40026-3.3176-0.36158-4.9581-0.4474-1.4346,0.20196-3.318-1.0581-4.3342,0.0846-2.6243,0.13541,0.25142-0.23815-1.6217-0.0605-0.30352,0.0605-0.63727-0.0362-0.9287-0.0727-0.19354-0.3543-0.243-0.44378-0.42931-0.18614-1.017-0.023-0.55382-0.45227-1.3981-0.2226-0.72797-0.39299-1.5116-0.74972-2.1926-0.10884-0.20552-0.30232-0.36278-0.38939-0.57801-0.66509-1.6511,0.33979-0.13412-0.59133-1.3923-0.55987-2.1925,0.25041,0.28901-0.73038-1.2177-0.14764-0.22618-0.12928-0.52724-0.24301-0.77149-0.35189-0.76063-0.78722-0.85858-1.15-1.7319-0.97346-2.8024,0.49338,0.9529-0.7969-1.1258-0.14637-0.23587-0.0846-0.55507-0.19965-0.80779-0.34465-0.76909-0.77756-0.65904-1.1948-1.6591-0.005-0.60463-0.69895-0.6276-0.92991-1.0291-0.14764-0.25516-0.0362-0.61794-0.20553-0.85979-0.13412-0.19226-0.50908-0.12083-0.62156-0.32529-0.86099-1.5817,0.71831-0.61429-0.73643-1.3008-0.45952-2.153,0.24429,0.0727-0.78842-1.2227-0.16931-0.21165-0.14764-0.52602-0.28176-0.76184-0.56231-0.98673-0.78482-0.59978-1.069-1.9324-0.22974-0.0727-0.52963-0.023-0.68926-0.20195-0.18741-0.2091-0.0846-0.56955-0.22005-0.81383-0.10884-0.19481-0.37124-0.26845-0.49822-0.45347-0.14509-0.21164-0.14024-0.50666-0.2987-0.70861-0.27327-0.34947-0.72313-0.51512-1.0702-0.79085-0.37001-0.33256-0.35308-0.94805-0.70256-1.2925-0.15963-0.15732-0.44136-0.13539-0.60826-0.28538-0.69048-0.62033-0.22847-1.0363-1.2158-1.6657-0.0362-0.0362-0.94079-0.87185-0.96861-0.91418-0.14152-0.22006-0.10884-0.53451-0.28418-0.7304-0.1512-0.17058-0.45105-0.13412-0.61792-0.28902-1.2032-1.1064,0.53448-0.25757-1.0134-0.88033-0.76667-1.2609-2.0696-1.8508-3.2881-2.5822-0.77637-0.57801-1.4568-1.264-2.3734-1.6382-0.23459-0.0966-0.53328-0.0362-0.73281-0.19837-0.20909-0.1632-0.26484-0.45952-0.39783-0.6893-0.25168-0.0605-0.53087-0.0485-0.75579-0.17772-0.21292-0.12083-0.29266-0.40873-0.50185-0.53691-0.33256-0.2045-2.3809-0.85372-2.8294-0.9662-1.4746-0.95289,0.35188,0.0966-1.4096-0.48734-1.2521-0.41838-1.0847-1.0762-2.7424-1.144-0.81262-0.75337-1.9076-0.59978-2.868-0.96376-1.4215-0.53812,0.12927-0.18512-1.4626-0.4704-0.30232,0.007-0.60706,0.0605-0.90573,0.023-0.52604-0.0725-1.0085-0.41357-1.5181-0.53086-0.82713-0.18997-1.7728-0.22975-2.6174-0.32287-0.58166,0.0485-0.95048-0.56592-1.4843-0.63365-0.34345-0.0485-0.68444,0.15122-1.0303,0.13541-1.4255-0.0605-0.68322-0.6881-2.6258-0.32652-0.58528,0.0485-1.0932-0.32649-1.6573-0.36762-0.33253-0.023-0.66386,0.0966-0.99642,0.0846-0.93354-0.0362-1.7566-0.23587-2.7134-0.18997-0.77999-0.0966-1.6857-0.27207-2.4731-0.18869-0.34704,0.0362-0.66629,0.22261-1.0134,0.26606-0.25141,0.0362-0.50667-0.0362-0.7606-0.0485-0.30474,0.0605-0.61068,0.12084-0.91542,0.17645-0.22489-0.0846-0.43534-0.25633-0.67478-0.24658-0.62275,0.023-1.1935,0.37971-1.8108,0.46919-0.76302,0.10884-1.5314,0.12443-2.2956,0.22744-0.38574,0.17646-1.3585,0.66871-1.8276,0.71226-0.19712,0.0127-0.37851-0.1512-0.57562-0.14279-0.71346,0.023-1.6335,0.37848-2.3122,0.5889-0.93112,0.61672-2.0805,0.64453-3.0871,0.9928-1.3076,0.45104-0.30959,0.4704-1.3534,0.34464-1.4652,0.92023-3.1526,1.2719-4.5157,2.3166-1.41,0.27085-2.5327,1.2462-3.815,1.879-1.144,0.52604-2.7344,2.1683-3.827,2.4501-1.1718,0.90572-2.4948,1.4895-3.521,2.5624-1.0944,1.023-2.2732,1.7621-3.3396,2.8364-1.0436,0.66994-1.7517,1.6887-2.7194,2.4744-1.1682,1.292-4.7474,6.4616-0.31924,0.22363-0.91661,1.3623-1.6735,2.8589-2.4923,4.31-0.22846,1.3466-1.069,2.5472-1.1984,3.897-0.8126,1.5694-0.97102,3.3504-1.5926,5.0046-0.37487,1.5196-0.45829,3.0866-0.9021,4.6035,0.023,0.1994,0.10884,0.40268,0.0727,0.59978-0.0846,0.41237-0.33981,0.77634-0.4305,1.1887-0.0485,0.22848,0.023,0.46918,0.0127,0.70258-0.0605,0.93354-0.28539,1.8795-0.46919,2.7934,0.20323,0.85615-0.21648,1.6795-0.1354,2.5392,0.023,0.21036,0.18997,0.39664,0.18028,0.60825-0.15835,3.5669-0.3906-0.72917-0.20195,1.8971,0.13795,1.8252-0.73036,3.7254-0.29263,5.5172-0.0605,0.33979-0.30474,1.6844-0.25998,2.0752,0.023,0.21292,0.25397,0.37124,0.26483,0.58528,0.023,0.37243-0.14382,0.7328-0.17773,1.1052-0.0605,0.60704-0.0127,1.2188-0.023,1.8283,0.32406,1.976-0.0362-0.7461-0.0727,1.9092-0.005,0.24427,0.16319,0.46675,0.17416,0.71104,0.0362,0.9819-0.10884,2.1028-0.26846,3.0674,0.0485,0.23204,0.15835,0.46194,0.13796,0.69775-0.0362,0.40146-0.23689,0.77392-0.30354,1.1718-0.1535,0.92387,0.0362,0.69291,0.0605,1.5462,0.023,0.66992-0.0846,1.1718-0.18614,1.8375,0.0966,1.7384-0.46437,3.3739-0.75579,5.0796-0.29021,1.5465-0.55142,3.1292-1.1512,4.5741-0.56472,1.5656-1.1306,3.1199-1.7962,4.6493-0.18741,1.4838-1.0787,2.8893-1.871,4.1297,0.0362,0.0727,0.14636,0.13184,0.12443,0.21036-0.31682,1.1101-1.3517,2.0455-1.5262,3.1939-0.87912,1.3553-1.5764,2.8091-2.3262,4.2358-0.66147,1.3309-1.4276,2.607-2.2162,3.8665-0.81141,1.4104-1.6832,2.7739-2.6147,4.1081-1.7352,2.4596-3.4082,4.9884-5.2941,7.341-1.2098,1.4881-2.2762,3.0714-3.453,4.5827-0.63847,0.70377-1.0581,1.6227-1.7188,2.3048-0.0605,0.0727-0.20196,0.023-0.26242,0.0966-1.411,1.6227-0.0966,0.53933-1.1064,1.3195-1.1621,1.3678-2.2658,2.7942-3.6006,3.9924-1.0774,1.2332-2.209,2.4124-3.2773,3.6524-1.1596,1.1052-2.1114,2.3973-3.2217,3.5486-0.9009,1.1536-2.103,2.0174-3.0094,3.148-1.1137,0.99763-2.0389,2.2128-2.9206,3.4212-1.0206,1.2291-1.8814,2.6313-3.0866,3.7004-1.0726,1.0375-2.0508,2.1702-3.155,3.1809-1.075,1.0061-2.0464,2.1216-3.1103,3.1754-0.92507,1.0182-1.9568,1.9444-2.9813,2.8868-1.1899,1.2294-2.4365,2.3758-3.7047,3.5159-1.2177,1.0375-2.4159,2.0608-3.5187,3.2186-0.54899,0.37366-0.87671,0.97951-1.3817,1.3956-0.12208,0.0966-0.3132,0.0966-0.43292,0.19584-0.67113,0.57923-1.0218,1.3994-1.8351,1.8035-1.2689,1.2722-2.4319,2.639-3.7524,3.8596-1.2008,1.1682-2.4512,2.307-3.5401,3.5808-1.1693,1.1186-2.2978,2.3064-3.3758,3.5264-1.2972,1.1077-2.39,2.4229-3.6769,3.5374-1.0895,1.2044-2.3906,2.2123-3.4616,3.4297-1.1198,0.89605-2.0774,2.0124-3.2639,2.8258-1.2008,1.1282-2.5426,2.0272-3.7245,3.156-1.2968,0.73644-2.3383,1.7778-3.561,2.6259-0.72314,0.69895-1.6586,1.1077-2.4552,1.7012-1.15,0.85738-0.21878,0.46194-1.15,0.79087-0.97949,0.90453-2.2705,1.4832-3.1965,2.4052-0.96136,0.0846-0.57077,1.4053-1.1427,0.20552,1.6165-2.4463,2.1355-3.2494,4.0671-4.6322,0.0605-0.0485,0.73765-0.59616,0.78845-0.61672,0.0605-0.023,0.10884,0.12699,0.16676,0.0966,0.22134-0.14866,0.34343-0.41357,0.55506-0.57681,0.1994-0.15351,0.4728-0.179,0.70135-0.28538,0.5224-0.41722,2.0434-1.681,2.6237-1.8931,0.0846-0.0362,0.16676,0.0966,0.2504,0.14382,0.94324-0.86101,2.1834-1.2472,3.2281-1.9622,1.2269-0.60101,2.2268-1.4248,3.416-2.0869,0.19354-0.10884,0.38696-0.22745,0.58163-0.34101,0.2249-0.19584,0.42204-0.4305,0.67599-0.5889,0.12698-0.0846,0.30835-0.023,0.43533-0.10884,0.26118-0.1632,0.43774-0.44139,0.70138-0.60101,0.13667-0.0846,0.31198-0.0724,0.46798-0.10884,0.24428-0.22133,0.48733-0.44139,0.73159-0.66267,0.18741-0.46679,0.69895-0.2504,1.0013-0.45831,0.27812-0.19354,0.48492-0.47283,0.7437-0.6917,0.59494-0.50184,1.2802-0.88519,1.8916-1.3691,1.1766-0.89001,2.4411-1.6036,3.6115-2.4819,1.2703-0.6941,2.4669-1.6464,3.4795-2.6893,1.1427-0.653,2.0428-1.6439,3.074-2.4492,0.97948-0.97225,2.0868-1.7897,3.0695-2.7722,0.88517-0.53329,2.1566-2.4736,3.1026-2.5271,0.66751-0.82955,1.5338-1.3957,2.3094-2.1169,1.023-0.95169,0.26846-0.59738,1.0835-0.90575,1.2374-1.0218,2.2232-2.3088,3.4611-3.3478,1.1174-0.94442,1.9854-2.0163,3.1055-2.9788,1.0509-1.0146,1.9025-2.2554,3.0599-3.156,1.1004-1.2611,2.347-2.3447,3.5412-3.5225,1.1996-1.1669,2.3463-2.2659,3.4997-3.4706,0.87431-0.56594,1.4398-1.4823,2.1891-2.1796,0.0966-0.0966,0.2504-0.10884,0.37485-0.16805,0.21395-0.2226,0.42928-0.4462,0.64332-0.6687,0.80416-0.22975,1.202-0.96741,1.7646-1.5222,0.67113-0.66269,1.309-1.2122,1.9255-1.9538,0.0966,0.023,0.1971,0.10884,0.27934,0.0605,0.39543-0.23229,2.5228-2.4648,2.9676-2.9437,0.89483-0.34829-0.023,0.0846,1.1282-0.92389,0.13669-0.12083,0.32891-0.15835,0.47403-0.26845,0.63487-0.48248,0.9916-1.1464,1.7411-1.4584,0.81745-0.30959,1.2516-1.0654,1.8514-1.6406,1.0315-0.99038,0.32772,0.19099,1.6862-1.3869,0.12208-0.007,0.26483,0.0485,0.3652-0.023,0.27209-0.18614,0.44499-0.48853,0.69533-0.70258,0.37003-0.31804,0.61551-0.35672,0.99522-0.63364,0.59736-0.43534,0.72915-0.63365,1.2635-1.1984,1.2262-0.66389,2.2679-1.5896,3.3108-2.5028,1.1669-0.5369,2.1488-1.5226,3.2692-2.2155,0.76303-0.50306,2.4926-2.2274,3.2888-2.2011,1.2544-0.97224,2.5097-2.0791,3.9212-2.8333,1.4545-0.31563,2.4172-1.5071,3.7705-2.0576,1.5114-0.58163,2.846-1.4934,4.2865-2.2597,1.527-0.80658,3.2142-1.213,4.7322-1.9936,0.83802,0.10884,1.5686-0.70379,2.3246-0.79931,0.18742-0.023,0.33616,0.26241,0.52117,0.22491,2.2936-0.46192-0.005-0.65783,1.5482-0.44741,0.9529-1.2188,1.3233-0.66146,2.4509-0.94323,0.30836-0.0725,0.57319-0.28538,0.88034-0.36397,1.9257-0.48733-1,0.74609,1.4924-0.42204,0.29263-0.14024,0.58528-0.28056,0.87913-0.4196,0.17059,0.0846,0.32771,0.28781,0.5127,0.24657,0.38213-0.0846,0.64939-0.44863,1.0134-0.59131,0.63367-0.24913,1.6028-0.14764,2.2772-0.2527,1.5926-0.36519,3.2071-0.60583,4.8153-0.94924,1.0605-0.46679,2.224-0.33256,3.3326-0.49096,1.8581-0.26483,0.0362-0.22491,1.7216-0.20324,1.4217,0.34103,1.0762-0.84888,2.5745-0.15833,0,0-1.9295,3.2085-1.9295,3.2085-1.1694-0.25876-1.4741,0.24913-2.6212,0.25516-1.3592-0.47766-1.3391,0.15835-2.5845,0.3664-0.22746,0.0362-0.44501-0.15835-0.67476-0.14764-0.58286,0.023-1.1137,0.41117-1.7092,0.3882-1.6446,0.0724-3.1218,1.0738-4.8103,0.9444-0.79931,0.18028-1.6202,0.41117-2.4254,0.55264-0.22847,0.0362-0.47764-0.0362-0.69411,0.0485-0.35672,0.1354-0.61794,0.47645-0.98432,0.5865-0.18385,0.0605-0.37487-0.0846-0.56231-0.12343-0.27814,0.12084-0.54294,0.28056-0.8344,0.36157-0.23331,0.0605-1.1633,0.0362-1.3799,0.13667-0.37848,0.16575-0.65178,0.52844-1.0351,0.68202-0.19226,0.0724-0.41354-0.0127-0.62034-0.0127-0.27573,0.12084-0.55021,0.23586-0.82591,0.35311-0.76184,0.14637-1.491,0.37124-2.242,0.53448-0.2152,0.0485-0.46314-0.0485-0.65904,0.0605-0.41476,0.21521-0.69049,0.64816-1.1065,0.85858-0.19226,0.0966-0.4305,0.023-0.64693,0.023-1.542,0.47644-3.0322,1.1113-4.5238,1.7173-0.27933,0.18615-0.55868,0.37244-0.83799,0.55869-0.16931,0.00035-0.35069-0.0605-0.50789,0.001-1.1246,0.45346-1.8919,1.6344-3.0702,2.0072-1.3884,0.29504-2.393,1.4804-3.7166,1.971-0.45224,0.37244-0.81867,0.74367-1.36,0.97465-0.15121,0.0605-0.33499,0.023-0.47886,0.10884-0.71104,0.39301-1.295,1.0847-1.9514,1.5536-1.211,0.59856-2.1635,1.5839-3.3211,2.2579-1.2649,0.48733-2.0631,1.8129-3.327,2.3683-1.1125,0.84888-2.109,1.648-3.2463,2.4121-0.34462,0.34464-0.73038,0.80051-1.1838,1.0351-0.10884,0.0605-0.26848,0.01-0.37126,0.0847-0.69895,0.50912-1.318,1.2147-1.9541,1.7942-1.0472,0.46314-2.1886,1.96-3.2866,2.5322-0.47645,0.35915-0.81866,0.87794-1.2974,1.2336-0.0727,0.0605-0.21291-0.10884-0.28661-0.0485-0.66628,0.56472-1.0315,1.4493-1.9,1.7959-1.1355,0.8924-2.0278,2.1215-3.2412,2.8796-1.1282,1.1717-2.3702,2.2261-3.5945,3.2948-1.2044,1.0617-2.303,2.2212-3.3978,3.3944-1.1367,0.99038-2.2574,1.981-3.3026,3.0827-1.173,1.0484-2.188,2.2521-3.4018,3.2584-1.1222,1.1705-2.2776,2.2951-3.2709,3.591-1.0182,0.9009-1.9469,1.8704-2.9939,2.7237-1.0158,1.1972-2.2635,2.1667-3.4129,3.2335-1.2808,0.82471,0.67477-0.50547-1.3816,1.4455-0.24071,0.22745-0.91057-0.33618-0.86222,0.49458-0.26603,0.27452-0.44259,0.63971-0.74971,0.86704-0.0727,0.0485-0.14637-0.0966-0.21879-0.15121-0.16574,0.20194-0.98311,1.3119-1.4089,1.526-0.0846,0.0485-0.19712-0.13055-0.2733-0.0725-0.54296,0.39784-0.90333,1.0557-1.5458,1.3441-0.79932,0.71827-1.474,1.6239-2.2805,2.3158-0.19354,0.16676-0.56957-0.002-0.71106,0.28658-1.092,1.0291-2.1319,2.1057-3.362,2.9657-0.62882,0.43773-1.1536,1.0061-1.7654,1.4426-0.12084,0.0846-0.29627,0.023-0.40752,0.10884-1.6212,1.252-0.12826,0.51997-1.2771,1.0291-1.0472,0.53328-1.667,1.4229-2.5758,1.9822-0.10884,0.0605-0.27087-0.0605-0.37848,0.0127-0.29385,0.18384-0.5091,0.46917-0.76425,0.70378-1.294,0.46677-2.326,1.6678-3.5413,2.3242-0.43653,0.30716-0.83317,0.67717-1.2953,0.94444-0.14025,0.0846-0.33014,0.0605-0.46437,0.1512-0.61549,0.41841-1.0847,1.0109-1.8222,1.2651-1.1379,0.32771-1.952,1.6863-3.2744,1.8148-1.1198,0.77271-2.2437,1.4724-3.3742,2.2278-0.92026,0.58408-1.8291,1.0376-2.7645,1.5873-0.16676,0.14024-0.33375,0.28053-0.50061,0.4208-0.0966,0.0127-0.21292-0.01-0.29266,0.0485-0.20425,0.14637-0.32045,0.39664-0.52725,0.53933-0.18996,0.13311-0.91538,0.0605-0.99519,0.55384-0.12571,0.10884-0.2504,0.2068-0.37608,0.30958-0.0362-0.0485-0.0605-0.17416-0.10884-0.13795-1.0363,0.80901-2.6962,3.6777,0.786-1.7209-0.19099-0.023-0.38574-0.0966-0.57438-0.0605-0.0605,0.0127-0.0846,0.22847-0.0362,0.18512,0.43292-0.39906,0.51997-0.70137,1.0339-1.0206,0.48369,0.24912,1.5246-1.2586,1.9521-1.4857,0.10884-0.0605,0.24912,0.023,0.37366,0.0362,0.23204-0.20068,0.46556-0.40025,0.69773-0.60099,1.266-0.87912,2.5254-1.7413,3.715-2.7248,1.3562-0.57199,2.316-1.8625,3.5626-2.6281,1.3038-0.98798,2.5632-2.0554,3.7218-3.2086,0.75095-0.16804,2.5842-2.249,3.2526-2.8652,1.1984-0.98917,2.1868-2.1942,3.3536-3.2131,1.2378-1.1802,2.478-2.3548,3.684-3.5669,1.1234-1.3604,2.4923-2.4824,3.5621-3.9123,0.98194-0.3894,2.3752-2.6331,3.4139-3.3048,1.0798-1.2206,2.3254-2.3071,3.5271-3.4142,1.1911-1.3882,2.5397-2.4856,3.8398-3.7551,1.1548-1.1415,2.5112-2.0111,3.5577-3.2816,1.1198-1.1089,2.2713-2.1889,3.5108-3.1491,0.55503-0.5478,1.0315-1.296,1.658-1.7564,0.0727-0.0605,0.21292-0.002,0.28296-0.0724,0.46799-0.45712,0.73885-1.0908,1.2556-1.5093,1.1464-0.75822,1.9653-1.9624,2.9654-2.8922,1.1222-1.098,2.1982-2.2255,3.2487-3.3885,0.75459-0.65663,1.1355-1.4464,1.7569-2.2197,0.33618-0.41838,1.1198-0.59009,1.1923-1.2753,0.90573-1.2236,1.8948-2.3481,2.9606-3.4287,1.0859-1.1996,2.2652-2.3014,3.2336-3.605,1.127-0.8912,1.796-2.2294,2.9743-3.0667,1.0496-1.3452,2.1665-2.6497,3.3962-3.8419,1.0726-0.94078,1.8682-2.1371,2.8917-3.114,0.0727-0.0727,0.20195-0.0727,0.30354-0.10884,1.0871-1.5066,2.2996-2.9197,3.407-4.4167,1.1681-1.5674,2.3486-3.1235,3.5125-4.694,1.0424-1.1524,4.3347-5.9994,0.47282-0.42081-0.18614,0.26964,0.36642-0.54297,0.55021-0.81385,0.96015-1.3019,1.7996-2.7096,2.6268-4.0896,0.87308-1.2606,1.4833-2.6833,2.3365-3.9626,0.64574-1.2878,1.3475-2.5405,1.9576-3.8445,0.33496-1.3848,1.6199-2.4782,1.9062-3.9129,0.72674-1.4053,1.377-2.7728,2.0022-4.2398,0.29022-1.4285,0.98313-2.6854,1.3263-4.104,0.55141-1.4549,1.2275-2.9824,1.1875-4.5589,0.27208-0.91781,0.5889-1.8273,0.72677-2.7783,0.0362-0.26723,0.0485-0.53691,0.0727-0.80656-0.023-0.21648-0.0846-0.43534-0.0605-0.65058,0.0485-0.37003,0.19837-0.72072,0.29747-1.0811,0.0727-1.7248,0.18129-3.4297,0.23204-5.1484,0.14151-1.1319,0.0966-1.7203,0.0485-2.8119-0.023-0.58893,0.10884-1.4705,0.18384-2.0401-0.01-0.23331-0.13667-0.44621-0.20552-0.66994,0.10884-0.96498,0.0485-1.9117,0.14509-2.8754,0.0727-0.75821,0.24785-1.1935,0.13541-1.9426-0.0362-0.22134-0.14281-0.42444-0.21395-0.63607,0.12084-1.3135,0.44139-2.6436,0.41114-3.965-0.005-0.22974-0.14865-0.44138-0.15833-0.67116-0.0127-0.31681,0.0605-0.63122,0.0846-0.94805,0.0847-1.2655-0.0001-0.60824,0.25879-1.9696,0.0362-0.50063-0.19711-1.0061-0.10884-1.5012,0.0727-0.43532,0.34341-0.8247,0.40267-1.2623,0.023-0.20909-0.0966-0.41237-0.14637-0.61794,0.0727-0.34584,0.15351-0.69049,0.22976-1.0363-0.0362-0.21036-0.12826-0.4196-0.10884-0.63365,0.0362-0.3543,0.19481-0.68686,0.25756-1.0363,0.14867-0.81866,0.0727-1.6774,0.32048-2.4831,0.14279-2.6333-0.15249,1.7771,0.32768-1.6781,0.023-0.17645-0.10884-0.35312-0.0847-0.52844,0.27692-1.5378,0.43775-0.45831,0.76788-2.0227,0.0362-0.14508-0.0727-0.289-0.10884-0.43411,0.5369-1.4832,0.92022-3.0494,1.1923-4.599,0.12571-0.29627,0.25041-0.59134,0.37606-0.88758,0.0362-0.18258,0.023-0.37609,0.0966-0.5478,0.41722-1.0496,1.0242-2.0383,1.3145-3.1481,0.69773-1.3001,1.1052-2.7404,2.0202-3.9169,1.4526-2.0887,2.8185-4.2065,4.5678-6.0505,0.93354-1.1149,1.9757-2.1413,3.0841-3.0786,1.0097-0.92751,2.1317-1.744,3.2224-2.5703,1.1041-0.99523,2.4351-1.5526,3.5417-2.5436,0.78722-0.61671,1.6468-0.77995,2.4007-1.3321,0.30354-0.22261,0.52603-0.54657,0.83559-0.76061,0.14866-0.10884,0.34345-0.12084,0.51393-0.17645,1.1863-0.89486,2.6709-1.4199,3.9894-2.1345,2.2491-0.85493-1.7223,0.72919,1.5579-0.9831,0.16702-0.0846,0.38213,0.0127,0.56231-0.0362,0.77876-0.2152,1.424-0.8102,2.2386-0.93596,1.2735-0.0846-0.0846,0.10884,1.6046-0.75579,0.6953-0.35672,0.67597-0.0229,1.3633-0.21648,0.29507-0.0846,0.55506-0.25999,0.84287-0.36519,0.26118-0.0966,0.53325-0.15708,0.80051-0.23587,1.5295-0.01-0.32891,0.0966,1.5587-0.40391,0.21522-0.0605,0.45348,0.0485,0.66509-0.01,0.34103-0.10884,0.60828-0.40025,0.95655-0.47886,0.21036-0.0485,0.42203,0.12698,0.63726,0.12084,0.2745-0.0127,0.5357-0.12084,0.80415-0.17901,0.59013-0.17288,1.1488-0.47162,1.7568-0.56352,0.23944-0.0362,0.48128,0.0846,0.72192,0.0726,0.80658-0.0605,1.6743-0.26,2.515-0.2226,2.8116-0.5599-0.66266,0.0127,1.6535-0.0485,0.3265-0.007,0.63728-0.19838,0.96378-0.18028,0.24683,0.0127,0.44381,0.26239,0.69168,0.26845,0.66751,0.023,1.2852-0.47645,1.9736-0.33498,1.5319,0.56596,3.6201,0.54175,5.2498,0.69534,2.5501,0.58889-1.2885-0.16447,1.9578-0.0966,0.54659,0.0127,0.9916,0.51635,1.5352,0.57561,0.32648,0.0362,0.66508-0.12927,0.98553-0.0605,0.25998,0.0605,0.44622,0.29263,0.66993,0.43895,0.32652-0.0127,0.65543-0.0846,0.98071-0.0485,0.27208,0.0362,0.50789,0.22262,0.77997,0.26242,0.3144,0.0485,0.65541-0.12699,0.95169-0.0127,0.25141,0.0966,0.29867,0.49578,0.55019,0.59494,0.51757,0.2045,1.1923-0.30836,1.6469,0.25999,0.27812,0.0362,0.55504,0.0966,0.8356,0.0966,0.33253-0.01,0.66024-0.20678,0.98553-0.1438,0.24428,0.0485,0.38456,0.31802,0.59496,0.44982,0.68927,0.4293,1.2918,0.85858,2.1377,0.76306,1.5001,0.0725,0.99404,0.57922,2.0911,0.83922,0.28174,0.0605,0.58889-0.0485,0.86702,0.023,0.4704,0.12929,0.7582,0.67479,1.2917,0.68445,1.3156,0.55141,2.8136,1.1137,3.8009,2.1449,1.0666,0.19352,1.7364,0.71345,2.5539,1.4051,0.18741,0.15834,0.34221,0.37123,0.56834,0.46798,0.24912,0.10884,0.53571,0.0846,0.80293,0.12207,0.17543,0.16803,0.37005,0.31802,0.52725,0.50304,0.16803,0.1994,0.23101,0.49338,0.44258,0.64577,0.2068,0.14993,0.51393,0.0846,0.73766,0.2068,0.39906,0.2152,1.3328,0.96496,1.5344,1.3958,0.33133,0.30112,0.76303,0.50184,1.0327,0.8598,0.15605,0.20553,0.12084,0.53326,0.30955,0.70862,0.17543,0.16318,0.47888,0.0966,0.68445,0.2152,0.14764,0.0846,0.81504,0.86704,0.92507,0.99403,0.32893,0.3144,0.60101,0.68444,0.92991,0.99762,0.15835,0.14994,0.42446,0.19583,0.52605,0.38938,0.36277,0.6905,0.0605,1.6179,0.9033,2.1022,1.6178,0.96739-0.44743-0.43655,0.84648,1.1028,0.14764,0.17543,0.44378,0.15249,0.62034,0.29867,0.51757,0.42807,0.80658,1.2081,1.2261,1.7175,0.49218,0.57199,0.65181,1.3002,1.1512,1.8478,0.15122,0.16574,0.39664,0.22617,0.54173,0.39663,0.0966,0.12084,0.6373,1.2332,0.69895,1.3585,1.3286,0.71951-0.0362-0.2045,0.86099,1.1524,0.12699,0.19099,0.42565,0.21395,0.55869,0.40026,0.49215,0.68687,0.10884,1.6561,1.0871,1.9656,1.0218,0.93234,1.5758,2.5525,2.0039,3.8464,0.29989,0.47402,1.0811,1.1246,1.2472,1.6411,0.0966,0.31317-0.0966,0.69652,0.0724,0.98552,0.10884,0.1994,0.416,0.18513,0.62399,0.27692,0.0605,0.29023,0.12084,0.57923,0.18027,0.86947,0.97465,0.77149,0.19839-0.0362,0.64332,1.3512,0.54416,1.7003,0.13794-0.41115,0.88035,1.04,0.25142,0.49096,0.023,1.1439,0.38936,1.6077,0.0846,0.22262,0.14636,0.45713,0.25879,0.66874,0.0966,0.19099,0.32649,0.31802,0.37728,0.52964,0.0727,0.32046-0.0846,0.66873-0.01,0.98918,0.18512,0.75216,1.1391,1.0472,0.71828,2.0472,0.51515,0.99522,0.50427,1.8996,0.68567,2.9844,0.0362,0.24912,0.16319,0.49094,0.1535,0.7437-0.0127,0.40629-0.14994,0.80053-0.2249,1.1996,0.78238,1.0678,0.63,3.2398,0.75698,4.5583,0.26118,0.9021-0.01,1.6308,0.0485,2.5498,0.0605,0.87066,0.21776,1.7135-0.0485,2.5979,0.0605,0.84041,0.0605,1.7162-0.10884,2.5468-0.0846,0.39421-0.28903,0.76061-0.33013,1.1597-0.0485,0.47645,0.51997,0.93111,0.0727,1.4354-0.19583,0.46921-0.4716,0.913-0.58648,1.4078-0.0485,0.19481,0.12084,0.38937,0.12084,0.59013,0.005,0.69773-0.22262,1.0182-0.26242,1.7142-0.0127,0.21037,0.10884,0.42203,0.0605,0.6276-0.0966,0.44259-0.32163,0.84647-0.48368,1.2696,0.50061,1.1415-0.34707,1.6214-0.35793,2.746-0.001,0.179,0.24173,0.30474,0.23714,0.48369-0.023,0.68083-0.50911,1.2914-0.46074,1.989-0.0605,0.27692-0.32529,1.5463-0.35915,1.8413-0.0605,0.50669,0.0727,1.0315-0.0362,1.5286-0.0966,0.40992-0.31562,0.78117-0.4184,1.1887-0.0605,0.25397-0.0485,0.52239-0.0847,0.78239,0.18257,1.1428,0.0966,0.01-0.31682,1.6747-0.0485,0.21037,0.0127,0.43777-0.023,0.65058-0.17161,0.81624-0.40149,1.6259-0.71347,2.3959-0.51273,1.4901-0.83682,3.0452-1.5492,4.4726-0.22847,1.4932-0.81625,2.8201-1.5296,4.14-0.12344,0.35674-0.13056,0.74972-0.27211,1.1004-0.41596,1.0218-1.0702,1.9746-1.4509,3.0184-0.16931,0.84888,0.0362,0.0605-0.59736,1.2826-0.45832,0.88396-0.73401,1.8701-1.3403,2.681-0.51759,1.3636-1.3026,2.5892-1.9666,3.8863-0.59012,1.3911-1.4221,2.668-2.0164,4.05-0.36035,1.3791-1.3963,2.6018-1.4935,3.9961-0.57319,1.5212-1.2493,3.0095-1.3963,4.6408,0.32166,1.3612-0.67114,2.8161-0.39181,4.1999-0.0966,0.33861-0.25877,0.66389-0.29868,1.0146-0.023,0.2045,0.10884,0.40149,0.12083,0.60706,0.0605,0.94927,0.13795,1.8633,0.23229,2.8281,0.01,0.70499-0.0127,1.6686,0.24913,2.3409,0.0846,0.20322,0.289,0.33376,0.3809,0.53086,0.17059,0.36519,0.29508,1.1935,0.36519,1.5706,0.37971,1.4775,0.96258,2.597,2.0012,3.7345,0.14994,0.16931,0.34101,0.30958,0.44864,0.50789,0.13183,0.243,0.0605,0.59254,0.25269,0.78965,0.17289,0.17543,0.54657,0.007,0.71224,0.18869,0.62398,0.68807-0.16932,1.5917,1.4098,1.5307,0.19839,0.27933,0.98072,1.8262,1.1706,1.9204,0.86341,0.42928,0.77391-0.66389,1.6558,1.1089,0.28296-0.0127,0.60098-0.17771,0.85008-0.0362,0.2226,0.12083,0.1632,0.49336,0.33136,0.68202,0.14994,0.16803,0.39903,0.2129,0.58163,0.34464,0.56956,0.41114,0.98313,0.93354,1.7429,1.0061,2.399,0.73885-1.0544-0.51392,0.9916,0.94082,0.21522,0.15222,0.53087-0.002,0.78842,0.0485,0.22491,0.0485,0.45591,0.10884,0.64455,0.24427,0.19353,0.13413,0.25141,0.43655,0.46797,0.52602,0.24658,0.0966,0.53448,0.00038,0.80174,0.00048,0.22975,0.0605,0.45951,0.12084,0.68926,0.17543,0.1971,0.0966,0.38093,0.22006,0.59134,0.27693,0.2249,0.0605,0.47887-0.0127,0.69531,0.0725,0.18997,0.0726,0.2733,0.33375,0.46798,0.39663,0.12084,0.0362,1.3714-0.0485,1.4794-0.0485,1.3568-0.0846,2.7379-0.10884,4.0523-0.46556,0.66631-0.17544,1.9297-0.55384,2.4708-0.96861,0.31319-0.24071,0.52602-0.59374,0.83438-0.83922,0.12084-0.0966,0.2878-0.10884,0.43169-0.16931,0.43655-0.38936,0.73885-0.92627,1.2157-1.2652,0.0605-0.0485,0.0605,0.25879,0.12698,0.2068,0.67476-0.5635,1.0061-1.5533,1.6705-2.1424,1.0097-1.226,0.53209-0.6772-1.278,2.0218-0.12084,0.17416,0.23816-0.34584,0.34584-0.52602,0.38093-0.63848,0.8501-1.2141,1.1645-1.8909,0.73887-1.2487,1.4248-2.5442,1.8831-3.9308,0.81259-1.5726,1.3419-3.1994,1.9141-4.8653,0.22006-1.7919,1.1996-3.4736,1.6641-5.2079-0.21291-1.0049-0.0846,0.0127,0.34223-1.5735,0.0966-0.36277,0.007-1.069,0.0966-1.4357,0.0966-0.3797,0.26484-0.73524,0.39786-1.1016,0.0727-0.30112,0.13668-0.60342,0.20552-0.90452,0.43292-1.8961,0.0727-3.8622,0.84888-5.7028,0.25637-1.9254,0.1887-3.8697,0.63125-5.7696-0.0485-0.52604-0.19225-1.046-0.17186-1.5738,0.0485-1.3916,0.41117-2.77,0.25637-4.1772-0.36397-2.6111,0.0966,1.1536-0.0362-1.936-0.10884-2.7344-0.31925,1.5236-0.14993-1.7722,0.023-0.36277,0.12928-0.72435,0.0966-1.0859-0.023-0.23586-0.18512-0.43653-0.27691-0.65419,0.0846-1.8995,0.0605-3.7754-0.26603-5.6502,0.0846-0.75821,0.19965-1.3707,0.0846-2.1273-0.0362-0.26-0.22489-0.49219-0.22489-0.7546,0.00038-0.43896,0.29507-0.86339,0.22616-1.2962-0.0362-0.21878-0.33497-0.28903-0.50306-0.43412,0.0966-0.46558,0.19966-0.93114,0.29991-1.396-0.12207-0.1994-0.31442-0.37125-0.3676-0.59981-0.0727-0.33375-0.002-0.68563-0.007-1.0279-0.0127-1.1839-0.23944-2.3378-0.42808-3.5066-0.41115-1.5504-0.63003-3.1528-1.2401-4.6552-0.002-0.33981-0.005-0.6796-0.007-1.0194-0.12084-0.20323-0.30956-0.37728-0.34461-0.60825-0.0605-0.37247,0.12343-0.75217,0.0846-1.1258-0.0362-0.26845-0.57438-1.769-0.77149-2.0462-0.0846-0.38091-0.22005-1.1101-0.38333-1.4778-0.0846-0.19837-0.30595-0.33979-0.34344-0.55506-0.0605-0.35068,0.16217-0.72435,0.0605-1.0665-0.0605-0.1994-0.32045-0.26241-0.48126-0.39301-0.023-0.30112-0.0485-0.60101-0.0846-0.9021-0.26602-2.6576,0.2068,0.49942-0.47644-1.3636-0.0966-0.26968-0.0362-0.5744-0.10884-0.85375-0.15478-0.6675-0.53087-1.2882-0.88032-1.8653-0.33983-0.97103-0.22491-0.44136-0.28904-1.6024-0.0605-0.20553-0.28538-0.32649-0.37124-0.5224-0.29989-0.68444-0.13794-1.4046-0.95047-1.755-0.00035-0.32891,0.10884-0.67477-0.00097-0.98675-0.0605-0.19456-0.37123-0.22363-0.46435-0.40631-0.12084-0.23586-0.0485-0.5345-0.14637-0.7836-0.0727-0.19838-0.26965-0.33618-0.34465-0.53448-0.14279-0.3785-0.20195-1.2854-0.23815-1.6621-1.2495-0.7848-0.55868-1.4909-1.1827-2.357-0.12084-0.15962-0.37729-0.1438-0.52117-0.27933-0.15122-0.14025-0.22363-0.34704-0.33618-0.51997-0.64939-1.1415-0.85011-2.4195-1.6013-3.4785-0.78842-1.0424,0.0605,0.22848-0.46917-1.1379-0.0605-0.16447-0.24785-0.26483-0.31078-0.43051-0.0846-0.20908-0.007-0.46435-0.10884-0.66507-0.0727-0.13414-0.27692-0.14509-0.35796-0.27088-0.0966-0.1535-0.0966-0.35189-0.1512-0.52724-0.1222-0.67598-0.42084-0.66992-0.55749-1.232-0.0362-0.17161,0.0485-0.37247-0.0362-0.52844-0.0605-0.10884-0.21648-0.0966-0.32406-0.14764-0.0362-0.12084-0.0727-0.23586-0.10884-0.3543-0.31805-1.9822,0.60099-3.8766,2.3602-5.185,0.0966,0.49822-0.0605,0.0727,0.39543,0.023,0.0846-0.007,0.12571,0.17772,0.21394,0.16319,0.21164-0.0362,0.35672-0.33256,0.56956-0.2999,0.30232,0.0485,0.0727,0.84407,0.60464,0.68927,0.25397-0.0485,0.52239-0.25269,0.76182-0.15606,0.21878,0.0846,0.1813,0.45468,0.35793,0.61068,0.63365,0.56107,2.0091,0.6808,2.6412,1.3303,0.76303,0.69048,1.6954,1.0762,2.52,1.6963,0.20807,0.15605,0.37124,0.37001,0.59497,0.50304,0.22362,0.13311,0.48491,0.18996,0.72677,0.28539,2.4347,1.43-1.1597-0.80779,1.0847,1.0412,0.20068,0.16448,0.49701,0.1632,0.72071,0.29385,0.70379,0.41114,1.0122,1.1972,1.9233,1.24,0.2757,0.0605,0.5889,0.0127,0.82834,0.1632,0.23714,0.14764,0.29989,0.47767,0.50546,0.66631,0.42203,0.38694,0.93477,0.5103,1.4545,0.69772,1.5114,1.235-0.66873,0.42446,1.3137,0.97951,0.25515,0.4172,0.5877,1.1089,1.075,1.3454,0.27453,0.1331,0.63608,0.002,0.90213,0.15121,0.24556,0.13667,0.3144,0.47886,0.5381,0.65057,2.4935,1.9056-0.95167-1.3371,1.3672,0.93839,0.88762,0.4317,1.2818,1.0122,2.0383,1.6042,0.23103,0.18028,0.54296,0.25041,0.75218,0.45587,0.22846,0.22491,0.25397,0.6385,0.52843,0.80297,0.28781,0.17288,0.66629,0.0726,1,0.12084,1.1899,1.228,2.3507,2.4253,3.9049,3.1757,0.9009,1.9544-0.28537,0.0127,1.301,0.97224,0.48371,0.29143,0.60586,0.97225,1.0255,1.3494,0.20068,0.18027,0.44379,0.30594,0.66509,0.45951,0.21776,0.15122,0.43531,0.30354,0.65301,0.45471,0.0846,0.0966,1.0109,1.15,1.1052,1.2222,0.21775,0.16805,0.53328,0.19482,0.72796,0.38938,0.59254,0.59011,0.78843,1.667,1.6071,2.0944,0.19838,0.20323,0.42446,0.38336,0.59616,0.60826,0.18028,0.23586,0.23103,0.56837,0.45228,0.76547,0.20679,0.18385,0.58889,0.10884,0.76545,0.31802,0.0485,0.0605,0.67355,2.0531,1.2579,2.1416,1.7212,2.291-0.84285-1.2833,0.74732,1.5789,0.12928,0.23204,0.44501,0.32529,0.56715,0.5611,0.15605,0.29989,0.0723,0.68927,0.23816,0.98796,0.25397,0.4728,0.95169,0.60221,1.1053,1.1694,0.27208,0.50304,0.36278,1.1137,0.72797,1.5536,0.16319,0.19583,0.49577,0.18869,0.66267,0.3809,0.52119,0.60825,0.64573,1.6924,1.0666,2.3658,0.3809,0.69895,0.37367,0.77149,0.88033,1.3735,0.15478,0.18384,0.41841,0.29627,0.49822,0.52481,0.12084,0.33858-0.0362,0.73159,0.0605,1.075,0.14866,0.49335,0.86946,0.71223,0.73159,1.3614,0.15248,0.19455,0.28419,0.40632,0.45589,0.58527,0.16319,0.16931,0.44501,0.23714,0.54176,0.45105,0.59011,1.3014-0.35189,0.64333,0.3797,1.7348,0.12344,0.18386,0.39059,0.23714,0.5115,0.42081,0.13897,0.21037,0.16193,0.47887,0.24301,0.7183,0.9916,0.97103,0.01-0.21037,0.43534,1.5009,0.10884,0.42565,0.60463,0.65056,0.80293,1.0412,1.3937,2.7517-0.86581-1.1657,0.5865,1.2933,0.60221,1.1052,0.14867,0.0846,0.42445,1.5088,0.21165,1.0944,0.17289,0.38817,0.56109,1.3418,0.45227,1.1089-0.12699,0.43292,0.68202,1.1681,0.001,0.33979-0.0727,0.68928,0.005,1.0194,0.0485,0.21395,0.289,0.34466,0.36277,0.55145,0.0966,0.26723,0.0724,0.5635,0.13668,0.84041,0.18257,0.82109,0.72192,1.3868,0.60704,2.2739,0.17416,0.12343,0.46072,0.16446,0.5224,0.36881,0.10884,0.34949-0.10884,0.72919-0.0847,1.092,0.0966,1.0569,1.0254,1.8551,0.88398,2.9454,0.73763,1.1149,1.0375,2.9355,1.5045,4.2124,0.25998,1.5881,0.54659,3.1251,1.2746,4.5789,0.70622,1.2986,0.023-0.19481,0.30959,1.6681,0.0362,0.24427,0.22005,0.44499,0.28899,0.682,0.23689,0.81503,0.23332,1.6973,0.49581,2.5082,0.19838,0.74732,0.60221,1.5413,0.66991,2.3148,0.0362,0.35311-0.0846,0.71346-0.023,1.0642,0.0727,0.48007,0.51031,0.85615,0.51634,1.3611-0.0605,1.7122,0.47162,3.3863,0.58648,5.0994-0.023,0.62518,0.0485,1.2534-0.005,1.8771-0.0362,0.38575-0.17543,0.75821-0.19099,1.1452-0.0362,0.82351,0.43894,1.6429,0.0846,2.4752-0.0485,0.33737-0.10884,0.67355-0.1609,1.0109,0.0362,0.22362,0.14279,0.44501,0.12344,0.67235-0.0966,1.2157-0.61552,2.4307-0.4704,3.6799,0.0846,1.6539,0.0485-0.41234-0.22974,1.7476-0.023,0.22005,0.0605,0.44381,0.0485,0.66509-0.0362,0.8912-0.3398,1.7504-0.49095,2.6226-0.13541,0.67597-0.49096,1.3068-0.55749,1.9936-0.0127,0.1813,0.20807,0.31803,0.2249,0.49942,0.0846,0.91661-0.64212,1.6834-0.37124,2.5928-0.34827,1.7089-0.66147,3.3801-1.1246,5.0565-0.39663,1.5823-0.70136,3.1868-1.0557,4.779-0.40752,1.7193-0.89121,3.4214-1.3286,5.1355-0.30109,1.7102-0.81744,3.3789-1.3198,5.0334-0.46675,1.7428-0.63606,3.5034-1.2455,5.2023-0.10884,0.31563-0.22362,0.63003-0.33498,0.94565,0.023,0.17161,0.0846,0.34462,0.0485,0.51512-0.20324,1.1476-0.73522,2.257-0.96256,3.4044-0.29265,0.64091-0.91419,1.8575-1.0847,2.5225-0.0362,0.12698,0.12571,0.25269,0.0966,0.38092-0.10884,0.47765-0.78361,1.5961-0.97586,1.9367,0.023,0.85736,0.0727,0.0362-0.56716,1.4027-0.45227,0.96983-0.81866,2.0051-1.3286,2.9561-0.35065,0.61552-0.77029,1.1911-1.1028,1.8174-0.0605,0.10884-0.023,0.26845-0.0966,0.37728-1.4001,2.1372-2.4042,3.3224-3.6577,5.1714-0.94807,1.1198-1.9491,2.2022-2.8168,3.4021-0.98191,1.2032-1.8117,2.5695-3.0421,3.5464-1.2568,1.069-2.3237,2.3074-3.5807,3.3868-1.4541,0.87307-2.6494,2.155-4.1439,2.9797-0.25755,0.17161-0.51392,0.34343-0.77149,0.51516-0.20195,0.0605-0.42203,0.0724-0.60463,0.17772-0.31198,0.17901-0.55384,0.46314-0.85496,0.65906-0.67232,0.43773-1.4797,0.60824-2.1474,1.0557-1.282,0.29747,0.13412-0.10884-1.5164,0.80174-0.92749,0.51393-2.0239,0.68807-2.9207,1.2765-1.4529,0.94201-3.0568,1.4088-4.6005,2.1618-0.53933,0.17901-1.0375,0.48492-1.5925,0.60703-0.2091,0.0485-0.43412-0.0846-0.64335-0.0362-0.88394,0.21776-1.688,0.89001-2.641,0.9275-0.66871,0.21393-1.2857,0.57681-1.9592,0.77512-0.2612,0.0726-0.54659,0.0127-0.81381,0.0605-0.91784,0.17288-1.8369,0.43653-2.736,0.68563-1.9284,0.39784-3.6522,1.3331-5.6617,1.3613-2.178,0.49215,0.67356-0.23714-1.9812,0.81263-1.098,0.43411-2.4551,0.0847-3.4594,0.8513-1.6732,0.0846-3.2401,1.0339-4.9489,1.1137-1.8009,0.28296,0.16217-0.0846-1.8463,0.53328-1.1742,0.3652-2.4766,0.002-3.5682,0.74128-0.77634,0.10884-1.0811,0.13412-1.8492,0.35189-0.34827,0.0966-0.67113,0.30353-1.0315,0.34221-0.2612,0.023-0.51392-0.19226-0.77272-0.14865-0.4196,0.0725-0.78964,0.31801-1.1851,0.47764-0.33133,0.0485-0.66389,0.0966-0.99522,0.1535-0.72312,0.15479-1.4182,0.44863-2.1521,0.54298-0.29747,0.0362-0.59979-0.10884-0.89728-0.0605-1.0254,0.14151-2.0219,0.66026-3.1055,0.51392-2.6203,0.40876,0.78361-0.21291-2.1965,0.68444-1.0557,0.31805-2.7406,0.37367-3.8534,0.50547-3.8447,1.2298,1.1125-0.22133-1.9786,0.33256-0.37124,0.0724-0.69653,0.32044-1.0702,0.37004-0.25998,0.0362-0.51392-0.13897-0.77632-0.12343-0.6397,0.0362-1.2303,0.4039-1.8725,0.43172-1.1996,0.10884-0.57561-0.01-1.8634,0.40388-0.55749,0.0727-1.1186-0.31682-1.6841-0.0846-0.34707,0.0485-0.67235,0.21164-1.0194,0.25142-0.28537,0.0362-0.57438-0.023-0.86219-0.0362-1.5269,0.50669-2.6261,0.36639-4.1699,0.57077-0.38455,0.0485-0.75093,0.2152-1.1367,0.24657-0.32045,0.023-0.64211-0.0485-0.96256-0.0724-1.5215,0.10884-0.73281-0.0362-2.3559,0.47644-0.32409,0.0362-0.64331-0.12343-0.96982-0.12928-1.0823-0.023-2.1822,0.2745-3.2663,0.023-1.5336-0.0723-0.74008-0.10884-2.3784,0.1428-0.34584-0.0127-0.65661-0.24556-1.0012-0.27934-1.2584-0.1222-2.6334,0.15605-3.859,0.37366-1.6422-0.0846-3.386-0.25515-5.0248-0.0605-0.4704,0.0605-0.92387,0.22133-1.3961,0.25637-0.39298,0.0229-0.78842-0.0485-1.1814-0.0605-2.1758-0.73644,0.27087-0.12083-2.5148,0.0605-0.37003,0.0229-0.71707-0.21776-1.0871-0.23943-1.0774-0.0605-2.713,0.0966-3.7536,0.36519-2.2097-0.14024-4.3976-0.33013-6.5607,0.28296-1.574-0.66628-1.6566,0.0605-3.1302,0.0485-0.29747-0.001-0.56474-0.22261-0.86221-0.23204-0.15605-0.005-1.9274,0.3398-2.087,0.37002-0.64573,0.0485-1.2856,0.16089-1.9321,0.18256-0.29266,0.01-0.5865-0.0846-0.87794-0.0485-0.98794,0.10884-1.966,0.49942-2.9901,0.41479-0.69896,0.0966-1.3894,0.27329-2.094,0.30351-0.64938,0.023-1.2896-0.23459-1.9386-0.20424-0.39904,0.023-0.77997,0.17645-1.1766,0.2226-0.35672,0.0362-0.71707,0.023-1.0762,0.0362-1.1706,0.13311-2.3584,0.51998-3.5355,0.54056-1.4184,0.023-2.1684-0.25517-3.616,0.50424-1.5997-0.45467-0.36277-0.26481-2.269-0.002-1.5092,0.2068-3.0481-0.18869-4.5468,0.21777-1.0109-0.12084-2.0778-0.13897-3.0933-0.0127-0.70981,0.0846-1.5472,0.41598-2.2788,0.39544-0.30957-0.007-0.60341-0.13668-0.90453-0.20553-0.69168,0.01-1.3898-0.0966-2.0758-0.01-0.42808,0.0605-0.82232,0.29989-1.2541,0.33013-0.32407,0.023-0.63365-0.16931-0.95895-0.17543-0.19964-0.002-2.1691,0.27695-2.348,0.30112-2.7953,0.66631,0.0362,0.18869-2.289,0.0846-1.1826-0.0485-1.3361,0.29746-2.531,0.30231-0.37123,0.001-0.73039-0.1535-1.1016-0.16804-0.42204-0.0127-0.84165,0.0485-1.263,0.0725-0.34706-0.0966-0.68201-0.28054-1.0424-0.29628-1.2647-0.0605-2.5704,0.53933-3.8452,0.49461-0.34947-0.0127-0.67475-0.2068-1.0242-0.22261-0.41234-0.023-0.82106,0.0846-1.2318,0.12084-0.36035-0.0362-0.71949-0.12084-1.0811-0.0966-1.372,0.0846-1.1548,0.45228-2.4969,0.27572-0.34704-0.0485-0.65178-0.31925-1.0013-0.3132-4.3227,0.0605,1.0291,0.71346-2.548,0.18129-1.8237,0.15122-0.88639-0.007-2.8056,0.51998-3.2962,0.445,0.72069-0.40632-2.2723-0.28419-0.942,0.0362-1.8036,0.6385-2.7518,0.65181-0.73643-0.005-1.4697-0.14637-2.2066-0.13668-1.576,0.023-3.2055,0.45468-4.7338,0.77511-1.8344-0.15706-0.0127-0.12343-2.1756,0.31202-0.341,0.0725-0.69653,0.023-1.0424,0.0605-1.1391,0.15707-2.2705,0.44378-3.4097,0.60944-3.9377,1.1367,1.0654-0.17161-2.288,0.33376-0.46436,0.0727-0.89002,0.31804-1.3544,0.38697-0.36639,0.0605-0.7437-0.0605-1.1125-0.023-3.3188,0.34221,0.57439,0.26119-2.3578,0.26723-0.75699,0.0727-1.5257,0.0605-2.271,0.21776-0.42324,0.0846-0.81141,0.32769-1.2404,0.37243-1.7782,0.18869-0.0485-0.46917-1.8054-0.29384-0.41357,0.0362-0.7969,0.23815-1.196,0.35795-3.4836,0.50909,1.1089-0.0966-1.9615,0.10884-0.34826,0.023-0.68563,0.15606-1.0351,0.17161-0.29504,0.0127-0.5889-0.12444-0.88274-0.0846-0.75337,0.0966-1.4275,0.59012-2.2202,0.51516-0.97948,0.0485-2.2254-0.19226-3.0398-0.13412-0.4208,0.0362-0.81504,0.23815-1.2344,0.27691-0.68687,0.0605-1.3776-0.23101-2.0681-0.0846-0.41115,0.10884-0.80901,0.28781-1.2314,0.33738-0.32771,0.0362-0.65662-0.0724-0.98675-0.0724-1.4077-0.023-2.8238,0.0362-4.2288,0.13897-0.36397,0.023-0.72797,0.0485-1.0919,0.0846-0.31078-0.0605-0.61432-0.20196-0.93234-0.19457-0.40995,0.007-0.79689,0.22745-1.2068,0.23944-0.97829,0.023-2.0363-0.41114-3.0332-0.33133-1.2823,0.42203-1.208,0.57319-2.4425,0.40752-0.32408-0.0485-0.62761-0.2045-0.9541-0.22974-1.0714-0.0846-2.0869,0.51515-3.1235,0.0362-0.65178,0.1887-1.5372,0.53329-2.2572,0.43292-0.28176-0.0362-0.50061-0.31685-0.7848-0.33618-0.93354-0.0605-1.9996,0.51151-2.9647,0.19227-2.3251-0.0724,0.64575-0.0605-2.0153,0.23458-1.2437,0.13796-2.5686-0.0605-3.819,0.13541-0.37365-0.0127-1.491-0.0727-1.8573-0.01-0.37971,0.0605-0.7292,0.29023-1.1137,0.30474-0.2745,0.01-0.51756-0.21292-0.79205-0.22976-0.85615-0.0485-1.4314,0.28901-2.2141,0.59618-1.9735-0.40026-4.0713,0.28296-6.0357,0.54659-1.7664-0.0966-0.29507-0.10884-2.2542,0.20908-3.5368,0.57197,1.0351-0.19837-2.1601-0.0127-0.8598,0.0485-1.6681,0.48611-2.5305,0.52117-2.0237-0.39783,0.0847-0.15121-2.4097,0.24199-2.3165,0.36641,0.10884-0.51756-2.3064,0.0362-0.49942,0.10884-0.94081,0.43532-1.4452,0.52482-0.35431,0.0605-0.71831-0.0485-1.0775-0.0846-2.0239-0.36881,0.0485-0.0846-2.1771-0.0724-1.5692,0.0127-3.1341-0.23816-4.6806,0.2745-1.4435-0.33618-3.1027-0.28296-4.5524,0.0724-0.42567,0.10884-0.82592,0.31562-1.2592,0.3785-0.32045,0.0485-0.64574-0.0362-0.96861-0.0605-0.82109-0.10884-1.1488-0.22005-1.9986-0.0362-0.43535,0.0966-0.82714,0.3652-1.2692,0.40754-0.31078,0.023-0.60463-0.18998-0.91663-0.19584-0.74126-0.0127-1.4636,0.3132-2.2088,0.26845-0.13183-0.007-1.8549-0.0966-1.98-0.0846-0.81385,0.0727-1.5724,0.49821-2.3872,0.54538-0.64089,0.0362-1.2375-0.48491-1.9002-0.30232-1.1669,0.26119-2.2805,0.49458-3.4757,0.56955-0.34946,0.023-0.69895,0.0605-1.0484,0.0485-0.30836-0.002-0.62156-0.1354-0.92388-0.0724-0.44139,0.0966-0.83075,0.34826-1.2453,0.52239-1.2548-0.10884-2.718-0.0485-3.9517,0.22974-0.42084,0.0966-0.79812,0.35067-1.2231,0.42202-0.30594,0.0485-0.61914-0.0362-0.92869-0.0605-1.8971,0.57923-3.8815,0.40025-5.7911,0.96619-1.6993,0.497-3.4859,0.74248-5.2577,0.68564-1.7334,0.58286-3.5952,0.72193-5.3774,1.1403-1.577-0.0127,0.0727-0.0847-1.739,0.3156-1.1536,0.25397-2.4005,0.0966-3.5156,0.5623-1.0726-0.3144-1.5916-0.002-2.6573,0.2249-0.83682,0.17901-1.0146,0.0846-1.848,0.0727-0.31317-0.002-0.62757,0.01-0.94077,0.0127-2.0571-0.18131-4.1619,0.62397-6.2006,0.18741-0.416,0.0846-0.82352,0.23102-1.2465,0.26723-1.8331,0.15962-3.7351-0.5381-5.5398,0.002-1.296-0.22745-1.9089,0.0966-3.1409-0.023-0.60464-0.0605-1.1851-0.3543-1.7924-0.33376-0.37606,0.0127-0.73521,0.1609-1.1016,0.242-2.3654,0.6167-0.0727,0.22489-1.9355,0.0605-1.2612-0.10884-2.4999,0.66266-3.7393,0.22974-3.295,0.64693,0.91418-0.023-1.7215-0.0127-0.70018,0.002-1.3378,0.5248-2.0383,0.51271-0.25142-0.005-0.45466-0.21777-0.68082-0.32649-0.32163,0.023-0.64211,0.0605-0.96375,0.0846-0.63125,0.002-1.2626-0.0724-1.8925-0.0362-0.35673,0.023-0.70258,0.14024-1.0593,0.15961-0.30955,0.0127-0.62034-0.0726-0.92992-0.0485-0.36882,0.023-0.7207,0.22491-1.0907,0.2068-0.27811-0.0127-0.5212-0.1994-0.78119-0.29867-1.2909,0.10884-2.5753,0.023-3.8686-0.0127-0.32892-0.01-0.66025,0.0605-0.98676,0.023-0.28416-0.0362-0.54656-0.17288-0.81864-0.25879-0.38455,0.0966-0.75821,0.26967-1.1548,0.28176-0.29265,0.01-0.55748-0.19583-0.8489-0.22006-0.34223-0.023-0.68445,0.0605-1.0279,0.0605-0.99159,0.023-1.9224-0.27935-2.9133-0.12084-1.6447-0.51997,0.023-0.16573-2.0699,0.0846-0.64451,0.0846-1.2945-0.1994-1.9423-0.1535-0.39299,0.023-0.76789,0.19837-1.1621,0.21648-0.32286,0.0127-0.64211-0.0724-0.96378-0.12084-1.2374-0.35068-1.8342-0.0362-3.0456-0.16447-0.31805-0.0362-0.62037-0.18869-0.9408-0.19582-1.9625-0.0362-0.41477,0.497-1.9842-0.22746-0.68322,0.13668-1.5069,0.36882-2.2256,0.27934-0.28781-0.0362-0.53933-0.22847-0.82594-0.26968-0.95771-0.13897-2.0336-0.023-2.9863,0.0605-1.6954-0.53326,0.10884-0.13668-2.0531,0.0846-1.1089,0.12084-2.8373-0.59131-4.0325-0.0485-0.33133-0.023-0.66144-0.0362-0.99277-0.0605-0.30597-0.0605-0.60463-0.17773-0.91664-0.19711-0.36277-0.023-0.72554,0.0846-1.0883,0.0725-1.1137-0.0605-2.0804-0.52482-3.1981,0.01-0.7352-0.005-1.4755,0.12928-2.2059,0.0485-0.32167-0.0362-0.601-0.31197-0.92386-0.29384-0.47645,0.023-0.89365,0.39421-1.3701,0.41719-0.32651,0.0127-0.62036-0.20425-0.92992-0.30716-0.39179,0.0362-0.7836,0.0605-1.1754,0.0966-2.0265-0.38333-4.1063,0.13182-6.1333-0.28538-1.3325,0.0127-2.9094,0.1971-4.2153,0.0846-0.28659-0.023-0.54538-0.21164-0.83196-0.22133-0.34707-0.0127-0.68686,0.10884-1.0303,0.15733-0.87068-0.13413-1.7353-0.35191-2.6231-0.27815-0.34827,0.023-0.68687,0.20068-1.0351,0.16931-2.5265-0.22974,1.4946-0.6941-1.7558-0.15961-1.8134-0.8102,0.62517,0.0846-1.869,0.0362-0.2612-0.005-0.41841-0.34584-0.67477-0.39664-0.31802-0.0605-0.64696,0.12084-0.96741,0.0727-2.7503-0.37488,1.5943-0.37488-1.6609-0.27815-1.4538-1.1669-1.2403,0.21522-2.6002-0.22133-0.24658-0.0846-0.35553-0.43776-0.61187-0.48128-0.35192-0.0605-0.70259,0.12927-1.0533,0.19353-0.27208-0.0605-0.54295-0.12571-0.81503-0.18741-0.3785,0.10884-0.74248,0.33617-1.1367,0.33013-0.26361-0.005-0.45105-0.29023-0.70619-0.35796-0.80173-0.21291-0.99642,0.0727-1.809-0.0725-0.26241-0.0485-0.48492-0.23586-0.7461-0.28661-0.29508-0.0605-0.60223-0.023-0.90212-0.0362-0.77634-0.12953-1.648-0.50426-2.4272-0.5357-0.33253-0.0127-0.65904,0.12927-0.99157,0.10884-2.3714-0.12084,1.0544-0.45347-1.8239-0.0605-1.6955-0.37728-3.3654-0.56111-5.0628-0.93959-1.2495-0.73643-0.0846-0.24657-1.7489-0.21776-0.94078,0.0127-2.4452-0.55626-3.3996-0.69288-0.35552,0.0485-0.71587,0.20909-1.0678,0.13897-0.54175-0.10884-0.7848-0.90934-1.4338-0.83076-0.33133-0.0605-0.67719,0.0966-1.0073,0.023-0.27569-0.0485-0.50304-0.24683-0.75576-0.37005-0.31562-0.023-0.63245-0.0485-0.94807-0.0727-0.3011-0.0605-0.59856-0.14993-0.9033-0.18614-0.33134-0.0362-0.68324,0.0727-0.99884-0.0362-0.2721-0.0966-0.41114-0.42688-0.67841-0.53571-0.92991-0.3797-1.9947,0.10884-2.9484-0.0727-0.30712-0.13055-1.2944-0.56712-1.619-0.64089-0.3132-0.0727-0.64333-0.0362-0.95653-0.10884-0.57801-0.12825-1.0666-0.55263-1.6486-0.66389-0.35311-0.0725-0.7183,0.007-1.0787,0.01-0.34586-0.023-0.70378,0.023-1.0375-0.0605-1.3622-0.39421-0.18513-0.59859-1.679-0.76063-0.37485-0.0362-0.75217,0.10884-1.127,0.0846-0.6288-0.0485-1.1887-0.51757-1.8582-0.36882-0.22005-0.19481-0.38697-0.47405-0.65905-0.58287-0.29385-0.12084-0.63484-0.0127-0.94805-0.0605-1.1899-0.19099-2.028-1.2056-3.2941-0.89244-1.3117-1.269,0.23204-0.0485-1.6089-0.57196-0.26845-0.0724-0.41356-0.40026-0.67837-0.48976-0.9263-0.31319-1.7019,0.0727-2.5116-0.90815-1.1512-0.36762-2.4297-0.61671-3.529-1.1101-0.2612-0.12084-0.48009-0.32409-0.75096-0.41718-0.28297-0.0966-0.59132-0.0966-0.88759-0.14152-1.627-0.87671,0.35795,0.0362-1.6679-0.33253-0.25998-0.0485-0.45469-0.28661-0.70983-0.35069-0.29747-0.0727-0.63606,0.0605-0.92022-0.0605-0.24914-0.10884-0.34223-0.44139-0.58531-0.55991-0.25634-0.12444-0.5635-0.0966-0.84404-0.13794-1.4141-0.93717-1.2244-0.26484-2.3466-0.57562-0.71831-0.1994-1.1863-1.1887-2.118-0.92384-0.75337-0.47645-1.4275-0.50066-2.2411-0.82111-0.48371-0.18996-0.87549-0.58526-1.3706-0.74127-0.27811-0.0846-0.57923-0.0605-0.86824-0.0966-0.14151-0.24198-0.20195-0.55503-0.42565-0.72554-0.20552-0.15607-0.51635-0.0724-0.75578-0.17289-0.44621-0.18512-0.78965-0.56834-1.2279-0.77149-0.22847-0.10884-0.497-0.12084-0.7183-0.23943-0.21165-0.12084-0.37245-0.30957-0.55866-0.46437-0.50789-0.14152-1.1101-0.0605-1.537-0.37001-0.21879-0.15835-0.18615-0.5478-0.40873-0.69895-0.31077-0.21164-1.8156-0.24071-2.0846-0.92508-0.243-0.16931-1.723-1.0859-1.933-1.1585-0.27933-0.0966-0.6409,0.0966-0.88396-0.0727-0.24071-0.16575-0.24913-0.52845-0.37366-0.79328-0.22006-0.12083-0.44136-0.23204-0.66147-0.34826-0.19838-0.13667-0.39783-0.27449-0.59617-0.41234-0.20679-0.12208-0.42323-0.23102-0.62153-0.3652-0.40753-0.27571-0.68567-0.73403-1.1258-0.95411-0.23586-0.12084-0.54537-0.023-0.77634-0.15606-0.2226-0.12344-0.34584-0.37246-0.51754-0.55867-1.3685-0.58528-2.5044-1.6789-3.8967-2.2652-0.96256-1.0859-2.2572-1.8433-3.2634-2.8869-0.22491-0.0605-1.1694-0.27691-1.367-0.46677-0.18258-0.17646-0.19481-0.4728-0.34342-0.6784-0.40994-0.56351-1.0811-0.89725-1.7104-1.1343-0.33133-0.33496-0.54537-0.79812-0.93836-1.0593-0.42203-0.27935-1.1089,0.0485-1.489-0.28661-1.2458-1.0956,0.913-0.85736-1.1343-0.81987-0.24556-0.21522-0.81141-0.74006-1.1113-0.88397-0.22489-0.10884-0.50426-0.0846-0.71949-0.20679-0.20553-0.12084-0.29992-0.38576-0.50669-0.50428-0.22006-0.1257-0.53813-0.0362-0.7304-0.20551-0.20679-0.17646-0.24427-0.48735-0.36639-0.73039-1.7624-0.10884-0.96501-0.74733-1.9666-0.97468-0.30472-0.0724-0.63485,0.14994-0.93474,0.0605-0.46678-0.13413-0.60101-0.87431-1.1778-0.85738-0.51151-0.37485-0.66025-0.5381-1.2615-0.76425-0.95655-0.35793-1.9929-0.35915-2.4322-1.4443-1.2847-0.83557,0.17416,0.0362-1.2667-0.56712-0.66028-0.27451-1.1548-0.71587-1.7116-1.1307-0.18385-0.13795-0.39421-0.23714-0.59132-0.35431-0.13311-0.0485-1.2239-0.38333-1.3377-0.47645-0.19099-0.15477-0.22006-0.45586-0.40874-0.61429-0.51512-0.43169-1.4221-0.31197-1.8833-0.86099-1.3592-0.24556-2.4564-1.531-3.9227-1.2515-0.9009-1.0025-2.4228-1.2542-3.7218-0.97707-0.77153-1.0122,0.12084-0.14993-1.1198-0.39421-0.1897-0.0362-0.27449-0.32771-0.46675-0.34344-0.27934-0.023-0.53086,0.28902-0.80778,0.23944-1.561-0.27933,1.3209-1.1766-1.2492-0.0847-0.67717,0.0847-1.3782,0.0966-2.0285,0.32771-0.2733,0.0966-0.51757,0.2745-0.79691,0.35551-1.5871,0.46074,0.63606-0.63242-1.364,0.47644-1.2093,0.52602-2.5217,0.60101-3.4373,1.6579-1.1452,0.41114-1.9995,1.3251-2.7001,2.2917-1.0255,0.73159-0.38335,0.31197,1.4738-2.2874,0.0846-0.10884-0.14024,0.23816-0.2068,0.35915-0.26723,0.47887-0.59858,0.92629-0.76302,1.4521-0.06048,0.12826-0.50911,1.5638-0.50669,1.6279,0.0049,0.10884,0.26483,0.0127,0.30835,0.12084,0.1354,0.3156-0.17646,0.72555,0.10884,1.0242,0.19099,0.93838,0.80174,2.4464,1.5642,3.0295,0.13412,0.12084,1.266,1.1403,1.3302,1.1742,0.19837,0.10884,0.45469,0.0127,0.66389,0.0966,0.04848,0.0127,0.9009,0.67113,0.93595,0.69773,0.8622,0.41236,1.2116-0.0605,2.028,0.19582,0.81505,0.25142,0.88519,0.73282,1.9635,0.31199,1.6484-0.51394,0.93114,0.25268,2.1304-0.0485,0.31681-0.0725,0.578-0.33615,0.9009-0.37728,1.9983-0.25636-1.5897,1.2351,1.4339-0.24199,1.5208-0.28538,2.9676-0.93111,4.3555-1.5761,1.4779-0.3797,2.7051-1.0907,3.9893-1.8897,0.26603-0.24785,0.53206-0.49579,0.79808-0.74248,0.15121-0.0362,0.32287-0.023,0.45227-0.10884,0.28901-0.18996,0.50185-0.47767,0.76908-0.69775,0.64938-0.53328,1.3968-0.77392,1.8479-1.5553,0.10884,0.01,0.23816,0.0966,0.31318,0.023,0.364-0.35431,0.57562-0.84042,0.9118-1.22,0.09659-0.10884,0.26483-0.13183,0.37243-0.23102,0.4946-0.45468,0.76426-1.121,1.3384-1.4798,0.75336-1.0327,2.81-3.8078-0.79932,1.1476-1.3767,1.8903,2.9851-4.2401,1.7153-2.4378,0.54053-1.3443,1.6147-2.4,2.1219-3.7599,1.0061-1.4915,1.6763-3.1205,2.6553-4.627,0.88639-1.4406,1.5437-3.0092,2.6255-4.3295,1.4671-2.348,3.012-4.6416,4.6181-6.8996-4.6464,6.5968,2.0017-2.8808,3.0886-4.2878,0.99161-1.1524,1.8111-2.4109,2.7531-3.6056,0.88879-1.2657,1.7823-2.514,2.7569-3.7142,0.81502-1.2572,1.8161-2.3721,2.6798-3.6188,0.16676-0.23586,0.32893-0.47403,0.50064-0.70619,0.12083-0.15835,0.47887-0.62641,0.36762-0.46316-0.53208,0.77756-2.1728,3.0801-1.6306,2.3093,1.1778-1.675,2.3818-3.3314,3.5331-5.0242-3.9944,5.6814-0.86947,1.2032,0.70738-0.86946,0.49338-0.64816-1.8588,2.6732-1.408,1.9954,1.1573-1.7401,2.3352-3.3413,3.51-5.0304,1.0763-1.0472,1.844-2.3809,2.7782-3.5467,0.92146-1.156,1.8446-2.308,2.7709-3.4565,0.94443-1.3796,2.1077-2.5796,3.0748-3.9462,0.82714-1.1597,1.8902-2.1741,2.8604-3.2713,0.87551-1.2008,2.0306-2.1612,3.0904-3.237,1.0073-1.0424,2.0856-2.0418,3.2275-2.9316,1.1464-1.0883,2.4386-2.0295,3.5505-3.1785,0.93597-0.23459,2.2075-2.1584,3.1829-2.7584,0.76664-0.35792,0.0605,0.023,1.0363-0.89967,0.14866-0.14279,0.32649-0.2504,0.48973-0.37486,0.14152-0.0846,0.30232-0.13795,0.42327-0.24913,1.1596-1.0738,0.27086-0.62036,1.1306-0.99645,0.23101-0.23942,0.46314-0.47763,0.6941-0.71707,0.12084-0.023,0.25879,0.01,0.35311-0.0605,0.82833-0.64816,1.4554-1.5284,2.43-1.9942,1.2423-0.82229,2.3674-1.7592,3.7015-2.4415,0.71469-0.4039,1.3383-1.0194,2.0388-1.4056,0.1331-0.0724,0.3144,0.0127,0.45348-0.0485,0.50665-0.22975,0.87427-0.7062,1.403-0.9033,0.49578-0.28781,0.93716-0.68082,1.4695-0.89364,0.16575-0.0605,0.3652,0.023,0.53328-0.0362,0.69533-0.23943,1.2932-0.81746,2.0485-0.93354,0.29384-0.18256,1.246-0.809,1.6235-0.91056,0.18511-0.0485,0.38574,0.0605,0.57318,0.023,0.80535-0.15248,1.4002-0.84284,2.2547-0.80536,1.9488-0.35552-0.72557,0.18129,1.526-0.46314,0.96499-0.27571,2.0326-0.19837,3.0068-0.43776,1.2097-0.18996,0.58165-0.0362,1.8746-0.50666,0.26484-0.0485,0.5321,0.0847,0.79932,0.0725,0.89002-0.007,1.7787-0.25635,2.6639,0.023,0.61672-0.0127,1.2362,0.0966,1.849,0.023,0.37246-0.0362,0.71708-0.25514,1.092-0.2636,0.2745-0.005,0.51997,0.20425,0.79327,0.22133,0.33375,0.023,0.66509-0.0725,0.99762-0.12084,0.28659,0.0362,0.57318,0.0727,0.85979,0.10884,0.51029-0.0605,1.4078-0.1971,1.9352-0.14279,0.27206,0.023,0.52239,0.21521,0.79688,0.20322,0.37728-0.0127,0.71951-0.25757,1.0968-0.29022,0.5647-0.0485,1.1161,0.30231,1.6824,0.24199,1.1089,0.20449,1.7361-0.16678,2.8242-0.1609,0.28419,0.002,0.56353,0.0966,0.84771,0.0846,1.7539-0.0485,0.25877-0.32891,1.7582,0.0605,1.2621-0.0605,0.61792,0.023,1.9318-0.25517,0.70018-0.0485,1.8236,0.28903,2.4662,0.25879,0.34585-0.0127,0.67356-0.16191,1.0109-0.243,1.8947,0.23586,3.1998-0.01,5.0628-0.0966,1.8419,0.26602,3.1442-0.3652,4.9451-0.48008,0.24659,0.002,0.49461-0.023,0.74009,0.007,0.21878,0.023,0.42685,0.18511,0.64331,0.14381,0.35191-0.0725,0.63123-0.35069,0.97467-0.45348,0.23102-0.0724,0.48733,0.005,0.7207-0.0485,0.25397-0.0605,1.502-0.61549,1.7348-0.71586,1.5488,0.26845,2.99-0.77998,4.4273-1.233,0.33741-0.12571,1.8362-0.39664,1.9505-0.45349,1.1972-0.59736,0.70137-0.77511,2.0881-0.85372,1.6598-0.80778-0.38333,0.25756,1.6334-1.1222,1.6657-1.1403-0.14279,0.15478,1.0472-0.22133,0.46919-0.14764,0.78602-0.6276,1.2523-0.77996,1.196-0.78361,2.3254-1.4887,3.5506-2.1936,1.173-0.84163,2.3091-1.6736,3.454-2.4845,1.1415-0.41234-0.68202,0.30474,1.0376-0.74367,0.0846-0.0485,0.20424,0.0966,0.28174,0.0362,0.62155-0.44744,0.99764-1.2723,1.7375-1.5989,0.92266-1.0424,2.085-1.8494,3.127-2.7825,1.1028-0.75094,1.9105-1.8665,2.9203-2.735,0.98314-1.0315,2.0186-1.7932,2.9722-2.8929,0.84287-0.86096,1.7876-1.6151,2.6503-2.4319,0,0-1.6121,3.1046-1.6121,3.1046z"/>
  <path id="path3525-9" fill="#000" d="m562.84,800.66c1.2095-2.1924,2.8039-4.1503,4.3003-6.1537,0.96378-0.91176,1.692-2.1534,2.818-2.8697,0.25167-0.28901,0.50306-0.57802,0.75458-0.86705,0.13414-0.0362,0.28901-0.023,0.40269-0.10884,0.48976-0.34464,0.83197-0.86824,1.3084-1.231,0.37486-0.28539,0.80413-0.49338,1.1923-0.76064,0.76182-0.34946,1.3307-1.1343,2.0406-1.531,0.13794-0.0724,0.32528,0.0362,0.47402-0.0127,0.9263-0.54418,0.46314-0.34222,1.3764-0.63968,0.2346-0.0846,0.48007-0.14637,0.70257-0.2588,1.0726-0.53933,0.55989-0.57199,1.5679-0.64815,0.2249-0.0127,0.4583,0.0605,0.67475,0.001,1.6659-0.45709,0.31683-0.57922,1.6421-0.3265,0.82229-0.33011,1.7266-0.47765,2.611-0.51875,0.25397-0.0127,0.51396,0.0846,0.76306,0.0362,2.8029-0.54053-0.53813-0.30956,1.8759-0.41357,0.20195,0.1331,0.364,0.37609,0.60463,0.39906,0.34344,0.0362,0.66632-0.18742,1.0073-0.24173,1.0581-0.16932,2.3969-0.22745,3.3458,0.23815,1.1174-0.16318,2.1363,0.29628,3.2221,0.42808,0,0-1.9777,3.125-1.9777,3.125-1.7118-0.61794,0.43776,0.0362-1.6216-0.15351-0.25141-0.023-0.47644-0.17058-0.71587-0.25516-0.29021,0.00013-0.57924,0.00013-0.86944,0.00026-1.6096-0.46437-3.3191,0.48368-4.8896-0.42808-1.7405,0.39664-3.5027,0.25637-5.1818,0.92146-0.39059,0.10884-1.2698,0.37123-1.6854,0.44136-0.22848,0.0362-0.46917-0.01-0.69048,0.0605-0.72797,0.22133-1.3524,0.80898-2.1627,0.79566-0.66509,0.32409-1.3611,0.54055-1.9683,0.97225-0.42565,0.30232-0.81986,0.73765-1.3188,0.94323-0.13183,0.0485-0.28176,0.0362-0.42202,0.0605-0.5744,0.52844-1.2833,1.2771-1.9713,1.6706-0.0966,0.0605-0.25637-0.0362-0.34827,0.0362-0.49338,0.38454-0.77876,0.99402-1.3192,1.3322-1.0206,0.94324-1.9422,1.9857-2.8366,3.0444-0.18257,0.26967-0.36035,0.54174-0.54657,0.80899-2.0589,2.9571,2.5185-4.0563,0.54172-0.71707,0,0-2.7018,2.8271-2.7018,2.8271z"/>
  <path id="path3551" fill="#000" d="m510.51,827.4c-0.023-0.19941,0.0605-0.4559-0.0966-0.59617-0.15478-0.1535-0.44258-0.0362-0.64333-0.12825-1.1488-0.48492-0.6554-1.0109-2.374-1.2792-0.0966-0.24555-0.0966-0.5635-0.29869-0.73401-0.21394-0.179-0.56108-0.0727-0.81503-0.19456-0.22133-0.10884-0.38213-0.312-0.58287-0.45712-0.70134-0.50789-1.1935-0.8525-2.037-1.069-0.54779-0.7449-1.3323-0.70864-2.0875-1.0182-0.89122-0.3664-0.82471-0.78722-1.9682-1.1282-0.70862-0.24428-1.2364-0.91179-1.8846-1.2318-0.47886-0.23713-1.6998-0.63487-2.2445-0.82471-2.1646-1.4555,1.1367,0.64573-1.4871-0.57923-0.22133-0.10884-0.32165-0.39786-0.54778-0.49823-0.27087-0.12083-0.60704-0.0127-0.87914-0.13183-2.213-0.99037,1.4637-0.10884-1.4246-0.67597-0.23817-0.12444-0.48489-0.22745-0.70981-0.37366-0.21879-0.14509-0.38941-0.35311-0.61432-0.48491-1.1149-0.64574-2.1507-0.51151-3.3207-1.322-0.8247-0.5901-1.8249-0.40751-2.6998-0.88517-0.2504-0.13897-0.42688-0.39784-0.68686-0.51879-0.56835-0.26238-1.2093-0.31801-1.807-0.50061-0.29022-0.2068-1.0641-0.79689-1.4211-0.89243-0.33618-0.0966-0.7062,0.023-1.0424-0.0725-0.73767-0.19354-1.4319-0.90695-2.1377-1.2222-0.85857-0.23715-1.8557-0.12084-2.6259-0.64453-0.77391-0.52845-0.27811-0.71346-1.2832-0.94805-0.33011-0.0846-0.67837-0.023-1.0158-0.0485-0.71346-0.79449-1.606-0.51153-2.425-0.79088-0.24555-0.0846-0.37123-0.39902-0.62155-0.4728-3.13-0.91902,0.70861,0.8489-1.7596-0.37123-1.7433-0.17773-3.3556-0.9662-5.0225-1.4763-0.99038-0.0605-1.0388,0.0605-1.8584-0.44138-0.24173-0.14994-0.39663-0.44139-0.66751-0.52845-0.34584-0.12083-0.74248,0.0485-1.0944-0.0485-0.58285-0.1609-1.052-0.59374-1.5927-0.86584-0.3277-0.0846-0.65783-0.1535-0.98554-0.23331-0.27934-0.12826-0.53933-0.32047-0.84042-0.39181-0.36157-0.0846-0.74733-0.001-1.1089-0.0846-0.30958-0.0727-0.56834-0.29143-0.87066-0.38817-2.4784-0.79569,0.33253,0.38332-1.9064-0.6131-0.41234,0.007-0.82953,0.0846-1.2377,0.023-0.32044-0.0485-0.59374-0.28173-0.91419-0.33375-0.57199-0.0846-1.779,0.10884-2.3544-0.0727-0.30474-0.0966-0.52242-0.37608-0.7824-0.56109-0.33858-0.10884-0.67838-0.20808-1.017-0.31318-0.33738-0.10884-0.65784-0.27815-1.0085-0.3229-2.5509-0.31682-0.10884,0.40029-2.4812-0.0847-1.0448-0.20552-1.7865-0.72314-2.9009-0.94807-2.1775-0.0605-4.2255-0.91661-6.4266-0.85373-0.92993-0.69411-2.0511-0.38213-3.1003-0.61429-0.31563-0.0605-0.58892-0.26966-0.90452-0.34222-0.70257-0.16804-1.4334-0.15708-2.1486-0.2527-0.95048-0.17288-1.977-0.59738-2.9508-0.62278-0.42688-0.005-0.85133,0.20679-1.2736,0.14636-0.28899-0.0485-0.50789-0.29507-0.76063-0.44138-0.34826-0.0362-0.69168-0.0727-1.0388-0.10884-2.2775-0.67598,0.63488,0.0966-2.0227-0.26726-0.30474-0.0485-0.57923-0.21878-0.88277-0.2733-1.0593-0.18028-1.8181-0.12928-2.8133-0.60098-0.37485,0.01-0.75093,0.023-1.1246,0.023-0.26727-0.12083-0.51274-0.31198-0.80055-0.34585-0.39541-0.0485-0.79446,0.13413-1.1923,0.10884-0.88636-0.0485-1.8463-0.49215-2.7381-0.62399-0.98071,0.007-2.1565,0.0127-3.1097-0.28173-0.28296-0.0846-0.48249-0.37005-0.7691-0.43535-4.0286-0.92627,1.2882,0.87671-2.089-0.33979-2.2406-0.64331-4.5613-0.6796-6.851-1.0762-1.5619-0.24912-3.1249-0.60583-4.6982-0.74973-2.5507-0.24429-0.12084,0.28418-2.3455-0.28298-2.2747-0.17644-4.4987-0.68081-6.7903-0.69048-0.75217-0.39543-1.5548,0.0847-2.3144-0.0605-0.29627-0.0605-0.49096-0.38939-0.78965-0.44381-0.41596-0.0724-0.84646,0.13311-1.2658,0.0847-0.32045-0.0485-0.60099-0.23944-0.9021-0.35916-0.37366-0.0362-0.7449-0.0725-1.1186-0.10885-1.1077-0.43653-2.2763-0.12825-3.4-0.21648-0.32287-0.023-0.61671-0.24555-0.93839-0.25039-5.333-0.0725,1.9866,0.5345-2.3912,0.12084-0.25141-0.15122-0.4704-0.38818-0.75821-0.45106-0.71827-0.15706-1.4799,0.0605-2.206-0.0605-0.3156-0.0485-0.6131-0.24657-0.93112-0.2249-2.5777,0.1813-0.35795,0.69049-2.1816,0.14153-0.62641,0.13794-1.2156-0.2346-1.8286-0.20808-0.39056,0.01-0.76546,0.17416-1.156,0.22261-0.92146,0.12084-1.8435,0.0362-2.7562-0.0846-1.7618-0.0362-3.902,0.8779-5.5768,0.47645-0.67597,0.19099-1.3905,0.44016-2.1039,0.47402-0.49216,0.0127-0.98311-0.24556-1.4692-0.15962-4.1684,0.70619,1.1464,0.21037-1.9112,0.45709-0.30473,0.0724-0.60944,0.14994-0.91541,0.2249-0.24172-0.005-0.48731-0.0846-0.72312-0.023-0.36882,0.0846-0.67475,0.38093-1.0496,0.45348-0.19354,0.0485-0.37366-0.14637-0.56834-0.14739-0.55745,0.01-1.2068,0.28658-1.7079,0.46314-1.5359,0.44016-3.1114,0.59858-4.6281,1.127-0.82229-0.0966-1.5038,0.42445-2.2616,0.63848-1.3338,0.37728-0.52605-0.35069-2.1007,0.50182-1.4135,0.15121-2.627,1.0291-4.0344,1.1766-1.4516,0.48128-2.8578,1.0073-4.2977,1.5848-0.29869,0.17543-0.59736,0.35068-0.89725,0.52481-0.16804-0.002-0.34827-0.0605-0.50789,0.002-0.30112,0.10884-0.53933,0.34464-0.82955,0.48129-0.9541,0.44621-0.70861-0.0485-1.8698,0.56957-1.0339,0.36397-1.885,1.2044-2.9482,1.4928-1.4618,0.39787,0.70499-0.54778-1.2108,0.38093-2.4363,0.92024,2.1696-0.89243-1.6842,1.0593-0.10884,0.0485-0.23332-0.14764-0.34827-0.12083-0.007,0.002-2.029,0.97223-2.1068,1.0146-0.78362,0.67112-1.8078,0.68444-2.6791,1.104-1.276,0.61552-0.21649,0.2745-1.2922,0.57199-0.81626,0.41477-1.4726,1.0738-2.3612,1.3425-0.17543,0.0605-0.36881,0.023-0.53328,0.10884-0.5357,0.25755-1.0037,0.63846-1.5312,0.91298-1.023,0.0362-1.8092,0.942-2.6769,1.3874-0.32045,0.16447-0.69291,0.18741-1.0315,0.29989-0.77876,0.5889-1.7306,0.861-2.5402,1.3926-1.3071,0.85856-0.40752,0.6276-1.3615,0.79326-1.2987,0.42807-2.298,1.455-3.597,1.8737-0.26966,0.19584-0.51878,0.42204-0.80778,0.5865-0.58528,0.33376-1.2635,0.51636-1.8341,0.91541-1.1669,0.81745-0.38451,0.55019-1.2568,0.77754-1.3638,0.64211-2.4008,1.9048-3.7686,2.5237-1.1839,0.98192-2.4978,1.7454-3.7832,2.5656-1.2044,1.1052-2.5801,1.9982-3.8015,3.0927-1.1923,1-2.3588,2.0024-3.4835,3.115-1.144,0.84284-2.0188,1.9811-3.1616,2.8284-1.1657,0.86704-2.0551,2.015-3.1152,2.9982-1.8892,1.8836,2.0746-2.0892,1.5599-1.5627-10.143,10.373,2.0411-2.0019-1.541,1.6247-0.21037,0.2152-0.42323,0.42687-0.63485,0.6421-0.94805,1.1343-2.1336,2.1364-2.9367,3.3795-0.95893,1.2685-1.896,2.5625-2.9252,3.7738-0.91903,1.3233-1.93,2.5809-2.8869,3.8809-0.0485,0.1354-0.0724,0.28416-0.1512,0.40025-0.21878,0.30352-0.50666,0.55142-0.7449,0.84045-0.60826,0.74005-1.0823,1.6102-1.6361,2.3924-0.84648,1.4249-1.9378,2.6579-2.8228,4.0481-1.0424,1.2452-1.6926,2.7498-2.6868,3.9967-1.0134,1.4261-1.9064,2.8033-2.836,4.3034-0.89845,1.3685-1.734,2.7848-2.6662,4.1319-0.44621,0.79327-0.19584,0.38454-0.76423,1.2181,0,0-2.8963,2.2486-2.8963,2.2486,0.51151-0.80536,0.25999-0.40511,0.75216-1.1959,0.43413-0.82111,0.91903-1.3713,1.4586-2.1315,0.47645-0.67113,0.60221-1.5585,1.3164-2.0799,0.79809-1.3782,1.663-2.6444,2.4467-4.026,1.0968-1.4373,2.03-2.9795,3.1819-4.3741,0.23714-0.93595-0.0725,0.007,0.9263-1.3632,0.0966-0.12084,0.0727-0.29992,0.16574-0.41842,0.70138-0.92025,0.97949-1.0545,1.3877-2.0112,0.87069-1.2249,1.6882-2.4574,2.5653-3.6747,1.0412-1.3322,2.0525-2.6861,3.076-4.0315,0.89122-1.261,1.768-2.4971,2.77-3.6736,0.97949-1.1367,1.924-2.304,2.9326-3.408,1.3819-1.4259,2.7308-2.8531,4.1169-4.3,0.72677-0.76064-2.9579,2.995-2.2214,2.2434,3.9942-4.0755,2.0878-2.0539,3.8655-3.9494,1.0629-1.0194,2.1001-2.0594,3.1855-3.0582,1.0932-1,2.247-1.9378,3.2882-3.0077,1.0291-0.98311,2.1409-1.8534,3.2379-2.7572,1.1246-1.0448,2.3373-1.8924,3.5943-2.7576,1.3293-0.92871,2.4348-2.251,3.986-2.8171,1.2166-0.93597,2.5179-1.7621,3.819-2.5731,1.2631-0.88758,2.6277-1.4929,3.9237-2.2796,1.2306-0.53208,2.3115-1.383,3.5882-1.8407,1.4262-0.54657,2.4803-1.6637,3.9121-2.2071,0.60702-0.33375,1.2794-0.52963,1.8775-0.86581,0.29504-0.16575,0.5381-0.4184,0.84525-0.5611,0.13311-0.0605,0.27934-0.0127,0.42203-0.0362,0.2757-0.18615,0.55143-0.37489,0.82714-0.5611,0.838-0.12084,1.2766-0.64696,2.0337-0.97468,0.14636-0.0605,0.33375,0.0127,0.47765-0.0362,2.3888-1.0799-0.17545-0.25999,1.4697-0.74855,0.75459-0.37848,1.5098-0.93231,2.2785-1.2559,0.1535-0.0605,0.34103-0.001,0.49823-0.0485,0.52239-0.18258,0.95893-0.56593,1.4813-0.74852,0.88516-0.51758,1.8056-0.59496,2.5775-1.0617,0.35551-0.21521,0.63242-0.54779,0.99885-0.74128,0.14381-0.0724,0.32648-0.0362,0.48853-0.0362,1.4389-0.45468,2.6666-1.4877,4.1551-1.8487,1.4614-0.47402,2.8152-1.121,4.2247-1.7055,1.5048-0.41839,2.8397-1.3121,4.3404-1.6199,0.2323-0.0846,0.46317-0.1609,0.69414-0.24071,0.17772-0.0127,0.36155,0.023,0.53448-0.0362,0.96498-0.29504,1.8289-0.73885,2.841-0.92023,0.61551-0.13055,1.4453-0.16446,2.022-0.39422,0.36277-0.1438,0.64573-0.47524,1.0254-0.56714,0.15478-0.0362,0.28416,0.14382,0.42565,0.21878,0.26121-0.0846,0.5212-0.16446,0.78238-0.24556,0.5466-0.12442,2.0377-0.66269,2.3951-0.70983,0.17161-0.023,0.32892,0.1994,0.4982,0.15478,2.4645-0.59978,0.0605-0.57439,1.713-0.52239,3.1573-1.0061-0.89486,0.16931,1.5403-0.24199,0.32288-0.0605,0.61068-0.2346,0.93115-0.30714,0.83437-0.18996,1.7387-0.0127,2.5297-0.44258,1.8404-0.23586,3.7079-0.33013,5.5031-0.76063,0.58046-0.0724,2.3446-0.38454,2.8526-0.33376,0.22618,0.023,0.3809,0.29747,0.60947,0.31199,0.68322,0.0485,1.3321-0.45226,2.0303-0.32165,0.68082-0.0485,1.3554-0.20067,2.0371-0.18742,0.28418,0.01,0.55506,0.14637,0.83679,0.16575,0.36158,0.0127,0.72072-0.15249,1.0823-0.12084,0.26845,0.023,0.4873,0.26846,0.75456,0.29021,0.37247,0.0362,0.74129-0.0846,1.1125-0.12826,1.9439,0.31563-0.26965,0.0605,2.1457-0.0724,0.34584-0.0127,0.69168,0.0605,1.0375,0.0966,0.30112,0.0846,0.58893,0.26484,0.90213,0.25757,3.1971-0.023-0.15249-0.60704,2.3325-0.0723,2.1159,0.21521,4.2676,0.31077,6.3246,0.87671,2.2525-0.10884,4.4758,0.72434,6.7433,0.46193,0.26726,0.1535,0.50304,0.38332,0.80054,0.46314,0.37243,0.0966,0.77026,0.0362,1.1548,0.0605,1.4875,0.0846,3.0434,0.0485,4.44,0.62279,0.88035-0.0127,1.7631-0.13669,2.6392-0.0605,0.37848,0.0362,0.72916,0.22847,1.1052,0.26606,0.45347,0.0605,0.92264-0.12084,1.3685-0.0127,0.33498,0.0727,0.55869,0.42203,0.88882,0.51031,0.41235,0.10884,0.85493,0.0485,1.283,0.0726,0.99522-0.0127,1.5903-0.12083,2.5346,0.2068,0.32772,0.12084,0.59375,0.36882,0.91781,0.49218,1.0424,0.40026,2.174,0.30472,3.2478,0.55261,4.2005-0.28416-0.97344-0.17415,2.0633,0.37247,0.40511,0.0725,0.81868-0.12953,1.2284-0.0966,0.89367,0.0727,1.8554,0.51512,2.7206,0.73281,2.371-0.23102,0.13795-0.17059,2.0514,0.14993,0.34464,0.0605,0.71469-0.0485,1.0496,0.0485,0.26484,0.0727,0.40388,0.42446,0.67356,0.49096,3.6673,0.92268-0.94805-0.93597,1.9361,0.31079,3.5885-0.34101-0.59251-0.2068,1.8971,0.37003,0.37848,0.0847,0.77754-0.10884,1.1621-0.0605,1.0605,0.13183,1.8826,0.88879,3.0432,0.38333,0.45344,0.15835,1.3307,0.48491,1.8074,0.54294,1.3489,0.1632,2.7465,0.0727,4.0048,0.73644,3.213,0.023-0.56472-0.16575,2.0214,0.40267,0.37731,0.0846,0.77272,0.0127,1.1573,0.0485,1.0532,0.0966,2.0763,0.39907,3.1095,0.60221,1.4388,0.62279,1.8197,0.18258,3.1586,0.46437,0.30959,0.0605,0.56837,0.29265,0.87431,0.36762,2.4518,0.59858-0.12927-0.42204,1.986,0.50184,2.5753-0.19839,0.14382-0.12344,2.3875,0.0966,0.40875,0.0362,0.83078-0.0605,1.2312,0.0362,0.31922,0.0846,0.55261,0.37125,0.86943,0.46072,0.72555,0.20322,1.5412-0.0362,2.2247,0.39784,0.51635,0.18256,1.5026,0.55383,2.055,0.58892,0.43897,0.023,0.88033-0.17288,1.3119-0.0966,0.69773,0.12083,1.8226,1.2882,2.6916,1.0702,0.66509,0.16932,1.3099,0.42203,1.9867,0.52967,0.84527,0.12927,1.3566-0.0727,2.1556,0.27691,0.2733,0.12084,0.44378,0.41839,0.71588,0.54053,0.31198,0.14279,0.66629,0.14152,0.99885,0.22363,1.2116,0.46558,2.5533,0.51272,3.7476,1.0303,0.26,0.10884,0.45347,0.34465,0.70377,0.47887,0.25637,0.13897,0.54055,0.22133,0.809,0.33014,1.1826,0.17645,2.2026,0.72193,3.36,0.96255,0.31681,0.0605,0.66267-0.0127,0.96497,0.0966,0.24301,0.0966,0.40026,0.34102,0.60099,0.51031,0.85737,0.18869,1.78,0.33737,2.6179,0.59979,1.1452,0.3543,0.39303,0.25039,1.4526,0.72192,0.25877,0.10884,0.53933,0.17288,0.81018,0.26603,0.78117,0.33013,1.7179,0.4039,2.4624,0.78964,0.23713,0.1247,0.36884,0.43535,0.6264,0.50184,2.2794,0.57197,0.19481-0.74488,1.7789,0.416,1.7124,0.49095,3.231,1.2687,4.8767,1.8775,1.3006,1.3579-0.30959-0.0485,1.6742,0.64696,0.26604,0.0846,0.37851,0.44136,0.63365,0.55988,0.87671,0.40752,2.0499,0.25998,2.947,0.63606,1.0448,1.2567,1.2056,0.56231,2.3979,1.1766,0.23204,0.12469,0.35554,0.40026,0.58408,0.53208,0.24785,0.13796,0.53933,0.18513,0.80898,0.2757,0.22362,0.13667,0.44381,0.27934,0.66751,0.41961,0.77633,0.0605,1.7169,0.25517,2.3778,0.72677,0.20322,0.14381,0.27207,0.4317,0.47402,0.57681,0.38453,0.27692,1.1609,0.37486,1.591,0.45952,1.472,0.55021,2.7038,1.5798,4.251,1.9464,0.90571,0.49098,0.55504,0.13413,1.0508,1.0557,0.26845,0.1535,0.63365-0.023,0.92992,0.0727,0.26602,0.0846,1.6759,0.96618,1.9415,1.1899,1.1863,1.0025-0.14152,0.0362,1.4385,0.63003,0.91056,0.33615,1.6284,1.2158,2.4929,1.6457,2.409,1.5343-1.2887-0.75338,1.3043,0.61914,1.1137,0.59008-0.0605,0.19582,0.93838,0.85614,0.91541,0.60945,0.31562-0.22617,0.80778,0.62154,0,0-2.6995,2.8565-2.6995,2.8565z"/>
 </g>
</svg>
