<?xml version="1.0" encoding="UTF-8" standalone="no"?>
<svg
   xmlns:dc="http://purl.org/dc/elements/1.1/"
   xmlns:cc="http://creativecommons.org/ns#"
   xmlns:rdf="http://www.w3.org/1999/02/22-rdf-syntax-ns#"
   xmlns:svg="http://www.w3.org/2000/svg"
   xmlns="http://www.w3.org/2000/svg"
   version="1.1"
   id="svg4195"
   viewBox="0 0 4251.9685 2125.9842"
   height="600mm"
   width="1200mm">
  <defs
     id="defs4197" />
  <metadata
     id="metadata4200">
    <rdf:RDF>
      <cc:Work
         rdf:about="">
        <dc:format>image/svg+xml</dc:format>
        <dc:type
           rdf:resource="http://purl.org/dc/dcmitype/StillImage" />
        <dc:title></dc:title>
      </cc:Work>
    </rdf:RDF>
  </metadata>
  <g
     transform="translate(0,1073.622)"
     id="layer1">
    <g
       id="flowRoot4326"
       style="font-style:normal;font-weight:normal;font-size:40px;line-height:125%;font-family:sans-serif;letter-spacing:0px;word-spacing:0px;fill:#22241c;fill-opacity:1;stroke:none;stroke-width:1px;stroke-linecap:butt;stroke-linejoin:miter;stroke-opacity:1"
       transform="matrix(1.5666829,-1.9373696,1.9373696,1.5666829,-2136.2606,424.40862)">
      <path
         id="path4837"
         style="font-style:normal;font-variant:normal;font-weight:normal;font-stretch:normal;font-family:serif;-inkscape-font-specification:serif;fill:#22241c"
         d="m 950.69336,907.86215 q -1.28906,4.08204 -4.33594,6.19141 -3.02734,2.08984 -7.67578,2.08984 -2.85156,0 -5.29297,-0.97656 -2.4414,-0.97656 -4.33594,-2.87109 -2.1875,-2.1875 -3.26171,-4.96094 -1.05469,-2.79297 -1.05469,-6.30859 0,-6.79688 3.92578,-10.95703 3.92578,-4.17969 10.35156,-4.17969 2.38281,0 5.07813,0.625 2.69531,0.625 5.80078,1.89453 l 0,6.71875 -2.20703,0 q -0.72266,-3.67188 -2.91016,-5.41016 -2.16797,-1.73828 -6.09375,-1.73828 -4.66797,0 -7.07031,3.32031 -2.40235,3.30079 -2.40235,9.72657 0,6.40625 2.40235,9.72656 2.40234,3.30078 7.07031,3.30078 3.26172,0 5.37109,-1.54297 2.10938,-1.5625 3.04688,-4.64844 l 3.59375,0 z" />
      <path
         id="path4839"
         style="font-style:normal;font-variant:normal;font-weight:normal;font-stretch:normal;font-family:serif;-inkscape-font-specification:serif;fill:#22241c"
         d="m 954.75586,915.577 0,-2.07031 3.24219,0 0,-26.25 -3.4375,0 0,-2.07032 7.03125,0 0,13.32032 q 0.99609,-2.10938 2.57812,-3.1836 1.60156,-1.07422 3.71094,-1.07422 3.4375,0 5.05859,1.97266 1.6211,1.97266 1.6211,6.15234 l 0,11.13282 3.20312,0 0,2.07031 -9.92187,0 0,-2.07031 3.10547,0 0,-10 q 0,-3.8086 -0.9375,-5.19532 -0.91797,-1.40625 -3.30079,-1.40625 -2.5,0 -3.80859,1.81641 -1.30859,1.81641 -1.30859,5.29297 l 0,9.49219 3.125,0 0,2.07031 -9.96094,0 z" />
      <path
         id="path4841"
         style="font-style:normal;font-variant:normal;font-weight:normal;font-stretch:normal;font-family:serif;-inkscape-font-specification:serif;fill:#22241c"
         d="m 1000.5762,905.577 -15.48831,0 0,0.15625 q 0,4.19922 1.58203,6.34765 1.58203,2.12891 4.66797,2.12891 2.36328,0 3.86719,-1.23047 1.52344,-1.25 2.1289,-3.6914 l 2.89062,0 q -0.85937,3.41796 -3.18358,5.13671 -2.30469,1.71875 -6.07422,1.71875 -4.55078,0 -7.32422,-2.98828 -2.75391,-3.00781 -2.75391,-7.96875 0,-4.92187 2.71485,-7.92968 2.71484,-3.00782 7.1289,-3.00782 4.70703,0 7.22656,2.91016 2.51952,2.89062 2.61722,8.41797 z m -4.23831,-2.07031 q -0.11719,-3.63282 -1.54297,-5.46875 -1.40625,-1.85547 -4.0625,-1.85547 -2.48047,0 -3.90625,1.85547 -1.42578,1.85546 -1.73828,5.46875 l 11.25,0 z m -8.4375,-19.88282 5.07813,7.34375 -2.28516,0 -6.64063,-7.34375 3.84766,0 z" />
      <path
         id="path4843"
         style="font-style:normal;font-variant:normal;font-weight:normal;font-stretch:normal;font-family:serif;-inkscape-font-specification:serif;fill:#22241c"
         d="m 1021.6895,894.77622 0,5.19531 -2.0704,0 q -0.098,-1.54297 -0.8593,-2.30469 -0.7618,-0.76172 -2.2266,-0.76172 -2.6562,0 -4.082,1.83594 -1.4063,1.83594 -1.4063,5.27344 l 0,9.49219 4.1602,0 0,2.07031 -10.9961,0 0,-2.07031 3.2422,0 0,-16.64063 -3.4375,0 0,-2.05078 7.0312,0 0,3.69141 q 1.0547,-2.16797 2.7149,-3.20313 1.6601,-1.05469 4.0429,-1.05469 0.8789,0 1.836,0.13672 0.9765,0.13672 2.0508,0.39063 z" />
      <path
         id="path4845"
         style="font-style:normal;font-variant:normal;font-weight:normal;font-stretch:normal;font-family:serif;-inkscape-font-specification:serif;fill:#22241c"
         d="m 1043.3887,905.577 -15.4883,0 0,0.15625 q 0,4.19922 1.582,6.34765 1.5821,2.12891 4.668,2.12891 2.3633,0 3.8672,-1.23047 1.5234,-1.25 2.1289,-3.6914 l 2.8906,0 q -0.8594,3.41796 -3.1836,5.13671 -2.3047,1.71875 -6.0742,1.71875 -4.5508,0 -7.3242,-2.98828 -2.7539,-3.00781 -2.7539,-7.96875 0,-4.92187 2.7148,-7.92968 2.7149,-3.00782 7.1289,-3.00782 4.7071,0 7.2266,2.91016 2.5195,2.89062 2.6172,8.41797 z m -4.2383,-2.07031 q -0.1172,-3.63282 -1.543,-5.46875 -1.4062,-1.85547 -4.0625,-1.85547 -2.4804,0 -3.9062,1.85547 -1.4258,1.85546 -1.7383,5.46875 l 11.25,0 z" />
      <path
         id="path4847"
         style="font-style:normal;font-variant:normal;font-weight:normal;font-stretch:normal;font-family:serif;-inkscape-font-specification:serif;fill:#22241c"
         d="m 1079.1113,913.50669 3.4375,0 0,2.07031 -7.0312,0 0,-3.24219 q -1.0547,1.95313 -2.6953,2.89063 -1.6211,0.91796 -4.0235,0.91796 -3.8281,0 -6.2695,-3.02734 -2.4219,-3.04687 -2.4219,-7.92969 0,-4.88281 2.4219,-7.91015 2.4219,-3.02735 6.2695,-3.02735 2.4024,0 4.0235,0.9375 1.6406,0.91797 2.6953,2.8711 l 0,-10.80078 -3.3985,0 0,-2.07032 6.9922,0 0,28.32032 z m -3.5937,-7.28516 0,-2.05078 q 0,-3.73047 -1.4453,-5.70313 -1.4258,-1.97265 -4.1602,-1.97265 -2.7734,0 -4.1992,2.1875 -1.4063,2.1875 -1.4063,6.5039 0,4.29688 1.4063,6.50391 1.4258,2.20703 4.1992,2.20703 2.7344,0 4.1602,-1.95312 1.4453,-1.97266 1.4453,-5.72266 z" />
      <path
         id="path4849"
         style="font-style:normal;font-variant:normal;font-weight:normal;font-stretch:normal;font-family:serif;-inkscape-font-specification:serif;fill:#22241c"
         d="m 1105.4199,905.577 -15.4883,0 0,0.15625 q 0,4.19922 1.5821,6.34765 1.582,2.12891 4.6679,2.12891 2.3633,0 3.8672,-1.23047 1.5235,-1.25 2.1289,-3.6914 l 2.8907,0 q -0.8594,3.41796 -3.1836,5.13671 -2.3047,1.71875 -6.0743,1.71875 -4.5507,0 -7.3242,-2.98828 -2.7539,-3.00781 -2.7539,-7.96875 0,-4.92187 2.7149,-7.92968 2.7148,-3.00782 7.1289,-3.00782 4.707,0 7.2265,2.91016 2.5196,2.89062 2.6172,8.41797 z m -4.2383,-2.07031 q -0.1171,-3.63282 -1.5429,-5.46875 -1.4063,-1.85547 -4.0625,-1.85547 -2.4805,0 -3.9063,1.85547 -1.4258,1.85546 -1.7383,5.46875 l 11.25,0 z" />
      <path
         id="path4851"
         style="font-style:normal;font-variant:normal;font-weight:normal;font-stretch:normal;font-family:serif;-inkscape-font-specification:serif;fill:#22241c"
         d="m 1128.3496,904.17075 0,2.05078 q 0,3.75 1.4258,5.72266 1.4453,1.95312 4.1797,1.95312 2.7539,0 4.1601,-2.20703 1.4258,-2.20703 1.4258,-6.50391 0,-4.3164 -1.4258,-6.5039 -1.4062,-2.1875 -4.1601,-2.1875 -2.7344,0 -4.1797,1.97265 -1.4258,1.97266 -1.4258,5.70313 z m -3.5937,-7.26563 -3.4571,0 0,-2.08984 7.0508,0 0,3.24219 q 1.0547,-1.95313 2.6758,-2.8711 1.6406,-0.9375 4.043,-0.9375 3.8281,0 6.25,3.02735 2.4218,3.02734 2.4218,7.91015 0,4.88282 -2.4218,7.92969 -2.4219,3.02734 -6.25,3.02734 -2.4024,0 -4.043,-0.91796 -1.6211,-0.9375 -2.6758,-2.89063 l 0,9.47266 3.3984,0 0,2.08984 -10.4492,0 0,-2.08984 3.4571,0 0,-24.90235 z" />
      <path
         id="path4853"
         style="font-style:normal;font-variant:normal;font-weight:normal;font-stretch:normal;font-family:serif;-inkscape-font-specification:serif;fill:#22241c"
         d="m 1164.8926,894.77622 0,5.19531 -2.0703,0 q -0.098,-1.54297 -0.8594,-2.30469 -0.7617,-0.76172 -2.2266,-0.76172 -2.6562,0 -4.082,1.83594 -1.4063,1.83594 -1.4063,5.27344 l 0,9.49219 4.1602,0 0,2.07031 -10.9961,0 0,-2.07031 3.2422,0 0,-16.64063 -3.4375,0 0,-2.05078 7.0312,0 0,3.69141 q 1.0547,-2.16797 2.7149,-3.20313 1.6601,-1.05469 4.043,-1.05469 0.8789,0 1.8359,0.13672 0.9766,0.13672 2.0508,0.39063 z" />
      <path
         id="path4855"
         style="font-style:normal;font-variant:normal;font-weight:normal;font-stretch:normal;font-family:serif;-inkscape-font-specification:serif;fill:#22241c"
         d="m 1168.7988,888.36997 q 0,-0.89844 0.6446,-1.5625 0.664,-0.66407 1.582,-0.66407 0.8984,0 1.543,0.66407 0.664,0.66406 0.664,1.5625 0,0.91797 -0.6445,1.5625 -0.6445,0.64453 -1.5625,0.64453 -0.918,0 -1.582,-0.64453 -0.6446,-0.64453 -0.6446,-1.5625 z m 4.5899,25.13672 3.3984,0 0,2.07031 -10.4297,0 0,-2.07031 3.4375,0 0,-16.60157 -3.4375,0 0,-2.08984 7.0313,0 0,18.69141 z" />
      <path
         id="path4857"
         style="font-style:normal;font-variant:normal;font-weight:normal;font-stretch:normal;font-family:serif;-inkscape-font-specification:serif;fill:#22241c"
         d="m 1179.3652,915.577 0,-2.07031 3.2422,0 0,-16.60157 -3.4375,0 0,-2.08984 7.0313,0 0,3.69141 q 0.9961,-2.10938 2.5781,-3.1836 1.6016,-1.07422 3.7109,-1.07422 3.4375,0 5.0586,1.97266 1.6211,1.97266 1.6211,6.15234 l 0,11.13282 3.2031,0 0,2.07031 -9.9218,0 0,-2.07031 3.1054,0 0,-10 q 0,-3.8086 -0.9375,-5.21485 -0.9375,-1.42578 -3.3007,-1.42578 -2.5,0 -3.8086,1.83594 -1.3086,1.8164 -1.3086,5.3125 l 0,9.49219 3.125,0 0,2.07031 -9.961,0 z" />
      <path
         id="path4859"
         style="font-style:normal;font-variant:normal;font-weight:normal;font-stretch:normal;font-family:serif;-inkscape-font-specification:serif;fill:#22241c"
         d="m 1224.0723,909.34653 q -0.7618,3.32031 -2.9297,5.05859 -2.168,1.73828 -5.6055,1.73828 -4.5312,0 -7.2851,-2.98828 -2.754,-3.00781 -2.754,-7.96875 0,-4.98047 2.754,-7.94922 2.7539,-2.98828 7.2851,-2.98828 1.9727,0 3.9258,0.46875 1.9531,0.44922 3.9258,1.38672 l 0,5.3125 -2.0899,0 q -0.4101,-2.73437 -1.7968,-3.98437 -1.3672,-1.25 -3.9258,-1.25 -2.9102,0 -4.3946,2.26562 -1.4843,2.2461 -1.4843,6.73828 0,4.49219 1.4648,6.75782 1.4844,2.26562 4.4141,2.26562 2.3242,0 3.7109,-1.21094 1.3867,-1.21093 1.8945,-3.65234 l 2.8907,0 z" />
      <path
         id="path4861"
         style="font-style:normal;font-variant:normal;font-weight:normal;font-stretch:normal;font-family:serif;-inkscape-font-specification:serif;fill:#22241c"
         d="m 1247.6074,905.577 -15.4883,0 0,0.15625 q 0,4.19922 1.5821,6.34765 1.582,2.12891 4.6679,2.12891 2.3633,0 3.8672,-1.23047 1.5235,-1.25 2.1289,-3.6914 l 2.8907,0 q -0.8594,3.41796 -3.1836,5.13671 -2.3047,1.71875 -6.0743,1.71875 -4.5507,0 -7.3242,-2.98828 -2.7539,-3.00781 -2.7539,-7.96875 0,-4.92187 2.7149,-7.92968 2.7148,-3.00782 7.1289,-3.00782 4.707,0 7.2265,2.91016 2.5196,2.89062 2.6172,8.41797 z m -4.2383,-2.07031 q -0.1171,-3.63282 -1.5429,-5.46875 -1.4063,-1.85547 -4.0625,-1.85547 -2.4805,0 -3.9063,1.85547 -1.4258,1.85546 -1.7383,5.46875 l 11.25,0 z" />
    </g>
    <path
       d="m 823.91153,-1058.5173 c -4.98135,6.7958 -8.79339,14.382 -12.7215,21.8184 -3.91197,7.7393 -6.03795,16.1556 -9.40412,24.1531 -2.68222,8.0227 -7.21275,15.19988 -10.213,23.07729 -3.00171,7.61501 -6.22097,15.15522 -8.84879,22.9104 -3.36449,9.31362 -7.8181,18.18181 -11.3619,27.42525 -4.10821,8.62192 -5.94128,17.97037 -8.62989,27.06286 -2.70442,9.58858 -7.34934,18.35466 -11.36806,27.40617 -3.67288,7.84184 -8.17897,15.23252 -11.76987,23.11354 -4.01155,8.59137 -7.52126,17.43977 -10.48124,26.4485 -3.20592,7.92595 -5.07813,16.25922 -7.71201,24.36887 -2.41038,9.54723 -5.68347,18.83289 -8.52134,28.25167 -3.47438,9.58912 -5.42173,19.59874 -8.04709,29.42828 -2.23387,9.03681 -5.15539,17.88956 -7.8052,26.81159 -3.83716,11.89523 -7.70303,23.77981 -11.3389,35.73909 -2.54585,11.41288 -5.48218,22.68771 -8.82973,33.89113 -2.99812,11.58938 -5.09854,23.38959 -7.68218,35.07474 -3.72356,11.4944 -6.8087,23.07949 -8.4102,35.06017 -1.19566,10.17537 -1.23054,20.42764 -1.23379,30.65708 -0.0617,9.83231 0.065,19.66524 0,29.49741 0.53267,11.27878 -0.51193,22.40564 -1.86537,33.57815 -0.7352,9.26199 -1.71802,18.38195 -3.71426,27.45625 -1.42712,8.60743 -2.8382,17.20761 -4.35986,25.80419 -1.62303,10.77683 -3.9234,21.41857 -5.25497,32.24403 -1.00446,9.71609 -3.13224,19.24819 -4.23942,28.96091 -1.04864,10.22562 -1.11256,20.51334 -1.30455,30.78067 -0.61656,12.75853 -3.72435,25.18264 -5.81075,37.74097 -2.2083,9.32206 -4.41346,18.60519 -5.54004,28.12817 -0.86249,9.38234 -0.96992,18.81444 -1.02487,28.22981 0,9.66175 0.11102,19.32309 0.16171,28.98464 0.0359,10.8515 -0.18694,21.70037 -0.25882,32.55233 -0.083,12.232 0.14018,24.46341 0.10765,36.69501 -0.15105,11.97413 -0.66578,22.43943 2.23387,34.15582 3.47372,14.38018 5.99332,28.929171 7.52361,43.640144 1.1101,19.387934 4.18369,38.549533 6.9906,57.736576 3.09591,14.3565591 5.57817,28.7953072 7.0959,43.401774 1.28952,12.942447 2.48294,25.939037 4.24379,38.835181 2.46029,13.374262 2.89596,27.014146 4.93179,40.431875 1.55114,10.13662 3.82774,20.13634 5.56695,30.23514 2.38807,11.03853 5.4556,21.91729 7.78759,32.96426 1.897,9.92901 4.43601,19.74908 7.28643,29.45205 1.93434,9.79902 3.83279,19.5813 5.87434,29.3626 1.10762,8.64582 3.41584,17.04706 4.96161,25.61329 0.36166,8.95201 3.51083,17.18314 5.91863,25.69887 2.51456,11.16835 4.90947,22.35704 7.87776,33.41686 2.89965,10.04904 4.90812,20.33054 7.60177,30.4242 3.10084,9.62431 6.05982,19.19204 7.5632,29.22028 1.8121,11.65312 4.37454,23.15272 6.7921,34.6872 1.62169,10.99202 5.07488,21.54474 7.72569,32.29878 3.07583,9.96569 6.48955,19.79477 9.75759,29.6961 3.48527,9.75144 6.74109,19.59237 10.25326,29.33949 3.9612,10.98519 6.77596,22.36653 9.51099,33.71444 1.80818,9.86646 6.4891,18.76914 8.83971,28.46126 2.78931,11.1998 6.99307,21.89955 10.93419,32.72045 3.91263,10.73535 8.80169,21.02816 12.19556,31.96339 3.26266,11.38529 8.99177,21.67702 13.30677,32.65466 4.29257,11.56576 11.67612,21.50377 15.785,33.12668 3.50108,10.32481 6.51243,19.48201 12.01692,28.93434 4.35414,9.00658 8.89477,18.02106 14.87957,26.06601 7.28497,8.32534 12.27708,18.1289 18.26154,27.36878 6.22086,10.43661 14.81475,18.93272 22.63722,28.10142 7.98451,7.34826 13.65217,16.68232 20.8121,24.73195 8.90879,9.76905 18.65517,19.00245 28.65611,27.70634 7.7803,7.48954 16.28684,14.24321 25.17443,20.35952 5.88264,3.72104 12.35984,6.24945 17.79934,10.61793 6.5702,3.85081 13.42816,7.32382 20.3983,10.42403 8.1082,5.78377 16.2847,10.62642 25.7931,13.68853 9.0799,4.47992 18.4532,8.18119 28.0856,11.29542 9.3358,2.4064 18.3623,5.74854 27.4875,8.7765 6.7885,3.37162 13.3075,7.11784 19.913,10.83097 6.4392,3.41116 12.7704,6.94491 19.5277,9.77659 5.8578,4.82502 13.233,5.56198 20.1129,7.89971 8.1028,2.06454 16.2301,3.54347 24.0061,6.71808 8.2031,3.09878 16.6733,5.49297 24.8164,8.73553 9.011,3.74693 18.8968,3.47371 28.2895,5.4455 9.1996,1.44514 18.1389,3.84075 27.2667,5.63028 8.949,0.69704 16.8307,4.8901 25.1374,7.77966 9.4448,2.44379 19.2584,1.87549 28.8312,3.34939 11.0362,1.2696 21.7442,4.1962 32.7057,5.934 10.2946,0.4809 20.0849,3.33418 29.9744,5.92218 10.6896,2.6195 21.2183,5.8337 31.9026,8.5054 10.6034,1.4861 20.7186,4.5507 30.8134,7.9784 9.5274,2.7253 19.0437,5.2262 28.8621,6.6549 10.75,0.9137 21.8172,2.7346 32.3893,0.1402 -86.3893,16.9893 -42.8152,8.265 -23.4781,1.1406 8.2984,-3.2842 16.6547,-6.3827 25.0641,-9.3693 7.5953,-3.0484 15.2236,-6.0174 22.9604,-8.6874 24.1817,-8.6291 50.1017,-12.98098 75.6497,-14.59468 -89.5204,16.05318 -46.5511,8.87028 -26.4629,3.2598 8.5047,-2.2091 16.4548,-5.9949 24.8021,-8.669 8.4058,-2.54909 16.8178,-4.92684 24.8375,-8.53711 8.0777,-4.18765 16.4599,-7.70739 24.7963,-11.33641 9.1727,-4.51442 18.5978,-8.50328 28.1917,-12.02912 8.9365,-2.1882 17.2989,-5.83987 25.5477,-9.83267 8.2829,-3.56792 16.5827,-7.08585 24.7883,-10.82918 8.0241,-3.85909 16.3491,-7.06032 24.7482,-9.99804 9.7187,-3.92522 18.7795,-9.24383 28.0748,-14.04333 9.5137,-4.84049 19.6668,-8.17185 29.4448,-12.37856 9.723,-4.13769 19.3662,-8.371 28.664,-13.39806 9.0774,-4.66254 17.7201,-9.94987 26.0958,-15.76255 9.5286,-7.2228 20.8398,-10.97836 31.5921,-15.8343 8.421,-3.95543 16.2898,-8.94546 24.5511,-13.20861 8.2589,-4.65894 16.6963,-8.96236 24.9908,-13.55659 9.1996,-5.24707 19.1426,-8.96056 28.5885,-13.70794 8.9707,-4.27897 17.6123,-9.19315 26.3539,-13.91105 9.1202,-4.95947 18.3802,-9.64969 27.5907,-14.4377 9.9052,-6.29748 20.4695,-10.71269 31.8792,-13.32543 10.7695,-1.81865 21.2076,-4.92389 31.5651,-8.31601 11.2713,-3.00818 22.3514,-6.66271 33.5458,-9.92829 9.9433,-2.35248 19.9451,-4.32751 29.7594,-7.20663 27.702,-7.12466 56.1629,-11.20232 84.2795,-16.09349 -89.331,20.45694 -35.4066,4.88039 -14.9163,-1.03711 29.937,-8.36525 60.7058,-14.2975 91.7453,-16.30487 12.105,-0.45656 24.0083,-2.90753 36.0562,-4.09348 9.5645,-0.81315 19.1752,-0.80274 28.7674,-0.81244 10.9303,0.76463 21.5811,-0.65642 32.3539,-2.20832 10.538,-1.46239 21.2,-1.63746 31.8213,-1.78772 11.4385,-0.11864 22.8778,-0.11864 34.3166,-0.13661 10.9769,0 21.9538,0.0432 32.9307,0.0826 13.4535,0.0719 26.907,0 40.36,-0.036 9.0346,-0.6424 18.4007,1.14461 27.2684,-0.90267 -16.1391,2.76625 -32.2419,5.75251 -48.417,8.29875 -0.7776,0.12222 2.511,-0.3523 3.9634,-2.73174 1.2944,-2.12026 -0.7234,-5.74999 -1.4578,-7.57654 -4.257,-8.81748 -8.4407,-17.63928 -12.1564,-26.71235 -5.3251,-10.67963 -9.3114,-21.94917 -14.8695,-32.50765 -5.2635,-8.39185 -8.235,-18.08216 -13.6557,-26.33454 -4.3545,-7.20842 -8.375,-14.70119 -11.4788,-22.5362 -4.0658,-8.95985 -6.8695,-18.40247 -10.7404,-27.4414 -3.189,-10.07749 -6.6185,-20.05108 -9.9908,-30.06205 -3.9133,-10.19217 -8.3009,-20.1805 -11.8401,-30.5125 -4.0805,-11.15917 -8.5295,-22.19505 -12.3915,-33.42864 -4.3807,-11.38134 -8.7859,-22.76593 -12.3429,-34.43485 -5.3482,-13.04649 -8.411,-26.83459 -13.3333,-40.0148 -4.5504,-13.05259 -8.9549,-26.15515 -13.4395,-39.2304 -3.588,-11.90008 -8.3008,-23.40595 -12.2358,-35.18182 -2.9539,-9.14721 -5.0874,-18.58175 -8.5177,-27.56463 -3.62,-11.73638 -8.1456,-23.11707 -12.4041,-34.63487 -4.6482,-13.51367 -8.4777,-27.27916 -12.5212,-40.98106 -3.2765,-13.70826 -9.3589,-26.49519 -13.5581,-39.91318 -2.9236,-12.25837 -7.9436,-23.83175 -12.1668,-35.66878 -3.9392,-13.08242 -8.0305,-26.10856 -12.4332,-39.04601 -5.5526,-16.710159 -11.7071,-33.2016 -16.8384,-50.061404 -4.0697,-13.313503 -9.0429,-26.338173 -13.0949,-39.655052 -4.7442,-14.3078218 -9.3208,-28.666567 -13.895,-43.030965 -4.2426,-13.600026 -8.3709,-27.220383 -12.9727,-40.705766 -4.262,-13.602718 -8.0007,-27.370475 -12.3574,-40.939753 -4.5385,-14.80204 -7.2148,-30.01687 -9.8694,-45.23195 -3.8834,-16.32378 -8.5114,-32.41375 -11.3072,-48.97277 -2.9452,-15.13532 -4.9659,-30.41022 -7.565,-45.60198 -2.2375,-12.28724 -3.1106,-24.74114 -4.7395,-37.11291 -1.5059,-12.3984 -4.1884,-24.58532 -7.1391,-36.69969 -2.2539,-12.14643 -4.0226,-24.37123 -5.9483,-36.57856 -2.6764,-11.31794 -4.5587,-22.79174 -7.0028,-34.15794 -2.1576,-12.70552 -4.4961,-25.36892 -7.0151,-38.01182 -2.7331,-16.1345 -5.9775,-32.18438 -9.7607,-48.10535 -3.8168,-14.57923 -7.7887,-29.09605 -11.069,-43.81063 -3.6513,-14.81371 -7.73,-29.52196 -11.4295,-44.32748 -3.1753,-13.11226 -5.4204,-26.43458 -8.4961,-39.56306 -3.0298,-11.30391 -4.3574,-22.93836 -7.4719,-34.21916 -2.9823,-10.92055 -5.4912,-21.9941 -7.7423,-33.09382 -2.7364,-9.55137 -5.3135,-19.11217 -8.4645,-28.54197 -3.4093,-10.40652 -5.0525,-21.24137 -8.5551,-31.62894 -3.5808,-9.50543 -7.9076,-18.68575 -11.8399,-28.07216 -4.0414,-9.5879 -6.3913,-19.74882 -9.5412,-29.63042 -3.3619,-11.95645 -6.3657,-24.00463 -9.3345,-36.06288 -2.6752,-11.53161 -5.7169,-22.97299 -8.5603,-34.46469 -2.2113,-11.14084 -6.6563,-21.62707 -9.6379,-32.56157 -2.5031,-9.15108 -6.3115,-17.80392 -10.0548,-26.48804 -3.7316,-9.45917 -7.2224,-18.91042 -11.4698,-28.15426 -3.3461,-8.53525 -9.1637,-15.53515 -13.7102,-23.35874 -4.4295,-6.16512 -9.3477,-11.86194 -14.2231,-17.6515 -5.3192,-4.24951 -9.105,-9.71542 -13.3689,-14.88524 -4.3831,-5.0264 -10.6591,-7.8515 -16.1916,-11.4729 -6.9984,-3.801 -14.6843,-5.9539 -22.0156,-8.9523 -8.4128,-2.4223 -16.5371,-5.6944 -25.1328,-7.4964 -7.5337,-0.4529 -14.5269,-3.1927 -21.9222,-4.457 -8.1935,-1.1111 -16.4829,-1.1184 -24.7352,-1.2007 -8.9627,-0.047 -17.9258,0 -26.8885,0 -9.443,-0.036 -18.8863,0 -28.3293,0 -17.9622,3.4731 -45.543,6.9094 38.2659,-6.4678 1.4437,-0.2301 -2.8088,0.8135 -4.2103,1.2283 -6.4381,1.9064 -1.878,0.6345 -8.3096,2.369 -8.583,2.6927 -17.3244,4.7385 -26.048,6.9098 -10.3539,2.6511 -20.5928,5.6989 -30.8457,8.7071 -10.4629,1.8441 -17.2626,9.2402 -25.2277,15.4507 -7.5148,4.5996 -15.211,8.8642 -22.2271,14.22882 -6.5987,5.5249 -13.122,11.13649 -19.6941,16.69346 -5.9962,6.36115 -11.2372,13.35029 -17.1949,19.7638 -5.8028,6.81947 -11.5658,13.7346 -16.9937,20.86214 -5.9617,7.81631 -10.3105,16.63128 -14.6979,25.37758 -5.406,9.55227 -11.147,18.86189 -16.255,28.59319 -6.0778,11.40363 -11.043,23.32456 -15.873,35.29043 -3.1761,9.5246 -7.303,18.68394 -10.6786,28.13197 -3.3295,9.53574 -7.5355,18.72205 -11.2354,28.11083 -2.4031,8.56427 -6.5736,16.42763 -9.9247,24.61591 -3.3088,7.77041 -6.304,15.6941 -8.87,23.74196 -1.9006,8.47741 -3.4503,17.04678 -5.0108,25.60256 -1.1238,9.98307 -2.6164,19.88147 -4.2046,29.80232 -1.7744,12.29059 -2.1698,24.72321 -2.3805,37.1223 -0.2337,13.44943 -0.2085,26.90152 -0.2696,40.35264 -0.08,15.24388 -0.1259,30.48704 0.05,45.73023 0.075,11.94524 0.1617,23.88939 0.1977,35.83466 0.036,11.25828 0,22.51726 -0.068,33.77551 -0.098,12.99256 -0.036,25.98526 -0.098,38.97807 -0.036,12.20298 0.079,24.40486 0.1977,36.60712 0.036,12.05778 -0.1366,24.11453 -0.2336,36.17178 -1.3837,14.37608 2.4621,28.15969 4.894,42.16755 1.857,13.499 3.0434,27.00206 5.5534,40.41206 3.2317,17.80307 4.8181,35.85443 7.3604,53.76501 2.2052,18.62504 6.6757,36.80488 11.1836,54.96599 2.5523,12.1648 7.5931,23.49995 11.7538,35.1412 4.3804,11.63075 8.4336,23.36152 12.1323,35.22686 2.3702,10.08116 6.5359,19.57117 9.8115,29.355314 4.0924,9.815019 5.8391,20.377925 7.9551,30.744929 2.2586,10.851604 6.8612,20.919851 10.6275,31.266738 3.2914,9.031808 7.3705,17.740299 10.7285,26.7360083 3.6657,8.8414239 9.6874,16.4361207 14.8119,24.4564747 6.6991,9.000038 10.7005,19.407739 14.9033,29.685927 4.5201,8.917389 9.8448,17.742519 16.4669,25.270132 5.8327,7.529082 12.2161,14.589078 18.7386,21.519148 9.919,10.679739 18.4661,22.516929 28.1826,33.368209 11.1474,11.03053 21.474,22.82204 32.0382,34.40143 8.1165,7.83425 16.6932,15.09346 25.7288,21.82538 9.0778,6.0227 18.0951,12.0102 26.986,18.2906 7.0251,4.92306 12.2739,11.80493 19.2321,16.78224 6.9428,6.36449 14.0254,12.37352 21.1918,18.46761 7.6905,6.55278 17.3355,10.64852 26.3985,15.0623 7.8458,2.61584 15.2437,6.33077 23.354,8.10246 7.9591,1.51316 15.9652,3.38579 23.2577,6.99888 8.6392,5.70573 18.2451,9.58956 27.1337,14.84823 8.3422,4.36963 17.2859,7.79213 26.3752,10.277 8.9727,3.44834 18.4987,4.99453 27.7868,7.38957 8.4645,3.36324 17.2877,5.5537 25.9873,8.18461 8.192,2.54559 16.2111,5.15647 24.7427,6.3798 7.2203,2.95265 14.7699,4.00303 22.4787,4.58428 8.8747,0.52528 17.7691,0.50796 26.6556,0.51 8.3699,-0.0143 16.7399,-0.0359 25.1098,-0.0464 5.5112,-0.003 2.7561,-0.003 8.2652,-0.007 0,0 -50.0685,16.2727 -50.0685,16.2727 l 0,0 c -5.5073,0.003 -2.7533,0.002 -8.2624,0.007 -8.3588,0.0112 -16.7179,0.0381 -25.0768,0.007 -8.9293,-0.064 -17.8733,-0.14307 -26.7702,-0.98769 -7.7519,-0.91665 -15.1501,-2.89308 -22.6605,-4.94841 -8.4725,-1.7458 -16.5839,-4.62924 -24.8859,-7.01965 -8.6047,-2.67483 -17.2945,-5.05456 -25.8176,-7.98991 -9.3477,-2.42043 -18.8863,-4.13549 -27.9453,-7.582 -9.1052,-3.07174 -18.1455,-6.52195 -26.423,-11.46316 -8.9958,-4.90088 -18.2609,-9.30564 -27.247,-14.22524 -7.5359,-2.76855 -15.4259,-4.34615 -23.2235,-6.2061 -7.9619,-2.51184 -15.6462,-5.93301 -23.2976,-9.24132 -9.2675,-4.82909 -19.1017,-8.98544 -26.7544,-16.30135 -7.0082,-6.1562 -14.2886,-11.97148 -21.2805,-18.14472 -6.5215,-5.38453 -12.1316,-11.80679 -19.0967,-16.66237 -8.7132,-6.52281 -18.0509,-12.07504 -26.8968,-18.41682 -9.0669,-6.96983 -17.6468,-14.59159 -25.5145,-22.89896 -10.3586,-11.67518 -20.6932,-23.36101 -31.6064,-34.52659 -9.732,-10.96096 -18.7883,-22.49932 -29.0153,-33.02336 -6.6198,-7.00697 -13.1151,-14.138529 -18.9355,-21.835598 -6.4417,-8.324023 -12.2969,-17.280191 -16.6881,-26.856628 -4.0018,-10.03161 -8.137,-19.970939 -14.6178,-28.73346 -5.425,-8.315792 -11.8908,-16.122358 -15.4543,-25.4921958 -3.3105,-8.9848203 -6.8838,-17.8733442 -10.3564,-26.7965092 -4.0353,-10.524082 -8.2298,-20.991566 -10.6376,-32.050778 -2.2511,-10.160955 -4.1147,-20.479616 -8.1863,-30.114613 -3.2184,-9.823037 -7.2026,-19.404998 -9.4567,-29.531408 -3.6189,-11.83002 -7.6663,-23.50115 -12.2012,-35.01151 -4.0853,-11.86053 -9.1525,-23.37518 -11.4609,-35.79158 -3.8655,-18.42415 -7.9708,-36.81044 -10.3729,-55.50427 -2.8342,-17.77942 -4.7518,-35.70518 -8.2729,-53.3648 -2.7928,-13.39713 -3.6581,-26.99208 -5.5306,-40.52797 -2.5503,-14.2903 -6.2735,-28.39529 -5.062,-43.05583 -0.098,-12.03255 -0.2517,-24.0646 -0.2337,-36.09769 0.1186,-12.22312 0.2265,-24.44587 0.1977,-36.6697 -0.068,-12.98271 0,-25.96535 -0.096,-38.94781 -0.069,-11.25095 -0.086,-22.50259 -0.069,-33.75359 0.036,-11.96536 0.1223,-23.92961 0.1906,-35.89497 0.1653,-15.24542 0.1076,-30.49056 0,-45.73642 -0.08,-13.4734 -0.1259,-26.94695 0,-40.42023 0.2912,-12.60244 0.6151,-25.21934 2.1137,-37.74984 1.351,-9.97489 3.0022,-19.88866 4.0086,-29.9096 1.4524,-8.77432 3.0403,-17.51562 4.7651,-26.23181 2.4143,-8.20542 5.4491,-16.25622 8.7776,-24.1275 3.1081,-8.34458 7.8188,-16.0116 10.2324,-24.62342 3.5162,-9.4115 7.6728,-18.54964 11.2195,-27.94698 3.2736,-9.60153 7.462,-18.85291 10.7329,-28.45479 5.1784,-11.98887 10.2098,-24.03311 16.1061,-35.70347 4.7894,-9.78775 9.9501,-19.30335 15.7772,-28.50872 4.4622,-8.96703 8.8002,-18.03436 14.6444,-26.2116 5.1057,-7.5334 11.3112,-14.24254 16.8235,-21.46673 5.9333,-6.60808 12.0511,-12.98325 17.1479,-20.32137 6.3025,-5.82298 13.1105,-11.13302 19.6096,-16.75537 6.4723,-6.21121 14.446,-10.78281 22.4636,-14.71411 8.6324,-5.6666 14.6167,-14.7018 25.0911,-17.3031 10.3669,-2.6595 20.5248,-6.0606 30.8572,-8.8549 8.6802,-2.0891 17.4682,-3.8541 25.8722,-6.918 4.2211,-0.908 8.367,-2.5869 12.5626,-3.4165 19.9911,-3.954 42.7059,-10.0733 64.259,-11.2027 9.4631,0 18.9266,0.036 28.3897,-0.036 8.9325,0 17.8657,-0.036 26.7976,0.1076 8.4666,0.1689 16.9954,0.2733 25.3175,2.0271 7.2681,1.6677 14.4614,3.5443 21.8367,4.7068 8.531,2.3575 16.8887,5.366 25.283,8.1492 7.707,2.7498 15.4497,5.6361 22.46,9.9178 6.0839,3.7283 12.3764,7.4257 16.7665,13.1976 3.9421,5.3064 8.5349,9.9456 13.1187,14.7073 5.1223,5.91464 10.0713,12.01225 14.3772,18.55125 4.7403,7.88033 10.0629,15.38107 13.5858,23.95332 4.2074,9.30498 7.5218,18.88889 11.587,28.24704 3.8209,8.91635 7.5689,17.85785 10.021,27.27352 2.8493,10.99741 7.3788,21.46997 9.5063,32.65467 2.9492,11.46797 5.8031,22.96004 8.4224,34.50639 3.011,11.95508 5.8406,23.94863 9.6083,35.6952 3.0078,9.76254 5.4879,19.70535 9.4042,29.17121 3.945,9.5237 8.6522,18.70049 11.9407,28.46735 3.3242,10.40712 4.9731,21.22454 8.5245,31.55902 3.3864,9.58992 5.9268,19.40777 8.4976,29.24149 2.1925,10.9946 4.7872,21.92587 7.6078,32.77172 3.0056,11.36722 4.7312,22.99117 7.4129,34.43355 2.9445,13.12058 5.2136,26.38657 8.0662,39.52691 3.7778,14.83075 7.9134,29.5692 11.5658,44.43313 3.3607,14.66138 7.2512,29.18376 10.7964,43.79731 3.8271,15.96735 7.1175,32.06218 10.0354,48.21947 2.679,12.59773 5.4333,25.17294 7.4608,37.89635 2.4182,11.47434 4.3692,23.02557 6.9486,34.46867 1.8161,12.0686 3.7027,24.13916 5.947,36.1291 2.9628,12.28305 5.3961,24.71424 7.0768,37.23817 1.8028,12.3081 2.6588,24.69255 4.5622,36.98892 2.5423,15.20689 4.1701,30.54421 7.2591,45.66147 2.7641,16.53753 7.4622,32.58357 11.1758,48.91999 2.8628,14.95547 5.7399,29.92826 10.1558,44.52266 4.2221,13.57913 8.1043,27.260327 12.4407,40.805561 4.5942,13.50558 8.4879,27.235478 12.7208,40.855555 4.6065,14.38317 9.2198,28.7563705 14.1828,43.0221162 4.1881,13.2737938 8.842,26.4006588 12.7248,39.7739448 4.9631,16.829033 10.8503,33.303327 16.7654,49.807674 4.7732,12.832869 8.981,25.837549 13.0787,38.899269 4.3164,11.83661 8.7621,23.66231 11.7987,35.90669 4.5203,13.34907 10.2925,26.28724 13.5643,40.03781 4.1136,13.5544 7.867,27.21841 12.5212,40.60321 4.4562,11.46086 9.0939,22.82081 12.8796,34.5286 3.4659,9.07153 5.8497,18.50547 8.5246,27.83241 3.7254,11.79299 8.2427,23.32381 11.84,35.16213 4.5256,13.0321 8.7629,26.16234 13.4049,39.15491 4.7003,13.33873 8.0914,27.1024 13.4588,40.21898 3.7527,11.55569 8.2208,22.85902 12.4648,34.24036 3.9976,11.18722 8.273,22.27379 12.4143,33.40888 3.7544,10.27556 8.184,20.27935 11.9938,30.53441 3.4439,9.86863 6.575,19.8354 10.0624,29.6828 3.7649,9.08207 6.5531,18.53836 10.7601,27.43781 3.3541,7.47048 7.2351,14.71629 11.4073,21.76043 4.9095,8.67945 8.3907,18.11093 13.3642,26.77707 5.4074,10.76518 9.5638,22.09836 14.9475,32.8833 3.9763,9.04864 8.4318,17.83664 12.6604,26.76018 1.4778,3.84434 3.2717,8.25236 2.4406,12.513 -3.8746,19.86703 -78.4878,18.74075 -58.1769,16.64063 -8.9986,0.33792 -18.0102,0 -27.0135,0.0862 -13.3808,-0.0503 -26.7617,-0.10429 -40.1425,-0.0396 -11.0977,0.036 -22.1954,0.0719 -33.2931,0.036 -11.362,-0.036 -22.7249,-0.0647 -34.0846,0.18693 -10.6449,0.31994 -21.2993,0.78225 -31.8381,2.42798 -10.8103,1.42679 -21.6144,1.80425 -32.5198,1.54722 -9.5752,0.13301 -19.1668,0.25883 -28.6938,1.33262 -11.8088,1.3549 -23.5586,3.33926 -35.4597,3.7383 -18.4697,1.68563 -51.9368,8.09814 28.9856,-6.22416 2.208,-0.39075 -4.4123,0.80382 -6.5997,1.29596 -4.3254,0.97277 -8.7212,2.2813 -12.9833,3.48809 -29.11,7.19333 -54.4722,20.82398 -86.5179,19.28861 89.052,-15.9515 37.9359,-7.0826 17.4725,-2.29855 -9.8539,2.92873 -19.6748,5.79671 -29.8701,7.31015 -11.2796,2.90394 -22.1785,7.08548 -33.5351,9.69571 -10.401,3.31087 -20.647,7.12753 -31.4582,8.94438 -11.4742,1.83518 -22.4594,5.05007 -32.1104,11.79152 -9.0447,4.86888 -18.1815,9.54113 -27.275,14.30361 -8.654,4.99003 -17.5103,9.72697 -26.5276,14.00343 -9.1799,5.25425 -19.2081,8.61437 -28.435,13.73705 -8.472,4.26136 -16.6633,9.05691 -24.9926,13.57062 -8.2898,4.42924 -16.4271,9.00585 -24.7262,13.38728 -10.423,5.38367 -22.0114,8.09131 -31.6869,15.00245 -8.3861,5.92576 -16.6501,11.88099 -25.9168,16.39973 -9.387,4.87607 -18.5978,10.05555 -28.6065,13.6292 -9.5523,4.95085 -20.0515,7.63802 -29.7651,12.29013 -9.3863,4.51156 -18.2145,10.04801 -27.6032,14.55166 -8.2,3.3389 -16.7733,5.74603 -24.8121,9.52279 -8.0181,4.142 -16.3941,7.60026 -24.787,10.89388 -8.3649,3.83248 -16.3994,8.77471 -25.5688,10.44739 -9.6864,2.93808 -19.115,6.92479 -28.159,11.44318 -8.1664,4.03164 -16.9041,6.78675 -24.788,11.39321 -8.1162,3.6714 -16.1144,6.9981 -24.7474,9.32863 -8.5986,2.05951 -16.49,5.80781 -24.7952,8.75601 -4.1949,1.0264 -8.2261,2.55158 -12.3904,3.62218 -19.9242,5.1223 -51.7172,0.4016 -63.6622,11.1743 -20.1417,2.295 -3.0913,0.4389 43.0507,-7.9302 7.6028,-1.379 -23.3534,3.5492 -16.1838,3.9061 -7.5617,3.1386 -15.482,5.3718 -23.0251,8.5903 -8.1172,3.6294 -16.9735,5.5076 -24.9218,9.6382 -4.0743,1.2913 -7.9302,3.1933 -11.983,4.4839 -21.1907,6.7475 -48.5372,3.7292 -66.6111,13.0375 -11.006,0.8728 -22.0724,-0.036 -32.9743,-1.7127 -9.9149,-1.8006 -19.703,-4.2904 -29.2823,-7.4269 -9.956,-3.3598 -20.1758,-5.4923 -30.4402,-7.6797 -10.6724,-2.8152 -21.2953,-5.7979 -31.9958,-8.4961 -9.8589,-2.5585 -19.8109,-4.2524 -29.9204,-5.484 -10.8255,-2.0404 -21.5587,-4.6198 -32.5464,-5.7022 -9.9413,-0.8746 -20.1194,-0.9825 -29.6163,-4.4148 -7.9993,-3.1963 -16.0543,-5.99338 -24.6662,-7.08268 -9.04,-1.99 -18.0876,-3.8497 -27.1984,-5.4954 -9.7051,-1.4204 -19.5484,-2.39666 -28.6748,-6.29999 -8.2994,-2.82271 -16.5489,-5.78163 -24.8153,-8.69923 -7.9364,-2.49376 -16.1007,-3.99137 -24.0554,-6.41791 -7.2049,-1.92721 -13.9082,-4.62659 -20.296,-8.52809 -6.6957,-3.1545 -13.1539,-6.68035 -19.6865,-10.15047 -6.4988,-3.3709 -12.5159,-7.65957 -19.4942,-10.05878 -8.9833,-3.2264 -18.13,-5.95526 -27.2365,-8.81138 -9.56994,-3.37198 -18.8659,-7.30045 -28.1438,-11.39644 -9.29101,-3.73219 -17.5081,-9.11118 -26.16278,-14.06455 -7.11821,-3.45718 -14.42113,-6.70945 -20.88656,-11.32346 -5.79091,-3.68042 -12.07366,-6.57142 -17.59251,-10.71306 -8.51696,-6.61814 -16.93894,-13.36063 -24.58423,-20.99577 -10.08998,-9.01016 -20.06939,-18.29318 -29.1705,-28.2923 -6.98947,-8.21067 -13.11333,-17.14104 -20.78766,-24.78263 -7.96802,-9.30064 -16.35445,-18.21949 -22.6879,-28.79343 -5.9811,-9.19351 -11.39217,-18.69726 -18.56063,-27.06035 -5.78159,-8.3807 -10.34645,-17.5433 -14.9187,-26.62428 -5.22661,-9.47894 -8.65647,-19.57117 -12.09351,-29.81581 -4.25232,-11.43311 -11.24079,-21.5318 -15.38455,-33.02997 -4.5062,-11.06428 -10.80612,-21.28915 -13.71115,-32.99367 -3.37638,-10.81048 -8.41526,-20.96597 -11.98922,-31.70994 -4.1783,-10.94205 -8.14779,-21.96031 -11.44825,-33.20109 -2.56244,-9.6328 -6.65484,-18.79144 -8.66903,-28.59355 -2.52252,-11.16027 -5.30173,-22.33095 -9.2571,-33.07492 -3.78434,-9.72339 -7.05676,-19.64629 -10.43414,-29.51276 -3.32524,-10.01888 -6.88238,-19.95437 -9.74997,-30.11705 -2.64688,-10.82234 -6.25438,-21.42539 -7.75193,-32.50837 -2.28814,-11.64124 -4.86752,-23.21275 -6.92017,-34.90073 -1.62382,-9.84238 -4.64414,-19.18831 -7.58405,-28.69026 -2.57613,-10.123 -4.56979,-20.39646 -7.44568,-30.44968 -2.80758,-11.05591 -5.18096,-22.20376 -7.98316,-33.26167 -2.55236,-8.6655 -5.93972,-17.03322 -6.21693,-26.19923 -1.51168,-8.5286 -3.82281,-16.88907 -4.82895,-25.50654 -1.92761,-9.65842 -3.67288,-19.338 -5.75906,-28.95451 -2.8068,-9.83508 -5.35915,-19.76895 -7.10554,-29.85176 -2.4567,-11.08134 -5.41321,-22.04492 -7.88504,-33.12484 -1.93614,-10.13978 -4.28753,-20.18121 -5.5202,-30.44821 -1.78238,-13.459389 -1.96282,-27.123827 -4.57124,-40.495218 -1.89666,-12.951722 -3.40329,-26.0087 -4.5773,-39.038574 -1.15086,-14.566454 -3.53287,-28.9448348 -6.24121,-43.298164 -2.56356,-19.259162 -5.68425,-38.45502 -7.10307,-57.848696 -1.80112,-14.474936 -4.66938,-28.723222 -8.20712,-42.873148 -2.84897,-12.1267 -2.78998,-22.98657 -2.47183,-35.36815 -0.0359,-12.24285 0.19052,-24.48556 0.10765,-36.7288 -0.0751,-10.82072 -0.29123,-21.63774 -0.29123,-32.458 0.0359,-9.68277 0.0684,-19.36546 0.0897,-29.04823 -7.8e-4,-9.59013 -0.25164,-19.20797 0.64987,-28.76909 1.09719,-9.67292 3.20849,-19.12176 5.90024,-28.47729 2.20796,-12.26313 5.28166,-24.40259 5.94308,-36.89201 -0.0505,-10.43385 -0.0359,-20.89522 0.95186,-31.29175 1.11088,-9.73633 3.04342,-19.32852 4.28259,-29.03109 1.40738,-10.87439 3.80801,-21.56487 5.26327,-32.42625 1.26934,-8.71053 2.80008,-17.3495 3.95828,-26.06942 2.03908,-8.95143 3.79949,-17.79879 4.27542,-27.01588 1.36634,-10.9579 2.52174,-21.84638 1.83016,-32.91537 -0.1043,-9.83917 -0.0606,-19.68044 -0.1043,-29.5197 0.10766,-10.45792 0.17259,-20.95252 1.33259,-31.35653 1.66486,-12.14492 4.46415,-23.96116 8.50048,-35.55223 2.79211,-11.72573 4.65815,-23.66654 7.48335,-35.39205 3.36628,-11.22684 6.64408,-22.45795 9.14754,-33.91467 3.43412,-11.9424 7.27308,-23.75955 10.88888,-35.65046 2.51747,-8.9282 5.33549,-17.76873 7.74183,-26.71663 2.72315,-9.85353 4.81213,-19.86167 8.07804,-29.56385 2.78931,-9.42235 6.32302,-18.61467 8.3113,-28.26797 2.38627,-8.20528 4.73161,-16.44111 7.80374,-24.43573 2.85502,-9.21256 6.49852,-18.20799 10.50176,-26.97478 3.29182,-8.03381 7.34385,-15.64988 11.75765,-23.11965 3.7941,-8.94798 8.82401,-17.32761 11.31379,-26.80907 2.91289,-9.16008 4.59995,-18.66813 8.751,-27.40042 3.37234,-9.19745 7.77784,-17.96069 11.17529,-27.15376 2.41834,-7.8847 5.57963,-15.55174 8.9588,-23.06649 2.66809,-8.18805 7.07179,-15.39576 10.17129,-23.38892 3.44175,-8.1783 6.01462,-16.5148 9.16761,-24.7862 4.53278,-7.1927 8.05864,-15.0308 12.28191,-22.4155 0,0 52.84839,-4.9149 52.84839,-4.9149 z"
       id="path4308"
       style="fill:#000000;stroke:none;stroke-width:1;stroke-miterlimit:4;stroke-dasharray:none;stroke-opacity:1" />
    <path
       d="m 685.35399,-758.07905 c 0.0976,9.43049 -0.75887,18.68391 -2.11814,27.99979 -1.3272,10.80624 -4.3002,21.36299 -7.55602,31.72827 -3.13762,11.16612 -6.63724,22.20753 -10.23386,33.23359 -3.55636,9.42973 -7.85084,18.55709 -11.8616,27.79895 -5.01768,11.86133 -11.20916,23.15678 -16.82792,34.73386 -6.45423,12.45568 -13.04537,24.82531 -19.06146,37.50296 -5.46849,11.14771 -10.77517,22.34666 -15.61499,33.78195 -5.22661,12.28157 -11.10207,24.26865 -16.88972,36.29059 -4.79452,11.28007 -10.49918,22.06247 -16.17873,32.90656 -6.0181,11.89491 -10.16982,24.60333 -15.3306,36.8941 -5.87804,13.275 -11.63451,26.56709 -18.12316,39.56033 -7.87708,15.85336 -14.9482,32.13086 -21.49124,48.58144 -6.56637,17.27486 -14.21445,34.0902 -22.27051,50.71142 -7.19077,15.09656 -13.88846,30.41147 -21.07418,45.50915 -7.6851,15.44174 -15.18045,30.9707 -22.78929,46.44964 -5.47645,12.81793 -12.10674,25.05168 -19.28506,36.98131 -7.31548,12.26276 -15.73577,23.80371 -23.89938,35.50284 -10.15827,12.7905 -18.46172,26.749603 -26.41898,40.960759 -5.50449,10.441893 -10.94708,20.948705 -15.55646,31.823029 -4.11931,9.355999 -9.00153,18.375651 -14.04758,27.26191 -5.03753,8.844261 -7.88247,18.6471692 -12.10181,27.8705152 -3.16061,6.8288788 -5.52243,14.0041188 -8.02264,21.0988748 -2.61594,6.384157 -5.62594,12.599461 -7.97588,19.092104 -2.85615,7.663574 1.25061,13.725345 6.00947,19.425895 6.13148,5.831263 12.95341,10.817703 19.37601,16.325179 6.76374,4.248557 11.97161,10.570345 18.99417,14.377625 5.62852,4.179569 11.75305,7.326269 17.03785,11.972119 7.46115,4.75122 13.64466,10.84484 18.84828,17.94956 5.29019,7.73834 12.39618,14.04201 19.06639,20.56808 7.12932,5.84159 13.38583,12.52304 21.17668,17.53187 7.57149,2.74202 14.4495,6.66815 21.22445,11.0077 6.30462,6.20613 14.71808,9.15227 22.25795,13.39435 7.11676,3.95266 14.70149,7.18175 21.49371,11.68004 6.5279,2.61692 11.87416,7.35419 18.04578,10.50276 7.82965,2.26728 15.35942,5.31928 22.98665,8.18158 6.92657,4.11745 14.51892,6.83621 21.64835,10.55463 7.43524,2.38365 13.95843,6.25967 20.57156,10.25943 6.93273,2.7817 14.28925,4.16098 21.34377,6.68338 7.20412,2.88209 15.02726,3.22597 22.34755,5.56245 0,0 -50.50642,14.92109 -50.50642,14.92109 l 0,0 c -7.47415,-1.71259 -15.00864,-3.19018 -22.23574,-5.83359 -7.48235,-2.16114 -15.34675,-3.6507 -22.04904,-7.79961 -6.39097,-4.01668 -13.34781,-6.75413 -20.21719,-9.8308 -7.18359,-3.30972 -14.35037,-6.64576 -21.45995,-10.10423 -7.7997,-3.02411 -15.9439,-5.2073 -23.43993,-8.93223 -5.8722,-3.7722 -11.89894,-7.22776 -17.96605,-10.6715 -7.02368,-3.97557 -14.27445,-7.53843 -21.36283,-11.39709 -7.80262,-3.99253 -15.45508,-8.20582 -22.35967,-13.66699 -6.96189,-4.04717 -14.20189,-7.42066 -21.21727,-11.3277 -7.53483,-5.61069 -14.17207,-12.19084 -21.18924,-18.417 -6.91221,-6.67362 -14.01383,-13.25911 -19.41874,-21.2734 -5.33583,-6.63537 -11.78176,-11.85709 -18.75475,-16.70832 -5.44696,-4.08714 -11.47662,-7.29711 -16.95475,-11.35186 -6.51972,-4.72829 -12.29447,-10.422059 -18.8522,-15.118419 -6.79144,-5.52035 -13.87657,-10.727329 -19.69742,-17.32847 -5.47993,-7.103817 -9.77194,-15.40263 -7.0682,-24.578059 2.04514,-6.565041 4.6899,-12.995288 7.89682,-19.072591 2.33738,-7.389925 5.32181,-14.581886 8.14207,-21.79023 4.69057,-9.2056958 7.7322,-19.065504 12.51764,-28.224032 4.79093,-8.783874 9.42217,-17.652403 13.79425,-26.645858 4.6345,-11.207105 10.65406,-21.790668 16.25701,-32.529176 8.15205,-14.177861 16.09059,-28.490135 26.24068,-41.392705 7.95872,-11.73342 16.59253,-23.02209 23.84442,-35.22127 7.3231,-11.73773 13.91896,-23.90987 19.57619,-36.54305 7.70416,-15.46302 15.50397,-30.86098 23.07468,-46.38813 7.106,-15.14352 13.59442,-30.56135 21.05198,-45.53957 7.9133,-16.61971 16.1452,-33.07857 22.60481,-50.3441 6.24608,-16.60414 13.15762,-33.00309 20.85416,-48.98143 6.37011,-12.91549 12.123,-26.05968 17.96751,-39.20736 5.17086,-12.39002 9.51413,-25.07856 15.04307,-37.28791 5.56661,-10.86584 11.69192,-21.41824 16.25341,-32.7784 5.8259,-11.90836 11.85701,-23.73708 16.93839,-35.99006 4.71748,-11.58693 10.00441,-22.87208 15.59447,-34.05994 6.12094,-12.64666 12.69022,-25.06954 19.21172,-37.51422 5.41916,-11.51212 11.62577,-22.64196 16.34549,-34.47129 3.91331,-9.16616 7.95895,-18.27565 12.10316,-27.34229 3.57576,-11.04112 7.35977,-22.00909 10.27838,-33.24908 3.4062,-9.99262 5.92435,-20.35211 7.41225,-30.79998 1.3032,-9.04036 2.70408,-17.98949 1.6246,-27.15679 0,0 52.42282,-8.30295 52.42282,-8.30295 z"
       id="path4312"
       style="fill:#000000;stroke:none;stroke-width:1;stroke-miterlimit:4;stroke-dasharray:none;stroke-opacity:1" />
    <path
       d="m 1591.71,-813.309 c -3.9856,3.92775 -7.4041,8.34619 -10.7239,12.83259 -2.9294,4.32965 -5.7938,8.6662 -8.967,12.83201 -4.1837,5.31425 -9.3006,9.7611 -14.2264,14.359 -5.6054,5.07653 -10.269,11.06507 -15.2547,16.72694 -6.0872,7.45463 -13.1831,13.9135 -20.0381,20.63219 -7.1395,6.72006 -14.5838,13.10116 -21.9996,19.50968 -5.2323,4.06443 -10.1522,8.34186 -14.6246,13.2299 -6.1188,7.47494 -12.0669,15.07179 -18.5208,22.26558 -6.1641,6.63045 -12.1315,13.47395 -17.7747,20.55519 -4.8521,6.52183 -10.441,12.44456 -15.7358,18.59979 -8.0098,9.4853 -15.7589,19.19395 -23.3459,29.02073 -6.2823,7.94002 -11.51,16.61763 -17.4314,24.81352 -5.9909,7.63063 -10.9637,15.98227 -16.6148,23.85843 -6.6074,8.65295 -12.7251,17.6015 -18.603,26.75716 -4.9092,7.67176 -10.9374,14.51897 -16.7754,21.47967 -8.393,9.90217 -16.2697,20.19534 -24.9567,29.8491 -10.2159,11.32141 -21.6339,21.44908 -32.5731,32.04746 -10.639,9.73676 -20.729,20.0359 -30.8968,30.25758 -9.8815,11.24549 -20.6452,21.65729 -30.8895,32.55959 -9.0009,10.16961 -18.6887,19.75 -27.0618,30.45551 -5.5379,8.27106 -11.1438,16.4652 -17.1238,24.4244 -7.1193,10.05614 -15.8253,18.76217 -24.7269,27.21597 -10.2799,9.74327 -19.7462,20.24955 -28.9106,31.03044 -6.4614,7.53609 -13.3079,14.62068 -19.1762,22.64103 -5.8735,7.94253 -11.7508,15.8787 -17.4587,23.94194 -4.9398,7.75542 -9.3047,15.84883 -13.7285,23.9029 -3.9518,6.66035 -7.9267,13.30931 -11.5769,20.14138 -3.4953,5.85058 -7.6297,11.26923 -11.1976,17.08496 -3.8746,7.69739 -9.5793,14.1927 -14.7998,20.97564 -4.5568,5.74041 -8.7948,11.73205 -12.8753,17.81812 -4.8121,5.9876 -10.2598,10.21201 -14.8752,16.46726 -3.3292,3.99784 -6.7965,7.94795 -10.82104,11.26112 -5.60856,3.0978 -9.70096,8.016004 -13.96696,12.671076 -5.4718,6.908028 -12.12336,12.833658 -17.29602,19.96476 -2.65227,5.804516 -6.31147,10.552072 -11.05452,14.762378 -4.77433,2.952543 -9.06488,6.127127 -12.30489,10.756092 -2.96324,6.382217 -4.66758,13.214179 -7.62219,19.620664 -3.21488,6.173632 -7.95546,11.646321 -9.04537,18.6619494 0.46942,8.4924718 6.59586,14.1057078 12.67721,19.2955066 6.57141,4.946283 13.67056,8.858639 20.96383,12.575228 6.86332,3.602877 13.54405,7.422861 20.09175,11.578879 9.054,4.085738 17.35986,9.462937 25.6173,14.922539 9.0005,5.683762 18.7098,10.209557 27.6338,15.986857 10.2061,5.334238 18.8557,12.831192 28.1024,19.540392 11.3382,7.56274 19.3868,17.185039 27.6985,27.735609 6.3741,10.88006 12.2449,22.00646 19.106,32.60538 5.4319,8.23558 11.299,16.18113 18.7649,22.68428 5.902,5.67344 13.4843,8.84225 20.0697,13.56094 1.3585,0.97104 2.7623,1.88184 4.0759,2.91314 2.8816,2.26239 5.5419,4.79608 8.3958,7.0931 4.3634,3.51142 9.0328,6.53604 13.4728,9.94609 9.2719,7.30473 18.1199,15.10328 27.7905,21.90523 13.1795,8.48327 26.4625,16.79694 39.5295,25.45445 14.4588,9.45176 28.7787,19.09203 42.7782,29.2132 13.0022,8.33314 24.2872,17.50153 34.7025,28.86233 9.3705,10.204 18.1232,20.96742 28.0663,30.62347 11.377,10.4483 22.6077,21.05063 33.8234,31.67129 11.1954,8.75063 22.0558,17.73096 31.7574,28.13558 12.5435,11.64233 23.7789,24.56981 35.3453,37.15508 13.3107,13.489 27.4134,26.2026 41.8953,38.42155 14.3385,11.67971 28.7262,23.31019 42.8483,35.25088 12.0755,10.34063 23.9627,20.86028 35.6636,31.62223 10.7288,8.64493 20.7884,17.96786 30.8557,27.36051 9.0247,9.0285 17.7249,18.28996 27.4433,26.59697 10.1281,9.01556 20.5054,17.75827 30.3245,27.11318 9.7773,9.18992 20.3217,17.49154 29.5766,27.22751 7.049,7.21597 14.5075,14.02428 21.2572,21.52497 6.0233,8.4393 13.5862,15.41262 21.3557,22.1796 6.5082,5.68168 12.5831,11.82386 18.7759,17.85137 6.1455,6.49628 13.5189,11.53484 20.2514,17.38154 -3.5643,2.63431 8.0209,0.58057 6.5473,0.81854 -73.6113,11.88247 -40.4375,12.66974 -32.2797,3.88713 2.62,-4.37998 4.2433,-9.22837 6.937,-13.58967 3.225,-5.40416 8.1517,-8.63521 13.6842,-11.27636 5.1989,-2.08647 9.6489,-5.14894 13.8126,-8.83942 4.4982,-4.77937 9.0194,-9.5573 13.2873,-14.54518 4.0471,-4.97673 7.537,-10.3737 11.344,-15.53269 3.9565,-4.83402 6.3801,-10.56782 9.4372,-15.94179 3.6538,-5.11693 7.4978,-10.09366 11.2933,-15.10562 3.7674,-4.3922 7.5204,-8.79483 11.244,-13.22406 3.6401,-4.65607 7.1624,-9.40165 10.9298,-13.95635 4.9138,-5.92434 10.7246,-10.97692 15.9051,-16.65357 5.4675,-6.67817 11.0869,-13.19818 17.0717,-19.4155 5.0102,-4.99686 9.5731,-10.36004 13.9858,-15.88031 3.5,-4.89261 7.4147,-9.49153 10.2965,-14.79 2.9243,-5.5972 6.552,-10.63577 8.8142,-16.56477 2.5268,-6.98735 5.7158,-13.72017 9.0292,-20.36419 3.5111,-5.99912 6.8068,-12.128 10.4859,-18.02645 3.9141,-5.43508 7.4474,-11.12216 11.1573,-16.69419 2.3258,-4.733 4.7359,-9.34809 7.5392,-13.83053 3.0477,-5.23196 4.1516,-11.14911 7.1947,-16.39366 2.4477,-4.86492 4.7675,-9.78019 7.3824,-14.5689 3.0762,-5.68277 5.9884,-11.44965 8.9642,-17.18454 2.1472,-5.08781 5.4379,-9.50842 8.3364,-14.15585 2.5439,-4.449 3.8588,-9.29632 5.2767,-14.16737 2.1486,-5.33117 4.6783,-10.38413 8.0283,-15.05277 3.8786,-5.57959 6.9587,-11.64017 10.3119,-17.53288 3.5467,-5.05516 7.0707,-10.11051 10.1778,-15.45137 0,0 36.9632,-3.94349 36.9632,-3.94349 l 0,0 c -2.9263,5.48529 -6.3335,10.71902 -10.1646,15.61645 -3.7983,5.67902 -6.5005,12.04769 -10.3007,17.74519 -3.0563,4.50291 -5.8909,8.9095 -8.014,13.95597 -1.8269,4.92857 -2.4837,10.25723 -5.1213,14.89065 -2.5297,4.90196 -6.5706,8.85919 -8.5841,14.07642 -3.0682,5.69965 -5.8712,11.5388 -8.9041,17.25714 -2.7005,4.76787 -5.0757,9.66444 -7.2207,14.69437 -0.8912,1.40415 -1.9775,2.69076 -2.7508,4.16321 -2.0355,3.87671 -2.1649,8.53888 -4.4997,12.31277 -2.8845,4.47094 -5.6091,8.94151 -7.569,13.89703 -3.6667,5.61698 -7.4251,11.18399 -11.3058,16.66255 -3.7832,5.72914 -6.8576,11.87457 -10.5323,17.67344 -3.4075,6.44308 -6.552,13.06373 -9.1402,19.87781 -2.079,6.31653 -4.9908,11.45144 -8.5404,16.99148 -2.6556,5.76005 -6.7177,10.48119 -10.4013,15.58878 -4.4689,5.59037 -8.8297,11.23646 -13.9949,16.22434 -5.9826,6.20689 -12.0945,12.27394 -17.2535,19.23324 -4.8521,5.90673 -10.5786,10.8493 -15.6262,16.56406 -3.803,4.5094 -7.3422,9.23808 -10.8554,13.95742 -3.7153,4.43966 -7.3367,8.9221 -11.271,13.16187 -4.0439,4.66254 -7.3069,9.96604 -11.3145,14.66957 -3.6142,5.12448 -5.4049,11.33713 -9.4437,16.24268 -3.9349,5.15719 -7.4916,10.57249 -11.4507,15.70416 -4.0885,5.18667 -8.8131,9.83087 -13.0188,14.92696 -3.8911,4.1758 -8.3886,7.92415 -13.7791,9.98869 -5.0346,2.67099 -10.7695,4.06795 -13.7553,9.47211 -3.3225,3.96765 -4.7712,8.95876 -6.8218,13.63209 0,0 -2.3794,4.01546 -2.429,4.02732 -18.6512,4.35302 -31.611,13.97216 -44.9451,3.65238 -6.771,-5.81505 -13.9409,-11.16097 -20.1654,-17.58824 -6.2918,-5.87113 -12.2207,-12.11684 -18.7595,-17.72087 -7.6937,-6.955 -14.8406,-14.41649 -21.2564,-22.58403 -6.905,-7.32165 -14.3414,-14.11811 -21.1884,-21.49909 -9.039,-9.69247 -19.4209,-17.95886 -28.9578,-27.14482 -10.0103,-9.23448 -20.5871,-17.83627 -30.7595,-26.89353 -9.4419,-8.59533 -18.2317,-17.7687 -27.2814,-26.75982 -9.9552,-9.48073 -20.2617,-18.49737 -30.7908,-27.3339 -11.5473,-10.65878 -22.978,-21.43403 -34.9315,-31.64489 -14.1599,-11.96119 -28.7902,-23.36158 -43.041,-35.21672 -14.42,-12.39653 -28.4422,-25.29923 -41.7357,-38.89896 -11.7088,-12.62947 -23.51,-25.16476 -36.0953,-36.93507 -9.7622,-10.1972 -20.7294,-18.93632 -31.5194,-28.00507 -11.1387,-10.76914 -22.5941,-21.19424 -34.0139,-31.66321 -9.9304,-9.74809 -18.5592,-20.6969 -28.1356,-30.79157 -10.1921,-10.86735 -21.6238,-20.13842 -34.1415,-28.2584 -14.0135,-10.0053 -28.169,-19.80476 -42.681,-29.079 -13.277,-8.59765 -26.7567,-16.87239 -40.0426,-25.45362 -9.713,-6.90454 -18.7259,-14.65378 -28.1413,-21.94003 -8.7316,-6.53274 -17.2658,-13.3189 -26.0926,-19.70684 -6.9797,-4.42574 -14.4984,-8.08103 -20.348,-14.08165 -7.1614,-7.09411 -13.1087,-15.18112 -18.4679,-23.70946 -6.6376,-10.59339 -12.4494,-21.6215 -18.9612,-32.27376 -8.152,-10.45635 -16.345,-19.3943 -27.5452,-26.763099 C 1016.8105,88.7362 1007.7327,81.859695 997.64376,76.404085 988.5599,70.919263 979.1242,66.020899 970.17189,60.311714 961.76988,54.955866 953.12855,50.05804 944.24353,45.545735 937.64879,41.531387 930.84155,37.95687 924.04069,34.308867 c -7.39632,-3.830648 -14.3913,-8.358888 -20.93063,-13.529342 -6.8317,-6.206143 -13.00882,-13.0307708 -13.62347,-22.7137203 0.10766,-1.381904 0,-2.7945348 0.32353,-4.1457455 1.32003,-5.7734872 5.74605,-10.6599532 8.56406,-15.7000992 3.01349,-6.5122 5.30062,-13.242259 7.49995,-20.06128 2.87263,-5.212631 6.47576,-9.617593 12.10136,-12.026662 5.02419,-3.52606 9.02632,-7.942135 11.38601,-13.683314 4.93144,-7.536843 11.92204,-13.254875 17.39839,-20.404054 4.03386,-4.838402 7.93248,-10.249895 13.32729,-13.61662 4.55364,-2.31373 7.48806,-6.64864 11.21342,-10.03554 2.2878,-2.93503 4.1877,-6.25489 6.8791,-8.85394 10.6182,-10.25312 -4.6506,5.44787 5.639,-4.67609 0.8653,-0.85148 1.6083,-1.81914 2.4122,-2.72871 4.1419,-6.15388 8.31296,-12.3072 12.97996,-18.07912 5.19484,-6.66398 11.08074,-12.94403 14.88954,-20.54378 3.4108,-5.81944 6.8223,-11.5602 11.0304,-16.8564 3.5888,-6.94668 7.7193,-13.59988 11.815,-20.2558 4.5773,-8.13033 8.9871,-16.34467 13.8387,-24.32224 5.7443,-8.04848 11.4206,-16.1412 17.4631,-23.97193 5.8888,-8.24195 12.3383,-15.71283 19.4029,-22.97743 9.4405,-10.7754 18.9885,-21.4373 29.2861,-31.4147 8.6387,-8.26291 17.0788,-16.74553 24.0237,-26.52952 5.9233,-8.10017 12.127,-15.99223 17.4225,-24.5401 8.45,-10.8891 18.3543,-20.49349 27.473,-30.81295 10.1653,-10.99424 21.0674,-21.29763 30.8526,-32.64528 10.0157,-10.39531 20.1999,-20.65042 30.9007,-30.34519 10.8662,-10.62463 22.3177,-20.64869 32.6461,-31.81653 8.573,-9.50213 16.178,-19.74019 24.2761,-29.6324 5.6594,-6.97044 11.6164,-13.71146 16.7747,-21.07022 6.0768,-9.12991 12.0827,-18.24448 18.7839,-26.94114 5.6526,-7.8161 10.3557,-16.27635 16.2696,-23.87939 6.212,-8.13932 11.6137,-16.84902 17.8953,-24.9412 7.6455,-9.7285 15.3245,-19.42888 23.0362,-29.10363 5.0134,-6.28354 10.4823,-12.1866 15.4763,-18.46933 5.6015,-7.31498 11.903,-14.1266 18.1695,-20.86845 6.4726,-7.00542 12.3556,-14.469 17.9588,-22.18793 4.4642,-5.09429 9.0045,-9.98949 14.7487,-13.70057 7.4004,-6.4907 15.2124,-12.52843 22.3741,-19.30956 6.7145,-6.65898 13.7701,-12.94059 19.6751,-20.3533 5.0669,-5.68539 9.7154,-11.76722 15.1969,-17.05789 4.7484,-4.51237 9.8689,-8.76657 13.9434,-13.90144 3.5758,-3.8307 6.2762,-8.32561 9.0767,-12.72155 3.5891,-4.28004 6.6623,-9.03245 10.3176,-13.24347 0,0 37.4832,-2.94995 37.4832,-2.94995 z"
       id="path4324"
       style="fill:#000000;stroke:none;stroke-width:1;stroke-miterlimit:4;stroke-dasharray:none;stroke-opacity:1" />
    <path
       id="rect4344"
       d="m 37.150224,-578.85032 68.879096,-22.17489 501.56706,1557.9542 -68.87944,22.17493 z"
       style="fill:#000000;fill-opacity:1;stroke:#000000;stroke-width:16.17689133;stroke-miterlimit:4;stroke-dasharray:none;stroke-opacity:1" />
    <path
       id="path4347"
       d="M 43.731392,-569.64369 C 9.8393746,-660.20738 32.801243,-668.99812 15.244285,-736.91591"
       style="fill:none;fill-rule:evenodd;stroke:#000000;stroke-width:3.59486461px;stroke-linecap:butt;stroke-linejoin:miter;stroke-opacity:1" />
    <path
       style="fill:none;fill-rule:evenodd;stroke:#000000;stroke-width:3.59486461px;stroke-linecap:butt;stroke-linejoin:miter;stroke-opacity:1"
       d="M 104.83434,-588.27339 C 84.569043,-682.8238 60.489898,-677.85224 38.671655,-744.52325"
       id="path4349" />
    <path
       id="path4351"
       d="m 21.818164,-695.28047 31.409079,-10.95668 c 0,0 -10.875199,-58.22462 -24.274378,-64.62236 -13.399068,-6.39774 -11.29461,-6.59316 -19.0358874,6.31959 -7.7411657,12.91272 11.9011864,69.25945 11.9011864,69.25945 z"
       style="fill:#005500;fill-opacity:1;fill-rule:evenodd;stroke:none;stroke-width:1px;stroke-linecap:butt;stroke-linejoin:miter;stroke-opacity:1" />
  </g>
</svg>
