<?xml version="1.0" encoding="UTF-8" standalone="no"?>
<!-- Created with Inkscape (http://www.inkscape.org/) -->
<svg id="svg2" xmlns:rdf="http://www.w3.org/1999/02/22-rdf-syntax-ns#" xmlns="http://www.w3.org/2000/svg" height="358.5" width="727.16" version="1.1" xmlns:cc="http://creativecommons.org/ns#" xmlns:dc="http://purl.org/dc/elements/1.1/">
 <metadata id="metadata7">
  <rdf:RDF>
   <cc:Work rdf:about="">
    <dc:format>image/svg+xml</dc:format>
    <dc:type rdf:resource="http://purl.org/dc/dcmitype/StillImage"/>
    <dc:title/>
   </cc:Work>
  </rdf:RDF>
 </metadata>
 <g id="layer1" transform="translate(3.9662361,-94.380454)">
  <path id="path3813" d="m485.71,282.36c0,97.439-76.431,176.43-170.71,176.43-94.283,0-170.71-78.99-170.71-176.43,0-97.439,76.431-176.43,170.71-176.43,94.283,0,170.71,78.99,170.71,176.43z" transform="matrix(1.129721,0,0,1.0159919,3.7520627,-13.247235)" fill="#dadada"/>
  <path id="path3819" fill="#3dd4b3" d="m384.8,273.63c0,11.928-12.057,24.326-25.185,24.326s-24.478-11.893-24.478-23.821,11.148-24.124,24.276-24.124,25.387,11.691,25.387,23.619z"/>
  <path id="path3003" fill="#474c50" d="m357.6,264.76c3.5426,10.701-4.7405,13.943-10.231,17.875-1.4603,1.0457-5.589,2.1485-10.206,1.5745,3.4544,8.0512,12.075,13.75,22.159,13.75,10.716,0,19.765-6.427,22.733-15.281-8.2087-7.2417-26.242-23.317-24.455-17.918z"/>
  <path id="path3777" fill="#000" d="m359.63,94.38c-106.51,0-192.88,80.265-192.88,179.28,0,97.625,83.963,177.01,188.41,179.22-93.404-2.2388-168.41-74.562-168.41-163.47,0-90.318,77.409-167.53,172.88-167.53,95.466,0,172.84,77.213,172.84,167.53,0,88.907-74.971,161.23-168.38,163.47,104.44-2.2123,188.38-81.594,188.38-179.22,0-99.017-86.332-179.28-192.84-179.28z"/>
  <path id="path2996" d="m359.63,130.23c-85.208,0-154.3,64.212-154.3,143.42,0,78.1,67.17,141.61,150.73,143.38-74.723-1.791-134.73-59.65-134.73-130.78,0-72.254,61.927-134.02,138.3-134.02s138.27,61.77,138.27,134.02c0,71.126-59.977,128.98-134.7,130.78,83.552-1.7698,150.7-65.275,150.7-143.38,0-79.214-69.066-143.42-154.27-143.42z" fill="#000"/>
  <path id="path2998" fill="#000" d="m359.62,158.91c-68.166,0-123.44,51.37-123.44,114.74,0,62.48,53.736,113.29,120.58,114.7-59.779-1.4328-107.78-47.72-107.78-104.62,0-57.804,49.542-107.22,110.64-107.22s110.62,49.416,110.62,107.22c0,56.9-47.981,103.19-107.76,104.62,66.842-1.4159,120.56-52.22,120.56-114.7,0-63.371-55.252-114.74-123.42-114.74z"/>
  <path id="path3000" d="m359.62,181.85c-54.533,0-98.755,41.096-98.755,91.791,0,49.984,42.989,90.629,96.466,91.761-47.823-1.1463-86.226-38.176-86.226-83.697,0-46.243,39.633-85.775,88.515-85.775,48.879,0,88.494,39.533,88.494,85.775,0,45.52-38.385,82.55-86.211,83.697,53.473-1.1327,96.451-41.776,96.451-91.761,0-50.697-44.202-91.791-98.734-91.791z" fill="#000"/>
  <path id="path3002" fill="#000" d="m359.62,200.21c-43.626,0-79.004,32.877-79.004,73.433,0,39.987,34.391,72.503,77.173,73.409-38.258-0.91701-68.981-30.541-68.981-66.957,0-36.994,31.707-68.62,70.812-68.62,39.103,0,70.795,31.626,70.795,68.62,0,36.416-30.708,66.04-68.968,66.957,42.779-0.90616,77.16-33.421,77.16-73.409,0-40.557-35.362-73.433-78.987-73.433z"/>
  <path id="path3004" d="m359.62,214.89c-34.901,0-63.203,26.301-63.203,58.746,0,31.99,27.513,58.003,61.738,58.727-30.607-0.73361-55.185-24.432-55.185-53.566,0-29.595,25.365-54.896,56.649-54.896,31.282,0,56.636,25.301,56.636,54.896,0,29.133-24.566,52.832-55.175,53.566,34.223-0.72493,61.728-26.737,61.728-58.727,0-32.446-28.289-58.746-63.19-58.746z" fill="#000"/>
  <path id="path3006" fill="#000" d="m359.62,226.64c-27.921,0-50.562,21.041-50.562,46.997,0,25.592,22.01,46.402,49.391,46.981-24.485-0.58689-44.148-19.546-44.148-42.853,0-23.676,20.292-43.917,45.319-43.917,25.026,0,45.309,20.241,45.309,43.917,0,23.306-19.653,42.265-44.14,42.853,27.378-0.57994,49.383-21.389,49.383-46.981,0-25.957-22.631-46.997-50.552-46.997z"/>
  <path id="path3008" d="m359.61,236.04c-22.337,0-40.45,16.833-40.45,37.598,0,20.473,17.608,37.122,39.512,37.585-19.588-0.46951-35.318-15.637-35.318-34.282,0-18.941,16.234-35.134,36.256-35.134,20.021,0,36.247,16.193,36.247,35.134,0,18.645-15.723,33.812-35.312,34.282,21.903-0.46395,39.506-17.112,39.506-37.585,0-20.765-18.105-37.598-40.441-37.598z" fill="#000"/>
  <path id="path3010" fill="#000" d="m359.61,243.56c-17.869,0-32.36,13.466-32.36,30.078,0,16.379,14.087,29.697,31.61,30.068-15.671-0.37561-28.255-12.509-28.255-27.426,0-15.153,12.987-28.107,29.004-28.107s28.998,12.954,28.998,28.107c0,14.916-12.578,27.05-28.249,27.426,17.522-0.37116,31.605-13.689,31.605-30.068,0-16.612-14.484-30.078-32.353-30.078z"/>
  <path id="path3012" d="m359.61,249.84c-14.296,0-25.888,10.773-25.888,24.063,0,13.103,11.269,23.758,25.288,24.055-12.536-0.30049-22.604-10.008-22.604-21.941,0-12.122,10.39-22.485,23.204-22.485,12.813,0,23.198,10.363,23.198,22.485,0,11.933-10.062,21.64-22.6,21.941,14.018-0.29693,25.284-10.951,25.284-24.055,0-13.29-11.587-24.063-25.883-24.063z" fill="#000"/>
 </g>
 <path id="path2995" fill="#f9f9f9" d="m362.28,173.31c-9.0176,0.11142-16.125,1.2786-16.125,2.75,0,1.5449,7.8132,2.8125,17.469,2.8125,9.6556,0,17.469-1.2676,17.469-2.8125,0-1.2819-5.1464-2.3129-12.497-2.6436-0.10921,0.68689-1.6469,1.2061-3.2526,1.2061-1.6773,0-3.0625-0.58239-3.0625-1.3125z"/>
</svg>
