<?xml version="1.0" encoding="UTF-8" standalone="no"?>
<svg
   xmlns:dc="http://purl.org/dc/elements/1.1/"
   xmlns:cc="http://creativecommons.org/ns#"
   xmlns:rdf="http://www.w3.org/1999/02/22-rdf-syntax-ns#"
   xmlns:svg="http://www.w3.org/2000/svg"
   xmlns="http://www.w3.org/2000/svg"
   version="1.1"
   id="svg4431"
   viewBox="0 0 4251.9685 2125.9842"
   height="600mm"
   width="1200mm">
  <defs
     id="defs4433" />
  <metadata
     id="metadata4436">
    <rdf:RDF>
      <cc:Work
         rdf:about="">
        <dc:format>image/svg+xml</dc:format>
        <dc:type
           rdf:resource="http://purl.org/dc/dcmitype/StillImage" />
        <dc:title></dc:title>
      </cc:Work>
    </rdf:RDF>
  </metadata>
  <g
     transform="translate(0,1073.622)"
     id="layer1">
    <path
       id="path4379"
       d="M 965.91717,-548.40077 826.28086,104.60371"
       style="fill:none;fill-rule:evenodd;stroke:#000000;stroke-width:3.57304335px;stroke-linecap:butt;stroke-linejoin:miter;stroke-opacity:1" />
    <path
       id="path4377"
       d="M 814.62344,133.32634 1302.7955,-12.338776"
       style="fill:none;fill-rule:evenodd;stroke:#000000;stroke-width:3.57304335px;stroke-linecap:butt;stroke-linejoin:miter;stroke-opacity:1" />
    <path
       id="path4371"
       d="m 492.56577,-497.31508 455.93567,-98.73769"
       style="fill:none;fill-rule:evenodd;stroke:#000000;stroke-width:3.57304335px;stroke-linecap:butt;stroke-linejoin:miter;stroke-opacity:1" />
    <path
       id="path4373"
       d="M 963.02158,-581.53253 661.00045,-221.43041"
       style="fill:none;fill-rule:evenodd;stroke:#000000;stroke-width:3.57304335px;stroke-linecap:butt;stroke-linejoin:miter;stroke-opacity:1" />
    <path
       id="path3336"
       d="m 888.54042,-863.15476 c -115.6444,17.86308 -252.97611,63.74892 -312.10139,133.44516 -83.63458,-6.40246 -173.0675,39.01424 -242.11799,97.51164 -68.96224,58.42265 -126.11592,135.49108 -101.79314,219.93453 -71.15108,53.16795 -105.23542,155.01077 -110.84474,254.44963 -5.6204,99.634307 25.12921,206.548691 128.63134,266.4329 39.33385,183.827 191.16747,282.89962 355.30664,324.68958 163.85976,41.71886 336.79112,84.3256 456.61636,18.54374 96.0262,90.80103 203.1193,69.55572 292.1245,60.95648 88.9938,-8.59818 164.4382,-82.01314 230.0579,-191.49655 131.5377,28.69869 237.9332,21.5594 297.3259,-47.89413 59.4046,-69.46747 75.1664,-175.55255 38.2258,-301.957889 99.8679,-82.369361 120.3807,-221.361461 86.3104,-333.991281 -34.0329,-112.50635 -120.2697,-209.87703 -230.0147,-231.48711 -0.9922,-111.79863 -70.4328,-186.83158 -176.3979,-221.438 -106.1809,-34.67674 -248.9754,-29.17962 -397.1105,19.05861 -96.991,-77.45786 -198.5737,-84.62038 -314.21848,-66.75731 z M 1570.2175,297.63559 c -70.3783,106.70179 -135.745,183.8856 -223.6844,192.38193 -87.9397,8.49598 -198.6587,4.51776 -284.5557,-53.14545 C 982.49109,476.43924 767.82765,457.90373 607.56773,405.26566 451.57903,354.03036 280.66429,236.54155 261.49241,103.66686 178.21299,13.531129 132.4959,-58.793699 138.07092,-157.61836 c 5.57467,-98.82465 62.14595,-203.51267 111.11486,-245.49451 -16.20697,-64.41928 30.61062,-159.71042 99.1984,-217.81575 68.58778,-58.10536 147.10362,-90.44823 234.14616,-96.23184 31.48209,-52.79597 189.98086,-115.32115 309.2494,-129.64156 119.26856,-14.32075 231.55606,19.12793 297.20146,84.26115 139.7403,-50.26077 304.3479,-56.46322 409.7777,-22.03159 105.4298,34.43159 142.2082,130.97579 160.0252,209.3377 89.8541,26.49516 173.573,85.43272 207.4251,197.34079 33.8518,111.90842 23.3356,240.79274 -82.3286,325.245552 24.2474,132.487371 31.9233,239.923068 -26.6842,308.459028 -58.6079,68.53598 -135.3972,46.24269 -286.9789,41.82498 z"
       style="color:#000000;font-style:normal;font-variant:normal;font-weight:normal;font-stretch:normal;font-size:medium;line-height:normal;font-family:sans-serif;text-indent:0;text-align:start;text-decoration:none;text-decoration-line:none;text-decoration-style:solid;text-decoration-color:#000000;letter-spacing:normal;word-spacing:normal;text-transform:none;direction:ltr;block-progression:tb;writing-mode:lr-tb;baseline-shift:baseline;text-anchor:start;white-space:normal;clip-rule:nonzero;display:inline;overflow:visible;visibility:visible;opacity:1;isolation:auto;mix-blend-mode:normal;color-interpolation:sRGB;color-interpolation-filters:linearRGB;solid-color:#000000;solid-opacity:1;fill:#000000;fill-opacity:1;fill-rule:evenodd;stroke:none;stroke-width:1px;stroke-linecap:butt;stroke-linejoin:miter;stroke-miterlimit:4;stroke-dasharray:none;stroke-dashoffset:0;stroke-opacity:1;color-rendering:auto;image-rendering:auto;shape-rendering:auto;text-rendering:auto;enable-background:accumulate" />
    <path
       id="path4228"
       d="m 2840.1507,1051.3419 c -43.3265,-30.9557 -106.2896,-172.57083 -140.9045,-256.11107 -34.6146,-83.54063 -61.4703,-153.13422 -74.7862,-240.44976 -13.3164,-87.31553 -15.8122,-266.23924 11.8785,-361.75276 27.6908,-95.513511 18.5448,-133.089071 37.1229,-223.190142 18.578,-90.101428 26.5391,-153.347508 78.5526,-229.134978 52.0135,-75.78781 134.7227,-176.19676 201.4417,-233.99731 66.7195,-57.80048 116.4723,-58.77863 196.1719,-69.64001 79.6999,-10.86133 185.6689,-27.45226 272.7358,-0.87339 87.0668,26.57887 167.1795,70.6227 256.5959,101.16997 89.4165,30.54731 180.3125,97.40251 244.3926,149.217 64.08,51.81449 103.0312,85.87666 133.5071,153.31142 30.4759,67.434767 72.1176,138.257841 101.1568,213.860937 29.0392,75.603083 9.4353,161.580513 45.2315,242.028653 35.7962,80.44814 34.9183,177.05287 16.4128,268.51598 -18.5055,91.46314 -69.4389,200.94262 -117.3809,268.49778 -47.942,67.55515 -49.1086,125.41921 -113.9144,168.90878 -64.8057,43.4893 -5.4127,-32.19776 20.7537,-81.05908 26.1665,-48.86171 72.3009,-109.62452 104.0442,-187.80528 31.7432,-78.18028 56.1246,-185.58919 55.8967,-279.84427 -0.2287,-94.25475 -39.5104,-170.84328 -48.9096,-253.21622 -9.3993,-82.37293 -32.9403,-158.177914 -73.28,-220.464266 -40.3396,-62.286363 -50.1397,-121.345554 -100.6743,-179.398214 -50.5347,-58.05231 -98.2059,-104.16207 -175.9517,-159.55854 -77.7459,-55.39646 -216.6987,-82.29826 -306.1319,-126.18909 -89.4329,-43.89073 -165.0886,-49.06117 -247.7903,-47.15531 -125.9929,23.43306 -169.8895,30.70588 -214.7662,60.14825 -61.817,43.35067 -85.5677,54.00226 -135.0722,112.45832 -49.5049,58.45642 -88.4396,112.53514 -115.3343,211.57955 -26.8949,99.044391 -32.112,257.84079 -54.6271,363.60216 -22.5152,105.76137 -27.7379,183.8002 -19.843,272.31162 7.8954,88.51108 40.6956,166.03322 65.6723,245.78391 24.9766,79.75068 63.261,172.13386 97.7319,227.13443 34.471,55.00053 46.7212,72.22553 12.2971,83.81463 -34.4238,11.5892 31.0965,38.4521 -12.2294,7.4963 z"
       style="fill:#000000;stroke:none;stroke-width:1;stroke-miterlimit:4;stroke-dasharray:none;stroke-opacity:1"/>
    <path
       id="path4239"
       d="m 3461.7029,425.03173 c -15.3187,63.3572 -79.6142,93.265 -124.8307,132.47915 -43.451,32.98813 -112.8189,49.44985 -168.2289,61.83616 -54.5103,30.94363 -118.8869,29.89636 -176.5933,52.37402 -76.0151,19.1233 -144.2038,58.06699 -215.2576,89.40613 -107.5368,32.79978 -213.6541,71.27544 -319.274,110.11403 -176.5784,57.93759 -317.5699,100.4207 -493.4244,80.32665 83.1501,-27.70104 165.15,-58.81694 247.291,-89.51649 76.1759,-36.2946 154.1661,-68.02503 235.1042,-92.19812 65.675,-22.46871 129.5882,-50.46641 196.9025,-67.33075 63.3308,-28.49644 123.8531,-64.25084 191.3894,-82.89034 53.294,-17.05342 107.7347,-30.51629 162.066,-42.41238 48.3665,-24.11126 105.5403,-33.47584 141.9942,-77.12735 40.8059,-29.47797 109.4424,-38.23729 148.1681,-70.16172 23.6634,-22.95751 20.1815,-61.33485 59.0294,-37.63664 z"
       style="fill:#000000;stroke:none;stroke-width:1;stroke-miterlimit:4;stroke-dasharray:none;stroke-opacity:1" />
    <path
       id="path4248"
       d="m 2856.4805,107.83303 c 14.8024,-19.67246 33.8352,-35.499614 50.8183,-53.171526 -12.7726,12.723248 -25.4697,25.522598 -38.2205,38.267286 22.1229,-22.493735 41.8725,-48.739525 70.9814,-62.719766 14.3375,-9.767631 31.446,-13.478954 47.7812,-18.33436 24.6029,-10.4736569 52.1046,-6.5590332 78.1157,-7.4887411 17.237,0.9307765 34.7768,-1.4238554 51.7809,1.6661109 20.3606,5.7297322 40.1267,13.8133882 59.2857,22.7331352 16.5997,10.789158 33.8357,20.541061 50.6697,30.927902 10.9399,11.649195 27.4685,21.507927 31.8355,36.830569 -13.2032,12.29628 -26.4063,24.59254 -39.6098,36.88918 -6.1746,-15.40054 -20.8954,-24.39603 -32.2002,-35.661485 -16.4867,-9.933775 -32.837,-20.12802 -49.4981,-29.753084 -21.2757,-8.6707 -42.4692,-19.303721 -65.4603,-22.274706 -31.6422,0.867177 -63.4273,-1.343829 -94.9725,1.73006 -17.8167,4.649968 -35.5983,9.839449 -52.8189,16.418853 -13.1477,6.679802 -26.5563,13.540047 -38.0151,22.938583 13.8474,-14.018477 27.5521,-28.180949 41.526,-42.072226 -17.7023,18.852443 -35.9331,37.210739 -54.5015,55.208157 11.7003,-12.196227 23.8047,-24.008701 35.7297,-35.988047 -5.6264,6.417904 -10.4036,13.35532 -17.9305,17.720153 -11.765,8.710005 -23.535,17.430735 -35.2967,26.133952 z"
       style="fill:#000000;stroke:none;stroke-width:1;stroke-miterlimit:4;stroke-dasharray:none;stroke-opacity:1" />
    <path
       id="oeil_ouvert"
       d="m 3572.0292,107.07417 c 32.2522,-15.110067 63.9913,-31.782257 96.6704,-45.691927 42.8176,-9.80546 87.3647,-8.5615 130.8871,-6.37184 31.5566,6.4719 56.5518,29.17419 87.1304,38.28762 24.5529,14.409527 35.9609,41.868647 54.4556,62.275377 5.2762,20.04589 -17.1969,32.34431 -30.8512,41.54584 -25.5708,-9.81777 -31.466,-47.41043 -57.0458,-60.79578 -23.0691,-13.37768 -49.0862,-21.18987 -71.6212,-35.50431 -33.8858,-11.581257 -70.0492,-3.301287 -104.9533,-4.400447 -31.3946,1.42455 -60.4768,14.335947 -87.508,29.321297 -12.1194,4.9103 -39.1301,23.51179 -43.1888,15.6817 7.3221,-12.4128 17.9035,-22.49418 26.0248,-34.34753 z"
       style="fill:#000000;stroke:none;stroke-width:1;stroke-miterlimit:4;stroke-dasharray:none;stroke-opacity:1"  >
      <animate attributeName="d" id="anim1" begin="2s; anim2.end +5s" dur="0.3s"  fill="freeze" to="m 3571.1673,109.86492 c 30.8236,-2.253 50.2035,-0.931 89.5275,2.8795 39.3241,3.8105 87.5271,3.5708 125.1729,7.9138 37.6457,4.3431 62.6394,11.318 92.4263,18.1143 29.7868,6.7964 32.4104,8.7813 62.0168,19.5916 5.2762,20.0459 -17.1969,32.3443 -30.8512,41.54583 -25.5708,-9.81777 -33.7197,-17.26119 -59.9029,-26.51003 0,0 -35.9004,-18.1098 -68.5907,-24.004 -32.6903,-5.8941 -69.6875,-10.2775 -102.8613,-10.1147 -33.1737,0.1628 -45.0793,-1.1333 -84.6508,4.372 -21.2108,2.385 -44.2527,8.3893 -48.3114,0.5592 7.3221,-12.4128 17.9035,-22.4942 26.0248,-34.3475 z"/>
      <animate attributeName="d" id="anim2" begin="anim1.end +1s" dur="0.3s"  fill="freeze" to="m 3572.0292,107.07417 c 32.2522,-15.110067 63.9913,-31.782257 96.6704,-45.691927 42.8176,-9.80546 87.3647,-8.5615 130.8871,-6.37184 31.5566,6.4719 56.5518,29.17419 87.1304,38.28762 24.5529,14.409527 35.9609,41.868647 54.4556,62.275377 5.2762,20.04589 -17.1969,32.34431 -30.8512,41.54584 -25.5708,-9.81777 -31.466,-47.41043 -57.0458,-60.79578 -23.0691,-13.37768 -49.0862,-21.18987 -71.6212,-35.50431 -33.8858,-11.581257 -70.0492,-3.301287 -104.9533,-4.400447 -31.3946,1.42455 -60.4768,14.335947 -87.508,29.321297 -12.1194,4.9103 -39.1301,23.51179 -43.1888,15.6817 7.3221,-12.4128 17.9035,-22.49418 26.0248,-34.34753 z"/>
    </path>xs
    <ellipse
       ry="89.32608"
       rx="92.761696"
       cy="-715.75867"
       cx="1976.5813"
       id="path4336"
       style="fill:none;stroke:#000000;stroke-width:16.0786953;stroke-miterlimit:4;stroke-dasharray:none;stroke-opacity:1" />
    <ellipse
       style="fill:none;stroke:#000000;stroke-width:10.65300465;stroke-miterlimit:4;stroke-dasharray:none;stroke-opacity:1"
       id="ellipse4338"
       cx="2332.7261"
       cy="-756.82819"
       rx="61.459637"
       ry="59.183353" />
    <ellipse
       ry="44.111988"
       rx="45.808609"
       cy="-721.91925"
       cx="2623.74"
       id="ellipse4340"
       style="fill:none;stroke:#000000;stroke-width:7.94015837;stroke-miterlimit:4;stroke-dasharray:none;stroke-opacity:1" />
    <ellipse
       style="fill:none;stroke:#000000;stroke-width:4.54910231;stroke-miterlimit:4;stroke-dasharray:none;stroke-opacity:1"
       id="ellipse4342"
       cx="2811.9346"
       cy="-586.39008"
       rx="26.24482"
       ry="25.272787" />
    <path
       id="path4365"
       d="m 960.11777,-575.72441 383.33433,551.769312 174.243,-429.799222"
       style="fill:none;fill-rule:evenodd;stroke:#000000;stroke-width:3.57304335px;stroke-linecap:butt;stroke-linejoin:miter;stroke-opacity:1" />
    <path
       id="path4367"
       d="M 1352.1643,-23.955098 1799.3881,-189.48597"
       style="fill:none;fill-rule:evenodd;stroke:#000000;stroke-width:3.57304335px;stroke-linecap:butt;stroke-linejoin:miter;stroke-opacity:1" />
    <ellipse
       ry="104.54578"
       rx="102.32141"
       cy="-590.24463"
       cx="954.98926"
       id="path4353"
       style="fill:#550000;fill-opacity:1;stroke:none;stroke-width:4.5;stroke-miterlimit:4;stroke-dasharray:none;stroke-opacity:1" />
    <ellipse
       style="fill:#6c5353;fill-opacity:1;stroke:none;stroke-width:4.5;stroke-miterlimit:4;stroke-dasharray:none;stroke-opacity:1"
       id="ellipse4355"
       cx="662.66876"
       cy="-221.43065"
       rx="56.84523"
       ry="58.080986" />
    <ellipse
       ry="58.080986"
       rx="56.84523"
       cy="-503.12317"
       cx="497.13812"
       id="ellipse4357"
       style="fill:#6c5353;fill-opacity:1;stroke:none;stroke-width:4.5;stroke-miterlimit:4;stroke-dasharray:none;stroke-opacity:1" />
    <ellipse
       style="fill:#6c5353;fill-opacity:1;stroke:none;stroke-width:4.5;stroke-miterlimit:4;stroke-dasharray:none;stroke-opacity:1"
       id="ellipse4359"
       cx="1801.0563"
       cy="-204.00597"
       rx="56.84523"
       ry="58.080986" />
    <ellipse
       ry="58.080986"
       rx="56.84523"
       cy="-456.65833"
       cx="1516.4595"
       id="ellipse4361"
       style="fill:#6c5353;fill-opacity:1;stroke:none;stroke-width:4.5;stroke-miterlimit:4;stroke-dasharray:none;stroke-opacity:1" />
    <ellipse
       style="fill:#550000;fill-opacity:1;stroke:none;stroke-width:4.5;stroke-miterlimit:4;stroke-dasharray:none;stroke-opacity:1"
       id="ellipse4363"
       cx="1347.0355"
       cy="-21.05106"
       rx="102.32141"
       ry="104.54578" />
    <ellipse
       ry="175.75812"
       rx="172.0186"
       cy="108.37231"
       cx="836.33649"
       id="ellipse4375"
       style="fill:#005500;fill-opacity:1;stroke:none;stroke-width:4.5;stroke-miterlimit:4;stroke-dasharray:none;stroke-opacity:1" />

  </g>
</svg>
