<?xml version="1.0" encoding="UTF-8" standalone="no"?>
<!-- Created with Inkscape (http://www.inkscape.org/) -->
<svg id="svg2" xmlns:rdf="http://www.w3.org/1999/02/22-rdf-syntax-ns#" xmlns="http://www.w3.org/2000/svg" height="600" width="1200" version="1.1" xmlns:cc="http://creativecommons.org/ns#" xmlns:dc="http://purl.org/dc/elements/1.1/">
 <defs id="defs4"></defs>
 <metadata id="metadata7">
  <rdf:RDF>
   <cc:Work rdf:about="">
    <dc:format>image/svg+xml</dc:format>
    <dc:type rdf:resource="http://purl.org/dc/dcmitype/StillImage"/>
    <dc:title/>
   </cc:Work>
  </rdf:RDF>
 </metadata>
 <g id="layer1" transform="translate(0,-452.36218)">
  <path id="path4016" fill="#deaa87" d="m180.69,833.67c16.084,3.8805,28.399-0.0623,44.021,5.4814,16.352-2.0037,30.952,1.574,47.369,3.2865,14.034,0.2834,32.741-2.4393,49.189,2.435,10.333,0.32736,28.634,8.0185,42.657,9.6697,11.238,4.4759,22.532,4.2974,34.525,5.9956,13.192,1.393,26.213,5.2455,37.318,7.8866,10.743,3.8437,19.838,2.4913,27.713,8.3537,24.357,8.8306-15.082,33.421-29.506,46.259-10.924,1.1725-17.771-1.4544-28.263-1.7867-8.5854-3.2943-18.897-3.8624-26.49-7.3095-10.49,2.5663-24.828-4.1788-37.781-4.7166-15.882,0.64596-31.554-6.7054-48.025-3.4648-16.042-1.7522-33.434,0.18886-49.738-0.78368-17.037,0.3857-29.932,0.17889-45.806,0.32323-15.248-0.35412-30.498,11.72-40.014,16.648,2.8454-2.3998,42.269-36.414,49.811-41.179-7.4207,7.5097-32.166,22.167-21.354,27.816,10.874,4.3068,17.016,5.5193,28.9,6.0393,13.037,1.2645,23.308,0.0896,34.821,0.86256,15.473-0.14403,33.065-0.78334,48.105,0.29662,12.17,1.7679,23.48,0.26393,38.107,0.91838,15.714,0.23454,28.502-0.12623,44.662-3.8138,11.417-1.3012,26.534-1.1523,39.508-0.52222,17.309,1.6623,37.227,1.4567,52.069,1.4426,10.652,2.308,26.972-0.54145,38.189,3.0614,13.969,0.41559,28.71,2.5582,42.492,6.4058,14.787,2.0145,28.535,3.684,38.489,13.095-7.9669,14.963-32.873,38.16-50.079,41.888-15.082,0.95623-33.467,2.7497-49.456-0.0131-17.404-0.92764-29.974-1.067-41.69-4.7015-8.2713,0.18621-25.188,0.55937-37.335-1.7267-13.912-0.94972-27.796-4.5345-42.509-3.8993-13.019-2.5173-28.99-2.2762-42.249-3.605-15.255-0.32512-26.817-3.4181-41.235-4.1393-10.107,2.1874-22.941-4.0192-34.472-2.632-18.09-0.82187-35.777-0.88364-53.409-0.50793-12.409-1.2228-33.457,0.52228-47.369,4.9415-12.242,3.8532-25.506,6.1014-37.66,9.6295-15.859,2.8879-33.24,12.585-7.9624-5.4326,19.785-9.9316,18.762-30.619,36.959-22.802,12.976,3.9623,25.631,0.83004,37.909,2.2458,14.405,1.9655,27.725,0.32768,39.498,2.1152,18.281-0.79133,32.44-2.5583,50.963-2.0971,8.0871-0.40186,20.406,0.2265,31.413,0.40525,15.796-0.16893,36.046-1.5022,49.575-1.963,13.338-1.9135,26.49,2.9755,38.172,2.8289,16.525,4.5038,31.907,2.888,48.353,6.8144,11.1,0.58164,30.704,5.8373,44.128,5.0416,9.147,4.3062,20.925,4.7433,31.501,6.9388,5.6492,4.635,20.682,6.3084,25.529,6.534,18.65-0.65766,0.70643,9.7697-6.3622,18.072-8.9987,6.3264-15.23,20.202-26.201,20.94-8.9888-4.304-20.95-3.8008-32.183-8.9127-13.976-4.6241-29.626-4.3234-44.389-9.3411-11.515,0.18446-30.645-2.8427-41.335-5.4258-20.791,0.74948-38.18-5.2487-56.992-6.2555-15.443-0.21532-27.055-0.73215-42.511,1.8392-19.014-1.4122-38.927,0.63565-57.24-0.83321-11.819-0.0592-24.832,2.2944-35.768,1.3974-12.088,1.3226-26.496-0.8615-38.969,0.23046-9.4299-2.8975-27.323-1.3418-38.842-0.61414-11.361-5.1945-27.823,0.61198-33.519-10.48,20.816-14.657,35.206-37.516,59.093-37.579,12.884-4.6629,30.126-6.5466,42.703-11.261,14.352-3.2614,25.463-5.2601,40.132-3.8189,9.47-0.91117,25.367-0.20332,35.311-0.57385,12.231,1.1545,25.81-1.6258,38.401,1.8845,15.16,2.756,26.874,0.40408,41.912,4.3178,9.9255,1.2956,20.573,0.8716,31.066,2.8302,10.291,0.12679,25.619,2.4719,37.945,1.5457,15.958,2.9715,35.506,5.6655,52.22,6.0046,17.337-0.63688,33.698,4.4646,50.994,4.0339,10.979,1.5969,20.57,1.7286,30.711,2.6352,14.473-1.079,25.158-0.84524,35.612-4.0624,9.0845-2.6632-48.236,19.199-32.893,31.604,0.65461-6.7565-13.212-4.7658-20.722-9.7189-18.641-2.9012-37.565-6.7781-56.774-7.6674-15.677-2.675-36.71-1.4435-50.514-2.9803-18.254,2.5258-33.176-2.6402-51.11-0.0843-11.708-2.8009-23.037,0.36544-35.621,2.3535-16.607,2.1613-31.431,1.4365-47.369,0.95637-16.313,1.6875-29.573-1.2084-46.198-1.51-13.471,1.2123-26.092,0.20452-39.815,0.69238-12.83-0.46328-23.037-0.77031-36.276-2.439-8.3488-3.5394-21.215-2.6702-23.922-13.754-0.50269-19.976,32.751-33.69,46.841-49.49,12.735-9.7477,27.322-16.725,42.562-19.067,17.855,0.89159,37.173,0.94552,54.91-0.0703,14.59,1.0865,31.582,0.0852,46.394,0.11843,12.643,1.4606,28.277,2.4362,43.758,4.9256,9.68,0.20042,21.874,4.722,34.369,4.3033,9.6868,1.8359,24.156,4.5056,31.411,7.1295,10.999,4.2561,31.147-1.3222,22.991,3.6635-17.028,7.4252-31.066,42.789-41.754,21.739-10.011-1.2019-18.948-3.8073-27.763-5.1384-13.205-6.1133-31.248-6.7759-42.03-8.3491-16.43-1.9882-26.168-4.4776-40.933-8.5761-12.307-5.0616-24.765-4.1967-37.188-8.5368-12.144-0.39063-28.088,1.5525-40.855-0.37348-14.666-0.29111-23.988-4.3734-39.306-2.8053-15.675-3.6683-34.029-4.0464-50.822-4.512,9.1125-12.16,25.581-25.281,37.302-37.551z"/>
  <path id="path3992" fill="#e5ff80" d="m625.41,387.47c3.6381,2.3977,10.619,2.8418,10.053,5.9674,7.5346,2.3423,14.069,6.3541,21.901,6.2658,3.2482,3.8083,18.406,4.2564,25.353,9.5423,10.119,0.98105,13.473,3.9014,27.119,3.9286,7.3568,1.5569,14.126,2.2207,22.728,2.6501,7.5425,1.2526,7.5737-3.5096,8.1044,1.2518,5.4146-0.46514,10.594,0.72531,20.941-0.33516,3.5666-0.94518,16.034,0.87166,8.532,1.4379,7.8416-1.9202,21.779-1.832,26.051,0.5078,13.371-1.6507,26.677,1.4232,39.563,3.2338,10.155,1.7643,25.353,0.17472,32.178,4.5174,6.9243-1.3296,20.917,5.2769,20.352,3.4831,7.2172,0.49798,17.671,2.6164,23.351,3.911,6.5938,0.0969,13.229,2.8616,18.868,4.6014,10.028-1.1489,14.627,4.9356,19.898,6.0449,8.5805,3.0086,14.17,10.848,21.385,10.661,4.65,4.0063,8.9643,8.1541,10.781,16.788,6.4129,3.8182,2.0971,9.1888,5.3136,11.807-2.6769,17.305-24.907,25.751-39.829,33.62-15.573,7.6772-39.73,18.234-35.308,39.669,13.514,8.8348,28.376-12.225,39.224-19.762,13.818-13.907,29.071-27.521,38.215-45.052-15.471,4.3143-29.881,19.91-43.271,30.695-12.982,10.078-27.222,28.318-39.66,33.052-8.1325,3.9236-13.936,3.9471-21.483,6.8725-4.6442-2.0057-9.3301,2.8549-17.093,1.0769-9.0689,4.3287-8.7743-2.0915-14.211,3.7346-8.4518,1.2932-18.642,2.9456-28.084,2.2442-8.6524-0.66059-20.129,0.62725-25.876,0.0168-6.7016,1.1333-15.18-1.6621-21.546,1.4162-9.8816-4.2195-23.01,1.2985-35.033-4.5888-7.203-5.1152-17.095-0.81182-21.631-4.5601-11.391,0.90427-23.448-3.1384-35.189-0.96083-5.5081-4.2566-14.012-0.11691-19.548-1.1526-10.668-0.3568-25.742-0.79509-36.373-0.49537-9.1878-1.5711-20.013,1.5246-24.817-0.7146-9.7233,1.292-23.261,13.969-22.7,17.69,24.213-22.529,48.731-44.737,73.937-66.153-0.0853,1.2602-8.3218,8.369-5.3725,13.532-0.59053,6.629,4.3078,8.4172,11.33,8.7207,1.5158,6.4332,11.142,3.1407,15.576,6.8445,6.3076,4.0327,18.766,2.2593,21.88,8.3139,8.9761-1.6919,8.5937,5.6068,16.389,3.3633,5.7621,2.823,9.8019,4.3581,15.137,4.6367,6.2704,1.0061,9.1242,2.8663,17.552,4.2114,7.2104,3.927,19.3,1.4453,25.71,4.8085,11.781,2.5778,17.636,1.788,28.666,3.5722,10.648,1.7422,20.353,0.60849,30.091,0.46249,6.2327,0.27465,15.23,0.52514,21.558-1.576,4.3338,2.0748,16.613-0.11623,22.293-0.0614,10.171-1.9043,17.719,6.9609,26.884,3.7163,8.0471,2.7737,14.617,2.7186,21.795,7.2259,6.8382,4.2942,9.6232,17.389,6.4202,20.52-24.641,20.538-49.232,41.138-73.904,61.637-3.4118,0.30943-12.163,3.324-19.033,2.6869-10.013,2.6543-15.79,5.9379-27.595,6.3394-9.4921-1.4986-27.817,0.88348-27.807-1.5561-7.7568,0.38171-7.9188,1.9214-14.521-1.3778-5.1999,0.3944-15.809-1.3757-20.593-2.2899-7.7443-0.0343-8.7247-1.0951-14.896-3.4642-10.117-0.92219-21.009-3.8224-25.617-3.7879-7.4384,1.756-13.341-2.2717-17.014-1.336-9.8824-0.29943-12.603,2.8604-3.6828-5.676,20.371-20.643,40.741-41.286,61.112-61.929,8.1543,2.9115,15.277,1.2834,25.102,2.7082,7.9966,1.0486,11.63,0.85197,18.496,3.4359,8.5588,0.201,16.303,3.9799,25.327,4.5774,1.6725,1.7257,12.808-0.90214,14.259,2.8226,7.3218-0.53356,18.057,1.4558,21.901,1.5053,11.46-1.6198,21.005,1.4676,30.936-2.5118,6.3321-3.3924,17.21-4.0146,25.992-6.5847,11.191-2.8944,16.439-10.292,3.4785,1.4635-20.468,17.205-41.044,34.28-61.553,51.435,8.8157-1.2468,2.7805-3.1725,0.64167-6.7892-8.8818-3.3846-20.216-0.051-24.552-4.9685-7.7904,2.1354-17.279-2.983-26.819-1.1742-13.088,1.7259-26.141,2.2912-39.526,1.2555-9.5667,0.90896-19.575,0.9386-29.964-0.76078-9.5625-1.2249-20.086-3.133-30.656-4.1434-6.9151-3.8113-18.477,0.10768-20.431-5.5488-6.0878,0.87999-12.07-0.95751-17.795-5.0082-10.946,0.95591-17.961-4.96-30.241-7.1444-5.2098-3.4254-12.267-4.0988-13.976-5.5568-1.1723,1.1599-9.3292-4.2884-16.091-3.1715-7.2848-0.96338-9.0048-6.0601-16.705-7.4918,1.7812-3.7584-10.459-3.4032-10.556-11.308-4.5916-7.644-3.7797-7.7943-0.13031-17.751-4.0648-1.915,3.1613-11.567,11.333-16.881,22.438-17.852,41.816-39.489,65.927-55.176,6.7702-1.1932,15.146-4.0519,20.739-1.7654,7.8922-0.14693,21.621-1.4566,25.929,0.65311,8.7721-2.9415,18.413-0.22808,26.665-1.5294,10.161-0.49446,11.796,2.1172,19.758,0.15859,9.4069,3.5379,17.573,0.68053,28.033,2.9873,8.1864-0.007,19.189,3.153,23.368,1.7721,7.4342,6.0989,15.339,3.9969,23.417,6.0042,10.596-0.31475,25.037-0.15318,37.915-0.11922,10.345,0.66782,19.812-0.1307,28.829,0.9238-0.64808-0.18367,16.438-2.1119,22.838-3.9576,6.3608-1.3561,13.454-3.2155,17.553-3.1728,9.4653-1.7595,13.751-0.2918,22.655-4.2282,5.7023,0.6968,23.3-9.6707,19.473-7.4374-24.378,20.305-47.396,42.325-72.486,61.712,24.27-25.368,48.344-53.093,81.061-67.684-1.9548,8.3056-23.572,20.559-33.625,29.681-14.05,10.934-28.338,21.586-41.843,33.198,8.5366-3.4832,4.5571-8.3125,5.1797-17.07-3.1088-3.8028-5.8523-3.1513-10.71-8.4711-9.1492-3.0765-16.044-6.6397-23.463-10.985-4.7748-1.2279-11.179-3.6462-16.966-2.951-2.5387-5.8338-13.001-0.8068-15.536-3.7138-10.544-2.9302-15.568-1.4108-26.458-4.5644-7.6355-1.869-15.584-4.7791-23.043-3.9689-4.1116-2.7481-14.789-2.1479-23.44-3.4046-11.311,0.51521-21.847-1.7751-31.867-3.1741-9.6,1.1273-22.347-2.2702-28.964-0.29991-5.7489-0.65751-9.9504,0.63177-16.384-1.4855-10.51,3.4863-19.869,0.18611-29.229-2.4602-9.4665,2.4728-20.023,1.1718-29.468-2.1891-11.171-1.0047-19.539-5.0036-29.47-8.0438-5.5567-0.50684-8.9298-4.5723-14.202-2.737-4.6539-1.7714-16.858-6.4172-22.82-10.466-6.6276,0.97385-6.578-5.2573-11.625-5.8617,7.4186-8.7717,17.728-16.213,26.26-24.472,14.324-12.854,28.648-25.707,42.971-38.561z"/>
  <path id="path3040" fill="#000" d="m23.84,968.87c31.992,0.61242,62.108-12.045,94.238-11.955,23.04-3.9733,46.248-4.8537,69.532-6.5074,25.908,0.2674,52.892-4.901,79.548-3.0784,53.503-0.79899,108.2,1.6853,161.66,6.423,38.773,1.0938,76.298,10.998,114.23,15.45,24.258,8.2318,54.681,11.733,77.154,16.888,14.479,0.21936,23.974,10.6,4.4052,5.7469-30.482-7.1895-62.226-11.664-92.433-19.967-38.237-5.0681-76.402-14.305-115.31-14.947-61.555-5.7442-121.59-6.7358-183.28-5.6356-21.647,1.0536-43.232,4.0808-64.822,3.0856-18.213,4.2715-38.225,1.7829-55.339,6.2215-32.004,0.59416-60.648,12.429-93.226,11.923,1.2155-1.2156,2.4313-2.431,3.6465-3.6467z"/>
  <path id="path3042" fill="#000" d="m56.077,936.63c14.094-2.1749,30.147-6.4534,43.46-5.8545,31.559-3.8991,62.351-2.2693,93.966-3.9063,56.382-3.4816,113.49-1.7306,170-2.2813,24.977,2.3668,50.627,4.4269,73.637,9.0704,19.864,4.1428,38.796,8.6882,58.524,11.972-9.7793,8.5849-25.719-3.0539-37.598-3.3014-27.067-5.2859-53.085-10.989-81.486-12.189-47.618-3.6098-96.505-0.90615-144.63-1.62-36.017,2.7543-72.468,2.8913-108.43,3.726-23.708,2.3887-47.617,2.4507-71.127,8.0737,1.2296-1.2299,2.46-2.4595,3.6891-3.6896z"/>
  <path id="path3056" stroke-linejoin="miter" d="m787.34,179.5c-17.217,22.557-15.157,53.749-24.812,44.094-1.8638-1.8638-9.915-28.615-25.812-42.469,0,7.5626,4.8228,42.469-4.1562,42.469-2.8168,0-10.119-31.471-20-39.125,8.5698,29.762,3.1362,68.156,2.5,101.59-2.1093,114.49,9.8899,216.74-80.781,266.44,32.202-5.9076,51.23-12.534,79.125-38.281-1.7496,20.863-12.843,60.146-5.8438,76.594,4.164-16.654,4.5097-43.635,34.969-74.094,4.3486,30.718-16.608,49.106-10.031,75.062,3.3697-30.781,71.656-77.562,71.656-77.562s2.9107,39.127-4.1562,81.594c12.986-29.549,13.961-78.767,27.906-81.875,13.945-3.1084,74.578,71.982,111.16,76.031-108.64-85.664-100.45-199.13-100.75-316.41,1.2022-27.179,14.455-48.678,10.812-65.781-4.9535,4.9535-4.6509,17.5-11.656,17.5-2.0971,0,7.6334-24.504,4.8438-43.5-10.25,10.25-8.1843,47.143-20.812,47.438-7.0288,0.16365-3.4771-26.323-7.2812-37.781-9.8625,18.253-0.53163,34.028-8.375,33.844-7.8434-0.18401-17.364-25.14-18.5-45.781zm22.568,162.38c18.947,2.9778,24.217,48.668,1.8659,46.327-25.481-2.6696-23.64-49.749-1.8659-46.327z" transform="translate(0,452.36218)" stroke="#000" stroke-linecap="butt" stroke-width="0.77439696px" fill="#000"/>
  <path id="path3828" fill="#000" d="m89.384,893.64c30.98,0.67133,61.585-5.2337,92.094-8.7329,23.093,0.38331,41.012-0.55613,64.331,0.41837,43.202-0.33059,87.673-4.1803,130.25,0.76654,24.939,0.81205,52.682,7.4787,75.337,7.3546,30.614-0.94952,61.378,2.2005,91.545,7.3575,25.992,2.4108,49.306,10.75,74.621,14.981,5.4149,0.84878,25.026,9.0516,11.343,9.4766-21.398-9.9141-45.598-10.721-68.551-17.859-36.87-5.0753-73.69-11.738-111.24-10.321-24.11,0.30192-47.981-6.0788-72.982-6.7396-31.424-4.3794-64.162-2.7109-96.342-2.1127-38.433,1.7054-76.612-1.337-114.74,1.6586-26.534,3.8252-52.676,8.031-79.338,7.423,1.223-1.2237,2.4481-2.4466,3.6696-3.6709z"/>
  <path id="path3832" fill="#000" d="m104.58,863.24c21.936-3.2309,43.372-9.0378,65.688-7.6905,38.939-4.4386,78.656-10.452,117.79-5.5129,20.578,1.738,41.993,5.1906,62.289,4.683,29.741,2.4887,59.913,1.8189,89.046,7.2651,33.933,3.8244,69.628,6.1828,103.07,11.65,19.897,3.7473,38.033,9.4201,57.869,14.095,20.779,1.7297,15.992,11.221-2.811,3.8143-31.189-7.3286-61.244-16.719-94.037-18.8-40.345-3.1061-79.724-10.471-120.24-12.215-25.184-1.4387-50.537-2.4252-75.42-4.02-40.222-6.5595-79.858-5.4742-120.2,0.53351-22.206,4.5529-47.592-0.46706-70.625,7.9918-2.253-2.3195-23.857,7.0532-12.423-1.7936z"/>
  <path id="path3932" fill="#000" d="m710.15,675.4c-7.4447-2.622-15.087-4.7853-22.36-8.1844-8.5395-2.0683-13.665-5.8355-21.455-10.338-4.6665-2.3463-9.3205-6.3712-8.8798-11.989-1.0798-7.5474-1.7336-15.916,0.0573-23.266,5.357-4.678-0.78087,9.8156,1.5147,13.296,0.53721,5.8322-0.0105,12.491,4.388,16.659,7.7761,4.867,14.815,9.781,23.573,12.912,6.9947,0.88812,12.08,5.6541,19.063,6.3846,1.6828,1.8752,9.5506,0.93999,4.0998,4.5251z"/>
  <path id="path3934" fill="#000" d="m656.32,647.08c-5.349-1.7065-10.284-3.6748-13.208-8.4446-4.4672-4.9485-11.256-7.7908-15.586-13.133-3.5513-3.6869-6.9261-7.8317-8.3079-12.597-3.6284-9.061-0.68222-19.278,6.5595-25.81,8.0723-6.6332-0.47839,1.2472,0.9649,0.21281-6.0037,6.0231-8.4974,15.213-5.207,23.116,1.2285,5.5791,5.1409,9.6843,8.8293,13.83,4.087,4.7327,10.013,6.9612,14.206,11.703,2.9088,4.0894,7.6563,7.4481,12.825,8.6839,2.8975,0.0593-0.7793,1.7186-1.0766,2.4385z"/>
  <path id="path3936" fill="#000" d="m627.87,562.12c-0.42448,5.7332,0.16458,10.495,2.2203,16.322,1.1566,5.1537,6.5736,8.8478,10.24,13.357,3.2886,6.0106,10.224,9.3294,16.554,11.863,6.2361,1.5398,14.208,1.8708,21.336,0.69964,9.2199-1.4722-4.5997,4.1372-7.9184,2.6319-4.9216,0.1413-10.744,0.30541-16.216-1.5375-7.2111-2.3674-13.733-7.4676-18.171-13.911-3.9702-3.6666-7.4739-8.3779-8.7567-11.645-0.30576-5.4469-4.5423-13.324,0.0232-17.279l0.49223-0.35763,0.19658-0.14282-0.00008-0.00033z"/>
  <path id="path3938" fill="#000" d="m613.58,610.12c-5.6142-1.9198-12.28-2.3071-16.505-6.9359-4.2566-5.1566-8.0506-11.197-9.0781-17.896-1.6611-5.4972-3.3219-11.109-4.1633-16.728-1.1688-7.8637-2.3118-16.48,0.39689-24.084,0.60613-5.745,15.735-13.257,13.855-8.4615-4.2741,1.3551-8.2737,1.3438-8.5276,2.4742-2.3849,2.1671,2.4536-2.5872-1.8524,2.7255-4.3093,6.1397-2.0414,13.974-2.3707,20.938,1.0151,7.0218,3.0475,13.962,4.552,20.759,1.9433,5.3304,3.3921,11.468,7.3579,15.511,2.0568,3.175,6.222,6.4733,10.633,7.5977,1.9216,1.2782,11.448,0.66369,5.7029,4.1002z"/>
  <path id="path3940" fill="#000" d="m600.89,543.5c-3.5175-4.9073-6.6899-10.539-10.276-15.525-4.2328-7.6212-0.18519-16.334,5.2715-22.57,2.7316-3.5614,10.52-10.659,9.6098-9.6354,4.8195-4.2322,16.705-7.4437,19.607-6.0427-5.6338,3.4721-14.867,2.2314-20.494,7.456,5.7293-4.8321-4.97,4.1625,0.76032-0.69295-5.2472,5.2323-11.227,11.474-13.118,17.485-2.4078,5.1891-0.0152,12.543,3.2344,15.708,1.6081,4.4082,8.2864,9.1953,6.3327,13.064l-0.47219,0.38369-0.45529,0.36995,0.00005-0.00002z"/>
  <path id="path3942" fill="#000" d="m590.18,514.01c-5.2255-3.2173-11.292-6.9088-17.308-10.726-5.1289-3.6937-9.6204-9.701-10.811-16.398-2.8292-4.7312-5.3607-10.268-6.7838-14.957-1.7292-5.2699-2.382-10.689-2.0317-16.639,1.3559-4.7556,3.564-12.661,7.6107-13.972-2.4758,4.3349-4.4294,7.8051-5.1081,13.241-0.82633,6.945,1.454,13.689,3.1452,20.116,3.9949,5.722,5.5375,13.204,9.0448,18.933,2.8304,4.9312,6.7608,7.5284,11.803,10.661,2.8467,2.7537,15.132,5.8698,10.437,9.7415l0.00042,0.00001z"/>
  <path id="path3944" fill="#000" d="m562.36,416.24c0.64352,5.433,0.64001,11.209,2.0844,16.074,1.6452,7.1851,5.0805,13.213,8.7147,19.678,2.2516,2.854,4.6535,7.5815,8.7094,9.917,5.6993,2.5292,10.386,4.105,17.145,5.0112,6.0546-0.25505,5.1595,4.7644-1.4287,2.3244-4.9985-0.55196-11.665-2.967-15.076-3.9337-5.0609-1.9385-8.984-6.8802-12.08-12.15-2.9549-4.9094-5.2833-9.8846-7.3474-15.025-1.3334-5.472-2.893-11.23-2.7264-16.621-0.51922-2.7225-0.47444-4.025,2.004-5.2747z"/>
  <path id="path3948" fill="#000" d="m854.91,682.03c7.3391,1.2519,14.976,0.9962,22.528,1.0419,6.9865,1.8602,18.001-8.1451,19.412-8.5384-2.7201,1.6298,7.6817-7.3849,7.9639-11.488,2.3197-7.5117,5.9767-15.262,7.1741-23.002,6.2332-5.8143,0.88004,6.328,0.42943,9.4813-3.4676,7.3859-4.4618,16.216-11.238,21.539-5.913,6.3486-13.29,11.568-21.323,14.809-7.8978,0.43885-15.915,0.0438-23.992-0.0761-4.564-0.43247-4.4166-0.83839-0.95492-3.7666z"/>
  <path id="path3950" fill="#000" d="m902.02,638.28c7.2267,2.802,15.713,5.4151,22.898,2.9996,2.7661-0.32702,13.497-7.9777,8.5983-3.5548,2.1174-1.8343,6.7712-5.8037,1.9368-1.8656,3.516-5.1286,3.4511-11.524,5.5209-17.325,1.2805-7.3259,3.5553-15.34,0.9932-22.068,0.24559-5.1572-8.6954-10.757-1.7746-13.905,3.9664,6.7498,7.6291,14.472,5.9862,22.284-0.25089,4.3404-1.9353,12.957-3.4045,17.525,0.64339,4.8687-5.8747,14.779-6.1297,13.391,1.4316-0.93482-7.3452,6.0261-10.855,7.023-7.5106,4.0033-16.191,2.3076-23.846-0.44088-5.5565-1.1606-1.4336-1.9213,0.0778-4.0636z"/>
  <path id="path3952" fill="#000" d="m953.62,601.98c2.4261-0.52175,13.267-7.6549,8.8162-4.0409,2.0343-1.7308,6.9566-5.9009,2.157-1.9105,6.1169-4.5474,8.3156-12.486,7.8452-19.089,0.10605-6.578-0.65192-11.583-4.4485-17.709-0.66398-4.8919-8.3898-5.9585-2.0135-9.4473,4.9448,3.6566,5.8588,7.7834,7.6237,11.742,3.2905,7.8857,3.0706,17.018,0.54257,24.906-0.5121,3.5098-13.563,13.783-7.0939,8.4418-3.4037,3.5839-15.077,10.791-15.522,9.439,0.69771-0.77732,1.3952-1.5551,2.093-2.3321z"/>
  <path id="path3954" fill="#000" d="m979.23,579.62c7.5271-4.5396,6.5125-3.7089,7.3258-4.4001,4.948-4.2524-4.2282,3.6556,1.4886-1.6885,5.4562-6.9603,6.0473-15.708,8.9566-23.343,0.73279-4.6869,2.4043-12.039-1.1572-16.759-1.7297-6.8924-6.2877-13.048-12.762-15.913-4.2443-2.9703-13.487-4.3209-15.579-7.1409,4.4108-5.2585,10.849,2.7402,16.252,2.9593,5.4171,2.3591,11.31,6.548,13.395,12.331,2.3862,4.5388,4.3488,10.623,4.4855,15.282-1.3879,7.3888-3.1154,14.768-5.8824,21.77,0.5248,5.3041-9.6801,14.08-8.7016,12.972,3.6058-2.5727-15.653,11.999-7.8211,3.9301h0.00005z"/>
  <path id="path3956" fill="#000" d="m966.13,494.61c-5.0048,8.8928-11.505,17.482-19.98,23.481-7.6052,4.4493-17.006,4.0138-25.402,2.5624-2.7627-2.0359-12.075-1.4957-6.9797-5.4372,4.8062-0.57221,8.7475,3.0687,13.825,3.3088,6.2121-0.19414,12.808,0.83532,18.589-2.0019,5.3267-3.83,1.9841-0.29501,1.8451-0.63248,6.0933-5.625,10.654-12.834,15.286-19.458,0.93896-0.60753,1.878-1.2151,2.8169-1.8226z"/>
  <path id="path3960" fill="#000" d="m901.09,581.94c8.2463,1.0925,16.319,3.3574,24.777,3.5893,5.2514,1.5922,15.691,0.84184,17.978-1.1808-3.9543,3.9114,4.3179-5.9903,3.31-9.1283-1.4097-4.045,6.1882-9.2953,3.5484-2.4732-1.1489,7.4522-6.5491,15.026-14.464,16.322-8.5218,0.8497-17.471-0.99239-26.117-1.9024-3.1659-2.3517-16.492,0.33456-9.3048-4.9548l0.27178-0.27178,0.00005,0.00005z"/>
  <path id="path3962" fill="#000" d="m993.16,517.54c4.9068-6.9389,5.6198-15.197,4.8469-23.295,1.3651-6.9782-7.9238-14.777-6.0743-19.621,2.8884-3.9717,6.7375,6.8016,6.2754,6.336,3.5842,5.1964,4.0099,13.453,3.1207,20.469-0.3553,5.7798-2.1713,13.13-7.9226,15.952l-0.24616,0.15927h0.00001z"/>
  <path id="path3982" fill="#000" d="m879.98,960.31c0.69025-1.6794,1.5711-2.8793,2.119-4.7098,0.7072-1.8708,0.72639-3.7864,0.78751-5.5597,0.22141-1.7418-0.0946-3.5643-1.1493-5.0366-0.73381-1.9083-1.6869-3.2658-2.49-5.0411-1.0958-1.6695-1.6612-2.8523-3.0602-4.1175-1.1272-1.213-2.2782-1.7069-4.004-1.5169-1.3906-0.81735-4.6659,1.0904-4.5337,1.2047,0.97087-0.67881,3.7923-3.3437,1.7969-0.97462-0.81152,1.9976-1.0818,3.8651-1.2528,5.9563-0.18328,2.2779,0.66201,4.587,0.57139,6.5206,0.21574,0.43327,0.22211,3.5324,0.86086,4.4162,0.1166,1.6747,0.62823,2.5059,1.1875,4.0914,0.54329,1.1894,1.1893,1.9652,1.8016,2.7111,0.8711,1.2181,1.5445,1.9026,2.475,2.7845,0.77215,0.84562,2.4335,0.47503,3.0417,1.8991,0.2214,1.8026,1.0054,2.8162,2.8021,2.364,1.6044,0.21355,3.5434,0.55711,4.7886,1.9472,2.3372,1.819-1.544,3.9183-2.2201,4.6263-2.1445,0.79339-2.3561-2.7999-0.68143-3.9207,0.61929-1.5679,4.3347-4.278,4.1321-4.1289-0.99503,0.81789-3.6541,3.03-1.1714,0.97879,0.96248-0.79381,3.4101-2.8218,1.1564-0.94755-3.3196,2.7965,3.8474-3.294,0.83714-0.74267-1.0937,0.95688-2.1908,1.9002-0.61982,0.2347,1.3645-1.9027,2.2692-3.3932,2.9008-5.4484,0.84699-2.198,1.7089-3.9607,1.932-6.1734,0.45304-2.7219,1.0053-6.148-0.87407-8.3863-0.28351-1.5757-2.1984-2.8948-2.8716-4.3645-1.0792-1.4106-1.7908-3.5909-3.4438-4.4549-0.95746-1.435-5.1489-2.7103-2.8266-4.5953,1.6233-1.5558,3.2809-0.66235,4.7442,0.28859,1.4469,0.96211,3.0875,1.7424,4.7435,2.6901,1.8286,0.8694,3.6516,1.9257,5.4183,2.7829,2.0008,0.85655,3.7643,1.8287,5.9132,2.3906,2.182,0.6124,3.6318,1.3558,5.7755,1.648,1.9745,0.62482,3.9988,1.1556,5.8302,1.9215-0.92155,0.78711-1.8431,1.5742-2.7646,2.3613-1.6759-0.99662-3.7919-1.5767-5.577-2.3648-1.4791-0.57791-3.3602-1.4418-4.887-2.2111-2.0469-1.0583-3.902-1.4852-6.3344-2.6491-1.7581-0.62338-3.4206-1.3614-5.2566-2.0167-1.2034-0.7652-3.7212-1.118-3.9187-2.7434,0.41097-1.7215,0.94603-3.5975,0.39307-5.3408-0.82399-1.3382-1.8063-3.1845-3.2094-4.2741-1.1318-1.2333-2.4999-2.262-3.9875-2.9231-1.4561-0.72703-2.2689-0.90724-3.6613-1.5069-0.97781,0.27634-2.5562-1.0272-4.1438-0.79438-1.4046-0.48481-4.1946,1.5249-1.8031-0.26144,1.6628-1.4931,0.73452-0.55275,0.0528,0.77548-0.65854,2.0689-0.51182,4.4732,0.91038,6.0715,0.62297,1.3987,1.7888,2.3925,3.0198,2.9482,0.76323,0.79273,2.3559,1.5241,3.8238,1.4435,1.2995,0.42151,2.5397-1.1627,0.69952,0.49949-2.3285,2.3019,1.0117-1.7469-0.86473-2.891-0.93167-1.1624-3.0844-1.8241-0.53822-2.9424,1.1574-1.8211,3.0807-0.68977,4.255-0.0807,0.63818,0.25024-1.1328,1.1676-1.4554,1.6839-0.95197,1.4554-2.6194-0.40869-3.7445-0.29715,0.80429-0.69618,1.6086-1.3924,2.4129-2.0885,0.83189,0.7078,2.53,1.8682,2.3851,3.6429-0.0262,2.4704-2.4854,3.7693-4.3806,4.9688-2.0446,0.12845-4.4186-0.96304-5.7119-1.9501-0.99675-0.76535-2.3557-1.8843-2.8046-3.1245-1.431-1.7315-1.2036-3.8564-0.72357-6.0804,0.7431-2.0847,2.7769-3.7736,4.7631-4.5316,2.3999-0.44925,4.4145,0.21379,6.5551,0.82027,1.3882,0.73891,3.6101,0.99667,4.7338,2.1848,1.0349,0.71479,2.0857,1.1492,2.9437,2.2876,1.2525,1.3869,2.5858,2.6847,3.0388,4.378,1.0099,1.8107-0.12915,3.7904-0.12825,5.8724,1.0283,1.3181,3.197,1.4721,4.26,2.2262,1.4438,0.50809,2.6916,1.0822,4.1662,1.4949,1.7215,1.0356,4.0453,1.6744,5.9197,2.4703,1.5774,1.119,3.1368,1.2025,4.2712,2.3317,1.7066,0.18962,3.2132,1.1069,4.8632,1.5971,1.4824,0.6306,3.2553,1.0717,1.269,2.823-1.5567,1.9181-3.4252-1.2009-5.5862-0.85169-1.9714-0.7446-4.4273-1.0706-6.444-1.9275-1.9926-0.61438-3.903-1.5211-5.9337-2.0964-1.137-1.0518-3.18-1.5393-4.5439-2.6235-1.8204-0.45465-3.3246-1.873-4.9966-2.6211-1.1176-1.4204-5.3746-1.4055-3.3163-2.811,0.96126-0.35236,1.6061-2.4824,1.9462-0.58913,1.432,0.70433,2.7073,2.0731,3.7386,2.8363,0.78285,1.5006,2.4102,2.8702,2.6633,4.1109,0.97325,1.1152,1.4196,2.0469,2.2764,2.8848,1.4239,1.9398,2.3918,4.448,2.0426,6.9841,0.0309,2.0614-0.35482,3.9751-1.055,5.8629-0.41828,2.0834-1.2122,4.0115-2.2829,5.8632-0.91957,2.7533-3.2028,4.819-5.4499,6.5968,0.84167-0.69868,4.1381-3.5032,1.8078-1.524-0.94901,0.8066-3.2209,2.7242-1.1148,0.96584,1.139-0.94658,2.0388-1.6947,0.2822-0.22876-0.94634,0.81381-3.2612,2.6653-1.1314,0.86031,0.84523-0.76867,1.619-1.3606,0.2782-0.0429-0.87825,1.3335-2.6253,2.9974-1.7953,4.2941,0.87619,0.45584,1.5321-0.47898,0.3119,0.6313-0.9418,0.54814-1.591,2.0575-1.26,0.24371-0.44764-1.3638-2.7874-2.321-3.9172-2.3261-1.8976-0.27166-4.5722,0.11462-4.0049-2.5746-0.68681-1.4757-2.5858-1.4157-3.4382-2.2533-0.94737-0.98281-1.7233-1.8732-2.5003-2.8686-0.75381-1.0434-1.5626-1.9529-1.5904-2.7296-0.82522-1.3385-1.1306-2.7428-1.4852-4.2112-0.48635-1.9593-0.58036-3.7042-0.79138-6.0858-0.51431-2.0503-0.60678-4.3846-0.34647-6.5715,0.31126-2.5899,1.0361-5.4484,3.5298-6.9811,1.7771-1.8681,3.9069-2.1588,6.1926-1.6829,2.0634-0.16651,3.2666,1.5921,4.5591,2.8603,0.50688,1.1855,1.9408,2.4415,2.5008,4.0074,0.57564,1.3803,1.8601,3.0864,2.442,4.7891,1.0216,1.6829,0.8542,3.9624,0.78555,5.7766-0.17905,1.6545-0.17258,3.3984-1.0183,4.9564-0.68212,1.3859-1.0318,3.7602-2.6444,4.6572-0.65592,0.42416-1.3115,0.84899-1.9676,1.2728z"/>
  <path id="path3984" fill="#000" d="m925.61,923.33c-0.7063,0.87141-0.72301,2.6741,0.71093,2.6186,0.83964,0.16031,1.8813-0.99054,0.57369,0.14529-0.10688,0.28889,0.63051-2.0312-0.65336-2.2987-0.57132-0.48696-1.9774,0.4744-0.80164-0.37004,0.61088-1.0569-0.70195,2.374,1.1553,0.96795,1.4738-0.94688,0.3233,0.0578,0.31581-0.0789,0.62178-0.81852,0.57366-1.8594,0.55098-2.6723,0.22709-1.1492,0.0986-2.2802,0.2388-3.4018,0.15919-1.2182,0.20931-2.4777,0.3248-3.7428-0.36317-0.97677,1.0454-2.0826,1.622-1.2156,0.4962,0.22056,1.1184,0.88198,1.459,0.97645,0.52839,0.44687,1.2367,0.84216,1.9857,1.2286,1.0034,0.53631-0.34128,1.744-0.83379,2.2923-1.2508,0.99093-0.30551-0.21962,0.17047-0.88484,0.3296-0.85278-1.2074-0.82044-1.584-1.4413-0.80021-0.37499-1.4577-0.99851-2.1466-1.4562-1.1824-0.14707,0.90694-1.7075,0.26321-0.31294-0.0136,1.2687-0.15252,2.6995-0.28906,3.7504-0.10122,0.92252-0.0959,1.8066-0.1653,2.7166-0.12373,0.86412,0.0296,1.8911-0.2732,2.8099-0.18887,1.0994-1.449,1.7556-2.4076,2.3218-0.92902,0.63318-1.7375-0.22299-1.2776-1.1151,0.3655-1.2884,2.238-1.8,3.0265-0.84502,0.9412,1.0899,0.27737,2.6595-0.95073,3.2266-0.84931,0.53948-2.1656,0.27115-2.4333-0.70911-0.14426-0.96845,0.25232-1.9814,1.2236-2.3822,0.0616-0.0421,0.13784-0.0859,0.19549-0.12782z"/>
  <path id="path3986" fill="#000" d="m954.46,904.96c-0.83456-0.18945-2.6237,0.97157-1.0381-0.16668,0.20434-0.5276-0.83132,1.3466-0.14316,1.6647,0.49922,0.86275,1.7731,1.2232,2.7279,1.0677,1.0975-0.69493-0.90674,1.0464,0.12238-0.20826,0.36086-0.8586-0.31315-1.8759-0.99292-2.2271-0.80843-0.43522-1.7707-0.12105-0.46682-0.92352-0.25481,0.27394,0.36858,1.5969,1.493,1.5631,0.77544-0.7012-1.3492,1.4394-0.38252-0.0178,0.34776-1.3146,0.91418-2.5681,0.69803-3.9475,0.0592-1.1763,0.51306-2.4354,0.81502-3.7404,0.21567-1.07,0.35371-2.1994,0.41982-3.3,0.90668-1.2079,1.6504-0.1415,2.5506,0.40947,0.76845,0.35668,1.4359,1.0308,2.1902,1.437,1.004,0.3137,1.9742,1.1812,0.50238,1.7916-0.81052,0.68441,1.3708-1.1684,0.20591-0.16369-1.0945,0.93168-0.31336,0.26783,0.27287-0.22902-0.63887,0.73321-0.72293,1.7578-1.7646,2.1377-0.0341-0.88124,1.5968-2.3492,1.48-2.1535-1.8287,1.532,1.8054-1.4683-0.032,0.0244-0.51103,0.89299-0.25835-0.27197-1.275-0.43895-0.88807-0.49364-1.6832-1.1573-2.4514-1.6223-0.49899-0.30305-1.0201-0.63945-1.5052-0.97413,0.14175-0.58572,1.291-1.3199,0.71198,0.036-0.0362,0.92898-0.25256,2.246-0.50862,3.0443-0.28852,1.2113-0.68585,2.4941-0.64431,3.7035,0.0678,0.92038-0.11307,1.7666-0.52921,2.5812-0.0216,1.0142-0.93007,2.584-1.9804,2.1271-0.56452-0.0637-1.5654-0.7992-1.2664-1.5339,0.51151-0.86196,1.5342-1.3255,2.3096-0.59469,0.72764,0.33858,1.138,1.009,1.2217,1.8572,0.003,1.0978-1.2656,1.9873-2.2423,2.2598-1.0695-0.07-2.3625-0.39365-2.724-1.494-0.59272-1.1454,0.74438-2.2871,1.8078-2.6623,1.0556-0.32612,1.524-0.14443,0.47762,0.63276l-0.0598,0.0598,0.00013,0.00029z"/>
  <path id="path3988" d="m194.64,84.496c0,64.667-53.785,117.09-120.13,117.09-66.347,0-120.13-52.423-120.13-117.09s53.785-117.09,120.13-117.09c66.347,0,120.13,52.423,120.13,117.09z" transform="matrix(0.38311687,0,0,0.38311687,78.304104,500.6849)" fill="#FD5"/>
  <path id="path4002" fill="#000" d="m396.8,573.46c2.545-0.0524,1.4018,3.7069,3.9115,4.1451,0.98307,2.3467,3.2589,3.6568,3.9948,6.1874,1.6149,1.0351,2.071,2.4121,3.3274,3.6736,1.3127,0.41223,4.2464-2.0786,1.7367-0.0456-1.4869,1.1292-3.7822,3.0249-4.7966,3.7106,2.9797-2.7831,5.3749-6.1471,8.6615-8.6149,1.8191-1.5305,4.289-3.4484,5.7533-4.7092-1.5678,1.2458-4.6125,3.797-5.2341,4.1335,2.6023-2.1569,5.2353-4.2844,7.998-6.2342-1.8331,2.0535-3.6661,4.107-5.4992,6.1606-0.33591-1.2423,3.3673-3.2624,3.9389-3.6164-2.6154,2.3376-5.2924,4.6072-8.055,6.7695,1.2242-0.99715,4.7163-4.3224,4.6951-3.9439-4.1304,3.9299-7.2255,9.2235-12.609,11.623-2.4743,1.2005-2.3387-1.4987-4.3151-2.0368-0.23432-2.0821-2.2919-3.4091-3.1505-5.3084-0.82311-2.0568-3.0478-2.5985-3.4341-4.7218-1.0698-0.72001-1.7263-2.4275-2.2953-2.807,1.7905-1.455,3.5811-2.9099,5.3716-4.3649z"/>
  <path id="path4004" fill="#000" d="m435.54,559.23c0.25961,2.6096,3.7394,2.6816,3.9432,5.446,0.42212,0.94273,1.0515,1.1378,0.43692-0.0185,0.61189,1.8569,2.1832,4.5812,4.0015,4.4008,1.0555-0.79444,1.7767-1.8205,0.30913-0.36853-1.1431,0.94151-3.8786,3.5388-4.1463,3.2111,2.1812-2.5678,3.813-5.6468,6.6715-7.5835,1.0216-0.80088,3.4949-2.7664,3.4756-2.8173-1.3463,1.1318-3.7413,3.0311-4.4071,3.7226,2.0546-1.6076,4.2049-3.1362,6.0054-5.0298,0.96785-0.32904,3.5541-2.5029,3.3688-1.9772-1.7254,1.9249-3.4508,3.8497-5.1763,5.7746-1.1581,0.19952-3.7721,2.5395-1.3902,0.4111,0.94986-0.83748,3.729-3.0551,3.5741-3.0157-1.8957,1.4279-5.703,4.8936-6.3657,5.2292,1.2058-0.97335,3.6764-3.2437,4.2858-3.484-1.7201,1.7712-2.5744,3.8639-4.6946,5.9836-1.8865,2.0662-4.0317,3.901-6.3936,5.4033-2.1579,0.45119-3.0303-1.9423-3.3016-2.6942-2.4555-1.0404-2.7577-3.8174-4.7286-5.4503-1.2671-1.093-1.9588-2.4059-0.17929-3.2089,1.5704-1.3115,3.1408-2.623,4.7112-3.9344z"/>
  <path id="path4014" fill="#80b3ff" d="m1165.1,850.57c-5.8436-1.1227-15.023,2.0532-18.227-0.9346-4.6667,2.496-8.1317-1.1605-15.601,2.3237-5.8798,0.41998-12.215,2.386-18.116,4.4599-4.5741,1.0869-16.662,6.833-14.871,7.713,12.851-10.757,25.479-21.775,38.225-32.656-4.6461,1.7091,5.2414,3.4422,9.8896,4.326,7.4978,1.2703,13.963,1.7088,20.464,2.1482,5.5007,0.69699,16.265,0.0442,21.606,2.2957,7.3756,0.15158,15.63-0.30615,21.321,3.9386,3.5994,8.0683-12.772,13.011-17.324,19.372-8.3877,5.0341-15.626,15.739-24.787,16.972-10.748,0.66708-22.02-0.77813-32.698,2.3993-6.681,0.38159-15.349,0.84134-22.806,0.88363-5.2649-0.14828-16.284,1.0605-17.705-0.25671-7.801,1.7701-16.097,1.455-23.642,3.3032-7.0744-0.38352-9.5361,1.2006-15.423,2.8337-9.6043,7.0955,9.0054-7.6417,11.794-10.15,7.6372-6.3157,15.274-12.631,22.912-18.947-5.3626,3.4699-9.01,11.338-7.7775,16.829-0.5781,1.6624,3.2419-0.8749,2.0525,2.7266,3.0138,1.7637,9.5993,5.1152,15.881,6.3894,9.3014,3.8987,20.195,1.6457,28.156,5.3437,2.4488,1.1578,5.5536-2.7718,4.7829,0.1631,4.0852-0.004,12.256,0.2244,16.742,1.2222,5.3697,0.83712,10.809,1.9458,17.29,4.3844,7.855,11.385-4.2385,17.194-13.33,20.805-9.3366,4.4625-17.872,13.911-26.236,17.291-5.1128-0.29555-11.904,2.284-17.845,1.403-8.3986-1.59-16.65,1.2117-25.049,1.6559-6.9491,0.89704-6.8521,0.52747-13.849,2.9486-4.787,1.4084-8.804,3.556-1.8225-1.6896,10.885-9.2818,21.331-19.273,32.883-27.644-3.9863,4.412-10.638,11.524-4.3334,12.83,5.8677,2.5811,8.5788,7.3193,14.24,7.4743,7.6929,3.7369,16.896,5.7707,25.821,5.7498,4.1963,1.1677,0.035,0.9331,6.5941,1.2344,7.7843-1.0942,15.518-0.41601,20.887-1.1972,5.0062,0.0371,11.947-0.82143,16.359-0.62457,6.041,2.2792,7.2419-1.084,11.74,4.3136-12.988,13.082-27.129,25.44-37.605,40.696,1.8837-8.6956-13.881-5.6248-19.728-6.3199-7.6054-2.9706-14.346-2.0026-22.913-4.4393-7.1277,0.45403-13.835,0.45455-19.443-1.9294-6.4614,0.38906-11.338,0.65892-16.861,2.2537-4.7016-0.17854-17.215,9.7547-7.967,2.7252,12.317-10.334,24.477-20.858,36.895-31.071-14.451,12.865-29.658,24.854-44.422,37.348,13.112-12.133,25.921-24.856,40.528-35.17-3.2808,6.4111-12.185,10.891-15.215,18.747-2.921,5.0696-6.4617,8.8523-0.6226,9.8706-0.4824,2.2949,5.9573,1.2954,4.5116,3.5483,7.2807,2.2217,14.453,3.2061,20.807,4.8896,7.7384,2.1335,16.646,2.882,22.938,4.1501,6.9989-0.4097,14.495,2.3889,22.879,1.9867,6.4915,0.38088,14.812,0.73547,22.696,1.0011,2.6922,2.0773,15.661-0.59933,7.1101,4.1459-10.685,10.156-19.941,21.838-26.632,35-5.6988,1.6049-11.548-3.1972-15.598-4.5391-5.1388,1.9692-4.5051-2.7532-11.336-1.7029-6.3345,0.102-12.307-1.6281-18.352-0.5695-8.9435-0.1006-17.55-2.4705-25.827,3.1072-3.0338,2.8625,9.5647-7.8503,12.852-10.547,8.1778-6.8402,16.342-13.697,24.522-20.535-6.0348,4.9778-8.3834,12.757-8.8754,19.504,0.4748,4.0237,6.6944,7.1519,9.5273,9.9228,6.042-0.089,8.4266,4.2792,12.943,5.5174,6.6171,2.0175,14.37-2.1081,20.17,0.596,7.2668-2.8636,12.788-0.6765,18.765-2.1225,5.3323-0.7206,8.9323-0.8846,2.5305,4.2629-10.338,10.649-20.677,21.297-31.015,31.946-7.9068,2.768-16.465,1.009-24.885,2.494-5.9578,0.3779-12.408,1.2846-16.656-1.4955-8.6191,2.2583-13.63-4.1146-20.373-7.4812-1.9112-3.0638-6.0485,0.8128-5.2707-4.0898-6.5419,2.7702-1.3958-3.7288-4.9357-1.8698-0.9457-2.3239-5.4659-10.915-2.7021-16.621,2.0934-6.5113,4.2949-13.434,10.516-17.264,12.155-10.158,24.31-20.317,36.466-30.475,4.9286-1.42,11.705-4.6999,16.994-1.7571,7.7983-1.067,10.652-1.8639,18.867,0.077,6.3663-0.1567,11.052,0.39335,17.917,2.3926,4.6886,1.3396,8.8604,0.85501,8.9819,2.568,5.6732-0.90096,16.059,8.0926,4.515,10.433-14.124,7.4417-26.639,17.576-38.076,28.638-2.2061-4.8404-12.645,0-16.659-3.5461-5.094,0.083-12.686,0.8962-17.013-0.4168-5.5726-1.0739-15.828-1.2352-25.141-2.9606-8.8699-2.0248-18.163-1.9246-26.124-4.543-7.0406-1.5779-13.835-5.3008-20.167-7.5087-7.8945-6.12-7.2937-15.604-1.7658-22.539,5.1503-5.9125,8.901-12.314,16.194-16.73,13.522-9.4441,27.249-21.14,37.435-32.914-14.586,11.223-28.474,23.374-42.131,35.708,15.813-11.307,29.735-25.443,45.175-36.952,6.5379-1.9282,10.656-3.4004,16.938-3.6028,5.5346-3.1392,2.0837,2.6341,8.6546-0.6097,6.5744,1.7716,3.9181,2.1216,11.069,1.2768,8.0206,1.0636,14.275,1.1668,21.01,3.5738,3.0938-2.3052,10.732,2.4155,18.825,1.2532,2.3777,2.1557,18.39-4.6143,8.2717,3.3244-12.053,10.509-26.053,19.31-37.006,30.748,5.6889,3.1761-5.9783,1.6877-8.3969,1.046-10.02,0.31392-21.086,2.5728-30.206,1.3373-5.4779,1.0144-14.492-2.0959-19.691-1.6844-5.9772,0.53326-11.236-5.6539-16.967-4.7092-6.8242-3.736-13.179-6.2501-17.776-12.567-3.5834-2.6558-4.8947-11.063-0.2116-15.564,9.4639-11.41,22.702-18.693,33.578-28.619,6.9709-7.9053,10.881-6.3561,18.111-9.7002,8.7999-1.2754,15.895-2.3317,24.778-3.0745,5.1113,0.21904,13.467,0.39014,13.562-0.35528,5.584,1.3052,17.742-2.1752,18.467-2.8528-12.362,10.833-26.523,19.332-41.391,26.179-4.3881,6.252,10.605,11.921-0.3279,9.3061-3.676-1.417-10.696-2.6579-14.464-3.018-8.1346,0.64462-15.109-2.4607-22.71-1.5631-6.5396-2.7197-15.433-0.8334-21.241-4.4772-6.7931-2.3343-13.422-4.6746-19.242-8.8032-5.1837-3.8214-7.7561-10.661-5.3596-17.559,2.0513-4.0413,3.8756-9.2253,8.4597-12.108,12.916-10.617,25.528-21.674,38.634-32.017,5.8597-2.486,15.256-2.9446,20.391-4.0272,7.7699,0.71606,16.424-1.8734,24.438-1.4373,6.7002-1.5014,14.177,0.63633,21.32-0.87053,8.0519,1.0159,13.588-0.41759,21.12-1.4313,9.4027-1.1509,17.937-1.4946,27.264-1.6572,11.411-3.2206-7.8667,7.6338-11.758,12.11-8.0273,6.6066-16.814,12.943-23.864,20.329,9.8453,4.1843-7.6204,1.6104-11.681-0.61138-7.2453,2.6164-14.709-0.56881-22.638-0.64643-5.4014-0.23684-13.479,1.1354-17.73-2.5154-7.5309,1.0973-10.484-2.0736-17.144-3.8105-2.6105-2.8694-9.6996-9.0178-0.2902-12.879,12.238-10.575,24.407-21.232,36.769-31.662,6.4626-1.3927,13.453-5.1864,19.705-6.9632,8.6168-0.80569,17.375-3.0067,25.874-3.7216,6.6718-0.34892,13.12,1.1297,19.051,0.38631,8.0865-2.3749,0.7216,3.62-2.0363,6.4176-10.259,10.257-20.516,20.519-30.777,30.774z"/>
 </g>
</svg>
