<?xml version="1.0" encoding="UTF-8" standalone="no"?>
<!-- Created with Inkscape (http://www.inkscape.org/) -->

<svg xmlns:dc="http://purl.org/dc/elements/1.1/" xmlns:cc="http://creativecommons.org/ns#" xmlns:rdf="http://www.w3.org/1999/02/22-rdf-syntax-ns#" xmlns:svg="http://www.w3.org/2000/svg" xmlns="http://www.w3.org/2000/svg" xmlns:sodipodi="http://sodipodi.sourceforge.net/DTD/sodipodi-0.dtd" xmlns:inkscape="http://www.inkscape.org/namespaces/inkscape" width="600" height="600" id="svg2" version="1.1" inkscape:version="0.48.4 r9939" sodipodi:docname="horizons_l.svg">
  <defs id="defs4" />
  <sodipodi:namedview id="base" pagecolor="#ffffff" bordercolor="#666666" borderopacity="1.0" inkscape:pageopacity="0.0" inkscape:pageshadow="2" inkscape:zoom="0.7025" inkscape:cx="471.50297" inkscape:cy="425.41526" inkscape:document-units="px" inkscape:current-layer="layer1" showgrid="false" inkscape:window-width="1908" inkscape:window-height="1017" inkscape:window-x="0" inkscape:window-y="0" inkscape:window-maximized="1" />
  <metadata id="metadata7">
    <rdf:RDF>
      <cc:Work rdf:about="">
        <dc:format>image/svg+xml</dc:format>
        <dc:type rdf:resource="http://purl.org/dc/dcmitype/StillImage" />
        <dc:title></dc:title>
      </cc:Work>
    </rdf:RDF>
  </metadata>
  <g inkscape:label="Layer 1" inkscape:groupmode="layer" id="layer1" transform="translate(0,-452.36218)">
    <path style="fill:#c83737;fill-opacity:1;stroke:none" inkscape:connector-curvature="0" d="M -272.99359,1061.4453 182.42455,978.86865 -311.34231,979.557 185.89197,954.59672 -341.97471,912.74955 185.31234,940.17326 -344.81075,819.1497 187.63604,924.92682 -318.01323,744.31015 192.6871,911.29006 -260.98697,604.05527 199.06819,907.95722 -166.92137,497.57625 209.31521,896.20937 -67.706364,422.67831 223.23668,884.15622 44.907399,370.04532 241.13792,879.48803 166.00861,341.97474 257.6936,874.13684 290.29777,339.6976 285.89361,873.75393 412.34603,363.31227 314.25406,876.56402 526.82296,411.78377 345.58512,878.69629 628.72395,482.99908 369.85711,881.83242 664.58853,560.4848 392.00725,893.45614 728.71006,660.30533 416.48626,902.89577 818.24212,797.84314 428.01674,923.63827 833.49881,921.21184 C 258.78556,1041.3661 1068.1971,1043.4878 -273.02464,1061.446 z" id="path4493" />
    <path style="fill:#003197;fill-opacity:1;stroke:none" d="m -18.157721,933.87481 c 159.041541,-36.60304 371.424331,-4.4201 539.258921,-4.4201 13.28443,0 118.59378,-6.64401 118.60748,-6.63028 7.45722,7.45724 6.32905,58.96792 3.68347,72.19585 -2.26128,11.30652 -6.40212,74.91462 -13.99714,82.50972 -11.72419,11.7242 -85.57465,5.8934 -100.92687,5.8934 -97.49932,0 -406.87166,34.7977 -480.323531,10.3137 -34.88036,-11.6268 -119.346235,10.3116 -144.391733,-14.7338 -7.063246,-7.0632 42.379504,-148.37487 78.089403,-145.12849 z" id="path3946" inkscape:connector-curvature="0" sodipodi:nodetypes="cscsssssc" />
  </g>
</svg>
