<?xml version="1.0" encoding="UTF-8" standalone="no"?>
<!-- Created with Inkscape (http://www.inkscape.org/) -->

<svg xmlns:dc="http://purl.org/dc/elements/1.1/" xmlns:cc="http://creativecommons.org/ns#" xmlns:rdf="http://www.w3.org/1999/02/22-rdf-syntax-ns#" xmlns:svg="http://www.w3.org/2000/svg" xmlns="http://www.w3.org/2000/svg" xmlns:sodipodi="http://sodipodi.sourceforge.net/DTD/sodipodi-0.dtd" xmlns:inkscape="http://www.inkscape.org/namespaces/inkscape" id="svg2" height="600" width="1200" version="1.1" inkscape:version="0.48.4 r9939" sodipodi:docname="horizons.svg">
  <sodipodi:namedview pagecolor="#ffffff" bordercolor="#666666" borderopacity="1" objecttolerance="10" gridtolerance="10" guidetolerance="10" inkscape:pageopacity="0" inkscape:pageshadow="2" inkscape:window-width="1908" inkscape:window-height="1017" id="namedview3045" showgrid="false" inkscape:zoom="1.1841667" inkscape:cx="458.55032" inkscape:cy="300" inkscape:window-x="0" inkscape:window-y="0" inkscape:window-maximized="1" inkscape:current-layer="svg2" />
  <defs id="defs4" />
  <metadata id="metadata7">
    <rdf:RDF>
      <cc:Work rdf:about="">
        <dc:format>image/svg+xml</dc:format>
        <dc:type rdf:resource="http://purl.org/dc/dcmitype/StillImage" />
        <dc:title />
      </cc:Work>
    </rdf:RDF>
  </metadata>
  <path style="fill:#c83737;stroke:none;fill-opacity:1" inkscape:connector-curvature="0" d="m -539.38635,776.74931 879.99,-159.56 -954.09,1.33 960.79,-48.23 -1019.98,-80.86 1018.86,52.99 -1024.34,-233.85 1028.83,204.39 -977.05,-348.99999 986.81,322.64999 -876.62,-593.66 888.95,587.22 -707.19,-792.966 726.99,770.266 -535.28,-914.989 562.18,891.699 -344.580001,-993.4 379.170001,984.38 -145.17,-1038.62 177.16,1028.28 63,-1032.68 -8.51,1031.94 244.34001,-986.31 -189.54001,991.74 410.74005,-898.08 -350.20005,902.2 547.10005,-764.593 -500.20005,770.653 569.50005,-620.93 -526.70005,643.39 L 1396.1737,1.6393168 792.87366,470.38931 l 776.30004,-202.99 -754.02004,243.07 783.50004,-4.6884 c -1110.50005,232.17 453.5,236.27 -2138.10005,270.97 z" id="path4493" />
  <path style="fill:#003197;stroke:none;stroke-width:1px;stroke-linecap:butt;stroke-linejoin:miter;stroke-opacity:1;fill-opacity:1" d="m -46.975089,530.24911 c 307.310909,-70.72692 717.691419,-8.54092 1041.992879,-8.54092 25.66911,0 229.15501,-12.83787 229.18151,-12.81139 14.4093,14.40932 12.2294,113.94193 7.1174,139.50178 -4.3694,21.84728 -12.3706,144.75501 -27.0462,159.4306 -22.6544,22.65439 -165.3532,11.3879 -195.0178,11.3879 -188.39484,0 -786.18515,67.23841 -928.11391,19.92883 -67.3982,-22.46607 -230.60893,19.92487 -279.00356,-28.46975 -13.64809,-13.64809 81.88857,-286.69988 150.889681,-280.42705 z" id="path3946" inkscape:connector-curvature="0" sodipodi:nodetypes="cscsssssc" />
</svg>
