<?xml version="1.0" encoding="UTF-8" standalone="no"?>
<!-- Created with Inkscape (http://www.inkscape.org/) -->
<svg id="svg2" xmlns:rdf="http://www.w3.org/1999/02/22-rdf-syntax-ns#" xmlns="http://www.w3.org/2000/svg" height="600" width="1200" version="1.1" xmlns:cc="http://creativecommons.org/ns#" xmlns:dc="http://purl.org/dc/elements/1.1/">
 <defs id="defs4"></defs>
 <metadata id="metadata7">
  <rdf:RDF>
   <cc:Work rdf:about="">
    <dc:format>image/svg+xml</dc:format>
    <dc:type rdf:resource="http://purl.org/dc/dcmitype/StillImage"/>
    <dc:title/>
   </cc:Work>
  </rdf:RDF>
 </metadata>
 <g id="layer1" transform="translate(0,-452.36218)">
  <path id="path3041" fill="none" d="m644.5,1053.9c-14.815-15.598-31.197-25.827-41.021-44.816-21.441-14.914-22.105-42.498-37.052-60.933-7.4176-13.761-17.132-26.663-23.856-40.649,3.0509-14.375,6.7544-6.8287,21.871-13.516-7.7134-2.3384,27.653-0.0221,17.667-7.6949-4.2043-12.642,8.776-17.698,20.2-17.014,18.627-1.2559,18.639,4.0186,22.908-12.891,3.0268-12.074-0.20812-28.84,17.719-28.962,11.551-0.63117,23.382-0.0301,34.56-3.4259-2.4145,3.0708,10.121-17.052,6.9761-25.838-2.1269-18.976,27.149-13.383,39.166-18.71,12.865-1.987,12.429-1.2874,22.832-14.999,5.7187-10.332,5.3778-22.22-4.3359-29.535,0.41413-15.345,23.517-17.73,35.514-23.063,18.065-8.7917,36.298-0.22816,54.701-1.1374-9.2917,6.4016,2.6874-7.4381,0.55109-12.744-0.83656-14.032,15.558-16.603,25.181-9.8456,15.969,0.47412,29.351,10.088,23.378-2.8426-3.5383-13.499-19.114-28.236-7.382-40.901,12.214-14.624,31.86-3.181,46.946-0.9442,25.033,6.2563,42.077,20.624,64.769,31.389,16.904,11.16,41.096,15.554,53.98,33.083,11.678,10.512,20.464,22.816,31.518,34.572,22.731,18.91,46.489,32.609,68.181,51.829,15.374,21.321,31.88,45.586,46.193,69.48,5.5799,10.921,10.814,22.041,15.864,32.341-9.4579,7.3456-9.3444-9.2015-14.056-14.624-13.892-28.812-33.596-55.682-52.126-82.468-18.15-17.936-41.72-31.295-60.844-46.706-15.813-11.093-25.393-28.786-39.781-40.965-14.152-19.377-39.241-22.878-58.016-35.487-22.155-11.279-41.162-25.836-65.615-30.66-9.9768-1.5526-19.85-5.4674-30.065-5.3602,12.335-5.6635-10.197,6.5954-5.2961,13.776,0.20891,12.861,15.196,23.745,10.748,36.472-15.613,10.237-33.356-1.773-49.357-2.4622,8.2385-6.8266,0.44666,17.693-3.6621,23.639-18.593,7.9567-38.724-7.328-57.764,2.7406-22.477,8.2653-9.6322,0.27329-27.631,13.572-2.5871,8.2889,13.317,13.858,7.9698,23.341-2.8928,27.361-34.659,32.7-57.054,35.111-13.862-0.36542-5.7779,4.472-9.2002,18.701,1.5729,23.993-27.793,25.851-45.697,25.344-12.713,2.4777-4.2198-4.7562-9.8807,5.4948-2.812,12.858-0.58898,33.076-19.063,35.851-7.8115,1.6208-22.271,0.3021-25.196,0.8742-5.1062,6.1782,3.1472,21.762-12.408,20.646-18.466,2.8548-25.904,6.1455-27.282,6.6063-5.2772,9.2136,7.2186,18.282,10.258,26.687,9.635,16.191,20.829,30.91,26.901,48.989,4.164,13.149,12.438,23.686,22.8,32.44,9.1581,18.129,26.303,28.891,40.233,43.588-1.9831,0.8752-3.9646,1.7571-5.9486,2.6282z"/>
  <path id="path3057" fill="#000" d="m645.8,1051.9c-21.466-14.861-44.002-29.37-57.462-52.875-25.499-25.831-53.263-49.51-72.92-79.602-10.072-18.667-21.333-39.736-27.302-59.908,10.093-9.4795,26.13,1.2505,39.165-0.7722-6.455,8.7533-11.164-12.321-16.719-21.486-12.698-14.336,46.804-5.9923,32.339-8.7295,17.217-0.34218,34.454-2.3757,51.288-5.7535-5.3874,5.1945-2.8531-10.756-5.9414-15.811,1.5878-17.085,7.0049-2.5698,9.63-17.727,10.905-2.7925,31.257,6.3943,33.703-0.67442,15.051-3.6343,19.342-21.464,9.9072-31.828-9.3539-7.1779,0.47037-11.435,9.0386-10.313,19.676-0.26339,39.199-2.3,58.832-3.0614-5.7244,4.6979-8.8524-9.554-17.219-13.204-8.863-13.568,33.031-11.716,25.236-14.581-8.6237,5.7717,11.713-8.2089,10.785-14.806,2.4697-15.156-22.192-21.962-18.577-37.671,25.12-12.706,54.558-4.567,81.561-7.589,6.7233,1.5152,33.702-1.1771,19.617,2.6541-3.2761-15.255-13.151-29.259-23.033-40.206,12.924-9.017,32.044,1.952,47.33,0.25764-7.8348,6.1006-4.5301-9.1314-8.5345-13.059-2.6484-9.0266-11.121-17.428-10.001-26.581,20.899-11.401,42.244,4.3306,63.076,7.3829,35.887,8.1245,69.466,23.89,103.81,36.107,28.934,13.763,58.595,28.95,86.811,45.064,23.531,17.283,45.03,33.767,67.265,52.418,17.757,17.179,35.389,37.641,45.009,61.903,13.022,20.681,26.09,40.793,36.816,62.486-9.7946,6.6536-8.2973-8.3114-14.271-13.399-13.018-23.047-28.27-44.674-39.527-68.472-16.804-26.318-41.686-47.857-67.588-66.861-21.086-17.825-45.922-34.062-71.823-46.006-29.054-16.545-60.136-29.828-92.119-40.537-32.856-14.619-67.285-21.206-101.91-31.124-15.45-1.2971-10.602-2.9934-6.3916,10.369,3.7855,10.337,11.994,20.704,9.8534,32.029-10.549,3.8021-39.778-2.1734-41.554-4.1451,9.8882,10.198,18.553,25.627,23.384,39.558-13.276,8.2385-32.307,1.1078-47.307,3.1539-18.954,1.9099-38.291-1.8071-56.792,3.5891,4.1778-4.3204-0.1192,9.2771,6.7048,12.531,7.5646,8.942,21.792,19.738,10.207,31.967-9.3914,14.62-36.018,15.874-30.84,14.96-9.6374,4.1801,4.7888,9.6505,6.9237,13.602,13.65,11.612-14.564,14.346-23.208,12.263-14.846,0.30606-30.108,3.5287-44.915,1.9805,6.7478-6.3101,8.2081,6.0062,12.431,10.843,9.7561,17.115-13.196,30.063-28.058,32.89-8.1429,2.9534-16.642-0.25673-24.124-2.9956,16.217-1.7118-16.302,12.744-4.5132,9.9982-1.3046,9.2016,11.437,24.102-5.007,25.719-26.252,6.6527-53.212,4.7623-79.896,6.8116,8.4584-7.0535,7.8415,9.814,13.379,14.296,13.215,14.041-4.712,17.809-17.309,13.35-11.068,0.98086-15.101-7.7086-10.565-0.71604,7.0463,19.694,17.434,41.01,27.477,58.4,15.241,22.856,34.495,41.394,54.056,60.58,14.319,11.873,24.517,28.742,37.636,42.31,12.617,10.872,24.634,19.214,37.985,28.334-1.9424,0.8958-3.8942,1.7929-5.8309,2.688z"/>
  <path id="path3065" fill="#000" d="M516.5,848.74c-38.45-4.31-78.2-9.58-114.85-23.15-26.42-4.51-49.97-18.52-74.11-26.14-36.67-11.91-72.32-26.35-102.54-51.29-18.457-11.846-31.576-27.202-44.408-44.696-15.019-13.81-24.522-31.391-36.441-48.897,8.5541-7.0279,13.204,8.6846,21.548,10.783,37.659,19.636,76.52,38.914,118.82,45.934,40.374,10.171,82.035,18.35,124.84,18.144,11.4-1.3741-1.1394,0.68749,18.133-5.4929-11.932,2.8488-29.252,2.3742-43.835,4.3668-19.298-3.1259-39.282-11.456-44.526-31.579-6.7917-20.319-13.894-45.906-1.3423-65.609,13.735-28.958,48.677-39.371,78.972-39.031,23.548,0.1379,37.039,21.7,46.432,39.808,3.9874,5.0029,6.1283,10.625,9.832,15.655-8.8428,5.5187-7.8906-14.882-12.188-21.558-6.929-22.941-23.941-38.896-37.826-58.87-12.588-15.375-25.104-31.175-42.662-41.438-23.104-22.709-54.293-36.271-84.751-45.747-7.9936-3.8474-17.139-5.7325-25.894-8.7634,13.002-6.6894,30.433,0.29244,45.055,1.463,7.0833,3.3813,37.668,3.6003,24.093,8.145,6.945-11.668,33.901,8.5718,12.021,3.027-14.23-6.6878,4.5063-7.9653-15.808-3.0534-21.6-3.8944-43.241-9.7047-65.436-9.1866,12.091-6.7288,25.885,5.1289,38.064,7.7824,30.075,8.7445,58.746,24.65,80.753,45.382,19.107,11.496,33.144,31.437,46.015,46.901,12.461,18.616,27.702,32.484,33.224,55.394,3.423,6.4174,10.457,29.068-1.9462,20.546-12.486-17.791-19.632-41.15-42.639-50.852-16.857-3.3242-35.215-0.67499-51.574,4.9166,13.293-5.4635-8.5654,2.0506-17.361,12.906-11.869,13.897-20.405,30.812-16.642,49.376,3.7292,21.743,8.7323,50.082,32.849,56.029,17.92,11.764,40.811-1.5402,58.146,4.2277-11.449,2.8983-7.7526,7.9426-34.247,8.2846-49.63-1.2753-97.246-13.55-144.87-25.148-33.411-10.314-65.327-25.543-95.166-43.12-8.0748-2.3684-11.334-16.764-2.7008-9.5243,11.253,17.111,23.147,35.107,36.736,48.668,11.031,14.212,22.192,28.045,37.117,38.324,23.024,18.408,49.957,34.036,76.481,43.976,29.41,9.3043,57.918,21.398,85.685,32.095,34.95,8.357,68.277,22.383,105.24,23.915,6.7244,3.4078,25.58-0.18787,23.695,7.0993z"/>
  <path id="path3067" fill="#000" d="m340.22,475.87c21.775,4.2372,39.726,12.882,60.801,18.827,22.887,8.8072,43.998,19.436,67.837,27.732,30.062,11.316,61.355,23.441,80.009,48.996,17.171,21.626,25.24,49.066,26.361,76.408,18.146,5.5034,39.886,1.3913,57.329,10.078,32.685,9.7195,65.044,22.34,96.384,35.574,10.104,12.868-12.97-1.2635-18.929-2.7774-33.312-13.089-66.955-26.444-101.04-35.045-12.799-2.6623-26.485-0.46048-38.714-4.4671-3.208-12.056-2.1178-26.342-7.1682-37.475-8.9376-33.463-32.35-59.667-64.725-73.867-31.835-14.527-65.58-24.989-97.072-40.381-22.137-6.6474-43.758-15.602-66.417-20.663,1.7823-0.97997,3.567-1.9608,5.3482-2.9403z"/>
  <path id="path3081" d="m419.99,636.01c-4.4869,6.7262-12.839,6.7174-20.057,2.0768-7.2179-4.6406-10.941-12.297-6.0814-18.882,4.8596-6.5848,12.839-6.7174,20.057-2.0768,7.2179,4.6406,10.568,12.156,6.0814,18.882z" stroke="#000" stroke-width="0.75794244" fill="none"/>
  <path id="path3901" fill="#000" d="m410.89,615.51c7.6474,2.7519,9.6048,9.0948,7.1325,16.142-2.4724,7.0471-10.14,9.4329-16.853,7.0036-6.7126-2.4295-9.3332-9.0765-6.6555-15.994,2.6776-6.9173,8.7285-9.9037,16.376-7.1516z"/>
  <path id="path3916" d="m389.52,684.65c-4.4869,6.7262-12.839,6.7174-20.057,2.0768-7.2179-4.6406-10.941-12.297-6.0814-18.882,4.8596-6.5848,12.839-6.7174,20.057-2.0768,7.2179,4.6406,10.568,12.156,6.0814,18.882z" stroke="#000" stroke-width="0.75794244" fill="none"/>
  <path id="path3918" d="m380.41,664.15c7.6474,2.7519,9.6048,9.0948,7.1325,16.142-2.4724,7.0471-10.14,9.4329-16.853,7.0036-6.7126-2.4295-9.3332-9.0765-6.6555-15.994,2.6776-6.9173,8.7285-9.9037,16.376-7.1516z" fill="#000"/>
  <path id="rect3922" fill="#000" d="m411.41,658.71c31.188,7.9162,78.929,15.395,78.036,17.341-0.89354,1.9464-58.103-5.0811-85.511-6.5777z"/>
 </g>
</svg>
