<?xml version="1.0" encoding="UTF-8" standalone="no"?>
<!-- Created with Inkscape (http://www.inkscape.org/) -->
<svg id="svg2" xmlns:rdf="http://www.w3.org/1999/02/22-rdf-syntax-ns#" xmlns="http://www.w3.org/2000/svg" height="600" width="1200" version="1.1" xmlns:cc="http://creativecommons.org/ns#" xmlns:dc="http://purl.org/dc/elements/1.1/">
     
<!-- <g transform="translate(0,-350)"> -->
<!-- <path id="begin" d="m 369.16066,466.32914 c -11.65234,0.72822 -12.45084,13.64605 -13.04459,22.65737 -0.71815,11.1256 1.25706,22.11092 4.13921,32.78389 1.28435,11.24596 3.35244,23.43514 -3.1189,33.5928 -7.4518,10.11585 -17.37821,20.48581 -16.14569,34.07581 -0.93987,10.945 1.22819,21.69067 5.26456,31.8118 0.19224,5.58016 7.51727,19.50222 0.63814,20.86425 -5.24376,-2.73858 -1.40956,-15.90029 -6.00384,-21.76297 -4.07868,-11.11791 -5.5046,-22.76866 -4.6242,-34.5772 0.099,-12.9308 10.52337,-21.95691 16.83176,-32.16816 6.07231,-10.16585 3.33718,-22.3013 2.08539,-33.35614 -4.39675,-14.98731 -5.64386,-31.34375 -1.33165,-46.4883 1.17414,-6.55201 9.60912,-8.81253 15.30981,-7.43315 z"> -->
<!--       <animate attributeName="d" id="target1" begin="1s; begin1.end" dur="0.5s"  fill="freeze" to="m 350.03605,467.80831 c 11.68495,-0.87511 16.94227,8.74699 22.4946,18.02553 2.75572,9.78951 -6.22513,24.24869 -11.89405,33.76371 -4.68358,9.64263 -10.81026,21.47552 -10.51201,35.10705 2.7026,11.45195 2.39614,22.44543 3.62866,36.03543 -0.93987,10.945 -3.22549,22.31418 -8.63093,31.63365 -2.39089,7.89608 -3.79508,13.89058 -8.09107,20.95332 -5.24376,-2.73858 -1.76586,-10.91216 2.72537,-21.85204 4.82869,-10.40532 8.39089,-22.59051 9.27129,-34.39905 0.099,-12.9308 -0.69991,-18.48304 -2.58629,-30.47576 -0.34099,-10.52215 1.64478,-25.15166 9.74572,-35.76113 8.87522,-17.65952 12.97253,-37.22261 6.32868,-42.92536 -9.24747,-5.12683 -9.2733,-6.58568 -12.47997,-10.10535 z"/> -->
<!--       <animate attributeName="d" id="begin1" begin="target1.end" dur="0.5s"  fill="freeze" to="m 369.16066,466.32914 c -11.65234,0.72822 -12.45084,13.64605 -13.04459,22.65737 -0.71815,11.1256 1.25706,22.11092 4.13921,32.78389 1.28435,11.24596 3.35244,23.43514 -3.1189,33.5928 -7.4518,10.11585 -17.37821,20.48581 -16.14569,34.07581 -0.93987,10.945 1.22819,21.69067 5.26456,31.8118 0.19224,5.58016 7.51727,19.50222 0.63814,20.86425 -5.24376,-2.73858 -1.40956,-15.90029 -6.00384,-21.76297 -4.07868,-11.11791 -5.5046,-22.76866 -4.6242,-34.5772 0.099,-12.9308 10.52337,-21.95691 16.83176,-32.16816 6.07231,-10.16585 3.33718,-22.3013 2.08539,-33.35614 -4.39675,-14.98731 -5.64386,-31.34375 -1.33165,-46.4883 1.17414,-6.55201 9.60912,-8.81253 15.30981,-7.43315 z"/> -->

<!-- </path> -->
<!-- </g> -->
<!-- <g transform="translate(0,-350)"> -->
<!-- <path id="begin"  d="m 625.6644,524.7535 c -11.65234,0.72822 -12.98528,11.15199 -13.57903,20.16331 -0.71815,11.1256 1.25706,22.11092 4.13921,32.78389 1.28435,11.24596 11.10185,19.60497 4.63051,29.76263 -7.4518,10.11585 -22.72263,17.90268 -23.71695,30.78009 -0.93987,10.945 5.32557,28.46027 9.36194,38.5814 0.19224,5.58016 18.02796,18.78963 11.14883,20.15166 -5.24376,-2.73858 -12.72191,-15.09863 -17.31619,-20.96131 -4.07868,-11.11791 -8.80032,-29.62733 -7.91992,-41.43587 0.099,-12.9308 18.09463,-18.48304 24.40302,-28.69429 6.07231,-10.16585 -4.41223,-18.64928 -5.66402,-29.70412 -4.39675,-14.98731 -5.64386,-31.34375 -1.33165,-46.4883 1.17414,-6.55201 10.14356,-6.31847 15.84425,-4.93909 z"> -->
<!--       <animate attributeName="d" id="target" begin="1s; beginy.end" dur="0.5s"  fill="freeze" to="m 602.35333,528.54859 c 11.68495,-0.87511 20.32707,7.32181 25.8794,16.60035 2.75572,9.78951 -5.95791,20.86389 -11.62683,30.37891 -4.68358,9.64263 -12.14636,13.19167 -11.84811,26.8232 2.7026,11.45195 8.72036,30.9965 9.95288,44.5865 -0.93987,10.945 -3.849,23.29399 -9.25444,32.61346 -2.39089,7.89608 -7.09081,8.18987 -11.3868,15.25261 -5.24376,-2.73858 1.70802,-5.56774 6.19925,-16.50762 4.82869,-10.40532 8.83625,-23.21403 9.71665,-35.02257 0.099,-12.9308 -7.02413,-27.03411 -8.91051,-39.02683 -0.34099,-10.52215 2.98088,-16.86781 11.08182,-27.47728 8.87522,-17.65952 13.4179,-29.56228 8.64459,-37.0465 -7.55507,-6.10664 -15.24123,-7.65456 -18.4479,-11.17423 z"/> -->
<!--       <animate attributeName="d" id="beginy" begin="target.end" dur="0.5s"  fill="freeze" to="m 625.6644,524.7535 c -11.65234,0.72822 -12.98528,11.15199 -13.57903,20.16331 -0.71815,11.1256 1.25706,22.11092 4.13921,32.78389 1.28435,11.24596 11.10185,19.60497 4.63051,29.76263 -7.4518,10.11585 -22.72263,17.90268 -23.71695,30.78009 -0.93987,10.945 5.32557,28.46027 9.36194,38.5814 0.19224,5.58016 18.02796,18.78963 11.14883,20.15166 -5.24376,-2.73858 -12.72191,-15.09863 -17.31619,-20.96131 -4.07868,-11.11791 -8.80032,-29.62733 -7.91992,-41.43587 0.099,-12.9308 18.09463,-18.48304 24.40302,-28.69429 6.07231,-10.16585 -4.41223,-18.64928 -5.66402,-29.70412 -4.39675,-14.98731 -5.64386,-31.34375 -1.3315,-46.4883 1.17414,-6.55201 10.14356,-6.31847 15.84425,-4.93909 z"/> -->

<!-- </path> -->
<!-- </g> -->
<g transform="translate(-155,-62.5)">
<path id="begin"  d="m 562.34144,227.23099 c 4.47382,13.57089 -1.86735,38.01665 0.34967,50.7077 2.04802,11.72361 -5.98398,32.29711 -3.73237,55.90045 2.25161,23.60334 -9.95205,38.29425 -3.09441,67.84166 -9.3209,-35.87061 3.13208,-47.7642 0.92307,-68.46549 -2.20901,-20.70129 5.22027,-39.79112 3.46995,-55.04291 -1.65857,-14.45226 2.22121,-42.01512 2.08409,-50.94141 z">
      <animate attributeName="d" id="target2" begin="1s; begin2.end" dur="0.5s"  fill="freeze" to="m 562.0895,227.48293 c -1.06882,14.3267 6.95049,39.52828 4.63262,51.96739 -2.18011,11.69977 -7.49561,35.82425 -5.244,59.42759 2.25161,23.60334 0.62936,35.52293 -8.38511,63.05483 8.56672,-34.10704 8.17084,-48.01614 5.96183,-68.71743 -2.20901,-20.70129 0.47758,-41.35412 3.97383,-56.3026 3.3802,-14.45226 -5.33694,-40.75543 -0.93917,-49.42978 z"/>
      <animate attributeName="d" id="begin2" begin="target2.end" dur="0.5s"  fill="freeze" to="m 562.34144,227.23099 c 4.47382,13.57089 -1.86735,38.01665 0.34967,50.7077 2.04802,11.72361 -5.98398,32.29711 -3.73237,55.90045 2.25161,23.60334 -9.95205,38.29425 -3.09441,67.84166 -9.3209,-35.87061 3.13208,-47.7642 0.92307,-68.46549 -2.20901,-20.70129 5.22027,-39.79112 3.46995,-55.04291 -1.65857,-14.45226 2.22121,-42.01512 2.08409,-50.94141 z"/>

</path>
</g>
<g transform="translate(115,-172.5)">
<path id="begin"  d="m 562.34144,227.23099 c 4.47382,13.57089 -1.86735,38.01665 0.34967,50.7077 2.04802,11.72361 -5.98398,32.29711 -3.73237,55.90045 2.25161,23.60334 -9.95205,38.29425 -3.09441,67.84166 -9.3209,-35.87061 3.13208,-47.7642 0.92307,-68.46549 -2.20901,-20.70129 5.22027,-39.79112 3.46995,-55.04291 -1.65857,-14.45226 2.22121,-42.01512 2.08409,-50.94141 z">
      <animate attributeName="d" id="target2" begin="1s; begin2.end" dur="0.5s"  fill="freeze" to="m 562.0895,227.48293 c -1.06882,14.3267 6.95049,39.52828 4.63262,51.96739 -2.18011,11.69977 -7.49561,35.82425 -5.244,59.42759 2.25161,23.60334 0.62936,35.52293 -8.38511,63.05483 8.56672,-34.10704 8.17084,-48.01614 5.96183,-68.71743 -2.20901,-20.70129 0.47758,-41.35412 3.97383,-56.3026 3.3802,-14.45226 -5.33694,-40.75543 -0.93917,-49.42978 z"/>
      <animate attributeName="d" id="begin2" begin="target2.end" dur="0.5s"  fill="freeze" to="m 562.34144,227.23099 c 4.47382,13.57089 -1.86735,38.01665 0.34967,50.7077 2.04802,11.72361 -5.98398,32.29711 -3.73237,55.90045 2.25161,23.60334 -9.95205,38.29425 -3.09441,67.84166 -9.3209,-35.87061 3.13208,-47.7642 0.92307,-68.46549 -2.20901,-20.70129 5.22027,-39.79112 3.46995,-55.04291 -1.65857,-14.45226 2.22121,-42.01512 2.08409,-50.94141 z"/>

</path>
</g>
<g transform="translate(-20,-115)">
<path id="begin"  d="m 562.34144,227.23099 c 4.47382,13.57089 -1.86735,38.01665 0.34967,50.7077 2.04802,11.72361 -5.98398,32.29711 -3.73237,55.90045 2.25161,23.60334 -9.95205,38.29425 -3.09441,67.84166 -9.3209,-35.87061 3.13208,-47.7642 0.92307,-68.46549 -2.20901,-20.70129 5.22027,-39.79112 3.46995,-55.04291 -1.65857,-14.45226 2.22121,-42.01512 2.08409,-50.94141 z">
      <animate attributeName="d" id="target2" begin="1s; begin2.end" dur="0.5s"  fill="freeze" to="m 562.0895,227.48293 c -1.06882,14.3267 6.95049,39.52828 4.63262,51.96739 -2.18011,11.69977 -7.49561,35.82425 -5.244,59.42759 2.25161,23.60334 0.62936,35.52293 -8.38511,63.05483 8.56672,-34.10704 8.17084,-48.01614 5.96183,-68.71743 -2.20901,-20.70129 0.47758,-41.35412 3.97383,-56.3026 3.3802,-14.45226 -5.33694,-40.75543 -0.93917,-49.42978 z"/>
      <animate attributeName="d" id="begin2" begin="target2.end" dur="0.5s"  fill="freeze" to="m 562.34144,227.23099 c 4.47382,13.57089 -1.86735,38.01665 0.34967,50.7077 2.04802,11.72361 -5.98398,32.29711 -3.73237,55.90045 2.25161,23.60334 -9.95205,38.29425 -3.09441,67.84166 -9.3209,-35.87061 3.13208,-47.7642 0.92307,-68.46549 -2.20901,-20.70129 5.22027,-39.79112 3.46995,-55.04291 -1.65857,-14.45226 2.22121,-42.01512 2.08409,-50.94141 z"/>

</path>
</g>
  <g  id="layer2" transform="translate(0,180)">
      <animateTransform
	  id="rot1"
           attributeName="transform" 
           attributeType="XML"
           type="rotate"
           from="-2 600 300"
           to="2 600 300" 
           dur="4s"
           begin="0s; rot2.end"
           fill="freeze"
                    
           />
      <animateTransform 
	  id="rot2"
           attributeName="transform" 
           attributeType="XML"
           type="rotate"
           from="2 600 300"
           to="-2 600 300" 
           dur="4s"
           begin="rot1.end"
           fill="freeze"   
           />

    <path style="opacity:0.98000004;fill:#000000;fill-opacity:1;stroke:none" d="m 250.73876,498.92602 c -20.4839,27.4519 8.05099,77.40417 28.27798,69.70729 -27.93603,5.54961 23.08414,-14.49323 31.22388,-0.84835 13.98717,10.89012 48.94184,6.00396 55.30474,7.3652 -28.43736,1.60555 22.83764,-4.06389 30.86284,-12.48736 49.01156,-24.41999 102.82704,-36.78663 154.08559,-55.31156 28.46708,-16.38977 58.09336,-30.19929 88.40943,-42.79946 67.22358,-33.02889 126.12438,-82.79602 198.29567,-105.76909 31.79766,-8.12553 61.99633,-22.72196 87.23723,-43.26008 25.1165,-20.07519 32.6203,-35.27628 31.2677,-63.98338 -0.7027,-14.91215 -30.4768,-49.32447 3.5417,-37.32104 28.4306,26.64682 -6.1894,58.5375 -0.953,88.54811 -29.0451,13.05858 -50.9714,38.97217 -81.68317,49.11417 -45.38014,13.45201 -88.209,33.77886 -128.30171,58.80372 -43.45885,26.08524 -85.60917,55.08034 -133.74288,72.21974 -29.73154,13.97027 -57.16571,33.44541 -90.20922,39.39243 -41.7743,14.09234 -84.21426,26.5513 -123.76676,46.31654 -31.4281,12.78551 -69.01188,11.54717 -101.09516,2.92492 -19.5976,-6.82977 -2.29303,-7.36498 1.06469,-5.5164 -30.18246,15.86315 -76.84607,-0.45115 -69.62397,-40.65581 -0.269,-16.16506 0.4247,-32.15278 19.80442,-26.43959 z" id="path3248"  />
    <path style="opacity:0.98000004;fill:#000000;fill-opacity:1;stroke:none" d="m 296.57408,443.67772 c 4.24162,4.07076 93.81591,-28.30919 97.2688,-43.04343 3.45289,-14.73424 -101.51044,38.97266 -97.2688,43.04343 z M 887.80965,293.6929 c -36.46944,11.602 -79.49984,21.73036 -104.98644,31.56881 -25.4866,9.83844 -7.59021,4.42769 -38.04741,30.59487 -30.45719,26.16717 -65.76889,19.32954 -120.34124,44.96694 -54.57235,25.6374 -90.97521,63.63142 -142.9904,72.30408 -23.0183,3.83791 -52.32854,9.12646 -77.00111,23.60014 -24.67257,14.47369 -67.19117,33.55236 -92.18657,33.58572 -12.43705,0.0166 -29.95181,-15.88015 -37.1376,-19.42655 -7.18582,-3.54642 -30.0708,13.57415 -39.65307,-6.26338 -14.34165,-29.69056 -2.24314,-51.57062 26.16296,-71.36249 33.05567,-23.03147 67.19534,-38.18053 105.12363,-53.38302 102.15189,-40.94465 218.35387,-68.15132 298.14796,-122.36087 41.92819,-28.48467 77.32538,-53.16476 126.19177,-62.7822 48.90676,-12.98389 101.16909,-17.46687 150.90279,-7.1714 36.0174,21.70012 6.652,55.21495 -1.8801,64.96918 -8.5321,9.75422 -15.8358,29.55818 -52.30517,41.16017 z" id="path3250" />
  </g>
</svg>



