<?xml version="1.0" encoding="UTF-8" standalone="no"?>
<!-- Created with Inkscape (http://www.inkscape.org/) -->
<svg id="svg2" xmlns:rdf="http://www.w3.org/1999/02/22-rdf-syntax-ns#" xmlns="http://www.w3.org/2000/svg" height="600" width="1200" version="1.1" xmlns:cc="http://creativecommons.org/ns#" xmlns:dc="http://purl.org/dc/elements/1.1/">
 <defs id="defs4"></defs>
 <metadata id="metadata7">
  <rdf:RDF>
   <cc:Work rdf:about="">
    <dc:format>image/svg+xml</dc:format>
    <dc:type rdf:resource="http://purl.org/dc/dcmitype/StillImage"/>
    <dc:title/>
   </cc:Work>
  </rdf:RDF>
 </metadata>
 <g id="layer1" transform="translate(0,-452.36218)">
  <path id="path3942" fill="#000" d="m127.22,702.56c-6.4858-3.8281-14.662-3.8465-20.879-8.9344-9.8115-6.18-19.457-11.326-25.191-21.636-3.9582-6.0977-8.8178-13.285-11.397-19.906-5.2502-10.563-13.245-19.16-15.594-31.608-8.8201-22.647-8.5599-47.629-5.8825-70.973,3.458-16.142,19.075-28.558,29.675-38.033-19.74,16.975-7.2588,6.3609,4.3623-3.6913-17.299,13.615-10.232,9.3814,1.1482-0.849-26.363,23.176,5.8823-7.9581,17.691-10.792,17.037-7.875,37.57-9.2099,54.178-9.7012,14.388,1.2569,27.898,1.7763,43.245,2.0827,24.694,2.4075,49.065,11.161,63.916,31.346,6.7318,6.3728,14.054,14.761,17.022,23.354,9.7103,18.146,11.125,39.1,9.9034,59.517,1.3557,11.173-11.802,22.352-8.9984,31.53,30.2,11.428,63.639,14.924,94.788,20.661,19.727,5.1433,44.505,9.1639,64.678,14.181,13.03,2.5134,30.77,5.1452,44.964,8.6318,18.66,3.9949,36.428,6.6027,55.479,13.084,25.838,4.7109,50.847,8.8713,76.483,14.802,14.444,1.8962,26.841,4.4166,41.605,8.3913,6.2905,2.3419,21.419,3.1738,29.338,6.2348,16.203,2.0609,30.104,6.2827,46.716,7.2207,4.8925,1.0474,31.709,2.2098,22.511,10.585-9.0298,14.63-26.731,1.8074-40.226,3.6735-21.05-3.9457-42.965-4.4712-64.399-9.282-9.5378-3.8061-21.976-4.7176-30.698-7.3906-12.435,0.40643-23.912-4.4916-37.251-6.266-14.617-2.6485-29.951-7.066-46.656-9.5628-12.8-3.6392-25.704-5.7557-37.351-7.4825-11.286-3.9919-21.935-4.7589-32.615-7.8275-8.1608-0.0659-22.651-3.7896-33.276-4.6796-22.214-3.0816-41.733-7.6382-62.798-13.382-21.225-5.3314-44.325-6.4798-66.171-10.177-11.7-5.273-26.853-4.8399-40.172-8.7981-10.192,0.20702,11.302-17.923,15.856-4.95,6.4566,7.3928,15.18,13.117,23.702,16.418,16.563,11.537,34.627,18.788,50.383,28.984,25.096,10.914,47.957,26.936,72.618,37.106,6.0273,5.0665,19.946,8.7297,28.483,14.191,10.401,5.665,24.836,11.089,33.073,14.254,18.986,4.2656,35.657,14.715,53.85,17.56,6.8296,4.3141,20.636,8.0021,30.047,12.012,21.175,6.8023,44.105,12.657,65.214,19.098,16.534,3.7996,29.068,7.8209,43.912,15.336,10.934,3.5573,23.182,9.2489,35.426,15.726,19.49-0.27033-9.3887,20.994-15.624,7.793-10.398-3.683-22.72-11.75-36.766-12.249-7.1631-3.3834-20.207-4.3593-28.704-9.1744-11.772-2.5783-20.581-8.1108-30.292-12.015-11.513-3.3581-19.143-7.1627-30.261-10.391-8.8429-1.446-16.962-6.0781-23.495-7.7433-8.9601-4.8264-24.249-6.1786-33.073-10.536-9.6113-3.095-16.941-4.4452-27.344-8.3384-9.2374-3.523-23.447-5.2392-33.766-9.3997-16.352-5.4147-34.536-8.5-48.518-16.097-12.136-4.4838-25.076-12.224-37.545-16.869-14.776-5.8506-28.565-12.941-43.042-19.981-15.038-6.6885-29.868-13.838-44.112-21.113-9.5565-2.7425-16.398-8.8243-26.126-9.951,8.25-7.6484,10.652-11.971,15.539,0.9469,10.614,10.222,24.216,16.602,33.29,29.408,6.9549,6.9477,12.2,18.312,19.992,24.94,5.1795,6.5919,9.4355,11.518,14.302,19.227,3.9768,9.2094,8.8968,16.731,14.954,24.787,1.659,8.0971,8.7252,15.192,3.3478,24.935-5.6337,15.575-10.682,31.667-11.275,47.382-2.2746,13.118-10.459,28.295-14.256,42.327-7.5491,26.909-23.668,52.006-47.312,68.483,19.073-16.074,8.6436-6.8557-3.2123,2.9795,13.919-11.436,17.673-14.699,1.6386-1.2568-4.9216,3.4605,20.798-16.964-2.0822,2.0415-18.98,13.787-40.39,20.193-60.014,32.408-27.683,13.547-57.445,23.348-88.048,28.387-16.943-0.073-33.001,6.0317-50.105,4.5412-8.7977,0.014-23.728,0.2295-34.415-0.8258-11.452-0.147-22.605-5.7446-31.936-9.1533-13.414-1.7985-18.717-2.9536-5.1258-12.939,12.093-4.1671,24.477,6.0373,36.847,8.0791,15.666,4.031,33.822,2.22,50.824,3.0469,17.086-0.594,34.118-4.7941,51.4-5.7627,36.545-7.1731,72.18-20.833,104.72-40.34,11.282-1.112,53.608-32.694,24.915-10.281,19.111-16.101,15.874-14.548,5.6656-5.3934,22.103-19.446,29.294-45.305,37.75-71.738,4.659-9.4513,10.216-24.037,9.8569-37.139,2.2043-16.161,10.649-30.497,12.432-47.084-5.8348-11.464-9.3919-20.36-17.161-30.045-1.6393-7.1112-7.0756-13.201-12.043-20.385-7.9807-8.5818-16.125-17.189-21.798-28.269-6.4711-4.3732-7.3363-9.8266-13.9-13.332-8.4842-6.3125-15.197-13.015-23.018-18.379-11.349-10.601,0.3074-22.078,12.074-23.377,8.621,1.8681,17.753,9.3904,27.391,11.027,11.196,7.9146,26.438,11.796,38.382,19.704,12.663,4.1658,25.502,12.771,39.067,17.406,7.3437,2.9969,19.317,8.6038,29.179,13.397,15.717,6.4484,29.106,13.861,45.765,17.058,16.031,6.2993,34.2,9.5022,50.909,14.573,11.318,4.4502,18.487,5.4387,30.012,9.3631,12.406,4.974,23.234,5.593,35.242,10.927,15.422,7.0605,32.179,9.688,47.51,17.053,10.813,1.341,17.266,9.0537,27.802,10.453,20.028,9.6324,44.003,9.4621,63.354,20.166,5.9269,3.6206,13.499,4.4065,18.402,8.7329-7.3386,21.798-26.62,5.6059-39.285,0.3087-10.895-3.597-19.555-8.4224-31.53-12.806-14.5-6.8179-32.933-9.2184-49.131-15.248-11.752-1.5865-24.06-7.5112-34.517-9.3452-15.806-4.7174-33.238-12.914-48.091-17.257-18.667-5.186-34.679-13.404-53.427-18.074-15.883-6.8797-28.432-14.348-44.255-20.019-15.223-9.2052-33.652-16.684-48.544-25.663-12.448-7.1606-26.164-14.363-38.996-20.688-10.662-6.7806-24.946-12.485-35.213-19.345-6.5709-4.0781-15.29-9.4216-20.918-11.354-7.3584-5.5879-14.83-12.374-21.658-17.292,3.108-15.953,19.305-13.25,31.785-10.339,16.218,3.5202,34.793,8.6184,51.957,9.959,12.646,1.3346,22.726,2.8605,35.962,5.7292,14.811,4.2522,29.013,7.5588,43.027,10.442,28.718,4.5979,57.796,8.3336,86.359,15.061,14.349,3.8643,31.268,5.6998,44.693,9.4182,20.443,4.2212,36.734,7.9382,56.451,11.741,14.103,3.902,29.507,3.235,44.234,8.6249,8.1283,1.5268,17.715,3.9361,23.753,4.7905,15.282,2.8614,33.592,2.7394,49.01,6.6556,11.353,0.44063,22.453,2.4597,33.753,3.4342-12.089,13.398-15.284,12.372-29.783,7.3688-9.3764-2.2094-21.487-1.6609-31.681-4.6565-11.206-2.3956-26.383-3.9786-34.463-6.8983-22.494-2.5136-42.204-10.915-65.623-12.419-14.109-4.5585-29.694-6.0597-44.801-9.2191-24.779-3.993-47.705-11.884-72.383-15.839-15.795-3.2817-34.242-7.8619-49.183-9.3485-14.453-3.8167-25.831-4.8963-40.865-9.5732-12.111-0.9278-26.153-5.4821-37.365-7.1777-7.84-2.1012-18.063-2.8676-22.281-3.9016-22.544-4.4606-47.215-7.3662-67.118-17.306-3.0797-6.3853,6.6975-16.475,7.5428-23.981,3.8943-12.488,2.813-26.006,1.0831-38.685-1.0681-12.539-5.9533-23.395-11.396-34.525-5.4972-9.6912-13.506-15.789-20.341-23.985-15.267-14.951-38.48-22.413-60.324-22.976-15.777,0.3462-28.654-1.841-44.16-1.7602-22.268,1.2299-46.516,5.0591-64.779,20.137,17.624-14.907,12.915-11.045-1.0545,0.79415,19.79-17.289,2.6317-1.074-6.5009,5.6964,26.195-23.286-9.2805,8.3702-5.1675,23.3-0.28249,10.015-0.94082,24.116,0.32512,35.621,1.6863,12.591,5.1577,22.794,7.8726,32.448,3.8353,10.745,9.8473,15.637,14.648,26.664,3.894,8.5206,9.8668,18.531,15.956,25.415,11.595,10.722,24.879,18.076,40.245,22.084-4.2374,3.9585-8.5143,8.0123-12.728,11.913z"/>
  <path id="path3944" fill="#000" d="m-17.671,726.88c10.566-0.21859,22.649-4.2904,31.478-4.0446,9.9223-0.71176,20.022-4.0416,30.117-4.2622,10.665,0.6265,22.004-1.5393,32.328,2.807,9.8714,1.8931,22.316,4.4242,31.285,9.8297,7.2942,1.0308,12.114,6.139,17.46,10.529,4.6852,3.4625,10.918,10.391,14.148,15.97,2.6451,4.8431,4.8012,10.025,5.6236,16.378,1.2929,7.1199,1.0747,14.934-0.0929,21.747-0.54084,5.9786-3.6314,12.566-5.4745,19.019-4.01,10.225-11.17,19.255-14.682,29.547-3.6404,6.9202-7.574,13.296-12.034,19.952-3.0754,7.5844-10.567,15.904-12.661,24.141-5.0092,12.553-14.492,22.629-25.724,29.873-10.953,8.0738-24.306,12.322-36.448,18.426-9.9492,2.4656-19.645,5.6046-29.628,7.876-157.97-1.7672-157.95,26.542-6.8354-7.1751,8.6867-0.65424,16.436-5.2649,24.658-6.6996,13.465-3.1645,27.376-7.2614,39.767-14.187,6.0873-1.9089,18.006-9.6057,19.9-10.651-6.2415,4.9274-12.524,11.837-5.1861,2.0086,6.3171-11.095,9.8187-23.372,17.903-33.227,3.2758-7.5478,10.032-15.296,12.495-22.543,3.1015-7.5633,8.8152-17.077,13.424-25.443,2.3485-6.608,4.6472-13.192,6.3356-19.575,2.3884-6.9867,0.59803-13.026,1.2231-20.209-1.5122-9.0344-3.9285-17.996-10.092-24.71-4.2571-6.5231-11.926-9.9512-15.802-15.031-6.2034-3.8304-13.656-5.6775-20.262-9.1126-8.5665-3.2613-18.946-3.0992-26.429-7.2712-8.3688-0.169-16.647-0.69452-24.075-0.1217-6.3313-0.54735-16.179,1.7205-23.937,3.4228-8.661-0.0939-17.127,1.6615-24.869,2.539-35.447-32.838-5.5564,6.9051-3.9122-9.8008z"/>
  <path id="path3950" fill="#c8beb7" d="m179.4,568.27c-1.5554-0.62557-3.3285-0.42751-5.0896-0.64363-2.1389-0.20935-4.1883-0.13652-6.4786-0.13434-1.5412-0.13637-3.0927,0.82566-4.6584,1.4099-0.9912,0.40212-4.0393,2.811-1.8365,1.018,0.73081-0.6094,3.2396-2.8097,1.3471-1.0644-1.7533,1.5261-2.805,3.6319-4.0784,5.5301-1.3769,1.3192-2.0412,3.3487-2.4113,4.9823-0.0916,1.5936-0.51536,3.3079-0.54313,4.8055-0.34175,1.4409-0.30762,3.2398,0.19397,4.4213,0.0311,1.5541,1.1366,2.5389,1.5016,3.9509,0.57131,0.50073,1.3349,2.5152,2.3048,3.554,1.0519,1.2744,2.215,2.4191,3.0785,3.6196,1.1711,0.77096,2.2453,1.6209,3.4668,2.4395,1.3435,0.75643,2.9012,1.9571,4.3929,2.0102,1.8947,0.35368,3.9043,0.49219,5.515,0.27882,1.8919,0.0294,4.0658-0.2759,6.0546-0.42019,1.719-0.0713,4.2221-0.82656,6.349-1.0545,2.4566-0.81283,4.9854-1.6674,6.8796-3.4497-0.88407,0.73263-3.478,2.8627-3.2174,2.68,1.2884-1.3042,2.3533-2.8872,2.9042-4.6474,0.41352-1.7918,0.55453-3.3557,0.99334-4.9673,0.31408-1.8506,0.52089-3.8035,0.40907-5.5829-0.27195-1.1513-0.37367-2.9319-0.86431-4.2121-0.34479-1.3918-0.63126-2.0234-1.2215-3.4201-0.86053-0.85563-1.3724-2.1715-2.4096-2.8131-0.96867-0.70014-1.9441-1.4883-2.9039-2.0896-1.0549-0.48359-1.3652-1.2656-2.683-1.7294-0.81751-1.1412-2.2288-1.5476-3.1648-2.3687-1.302-0.56354-2.5954-1.0833-3.9709-1.5935-0.60762-0.53696-3.2029,0.15259-2.9803-0.32213,0.87639-0.91787,1.7528-1.8357,2.6292-2.7536,1.7164-0.44383,3.2334,0.10158,4.6474,0.55973,1.1468,0.53803,1.9947,0.80304,2.8952,1.4392,1.3969,0.5898,2.4706,1.7291,3.815,2.5096,0.79941,0.75906,2.1992,1.397,3.1133,2.2185,1.1053,0.6798,2.3567,1.6419,2.9782,2.6178,1.0054,0.96276,1.6195,1.925,2.0206,3.2083,0.67644,1.5644,0.83112,2.3966,1.0888,4.0288,0.26873,1.458,0.72771,3.1627,0.37413,4.642-0.15279,1.8723-0.14046,3.3995-0.76236,5.1905-0.22648,1.1123-0.38223,2.6336-0.70992,3.6977-0.60336,1.8017-1.6827,3.4291-3.1489,4.6663-2.186,1.8952-4.41,3.9888-7.2577,4.7415-1.5865,0.70031-3.13,0.82782-4.882,1.2129-1.8008,0.50977-3.3905,0.40889-5.1895,0.76323-1.9478-0.002-4.0423,0.53241-5.9443,0.25953-1.4652,0.15464-3.098-0.0378-4.4975-0.38789-1.5376-0.1342-2.4131-0.98804-3.4825-1.6297-1.4357-0.49562-2.6005-1.7751-3.9402-2.4683-0.57659-0.92102-1.658-1.6438-2.0024-2.5154-0.90958-0.71825-1.9148-1.8332-2.6218-3.0165-0.86739-1.3218-1.5206-2.9679-2.1627-4.0559-0.74576-1.5872-1.193-3.3341-1.2244-5.1584,0.0699-1.3121,0.14121-2.0585,0.41344-3.2369,0.0599-1.8088,0.31101-3.4736,0.78699-5.0563,0.43252-1.6103,0.93723-2.1882,1.9712-3.5918,1.3696-1.749,2.292-3.9509,4.0381-5.4359,1.6248-1.5572,3.4498-2.9767,5.2703-4.2676,1.795-1.0141,3.8026-2.0957,5.9194-2.125,2.1869-0.0807,3.2931-0.095,5.3291,0.0299,2.3995-0.074,3.131,0.38452,5.6117,0.39229,0.57603,0.25937,1.6311,0.23235,0.44434,1.0129-0.79936,0.77391-1.6001,1.5471-2.3986,2.3215z"/>
  <path id="path3952" fill="#000" d="m188.58,594.31c0.0692,3.7273-4.2601,6.2116-7.5862,4.9239-3.0108-0.86532-4.753-4.6983-3.0228-7.4225,1.9198-3.4451,7.4125-3.6614,9.6449-0.43219,0.61915,0.84393,0.96768,1.8833,0.96411,2.9308z"/>
  <path id="path4493" d="M-166.96,1150.6,713.03,991.04-241.06,992.37,719.73,944.14-300.25,863.28,718.61,916.27-305.73,682.42,723.1,886.81-253.95,537.81,732.86,860.46-143.76,266.8,745.19,854.02,38,61.054,764.99,831.32,229.71-83.669,791.89,808.03,447.31-185.37,826.48,799.01,681.31-239.61,858.47,788.67,921.47-244.01,912.96,787.93,1157.3-198.38,967.76,793.36,1378.5-104.72,1028.3,797.48,1575.4,32.887,1075.2,803.54,1644.7,182.61,1118,826,1768.6,375.49,1165.3,844.24,1941.6,641.25l-754.02,243.07,783.5-4.6884c-1110.5,232.17,453.5,236.27-2138.1,270.97z" stroke="#c50000" fill="#FFF"/>
  <path id="path3802" fill="#000" d="m750.58,860.29c-0.67139,12.162-2.1518,24.012-4.442,35.54-2.0898,10.518-4.3566,19.308-6.799,26.363l-12.428,4.182-0.13034-0.17304,0.0857-0.52014c8.4267-20.413,13.959-37.234,16.597-50.463l0.55826-2.7741,1.4563-9.1883c3-1.97,4.7027-2.9553,5.107-2.956m1.7329-0.003c8.8191,5.2123,20.108,10.276,33.871,15.197,5.8676,1.954,12.43,3.8488,19.681,5.6845l-0.086,0.34672c-1.4339,5.895-2.4688,8.8438-3.1035,8.8449-2.8026,0.005-10.252,1.1739-22.351,3.506-4.6197,1.1638-10.264,2.7915-16.938,4.884l-0.17329,0.00029c-0.17332-0.0286-1.4209-3.319-3.7435-9.8728,0.11444-0.57787,4.4886-1.3946,13.121-2.4504,7.3073-0.70642,12.458-1.0623,15.466-1.0678l3.6395-0.007,0.64863-0.69444c0.11449-0.54903-0.85387-0.89386-2.9044-1.0347-8.6686-1.7173-16.83-3.9555-24.489-6.7148l-7.5018-3.2797-0.99532,0.69505-0.0861,0.34673c-0.57605,16.985-1.7798,30.1-3.6118,39.347l-3.2269,12.836-0.21636,0.17368-0.17329,0.00029c-5.5518-3.139-8.3134-4.9827-8.286-5.5312,2.5268-8.0921,4.3777-15.081,5.5515-20.987l1.6319-8.1484c1.517-7.628,2.8129-18.258,3.8853-31.903l0.21636-0.17367,0.17328-0.0003m5.6595,15.063,12.704,5.0032,9.2331,2.4101,4.4646,1.0319-0.0857,0.52014c-3.8712,0.007-9.4164,0.53693-16.636,1.5902-7.0797-1.5759-10.549-2.7258-10.406-3.447l0.33409-6.9333,0.21636-0.17369,0.17328-0.00029m-0.36469,14.039,0.34656-0.00059c0.43373,0.28812,1.7247,3.6943,3.8748,10.219-2.9381,4.8588-4.7377,7.5192-5.4024,7.9826-0.92633-1.096-1.1462-2.8869-0.65955-5.3712l1.1499-11.094,0.69014-1.7341m44.632,2.1726,0.13035,0.17306-0.043,0.17335c-4.3564,2.9547-6.8518,4.5183-7.4875,4.6932-5.5165,0.70319-11.609,1.9855-18.283,3.8462-4.7053,1.5392-10.551,3.6302-17.539,6.2704l-0.13033-0.17304,0.043-0.17338c2.4195-4.0481,3.8603-6.0732,4.3224-6.074,10.22-3.5137,20.374-6.0733,30.441-7.6813l8.5342-1.0553m-62.072,31.651,7.4609,4.4925c0.34656-0.00059,0.57807,0.23005,0.69451,0.69202-0.0573,0.289-1.6167,0.86946-4.6766,1.7413l-6.4948,2.2647-1.2132,0.002-7.8513-5.0119,0.086-0.34673,11.995-3.8349"/>
  <path id="path3804" fill="#000" d="m821.34,866.44c5.1155,1.7816,7.6749,2.8751,7.6756,3.2794,1.1682,7.0748,1.2054,19.73,0.11171,37.96-0.50715,7.1357-1.2763,13.313-2.3059,18.553l0.0876,0.51983-0.77928,0.34797-10.665-3.7941,1.8923-7.9763,0.47254-2.2538c2.6053-13.118,3.6318-28.255,3.0808-45.41l0.0416-1.04,0.21636-0.17369,0.17329-0.00029m-2.1661,0.35047c0.43333-0.00073,0.62561,2.5415,0.57696,7.6255,0.11301,14.679-0.88961,27.326-3.0079,37.966l-1.2023,6.0684c-0.45802,2.3117-0.80264,3.4684-1.0337,3.4676l0.13033,0.17306-0.043,0.34659c-0.11474,0.4624-4.0403,1.9139-11.777,4.3546l-0.17361-0.17297-0.17327,0.00029c3.3063-8.4694,5.8614-17.253,7.6654-26.364l0.12875-0.6935c1.7173-8.6403,2.957-18.345,3.7178-29.118l5.1932-3.6488m-5.1394,57.554c6.9083,2.2122,10.68,3.5919,11.317,4.1392-1.3853,0.69576-4.5605,1.8569-9.5257,3.4829-0.0574,0.23119-0.37491,0.34725-0.95257,0.3483l-11.317-4.1392,0.12905-0.52022,10.349-3.3118"/>
  <path id="path3806" fill="#000" d="m913.03,866.28,0.13033,0.17305c-7.1049,16.627-12.278,33.102-15.514,49.426l-1.2868,7.4551-11.475,3.6602-0.26086-0.51951,0.34501-0.86718,0.42959-2.0812c1.145-5.8366,4.6636-17.164,10.554-33.986l-0.13034-0.17306,0.68702-3.467-0.30393-0.34603c-2.3902,3.8459-6.0951,7.9543-11.113,12.325-4.0956,3.3585-7.7186,5.0399-10.866,5.0456l-1.2132,0.002c-5.344,0.01-9.7148-5.0086-13.116-15.05l-0.13034-0.17305-0.17206,0.69357-0.60258,2.2541-0.84004,14.73c-0.99244,10.314-1.89,17.48-2.6912,21.499l-0.21636,0.17369-0.17327,0.00029c-5.8097-1.9541-9.1335-3.2188-9.9726-3.7953l0.86032-3.4673,1.3737-7.1089c2.7762-14.018,3.9334-29.155,3.4715-45.411l0.086-0.34672c0.0283-0.23103,0.21604-0.34695,0.56262-0.34758l7.0674,2.9341,4.1736,7.7916c4.7799,7.7326,9.6687,11.595,14.663,11.586l1.3865-0.003c6.5568-0.0118,15.111-6.4398,25.662-19.285,0.98079-0.6949,3.8532-1.7977,8.6164-3.3087m-63.521,0.63429c0.46362,16.835-0.54992,31.515-3.0402,44.03l-1.6316,8.3222c-0.5152,2.6581-1.0616,3.9877-1.6394,3.9888l-10.046,3.4838-0.17328,0.00029-0.00029-0.17327c3.3053-8.9895,5.8465-18.005,7.621-27.054,1.374-6.9352,2.6703-16.705,3.89-29.303l5.0201-3.3022m65.346-0.11758,3.2994,3.4598c-3.3605,10.52-5.8287,19.705-7.4032,27.571l-0.77274,3.9872c-1.4888,7.5713-2.3839,15.607-2.6866,24.1l-0.086,0.34673c-0.0283,0.23117-0.21604,0.34707-0.56261,0.34758l-8.9327-3.9698,1.3725-7.8016,0.2574-1.387c2.8057-14.043,7.7891-29.532,14.953-46.479l0.21636-0.17368,0.34656-0.00059m-20.626,23.602,0.13035,0.17306-0.0431,0.17335c-2.1554,6.3006-3.5351,10.058-4.1393,11.274-7.0335,8.3319-13.338,12.509-18.908,12.507l-0.17329,0.00029c-4.9681,0.009-8.8455-3.4498-11.631-10.379l0.63005-11.093,0.17327-0.00029c2.7831,5.5695,5.577,8.9156,8.3804,10.037,1.4161,0.69072,2.6307,1.0352,3.6414,1.0334l2.5993-0.005c1.7045-0.003,4.1863-0.93189,7.4478-2.7865,4.9332-3.62,8.1634-6.4568,9.6904-8.5104,0.89326-1.1859,1.6282-1.9958,2.2055-2.4307m-50.89,33.886,0.51998-0.00097,10.276,3.9673,0.0003,0.1733c-0.20168,0.31809-2.1647,1.1305-5.8881,2.4373l-4.0708,1.3939-10.45-4.1408,0.0431-0.17336,9.5698-3.6567m53.896-0.097,0.17329-0.00029c5.0874,1.8975,7.8911,3.1631,8.4123,3.7981-6.8124,2.439-10.956,3.833-12.428,4.182l-8.1088-3.6249,0.0431-0.17335,11.908-4.181"/>
  <path id="path3808" fill="#000" d="m936.93,859.95c-0.67139,12.162-2.1518,24.012-4.442,35.54-2.0898,10.518-4.3566,19.308-6.799,26.363l-12.428,4.182-0.13033-0.17304,0.0856-0.52014c8.4267-20.413,13.959-37.234,16.597-50.463l0.55826-2.7741,1.4563-9.1883c3-1.97,4.7028-2.9553,5.107-2.956m1.7329-0.003c8.8191,5.2123,20.108,10.276,33.871,15.197,5.8676,1.954,12.43,3.8488,19.681,5.6845l-0.0859,0.34673c-1.4339,5.895-2.4688,8.8438-3.1035,8.8449-2.8026,0.005-10.252,1.1739-22.351,3.5059-4.6197,1.1638-10.264,2.7915-16.938,4.884l-0.17328,0.0003c-0.17345-0.0286-1.4209-3.319-3.7435-9.8728,0.11446-0.57786,4.4886-1.3946,13.121-2.4504,7.3073-0.70643,12.458-1.0623,15.466-1.0678l3.6395-0.007,0.64863-0.69443c0.11449-0.54903-0.85374-0.89386-2.9043-1.0347-8.6686-1.7173-16.83-3.9555-24.489-6.7148l-7.5018-3.2797-0.99533,0.69505-0.0859,0.34674c-0.57607,16.985-1.7798,30.1-3.6118,39.347l-3.2269,12.836-0.21637,0.17367-0.17328,0.00029c-5.5518-3.139-8.3134-4.9827-8.286-5.5312,2.5268-8.092,4.3777-15.081,5.5515-20.987l1.6319-8.1484c1.517-7.628,2.8129-18.258,3.8853-31.903l0.21635-0.17366,0.17328-0.0003m5.6595,15.063,12.704,5.0032,9.2331,2.4101,4.4646,1.0319-0.0856,0.52014c-3.8712,0.007-9.4164,0.53692-16.636,1.5902-7.0797-1.5759-10.549-2.7257-10.406-3.447l0.3341-6.9333,0.21635-0.17368,0.17329-0.00029m-0.36469,14.039,0.34656-0.00059c0.43373,0.2881,1.726,3.6943,3.8748,10.219-2.9381,4.8588-4.7389,7.5192-5.4024,7.9826-0.92633-1.096-1.1462-2.8869-0.65967-5.3712l1.1499-11.094,0.69015-1.7341m44.632,2.1726,0.13035,0.17306-0.0431,0.17335c-4.3564,2.9547-6.8518,4.5183-7.4875,4.6932-5.5165,0.70319-11.609,1.9855-18.283,3.8462-4.7053,1.5392-10.551,3.6301-17.539,6.2704l-0.13035-0.17305,0.0431-0.17337c2.4195-4.0481,3.8603-6.0732,4.3225-6.074,10.22-3.5137,20.374-6.0733,30.441-7.6813l8.5342-1.0553m-62.072,31.651,7.4609,4.4925c0.34656-0.00059,0.57807,0.23005,0.69451,0.69202-0.0573,0.289-1.6167,0.86946-4.6766,1.7413l-6.4948,2.2646-1.2133,0.002-7.8513-5.0119,0.086-0.34672,11.995-3.8348"/>
  <path id="path3810" fill="#000" d="m1090.8,865.96,0.1303,0.17304c-7.1048,16.627-12.278,33.102-15.514,49.426l-1.2868,7.4551-11.475,3.6601-0.2608-0.51951,0.345-0.86717,0.4296-2.0812c1.1449-5.8366,4.6636-17.164,10.554-33.986l-0.1303-0.17305,0.687-3.467-0.3039-0.34603c-2.3903,3.8459-6.0951,7.9543-11.113,12.325-4.0957,3.3585-7.7186,5.0399-10.866,5.0456l-1.2133,0.002c-5.344,0.01-9.7147-5.0086-13.116-15.05l-0.1304-0.17304-0.1721,0.69357-0.6025,2.254-0.8401,14.73c-0.9924,10.314-1.8899,17.48-2.6912,21.499l-0.2164,0.17368-0.1733,0.0003c-5.8097-1.9541-9.1335-3.2188-9.9726-3.7953l0.8603-3.4673,1.3738-7.1089c2.7762-14.018,3.9334-29.155,3.4715-45.411l0.086-0.34672c0.028-0.23103,0.216-0.34696,0.5626-0.34758l7.0674,2.9341,4.1736,7.7916c4.7799,7.7326,9.6687,11.595,14.663,11.586l1.3866-0.002c6.5567-0.0118,15.111-6.4398,25.662-19.285,0.9808-0.69491,3.8532-1.7977,8.6164-3.3087m-63.521,0.63428c0.4636,16.835-0.5499,31.515-3.0402,44.03l-1.6316,8.3222c-0.5152,2.6581-1.0616,3.9877-1.6394,3.9888l-10.046,3.4838-0.1733,0.0003-0.0003-0.17327c3.3054-8.9895,5.8465-18.005,7.621-27.054,1.3741-6.9351,2.6703-16.705,3.89-29.303l5.0201-3.3022m65.346-0.11759,3.2994,3.4598c-3.3605,10.52-5.8286,19.705-7.4031,27.571l-0.7728,3.9872c-1.4887,7.5713-2.3838,15.607-2.6865,24.1l-0.086,0.34673c-0.028,0.23117-0.2161,0.34708-0.5626,0.34758l-8.9327-3.9697,1.3724-7.8016,0.2575-1.387c2.8057-14.043,7.789-29.532,14.952-46.479l0.2164-0.17368,0.3465-0.00059m-20.626,23.602,0.1303,0.17305-0.043,0.17336c-2.1553,6.3006-3.5351,10.058-4.1393,11.274-7.0335,8.3319-13.338,12.509-18.908,12.507l-0.1733,0.00029c-4.9681,0.009-8.8455-3.4498-11.631-10.379l0.6301-11.093,0.1733-0.00029c2.7831,5.5695,5.5769,8.9156,8.3804,10.037,1.4161,0.69072,2.6307,1.0352,3.6413,1.0334l2.5993-0.005c1.7045-0.003,4.1863-0.93189,7.4478-2.7865,4.9332-3.62,8.1634-6.4568,9.6904-8.5104,0.8933-1.1859,1.6282-1.9958,2.2055-2.4307m-50.89,33.886,0.52-0.00097,10.276,3.9673,0.0003,0.17329c-0.2017,0.31809-2.1646,1.1305-5.8881,2.4373l-4.0708,1.3939-10.45-4.1408,0.043-0.17336,9.5698-3.6567m53.896-0.097,0.1733-0.00029c5.0874,1.8975,7.8911,3.1631,8.4123,3.7982-6.8124,2.439-10.956,3.833-12.428,4.182l-8.1088-3.6249,0.043-0.17335,11.908-4.181"/>
  <path id="path3812" fill="#000" d="m1164.5,864.84,0.1304,0.17305-0.043,0.17336c-1.0305,5.288-0.8017,12.046,0.6865,20.273,1.8943,9.6161,2.3988,16.659,1.5108,21.147-1.4314,7.2236-6.4761,12.608-15.13,16.148-3.3773,1.1615-7.0158,1.7455-10.915,1.7525l-1.2133,0.002c-4.5934,0.008-11.571-0.96133-20.933-2.9092l-3.2504-0.16744-1.7328,0.003c-7.6266,0.0137-13.888,1.3536-18.8,4.0197l-0.1733,0.00029c-1.4199-2.8284-2.2333-4.8482-2.4376-6.0619,2.0762-1.6787,4.4874-2.7812,7.2299-3.3062,0.086-0.40453,3.5221-0.87289,10.31-1.4051l6.0662-0.0109,16.948,1.0095c12.707-0.0229,19.689-3.2128,20.96-9.5697,0.4581-2.2538,0.3378-4.8529-0.3606-7.7985l-0.1303-0.17306-0.1733,0.0003c-4.6751,2.551-10.578,4.9871-17.71,7.3109-5.2835,1.396-9.1239,2.0968-11.522,2.1012l-3.6395,0.007c-4.7376,0.009-9.2748-1.6003-13.615-4.829-1.4186-2.0483-1.8848-4.3004-1.3987-6.7564l0.1287-0.6935c1.3167-6.6171,7.3429-13.151,18.082-19.617l4.6322-2.4351,0.3008-1.3871-1.7328,0.003-6.0222,0.53082-0.1303-0.17306,0.043-0.17336c1.6701-2.6602,3.0259-3.9913,4.0661-3.9931,5.3693-1.7425,10.279-2.6178,14.723-2.6258l1.7329-0.003,0.3039,0.34602-1.1166,5.5482c-0.1441,0.20251-1.7177,0.89861-4.7191,2.0889-8.4267,4.6369-13.439,10.943-15.039,18.921-1.2312,6.2422,0.6378,9.3583,5.6061,9.3493,5.2281-0.009,14.217-3.087,26.975-9.2342l-0.0003-0.1733c-0.065-4.2174,0.3312-8.5503,1.1898-13.005,0.9447-4.7393,2.5109-9.4218,4.6976-14.046l0.9096-0.17493,4.7225-0.18178m-21.407,0.38509c2.0833,2.3072,3.1111,3.576,3.0831,3.8077l-1.2428,7.9751-0.3465,0.00059-3.2585-4.6738,1.3744-6.7614,0.3893-0.34728m22.876,0.8254c2.749,3.0861,4.082,4.8166,3.9951,5.1926,0.1513,3.8709,0.8964,8.5493,2.2351,14.034,2.8483,9.6143,3.6428,17.581,2.3823,23.918-1.5169,7.7156-5.0595,13.616-10.627,17.693-5.5982,3.2453-12.152,4.8754-19.662,4.8889-4.6218,0.008-12.758-0.9014-24.396-2.7292l-4.9832-0.16431c-6.4705,0.0116-11.581,1.003-15.339,2.9744l-0.1733,0.00029-4.1689-5.1923c4.3569-2.6651,10.449-4.0046,18.283-4.0187,3.5532-0.006,8.7827,0.73526,15.693,2.2247,3.4667,0.57154,6.472,0.85492,9.0134,0.85033l3.2931-0.006c7.0486-0.0127,13.381-2.277,19.005-6.7931,3.951-3.6183,6.241-7.0302,6.8711-10.238l0.8162-3.9873c0.6867-3.5545-0.093-11.583-2.3395-24.091-0.8488-6.1806-0.9442-10.975-0.2858-14.382l0.2163-0.17368,0.1733-0.00029m-25.98,6.9794c0.6945,0.66317,1.6355,2.0479,2.8237,4.1545l-0.043,0.17336c-8.6866,4.7816-13.601,10.106-14.749,15.975l-0.3434,1.7335c-0.4009,2.0232-0.4992,3.6404-0.2946,4.854l-0.4324,0.52076c-4.6218,0.008-6.4172-2.5878-5.3864-7.7894,1.7747-8.9584,7.627-15.494,17.552-19.616l0.8666-0.002m-15.295,0.20081,0.0003,0.17328c-0.058,0.17351-1.4426,1.0426-4.1549,2.6068l-0.3465,0.00059c-0.2892-0.11493-0.6946-0.6919-1.2164-1.7307l-0.0003-0.17328c0.086-0.34674,1.9917-0.63905,5.7183-0.87685m27.089,26.819,0.3466-0.00059c0.4621-0.00084,0.6242,1.8476,0.4865,5.5453-0.1433,0.63573-2.7976,2.0855-7.965,4.3477-7.9679,2.7874-13.439,4.1838-16.409,4.1891l-0.3465,0.00059-11.83-0.67198-2.4267,0.004c-2.7447,0.005-5.0738-2.5322-6.9896-7.614l-0.7823-1.3851,0.2163-0.17368,0.1733-0.0003c4.5411,3.1112,9.671,4.6623,15.39,4.652,7.9432-0.0143,17.989-2.9792,30.143-8.8936"/>
  <path id="path3793" fill="#000" d="m771.82,948.01c-3.3127,16.564-6.5577,30.184-9.733,40.833h0.81685l-1.0209,0.88482-6.3312,31.791,0.0679,3.607-1.4974,3.6748,4.7648-0.953,21.569,2.7222c1.5882-2.7222,2.9042-6.6487,3.9478-11.776l0.74871-3.607,1.4974-19.059,0.88481-0.95297h0.74871c3.0862,7.2605,5.4231,10.891,7.0108,10.891l8.9159-6.3312h1.5656l-0.13611,4.5596-0.58084,3.485c-1.316,6.6255-2.1104,14.498-2.3815,23.621l15.383-0.9529h7.6245l7.4871-37.174-1.5656-3.6748,2.4512-0.88482c1.7243-8.6216,4.6061-19.195,8.6449-31.714,0.58975-5.4444,0.36283-8.1686-0.68075-8.1686h-19.059c-3.7213,1.9516-7.1018,6.1724-10.141,12.66-1.5882,0.00007-3.607,2.4279-6.0582,7.2838l-8.3719,7.2838c-1.4976,0.00006-4.1976-9.3941-8.1008-28.171l-5.5141,0.95297h-3.88l-8.9159-0.95297m20.891,63.505-5.4444,24.24,12.184-4.2208,2.1782-22.73-2.3137,0c-2.4957,1.8152-4.6971,2.7222-6.6022,2.7222m39.691,0-0.68074,3.6748,1.5656,0,0.68075-3.6748-1.5656,0m2.3137-5.3089c0.45364,0.0001,0.70321,0.5673,0.74871,1.7017,0.0906,1.1346-0.0229,2.5189-0.34037,4.153-0.31772,1.5883-0.7489,2.972-1.2933,4.153-0.49934,1.1344-0.97581,1.7017-1.4295,1.7017-0.45383,0-0.72605-0.5673-0.81685-1.7017-0.0455-1.1798,0.0906-2.5634,0.40833-4.153,0.31753-1.6335,0.72605-3.0184,1.2252-4.153,0.54444-1.1344,1.0436-1.7017,1.4974-1.7017m-44.725-72.702,14.157,1.8378,0.7487,0,7.487,19.942,0.7487,0,5.7174-5.4444,0.13612-0.88481-0.6126-0.95296,0.20427-0.88482,23.214-12.728c13.386,1.8153,19.962,3.336,19.749,4.5596-0.86235,4.2208-0.90765,6.943-0.1361,8.1686-1.9962,2.2227-3.1985,4.3331-3.607,6.3312l-8.2363,33.553,0.20426,2.7222-1.4294,3.6748-0.0682,11.776-1.9059,1.8378-2.3814,11.776,0.54445,0.8848c-0.22692,1.1346-3.1094,4.1743-8.6449,9.1211l-0.20426,0.8848c-0.27241,1.3613,0.81667,2.2692,3.2682,2.7223-0.22691,1.089-2.7009,1.9961-7.4193,2.7222l-14.295-0.8849h-3.8123l-10.142,0.8849,10.209-0.8849h-34.454l-4.0156,0.8849-4.4241-0.8849h-9.1212l-4.2886-1.8377-4.7648,0.8848-3.607-0.8848,0.20426-0.8849c2.0426,0,3.1772-0.6125,3.4037-1.8377l-0.68075-4.5596,17.222-74.406-0.40833-5.4444h0.74871c10.256-7.851,17.152-11.776,20.697-11.776"/>
  <path id="path3795" fill="#000" d="m925.55,938.14c-0.22691,1.1346,0.38569,1.7019,1.8378,1.7017l2.3136-0.88482c-0.1816,0.99847,0.8849,1.8606,3.1985,2.5867-1.0437,5.0824-0.2042,23.776,2.519,56.09,1.4974,2.2692,1.7922,5.6728,0.8848,10.209h-0.7487c0.7713,3.3573,0.9527,7.3051,0.5444,11.843l-0.953,0.8848-0.1361,0.8168,0.2043,2.5867c-3.4947,0.9983-6.2615,2.7009-8.3041,5.1056h2.1782l-0.8169,0.8169-8.1686,4.2885h-0.7487l0.34036-1.7017h-3.607l-0.34037,1.7017h-0.74871l-0.13611-2.5867-23.485,0.8849-0.34037,1.7016h-2.1782c0.81666-4.0388,0.43098-10.573-1.1572-19.594h-0.656c-5.7639,12.887-9.0302,19.42-9.8007,19.594l0.68074-3.4037c-1.1799,0-2.1336,1.1344-2.8597,3.4037l-2.9952,0.8169-4.9681-0.8169h-19.594c0.58995-2.8597,0.38569-4.2885-0.61259-4.2885l-1.0891-1.7017,0.13611-0.8168h1.4295l0.61259,0.8168h0.74871l18.719-39.071c4.1743-6.399,10.55-18.854,19.127-37.367,6.6255-4.3563,14.68-8.3273,24.163-11.911l0.81685-0.88481,2.79,0.88481,11.232-1.7017m-55.199,54.386,0.54444,0.81685c-2.1336,0.22692-8.3273,11.843-18.583,34.85l17.493,3.4038,11.708-18.719-0.54444-0.8169,0.34037-1.7016,3.063-0.8169,2.7222,0.8169,3.1307-0.8169c0.72606,11.89,1.7017,17.834,2.9274,17.834h1.4294l-0.1361,0.8168-0.95297,0.8848-0.13611,0.8169,0.54444,0.8848h5.1056l1.2252-2.5867,17.152,1.7017,1.3553-0.7744c-1.8606-7.3051-2.6777-22.595-2.4512-45.886-0.58993-6.4435-0.34037-16.087,0.74871-28.926h-23.969c-4.4009,4.9004-10.732,15.95-18.992,33.147-0.99827,0.1816-2.0639,1.8833-3.1985,5.1056m16.949-37.367-0.54444,2.5189,1.7698-1.7017,0.20426-0.81686-1.4294,0m10.55,16.132c3.5393,4.1743,4.6506,9.5529,3.336,16.132l-0.34038,5.1056,1.157,1.7017-1.8378,1.7017-3.4715-0.88482-10.279,0.88482c-1.7698-0.86217-2.5867-1.7243-2.4512-2.5867l7.9633-17.834-0.7487-3.4037,0.81686-0.81685h5.8529m-0.68075,6.8075c-2.0426,2.9487-3.4483,6.3312-4.2208,10.141h5.853c0.0906-6.761-0.45384-10.141-1.6337-10.141m22.401,40.775,0.68074,0,2.7222-2.5867-0.68074,0-2.7222,2.5867m-40.969,8.5093-0.13612,0.8169,1.8378-1.7017,0.13611-0.8168-1.8378,1.7016m52.353,0,1.4295,0-1.7698,1.7017-1.4974,0,1.8377-1.7017m-79.169,3.4038-0.13611,0.8168,4.3563,0,0.13611-0.8168-4.3563,0"/>
  <path id="path3797" fill="#000" d="m996.61,931.94c30.494,1.679,45.422,4.1298,44.783,7.3515-1.4068,0.0001-2.3137,0.93031-2.7223,2.79l2.5868,8.3041-5.582,13.818c-6.3989,7.3515-14.838,11.026-25.325,11.026l-3.8123,1.8378c0.4083,6.2169-0.023,17.584-1.2933,34.095,0.6352,0.0001,0.794,2.7687,0.4764,8.3041-0.3177,1.4974-4.3117,5.1734-11.981,11.026l-0.4083,1.8378,0.4765,0.953-0.1361,0.8848-0.8849,0.953h-0.7487l-5.3766-0.953-7.8956,0.953h-8.4396l-0.4765-0.953h-0.6808l0.8169-0.8848,0.2043-0.953,6.6022-50.649,0.7487-3.6748c0.3175-1.5882-7.125-2.8132-22.324-3.6748l-0.6126-0.95297,0.4084-1.8378,24.163,1.8378,0.8168,2.79-0.8848,4.5596-5.7174,49.759h0.6807l15.588-0.8848,1.4974-7.4193c1.5882-7.851,2.3137-23.195,2.1782-46.022,18.742-2.6777,28.268-4.8326,28.597-6.4667,2.5866-12.887,2.8364-19.942,0.7487-21.162h-23.137l-36.961-0.95296-5.9227,1.8378-1.9748,20.291h-0.6808c-1.1799,0.00006-1.1799-7.0553,0-21.162-1.4068,0.0001-1.9748-0.6126-1.7016-1.8378,1.5882,0.00009,7.5102-2.7687,17.766-8.3041,7.7135-4.3118,16.564-6.4667,26.544-6.4667m8.4397,10.142-0.1362,0.88482,7.7601-3.6748,0.1361-0.88482-0.6807,0c-4.4009,0.99846-6.761,2.2227-7.0786,3.6748m24.783,9.1889-0.3403,1.8378,2.1103,0,3.1308-1.8378,0.2042-0.88481-2.1103,0-2.9952,0.88481m-31.385,41.453,2.1104,0,0.3404-1.8378-0.6808,0-1.7698,1.8378m12.198-55.761c1.8151,0.0001,3.2895,0.36322,4.4241,1.0891,1.1796,0.72605,1.6561,1.5884,1.4294,2.5867-0.1816,1.0438-0.9984,1.9286-2.4511,2.6544-1.4521,0.72605-3.0862,1.0891-4.9004,1.0891-1.8606,0.00008-3.3573-0.36302-4.4918-1.0891-1.1346-0.72606-1.6111-1.6109-1.4295-2.6544,0.2269-0.99827,1.0436-1.8604,2.4511-2.5867,1.4522-0.72605,3.1076-1.0889,4.9682-1.0891m24.298,10.074c0.9983,0.00009,1.747,0.49933,2.246,1.4974,0.5444,0.95297,0.6805,2.1336,0.4083,3.5393-0.2725,1.4068-0.885,2.6099-1.8378,3.607-0.9076,0.95296-1.8606,1.4294-2.8597,1.4294-1.0437,0.00008-1.8379-0.47649-2.3814-1.4294-0.4994-0.99827-0.6126-2.2014-0.3404-3.607,0.2722-1.4066,0.8622-2.5867,1.7698-3.5393,0.9528-0.99828,1.9517-1.4974,2.9952-1.4974m-34.444,42.944c0.953,0.00006,1.7017,0.36303,2.2459,1.0891,0.5445,0.72605,0.7032,1.611,0.4765,2.6544-0.1816,1.0438-0.7034,1.9286-1.5655,2.6544-0.8169,0.72605-1.7017,1.0891-2.6545,1.0891-0.953,0.00003-1.679-0.36303-2.1781-1.0891-0.4992-0.72605-0.6581-1.6109-0.4765-2.6544,0.2269-1.0436,0.726-1.9286,1.4974-2.6544,0.8167-0.72606,1.7017-1.0891,2.6544-1.0891"/>
  <path id="path3799" fill="#000" d="m1086.6,933.49c4.0388,1.2254,5.944,2.4279,5.7175,3.607l-3.2683,8.1008,0.6808,0.88481h4.0833c1.7243,0.00008,7.1928-2.9952,16.405-8.9856l0.5445,0.88482,8.3718-0.88482h3.1986l1.0209-0.88481c7.034,0.00009,9.8917,3.2895,8.5771,9.8704h0.8169l-0.4084,1.7698h-0.8169c-4.7203,27.59-6.6486,41.395-5.7852,41.395l-1.7016,4.4918-1.4974,27.9-1.021,0.8849h-1.6337l-0.6126-0.8849h-0.8168l-8.9159,8.1009-3.1308-0.8849-0.3403,1.7699h4.0833l-0.5445,2.7222h-17.084l-17.358,1.7698c0.2269-1.1799-0.4765-1.7698-2.1103-1.7698l-0.6126-0.953,0.2042-0.8848,2.1104-2.6545c-0.5447-2.7222-0.2951-6.6254,0.7487-11.708l1.6338-8.1008-1.2934-1.8378h-4.0156l-2.79,18.037-0.2042,0.8848c-0.59,2.9952-0.091,4.4918,1.4974,4.4918l-0.3403,1.7699-10.074,1.8378-26.486-1.8378-0.5445-0.8848h-0.8168l-3.4715,0.8848-1.2933-1.7699c1.6337,0,6.3079-13.795,14.022-41.395l0.1361-0.88481c1.679-1.2252,5.944-14.407,12.796-39.555l-1.9059-2.7222,14.771-8.9856c3.1307-1.8149,6.0118-2.7222,8.6449-2.7222h7.3515l3.4715-0.88481m-3.7445,30.572,0.2722,2.7222,0.8169,0c2.8132,0.00006,4.6293-0.90746,5.4444-2.7222l2.8597-14.362-1.2933-1.8378h-0.8169c-1.4976,0.0001-3.9245,5.3999-7.2838,16.2m-25.325-15.247c-1.3614,1.2252-5.309,14.113-11.843,38.665l1.2933,1.7698-0.2043,0.88481c-3.2682,0.00006-6.2846,6.8985-9.0534,20.697-2.5421,4.8559-4.5828,11.164-6.1259,18.922l-0.2043,0.8848c5.4909-0.363,8.3042-0.9529,8.4397-1.7698l0.6807,0.8848h1.6337l17.629,0.8848,1.9748-9.8704,2.246-15.315,1.0209-0.8848h7.3515l5.7852-0.8848c1.4974,0,0.8621,8.6894-1.9059,26.06l1.2933,1.7699,19.807-1.7699,5.5142,0.8848,0.9529-0.8848,0.1361-0.8848c-0.6354-1.9516,0.5444-14.544,3.5393-37.774l-1.906-2.7222,1.021-0.88481h0.8168l2.246-15.315,2.7222-13.477-0.8849-8.1008-12.32,0.88482h-4.0156l-2.1103,6.3312-3.063,15.247c-0.953,4.8094-7.125,7.216-18.513,7.216l-2.9274-1.7698,4.424-18.037,1.8378-8.9856-1.2933-1.7698h-6.4667l-9.5297-0.88481m50.785,58.394-0.2043,0.9529,1.6337,0,0.5446-2.7222-1.9749,1.7699m2.6544-4.6971c0.7261,0,1.2252,0.5673,1.4974,1.7017,0.3176,1.1345,0.3176,2.4956,0,4.0833-0.3177,1.6337-0.8624,3.0184-1.6337,4.153-0.726,1.1346-1.4521,1.7017-2.1781,1.7017-0.7261,0-1.2481-0.5673-1.5657-1.7017-0.2723-1.1344-0.2496-2.5189,0.068-4.153,0.3176-1.5882,0.8396-2.9488,1.5657-4.0833,0.7713-1.1344,1.52-1.7017,2.2459-1.7017m-2.9275,22.266c0.5897,0,1.0209,0.3856,1.2934,1.1572,0.3175,0.7714,0.363,1.7017,0.1361,2.79-0.227,1.1344-0.6355,2.0871-1.2252,2.8597-0.5899,0.7713-1.1799,1.1572-1.7698,1.157-0.59,0-1.0211-0.3857-1.2933-1.157-0.227-0.7714-0.227-1.7244,0-2.8597,0.2269-1.0891,0.6125-2.0194,1.1572-2.79,0.5444-0.7713,1.1117-1.157,1.7016-1.1572"/>
  <path id="path3803" fill="#000" d="m847.95,1028.5c0.34528,0.2473,0.69053,0.5527,1.1104,0.6685,0.6354,0.1753,0.0903-0.072,0.54328,0.155,0.1022-0.01,0.20439-0.021,0.30659-0.031,0.0485,0.017,0.0939,0.054,0.1453,0.052,0.31336-0.013,0.6146-0.2463,0.86504-0.4053-2.1278,1.6559-0.87654,0.8991-0.69534,0.4543,0.0301-0.074,0.0108-0.3616,0.0433-0.496,0.00085-0.4328-0.32115-0.57-0.63544-0.7911-0.25747-0.1621-0.55229,0-0.81674-0.038-0.0534-0.01-0.0729-0.1038-0.12674-0.1007-0.15159,0.01-0.28138,0.1251-0.43198,0.1446-0.41441,0.3194-1.2936,0.8573,0.62763-0.5435,0.046-0.034-0.0551,0.1-0.0785,0.1517-0.0881,0.1953-0.0758,0.1895-0.12526,0.3999,0.0376,0.1273-0.0536,0.2651-0.0213,0.3919,0.0127,0.05,0.0742,0.074,0.0953,0.1205,0.0935,0.2066,0.006,0.2638,0.25952,0.3091,0.0996-0.1637,0.2421,0.019,0.35112-0.024,0.41916-0.1666,1.4745-1.1112-0.52281,0.5271-0.006-0.023-0.0283-0.047-0.0173-0.068,0.0462-0.087,0.13285-0.1479,0.17839-0.235,0.0289-0.055,0.0158-0.1253,0.0399-0.1828,0.0975-0.2332,0.1938-0.4201,0.26922-0.6643,0.1469-0.4934,0.40845-0.9287,0.50661-1.4374,0.0304-0.1926,0.17439-0.341,0.22715-0.5239,0.0157-0.054-0.0207-0.1173,0.00082-0.1696,0.0462-0.1123,0.13959-0.1996,0.19535-0.3074,0.0656-0.127,0.0932-0.2704,0.1416-0.4049,0.0275-0.2399,0.23339-0.4376,0.30649-0.6498,0.0145-0.042-0.0455-0.088-0.0309-0.1298,0.0627-0.1793,0.19322-0.3287,0.26423-0.5049,0.21734-0.4388,0.35215-0.8755,0.59696-1.3062,0.045-0.075,0.09-0.1507,0.13495-0.2261-0.0159-0.039-0.0612-0.077-0.0476-0.1166,0.0905-0.1312,0.21875-0.289,0.2691-0.4488,0.19456-0.6174-0.28165,0.5092,0.12174-0.3902,0.0402-0.2103,0.26194-0.3284,0.32412-0.5242,0.0137-0.043-0.0664-0.077-0.0601-0.1218,0.0306-0.2167,0.2302-0.4145,0.28522-0.6359,0.10112-0.307,0.62113-0.9047,0.53979-1.1985,0.0963-0.2117,0.31296-0.342,0.42116-0.5443,0.023-0.043-0.0139-0.1002,0.003-0.146,0.0492-0.1368,0.14703-0.3253,0.24748-0.4301,0.45662-0.321,0.91322-0.6419,1.3698-0.9629,0.0191,0.05,0.0146,0.1176,0.0573,0.1496,0.0547,0.041,0.16744-0.017,0.20024,0.043,0.0416,0.076-0.082,0.1839-0.0358,0.257,0.0398,0.063,0.14704,0.024,0.22056,0.035,0.0197,0.063,0.0394,0.1271,0.0591,0.1906,0.0258,0.064,0.0661,0.1241,0.0775,0.1922,0.0293,0.175-0.0341,0.356,0.006,0.5309,0.0796,0.3439,0.20352,0.2568,0.20034,0.6999,0.25186,0.2306,0.0124,0.504,0.0762,0.786,0.0172,0.076,0.10298,0.1242,0.1197,0.2001,0.0942,0.4278-0.19104,0.1893,0.20301,0.4032-0.0459,0.7946-0.0494-0.1058,0.0996,0.5044,0.0218,0.09-0.0345,0.191-0.0001,0.2765,0.0265,0.066,0.12553,0.076,0.16533,0.1344,0.0402,0.06,0.0148,0.1539,0.0647,0.2056,0.044,0.046,0.1221,0.034,0.18315,0.052,0.16856,0.098,0.30355-0.013,0.46415-0.066,0,0-1.0279,1.1049-1.0279,1.1049-0.0765,0.01-0.15713-0.025-0.23026,0-0.41718,0.1328-0.28454,0.2948-0.41318,0.018-0.15131-0.2253-0.0579-0.1194-0.28933-0.3093-0.19217-0.2511-0.22726-0.6849-0.22987-0.9804-0.0591-0.05-0.14301-0.081-0.17717-0.1505-0.0401-0.082-0.0128-0.1819-0.03-0.2712-0.0154-0.08-0.0616-0.1535-0.0677-0.2347-0.0206-0.2781,0.0925-0.5388-0.0894-0.7953-0.16562-0.4671-0.0187,0.043-0.0561-0.5166-0.005-0.077-0.0457-0.1483-0.0577-0.2247-0.0128-0.081,0.0119-0.1693-0.0168-0.2465-0.0227-0.061-0.10697-0.086-0.12933-0.1474-0.0263-0.072-0.005-0.1536-0.009-0.2304-0.0156-0.017-0.2161-0.2369-0.23129-0.2586-0.0491-0.07-0.0396-0.1741-0.0956-0.2391-0.0224-0.026-0.12034-0.01-0.0968-0.035,0.28745-0.3049,0.61899-0.5649,0.9285-0.8473,0.0324-0.019,0.12247-0.083,0.0972-0.056-0.082,0.089-0.19202,0.1507-0.26988,0.2435-0.12791,0.1525-0.15355,0.61-0.34762,0.7591-0.0483,0.084-0.10546,0.1629-0.14481,0.2512-0.0224,0.05-0.011,0.1133-0.0389,0.1609-0.0562,0.096-0.16788,0.1572-0.2081,0.2609-0.0159,0.041,0.0773,0.076,0.0616,0.1169-0.0676,0.1768-0.2774,0.275-0.31408,0.4731-0.11462,0.4615-0.35952,0.8642-0.57243,1.2895-0.0423,0.4248-0.32308,0.8312-0.49671,1.2162-0.23307,0.3985-0.39148,0.8238-0.53919,1.257-0.12688,0.4363,0.0582-0.142-0.23695,0.4855-0.11741,0.2497-0.15368,0.5517-0.29388,0.7955-0.0371,0.075-0.0674,0.154-0.1112,0.2253-0.0591,0.096-0.17267,0.1658-0.1965,0.2762-0.011,0.051,0.11943,0.054,0.11406,0.106-0.028,0.2685-0.39078,0.5341-0.41179,0.8129-0.1754,0.3638-0.0727,0.3618-0.19174,0.6554-0.0439,0.1081-0.12805,0.1996-0.15748,0.3124-0.16353,0.627,0.51797-0.6018-0.15479,0.4625-0.0724,0.4454-0.26063,0.8483-0.48409,1.2382-0.42808,0.37-0.85091,0.7461-1.2842,1.1099-0.0871,0.073-0.20505,0.1596-0.32799,0.1667-0.0372,0-0.0726-0.028-0.10949-0.023-0.0915,0.014-0.17415,0.089-0.26617,0.079-0.0511-0.01-0.0651-0.08-0.0977-0.1194-0.56504-0.074,0.0846,0.063-0.301-0.1679-0.0723-0.043-0.18393,0-0.24497-0.063-0.16404-0.1563,0.0273-0.5724,0.0496-0.7366-0.0568-0.9537,1.0747-1.5613,1.8361-1.9548,0.43047,0.046-0.26454-0.011,0.40273-0.05,0.0746,0,0.14628,0.035,0.22092,0.037,0.28294,0.011,0.52289-0.079,0.73087,0.1686,0.33508,0.049,0.54941,0.162,0.65541,0.5093,0.10771,0.3529-0.0907,0.115,0.158,0.3459-0.17884,0.6359,0.22751,0.1478,0.0432,0.5455-0.29186,0.6297-1.2899,1.2142-1.6209,1.5166-0.16168,0.078-0.54196,0.283-0.67882,0.3222-0.0537,0.015-0.10825-0.038-0.16401-0.034-0.56592,0.034-0.0406,0.1208-0.53363,0.01-0.2615-0.1759-0.54454-0.2064-0.83166-0.3424-0.42273-0.2004-0.22779-0.077-0.59108-0.3751-0.10421-0.057-0.22577-0.075-0.33864-0.1122,0,0,1.1672-1.0153,1.1672-1.0153z"/>
  <path id="path3971" fill="#000" d="m609.79,703.98c5.5092,1.8372,11.58,1.8625,17.219,3.3959,5.9381,1.8706,12.368,2.3077,18.25,4.3086,6.6311,0.78331,12.949,2.71,19.606,3.4022,5.7902,0.65376,11.541,1.9375,17.391,2.8216,7.0306,1.4263,13.952,3.2984,21.001,4.6832,10.169,2.25,20.382,3.8026,30.737,5.0292,6.6613,1.237,18.899,1.3397,25.171,4.187,6.8841,1.7879,1.4065,7.7098-2.2815,11.587-6.011,3.6951-15.687,1.7192-20.782,0.83506-8.2515-0.17522-16.29-2.3498-24.556-2.3588-7.0407,0.0337-13.766-2.3067-20.791-2.8878-6.0651-1.4555-12.214-2.514-18.447-3.3662-6.3139-1.2299-12.864-1.376-18.884-3.8727-7.1643-1.1296-13.894-3.522-21.047-4.8217-5.7142-1.5667-11.427-2.8982-17.229-3.7331-2.7993-1.099-8.2268-0.76021-3.5587-3.8569,3.5689-3.9622,7.285-8.1142,12.784-4.9084,5.8286,0.84564,11.398,2.4135,17.049,3.7058,5.3854,1.2712,10.772,2.6974,16.07,3.9434,6.2796,1.3632,12.407,3.4025,18.811,4.0475,6.5913,1.1173,13.379,1.8097,19.813,3.5539,6.0923,0.58351,12.03,1.8484,18.056,3.0417,7.0903,0.49372,14.214,0.35676,21.189,1.985,6.0888,0.17191,12.044,1.583,18.091,1.2109,4.4759-1.0864-3.853,3.2942-5.5097,4.2426-2.9535,0.49535-4.4514,2.6897-2.702-0.62753-3.3806-4.0008-8.2795-0.80974-13.127-2.3151-6.543-0.73276-13.062-1.6444-19.606-2.4044-6.8302-1.3397-14.004-2.2314-20.724-4.2784-6.5189-0.82239-12.674-3.0926-19.192-4.0849-6.3902-0.79914-12.618-2.2412-19.038-2.9031-7.8836-1.4156-15.816-2.8615-23.632-4.8392-6.5849-0.88749-12.805-3.3642-19.429-3.9001-4.0118-0.73871-13.75-1.5711-6.152-5.9332,1.8164-1.6301,3.6329-3.2604,5.4498-4.8898z"/>
 </g>
</svg>
