<?xml version="1.0" encoding="UTF-8" standalone="no"?>
<!-- Created with Inkscape (http://www.inkscape.org/) -->
<svg id="svg2" xmlns:rdf="http://www.w3.org/1999/02/22-rdf-syntax-ns#" xmlns="http://www.w3.org/2000/svg" height="744" width="1050" version="1.1" xmlns:cc="http://creativecommons.org/ns#" xmlns:xlink="http://www.w3.org/1999/xlink" xmlns:dc="http://purl.org/dc/elements/1.1/">
 <metadata id="metadata7">
  <rdf:RDF>
   <cc:Work rdf:about="">
    <dc:format>image/svg+xml</dc:format>
    <dc:type rdf:resource="http://purl.org/dc/dcmitype/StillImage"/>
    <dc:title/>
   </cc:Work>
  </rdf:RDF>
 </metadata>
 <g id="layer1" transform="translate(0,-308.27218)">
  <path id="path2985" d="m955,499a362,13.7,0,1,1,-724,0,362,13.7,0,1,1,724,0z" transform="translate(-69.811321,347.89482)" fill="#f9f9f9"/>
  <path id="path2987" d="m967,316a25.9,63.2,0,1,1,-51.9,0,25.9,63.2,0,1,1,51.9,0z" transform="matrix(1.728,0,0,1.728,-754.88677,80.001045)" fill="#f9f9f9"/>
  <path id="path2998" d="m967,316a25.9,63.2,0,1,1,-51.9,0,25.9,63.2,0,1,1,51.9,0z" transform="matrix(1.39968,0,0,1.39968,-445.92527,183.6806)" fill="#f2f2f2"/>
  <path id="path3000" d="m967,316a25.9,63.2,0,1,1,-51.9,0,25.9,63.2,0,1,1,51.9,0z" transform="matrix(1.1337408,0,0,1.1337408,-195.66645,267.66106)" fill="#ececec"/>
  <path id="path3002" d="m967,316a25.9,63.2,0,1,1,-51.9,0,25.9,63.2,0,1,1,51.9,0z" transform="matrix(0.91833005,0,0,0.91833005,7.0431833,335.68522)" fill="#e6e6e6"/>
  <path id="path3004" d="m967,316a25.9,63.2,0,1,1,-51.9,0,25.9,63.2,0,1,1,51.9,0z" transform="matrix(0.74384734,0,0,0.74384734,171.238,390.78478)" fill="#CCC"/>
  <path id="path3006" d="m967,316a25.9,63.2,0,1,1,-51.9,0,25.9,63.2,0,1,1,51.9,0z" transform="matrix(0.60251635,0,0,0.60251635,304.23579,435.41545)" fill="#b3b3b3"/>
  <path id="path3008" d="m967,316a25.9,63.2,0,1,1,-51.9,0,25.9,63.2,0,1,1,51.9,0z" transform="matrix(0.48803825,0,0,0.48803825,411.96402,471.56626)" fill="#999"/>
  <path id="path3010" d="m967,316a25.9,63.2,0,1,1,-51.9,0,25.9,63.2,0,1,1,51.9,0z" transform="matrix(0.39531098,0,0,0.39531098,499.22388,500.84844)" fill="#808080"/>
  <path id="path3012" d="m967,316a25.9,63.2,0,1,1,-51.9,0,25.9,63.2,0,1,1,51.9,0z" transform="matrix(0.25936356,0,0,0.25936356,627.15555,543.77903)" fill="#666"/>
  <path id="path3014" d="m967,316a25.9,63.2,0,1,1,-51.9,0,25.9,63.2,0,1,1,51.9,0z" transform="matrix(0.18907602,0,0,0.18907602,693.29875,565.97501)" fill="#4d4d4d"/>
  <path id="rect2992" fill="#000" d="m860,709-1.59,9.02,6.29-2.62,8.45,0,6.89-1.89-6.23-1.89-8.45,0z"/>
  <use id="use3018" xlink:href="#rect2992" transform="translate(15.566038,-18.396226)" height="744.09003" width="1052.3622" y="0" x="0"/>
  <use id="use3020" xlink:href="#use3018" transform="translate(-44.811319,-123.11321)" height="744.09003" width="1052.3622" y="0" x="0"/>
  <use id="use3022" xlink:href="#use3020" transform="translate(50,38.679245)" height="744.09003" width="1052.3622" y="0" x="0"/>
  <use id="use3024" xlink:href="#use3022" transform="translate(-63.207549,30.188679)" height="744.09003" width="1052.3622" y="0" x="0"/>
  <use id="use3026" xlink:href="#use3018" transform="translate(-11.673933,-124.41077)" height="744.09003" width="1052.3622" y="0" x="0"/>
  <g id="g3063" transform="matrix(2.3156057,0,0,2.3156057,-674.57531,-1024.9407)">
   <g id="g3055" fill="#4d4d4d">
    <path id="path3034" d="m361,751c0.278,1.2,0.895,2.4,0.931,3.65,0.834,1.37,1.16,3.05,1.91,4.35,0.537,1.34,1.15,2.67,1.47,3.96,0.59,1.6,1.05,3.21,1.42,4.85,0.615,1.6,0.988,3.17,1.67,4.79,0.264,1.37,0.742,2.42,0.937,3.69,0.369,1.38,0.707,3.01,1.03,4.46,0.411,1.51,0.606,2.76,1.06,4.22,0.338,1.41,0.725,2.93,0.972,4.4,0.323,1.54,0.503,3.22,0.653,4.96,0.356,1.54,0.526,3.26,1.2,4.51,0.0893,1.39,0.655,2.6,0.77,4,0.0358,1.16,1.28,3.48,0.488,3.92-0.853-0.252-1.86-0.324-1.49-1.45-0.542-1.62-0.605-2.42-1-4.02-0.221-1.62-0.812-3.02-1.12-4.62-0.62-1.59-0.598-3.45-0.872-4.78-0.145-1.58-0.315-3.03-0.776-4.65-0.298-1.47-0.64-2.84-1.02-4.23-0.295-1.34-0.612-2.56-0.852-3.87-0.463-1.75-0.795-3.54-1.34-5.29-0.259-1.34-0.876-2.71-1.23-3.79-0.522-1.88-1.09-3.72-1.65-5.58-0.472-1.69-1.01-3.31-1.68-4.96-0.655-1.27-1.14-2.69-1.88-4.22-0.363-1.29-0.745-2.61-1.21-4.01-0.722-1.23,0.565-0.536,1.34-0.348,0.087,0.0257,0.175,0.0515,0.262,0.0771z"/>
    <path id="path3039" d="m383,746c0.297,0.714,0.52,1.74,0.963,2.6,0.34,1.21,0.966,2.43,1.36,3.68,0.469,1.03,0.912,2.1,1.46,3.09,0.442,0.926,0.742,1.49,1.12,2.39,0.403,0.966,0.739,1.97,1.19,3.01,0.545,1.57,1.34,3,2.05,4.45,0.533,1.07,0.962,1.94,1.52,3.04,0.692,1.42,1.16,2.77,1.94,4.13,0.52,0.997,0.894,1.64,1.52,2.61,0.625,1.2,1.37,2.49,1.91,3.51,0.543,0.888,1.03,1.82,1.64,2.72,0.408,0.884,0.949,1.55,1.33,2.41,0.592,0.9,1.23,2.09,1.54,2.83,0.751,1.2,1.54,2.56,2.29,3.67,0.885,0.858-0.39,0.885-0.709,0.107-0.555-0.851-0.962-1.58-1.6-2.55-0.597-1.03-0.997-1.7-1.52-2.73-0.285-0.59-0.74-1.39-1.17-2.11-0.62-1.17-1.42-2.26-1.98-3.42-0.717-0.949-1.09-1.97-1.78-3.11-0.723-1.42-1.64-2.72-2.38-4.18-0.806-1.4-1.27-2.94-2.05-4.35-0.672-1.44-1.48-2.9-2.16-4.38-1.27-2.31-1.92-4.86-3.09-7.24-0.745-1.53-1.52-2.96-2.11-4.54-0.511-1.38-1.05-2.71-1.56-4.09,0.0766-0.46-1.05-1.92-0.235-1.71,0.169,0.0507,0.346,0.103,0.511,0.153z"/>
    <path id="path3043" d="m371,789c1.51,0.0233,3.02,0.068,4.52-0.138,1.06-0.122,2.02-0.5,3.05-0.746,0.891-0.138,1.78-0.304,2.67-0.512,0.789-0.139,1.59-0.447,2.37-0.701,0.71-0.385,1.42-0.741,2.18-1.07,0.647-0.346,1.36-0.549,1.94-0.94,0.465-0.272,1.24-0.636,1.69-1.08,0.483-0.405,0.95-0.928,1.42-1.34,0.486-0.569,0.831-0.819,1.3-1.4,0.303-0.392,0.774-0.845,1.15-1.29,0.275-0.192,0.411-0.49,0.651-0.786,0.373-0.441,0.794-0.975,1.08-1.49,0.439-0.481,0.552-0.911,0.818-1.47,0.0474-0.753,0.563-0.406,1.04-0.236-0.0607,0.584-0.468,1.21-0.744,1.75-0.404,0.572-0.666,0.998-1.15,1.57-0.421,0.625-0.959,1.17-1.49,1.74-0.258,0.359-0.683,0.684-0.936,1.04-0.377,0.529-0.97,0.865-1.32,1.45-0.473,0.269-0.855,0.832-1.4,1.15-0.577,0.377-1.06,0.704-1.61,0.955-0.677,0.37-1.55,0.708-2.37,1.08-0.85,0.436-1.29,0.735-2.24,1.04-0.88,0.231-1.75,0.548-2.67,0.654-0.849,0.175-1.72,0.296-2.55,0.543-0.916,0.256-1.82,0.485-2.75,0.537-0.897,0.188-1.74,0.0952-2.67,0.112-0.536-0.047-1.05,0.144-1.53-0.209-0.152-0.0777-0.305-0.155-0.457-0.233z"/>
    <path id="path3049" d="m396,776c-0.0855-0.326-0.441-0.52-0.738-0.658,0.163,0.078-1.08-0.236-1.46-0.124-0.867,0.0961-1.69,0.453-2.53,0.682-1.26,0.433-2.5,0.905-3.74,1.42-1.6,0.523-3.19,1.07-4.75,1.7-0.461,0.18-0.959,0.401-1.5,0.604-1.06,0.39-2.07,0.854-3.03,1.4-0.289,0.15-0.746,0.423-1.05,0.64-0.69,0.376-1.18,0.929-1.75,1.5-0.365,0.408-0.696,0.831-1.08,1.28-0.395,0.501-0.843,0.973-1.15,1.49-0.247,0.536-0.413,1.11-0.61,1.66-0.146,0.546-0.305,1.05-0.388,1.62-0.42-0.0293-0.0836-0.508-0.09-0.75,0.207-0.794,0.462-1.62,0.779-2.39,0.288-0.684,0.844-1.17,1.29-1.77,0.298-0.341,0.544-0.669,0.853-1,0.121-0.164,0.397-0.43,0.544-0.59,0.643-0.727,1.45-1.2,2.28-1.69,0.404-0.218,0.759-0.411,1.1-0.596,0.89-0.445,1.94-0.831,2.92-1.22,0.874-0.362,1.62-0.667,2.51-0.981,1.19-0.446,2.42-0.809,3.6-1.27,1.11-0.46,2.25-0.893,3.39-1.25,1.11-0.379,2.29-0.808,3.48-0.488,0.509,0.0893,1.19,0.324,1.35,0.847-0.0715-0.02-0.154-0.0475-0.22-0.063z"/>
   </g>
   <path id="path3061" d="m386,434c0,2.67-8.05,4.83-18,4.83-9.93,0-18-2.16-18-4.83s8.05-4.83,18-4.83c9.93,0,18,2.16,18,4.83z" transform="matrix(1,-0.35265258,0,1,2.004717,445.04165)" fill="#999"/>
  </g>
  <path id="path3108" fill="#1a1a1a" d="m230,651c-1.15-0.279-5.85-2.06-2.6-0.87-3.89-1.22-7.25-3.58-10.6-5.76-1.66-1.25-2.67-2.63-3.45-4.2-0.764-1.9-1.09-3.97-1.25-6.05-0.343-1.49-0.388-2.85-0.581-4.54-0.169-1.65,0.0666-3.22,0.414-4.81,0.307-1.71,0.693-3.14,1.41-4.82-0.279-1.89,0.726-0.658,1.29-0.501-1.05,0.295-1.82,1.24-2.25,1.81-1.4,1.33-2.46,2.86-3.56,4.42-0.654,1.12-1.31,2.31-1.99,3.45-0.436,1.01-1.23,2.84-1.62,4.43-0.652,1.61-0.834,3.29-1.37,4.74-0.335,1.74-0.554,3.48-0.46,5.32,0.124,1.55,0.527,3.14,1.25,4.58,1.42,3.44,3.58,6.65,6.23,9.25,2.11,1.73,3.96,3.28,6.2,4.81,1.32,0.964,2.39,2.42,2.93,3.4,0.785,1.24,0.984,2.92,1.38,4.04,0.0921,1.26,0.742,3.34,0.752,4.78,0.151,1.4,0.132,3.05,0.009,4.27-0.059,1.28-0.304,3.06-0.757,4.6-0.343,1.41-0.635,2.81-1.57,3.89-0.353,1.22-1.65,1.09-2.6,0.422-1.01-0.66,0.744-1.58,1.32-1.86,2.2-0.867,4.52-1.33,6.55-2.57,1.2-0.762,2.22-1.36,3.34-2.11,1.58-0.888,3.21-2.52,4.02-3.69,1.26-1.32,1.58-3.18,2.4-4.72,0.68-1.85,1.07-3.12,1.49-5.24,0.216-1.84,0.157-3.98-0.444-5.82-0.36-1.94-1.48-3.04-2.78-4.66-1.93-1.33,1.62-0.117,2.11,0.636,2.56,2.01,5.22,3.5,7.94,5.29,4.21,2.4,8.64,4.44,13.1,6.28-1.76-0.696-2.5-0.533-4.14-1.95-4.03-2.8-8.25-5.32-12.5-7.78-1.31-1.39-3.97-1.96-4.4-3.86,0.253-1.02,1.43-1.61,1.74-2.45,1.19-1,1.67-2.67,1.67-4.06,0.302-2.29-0.957-5.1-3.39-5.79,3.51,1.08-2.12-0.542-3.29,0.755-1.14,0.595-2.03,1.84-2.05,3.13-0.533,1.81-0.58,3.94,0.472,5.45,0.572,1.02,4.1,2.42,0.735,1.07,1.56,0.531,2.4-0.844,2.63-1.89,0.926-1.37-1.15-3.02-1.31-3.78,1.49-0.0384,3.54,1.62,0.981,0.719-2.36-0.981,1.16-0.127,1.5,0.655,1.17,1.07,0.84,3.14,0.109,4.14-0.954,2.17-4.07,0.523-5.38-0.374-1.72-0.887-2.05-3.34-1.77-5.36,0.116-1.67,0.704-3.71,2.39-4.48,2.55-1.51,5.81-0.332,8.21,1.06,1.14,0.972,1.93,2.57,1.89,4.08,0.214,1.13,0.154,3.01-0.785,4.15-0.465,1.22-1.5,1.94-2.12,2.86-1.34,1.2,1.23,2.26,2.13,3.03,3.89,2.76,8.25,4.86,12.2,7.63,1.2,1.12,3.72,2.06,4.17,3.21-4.76-1.74-9.39-3.93-13.8-6.36-3.23-2.05-6.7-4.04-9.57-6.44,1.51-0.671,2.62,1.3,3.84,2.66,0.686,1.11,1.34,2.38,1.39,3.62,0.42,1.14,0.49,2.55,0.383,3.92-0.174,1.86-0.54,3.58-1.09,5.25-0.616,1.61-1.54,3.77-1.99,4.88-0.994,1.31-1.67,2.49-2.98,3.5-1.36,1.38-2.91,1.93-4.44,3.07-1.36,0.895-2.77,1.5-4.26,2.11-1.58,0.441-3.95,0.866-4.78,2.25-0.528,0.0765-2.45-0.357-0.799-0.802,1.53-2.16,2.01-4.98,2.4-7.56,0.15-1.49,0.374-3.39,0.0812-5.09-0.0193-2.05-0.562-3.95-0.945-6-0.571-1.65-0.796-3-2.01-4.3-1.63-2.3-4.53-3.67-6.61-5.61-1.7-1.27-3.17-2.98-4.48-4.55-1.01-1.44-2.11-3.39-3.06-5.16-0.666-1.63-1.42-3.34-1.5-5.03-0.241-1.47-0.126-3.43,0.201-4.88,0.318-1.66,0.741-3.26,1.18-4.88,0.529-1.46,0.872-2.75,1.5-4.27,0.412-1.1,1.25-2.62,1.9-3.75,0.695-1.32,1.64-2.45,2.37-3.3,0.851-1.26,1.7-1.98,2.73-3.18,0.767-1.19,3.86-1.08,3.61,0.56-0.367,1.26-0.92,2.44-1.18,3.83-0.478,1.15-0.319,2.41-0.748,3.68-0.123,1.74-0.0299,3.45,0.293,5.22,0.252,2.13,0.457,4.42,1.03,6.45,0.577,1.68,1.3,3.27,2.75,4.41,1.42,1.63,4.16,2.99,6.22,4.23,1.11,0.932,4.41,2.23,4.54,2.26-3.2-1.14,0.76,0.0821,1.88,0.891l0.0126,0.007-0.00057,0.00074z"/>
  <path id="path3883" d="m208,615-1.59,9.02,6.29-2.62,8.45,0,6.89-1.89-6.23-1.89-8.45,0z" fill="#800000"/>
 </g>
</svg>
