<?xml version="1.0" encoding="UTF-8" standalone="no"?>
<!-- Created with Inkscape (http://www.inkscape.org/) -->

<svg
   xmlns:dc="http://purl.org/dc/elements/1.1/"
   xmlns:cc="http://creativecommons.org/ns#"
   xmlns:rdf="http://www.w3.org/1999/02/22-rdf-syntax-ns#"
   xmlns:svg="http://www.w3.org/2000/svg"
   xmlns="http://www.w3.org/2000/svg"
   xmlns:sodipodi="http://sodipodi.sourceforge.net/DTD/sodipodi-0.dtd"
   xmlns:inkscape="http://www.inkscape.org/namespaces/inkscape"
   width="744.09448819"
   height="1052.3622047"
   id="svg2"
   version="1.1"
   inkscape:version="0.48.4 r9939"
   inkscape:export-filename="becasse1.png"
   inkscape:export-xdpi="90"
   inkscape:export-ydpi="90"
   sodipodi:docname="New document 1">
  <defs
     id="defs4" />
  <sodipodi:namedview
     id="base"
     pagecolor="#ffffff"
     bordercolor="#666666"
     borderopacity="1.0"
     inkscape:pageopacity="0.0"
     inkscape:pageshadow="2"
     inkscape:zoom="0.98994949"
     inkscape:cx="443.52667"
     inkscape:cy="489.18982"
     inkscape:document-units="px"
     inkscape:current-layer="layer1"
     showgrid="false"
     inkscape:window-width="1067"
     inkscape:window-height="940"
     inkscape:window-x="836"
     inkscape:window-y="30"
     inkscape:window-maximized="0" />
  <metadata
     id="metadata7">
    <rdf:RDF>
      <cc:Work
         rdf:about="">
        <dc:format>image/svg+xml</dc:format>
        <dc:type
           rdf:resource="http://purl.org/dc/dcmitype/StillImage" />
        <dc:title></dc:title>
      </cc:Work>
    </rdf:RDF>
  </metadata>
  <g
     inkscape:label="Layer 1"
     inkscape:groupmode="layer"
     id="layer1">
    <path
       style="fill:#000000;fill-opacity:1;fill-rule:nonzero;stroke:none"
       id="path2991"
       d="m 150.85882,670.34902 c 2.29057,0.0291 4.58144,0.0208 6.87214,0.0187 2.14987,-0.003 4.29973,-0.004 6.4496,-0.005 1.70075,0.55365 3.54951,0.52222 5.22057,1.12303 1.81306,0.38899 3.56264,0.96643 5.36136,1.42594 2.05331,0.39272 4.12538,0.76944 6.13254,1.36838 2.53856,0.57427 5.07758,1.18836 7.64981,1.60626 3.30675,1.14817 6.69096,2.11666 10.12574,2.79852 4.01768,0.6318 7.92631,1.82598 11.80467,3.03098 1.94202,0.71407 4.02526,0.82375 6.02476,1.26096 1.89327,0.41397 3.75259,1.05646 5.64235,1.5042 3.51702,0.77919 7.1157,0.94284 10.70327,1.03849 3.42695,0.42938 6.86298,0.7331 10.3123,0.89727 3.36234,0.12789 6.72784,0.13514 10.09215,0.137 2.92166,0.007 5.84327,-0.0171 8.76493,-0.0166 2.89294,-2.1e-4 5.78588,0.005 8.67882,0.004 2.63835,0.039 5.22936,0.0927 7.82345,-0.40492 2.0087,-0.24737 3.89133,-0.95505 5.88371,-1.30082 -2.70536,0.51727 5.56456,-1.6945 2.95951,-0.83853 -27.85141,9.15138 -6.0248,1.35562 3.00278,-0.95562 0.34212,-0.066 1.3572,-0.3072 1.02635,-0.19798 -4.39664,1.45138 -8.81919,2.82306 -13.23121,4.22695 -0.28216,0.0898 0.55987,-0.19305 0.84146,-0.28458 4.98163,-1.61931 9.97719,-3.19607 14.94812,-4.84792 4.40243,-1.46293 -8.82313,2.87047 -13.24258,4.28117 -0.30135,0.0962 0.59136,-0.22483 0.88704,-0.33724 32.30738,-10.51663 8.7092,-2.82415 1.86146,-0.63444 -0.32534,0.10403 0.64142,-0.23511 0.96145,-0.3545 0.99871,-0.37259 1.97717,-0.78987 2.96954,-1.17874 1.96856,-0.72126 3.93458,-1.46954 5.77929,-2.47152 1.78846,-1.03342 3.59491,-2.03283 5.413,-3.01322 1.56694,-0.88443 3.13608,-1.76167 4.69994,-2.65203 1.55142,-0.86636 3.00611,-1.88638 4.51795,-2.81819 1.58,-1.08813 3.16804,-2.16689 4.68891,-3.33733 1.6331,-1.17123 3.21523,-2.41114 4.83336,-3.602 1.5773,-1.12786 3.26892,-2.07866 4.89385,-3.13502 1.37395,-1.02417 2.66924,-2.14473 4.00604,-3.21761 1.34897,-1.02701 2.6781,-2.08737 3.90501,-3.25871 1.07109,-0.99452 2.14489,-1.99492 3.1342,-3.07203 1.21264,-1.39019 2.62475,-2.57346 4.01465,-3.77827 1.94931,-1.60888 3.8442,-3.28088 5.75976,-4.9303 2.01126,-1.70329 3.80692,-3.6377 5.6318,-5.53374 1.32662,-1.45111 2.53621,-3.00384 3.71855,-4.5731 0.98247,-1.51015 2.11397,-2.91635 3.1169,-4.41085 1.0778,-1.68793 2.1497,-3.32017 3.57346,-4.73698 2.10784,-1.75222 3.86141,-3.86229 5.34187,-6.15805 1.40571,-2.05459 2.56386,-4.23485 3.67461,-6.4542 0.9597,-1.74971 2.02735,-3.43708 2.93271,-5.21564 0.70856,-1.60366 1.48506,-3.19494 2.03589,-4.8623 0.54177,-1.76481 1.14006,-3.50386 1.78222,-5.23366 0.39227,-1.62716 0.92862,-3.21636 1.33923,-4.83877 0.37795,-1.76933 0.34769,-3.57812 0.70694,-5.34981 0.44392,-1.72581 0.61115,-3.49565 0.71012,-5.26904 0.0561,-2.03801 0.0269,-4.05976 0.3353,-6.07885 0.38075,-1.97571 0.56944,-3.97582 0.67361,-5.98266 0.0814,-2.00844 0.079,-4.019 0.0806,-6.02871 -9.3e-4,-2.02004 -0.004,-4.04007 -0.005,-6.06011 0.12653,-1.85747 -0.0609,-3.64405 -0.42715,-5.45724 -0.19793,-2.10547 -0.80622,-4.12419 -1.1118,-6.21234 -0.15624,-2.65809 -0.46711,-5.27857 -0.88459,-7.9062 -0.19866,-2.21504 -0.7579,-4.36501 -1.14959,-6.54802 -0.3021,-1.77245 -0.75431,-3.53872 -1.25844,-5.26723 -0.56945,-1.86669 -1.02079,-3.78814 -1.77099,-5.59256 -0.69967,-1.74309 -1.26466,-3.54763 -1.76555,-5.35864 -0.53765,-1.57231 -1.31257,-3.03626 -1.92118,-4.57665 -0.56676,-1.3081 -1.5319,-2.31892 -2.39079,-3.42444 -0.9302,-1.41338 -2.11705,-2.64962 -2.99864,-4.08838 -1.17976,-1.37845 -2.58801,-2.52748 -3.81892,-3.85241 -1.0443,-1.05401 -2.18315,-1.93745 -3.45628,-2.69985 -1.02431,-1.05814 -2.29694,-1.76619 -3.43531,-2.66417 -1.27895,-0.77083 -2.64361,-1.34066 -3.97573,-2.01422 -1.61007,-0.65271 -3.31746,-1.16283 -4.82715,-2.03119 -1.64326,-0.66743 -3.22989,-1.46232 -4.86348,-2.15697 -1.70449,-0.60375 -3.31606,-1.4273 -4.93818,-2.21887 -1.42244,-0.58168 -2.75657,-1.34868 -4.128,-2.04596 -1.4462,-0.51749 -2.67478,-1.49176 -3.8965,-2.40692 -1.55142,-0.98501 -3.20661,-1.75355 -4.85788,-2.55025 -1.50227,-0.60267 -2.91725,-1.38759 -4.36336,-2.11388 -1.59782,-0.64104 -3.17691,-1.28625 -4.754,-1.97643 -1.6018,-0.41145 -3.04808,-1.16253 -4.67582,-1.49264 -1.82787,-0.28081 -3.68314,-0.28396 -5.528,-0.30064 -2.01385,-0.008 -4.02773,0.001 -6.04159,0.006 -2.07867,0.10613 -4.08207,-0.002 -6.11823,-0.39391 -1.98614,-0.39246 -4.00783,-0.50898 -6.02638,-0.57758 -1.95275,0.17153 -3.77242,-0.24395 -5.66152,-0.629 -2.04516,-0.36399 -4.12945,-0.37057 -6.19972,-0.40825 -2.43272,-0.23477 -4.77001,0.15893 -7.15443,0.54672 -1.93084,0.0707 -3.68307,0.8457 -5.56764,1.17831 -1.75306,0.0529 -3.33967,0.7506 -5.05876,1.03186 -5.51068,1.18636 -15.58792,4.68446 9.35136,-3.27259 -9.31647,3.33421 -30.07916,9.59173 -2.20202,0.76371 0.24138,-0.0764 -0.45855,0.21486 -0.68819,0.32149 -0.90307,0.41935 -0.50575,0.24824 -1.39101,0.59603 -1.3042,0.70487 -2.68207,1.23699 -3.89276,2.10246 -1.22614,0.85433 -2.57316,1.50392 -3.85441,2.26372 -1.34092,0.84201 -2.67329,1.72928 -3.953,2.66738 -1.30429,0.91122 -2.74256,1.59364 -4.11227,2.3909 -1.23061,0.75829 -2.44266,1.54438 -3.68205,2.29418 -1.13101,0.93333 -2.45655,1.56744 -3.60926,2.47029 -1.22373,0.76276 -2.40767,1.56808 -3.57326,2.41794 -1.19566,1.09538 -2.5302,2.02522 -3.83731,2.98065 -1.17429,0.90747 -2.21601,1.96138 -3.31282,2.95569 -1.02176,0.99752 -1.99479,2.04575 -3.03633,3.02288 -1.11754,1.18242 -1.99862,2.55656 -3.0448,3.79943 -1.16815,1.45401 -2.28846,2.94455 -3.44076,4.41096 -1.07972,1.247 -2.18432,2.45822 -3.15025,3.79767 -1.01614,1.33172 -2.08099,2.6177 -3.03472,3.99622 -0.8937,1.31444 -1.95599,2.49099 -2.99715,3.68572 -1.04756,0.98126 -1.74137,2.25411 -2.63983,3.36244 -0.89354,1.13013 -1.86269,2.20956 -2.90132,3.20899 -1.0024,1.01793 -1.98361,2.06132 -3.02843,3.03664 -1.04399,1.03982 -2.04828,2.12385 -3.14289,3.11121 -1.39761,1.08472 -2.774,2.19596 -4.09792,3.37193 -1.15953,1.01061 -2.30319,2.04653 -3.37265,3.1528 -1.01966,1.00239 -2.05948,1.988 -3.03914,3.03035 -1.14607,0.94013 -2.35629,1.80943 -3.55188,2.69034 -1.34949,0.89064 -2.62527,1.87215 -3.89298,2.87306 -1.10159,0.94174 -2.0954,1.99606 -3.1561,2.98075 -1.0109,1.00657 -1.98422,2.0534 -3.02492,3.02975 -1.00882,1.01003 -1.98561,2.05528 -3.02813,3.03125 -1.14671,1.14821 -2.18536,2.36153 -3.18076,3.63951 -1.00116,1.26583 -2.02195,2.45069 -2.77377,3.88448 -0.81058,1.5898 -1.74602,3.10944 -2.61235,4.66704 -0.82905,1.49665 -1.6779,2.9903 -2.62226,4.41807 -1.10732,1.61913 -1.98649,3.37559 -2.83814,5.13762 -0.90399,1.68139 -1.80468,3.36537 -2.73172,5.03424 -0.86806,1.42972 -1.58432,2.93898 -2.56753,4.29698 -1.10549,1.2134 -1.82588,2.65698 -2.6146,4.0814 -0.92122,1.48222 -1.8439,2.96013 -2.84664,4.38861 -0.97893,1.23008 -1.80939,2.57549 -2.64456,3.9066 -0.91708,1.63299 -1.91452,3.21813 -2.76529,4.88697 -0.79443,1.56005 -1.56952,3.13527 -2.43038,4.66019 -0.82109,1.26982 -1.60792,2.56048 -2.42909,3.83179 -0.89797,1.1395 -1.55939,2.433 -2.44932,3.57966 -0.88762,1.35162 -1.71571,2.74219 -2.62423,4.08111 -1.10657,1.36453 -2.45084,2.50062 -3.70199,3.7244 -1.29145,1.02823 -2.40412,2.24869 -3.58456,3.39574 -1.23746,1.24665 -2.49934,2.47315 -3.80587,3.64926 -1.91333,1.46287 -3.41073,3.25523 -4.84108,5.17246 -1.58573,2.0305 -3.3887,3.88141 -5.1185,5.78944 -1.21502,1.32427 -2.48359,2.56294 -3.46521,4.0729 -1.46922,1.75743 -3.096464,3.3772 -4.650392,5.06123 -1.135504,1.21994 -2.244341,2.46914 -3.440589,3.63018 -1.107158,1.24045 -2.366712,2.31828 -3.617298,3.40923 -1.534015,1.31351 -3.095607,2.58824 -4.758113,3.73607 -1.554056,1.30455 -3.486861,1.97667 -5.19054,3.03827 -1.485565,1.07878 -2.941022,2.19577 -4.486096,3.19104 -1.322802,0.77336 -2.675566,1.48084 -4.031967,2.19355 -1.549561,0.70629 -3.023472,1.57939 -4.516101,2.40105 -1.890351,1.00411 -3.818099,1.93595 -5.683512,2.98629 -2.268019,1.23132 -4.549188,2.44783 -6.743111,3.80859 -1.650907,0.88332 -3.219601,1.912 -4.879032,2.7785 -0.562703,0.0142 -1.355247,0.81519 -1.948639,0.72441 -0.203078,-0.0311 -0.399633,-0.64198 0.172975,-0.85519 1.747037,-0.11568 3.386167,0.41147 5.095502,0.6584 2.320519,0.30718 4.661731,0.38181 6.999302,0.42384 1.805178,0.13415 3.79279,0.37802 5.484636,1.06925 1.658328,0.49704 3.295263,1.06815 4.980707,1.47887 1.705265,1.20101 3.69884,1.86547 5.59616,2.69522 1.605992,0.54586 3.304323,0.97009 4.790974,1.80191 1.455605,0.51191 2.858436,1.16749 4.341932,1.60612 0.258273,0.0524 0.524764,0.074 0.77482,0.15717 0.513822,0.17097 0.980393,0.46604 1.493324,0.63965 0.794795,0.26902 1.526575,0.36977 2.296108,0.72315 1.604159,0.59005 3.285794,0.86167 4.936319,1.30301 1.90712,0.65311 3.96485,0.94131 5.842181,1.66911 1.6569,0.41301 3.20811,1.09452 4.84433,1.56484 1.70497,0.14281 3.29039,0.66422 4.9446,1.04929 2.30991,0.58868 4.68877,0.87766 7.01929,1.38429 2.46367,0.52403 5.0069,0.94701 7.34593,1.90588 1.84703,0.66781 3.72483,1.26155 5.64949,1.66542 1.23792,0.66526 2.65697,0.76992 3.96906,1.1603 0.90174,0.26829 1.76028,0.66656 2.65435,0.95942 3.00489,0.6827 5.79189,1.96214 8.77946,2.71523 2.73888,0.63452 5.3124,1.766 8.079,2.34427 1.82714,0.90296 3.91031,0.90947 5.74615,1.70486 2.35806,0.65959 4.65608,1.49501 7.00658,2.17594 1.91617,0.34164 3.72924,0.97314 5.65836,1.27559 2.02102,0.26539 4.06255,0.28446 6.09748,0.30229 0.33857,0.001 0.68447,-0.0668 1.0157,0.003 0.21379,0.0452 1.62733,0.72535 1.86195,0.82751 0.83888,0.36527 1.6692,0.60638 2.55828,0.81156 2.39817,0.33668 4.82774,0.3593 7.2453,0.38479 2.44578,0.39465 4.89979,0.70981 7.37148,0.87887 2.05042,0.0423 4.03016,0.0597 6.02455,0.53957 2.08949,0.48282 4.24857,0.49673 6.38182,0.55711 2.30904,0.14322 4.64958,-0.17231 6.93149,0.23571 2.01403,0.43375 4.0612,0.63102 6.11492,0.73692 2.00938,0.079 4.0208,0.074 6.03137,0.0743 2.01941,-0.002 4.03882,-0.005 6.05822,-0.007 2.20643,-0.003 4.41284,0.001 6.61925,0.008 2.35358,-0.45363 4.7308,-0.72022 7.12027,-0.88625 1.9967,0.11424 3.85567,-0.56727 5.80166,-0.8702 2.02805,-0.26108 4.07617,-0.25786 6.11701,-0.26436 2.64361,-0.0135 5.28724,-0.005 7.93086,-0.004 2.90374,0.19975 5.66871,-0.78514 8.49492,-1.33948 2.42633,-0.47394 4.89366,-0.61902 7.35927,-0.68174 5.72431,-1.19624 15.1558,-4.64403 -9.18713,3.25496 38.45706,-12.4765 2.6351,-0.85236 1.46315,-0.48154 -0.24007,0.076 0.45685,-0.21184 0.68536,-0.31758 0.68875,-0.31871 1.3782,-0.59088 2.04744,-0.94931 6.30723,-2.2752 12.98679,-5.13555 19.78398,-6.22582 1.69225,-0.89495 3.68819,-0.78764 5.41985,-1.47659 -1.84071,0.2284 4.18232,-1.18103 2.44118,-0.60824 -4.45258,1.4648 -8.92845,2.85784 -13.39648,4.27483 -0.24888,0.0789 0.49057,-0.17927 0.7387,-0.26053 4.95845,-1.62379 9.92057,-3.23637 14.88086,-4.85456 5.33713,-1.00028 2.6526,-0.53248 -12.55393,4.12072 -0.26837,0.0821 0.49409,-0.26649 0.73724,-0.40664 0.79373,-0.45752 1.54508,-0.87188 2.39216,-1.22622 5.66216,-2.23439 11.29743,-3.83448 17.27766,-5.6795 3.10905,-0.9592 -1.15963,0.7365 1.64128,-0.4268 -1.83557,0.22294 4.12688,-1.16132 2.41338,-0.59736 -4.45268,1.46551 -8.92916,2.85775 -13.3974,4.27515 -0.2492,0.0791 0.49147,-0.17872 0.73995,-0.26001 4.95937,-1.62243 9.92227,-3.23406 14.8834,-4.85109 0.27658,-0.0516 1.09696,-0.24269 0.82973,-0.15468 -4.16791,1.37261 -16.72486,5.32607 -12.54701,3.98402 5.0113,-1.60976 10.01601,-3.24091 15.04445,-4.79629 0.3204,-0.0991 0.66176,-0.10948 0.99263,-0.16423 0.32667,-0.10618 0.65334,-0.21237 0.98,-0.31856 2.0772,-0.49467 4.05435,-1.25884 6.15637,-1.66043 -4.40776,1.40743 -8.81419,2.81902 -13.22327,4.22229 -0.28363,0.0903 0.56372,-0.19138 0.84683,-0.28327 4.98311,-1.61734 9.95726,-3.2627 14.95179,-4.84439 0.87109,-0.27585 1.69261,-0.24879 2.55059,-0.6019 1.02521,-0.53422 2.21766,-0.43587 3.29908,-0.70797 0.52035,-0.13092 0.99972,-0.39129 1.50839,-0.56204 1.09682,-0.43647 2.31625,-0.28483 3.4432,-0.51639 0.57398,-0.11794 1.11803,-0.35547 1.68879,-0.48814 1.95332,-0.14746 3.76687,-0.74666 5.65533,-1.19093 0.29695,-0.0508 1.17706,-0.24658 0.89087,-0.15246 -4.18768,1.37722 -16.79755,5.36405 -12.60633,3.99764 4.96365,-1.61824 9.91878,-3.26304 14.89387,-4.84577 0.26989,-0.0859 1.10387,-0.24658 0.83485,-0.15801 -4.45474,1.46648 -8.93233,2.86262 -13.3985,4.29393 2.8226,-0.90934 38.6987,-12.38351 5.94059,-1.83186 9.30893,-3.25273 30.61823,-9.73308 2.87574,-0.96319 -0.28671,0.0906 0.55591,-0.22945 0.83421,-0.34333 1.00099,-0.40962 0.61352,-0.25664 1.57206,-0.61521 1.40912,-0.61836 2.74829,-1.38412 4.16391,-1.98451 1.34412,-0.69262 2.67123,-1.42552 4.05182,-2.04497 1.54131,-1.07347 3.16703,-2.05079 4.85317,-2.88172 1.32705,-0.77774 2.64474,-1.57452 3.93082,-2.41753 1.28315,-0.78098 2.66611,-1.37989 3.97287,-2.11521 1.33038,-0.70273 2.72217,-1.29101 4.03807,-2.02001 1.38212,-0.57929 2.62904,-1.36017 3.8723,-2.18456 1.26036,-0.66809 2.44195,-1.48432 3.49985,-2.44084 1.19745,-0.85538 2.3872,-1.72203 3.58212,-2.58376 1.24133,-0.70426 2.42467,-1.51545 3.48493,-2.47199 1.07151,-0.93006 2.10687,-1.91141 3.08239,-2.94312 1.01145,-1.00776 2.04859,-1.99271 3.0266,-3.03372 1.01061,-1.00909 2.05012,-1.9918 3.0294,-3.03203 1.22147,-1.25447 2.40791,-2.53889 3.65177,-3.7747 1.13595,-1.09922 2.30793,-2.16332 3.4066,-3.29993 1.20919,-1.13125 2.61041,-2.0212 3.869,-3.09281 1.20614,-0.97986 2.29102,-2.08786 3.49742,-3.0687 1.28012,-0.92159 2.54026,-1.87894 3.69207,-2.95822 1.066,-0.96397 2.11578,-1.95361 3.1036,-2.99876 1.01064,-1.00663 2.04742,-1.98994 3.0247,-3.02975 1.19071,-1.35362 2.48762,-2.60408 3.77036,-3.87201 1.29003,-1.11721 2.2872,-2.51311 3.32147,-3.85833 1.01675,-1.09576 1.89468,-2.27866 2.76338,-3.48919 0.94623,-1.42489 1.84466,-2.87863 2.7488,-4.32996 1.15453,-1.48854 2.07706,-3.14867 2.94143,-4.81872 0.89154,-1.56848 1.58259,-3.24192 2.33616,-4.87935 0.94298,-1.93018 1.85218,-3.87172 2.71365,-5.839 0.64881,-1.53852 1.48338,-2.99995 2.05286,-4.56989 0.63387,-1.46251 1.03994,-3.00538 1.61113,-4.48996 0.44928,-1.51596 1.04674,-2.98607 1.48438,-4.50515 0.48841,-1.76879 1.08576,-3.49555 1.72298,-5.21429 0.40115,-1.66207 0.95908,-3.28376 1.35835,-4.94609 0.30948,-2.17247 0.85237,-4.29824 1.16964,-6.46927 0.43608,-2.01105 0.88481,-4.00863 1.11756,-6.05546 0.18737,-1.98859 0.19634,-3.98786 0.20739,-5.98346 0.005,-2.22269 0.0122,-4.44528 0.007,-6.66798 -0.007,-2.14905 -0.011,-4.29811 -0.0132,-6.44717 0.01,-2.27136 0.0115,-4.5427 0.007,-6.8141 -0.005,-2.10999 -0.007,-4.21997 -0.008,-6.32996 -9.4e-4,-2.02203 -9e-4,-4.04405 -9.2e-4,-6.06608 0.0634,-2.38537 0.0233,-4.75079 -0.2316,-7.12295 -0.20858,-2.60001 -0.61816,-5.1558 -1.11868,-7.71196 -0.38611,-1.76765 -0.79812,-3.58754 -1.43408,-5.28676 -0.63745,-1.94663 -1.06254,-3.96671 -1.55072,-5.96148 -0.90668,-1.56493 -1.70356,-3.18027 -2.53919,-4.78206 -0.64354,-1.47955 -1.0703,-3.06143 -1.80504,-4.50036 -0.69539,-1.62219 -1.40928,-3.23703 -2.11302,-4.85677 -0.48842,-2.10196 -2.00389,-3.6695 -3.06744,-5.47761 -1.09043,-1.29688 -1.63535,-2.90416 -2.30892,-4.43199 -0.50857,-1.75767 -1.3946,-3.35242 -2.19028,-5.00381 -0.73565,-1.89031 -1.68573,-3.68323 -2.26778,-5.63061 -0.67299,-1.46812 -1.06136,-3.02687 -1.64153,-4.52886 -0.52335,-1.76435 -1.09209,-3.51516 -1.47828,-5.317 -0.56476,-1.5794 -0.95431,-3.19972 -1.54483,-4.76797 -0.51107,-1.70373 -1.09486,-3.36849 -1.57475,-5.08382 -0.5104,-2.16504 -1.1637,-4.29244 -1.95021,-6.37349 -0.64529,-1.72514 -1.16012,-3.54452 -2.10933,-5.1322 -0.98411,-1.60415 -1.79838,-3.31335 -2.80178,-4.90263 -0.93109,-1.51625 -1.41305,-3.24483 -2.16543,-4.84117 -0.56344,-1.5802 -1.41619,-3.01635 -2.17008,-4.5079 -1.02863,-1.56496 -2.09488,-3.1015 -3.1407,-4.65566 -1.09462,-1.71895 -2.21315,-3.41885 -3.27481,-5.16154 -0.92013,-1.60225 -1.87309,-3.17987 -2.77991,-4.79128 -0.81604,-1.48461 -1.50803,-2.94308 -1.87986,-4.60678 -0.53847,-1.48548 -0.87986,-3.01581 -1.42507,-4.49706 -0.5049,-1.77207 -1.07744,-3.52329 -1.46459,-5.32711 -0.38576,-2.02095 -0.44913,-4.08135 -0.49295,-6.13234 -0.0276,-2.02815 -0.0181,-4.05657 -0.0143,-6.08484 0.042,-2.01184 -0.0823,-4.02964 0.0916,-6.03571 0.34283,-1.70538 0.54402,-3.43901 1.02612,-5.11244 0.42864,-1.60321 0.76626,-3.2167 1.2402,-4.80884 0.37578,-1.56778 0.88946,-3.11169 1.57217,-4.57296 0.6173,-1.46627 1.70028,-2.48092 2.89352,-3.46643 1.22783,-0.88053 2.62783,-1.46684 3.94051,-2.19874 1.33628,-0.69658 2.73238,-1.28138 4.05182,-2.0091 5.94977,-3.30096 12.52667,-5.30576 19.23643,-5.53558 1.97771,-0.11953 3.87287,-0.0718 5.79372,0.39309 1.88537,0.89066 3.80853,1.68015 5.69856,2.56746 1.41873,1.02861 2.9438,1.91186 4.32659,2.97684 1.20399,0.97355 2.29083,1.64308 3.8308,1.92569 2.18699,0.62082 3.79079,2.19758 5.46725,3.62808 1.52483,1.19293 2.45544,2.96472 3.84243,4.26171 1.31542,1.5841 2.21667,3.43895 3.29912,5.17123 0.80176,1.37729 1.36647,2.8864 2.17043,4.25902 0.62103,1.44526 1.4523,2.77842 2.17241,4.17541 0.67643,1.70356 1.7689,3.13099 2.37819,4.8609 0.70136,2.18031 1.54946,4.2828 2.57424,6.32727 0.882,1.69146 1.63134,3.47053 2.56686,5.13469 0.78987,2.26333 1.73383,4.41423 2.81839,6.54832 1.14424,2.01024 2.1869,4.09034 3.42099,6.04598 0.88143,1.47302 1.64972,3.03133 2.78404,4.33006 0.91182,1.12495 1.86364,2.26629 2.96942,3.20936 1.03837,1.14951 2.16465,2.21499 3.20696,3.36334 1.3381,1.39535 2.39879,3.02279 3.74043,4.41076 1.03825,1.29297 2.23093,2.44476 3.33724,3.67643 1.25146,1.08939 2.42017,2.25578 3.35419,3.63497 0.75265,0.77655 1.26762,1.77899 2.03873,2.5365 0.17136,0.16833 0.39328,0.2759 0.58992,0.41385 0.22435,0.25833 0.4487,0.51667 0.67305,0.775 1.3508,1.62887 2.53802,3.38307 3.82278,5.06552 1.057,1.49988 2.12832,3.03984 3.45587,4.31583 1.04419,1.17113 2.16821,2.24258 3.18876,3.44121 1.14477,1.68383 2.66033,3.06604 3.72839,4.8 0.91761,1.32004 1.95462,2.54371 2.79027,3.92249 1.09403,1.52029 1.99257,3.17778 3.07461,4.71562 0.97401,1.62024 2.2288,3.03433 3.39065,4.51887 0.92862,1.35298 1.87469,2.7418 3.06267,3.88296 1.16318,1.09375 2.02319,2.44082 3.04417,3.65654 1.15271,1.61016 2.31596,3.23009 3.61712,4.72268 1.07468,1.30378 2.14292,2.65914 3.41219,3.78134 1.03893,1.16548 2.17372,2.23926 3.22333,3.39666 1.23006,1.6688 3.05347,2.67055 4.61288,3.98421 1.32487,1.0081 2.64867,2.07045 3.77136,3.30527 1.03513,0.99405 2.12183,1.95636 3.06176,3.04548 1.01105,0.99974 2.08825,1.94883 3.02066,3.02652 1.08114,1.44108 2.51461,2.53857 3.74221,3.8397 1.12174,1.05716 2.30478,2.07117 3.32352,3.23112 1.00088,1.15264 2.29712,1.95191 3.44755,2.93171 0.53161,0.53951 2.37994,1.48186 2.59406,2.21304 0.12482,0.42624 0.16133,0.87351 0.24199,1.31026 -17.88326,6.24128 -11.27386,7.0568 -17.05214,1.31769 -1.04701,-1.32196 -1.961,-2.71539 -2.51809,-4.31388 -0.57995,-1.42673 -1.27545,-2.80135 -1.82886,-4.23826 -0.668,-1.72457 -1.49142,-3.35881 -2.38793,-4.97103 -0.57774,-1.56707 -1.3043,-3.02095 -2.16233,-4.4462 -0.67161,-1.58273 -1.62314,-3.01411 -2.3353,-4.57344 -0.74635,-1.38588 -1.75792,-2.58715 -2.56549,-3.937 -1.03865,-1.21712 -1.86238,-2.57888 -2.81449,-3.85497 -0.66844,-1.34611 -1.49735,-2.57132 -2.33229,-3.81374 -0.84051,-1.40687 -1.89281,-2.64858 -2.87348,-3.95255 -1.12794,-0.99044 -1.71952,-2.40218 -2.71158,-3.50806 -0.87707,-1.16747 -1.92707,-2.17322 -2.85932,-3.30149 -0.88542,-1.42866 -2.1088,-2.5859 -2.94651,-4.04303 -0.92625,-1.1512 -1.63545,-2.44376 -2.49364,-3.6382 -0.73039,-1.27984 -1.83955,-2.24497 -2.58,-3.51795 -0.74985,-1.2051 -1.73599,-2.2125 -2.61068,-3.31859 -1.09862,-1.27994 -1.89328,-2.76455 -2.84302,-4.14468 -0.82309,-1.32653 -1.38664,-2.799 -2.17972,-4.13848 -0.71702,-1.32351 -1.25443,-2.74861 -2.01767,-4.04555 -0.54813,-1.38024 -1.34886,-2.58535 -2.16408,-3.81111 -0.73633,-1.58086 -1.79616,-2.90559 -2.89507,-4.25141 -1.25237,-1.51589 -2.28811,-3.20322 -3.49829,-4.74826 -0.90965,-1.4854 -1.8718,-2.94642 -2.69797,-4.48412 -0.92614,-1.3747 -1.82141,-2.80243 -2.49947,-4.3189 -0.90801,-1.35327 -1.34409,-2.94333 -2.16082,-4.34321 -0.78612,-1.60743 -1.54329,-3.21399 -2.40374,-4.78286 -0.84685,-1.71139 -1.5076,-3.52326 -2.49291,-5.16115 -0.7698,-1.58824 -1.72838,-3.07006 -2.55567,-4.6284 -1.05496,-1.49797 -2.00172,-3.07796 -3.16398,-4.49626 -1.07979,-1.32306 -2.09442,-2.67643 -3.00438,-4.12557 -1.01311,-1.04386 -1.76133,-2.27212 -2.64228,-3.41534 -0.87128,-1.19069 -1.69041,-2.40648 -2.44909,-3.67793 -1.13609,-1.46184 -2.24878,-2.94607 -3.34472,-4.43997 -0.87873,-1.53525 -1.96296,-2.92583 -3.01016,-4.34682 -1.02977,-1.42791 -1.91215,-2.97859 -2.97784,-4.38047 -0.97574,-1.29613 -1.91282,-2.606 -2.76356,-3.9923 -0.99176,-1.06031 -1.51615,-2.43597 -2.46399,-3.52942 -0.90947,-1.2059 -1.50556,-2.60307 -2.30441,-3.87342 -0.7468,-1.50377 -1.76312,-2.84079 -2.50803,-4.34193 -0.861,-1.23095 -1.58513,-2.55129 -2.45438,-3.77314 -0.80598,-1.28337 -1.35794,-2.71046 -2.13276,-4.00783 -0.71958,-1.32178 -1.25745,-2.74621 -2.02061,-4.04275 -0.71483,-1.32327 -1.25468,-2.74603 -2.01858,-4.04126 -0.6773,-1.4378 -1.27101,-2.93164 -1.78667,-4.43884 -0.38905,-1.49525 -0.98994,-2.92276 -1.64348,-4.31855 -0.66293,-1.61215 -1.27039,-3.23734 -1.97869,-4.8294 -0.66888,-1.68895 -1.29158,-3.38752 -2.02366,-5.04931 -0.49889,-1.39466 -1.21279,-2.74691 -2.2478,-3.81629 -0.81821,-1.17868 -2.17686,-1.72992 -3.22193,-2.67703 -1.29058,-0.66395 -2.39879,-1.58285 -3.59452,-2.39435 -1.37446,-0.73589 -2.59302,-1.68442 -4.07097,-2.23845 -1.57021,-0.88258 -3.27676,-1.57237 -5.00502,-2.10031 -1.51573,-0.64765 -2.93841,-1.51209 -4.49332,-2.05855 -0.25053,-0.0591 -0.50991,-0.0888 -0.75159,-0.17738 -0.561,-0.27941 -0.87264,-0.45721 -1.45887,-0.66398 -0.78321,-0.27624 -1.51014,-0.37615 -2.27074,-0.72901 -1.53287,-0.41878 -2.9737,-1.06585 -4.49999,-1.50367 -1.65167,-0.1972 -3.14826,-0.88392 -4.78335,-1.17938 -1.45357,-0.87102 -3.18506,-0.83159 -4.71939,-1.41657 -1.86363,-0.6624 -3.879,-0.51671 -5.75999,-1.0417 -1.7227,-0.55144 -3.52099,-0.70308 -5.31572,-0.79659 -1.91031,0.14841 -3.68886,-0.27662 -5.5361,-0.6538 -1.8093,-0.3223 -3.65118,-0.36322 -5.48369,-0.40045 -1.79907,-0.0746 -3.53067,-0.63677 -5.33009,-0.83928 -1.90921,-0.17103 -3.82798,-0.17698 -5.74327,-0.18784 -2.01701,-0.005 -4.03404,3.1e-4 -6.05106,0.003 -2.02173,0.002 -4.04346,0.003 -6.06519,0.003 -2.02045,2.4e-4 -4.04089,1.9e-4 -6.06134,1.7e-4 -1.89008,0.41108 -3.71878,1.02074 -5.60551,1.44235 2.53908,-0.48492 -5.77492,1.82627 -3.2404,0.99723 22.6726,-7.41622 16.2521,-5.42793 11.41432,-3.54714 -1.47685,0.55542 -2.8911,1.26394 -4.2948,1.98156 -31.35465,10.28987 -9.04296,2.94737 -1.4752,0.53897 0.49993,-0.1591 -0.95164,0.44867 -1.45074,0.61036 -4.97093,1.61037 -9.93206,3.25348 -14.93205,4.77122 -4.49023,1.363 8.93505,-2.8713 13.40258,-4.30695 -1.4113,0.53016 -2.8393,0.9836 -4.10172,1.82358 -1.25914,0.82557 -2.30865,1.91658 -3.47625,2.86307 -1.39639,1.01796 -2.75594,2.11194 -3.86655,3.44085 -1.07685,1.28269 -2.02312,2.68429 -2.88922,4.11678 -0.66576,1.38026 -1.70084,2.53125 -2.3679,3.90422 -0.60708,1.40272 -1.2548,2.78579 -1.88608,4.17735 -0.5468,1.48925 -1.09176,2.96853 -1.56761,4.48196 -0.72037,1.50829 -0.91838,3.15061 -1.22968,4.76907 -0.51208,1.6475 -0.7864,3.33504 -0.93392,5.04938 -0.12932,1.96331 -0.12654,3.93214 -0.13085,5.89877 -0.038,2.01347 0.0922,4.03239 -0.0786,6.04034 -0.34831,1.73841 -0.64085,3.47736 -0.789,5.24482 -0.025,1.88548 -0.16507,3.72839 -0.54545,5.57491 -0.39008,1.78304 -0.49123,3.60662 -0.55847,5.42485 -0.2092,1.76238 -0.64074,3.48104 -0.84595,5.24606 -0.0815,1.76068 -0.61875,3.44669 -0.90283,5.1776 -0.43992,1.63622 -0.81252,3.2838 -1.1903,4.93569 -0.44076,1.56583 -0.88625,3.11949 -1.41751,4.65689 -0.42856,1.77859 -0.91447,3.54774 -1.28049,5.34167 -0.52107,1.70002 -0.92883,3.42076 -1.33685,5.15007 -0.56924,1.57261 -0.77749,3.23426 -1.25645,4.83026 -0.4518,1.81459 -0.99703,3.59025 -1.67187,5.33466 -0.86058,1.99039 -1.78017,3.95191 -2.64748,5.93921 -0.81697,1.73779 -1.54878,3.51383 -2.34094,5.26336 -0.65573,1.80485 -1.52395,3.51664 -2.44624,5.19691 -0.85201,1.38155 -1.55993,2.83962 -2.52465,4.14973 -0.84342,1.20684 -1.49648,2.52454 -2.23579,3.79276 -0.7823,1.22933 -1.59381,2.43914 -2.30588,3.71302 -0.64931,1.42109 -1.60243,2.65819 -2.48179,3.93824 -0.91556,1.43256 -1.97916,2.76201 -3.06912,4.06403 -1.07555,1.19583 -2.26342,2.28069 -3.38061,3.43515 -1.09343,1.202 -2.40421,2.14102 -3.67542,3.13761 -1.20676,0.89982 -2.3591,1.88133 -3.42344,2.94636 -1.30333,1.15453 -2.72308,2.17028 -4.15321,3.1609 -1.59112,1.0263 -3.11794,2.14877 -4.66567,3.2392 -1.34886,0.94678 -2.55254,2.06665 -3.78634,3.1516 -0.73071,0.7382 -0.34621,0.37419 -1.1564,1.08898 0,0 -14.73734,2.93646 -14.73734,2.93646 l 0,0 c 0.79603,-0.66634 0.40414,-0.34886 1.17399,-0.95451 1.08147,-1.2843 2.45391,-2.34271 3.78155,-3.35924 1.45033,-1.25003 3.13511,-2.20082 4.62492,-3.4031 1.5003,-0.80945 2.80467,-1.9038 4.17296,-2.89884 1.21261,-0.9423 2.19642,-2.15354 3.40849,-3.10574 1.31566,-0.84706 2.6581,-1.78747 3.69673,-2.96265 1.25007,-0.98168 2.28852,-2.23446 3.41668,-3.3488 1.24069,-1.07143 2.07753,-2.50566 3.13867,-3.73975 0.74063,-1.33313 1.7313,-2.46551 2.50692,-3.76827 0.54234,-1.3664 1.3601,-2.67287 2.28066,-3.80712 0.69959,-1.34324 1.47345,-2.62792 2.20016,-3.95032 0.89492,-1.34257 1.91105,-2.5841 2.56395,-4.08489 1.08952,-1.49048 1.84816,-3.27202 2.51738,-4.98152 0.75361,-1.78369 1.57567,-3.53662 2.32044,-5.32313 1.021,-1.86589 1.66367,-3.93591 2.68514,-5.81084 0.64952,-1.71984 1.34121,-3.4148 1.6615,-5.23625 0.51831,-1.58836 0.75012,-3.21407 1.26657,-4.80619 0.59323,-1.62283 0.60092,-3.43775 1.39973,-5.01175 0.3233,-1.85975 0.88031,-3.65403 1.20548,-5.51113 0.45551,-1.55319 1.07542,-3.03192 1.42944,-4.618 0.55681,-1.53214 0.53139,-3.24448 1.25409,-4.74174 0.22503,-1.73135 0.75739,-3.38968 0.92447,-5.11693 0.15737,-1.74015 0.43616,-3.45514 0.88369,-5.14613 0.0503,-1.89554 0.11822,-3.79908 0.47124,-5.66729 0.36879,-1.79552 0.70712,-3.53948 0.6101,-5.39136 0.1149,-1.79465 0.30132,-3.58498 0.75801,-5.33 0.3756,-1.91699 0.041,-3.91036 0.14916,-5.85371 8.3e-4,-2.00061 -0.005,-4.00249 0.0909,-6.00134 0.11343,-1.78572 0.28073,-3.57898 0.85173,-5.28691 0.50433,-1.61529 0.38053,-3.40094 1.17539,-4.94713 0.35218,-0.75425 0.46223,-1.52044 0.73899,-2.30244 0.0864,-0.24408 0.19487,-0.47977 0.2923,-0.71965 0.10619,-0.2124 0.23845,-0.41366 0.31857,-0.6372 0.0977,-0.27267 0.1412,-0.56183 0.2118,-0.84274 0.50585,-1.44212 1.24633,-2.78857 1.88957,-4.17005 0.49439,-1.54859 1.42011,-2.74755 2.33852,-4.06452 0.73479,-1.61021 1.86468,-2.97712 2.80749,-4.47005 1.81934,-1.94664 -0.78784,0.90307 1.09815,-1.38192 0.77067,-0.93371 1.90687,-1.49201 2.69821,-2.41472 1.3225,-0.76549 2.37347,-1.84858 3.44985,-2.90767 1.31514,-0.82429 2.48503,-1.794 4.05588,-2.13075 48.64161,-15.93212 -9.89257,3.3306 2.98778,-1.01735 4.93403,-1.66555 9.93664,-3.13529 14.81757,-4.95058 4.38967,-1.63259 -8.89524,2.93474 -13.34286,4.40211 0.78815,-0.26377 1.33253,-0.66796 2.06001,-1.02636 0.73363,-0.36142 1.60405,-0.47733 2.24125,-1.05199 6.70037,-2.08438 13.26774,-4.66834 20.04495,-6.53216 1.89387,-0.50212 3.79823,-1.12937 5.77697,-1.12664 2.02039,0 4.04077,2e-5 6.06115,-4.9e-4 2.02148,-6.5e-4 4.04296,-0.002 6.06445,-0.005 2.02019,-0.002 4.04047,-0.009 6.06059,0.013 1.94923,0.0321 3.90472,0.072 5.83726,0.35353 1.7459,0.28563 3.46619,0.77141 5.2519,0.70022 1.88104,0.0805 3.76504,0.20864 5.60707,0.62464 1.80257,0.36879 3.60887,0.40519 5.44405,0.48573 1.82983,0.17618 3.6255,0.5069 5.40247,0.98159 1.96252,0.27873 3.93798,0.50782 5.82685,1.14748 1.59136,0.33963 3.12447,0.8169 4.66937,1.31661 1.62067,0.42408 3.21903,0.9201 4.8482,1.30974 1.50548,0.54796 3.03962,0.99238 4.53326,1.57321 1.53031,0.45234 2.99728,1.05297 4.4937,1.60304 1.46889,0.68565 2.92357,1.40508 4.4382,1.98813 1.72029,0.65935 3.43185,1.34675 5.05994,2.21226 1.46406,0.73549 2.82642,1.64353 4.21225,2.51445 1.17818,0.88397 2.47151,1.58757 3.63362,2.49079 1.18993,0.87536 2.44961,1.68411 3.31127,2.91581 1.01,1.28421 1.8519,2.69076 2.37573,4.24669 0.72405,1.66238 1.33159,3.36639 2.02305,5.04252 0.6998,1.58422 1.29009,3.20733 1.98315,4.79466 0.67654,1.44237 1.27036,2.93278 1.68863,4.47119 0.49561,1.42125 1.04271,2.84023 1.71006,4.18632 0.70571,1.33052 1.32219,2.70726 2.01896,4.04235 0.70338,1.32834 1.31608,2.70371 2.01758,4.03302 0.69915,1.29846 1.31271,2.64561 2.09497,3.89839 0.83832,1.31431 1.71263,2.60109 2.49829,3.94875 0.76173,1.45245 1.73382,2.78543 2.4911,4.24283 0.71049,1.25041 1.36449,2.54005 2.24107,3.68764 0.87782,1.20282 1.57575,2.52191 2.51266,3.68292 0.8596,1.33691 1.76274,2.63077 2.71053,3.90557 1.00307,1.44723 1.96732,2.92211 2.97864,4.36413 1.04906,1.41434 2.0765,2.84221 2.9813,4.35507 1.14039,1.52081 2.31165,3.01662 3.43489,4.54998 0.7648,1.21747 1.55124,2.40832 2.40972,3.56133 0.84158,1.20806 1.77453,2.32944 2.66557,3.5022 0.91325,1.38603 1.88638,2.71221 2.92648,4.00541 1.14906,1.53157 2.2434,3.10495 3.25966,4.72836 0.84901,1.53086 1.75984,3.02594 2.5335,4.5973 0.92752,1.6831 1.67094,3.45908 2.51579,5.18449 0.85834,1.56573 1.58836,3.18731 2.40269,4.77481 0.77878,1.46318 1.34693,3.02894 2.20893,4.45011 0.69163,1.47087 1.57863,2.84872 2.44969,4.21798 0.82471,1.45738 1.71732,2.88307 2.62263,4.2892 1.13494,1.57982 2.24998,3.17101 3.46206,4.69475 1.12049,1.37422 2.17647,2.77861 2.9853,4.36321 0.85702,1.249 1.57878,2.55658 2.20532,3.93533 0.70408,1.33034 1.31732,2.70767 2.01539,4.04108 0.71738,1.34377 1.34312,2.73866 2.13715,4.04109 0.86597,1.37656 1.73099,2.75414 2.79982,3.98834 0.96119,1.11866 1.88302,2.2652 2.67721,3.51103 0.79363,1.19323 1.86398,2.18912 2.55882,3.45612 0.8134,1.25815 1.6684,2.47898 2.51244,3.71791 0.85506,1.34012 1.97573,2.49356 2.86223,3.81546 0.9629,1.10421 2.00961,2.1382 2.87955,3.32099 0.90526,1.18817 1.66288,2.48652 2.71819,3.55564 1.02714,1.30352 1.98666,2.64934 2.91042,4.02753 0.85287,1.22109 1.57582,2.50695 2.31979,3.79328 0.90843,1.34406 1.88563,2.62709 2.83015,3.94712 0.88034,1.36653 1.91579,2.63313 2.62559,4.10591 0.71171,1.49859 1.59854,2.90841 2.29683,4.41584 0.86952,1.43805 1.52737,2.95211 2.15591,4.50693 0.92359,1.67198 1.73958,3.38929 2.47323,5.15365 0.57478,1.44513 1.26692,2.84001 1.83978,4.28714 0.49851,1.38798 1.36096,2.60507 2.31403,3.72205 4.97742,5.58537 5.01323,2.27101 -11.90644,6.69255 0.63934,1.63493 0.64443,1.28624 -0.045,0.70433 -0.618,-0.52162 -1.25431,-1.02213 -1.90358,-1.50414 -1.26403,-0.95298 -2.46675,-1.9581 -3.54039,-3.12706 -1.08158,-1.08348 -2.18242,-2.14787 -3.29019,-3.20443 -1.28813,-1.26464 -2.61699,-2.49091 -3.78089,-3.87507 -1.00154,-1.01481 -2.01514,-2.01767 -3.02146,-3.0277 -1.00142,-1.01557 -2.01335,-2.0213 -3.04311,-3.00811 -1.16727,-1.11468 -2.38209,-2.18094 -3.67041,-3.15454 -1.65251,-1.29387 -3.37805,-2.51191 -4.70806,-4.15983 -1.08085,-1.09869 -2.13285,-2.22274 -3.20885,-3.32622 -1.20762,-1.25582 -2.36381,-2.56413 -3.42526,-3.94634 -1.25349,-1.5534 -2.48686,-3.1244 -3.65894,-4.74065 -0.94822,-1.23037 -1.92109,-2.42392 -3.01131,-3.53435 -1.11921,-1.2703 -2.13706,-2.6239 -3.09203,-4.02155 -1.18486,-1.49653 -2.39466,-2.97815 -3.39709,-4.60736 -1.08573,-1.5636 -2.02284,-3.22288 -3.12685,-4.77309 -0.88073,-1.33836 -1.92033,-2.56346 -2.78394,-3.91475 -1.0814,-1.6212 -2.4734,-3.01491 -3.63373,-4.58009 -1.05748,-1.13471 -2.17251,-2.21507 -3.1946,-3.38251 -1.25858,-1.41518 -2.40357,-2.92697 -3.47452,-4.48845 -1.25037,-1.64686 -2.40018,-3.37926 -3.78809,-4.91507 -1.23996,-1.2114 -2.38219,-2.48578 -3.3827,-3.90736 -0.96782,-1.27154 -2.16231,-2.32873 -3.29095,-3.45447 -1.14963,-1.19702 -2.26457,-2.42575 -3.33613,-3.69346 -1.2515,-1.45636 -2.38792,-3.01088 -3.73881,-4.38057 -1.06974,-1.0851 -2.10993,-2.19626 -3.19063,-3.27071 -1.06878,-1.08281 -2.12355,-2.18937 -3.03077,-3.41348 -1.06982,-1.42917 -1.95198,-2.97925 -2.8343,-4.52866 -1.16651,-2.03175 -2.26425,-4.10296 -3.40008,-6.15274 -1.11613,-2.1117 -1.99192,-4.28106 -2.84897,-6.506 -0.90161,-1.70771 -1.75793,-3.44713 -2.58458,-5.19112 -1.02298,-2.10219 -1.8496,-4.27391 -2.62178,-6.48003 -0.62945,-1.62962 -1.72543,-3.01748 -2.34031,-4.6617 -0.74437,-1.37302 -1.53927,-2.71665 -2.18062,-4.14211 -0.73447,-1.39369 -1.36922,-2.83988 -2.13505,-4.21766 -0.96214,-1.67522 -1.86592,-3.40808 -3.169,-4.85425 -1.23936,-1.3975 -2.33574,-2.92147 -3.77446,-4.13909 -1.55678,-1.35494 -3.18226,-2.56855 -5.25315,-2.99593 -1.52133,-0.54182 -2.7535,-1.45671 -4.04262,-2.40983 -1.40083,-0.90983 -2.68275,-1.99475 -4.18127,-2.74995 -1.8033,-0.86206 -3.66753,-1.65122 -5.58322,-2.21597 -1.85817,-0.28733 -3.74747,-0.12393 -5.61846,-0.0478 -0.9119,0.0805 -1.8183,0.1612 -2.70919,0.38555 -0.27083,0.0682 -1.06756,0.32882 -0.80248,0.24086 0.4829,-0.16024 18.49696,-6.10212 12.62349,-4.16477 -1.35433,0.67298 -2.6488,1.45564 -4.05183,2.00908 -1.33867,0.6573 -2.61386,1.41139 -3.97106,2.01153 -1.22817,0.70468 -2.2746,1.50842 -3.06524,2.69663 -0.65472,1.39904 -1.34381,2.80682 -1.64177,4.33491 -0.42487,1.61992 -0.96052,3.18259 -1.22965,4.84296 -0.51858,1.6038 -0.75066,3.23192 -1.1016,4.88272 -0.37876,1.91425 -0.0488,3.90651 -0.163,5.84764 -0.004,2.0183 -0.0135,4.03669 0.006,6.05495 0.0318,1.95758 0.0688,3.92546 0.41503,5.8581 0.3632,1.737 0.94171,3.40985 1.42729,5.11355 0.56608,1.54555 0.92852,3.14112 1.47829,4.69373 0.32687,1.51564 1.01623,2.81972 1.7437,4.17916 0.90553,1.58955 1.80275,3.17918 2.73148,4.75488 1.05391,1.71851 2.17459,3.39097 3.24518,5.09848 1.08736,1.59804 2.23902,3.15156 3.22766,4.81471 0.78907,1.50121 1.61308,2.97926 2.19507,4.57795 0.6879,1.56568 1.22186,3.20626 2.11594,4.67701 0.9404,1.64073 1.8262,3.31208 2.79248,4.93902 0.93456,1.69312 1.54377,3.53876 2.17876,5.36146 0.79276,2.11689 1.41737,4.28975 1.96625,6.48096 0.52066,1.66259 1.10182,3.29745 1.59195,4.96754 0.61123,1.64018 1.01756,3.33465 1.58762,4.9905 0.36059,1.72708 0.93212,3.39191 1.43368,5.0801 0.59207,1.53967 0.99798,3.13363 1.65993,4.6487 0.54844,1.86709 1.45701,3.59853 2.16537,5.40659 0.8091,1.65862 1.74013,3.26267 2.25166,5.0385 0.6544,1.47419 1.2021,2.99048 2.22474,4.26582 1.12236,1.83927 2.55068,3.53275 3.11958,5.65853 0.71033,1.59818 1.43168,3.1911 2.13167,4.79301 0.6718,1.45386 1.16485,2.98338 1.77799,4.46069 0.89071,1.70598 1.75878,3.42133 2.62167,5.14009 0.46363,1.94266 0.8972,3.90561 1.53658,5.79426 0.62618,1.79026 1.0888,3.67034 1.45531,5.52721 0.48589,2.598 0.90859,5.18825 1.11058,7.82755 0.30776,2.42117 0.42008,4.82947 0.34365,7.27207 -1e-5,2.0222 2e-5,4.04441 -9.2e-4,6.06662 -0.001,2.11158 -0.004,4.22316 -0.008,6.33474 -0.004,2.26986 -0.003,4.53966 0.008,6.80947 -0.002,2.15045 -0.005,4.30089 -0.007,6.45133 -1.3e-4,2.22323 0.018,4.44627 0.0179,6.66947 -0.007,2.04293 -0.0102,4.08854 -0.16732,6.1267 -0.19551,2.06542 -0.53848,4.10541 -1.10859,6.10366 -0.28308,2.20688 -0.8795,4.34645 -1.13572,6.55058 -0.28012,1.76575 -0.98923,3.38248 -1.29099,5.14284 -0.55123,1.71171 -1.29591,3.34003 -1.75002,5.08724 -0.35314,1.61463 -1.05734,3.07658 -1.43029,4.68222 -0.56968,1.4635 -0.93373,2.98223 -1.64434,4.39036 -0.45014,1.70914 -1.33756,3.18352 -2.0204,4.8018 -1.01928,1.86486 -1.65572,3.93627 -2.73111,5.78306 -0.71834,1.69627 -1.49993,3.36799 -2.27484,5.03624 -1.05923,1.61373 -1.77738,3.45007 -2.89245,5.0404 -1.21188,1.11199 -1.71306,2.89272 -2.76243,4.17469 -0.78708,1.33727 -1.69733,2.55268 -2.72834,3.7035 -1.23926,1.22915 -2.05662,2.79867 -3.29207,4.04121 -0.95612,0.76356 -1.76827,1.66736 -2.64362,2.5159 -0.20511,0.19883 -0.47725,0.32697 -0.66033,0.54626 -0.19231,0.23033 -0.29851,0.5206 -0.44776,0.78091 -1.12003,0.88008 -2.02555,2.02465 -3.02453,3.03117 -1.13851,0.897 -2.05033,2.06403 -3.09639,3.06225 -1.27951,0.96612 -2.3567,2.17999 -3.67986,3.102 -1.34904,0.77739 -2.42869,1.8815 -3.50355,2.98434 -1.332,0.9435 -2.5085,2.09096 -3.88372,2.98018 -1.24616,0.98052 -2.2623,2.24186 -3.43091,3.31358 -1.35708,1.09253 -2.55933,2.36939 -3.6261,3.75028 -1.12124,0.88035 -2.02868,2.02463 -3.02965,3.03075 -1.12083,0.88125 -2.02714,2.02703 -3.02629,3.03523 -1.12686,0.88889 -2.02924,2.04369 -3.06534,3.03097 -1.18295,0.86576 -2.16135,1.97685 -3.44135,2.72357 -1.36328,0.56803 -2.274,1.745 -3.62614,2.32981 -1.18427,0.87067 -2.16081,1.98941 -3.45021,2.73107 -1.39949,0.57225 -2.39432,1.78007 -3.87089,2.1936 -1.35132,0.67267 -2.64148,1.4553 -4.03867,2.01476 -1.34151,0.66825 -2.61704,1.44222 -3.98649,2.03618 -1.36601,0.74693 -2.6174,1.64195 -3.94427,2.4445 -1.54124,1.02731 -3.32558,1.67977 -4.8769,2.71018 -1.0398,1.11647 -2.67665,1.50178 -4.006,2.23789 -1.26483,0.87881 -2.79812,1.34924 -4.16234,2.06157 -0.75451,0.46296 -1.56779,0.78081 -2.40898,1.06438 -4.98274,1.67973 -10.04289,3.13774 -14.96949,4.97563 -4.30004,1.60415 8.72442,-2.85292 13.08842,-4.27389 0.33413,-0.10879 -0.66584,0.2249 -0.99876,0.33735 -5.02946,1.64021 -10.05751,3.28477 -15.08839,4.92062 -0.66231,0.21536 -1.3241,0.43313 -1.99293,0.62731 -0.34609,0.10048 -1.38757,0.38859 -1.04563,0.2748 11.38829,-3.78977 17.5931,-5.60912 12.2228,-4.02659 -49.42085,16.1036 32.44313,-10.51503 -18.87445,6.00883 -1.86761,0.50353 -3.77489,0.73228 -5.65854,1.16711 -1.69319,0.40631 -3.45992,0.47981 -5.10269,1.10899 -1.59093,0.46094 -3.25738,0.64589 -4.81333,1.24992 -0.63228,0.12167 -1.06916,0.19519 -1.69625,0.3599 -0.28299,0.0743 -1.11981,0.33993 -0.84182,0.24864 4.4186,-1.45104 8.83972,-2.89447 13.26403,-4.32802 0.28659,-0.0929 -0.56697,0.20388 -0.85046,0.30582 -5.00563,1.6053 -10.01125,3.2106 -15.01688,4.81591 -2.05214,0.53698 -4.06245,1.22225 -6.12518,1.72402 -0.66463,0.15236 -2.63611,0.69305 -1.98892,0.47836 28.3448,-9.40282 4.88723,-1.43202 -3.31868,1.03712 28.40139,-9.28977 4.95865,-1.50802 -4.6455,1.41592 -0.55704,0.11069 -2.20152,0.55185 -1.66246,0.37307 24.13174,-8.00333 15.76265,-5.63186 10.97414,-3.41458 -0.86228,0.20748 -1.67148,0.42684 -2.44444,0.8803 -0.24976,0.14652 -0.44672,0.38955 -0.71944,0.48687 -4.92527,1.75754 -9.89581,3.38554 -14.84723,5.06799 -0.26036,0.0885 -0.52521,0.16312 -0.78782,0.24468 28.41871,-9.29813 4.94129,-1.4731 -4.67707,1.40743 -1.84545,0.34062 -3.62122,0.90141 -5.44325,1.33567 -1.08626,0.24121 -2.14212,0.5219 -3.20394,0.85498 -0.32138,0.10082 -1.2829,0.41147 -0.96313,0.30567 18.14484,-6.00309 17.54128,-5.80259 12.6258,-4.1621 -0.45327,0.22661 -0.85433,0.54935 -1.30895,0.77326 -8.6036,4.23746 -31.48051,9.70526 -2.85777,1.18707 -5.67363,1.85477 -12.65533,5.02502 -19.19051,5.55976 -2.41524,0.11917 -4.82367,0.35744 -7.19113,0.87026 -2.86258,0.59802 -5.70159,1.33268 -8.65601,1.08431 -2.64128,-0.005 -5.28279,-0.009 -7.92388,0.0272 -2.0287,0.0532 -4.06765,0.11417 -6.06478,0.51003 -1.92977,0.39328 -3.84718,0.70578 -5.82574,0.72125 -2.39013,0.22351 -4.75593,0.66611 -7.15441,0.76804 -2.21974,0.007 -4.43947,0.012 -6.65922,0.0122 -2.02016,0.002 -4.04032,0.007 -6.06047,0.002 -2.0249,-0.01 -4.05182,-0.0195 -6.07261,-0.16351 -2.05884,-0.17367 -4.09322,-0.49776 -6.13552,-0.80275 -2.28275,-0.10227 -4.57037,-0.0321 -6.85346,-0.14512 -2.19703,-0.0996 -4.39862,-0.22023 -6.54216,-0.75375 -1.95437,-0.32106 -3.94741,-0.16758 -5.91434,-0.39462 -2.444,-0.23556 -4.86701,-0.6606 -7.31893,-0.79842 -2.4887,-0.067 -5.01397,-0.10542 -7.44213,-0.70858 -1.74439,-0.55834 -3.37369,-1.48375 -5.26535,-1.30342 -2.07484,-0.0522 -4.15773,-0.13279 -6.20097,-0.52893 -1.9257,-0.40977 -3.82107,-0.95606 -5.728,-1.44122 -2.3265,-0.77996 -4.67562,-1.46923 -7.01327,-2.21468 -1.91155,-0.46308 -3.80565,-0.94959 -5.67012,-1.58252 -2.71364,-0.72109 -5.31158,-1.8063 -8.05854,-2.4081 -2.95663,-0.8703 -5.82021,-2.02262 -8.81303,-2.77805 -2.19422,-0.70858 -4.4316,-1.26617 -6.62304,-1.98326 -1.94078,-0.50289 -3.86491,-1.08351 -5.73215,-1.81704 -2.36202,-0.72203 -4.76645,-1.28349 -7.19745,-1.72035 -2.39423,-0.40995 -4.771229,-0.86872 -7.137428,-1.42002 -1.654049,-0.44467 -3.347186,-0.64861 -4.987839,-1.14081 -1.597307,-0.57346 -3.221487,-1.03868 -4.830116,-1.58019 -1.937899,-0.51867 -3.8577,-1.09334 -5.80193,-1.58723 -1.6867,-0.43966 -3.42321,-0.70315 -5.023079,-1.4337 -1.534986,-0.44046 -3.014086,-1.02334 -4.54437,-1.47743 -1.477764,-0.57107 -2.986721,-1.06349 -4.411421,-1.76121 -1.583392,-0.59964 -3.177863,-1.16483 -4.752607,-1.78315 -1.828586,-0.83955 -3.685584,-1.62164 -5.501658,-2.47797 -1.680501,-0.49582 -3.36686,-0.97053 -5.028099,-1.52836 -1.738156,-0.36894 -3.481269,-0.76586 -5.270923,-0.70606 -2.366784,-0.0858 -4.735023,-0.22683 -7.076223,-0.60318 -1.766154,-0.30423 -3.563375,-0.42405 -5.293943,-0.86354 -1.823012,-1.37256 -1.358492,-2.96682 0.823259,-3.33299 1.78153,-0.6337 3.241556,-1.79969 4.942775,-2.59183 2.236319,-1.31107 4.460574,-2.63604 6.716224,-3.91862 1.941647,-0.8671 3.740586,-2.06715 5.67077,-2.97901 1.54571,-0.72213 3.025294,-1.5911 4.465723,-2.49681 0.784317,-0.25699 1.300524,-0.64482 2.01704,-1.00862 0.687543,-0.34909 1.49296,-0.45018 2.042835,-1.06987 1.692032,-0.68322 3.170735,-1.90093 4.553057,-3.06979 0.632445,-0.4133 1.1877,-0.9475 1.85367,-1.30427 1.000433,-0.53595 2.414517,-0.82065 3.335236,-1.6088 1.535876,-1.27587 3.306864,-2.2757 4.794337,-3.62205 1.198478,-1.09675 2.454349,-2.12037 3.604699,-3.2474 1.051714,-1.29869 2.368332,-2.37258 3.494005,-3.61139 1.447396,-1.74506 3.084185,-3.31943 4.657809,-4.95268 1.320777,-1.48539 -0.09821,0.25266 0.984538,-1.58933 0.594936,-1.01211 1.770639,-1.6693 2.482266,-2.58938 1.635023,-1.96202 3.486706,-3.7303 5.167586,-5.65579 1.383509,-2.01525 2.765169,-4.01007 4.740147,-5.47895 1.28165,-1.16726 2.50086,-2.36501 3.80103,-3.50101 1.05639,-1.29732 2.34743,-2.41046 3.55014,-3.56614 1.35835,-1.04191 2.53415,-2.33625 3.76549,-3.51994 1.17182,-1.0185 1.80098,-2.64245 2.62241,-3.94597 0.81762,-1.21508 1.78862,-2.3068 2.43566,-3.63929 1.04036,-1.06477 1.47647,-2.50958 2.49682,-3.59072 0.81709,-1.54841 1.71744,-3.04834 2.45952,-4.6336 0.88106,-1.67496 1.75603,-3.32497 2.74072,-4.94153 0.75181,-1.45545 1.72528,-2.76639 2.58062,-4.15311 1.19281,-1.23122 1.96657,-2.78434 2.88744,-4.21978 0.99259,-1.3209 1.32493,-3.03509 2.59058,-4.12913 0.91896,-1.38809 1.94515,-2.68476 2.61384,-4.2343 1.08369,-1.53948 1.78655,-3.32432 2.74715,-4.94275 1.0263,-1.68908 1.65881,-3.61701 2.80344,-5.23798 0.87447,-1.42933 1.79047,-2.82801 2.66204,-4.26284 0.73396,-1.65734 1.86689,-3.08211 2.59258,-4.75044 0.86961,-1.40862 1.38891,-2.94655 2.72968,-4.02341 0.89891,-1.40474 1.94182,-2.66608 3.12718,-3.8284 0.89295,-1.1123 2.01454,-2.03591 3.02835,-3.02978 0.89193,-1.11311 2.01238,-2.03791 3.02446,-3.03371 0.91583,-1.14169 2.06928,-2.09851 3.14212,-3.08372 1.09472,-1.20986 2.48452,-2.19026 3.86697,-3.03882 1.16319,-0.89317 2.2738,-1.86181 3.56677,-2.54042 1.12469,-0.88389 2.03104,-2.03493 3.03968,-3.04129 1.22204,-0.96344 2.20854,-2.20651 3.37885,-3.23482 1.41065,-1.05411 2.58457,-2.41406 4.09589,-3.32442 1.11985,-0.93656 2.09609,-1.96551 3.16313,-2.94634 0.89378,-1.11076 2.01681,-2.03134 3.03114,-3.02375 0.88356,-1.10573 1.99296,-2.0103 2.93367,-3.06487 0.83268,-1.22231 1.82557,-2.32233 2.59241,-3.5948 1.1878,-0.97547 2.14634,-2.25822 3.06032,-3.48289 1.08837,-1.26859 1.91168,-2.77259 3.02756,-4.02084 1.09765,-1.24373 1.92789,-2.72429 3.13672,-3.87719 1.31299,-1.30004 2.25279,-2.90747 3.44794,-4.31427 0.96517,-1.33396 2.10438,-2.53187 3.00818,-3.91571 0.89367,-1.11637 2.01669,-2.04501 3.03393,-3.04075 0.94946,-1.1674 2.14947,-2.1467 3.29342,-3.11256 1.14791,-1.14606 2.56934,-1.92334 3.83241,-2.9356 0.97067,-1.07695 2.24176,-1.96646 3.54109,-2.58835 1.21542,-0.80307 2.27272,-1.80885 3.6196,-2.41291 1.09288,-1.05926 2.5337,-1.50837 3.64264,-2.54063 1.41053,-0.71272 2.74704,-1.52745 4.15093,-2.24428 1.35272,-0.8541 2.67456,-1.79335 3.91345,-2.80495 1.3217,-0.67338 2.56465,-1.45409 3.87684,-2.12691 1.2689,-0.81397 2.38827,-1.80642 3.8672,-2.25952 0.63534,-0.43154 1.33836,-0.74589 2.06757,-0.99636 4.92317,-1.69107 10.02118,-2.92232 14.79575,-4.99614 15.34256,-6.66399 -19.34622,6.67072 -12.61318,4.08523 6.15882,-1.98524 12.49221,-4.50793 18.94825,-5.7813 1.67607,-0.40963 3.33711,-0.8068 5.04897,-1.04335 1.84311,-0.4641 3.67031,-0.92529 5.57322,-1.0885 2.4057,-0.36067 4.80976,-0.4177 7.24064,-0.29136 2.13656,0.0625 4.28132,0.13596 6.37357,0.61906 1.83622,0.3699 3.67522,0.39513 5.54529,0.43104 2.04612,0.12582 4.08118,0.35199 6.0966,0.73572 1.99582,0.27137 4.00648,0.15387 6.01622,0.16805 2.01918,-0.004 4.03861,-0.015 6.05758,0.0207 1.90936,0.0528 3.83804,0.11372 5.6943,0.61015 1.61463,0.49877 3.18665,1.1401 4.7715,1.72231 1.58848,0.71423 3.25108,1.25675 4.80323,2.05536 1.41558,0.75769 2.88896,1.40664 4.33574,2.10225 1.68107,0.87303 3.42139,1.64126 4.95961,2.76538 1.22109,0.8383 2.44723,1.64927 3.82766,2.21116 1.33941,0.72927 2.73183,1.36131 4.10741,2.01878 1.5854,0.80823 3.23942,1.48197 4.88143,2.16529 1.63674,0.74679 3.3095,1.41356 4.92118,2.21325 1.6022,0.67245 3.20759,1.33335 4.80905,2.00538 1.42504,0.63547 2.80534,1.3917 4.09852,2.26435 1.19688,0.79222 2.24594,1.75667 3.40689,2.59835 1.27655,0.90918 2.49984,1.85375 3.56265,3.01623 1.34304,1.33435 2.73379,2.62889 3.90847,4.12026 0.95121,1.34203 1.98763,2.62837 2.9741,3.94405 0.98509,1.1892 1.90423,2.42105 2.5249,3.84755 0.64205,1.58475 1.41407,3.11245 1.94689,4.74338 0.48479,1.75822 1.05728,3.49978 1.71845,5.19821 0.72276,1.86554 1.24329,3.80701 1.81691,5.72231 0.53798,1.7776 0.98974,3.60945 1.29194,5.4389 0.37456,2.19672 0.95921,4.35268 1.13249,6.58117 0.40719,2.63258 0.72132,5.25376 0.88663,7.91404 0.32199,2.05708 0.93536,4.0489 1.1438,6.12497 0.38645,1.91009 0.6375,3.79118 0.4907,5.74964 0.001,2.02057 0.004,4.04114 0.006,6.06171 2e-5,2.03207 0.004,4.06473 -0.0615,6.09599 -0.0873,2.0613 -0.23619,4.1223 -0.62833,6.15166 -0.35038,1.96373 -0.37653,3.91494 -0.37307,5.90959 -0.0758,1.84949 -0.18461,3.70742 -0.62362,5.51306 -0.43646,1.76889 -0.46451,3.54733 -0.70723,5.35149 -0.3398,1.70292 -1.01405,3.28765 -1.30003,5.00129 -0.55896,1.73774 -1.31152,3.39423 -1.80194,5.15818 -0.45436,1.80571 -1.32476,3.41572 -1.974,5.15159 -0.94347,1.79267 -1.89759,3.55289 -2.95702,5.28228 -1.20185,1.84769 -0.079,-0.0369 -1.04312,2.14461 -0.68774,1.55612 -1.81008,2.91326 -2.67493,4.36605 -1.41691,2.45679 -3.13412,4.65612 -5.15824,6.6478 -1.67816,1.04797 -2.66633,2.64664 -3.63409,4.33851 -0.73523,0.94516 -0.3978,0.43399 -0.99928,1.54203 -0.68796,0.965 -1.61558,1.79405 -2.12157,2.89819 -1.19616,1.60194 -2.38838,3.19192 -3.69343,4.70835 -1.74235,2.04315 -3.76534,3.85681 -5.68919,5.72614 -1.87515,1.65721 -3.72833,3.35336 -5.68287,4.90337 -1.33261,1.20609 -2.72646,2.33469 -4.0112,3.57769 -0.96733,1.17528 -2.03958,2.18963 -3.08579,3.28324 -1.36307,1.05195 -2.51707,2.36143 -3.9115,3.38705 -1.43461,0.93439 -2.63804,2.15785 -3.99818,3.17378 -1.46038,1.3025 -3.24931,2.13846 -4.9069,3.16303 -1.61196,1.20965 -3.22573,2.38971 -4.82359,3.6184 -1.58526,1.07945 -3.02934,2.35463 -4.67904,3.34847 -1.37872,1.11648 -3.00682,1.96961 -4.49622,2.91786 -1.53456,1.01279 -3.1937,1.74317 -4.70851,2.7821 -1.86053,0.87072 -3.64983,1.90282 -5.40232,2.96908 -1.87657,1.00268 -3.73495,1.99692 -5.75539,2.70481 -1.35095,0.42134 -2.58909,1.06032 -3.92751,1.50273 -14.08637,4.6562 -24.71898,8.1272 -1.85121,0.64045 -5.24321,1.86725 -10.61217,3.36969 -15.84807,5.25734 -4.37633,1.57776 8.84168,-2.8968 13.26721,-4.33078 0.28492,-0.0923 -0.55995,0.21348 -0.84492,0.30565 -14.74504,4.76934 -9.97029,3.47543 -15.99918,5.08701 -7.53214,2.34446 27.22859,-8.47066 12.08206,-3.94019 -5.99613,1.79349 -11.95331,4.19751 -18.10134,5.63665 -1.95883,0.45903 -3.89258,1.02037 -5.9023,1.23042 -2.6102,0.30703 -5.24137,0.13274 -7.86418,0.17061 -2.90177,-4.8e-4 -5.80355,0.006 -8.70531,0.01 -2.90671,0.005 -5.81341,-0.009 -8.72012,-0.0107 -3.37508,-0.0179 -6.7519,-0.0293 -10.12325,-0.20808 -3.43788,-0.21485 -6.85619,-0.61025 -10.28949,-0.87551 -3.63302,-0.15959 -7.26844,-0.42836 -10.80707,-1.32785 -3.88667,-0.99198 -7.79944,-1.82946 -11.67433,-2.8575 -3.86563,-1.19269 -7.79119,-2.21283 -11.78171,-2.89444 -3.42325,-0.77762 -6.77134,-1.82469 -10.16219,-2.72587 -2.59315,-0.49622 -5.18518,-1.03159 -7.73903,-1.70134 -2.05722,-0.4682 -4.12786,-0.87522 -6.17861,-1.36744 -1.77984,-0.52767 -3.58488,-0.91933 -5.37327,-1.41485 -1.66838,-0.29169 -3.33385,-0.69327 -5.0267,-0.7728 -2.14303,-7.9e-4 -4.28605,-0.002 -6.42907,-0.005 -2.31718,-0.002 -4.63452,-0.01 -6.95157,0.0187 0,0 13.626,-6.41191 13.626,-6.41191 z"
       inkscape:connector-curvature="0" />
    <path
       style="fill:#000000;fill-opacity:1;fill-rule:nonzero;stroke:none"
       id="path2993"
       d="m 383.21984,322.97436 c 0.99659,2.1199 1.80814,3.25211 3.69679,4.59709 1.97851,1.0082 4.27804,1.27397 6.44291,1.71282 2.54644,0.21677 5.01626,0.70524 7.51355,1.21412 1.8225,0.12179 3.48361,0.85543 5.26802,1.17898 4.681,0.55122 16.72025,-4.69891 -11.99814,4.14471 0,0 14.86096,-2.36317 14.86096,-2.36317 l 0,0 c -9.44827,2.92905 -10.48015,5.61502 -16.58792,4.32121 -1.73892,-0.43936 -3.45324,-0.94254 -5.23757,-1.18143 -2.47724,-0.53878 -4.98517,-0.7947 -7.48091,-1.22972 -2.32685,-0.51114 -4.77628,-0.82792 -6.73288,-2.30379 -1.72229,-1.37212 -2.82645,-3.07097 -3.906,-4.96818 0,0 14.16119,-5.12264 14.16119,-5.12264 z"
       inkscape:connector-curvature="0" />
    <path
       style="fill:#000000;fill-opacity:1;fill-rule:nonzero;stroke:none"
       id="path2995"
       d="m 357.9067,694.00938 c 0.81217,2.3024 1.26992,4.69648 1.57205,7.11224 0.34904,2.22986 0.19734,4.42307 -0.14876,6.63555 -0.23789,2.05205 -0.5602,4.07743 -0.97711,6.10032 -0.28807,1.88989 -0.54461,3.763 -1.00174,5.62108 -0.42069,1.82064 -0.50151,3.68526 -0.85834,5.51767 -0.43878,1.94371 -0.61923,3.92557 -0.72209,5.91099 -0.0796,2.00987 -0.075,4.02179 -0.0756,6.03286 -0.0518,1.20271 -0.33972,2.37576 -0.55821,3.55494 0,0 -14.49184,3.94028 -14.49184,3.94028 l 0,0 c 0.18217,-1.11137 0.42206,-2.20838 0.64893,-3.31114 -9.6e-4,-2.03344 -0.007,-4.06746 0.0564,-6.10017 0.0854,-2.05574 0.22702,-4.1141 0.65882,-6.13115 0.38705,-1.84734 0.51155,-3.704 0.82445,-5.5645 0.43307,-1.85401 0.89209,-3.66559 1.04028,-5.57538 0.39759,-2.01027 0.83163,-3.99389 0.99448,-6.04278 0.34342,-2.08586 0.63735,-4.1259 0.28471,-6.24311 -0.25411,-2.28702 -0.63267,-4.5766 -1.53063,-6.71148 0,0 14.2842,-4.74622 14.2842,-4.74622 z"
       inkscape:connector-curvature="0" />
    <path
       style="fill:#000000;fill-opacity:1;fill-rule:nonzero;stroke:none"
       id="path2997"
       d="m 335.92229,747.46765 c -2.50203,1.08257 -5.2694,1.40423 -7.95687,1.7185 -0.8812,0.17555 -1.78906,0.0781 -2.67418,0.20359 -4.13479,0.58625 -22.50532,7.33987 11.18372,-3.90991 -0.54612,-1.90144 0.18496,-1.25999 1.49523,-1.39872 0.61109,-0.0647 1.20121,-0.26049 1.80473,-0.37616 0.33414,-0.0542 0.6763,-0.0719 1.00241,-0.16261 0.30069,-0.0837 1.16306,-0.45146 0.86554,-0.35716 -4.42217,1.40166 -17.65325,5.71713 -13.24243,4.28016 4.98643,-1.6245 9.98409,-3.21445 14.96929,-4.84274 4.40167,-1.43769 -8.80656,2.86571 -13.2187,4.27095 -0.30764,0.098 0.60245,-0.23246 0.90367,-0.34869 5.00558,-1.63633 10.01116,-3.27266 15.01674,-4.909 0.32362,-0.0667 1.28468,-0.30343 0.97087,-0.19998 -4.41092,1.45414 -8.8419,2.84683 -13.26804,4.25398 -0.27511,0.0875 0.54006,-0.20474 0.81435,-0.29474 15.00097,-4.92253 9.80115,-3.87889 15.79848,-5.03959 1.78609,-0.85859 3.79745,-0.84896 5.66178,-1.39648 1.98482,-0.57834 4.04382,-0.75731 6.09848,-0.86311 2.02876,-0.0764 4.05947,-0.0667 6.08929,-0.0643 2.26184,0.01 4.52369,0.0133 6.78555,0.0134 2.62952,0.0136 5.25905,0.01 7.88859,0.005 2.18179,-0.004 4.36359,-0.006 6.5454,-0.007 0.81524,-0.2867 1.70757,-0.3424 2.5282,-0.59805 0.28215,-0.0879 1.0993,-0.43223 0.8177,-0.3426 -11.10162,3.53322 -17.73318,5.88505 -12.41427,4.00502 0.25731,-0.12611 0.51463,-0.25222 0.77194,-0.37833 0,0 14.79725,-2.57313 14.79725,-2.57313 l 0,0 c -0.25718,0.13205 -0.51436,0.2641 -0.77154,0.39615 -5.61597,3.51181 -12.65541,5.24682 -19.29642,5.87517 -2.17189,-9.5e-4 -4.34378,-0.003 -6.51566,-0.007 -2.63467,-0.005 -5.26934,-0.009 -7.90401,6.3e-4 -2.26717,-0.004 -4.53433,-0.009 -6.80149,-0.003 -2.01492,0.006 -4.03248,0.008 -6.04287,0.16077 -2.02781,0.19033 -4.02624,0.53832 -5.99251,1.07813 -1.92686,0.3511 -3.80656,0.83006 -5.67337,1.42268 -5.11826,1.57621 -3.71647,1.14981 12.45373,-4.0916 0.2768,-0.0897 -0.54088,0.21578 -0.81738,0.30639 -4.98405,1.63311 -9.97393,3.24839 -14.96351,4.8645 -0.30822,0.0998 -1.23748,0.38466 -0.92977,0.28328 4.38455,-1.44443 8.77365,-2.87502 13.16047,-4.31253 -5.23761,1.9224 -10.64998,3.34635 -15.88075,5.28728 -4.35267,1.61511 17.67092,-5.70991 13.24359,-4.31237 -5.0035,1.57942 -9.96976,3.27517 -14.97217,4.85802 -0.25903,0.082 -1.71304,0.29763 -1.95286,0.335 -0.92255,0.10763 -3.4882,0.52214 -4.12406,-0.51269 -0.27159,-0.442 -0.36078,-0.9728 -0.54116,-1.45919 7.73745,-2.68041 12.47438,-5.19795 19.7532,-5.67237 2.74843,-0.40413 5.41121,-1.1794 8.14299,-1.58983 0,0 -13.60917,6.40399 -13.60917,6.40399 z"
       inkscape:connector-curvature="0" />
    <path
       style="fill:#000000;fill-opacity:1;fill-rule:nonzero;stroke:none"
       id="path2999"
       d="m 366.02132,740.04955 c 2.56915,0.0373 5.13865,0.0231 7.70797,0.0267 2.92634,0.005 5.8527,0.003 8.77904,-0.001 2.36163,-0.19905 4.64889,0.38295 6.97141,0.69556 1.36116,0.14169 0.68222,0.0807 2.0368,0.18328 0,0 -13.6263,6.25799 -13.6263,6.25799 l 0,0 c -1.37318,-0.15177 -0.68547,-0.0672 -2.06311,-0.25394 -2.27033,-0.3487 -4.53039,-0.66704 -6.8377,-0.52138 -2.92421,-0.005 -5.84844,-0.006 -8.77265,-0.001 -2.60716,0.004 -5.21448,-0.0101 -7.82147,0.0267 0,0 13.62601,-6.41191 13.62601,-6.41191 z"
       inkscape:connector-curvature="0" />
    <path
       style="fill:#000000;fill-opacity:1;fill-rule:nonzero;stroke:none"
       id="path3001"
       d="m 329.46931,707.41378 c -0.21136,2.09771 0.2349,4.14672 0.54525,6.20735 0.36634,1.9543 0.21665,3.96316 0.51677,5.9192 0.50881,2.19624 0.65734,4.45353 0.79292,6.69744 0.55053,2.46236 1.30996,4.86153 1.75031,7.35038 0.32354,1.98358 0.25666,3.98824 0.66929,5.95569 0.4349,1.80824 0.58689,3.66047 0.68064,5.51224 0.0767,2.00563 0.0723,4.0132 0.073,6.01995 0.0183,1.96825 0.1971,3.90461 -0.72264,5.69843 -5.04124,5.03838 -13.2196,5.78718 -20.15937,5.87162 -2.3347,0.0111 -4.6694,-0.0118 -7.00407,-0.0234 -2.04648,-0.009 -4.09299,-0.0109 -6.13949,-0.012 -1.75798,0.0109 -3.51656,-0.0238 -5.27425,0.0186 -0.0393,0.004 -0.15407,0.0278 -0.11807,0.0115 14.29474,-6.49406 9.65036,-6.43172 17.59806,-6.4176 2.01173,0.003 4.02346,0.002 6.03519,0.002 2.00217,-0.0752 3.92397,-0.0492 5.87031,0.41551 1.89767,0.32333 3.78247,0.57261 5.67102,0.94936 2.23234,0.34112 4.44765,0.5449 6.65407,1.02378 1.96616,0.17662 3.80904,0.74757 5.71232,1.21078 1.63578,0.73058 3.15203,1.68265 4.7648,2.45862 1.62437,1.07338 3.26812,2.12996 5.00893,3.00645 1.4575,1.03708 2.92426,1.98938 4.46519,2.89097 1.91331,1.11251 3.83299,2.24348 5.88345,3.12643 1.91392,0.58558 3.80566,1.21568 5.70609,1.84856 0.13626,-0.04 0.30031,-0.0285 0.40877,-0.12013 0.0799,-0.0675 0.18767,-0.33661 0.0893,-0.30091 -0.58166,0.2112 -11.07749,7.57025 -15.37458,4.92391 -0.88253,-0.40965 -1.60426,-1.00158 -2.51625,-1.37115 0,0 13.87953,-5.78125 13.87953,-5.78125 l 0,0 c 0.85772,0.47851 1.67785,1.01773 2.56382,1.44597 6.83735,3.41175 -7.72264,10.15564 -12.86368,7.1659 -1.91081,-0.64474 -3.82707,-1.288 -5.6998,-2.03268 -2.03293,-1.00943 -4.01147,-2.10476 -5.98077,-3.23088 -1.52942,-0.87224 -2.88325,-1.99739 -4.42426,-2.85365 -1.69056,-0.95261 -3.32833,-1.98946 -5.00141,-2.97083 -1.51134,-0.79436 -3.00939,-1.67397 -4.65584,-2.15705 -1.8621,-0.51058 -3.75463,-0.79399 -5.65088,-1.15213 -2.19984,-0.41845 -4.4451,-0.53187 -6.63659,-1.01083 -1.9005,-0.34534 -3.83079,-0.50051 -5.7155,-0.94026 -1.89406,-0.29159 -3.8165,-0.11261 -5.72635,-0.15974 -2.01514,10e-6 -4.03027,-1.8e-4 -6.0454,0.002 -6.85723,0.0119 -9.19435,1.2257 9.74817,-6.40661 1.73106,0.0461 3.46332,0.004 5.19472,0.0205 2.04486,0.003 4.08972,0.007 6.13454,0.0229 2.31713,0.0169 4.63486,0.0486 6.95175,-0.005 0.84625,-0.0334 1.72154,-0.0517 2.56412,-0.14976 0.39172,-0.0456 1.54113,-0.31458 1.16849,-0.18548 -21.30686,7.3819 -16.87585,5.13144 -11.78593,4.0533 1.58091,-0.99908 0.92357,-3.09805 1.02117,-4.70271 1.9e-4,-1.9831 0.006,-3.96685 -0.0599,-5.94913 -0.08,-1.7731 -0.20815,-3.54828 -0.62516,-5.2798 -0.41835,-1.99409 -0.39477,-4.00578 -0.64484,-6.02439 -0.41231,-2.55157 -1.17099,-5.00805 -1.78897,-7.51336 -0.11405,-2.19487 -0.26619,-4.39644 -0.79608,-6.53768 -0.32068,-1.96304 -0.16978,-3.9734 -0.50146,-5.94125 -0.30738,-2.12666 -0.76047,-4.23753 -0.6717,-6.39941 0,0 14.4613,-4.20139 14.4613,-4.20139 z"
       inkscape:connector-curvature="0" />
    <path
       style="fill:#000000;fill-opacity:1;fill-rule:nonzero;stroke:none"
       id="path3003"
       d="m 343.96162,755.43975 c 2.32109,0.47257 4.57469,1.17567 6.92899,1.52415 1.82246,0.59563 3.67143,1.03876 5.5049,1.58818 1.85548,0.25769 3.60421,0.83376 5.41434,1.27961 1.70084,0.15897 3.24336,0.85985 4.91834,1.16237 1.53352,0.3999 3.37288,0.71879 4.82339,1.35434 1.55084,0.67969 3.24084,0.79886 4.90849,0.89417 0.31541,0.011 0.63082,0.0221 0.94623,0.0331 0,0 -13.61152,6.31386 -13.61152,6.31386 l 0,0 c -0.32286,-0.0241 -0.64572,-0.0483 -0.96858,-0.0724 -1.74808,-0.19655 -3.45422,-0.54595 -5.08333,-1.23308 -1.58042,-0.40479 -3.12965,-0.92204 -4.7419,-1.18958 -1.64646,-0.42359 -3.26792,-0.91711 -4.9431,-1.22388 -1.79327,-0.51343 -3.62298,-0.82232 -5.41822,-1.32727 -1.78583,-0.53293 -3.60231,-0.97759 -5.40769,-1.43457 -2.33795,-0.45865 -4.61252,-1.20113 -6.98201,-1.49127 0,0 13.71167,-6.17774 13.71167,-6.17774 z"
       inkscape:connector-curvature="0"
       inkscape:export-xdpi="90"
       inkscape:export-ydpi="90" />
  </g>
</svg>
