<?xml version="1.0" encoding="UTF-8" standalone="no"?>
<!-- Created with Inkscape (http://www.inkscape.org/) -->
<svg id="svg6092" xmlns:rdf="http://www.w3.org/1999/02/22-rdf-syntax-ns#" xmlns="http://www.w3.org/2000/svg" height="442.6" width="1002" version="1.1" xmlns:cc="http://creativecommons.org/ns#" xmlns:dc="http://purl.org/dc/elements/1.1/">
 <defs id="defs6094"></defs>
 <metadata id="metadata6097">
  <rdf:RDF>
   <cc:Work rdf:about="">
    <dc:format>image/svg+xml</dc:format>
    <dc:type rdf:resource="http://purl.org/dc/dcmitype/StillImage"/>
    <dc:title/>
   </cc:Work>
  </rdf:RDF>
 </metadata>
 <g id="layer1" transform="translate(-0.2712087,-519.97073)">
  <rect id="rect3019" height="442.4" width="1000" y="520.1" x="1.281" fill="#72ffff"/>
  <path id="path6682" d="m76.46,761.2c-36.56,111.7,212,85.98,247.6,116.1,31.05,26.21,59.89,73.92,126.4,71.39,125.5-4.763,275.6-53.13,364.6-134.2,47.5-45.36,157.6-2.102,154.1-68.74" fill="#b8ffff"/>
  <path id="path6642" fill="#FFF" d="M458.2,931.7c111.3,1,278.4-57.2,353.9-129.4,75.6-72.1,230.9,16.2,119.9-113-111.5-129.1-875.1-8.8-856.6,78.1,18.52,86.87,196.9,61.57,254.4,84.21,25.44,13.11,17.05,79.15,128.4,80.11z"/>
  <path id="path6706" d="m960,377c0,5.523-14.39,10-32.14,10s-32.14-4.477-32.14-10,14.39-10,32.14-10,32.14,4.477,32.14,10z" transform="matrix(0.95852446,0,0,0.95852446,-97.618468,397.64603)" fill="#b8ffff"/>
  <flowRoot id="flowRoot6727" style="baseline-shift:super;letter-spacing:0px;word-spacing:0px;" font-weight="500" xml:space="preserve" font-size="65.00091553%" font-style="normal" font-stretch="normal" line-height="125%" font-variant="normal" font-family="Rekha" fill="#000000"><flowRegion id="flowRegion6729"><rect id="rect6731" style="baseline-shift:super;" height="144.3" width="581.4" y="308.4" x="267.1"/></flowRegion><flowPara id="flowPara6733"/></flowRoot>
  <g id="flowRoot3002" style="letter-spacing:0px;word-spacing:0px;" font-weight="bold" transform="matrix(1.2324736,0,0,1.2324736,-43.521332,394.51988)" font-stretch="normal" line-height="125%" font-size="72px" font-variant="normal" font-family="inner city" font-style="italic" fill="#000">
   <path id="path3802" d="m300.4,146.4c-0.5625,9.867-1.781,19.48-3.656,28.83-1.711,8.531-3.563,15.66-5.555,21.38l-10.09,3.375-0.1055-0.1406,0.0703-0.4219c6.867-16.55,11.38-30.19,13.54-40.92l0.457-2.25,1.195-7.453c2.437-1.594,3.82-2.391,4.148-2.391m1.406,0c7.148,4.242,16.3,8.367,27.46,12.38,4.758,1.594,10.08,3.141,15.96,4.641l-0.0703,0.2812c-1.172,4.781-2.016,7.172-2.531,7.172-2.274,0.00004-8.32,0.9375-18.14,2.812-3.75,0.9375-8.332,2.25-13.75,3.938h-0.1406c-0.1406-0.0234-1.148-2.695-3.023-8.016,0.0937-0.4687,3.644-1.125,10.65-1.969,5.93-0.5625,10.11-0.8437,12.55-0.8438h2.953l0.5273-0.5625c0.0937-0.4453-0.6915-0.7265-2.355-0.8438-7.031-1.406-13.65-3.234-19.86-5.484l-6.082-2.672-0.8086,0.5625-0.0703,0.2812c-0.4922,13.78-1.488,24.42-2.988,31.92l-2.637,10.41-0.1758,0.1406h-0.1406c-4.5-2.555-6.738-4.055-6.715-4.5,2.062-6.562,3.574-12.23,4.535-17.02l1.336-6.609c1.242-6.187,2.309-14.81,3.199-25.88l0.1758-0.1406h0.1406m4.57,12.23,10.3,4.078,7.488,1.969,3.621,0.8438-0.0703,0.4219c-3.141,0.00004-7.641,0.4219-13.5,1.266-5.742-1.289-8.555-2.227-8.438-2.812l0.2812-5.625,0.1758-0.1406h0.1406m-0.3164,11.39,0.2812,0c0.3515,0.2344,1.394,3,3.129,8.297-2.391,3.938-3.855,6.094-4.395,6.469-0.75-0.8906-0.9258-2.344-0.5273-4.359l0.9492-9,0.5625-1.406m36.21,1.828,0.1055,0.1406-0.0351,0.1406c-3.539,2.391-5.566,3.656-6.082,3.797-4.477,0.5625-9.422,1.594-14.84,3.094-3.82,1.242-8.566,2.93-14.24,5.062l-0.1055-0.1406,0.0351-0.1406c1.969-3.281,3.141-4.922,3.516-4.922,8.297-2.836,16.54-4.898,24.71-6.188l6.926-0.8438m-50.41,25.59,6.047,3.656c0.2812,0,0.4687,0.1875,0.5625,0.5625-0.0469,0.2344-1.313,0.7031-3.797,1.406l-5.273,1.828h-0.9844l-6.363-4.078,0.0703-0.2812,9.738-3.094"/>
   <path id="path3804" d="m357.8,151.5c4.148,1.453,6.223,2.344,6.223,2.672,0.9375,5.742,0.9492,16.01,0.0352,30.8-0.4219,5.789-1.055,10.8-1.898,15.05l0.0703,0.4219-0.6328,0.2812-8.648-3.094,1.547-6.469,0.3867-1.828c2.133-10.64,2.988-22.92,2.566-36.84l0.0352-0.8438,0.1758-0.1406h0.1406m-1.758,0.2812c0.3516,0.00006,0.5039,2.063,0.457,6.188,0.0703,11.91-0.7617,22.17-2.496,30.8l-0.9844,4.922c-0.375,1.875-0.6563,2.813-0.8438,2.812l0.1055,0.1406-0.0351,0.2812c-0.0938,0.375-3.281,1.547-9.562,3.516l-0.1406-0.1406h-0.1406c2.695-6.867,4.781-13.99,6.258-21.38l0.1055-0.5625c1.406-7.008,2.426-14.88,3.059-23.62l4.219-2.953m-4.254,46.69c5.602,1.805,8.66,2.93,9.176,3.375-1.125,0.5625-3.703,1.5-7.734,2.812-0.0469,0.1875-0.3047,0.2812-0.7734,0.2812l-9.176-3.375,0.1055-0.4219,8.402-2.672"/>
   <path id="path3806" d="m432.2,151.5,0.1055,0.1406c-5.789,13.48-10.01,26.84-12.66,40.08l-1.055,6.047-9.316,2.953-0.2109-0.4219,0.2812-0.7031,0.3516-1.688c0.9375-4.734,3.809-13.92,8.613-27.56l-0.1055-0.1406,0.5625-2.812-0.2461-0.2812c-1.945,3.117-4.957,6.445-9.035,9.984-3.328,2.719-6.27,4.078-8.824,4.078h-0.9844c-4.336,0.00002-7.875-4.078-10.62-12.23l-0.1055-0.1406-0.1406,0.5625-0.4922,1.828-0.7031,11.95c-0.8203,8.367-1.559,14.18-2.215,17.44l-0.1758,0.1406h-0.1406c-4.711-1.594-7.406-2.625-8.086-3.094l0.7031-2.812,1.125-5.766c2.273-11.37,3.234-23.65,2.883-36.84l0.0703-0.2812c0.0234-0.1874,0.1758-0.2812,0.457-0.2812l5.73,2.391,3.375,6.328c3.867,6.281,7.828,9.422,11.88,9.422h1.125c5.32,0.00004,12.27-5.203,20.85-15.61,0.7968-0.5624,3.129-1.453,6.996-2.672m-51.54,0.4219c0.3516,13.66-0.4922,25.57-2.531,35.72l-1.336,6.75c-0.4219,2.156-0.8672,3.234-1.336,3.234l-8.156,2.812h-0.1406v-0.1406c2.695-7.289,4.77-14.6,6.223-21.94,1.125-5.625,2.191-13.55,3.199-23.77l4.078-2.672m53.02,0,2.672,2.812c-2.742,8.531-4.758,15.98-6.047,22.36l-0.6328,3.234c-1.219,6.141-1.957,12.66-2.215,19.55l-0.0703,0.2812c-0.0235,0.1875-0.1758,0.2813-0.457,0.2812l-7.242-3.234,1.125-6.328,0.2109-1.125c2.297-11.39,6.363-23.95,12.2-37.69l0.1758-0.1406h0.2812m-16.77,19.12,0.1055,0.1406-0.0352,0.1406c-1.758,5.109-2.883,8.156-3.375,9.141-5.719,6.75-10.84,10.13-15.36,10.12h-0.1406c-4.031,0.00002-7.172-2.812-9.422-8.438l0.5274-9h0.1406c2.25,4.523,4.512,7.242,6.785,8.156,1.148,0.5625,2.133,0.8438,2.953,0.8438h2.109c1.383,0.00003,3.398-0.75,6.047-2.25,4.008-2.93,6.633-5.227,7.875-6.891,0.7265-0.9609,1.324-1.617,1.793-1.969m-41.34,27.42,0.4219,0,8.332,3.234,0,0.1406c-0.1641,0.2578-1.758,0.9141-4.781,1.969l-3.305,1.125-8.473-3.375,0.0352-0.1406,7.77-2.953m43.73,0,0.1406,0c4.125,1.547,6.398,2.578,6.82,3.094-5.531,1.969-8.895,3.094-10.09,3.375l-6.574-2.953,0.0352-0.1406,9.668-3.375"/>
   <path id="path3808" d="m451.6,146.4c-0.5625,9.867-1.781,19.48-3.656,28.83-1.711,8.531-3.563,15.66-5.555,21.38l-10.09,3.375-0.1055-0.1406,0.0703-0.4219c6.867-16.55,11.38-30.19,13.54-40.92l0.457-2.25,1.195-7.453c2.437-1.594,3.82-2.391,4.148-2.391m1.406,0c7.148,4.242,16.3,8.367,27.46,12.38,4.758,1.594,10.08,3.141,15.96,4.641l-0.0703,0.2812c-1.172,4.781-2.016,7.172-2.531,7.172-2.274,0.00004-8.32,0.9375-18.14,2.812-3.75,0.9375-8.332,2.25-13.75,3.938h-0.1406c-0.1407-0.0234-1.148-2.695-3.023-8.016,0.0937-0.4687,3.644-1.125,10.65-1.969,5.93-0.5625,10.11-0.8437,12.55-0.8438h2.953l0.5273-0.5625c0.0937-0.4453-0.6914-0.7265-2.355-0.8438-7.031-1.406-13.65-3.234-19.86-5.484l-6.082-2.672-0.8086,0.5625-0.0703,0.2812c-0.4922,13.78-1.488,24.42-2.988,31.92l-2.637,10.41-0.1758,0.1406h-0.1406c-4.5-2.555-6.738-4.055-6.715-4.5,2.062-6.562,3.574-12.23,4.535-17.02l1.336-6.609c1.242-6.187,2.309-14.81,3.199-25.88l0.1758-0.1406h0.1406m4.57,12.23,10.3,4.078,7.488,1.969,3.621,0.8438-0.0703,0.4219c-3.141,0.00004-7.641,0.4219-13.5,1.266-5.742-1.289-8.555-2.227-8.438-2.812l0.2812-5.625,0.1758-0.1406h0.1406m-0.3164,11.39,0.2812,0c0.3515,0.2344,1.395,3,3.129,8.297-2.391,3.938-3.856,6.094-4.395,6.469-0.75-0.8906-0.9258-2.344-0.5274-4.359l0.9492-9,0.5625-1.406m36.21,1.828,0.1055,0.1406-0.0352,0.1406c-3.539,2.391-5.566,3.656-6.082,3.797-4.477,0.5625-9.422,1.594-14.84,3.094-3.82,1.242-8.566,2.93-14.24,5.062l-0.1055-0.1406,0.0352-0.1406c1.969-3.281,3.141-4.922,3.516-4.922,8.297-2.836,16.54-4.898,24.71-6.188l6.926-0.8438m-50.41,25.59,6.047,3.656c0.2812,0,0.4687,0.1875,0.5625,0.5625-0.0469,0.2344-1.313,0.7031-3.797,1.406l-5.273,1.828h-0.9844l-6.363-4.078,0.0703-0.2812,9.738-3.094"/>
   <path id="path3810" d="m576.4,151.5,0.1055,0.1406c-5.789,13.48-10.01,26.84-12.66,40.08l-1.055,6.047-9.316,2.953-0.2109-0.4219,0.2812-0.7031,0.3516-1.688c0.9375-4.734,3.809-13.92,8.613-27.56l-0.1055-0.1406,0.5625-2.812-0.2461-0.2812c-1.945,3.117-4.957,6.445-9.035,9.984-3.328,2.719-6.27,4.078-8.824,4.078h-0.9844c-4.336,0.00002-7.875-4.078-10.62-12.23l-0.1055-0.1406-0.1406,0.5625-0.4922,1.828-0.7031,11.95c-0.8203,8.367-1.559,14.18-2.215,17.44l-0.1758,0.1406h-0.1406c-4.711-1.594-7.406-2.625-8.086-3.094l0.7031-2.812,1.125-5.766c2.273-11.37,3.234-23.65,2.883-36.84l0.0703-0.2812c0.0234-0.1874,0.1758-0.2812,0.457-0.2812l5.73,2.391,3.375,6.328c3.867,6.281,7.828,9.422,11.88,9.422h1.125c5.32,0.00004,12.27-5.203,20.85-15.61,0.7968-0.5624,3.129-1.453,6.996-2.672m-51.54,0.4219c0.3516,13.66-0.4922,25.57-2.531,35.72l-1.336,6.75c-0.4219,2.156-0.8672,3.234-1.336,3.234l-8.156,2.812h-0.1406v-0.1406c2.695-7.289,4.77-14.6,6.223-21.94,1.125-5.625,2.191-13.55,3.199-23.77l4.078-2.672m53.02,0,2.672,2.812c-2.742,8.531-4.758,15.98-6.047,22.36l-0.6328,3.234c-1.219,6.141-1.957,12.66-2.215,19.55l-0.0703,0.2812c-0.0235,0.1875-0.1758,0.2813-0.457,0.2812l-7.242-3.234,1.125-6.328,0.2109-1.125c2.297-11.39,6.363-23.95,12.2-37.69l0.1758-0.1406h0.2812m-16.77,19.12,0.1055,0.1406-0.0352,0.1406c-1.758,5.109-2.883,8.156-3.375,9.141-5.719,6.75-10.84,10.13-15.36,10.12h-0.1406c-4.031,0.00002-7.172-2.812-9.422-8.438l0.5274-9h0.1406c2.25,4.523,4.512,7.242,6.785,8.156,1.148,0.5625,2.133,0.8438,2.953,0.8438h2.109c1.383,0.00003,3.398-0.75,6.047-2.25,4.008-2.93,6.633-5.227,7.875-6.891,0.7265-0.9609,1.324-1.617,1.793-1.969m-41.34,27.42,0.4219,0,8.332,3.234,0,0.1406c-0.1641,0.2578-1.758,0.9141-4.781,1.969l-3.305,1.125-8.473-3.375,0.0352-0.1406,7.77-2.953m43.73,0,0.1406,0c4.125,1.547,6.398,2.578,6.82,3.094-5.531,1.969-8.895,3.094-10.09,3.375l-6.574-2.953,0.0352-0.1406,9.668-3.375"/>
   <path id="path3812" d="m636.2,150.7,0.1055,0.1406-0.0352,0.1406c-0.8438,4.289-0.668,9.773,0.5274,16.45,1.523,7.805,1.922,13.52,1.195,17.16-1.172,5.859-5.273,10.22-12.3,13.08-2.742,0.9375-5.695,1.406-8.859,1.406h-0.9844c-3.727,0.00001-9.387-0.7969-16.98-2.391l-2.637-0.1406h-1.406c-6.188,0.00001-11.27,1.078-15.26,3.234h-0.1406c-1.148-2.297-1.805-3.937-1.969-4.922,1.687-1.359,3.645-2.25,5.871-2.672,0.0703-0.3281,2.859-0.7031,8.367-1.125h4.922l13.75,0.8438c10.31,0.00001,15.98-2.578,17.02-7.734,0.375-1.828,0.2812-3.937-0.2812-6.328l-0.1055-0.1406h-0.1406c-3.797,2.063-8.59,4.031-14.38,5.906-4.289,1.125-7.406,1.688-9.352,1.688h-2.953c-3.844,0.00002-7.523-1.312-11.04-3.938-1.148-1.664-1.523-3.492-1.125-5.484l0.1055-0.5625c1.078-5.367,5.977-10.66,14.7-15.89l3.762-1.969,0.2461-1.125h-1.406l-4.887,0.4219-0.1055-0.1406,0.0352-0.1406c1.359-2.156,2.461-3.234,3.305-3.234,4.359-1.406,8.344-2.109,11.95-2.109h1.406l0.2461,0.2812-0.9141,4.5c-0.1172,0.1641-1.395,0.7266-3.832,1.688-6.844,3.75-10.92,8.859-12.23,15.33-1.008,5.063,0.5039,7.594,4.535,7.594,4.242,0.00003,11.54-2.484,21.9-7.453v-0.1406c-0.0469-3.422,0.2812-6.937,0.9844-10.55,0.7734-3.844,2.051-7.641,3.832-11.39l0.7383-0.1406,3.832-0.1406m-17.37,0.2812c1.687,1.875,2.519,2.906,2.496,3.094l-1.02,6.469h-0.2812l-2.637-3.797,1.125-5.484,0.3164-0.2812m18.56,0.7031c2.226,2.508,3.305,3.914,3.234,4.219,0.1171,3.141,0.7148,6.938,1.793,11.39,2.297,7.805,2.93,14.27,1.898,19.41-1.242,6.258-4.125,11.04-8.648,14.34-4.547,2.625-9.867,3.938-15.96,3.938-3.75,0-10.35-0.75-19.79-2.25l-4.043-0.1406c-5.25,0-9.398,0.7969-12.45,2.391h-0.1406l-3.375-4.219c3.539-2.156,8.484-3.234,14.84-3.234,2.883,0.00001,7.125,0.6094,12.73,1.828,2.812,0.4688,5.25,0.7031,7.312,0.7031h2.672c5.719,0,10.86-1.828,15.43-5.484,3.211-2.93,5.074-5.695,5.59-8.297l0.668-3.234c0.5624-2.883-0.0587-9.398-1.863-19.55-0.6797-5.016-0.7501-8.906-0.2109-11.67l0.1758-0.1406h0.1406m-21.09,5.625c0.5625,0.5391,1.324,1.664,2.285,3.375l-0.0352,0.1406c-7.055,3.867-11.05,8.18-11.99,12.94l-0.2812,1.406c-0.3282,1.641-0.4102,2.953-0.2461,3.938l-0.3516,0.4219c-3.75,0.00002-5.203-2.109-4.359-6.328,1.453-7.266,6.211-12.56,14.27-15.89h0.7031m-12.41,0.1406,0,0.1406c-0.0469,0.1407-1.172,0.8438-3.375,2.109h-0.2812c-0.2344-0.0937-0.5625-0.5624-0.9844-1.406v-0.1406c0.0703-0.2812,1.617-0.5156,4.641-0.7031m21.94,21.8,0.2812,0c0.375,0.00002,0.5038,1.5,0.3867,4.5-0.1172,0.5156-2.273,1.688-6.469,3.516-6.469,2.25-10.91,3.375-13.32,3.375h-0.2812l-9.598-0.5625h-1.969c-2.227,0.00002-4.113-2.062-5.66-6.188l-0.6328-1.125,0.1758-0.1406h0.1406c3.68,2.531,7.84,3.797,12.48,3.797,6.445,0.00002,14.6-2.391,24.47-7.172"/>
  </g>
  <path id="path3076" style="baseline-shift:baseline;block-progression:tb;color:#000000;direction:ltr;text-indent:0;text-align:start;enable-background:accumulate;text-transform:none;" fill="#a1e1ff" d="m293.9,767.6-33.15,16.07,6.771,4.796c-1.312,2.376-0.1144,0.7165-2.899,4.22,1.901,0.4629-10.24-0.1987-8.336,0.2604l-16.92,5.293c6.666-1.855,11.64-2.341,18.28-4.277,3.592,0.471,5.358,0.5172,7.808,0.7884l5.873-6.208c-1.656-2.131-2.134-2.113-5.652-4.316l29.46-14.47z"/>
  <path id="path3852" style="baseline-shift:baseline;block-progression:tb;color:#000000;direction:ltr;text-indent:0;text-align:start;enable-background:accumulate;text-transform:none;" fill="#a1e1ff" d="m377.6,766.7c-4.087,10.27-8.412,21.36-12.5,31.63,1.462-0.2505,3.94-1.68,5.402-1.931l-7.077,16.47c2.445-3.28,5.824-11.21,9.453-18.92-1.534,0.1948-3.421,1.42-4.951,1.694l11.02-27.89z"/>
  <path id="path3860" style="baseline-shift:baseline;block-progression:tb;color:#000000;direction:ltr;text-indent:0;text-align:start;enable-background:accumulate;text-transform:none;" fill="#a1e1ff" d="m419.4,770c0.9306,8.739,2.186,17.16,3.142,25.89,1.345-1.088,2.544-1.784,3.912-2.821-0.0868,3.876-0.0165,7.432-0.0961,11.31,2.129,0.4799,4.267,0.7924,6.399,1.167l-5.571-2.063c0.1053-4.238,0.2147-8.475,0.3187-12.71-1.464,1.075-2.689,1.572-4.141,2.676l-2.681-23.81z"/>
  <path id="path3866" style="baseline-shift:baseline;block-progression:tb;color:#000000;direction:ltr;text-indent:0;text-align:start;enable-background:accumulate;text-transform:none;" fill="#a1e1ff" d="m536.2,746.7c-1.586,1.829-3.139,3.692-4.703,5.542-3.904-1.315-7.786-2.704-11.7-3.974-1.175,2.335-2.357,4.667-3.536,7l-18.15,5.656,0.3802,1.224,18.28-6.042c1.042-1.996,2.3-4.869,3.396-7.036,3.853,1.311,7.703,2.474,11.56,3.781,1.633-1.928,3.206-3.656,4.833-5.589l4.969-1.328c-1.094-0.036-3.209,0.3599-5.323,0.7652z"/>
  <path id="path3872" style="baseline-shift:baseline;block-progression:tb;color:#000000;direction:ltr;text-indent:0;text-align:start;enable-background:accumulate;text-transform:none;" fill="#a1e1ff" d="m549.3,771.3c-3.959,3.15-7.717,6.601-12.26,9.749,3.382,1.226,5.999,2.403,9.392,3.597-7.81,1.555-6.813,0.9492-14.62,2.506,0.3308,2.478,0.6623,4.858,0.9935,7.336l-5.034-5.195c0.7827,0.9252,3.342,4.499,5.787,6.561-0.3744-3.064-0.501-4.849-0.9054-7.909,8.8-1.719,7.389-1.354,16.2-3.025-3.976-1.42-6.207-2.791-10.19-4.18l11.85-8.256-1.498-1.184z"/>
  <path id="path3878" style="baseline-shift:baseline;block-progression:tb;color:#000000;direction:ltr;text-indent:0;text-align:start;enable-background:accumulate;text-transform:none;" d="m479.8,768.6c-3.52,6.482-6.243,10.84-9.764,17.33-0.894,0.6972-6.86,4.386-5.773,4.399l2.323,7.723c-0.5624-4.176-1.103-7.08-1.421-7.848,0.9743-0.8335,4.396-2.796,5.626-3.492l9.745-17.31z" fill="#a1e1ff"/>
  <path id="path3880" style="baseline-shift:baseline;block-progression:tb;color:#000000;direction:ltr;text-indent:0;text-align:start;enable-background:accumulate;text-transform:none;" fill="#a1e1ff" d="m588.2,750c0.0908,2.201,0.0863,3.148-0.1776,5.616l1.912-0.272,0.286-4.924c2.654-0.7893,5.297-1.616,7.955-2.391-0.6272-1.182-1.254-2.364-1.882-3.545,1.171,0.1867,2.503,0.4167,3.599,0.3279l3.922-3.472-4.127,2.593c-2.576-0.3594-1.143-0.1707-5.111-0.6396,0.7349,1.385,1.47,2.769,2.205,4.154-2.86,0.8524-5.722,1.699-8.581,2.553z"/>
  <path id="path3010" style="baseline-shift:baseline;block-progression:tb;color:#000000;direction:ltr;text-indent:0;text-align:start;enable-background:accumulate;text-transform:none;" fill="#a1e1ff" d="m630.8,769.9-2.988,1.257,7.836,13.29-6.163,4.195c-3.038,0.5892-6.077,1.229-9.1,1.882,0.3591,2.138,0.7182,4.563,0.7182,6.558l-2.78,2.851c3.711-2.389,2.324-1.64,3.67-2.571,0.0335-1.737-0.3591-4.035-0.3591-5.839,2.711-0.5633,5.79-0.782,8.504-1.3,2.831-1.805,5.789-3.572,8.245-5.078-2.476-4.405-5.525-11.94-7.585-15.25z"/>
  <path id="path3016" style="baseline-shift:baseline;block-progression:tb;color:#000000;direction:ltr;text-indent:0;text-align:start;enable-background:accumulate;text-transform:none;" fill="#a1e1ff" d="m667.2,764.5-0.1198,0.0898-3.751,2.279,0.5092,1.353,3.752-2.461,4.401-0.2421,0.121-1.019-4.793,0-0.1198,0z"/>
  <path id="path3022" style="baseline-shift:baseline;block-progression:tb;color:#000000;direction:ltr;text-indent:0;text-align:start;enable-background:accumulate;text-transform:none;" fill="#a2e1ff" d="m718.9,760.2-1.638,2.38,8.237,11.58c-1.695,5.084-2.715,9.793-4.409,14.88,3.546-1.075,7.077-2.198,10.61-3.303l5.049,0.1068c1.27,2.195,1.667,7.862,3.226,10.54-0.8358-3.734-1.615-7.482-2.486-11.21-2.084-0.2016-4.149,0.006-5.938-0.2183-2.869,0.9068-5.665,1.207-8.535,2.109,1.522-4.522,2.89-8.926,4.452-13.43-2.866-4.472-5.717-8.955-8.573-13.43z"/>
  <g id="flowRoot2997" style="letter-spacing:0px;word-spacing:0px;" font-weight="bold" transform="matrix(2.2774407,0,0,2.2774407,-448.78153,-155.51376)" font-stretch="normal" line-height="125%" font-size="72px" font-variant="normal" font-family="Mathematics Boredom" font-style="italic" fill="#000">
   <path id="path3793" d="m335.4,362.9c-1.711,8.555-3.387,15.59-5.027,21.09h0.4219l-0.5273,0.457-3.27,16.42,0.0351,1.863-0.7734,1.898,2.461-0.4922,11.14,1.406c0.8203-1.406,1.5-3.434,2.039-6.082l0.3867-1.863,0.7734-9.844,0.457-0.4922h0.3867c1.594,3.75,2.801,5.625,3.621,5.625l4.605-3.27h0.8086l-0.0703,2.355-0.3,1.8c-0.6797,3.422-1.09,7.488-1.23,12.2l7.945-0.4922h3.938l3.867-19.2-0.8086-1.898,1.266-0.457c0.8906-4.453,2.379-9.914,4.465-16.38,0.3046-2.812,0.1874-4.219-0.3516-4.219h-9.844c-1.922,1.008-3.668,3.188-5.238,6.539-0.8203,0.00004-1.863,1.254-3.129,3.762l-4.324,3.762c-0.7735,0.00003-2.168-4.852-4.184-14.55l-2.848,0.4922h-2.004l-4.605-0.4922m10.79,32.8-2.812,12.52,6.293-2.18,1.125-11.74-1.195,0c-1.289,0.9375-2.426,1.406-3.41,1.406m20.5,0-0.3516,1.898,0.8086,0,0.3516-1.898-0.8086,0m1.195-2.742c0.2343,0.00001,0.3632,0.293,0.3867,0.8789,0.0468,0.586-0.0118,1.301-0.1758,2.145-0.1641,0.8203-0.3868,1.535-0.668,2.145-0.2579,0.5859-0.504,0.8789-0.7383,0.8789-0.2344,0.00001-0.375-0.293-0.4219-0.8789-0.0235-0.6094,0.0468-1.324,0.2109-2.145,0.164-0.8437,0.375-1.559,0.6328-2.145,0.2812-0.5859,0.539-0.8789,0.7734-0.8789m-23.1-37.55,7.312,0.9492,0.3867,0,3.867,10.3,0.3867,0,2.953-2.812,0.0703-0.457-0.3164-0.4922,0.1055-0.457,11.99-6.574c6.914,0.9376,10.31,1.723,10.2,2.355-0.4454,2.18-0.4688,3.586-0.0703,4.219-1.031,1.148-1.652,2.238-1.863,3.27l-4.254,17.33,0.1055,1.406-0.7383,1.898-0.0352,6.082-0.9844,0.9492-1.23,6.082,0.2812,0.457c-0.1172,0.586-1.606,2.156-4.465,4.711l-0.1055,0.457c-0.1407,0.7031,0.4218,1.172,1.688,1.406-0.1172,0.5625-1.395,1.031-3.832,1.406l-7.383-0.457h-1.969l-5.238,0.457,5.273-0.457h-17.79l-2.074,0.457-2.285-0.457h-4.711l-2.215-0.9492-2.461,0.457-1.863-0.457,0.1055-0.457c1.055,0,1.641-0.3164,1.758-0.9492l-0.3516-2.355,8.895-38.43-0.2109-2.812h0.3867c5.297-4.055,8.859-6.082,10.69-6.082"/>
   <path id="path3795" d="m414.8,357.8c-0.1172,0.586,0.1992,0.879,0.9492,0.8789l1.195-0.457c-0.0938,0.5157,0.457,0.961,1.652,1.336-0.5391,2.625-0.1055,12.28,1.301,28.97,0.7734,1.172,0.9257,2.93,0.457,5.273h-0.3867c0.3984,1.734,0.4921,3.773,0.2812,6.117l-0.4922,0.457-0.0703,0.4219,0.1055,1.336c-1.805,0.5156-3.234,1.395-4.289,2.637h1.125l-0.4219,0.4219-4.219,2.215h-0.3867l0.1758-0.8789h-1.863l-0.1758,0.8789h-0.3867l-0.0703-1.336-12.13,0.457-0.1758,0.8789h-1.125c0.4218-2.086,0.2226-5.461-0.5977-10.12h-0.3516c-2.977,6.656-4.664,10.03-5.062,10.12l0.3516-1.758c-0.6094,0-1.102,0.5859-1.477,1.758l-1.547,0.4219-2.566-0.4219h-10.12c0.3047-1.477,0.1992-2.215-0.3164-2.215l-0.5625-0.8789,0.0703-0.4219h0.7383l0.3164,0.4219h0.3867l9.668-20.18c2.156-3.305,5.449-9.738,9.879-19.3,3.422-2.25,7.582-4.301,12.48-6.152l0.4219-0.457,1.441,0.457,5.801-0.8789m-28.51,28.09,0.2812,0.4219c-1.102,0.1172-4.301,6.117-9.598,18l9.035,1.758,6.047-9.668-0.2812-0.4219,0.1758-0.8789,1.582-0.4219,1.406,0.4219,1.617-0.4219c0.375,6.141,0.8789,9.211,1.512,9.211h0.7383l-0.0703,0.4219-0.4922,0.457-0.0703,0.4219,0.2812,0.457h2.637l0.6328-1.336,8.859,0.8789,0.7-0.4c-0.961-3.773-1.383-11.67-1.266-23.7-0.3047-3.328-0.1758-8.309,0.3867-14.94h-12.38c-2.273,2.531-5.543,8.238-9.809,17.12-0.5156,0.0938-1.066,0.9727-1.652,2.637m8.754-19.3-0.2812,1.301,0.9141-0.8789,0.1055-0.4219-0.7383,0m5.449,8.332c1.828,2.156,2.402,4.934,1.723,8.332l-0.1758,2.637,0.5976,0.8789-0.9492,0.8789-1.793-0.457-5.309,0.457c-0.9141-0.4453-1.336-0.8906-1.266-1.336l4.113-9.211-0.3867-1.758,0.4219-0.4219h3.023m-0.3516,3.516c-1.055,1.523-1.781,3.27-2.18,5.238h3.023c0.0468-3.492-0.2344-5.238-0.8438-5.238m11.57,21.06,0.3516,0,1.406-1.336-0.3516,0-1.406,1.336m-21.16,4.395-0.0703,0.4219,0.9492-0.8789,0.0703-0.4219-0.9492,0.8789m27.04,0,0.7383,0-0.9141,0.8789-0.7734,0,0.9492-0.8789m-40.89,1.758-0.0703,0.4219,2.25,0,0.0703-0.4219-2.25,0"/>
   <path id="path3797" d="m451.5,354.6c15.75,0.8672,23.46,2.133,23.13,3.797-0.7266,0.00005-1.195,0.4805-1.406,1.441l1.336,4.289-2.883,7.137c-3.305,3.797-7.664,5.695-13.08,5.695l-1.969,0.9492c0.2109,3.211-0.0118,9.082-0.668,17.61,0.3281,0.00002,0.4101,1.43,0.2461,4.289-0.1641,0.7734-2.227,2.672-6.188,5.695l-0.2109,0.9492,0.2461,0.4922-0.0703,0.457-0.457,0.4922h-0.3867l-2.777-0.4922-4.078,0.4922h-4.359l-0.2461-0.4922h-0.3516l0.4219-0.457,0.1055-0.4922,3.41-26.16,0.3867-1.898c0.164-0.8203-3.68-1.453-11.53-1.898l-0.3164-0.4922,0.2109-0.9492,12.48,0.9492,0.4219,1.441-0.457,2.355-2.953,25.7h0.3516l8.051-0.457,0.7734-3.832c0.8203-4.055,1.195-11.98,1.125-23.77,9.68-1.383,14.6-2.496,14.77-3.34,1.336-6.656,1.465-10.3,0.3867-10.93h-11.95l-19.09-0.4922-3.059,0.9492-1.02,10.48h-0.3516c-0.6094,0.00003-0.6094-3.644,0-10.93-0.7266,0.00005-1.02-0.3164-0.8789-0.9492,0.8203,0.00005,3.879-1.43,9.176-4.289,3.984-2.227,8.555-3.34,13.71-3.34m4.359,5.238-0.0703,0.457,4.008-1.898,0.0703-0.457-0.3516,0c-2.273,0.5157-3.492,1.148-3.656,1.898m12.8,4.746-0.1758,0.9492,1.09,0,1.617-0.9492,0.1055-0.457-1.09,0-1.547,0.457m-16.21,21.41,1.09,0,0.1758-0.9492-0.3516,0-0.9141,0.9492m6.3-28.8c0.9375,0.00005,1.699,0.1876,2.285,0.5625,0.6093,0.375,0.8554,0.8204,0.7383,1.336-0.0938,0.5391-0.5157,0.9961-1.266,1.371-0.75,0.375-1.594,0.5625-2.531,0.5625-0.961,0.00004-1.734-0.1875-2.32-0.5625s-0.8321-0.832-0.7383-1.371c0.1172-0.5156,0.539-0.9609,1.266-1.336,0.75-0.375,1.605-0.5624,2.566-0.5625m12.55,5.203c0.5156,0.00005,0.9023,0.2579,1.16,0.7734,0.2812,0.4922,0.3515,1.102,0.2109,1.828-0.1407,0.7266-0.4571,1.348-0.9492,1.863-0.4688,0.4922-0.961,0.7383-1.477,0.7383-0.5391,0.00004-0.9493-0.2461-1.23-0.7383-0.2579-0.5156-0.3164-1.137-0.1758-1.863,0.1406-0.7265,0.4453-1.336,0.9141-1.828,0.4921-0.5156,1.008-0.7734,1.547-0.7734m-17.79,22.18c0.4922,0.00003,0.8789,0.1875,1.16,0.5625,0.2812,0.375,0.3632,0.8321,0.2461,1.371-0.0938,0.5391-0.3633,0.9961-0.8086,1.371-0.4219,0.375-0.8789,0.5625-1.371,0.5625-0.4922,0.00002-0.8672-0.1875-1.125-0.5625s-0.3399-0.832-0.2461-1.371c0.1172-0.539,0.375-0.9961,0.7734-1.371,0.4218-0.375,0.8789-0.5625,1.371-0.5625"/>
   <path id="path3799" d="m498,355.4c2.086,0.6329,3.07,1.254,2.953,1.863l-1.688,4.184,0.3516,0.457h2.109c0.8906,0.00004,3.715-1.547,8.473-4.641l0.2812,0.457,4.324-0.457h1.652l0.5273-0.457c3.633,0.00005,5.109,1.699,4.43,5.098h0.4219l-0.2109,0.9141h-0.4219c-2.438,14.25-3.434,21.38-2.988,21.38l-0.8789,2.32-0.7734,14.41-0.5273,0.457h-0.8438l-0.3164-0.457h-0.4219l-4.605,4.184-1.617-0.457-0.1758,0.9141h2.109l-0.2812,1.406h-8.824l-8.965,0.9141c0.1172-0.6094-0.2461-0.9141-1.09-0.9141l-0.3164-0.4922,0.1055-0.457,1.09-1.371c-0.2813-1.406-0.1524-3.422,0.3867-6.047l0.8438-4.184-0.668-0.9492h-2.074l-1.441,9.316-0.1055,0.457c-0.3047,1.547-0.0469,2.32,0.7734,2.32l-0.1758,0.9141-5.203,0.9492-13.68-0.9492-0.2812-0.457h-0.4219l-1.793,0.457-0.668-0.9141c0.8438,0,3.258-7.125,7.242-21.38l0.0703-0.457c0.8672-0.6328,3.07-7.441,6.609-20.43l-0.9844-1.406,7.629-4.641c1.617-0.9374,3.105-1.406,4.465-1.406h3.797l1.793-0.457m-1.934,15.79,0.1406,1.406,0.4219,0c1.453,0.00003,2.391-0.4687,2.812-1.406l1.477-7.418-0.668-0.9492h-0.4219c-0.7735,0.00005-2.027,2.789-3.762,8.367m-13.08-7.875c-0.7031,0.6328-2.742,7.289-6.117,19.97l0.668,0.9141-0.1055,0.457c-1.688,0.00003-3.246,3.563-4.676,10.69-1.313,2.508-2.367,5.766-3.164,9.773l-0.1055,0.457c2.836-0.1875,4.289-0.4922,4.359-0.9141l0.3516,0.457h0.8438l9.105,0.457,1.02-5.098,1.16-7.91,0.5273-0.457h3.797l2.988-0.457c0.7734,0.00001,0.4453,4.488-0.9844,13.46l0.668,0.9141,10.23-0.9141,2.848,0.457,0.4922-0.457,0.0703-0.457c-0.3282-1.008,0.2812-7.512,1.828-19.51l-0.9844-1.406,0.5273-0.457h0.4219l1.16-7.91,1.406-6.961-0.457-4.184-6.363,0.457h-2.074l-1.09,3.27-1.582,7.875c-0.4922,2.484-3.68,3.727-9.562,3.727l-1.512-0.9141,2.285-9.316,0.9492-4.641-0.668-0.9141h-3.34l-4.922-0.457m26.23,30.16-0.1055,0.4922,0.8438,0,0.2812-1.406-1.02,0.9141m1.371-2.426c0.375,0.00002,0.6328,0.293,0.7734,0.8789,0.164,0.586,0.164,1.289,0,2.109-0.1641,0.8438-0.4454,1.559-0.8438,2.145-0.375,0.586-0.75,0.8789-1.125,0.8789-0.375,0.00001-0.6446-0.293-0.8086-0.8789-0.1407-0.5859-0.129-1.301,0.0351-2.145,0.164-0.8203,0.4336-1.523,0.8086-2.109,0.3984-0.5859,0.7851-0.8789,1.16-0.8789m-1.512,11.5c0.3046,0.00001,0.5273,0.1992,0.668,0.5977,0.164,0.3984,0.1875,0.8789,0.0703,1.441-0.1172,0.5859-0.3282,1.078-0.6328,1.477-0.3047,0.3984-0.6094,0.5977-0.9141,0.5976-0.3047,0.00001-0.5274-0.1992-0.668-0.5976-0.1172-0.3984-0.1172-0.8906,0-1.477,0.1172-0.5625,0.3164-1.043,0.5977-1.441,0.2812-0.3984,0.5742-0.5976,0.8789-0.5977"/>
  </g>
  <path id="path3101" stroke-linejoin="miter" d="m727.6,565.7c3.78,2.534,14.5,0.5207,21.67-5.642,2.25-1.934,4.138-6.059,1.899-9.178-3.625-5.05-10.75-1.191-12.72,0.9044-5.695,6.081-13.29,14.56-18.08,14.36-0.8885-0.0378-1.936,0.2048-3.013-2.295-1.111,6.907,15.06,7.232,18.93,12.16,4.714,5.996-2.918,4.413,2.045,0.4172,2.14-1.723,4.304-2.615,7.234-2.948,14.84-1.691,17.67-11.51,10.1-21.05-2.005-2.527-4.237-6.632-1.9-4.311,4.954,4.919,12.32,14.87,12.32,14.87s-6.633-8.188-11.13-16.52c-1.554-2.88-0.3192-4.129-2.419-6.4-2.3-2.487-6.57-0.6531-7.001,2.707-0.3667,2.853,2.286,5.88,4.372,5.08,0.704-0.2698-1.161-5.014-1.161-5.014l2.026,0.9209" stroke="#000" stroke-linecap="butt" stroke-miterlimit="4" stroke-dasharray="none" stroke-width="1.07200003" fill="none"/>
  <path id="path3788" stroke-linejoin="miter" d="m742.5,84.05,41.07-39.64c-0.119,66.9-28.28,158.2,0.7143,203.9" transform="translate(0.2712087,495.68502)" stroke="#000" stroke-linecap="butt" stroke-miterlimit="4" stroke-dasharray="none" stroke-width="1.10000002" fill="none"/>
  <path id="path3018" d="m819.6,246.5c0,5.523-11.03,10-24.64,10s-24.64-4.477-24.64-10,11.03-10,24.64-10,24.64,4.477,24.64,10z" transform="matrix(1.1086957,0,0,0.72774248,-89.657808,581.84818)" fill="#72ffff"/>
  <path id="path3790" stroke-linejoin="miter" d="m800.4,259.8c-0.0329,0.0121-0.0314-0.0651-0.0281-0.0765,0.0452-0.1537,0.2648-0.1145,0.3604-0.0455,0.3067,0.2216,0.1863,0.6814-0.0444,0.9071-0.5085,0.4974-1.331,0.2444-1.733-0.2551-0.7306-0.909-0.2872-2.226,0.5942-2.849,1.427-1.008,3.373-0.3137,4.264,1.067,1.332,2.065,0.3229,4.78-1.677,5.984-2.827,1.702-6.451,0.3142-8.016-2.428-2.12-3.714-0.287-8.392,3.323-10.37,4.728-2.586,10.61-0.2407,13.04,4.364,1.714,3.246,1.642,7.203,0.009,10.47" transform="matrix(1.2927398,0,0,1.2927398,-245.57531,417.64489)" stroke="#000" stroke-linecap="butt" stroke-width="1px" fill="none"/>
 </g>
</svg>
