<svg id="banniere" version="1.1"
     xmlns="http://www.w3.org/2000/svg" xmlns:xlink="http://www.w3.org/1999/xlink" xmlns:a="http://ns.adobe.com/AdobeSVGViewerExtensions/3.0/"
     width="100%">
  <defs>
    <linearGradient id="blancbleu" x1="20%" y1="50%" x2="100%" y2="50%">
      <stop offset="0%" style="stop-color:#ffffff; stop-opacity:1"/>
      <stop offset="100%" style="stop-color:#72ffff; stop-opacity:1"/>
    </linearGradient>
    <linearGradient id="bleublanc" x1="80%" y1="50%" x2="0%" y2="50%">
      <stop offset="0%" style="stop-color:#ffffff; stop-opacity:1"/>
      <stop offset="100%" style="stop-color:#72ffff; stop-opacity:1"/>
    </linearGradient>
      <style type="text/css">
	#banniere {
	height:300px;
	}
	@media screen and (max-width:768px) {
	.border{
	   display:none;
	}
	}	
	@media screen and (orientation:portrait) {
	 #banniere {
	height:200px;
	}   
	}

  </style>
  </defs>
  <rect width="100%" height="100%" x="0" fill="#72ffff"/>
  <svg  class="border"  preserveAspectRatio="xMinYMid meet" width="100%" height="100%"  viewBox="0 0 30 60">
    <rect  width="30px" height="60px" x="0" style=" fill:url(#blancbleu); "/>
  </svg>
  <svg  class="border" preserveAspectRatio="xMaxYMid meet" width="100%" height="100%"  viewBox="0 0 30 60">
    <rect  width="30px" height="60px" x="0" style=" fill:url(#bleublanc); "/>
  </svg>
  <svg  preserveAspectRatio="xMidYMid meet" width="100%" height="100%"  viewBox="0 0 900 430">
    <!-- <rect rx="20" width="900px" height="430px" x="0" fill="rgba(255,0,255,0.5)"/> -->
    <g id="layer1" transform="translate(-70,-530)">
      <path id="iceberg-bottom" fill="#b8ffff" d="m76.5,761c-36.6,112,212,86,248,116,31,26.2,59.9,73.9,126,71.4,126-4.76,276-53.1,365-134,47.5-45.4,158-2.1,154-68.7"/>
      <path id="iceberg-top" fill="#FFF" d="m458,932c111,1,278-57.2,354-129,75.6-72.1,231,16.2,120-113-112-129-875-8.8-857,78.1,18.5,86.9,197,61.6,254,84.2,25.4,13.1,17,79.2,128,80.1z"/>
      <path id="hole-top" transform="matrix(0.95852446,0,0,0.95852446,-97.618468,397.64603)" fill="#b8ffff" d="m960,377c0,5.52-14.4,10-32.1,10-17.8,0-32.1-4.48-32.1-10s14.4-10,32.1-10c17.8,0,32.1,4.48,32.1,10z"/>
      <g id="pimp-my-math" style="letter-spacing:0px;word-spacing:0px;" font-family="inner city" transform="matrix(1.2324736,0,0,1.2324736,-43.521332,394.51988)" font-stretch="normal" font-size="72px" font-variant="normal" font-style="italic" font-weight="bold" line-height="125%" fill="#000">
	<path id="p1-pimp" d="m300,146c-0.562,9.87-1.78,19.5-3.66,28.8-1.71,8.53-3.56,15.7-5.56,21.4l-10.1,3.38-0.106-0.141,0.0703-0.422c6.87-16.6,11.4-30.2,13.5-40.9l0.457-2.25,1.2-7.45c2.44-1.59,3.82-2.39,4.15-2.39m1.41,0c7.15,4.24,16.3,8.37,27.5,12.4,4.76,1.59,10.1,3.14,16,4.64l-0.0703,0.281c-1.17,4.78-2.02,7.17-2.53,7.17-2.27,0.00004-8.32,0.938-18.1,2.81-3.75,0.938-8.33,2.25-13.8,3.94h-0.141c-0.141-0.0234-1.15-2.7-3.02-8.02,0.0937-0.469,3.64-1.12,10.6-1.97,5.93-0.562,10.1-0.844,12.6-0.844h2.95l0.527-0.562c0.0937-0.445-0.692-0.726-2.36-0.844-7.03-1.41-13.6-3.23-19.9-5.48l-6.08-2.67-0.809,0.562-0.0703,0.281c-0.492,13.8-1.49,24.4-2.99,31.9l-2.64,10.4-0.176,0.141h-0.141c-4.5-2.56-6.74-4.06-6.72-4.5,2.06-6.56,3.57-12.2,4.54-17l1.34-6.61c1.24-6.19,2.31-14.8,3.2-25.9l0.176-0.141h0.141m4.57,12.2,10.3,4.08,7.49,1.97,3.62,0.844-0.0703,0.422c-3.14,0.00004-7.64,0.422-13.5,1.27-5.74-1.29-8.56-2.23-8.44-2.81l0.281-5.62,0.176-0.141h0.141m-0.316,11.4,0.281,0c0.352,0.234,1.39,3,3.13,8.3-2.39,3.94-3.86,6.09-4.4,6.47-0.75-0.891-0.926-2.34-0.527-4.36l0.949-9,0.562-1.41m36.2,1.83,0.106,0.141-0.0351,0.141c-3.54,2.39-5.57,3.66-6.08,3.8-4.48,0.562-9.42,1.59-14.8,3.09-3.82,1.24-8.57,2.93-14.2,5.06l-0.106-0.141,0.0351-0.141c1.97-3.28,3.14-4.92,3.52-4.92,8.3-2.84,16.5-4.9,24.7-6.19l6.93-0.844m-50.4,25.6,6.05,3.66c0.281,0,0.469,0.188,0.562,0.562-0.0469,0.234-1.31,0.703-3.8,1.41l-5.27,1.83h-0.984l-6.36-4.08,0.0703-0.281,9.74-3.09"/>
	<path id="i-pimp" d="m358,152c4.15,1.45,6.22,2.34,6.22,2.67,0.938,5.74,0.949,16,0.0352,30.8-0.422,5.79-1.06,10.8-1.9,15l0.0703,0.422-0.633,0.281-8.65-3.09,1.55-6.47,0.387-1.83c2.13-10.6,2.99-22.9,2.57-36.8l0.0352-0.844,0.176-0.141h0.141m-1.76,0.281c0.352,0.00006,0.504,2.06,0.457,6.19,0.0703,11.9-0.762,22.2-2.5,30.8l-0.984,4.92c-0.375,1.88-0.656,2.81-0.844,2.81l0.106,0.141-0.0351,0.281c-0.0938,0.375-3.28,1.55-9.56,3.52l-0.141-0.141h-0.141c2.7-6.87,4.78-14,6.26-21.4l0.106-0.562c1.41-7.01,2.43-14.9,3.06-23.6l4.22-2.95m-4.25,46.7c5.6,1.8,8.66,2.93,9.18,3.38-1.12,0.562-3.7,1.5-7.73,2.81-0.0469,0.188-0.305,0.281-0.773,0.281l-9.18-3.38,0.106-0.422,8.4-2.67"/>
	<path id="m-pimp" d="m432,152,0.106,0.141c-5.79,13.5-10,26.8-12.7,40.1l-1.06,6.05-9.32,2.95-0.211-0.422,0.281-0.703,0.352-1.69c0.938-4.73,3.81-13.9,8.61-27.6l-0.106-0.141,0.562-2.81-0.246-0.281c-1.94,3.12-4.96,6.44-9.04,9.98-3.33,2.72-6.27,4.08-8.82,4.08h-0.984c-4.34,0.00002-7.88-4.08-10.6-12.2l-0.106-0.141-0.141,0.562-0.492,1.83-0.703,12c-0.82,8.37-1.56,14.2-2.22,17.4l-0.176,0.141h-0.141c-4.71-1.59-7.41-2.62-8.09-3.09l0.703-2.81,1.12-5.77c2.27-11.4,3.23-23.6,2.88-36.8l0.0703-0.281c0.0234-0.187,0.176-0.281,0.457-0.281l5.73,2.39,3.38,6.33c3.87,6.28,7.83,9.42,11.9,9.42h1.12c5.32,0.00004,12.3-5.2,20.8-15.6,0.797-0.562,3.13-1.45,7-2.67m-51.5,0.422c0.352,13.7-0.492,25.6-2.53,35.7l-1.34,6.75c-0.422,2.16-0.867,3.23-1.34,3.23l-8.16,2.81h-0.141v-0.141c2.7-7.29,4.77-14.6,6.22-21.9,1.12-5.62,2.19-13.6,3.2-23.8l4.08-2.67m53,0,2.67,2.81c-2.74,8.53-4.76,16-6.05,22.4l-0.633,3.23c-1.22,6.14-1.96,12.7-2.22,19.6l-0.0703,0.281c-0.0235,0.188-0.176,0.281-0.457,0.281l-7.24-3.23,1.12-6.33,0.211-1.12c2.3-11.4,6.36-24,12.2-37.7l0.176-0.141h0.281m-16.8,19.1,0.106,0.141-0.0352,0.141c-1.76,5.11-2.88,8.16-3.38,9.14-5.72,6.75-10.8,10.1-15.4,10.1h-0.141c-4.03,0.00002-7.17-2.81-9.42-8.44l0.527-9h0.141c2.25,4.52,4.51,7.24,6.78,8.16,1.15,0.562,2.13,0.844,2.95,0.844h2.11c1.38,0.00003,3.4-0.75,6.05-2.25,4.01-2.93,6.63-5.23,7.88-6.89,0.726-0.961,1.32-1.62,1.79-1.97m-41.3,27.4,0.422,0,8.33,3.23,0,0.141c-0.164,0.258-1.76,0.914-4.78,1.97l-3.3,1.12-8.47-3.38,0.0352-0.141,7.77-2.95m43.7,0,0.141,0c4.12,1.55,6.4,2.58,6.82,3.09-5.53,1.97-8.9,3.09-10.1,3.38l-6.57-2.95,0.0352-0.141,9.67-3.38"/>
	<path id="p-pimp" d="m452,146c-0.562,9.87-1.78,19.5-3.66,28.8-1.71,8.53-3.56,15.7-5.56,21.4l-10.1,3.38-0.106-0.141,0.0703-0.422c6.87-16.6,11.4-30.2,13.5-40.9l0.457-2.25,1.2-7.45c2.44-1.59,3.82-2.39,4.15-2.39m1.41,0c7.15,4.24,16.3,8.37,27.5,12.4,4.76,1.59,10.1,3.14,16,4.64l-0.0703,0.281c-1.17,4.78-2.02,7.17-2.53,7.17-2.27,0.00004-8.32,0.938-18.1,2.81-3.75,0.938-8.33,2.25-13.8,3.94h-0.141c-0.141-0.0234-1.15-2.7-3.02-8.02,0.0937-0.469,3.64-1.12,10.6-1.97,5.93-0.562,10.1-0.844,12.6-0.844h2.95l0.527-0.562c0.0937-0.445-0.691-0.726-2.36-0.844-7.03-1.41-13.6-3.23-19.9-5.48l-6.08-2.67-0.809,0.562-0.0703,0.281c-0.492,13.8-1.49,24.4-2.99,31.9l-2.64,10.4-0.176,0.141h-0.141c-4.5-2.56-6.74-4.06-6.72-4.5,2.06-6.56,3.57-12.2,4.54-17l1.34-6.61c1.24-6.19,2.31-14.8,3.2-25.9l0.176-0.141h0.141m4.57,12.2,10.3,4.08,7.49,1.97,3.62,0.844-0.0703,0.422c-3.14,0.00004-7.64,0.422-13.5,1.27-5.74-1.29-8.56-2.23-8.44-2.81l0.281-5.62,0.176-0.141h0.141m-0.316,11.4,0.281,0c0.352,0.234,1.4,3,3.13,8.3-2.39,3.94-3.86,6.09-4.4,6.47-0.75-0.891-0.926-2.34-0.527-4.36l0.949-9,0.562-1.41m36.2,1.83,0.106,0.141-0.0352,0.141c-3.54,2.39-5.57,3.66-6.08,3.8-4.48,0.562-9.42,1.59-14.8,3.09-3.82,1.24-8.57,2.93-14.2,5.06l-0.106-0.141,0.0352-0.141c1.97-3.28,3.14-4.92,3.52-4.92,8.3-2.84,16.5-4.9,24.7-6.19l6.93-0.844m-50.4,25.6,6.05,3.66c0.281,0,0.469,0.188,0.562,0.562-0.0469,0.234-1.31,0.703-3.8,1.41l-5.27,1.83h-0.984l-6.36-4.08,0.0703-0.281,9.74-3.09"/>
	<path id="m-my" d="m576,152,0.106,0.141c-5.79,13.5-10,26.8-12.7,40.1l-1.06,6.05-9.32,2.95-0.211-0.422,0.281-0.703,0.352-1.69c0.938-4.73,3.81-13.9,8.61-27.6l-0.106-0.141,0.562-2.81-0.246-0.281c-1.94,3.12-4.96,6.44-9.04,9.98-3.33,2.72-6.27,4.08-8.82,4.08h-0.984c-4.34,0.00002-7.88-4.08-10.6-12.2l-0.106-0.141-0.141,0.562-0.492,1.83-0.703,12c-0.82,8.37-1.56,14.2-2.22,17.4l-0.176,0.141h-0.141c-4.71-1.59-7.41-2.62-8.09-3.09l0.703-2.81,1.12-5.77c2.27-11.4,3.23-23.6,2.88-36.8l0.0703-0.281c0.0234-0.187,0.176-0.281,0.457-0.281l5.73,2.39,3.38,6.33c3.87,6.28,7.83,9.42,11.9,9.42h1.12c5.32,0.00004,12.3-5.2,20.8-15.6,0.797-0.562,3.13-1.45,7-2.67m-51.5,0.422c0.352,13.7-0.492,25.6-2.53,35.7l-1.34,6.75c-0.422,2.16-0.867,3.23-1.34,3.23l-8.16,2.81h-0.141v-0.141c2.7-7.29,4.77-14.6,6.22-21.9,1.12-5.62,2.19-13.6,3.2-23.8l4.08-2.67m53,0,2.67,2.81c-2.74,8.53-4.76,16-6.05,22.4l-0.633,3.23c-1.22,6.14-1.96,12.7-2.22,19.6l-0.0703,0.281c-0.0235,0.188-0.176,0.281-0.457,0.281l-7.24-3.23,1.12-6.33,0.211-1.12c2.3-11.4,6.36-24,12.2-37.7l0.176-0.141h0.281m-16.8,19.1,0.106,0.141-0.0352,0.141c-1.76,5.11-2.88,8.16-3.38,9.14-5.72,6.75-10.8,10.1-15.4,10.1h-0.141c-4.03,0.00002-7.17-2.81-9.42-8.44l0.527-9h0.141c2.25,4.52,4.51,7.24,6.78,8.16,1.15,0.562,2.13,0.844,2.95,0.844h2.11c1.38,0.00003,3.4-0.75,6.05-2.25,4.01-2.93,6.63-5.23,7.88-6.89,0.726-0.961,1.32-1.62,1.79-1.97m-41.3,27.4,0.422,0,8.33,3.23,0,0.141c-0.164,0.258-1.76,0.914-4.78,1.97l-3.3,1.12-8.47-3.38,0.0352-0.141,7.77-2.95m43.7,0,0.141,0c4.12,1.55,6.4,2.58,6.82,3.09-5.53,1.97-8.9,3.09-10.1,3.38l-6.57-2.95,0.0352-0.141,9.67-3.38"/>
	<path id="y-my" d="m636,151,0.106,0.141-0.0352,0.141c-0.844,4.29-0.668,9.77,0.527,16.4,1.52,7.8,1.92,13.5,1.2,17.2-1.17,5.86-5.27,10.2-12.3,13.1-2.74,0.938-5.7,1.41-8.86,1.41h-0.984c-3.73,0.00001-9.39-0.797-17-2.39l-2.64-0.141h-1.41c-6.19,0.00001-11.3,1.08-15.3,3.23h-0.141c-1.15-2.3-1.8-3.94-1.97-4.92,1.69-1.36,3.64-2.25,5.87-2.67,0.0703-0.328,2.86-0.703,8.37-1.12h4.92l13.8,0.844c10.3,0.00001,16-2.58,17-7.73,0.375-1.83,0.281-3.94-0.281-6.33l-1,1h-0.141c-3.8,2.06-8.59,4.03-14.4,5.91-4.29,1.12-7.41,1.69-9.35,1.69h-2.95c-3.84,0.00002-7.52-1.31-11-3.94-1.15-1.66-1.52-3.49-1.12-5.48l0.106-0.562c1.08-5.37,5.98-10.7,14.7-15.9l3.76-1.97,0.246-1.12h-1.41l-4.89,0.422-0.106-0.141,0.0352-0.141c1.36-2.16,2.46-3.23,3.3-3.23,4.36-1.41,8.34-2.11,12-2.11h1.41l0.246,0.281-0.914,4.5c-0.117,0.164-1.4,0.727-3.83,1.69-6.84,3.75-10.9,8.86-12.2,15.3-1.01,5.06,0.504,7.59,4.54,7.59,4.24,0.00003,11.5-2.48,21.9-7.45v-0.141c-0.0469-3.42,0.281-6.94,0.984-10.6,0.773-3.84,2.05-7.64,3.83-11.4l0.738-0.141,3.83-0.141m-17.4,0.281c1.69,1.88,2.52,2.91,2.5,3.09l-1.02,6.47h-0.281l-2.64-3.8,1.12-5.48,0.316-0.281m18.6,0.703c2.23,2.51,3.3,3.91,3.23,4.22,0.117,3.14,0.715,6.94,1.79,11.4,2.3,7.8,2.93,14.3,1.9,19.4-1.24,6.26-4.12,11-8.65,14.3-4.55,2.62-9.87,3.94-16,3.94-3.75,0-10.4-0.75-19.8-2.25l-4.04-0.141c-5.25,0-9.4,0.797-12.4,2.39h-0.141l-3.38-4.22c3.54-2.16,8.48-3.23,14.8-3.23,2.88,0.00001,7.12,0.609,12.7,1.83,2.81,0.469,5.25,0.703,7.31,0.703h2.67c5.72,0,10.9-1.83,15.4-5.48,3.21-2.93,5.07-5.7,5.59-8.3l0.668-3.23c0.562-2.88-0.0587-9.4-1.86-19.6-0.68-5.02-0.75-8.91-0.211-11.7l0.176-0.141h0.141m-21.1,5.62c0.562,0.539,1.32,1.66,2.28,3.38l-0.0352,0.141c-7.06,3.87-11,8.18-12,12.9l-0.281,1.41c-0.328,1.64-0.41,2.95-0.246,3.94l-0.352,0.422c-3.75,0.00002-5.2-2.11-4.36-6.33,1.45-7.27,6.21-12.6,14.3-15.9h0.703m-12.4,0.141,0,0.141c-0.0469,0.141-1.17,0.844-3.38,2.11h-0.281c-0.234-0.0937-0.562-0.562-0.984-1.41v-0.141c0.0703-0.281,1.62-0.516,4.64-0.703m21.9,21.8,0.281,0c0.375,0.00002,0.504,1.5,0.387,4.5-0.117,0.516-2.27,1.69-6.47,3.52-6.47,2.25-10.9,3.38-13.3,3.38h-0.281l-9.6-0.562h-1.97c-2.23,0.00002-4.11-2.06-5.66-6.19l-0.633-1.12,0.176-0.141h0.141c3.68,2.53,7.84,3.8,12.5,3.8,6.44,0.00002,14.6-2.39,24.5-7.17"/>
      </g>
      <path id="fissure-1" style="direction:ltr;baseline-shift:baseline;block-progression:tb;text-indent:0;color:#000000;enable-background:accumulate;text-transform:none;text-align:start;" d="m294,768-33.2,16.1,6.77,4.8c-1.31,2.38-0.114,0.716-2.9,4.22,1.9,0.463-10.2-0.199-8.34,0.26l-16.9,5.29c6.67-1.86,11.6-2.34,18.3-4.28,3.59,0.471,5.36,0.517,7.81,0.788l5.87-6.21c-1.66-2.13-2.13-2.11-5.65-4.32l29.5-14.5z" fill="#a1e1ff"/>
      <path id="fissure-2" style="direction:ltr;enable-background:accumulate;baseline-shift:baseline;block-progression:tb;text-indent:0;color:#000000;text-transform:none;text-align:start;" fill="#a1e1ff" d="m374,771c-3.14,7.89-5.28,13.8-8.42,21.7,1.12-0.193,0.183-0.343,3.2,3.26l-2.83,8.63c1.88-4.18,1.87-2.93,5.37-11.2,0,0,0.927,1.09-1.91-2.02l8.47-21.4z"/>
      <path id="fissure-3" style="direction:ltr;enable-background:accumulate;baseline-shift:baseline;block-progression:tb;text-indent:0;color:#000000;text-transform:none;text-align:start;" fill="#a1e1ff" d="m415,770c1.23,8.74,2.89,17.2,4.16,25.9,1.78-1.09,3.37-1.78,5.18-2.82-0.115,3.88-0.0218,7.43-0.127,11.3,2.82,0.48,5.65,0.792,8.47,1.17l-7.37-2.06c0.139-4.24,0.284-8.48,0.422-12.7-1.94,1.08-3.56,1.57-5.48,2.68l-3.55-23.8z"/>
      <path id="fissure-4" style="direction:ltr;enable-background:accumulate;baseline-shift:baseline;block-progression:tb;text-indent:0;color:#000000;text-transform:none;text-align:start;" fill="#a1e1ff" d="m480,769c-4.18,7.7-7.42,12.9-11.6,20.6-1.06,0.829-8.15,5.21-6.86,5.23l2.76,9.18c-0.668-4.96-1.31-8.41-1.69-9.33,1.16-0.991,5.22-3.32,6.69-4.15l12-21z"/>
      <path id="fissure-5" style="direction:ltr;enable-background:accumulate;baseline-shift:baseline;block-progression:tb;text-indent:0;color:#000000;text-transform:none;text-align:start;" fill="#a1e1ff" d="m547,743c-1.86,2.14-3.67,4.32-5.5,6.49-4.57-1.54-9.11-3.17-13.7-4.65-1.38,2.73-2.76,5.46-4.14,8.19l-21.2,6.62,0.445,1.43,21.4-7.07c1.22-2.34,2.69-5.7,3.98-8.24,4.51,1.53,9.02,2.9,13.5,4.43,1.91-2.26,3.75-4.28,5.66-6.54l5.82-1.55c-1.28-0.0421-3.76,0.421-6.23,0.896z"/>
      <path id="fissure-6" style="direction:ltr;enable-background:accumulate;baseline-shift:baseline;block-progression:tb;text-indent:0;color:#000000;text-transform:none;text-align:start;" fill="#a1e1ff" d="m549,771c-5.08,4.05-9.91,8.48-15.7,12.5,4.34,1.57,7.7,3.09,12.1,4.62-10,2-8.75,1.22-18.8,3.22,0.425,3.18,0.851,6.24,1.28,9.42l-6.47-6.67c1.01,1.19,4.29,5.78,7.43,8.43-0.481-3.94-0.643-6.23-1.16-10.2,11.3-2.21,9.49-1.74,20.8-3.88-5.11-1.82-7.97-3.58-13.1-5.37l16-10-2-2z"/>
      <path id="fissure-7" style="direction:ltr;enable-background:accumulate;baseline-shift:baseline;block-progression:tb;text-indent:0;color:#000000;text-transform:none;text-align:start;" fill="#a1e1ff" d="m588,746c0.155,3.75,0.147,5.36-0.302,9.56l3.26-0.463,0.487-8.39c4.52-1.34,9.02-2.75,13.5-4.07-1.07-2.01-2.14-4.03-3.2-6.04,1.99,0.318,4.26,0.71,6.13,0.558l6.68-5.91-7.03,4.42c-4.39-0.612-1.95-0.291-8.7-1.09,1.25,2.36,2.5,4.72,3.75,7.07-4.87,1.45-9.74,2.89-14.6,4.35z"/>
      <path id="fissure-8" style="direction:ltr;enable-background:accumulate;baseline-shift:baseline;block-progression:tb;text-indent:0;color:#000000;text-transform:none;text-align:start;" fill="#a1e1ff" d="m634,769-4.5,1.89,11.8,20-9.29,6.32c-4.58,0.888-9.16,1.85-13.7,2.84,0.541,3.22,1.08,6.88,1.08,9.89l-4.19,4.3c5.59-3.6,3.5-2.47,5.53-3.88,0.0504-2.62-0.541-6.08-0.541-8.8,4.09-0.849,8.73-1.18,12.8-1.96,4.27-2.72,8.73-5.38,12.4-7.65-3.73-6.64-8.33-18-11.4-23z"/>
      <path id="fissure-9" style="direction:ltr;enable-background:accumulate;baseline-shift:baseline;block-progression:tb;text-indent:0;color:#000000;text-transform:none;text-align:start;" fill="#a2e1ff" d="m718,760-1.92,2.79,9.65,13.6c-1.99,5.96-3.18,11.5-5.17,17.4,4.16-1.26,8.29-2.58,12.4-3.87l5.92,0.125c1.49,2.57,1.95,9.21,3.78,12.4-0.979-4.38-1.89-8.77-2.91-13.1-2.44-0.236-4.86,0.007-6.96-0.256-3.36,1.06-6.64,1.41-10,2.47,1.78-5.3,3.39-10.5,5.22-15.7-3.36-5.24-6.7-10.5-10-15.7z"/>
      <g id="math" style="letter-spacing:0px;word-spacing:0px;" font-family="Mathematics Boredom" transform="matrix(2.2774407,0,0,2.2774407,-448.78153,-155.51376)" font-stretch="normal" font-size="72px" font-variant="normal" font-style="italic" font-weight="bold" line-height="125%" fill="#000">
	<path id="path3793" d="m335,363c-1.71,8.56-3.39,15.6-5.03,21.1h0.422l-0.527,0.457-3.27,16.4,0.0351,1.86-0.773,1.9,2.46-0.492,11.1,1.41c0.82-1.41,1.5-3.43,2.04-6.08l0.387-1.86,0.773-9.84,0.457-0.492h0.387c1.59,3.75,2.8,5.62,3.62,5.62l4.6-3.27h0.809l-0.0703,2.36-0.3,1.8c-0.68,3.42-1.09,7.49-1.23,12.2l7.94-0.492h3.94l3.87-19.2-0.809-1.9,1.27-0.457c0.891-4.45,2.38-9.91,4.46-16.4,0.305-2.81,0.187-4.22-0.352-4.22h-9.84c-1.92,1.01-3.67,3.19-5.24,6.54-0.82,0.00004-1.86,1.25-3.13,3.76l-4.32,3.76c-0.774,0.00003-2.17-4.85-4.18-14.6l-2.85,0.492h-2l-4.6-0.492m10.8,32.8-2.81,12.5,6.29-2.18,1.12-11.7-1.2,0c-1.29,0.938-2.43,1.41-3.41,1.41m20.5,0-0.352,1.9,0.809,0,0.352-1.9-0.809,0m1.2-2.74c0.234,0.00001,0.363,0.293,0.387,0.879,0.0468,0.586-0.0118,1.3-0.176,2.14-0.164,0.82-0.387,1.54-0.668,2.14-0.258,0.586-0.504,0.879-0.738,0.879-0.234,0.00001-0.375-0.293-0.422-0.879-0.0235-0.609,0.0468-1.32,0.211-2.14,0.164-0.844,0.375-1.56,0.633-2.14,0.281-0.586,0.539-0.879,0.773-0.879m-23.1-37.6,7.31,0.949,0.387,0,3.87,10.3,0.387,0,2.95-2.81,0.0703-0.457-0.316-0.492,0.106-0.457,12-6.57c6.91,0.938,10.3,1.72,10.2,2.36-0.445,2.18-0.469,3.59-0.0703,4.22-1.03,1.15-1.65,2.24-1.86,3.27l-4.25,17.3,0.106,1.41-0.738,1.9-0.0352,6.08-0.984,0.949-1.23,6.08,0.281,0.457c-0.117,0.586-1.61,2.16-4.46,4.71l-0.106,0.457c-0.141,0.703,0.422,1.17,1.69,1.41-0.117,0.562-1.4,1.03-3.83,1.41l-7.38-0.457h-1.97l-5.24,0.457,5.27-0.457h-17.8l-2.07,0.457-2.28-0.457h-4.71l-2.22-0.949-2.46,0.457-1.86-0.457,0.106-0.457c1.06,0,1.64-0.316,1.76-0.949l-0.352-2.36,8.9-38.4-0.211-2.81h0.387c5.3-4.06,8.86-6.08,10.7-6.08"/>
	<path id="path3795" d="m415,358c-0.117,0.586,0.199,0.879,0.949,0.879l1.2-0.457c-0.0938,0.516,0.457,0.961,1.65,1.34-0.539,2.62-0.106,12.3,1.3,29,0.773,1.17,0.926,2.93,0.457,5.27h-0.387c0.398,1.73,0.492,3.77,0.281,6.12l-0.492,0.457-0.0703,0.422,0.106,1.34c-1.8,0.516-3.23,1.4-4.29,2.64h1.12l-0.422,0.422-4.22,2.22h-0.387l0.176-0.879h-1.86l-0.176,0.879h-0.387l-0.0703-1.34-12.1,0.457-0.176,0.879h-1.12c0.422-2.09,0.223-5.46-0.598-10.1h-2.1c-2.98,6.66-4.66,10-5.06,10.1l0.352-1.76c-0.609,0-1.1,0.586-1.48,1.76l-1.55,0.422-2.57-0.422h-10.1c0.305-1.48,0.199-2.22-0.316-2.22l-0.562-0.879,0.0703-0.422h0.738l0.316,0.422h0.387l9.67-20.2c2.16-3.3,5.45-9.74,9.88-19.3,3.42-2.25,7.58-4.3,12.5-6.15l0.422-0.457,1.44,0.457,5.8-0.879m-28.5,28.1,0.281,0.422c-1.1,0.117-4.3,6.12-9.6,18l9.04,1.76,6.05-9.67-0.281-0.422,0.176-0.879,1.58-0.422,1.41,0.422,1.62-0.422c0.375,6.14,0.879,9.21,1.51,9.21h0.738l-0.0703,0.422-0.492,0.457-0.0703,0.422,0.281,0.457h2.64l0.633-1.34,8.86,0.879,0.7-0.4c-0.961-3.77-1.38-11.7-1.27-23.7-0.305-3.33-0.176-8.31,0.387-14.9h-12.4c-2.27,2.53-5.54,8.24-9.81,17.1-0.516,0.0938-1.07,0.973-1.65,2.64m8.75-19.3-0.281,1.3,0.914-0.879,0.106-0.422-0.738,0m5.45,8.33c1.83,2.16,2.4,4.93,1.72,8.33l-0.176,2.64,0.598,0.879-0.949,0.879-1.79-0.457-5.31,0.457c-0.914-0.445-1.34-0.891-1.27-1.34l4.11-9.21-0.387-1.76,0.422-0.422h3.02m-0.352,3.52c-1.06,1.52-1.78,3.27-2.18,5.24h3.02c0.0468-3.49-0.234-5.24-0.844-5.24m11.6,21.1,0.352,0,1.41-1.34-0.352,0-1.41,1.34m-21.2,4.4-0.0703,0.422,0.949-0.879,0.0703-0.422-0.949,0.879m27,0,0.738,0-0.914,0.879-0.773,0,0.949-0.879m-40.9,1.76-0.0703,0.422,2.25,0,0.0703-0.422-2.25,0"/>
	<path id="path3797" d="m452,355c15.8,0.867,23.5,2.13,23.1,3.8-0.727,0.00005-1.2,0.48-1.41,1.44l1.34,4.29-2.88,7.14c-3.3,3.8-7.66,5.7-13.1,5.7l-1.97,0.949c0.211,3.21-0.0118,9.08-0.668,17.6,0.328,0.00002,0.41,1.43,0.246,4.29-0.164,0.773-2.23,2.67-6.19,5.7l-0.211,0.949,0.246,0.492-0.0703,0.457-0.457,0.492h-0.387l-2.78-0.492-4.08,0.492h-4.36l-0.246-0.492h-0.352l0.422-0.457,0.106-0.492,3.41-26.2,0.387-1.9c0.164-0.82-3.68-1.45-11.5-1.9l-0.316-0.492,0.211-0.949,12.5,0.949,0.422,1.44-0.457,2.36-2.95,25.7h0.352l8.05-0.457,0.773-3.83c0.82-4.06,1.2-12,1.12-23.8,9.68-1.38,14.6-2.5,14.8-3.34,1.34-6.66,1.46-10.3,0.387-10.9h-12l-19.1-0.492-3.06,0.949-1.02,10.5h-0.352c-0.609,0.00003-0.609-3.64,0-10.9-0.727,0.00005-1.02-0.316-0.879-0.949,0.82,0.00005,3.88-1.43,9.18-4.29,3.98-2.23,8.56-3.34,13.7-3.34m4.36,5.24-0.0703,0.457,4.01-1.9,0.0703-0.457-0.352,0c-2.27,0.516-3.49,1.15-3.66,1.9m12.8,4.75-0.176,0.949,1.09,0,1.62-0.949,0.106-0.457-1.09,0-1.55,0.457m-16.2,21.4,1.09,0,0.176-0.949-0.352,0-0.914,0.949m6.3-28.8c0.938,0.00005,1.7,0.188,2.28,0.562,0.609,0.375,0.855,0.82,0.738,1.34-0.0938,0.539-0.516,0.996-1.27,1.37-0.75,0.375-1.59,0.562-2.53,0.562-0.961,0.00004-1.73-0.188-2.32-0.562-0.586-0.375-0.832-0.832-0.738-1.37,0.117-0.516,0.539-0.961,1.27-1.34,0.75-0.375,1.6-0.562,2.57-0.562m12.6,5.2c0.516,0.00005,0.902,0.258,1.16,0.773,0.281,0.492,0.352,1.1,0.211,1.83-0.141,0.727-0.457,1.35-0.949,1.86-0.469,0.492-0.961,0.738-1.48,0.738-0.539,0.00004-0.949-0.246-1.23-0.738-0.258-0.516-0.316-1.14-0.176-1.86,0.141-0.726,0.445-1.34,0.914-1.83,0.492-0.516,1.01-0.773,1.55-0.773m-17.8,22.2c0.492,0.00003,0.879,0.188,1.16,0.562,0.281,0.375,0.363,0.832,0.246,1.37-0.0938,0.539-0.363,0.996-0.809,1.37-0.422,0.375-0.879,0.562-1.37,0.562-0.492,0.00002-0.867-0.188-1.12-0.562-0.258-0.375-0.34-0.832-0.246-1.37,0.117-0.539,0.375-0.996,0.773-1.37,0.422-0.375,0.879-0.562,1.37-0.562"/>
	<path id="path3799" d="m498,355c2.09,0.633,3.07,1.25,2.95,1.86l-1.69,4.18,0.352,0.457h2.11c0.891,0.00004,3.72-1.55,8.47-4.64l0.281,0.457,4.32-0.457h1.65l0.527-0.457c3.63,0.00005,5.11,1.7,4.43,5.1h0.422l-0.211,0.914h-0.422c-2.44,14.2-3.43,21.4-2.99,21.4l-0.879,2.32-0.773,14.4-0.527,0.457h-0.844l-0.316-0.457h-0.422l-4.6,4.18-1.62-0.457-0.176,0.914h2.11l-0.281,1.41h-8.82l-8.96,0.914c0.117-0.609-0.246-0.914-1.09-0.914l-0.316-0.492,0.106-0.457,1.09-1.37c-0.281-1.41-0.152-3.42,0.387-6.05l0.844-4.18-0.668-0.949h-2.07l-1.44,9.32-0.106,0.457c-0.305,1.55-0.0469,2.32,0.773,2.32l-0.176,0.914-5.2,0.949-13.7-0.949-0.281-0.457h-0.422l-1.79,0.457-0.668-0.914c0.844,0,3.26-7.12,7.24-21.4l0.0703-0.457c0.867-0.633,3.07-7.44,6.61-20.4l-0.984-1.41,7.63-4.64c1.62-0.937,3.1-1.41,4.46-1.41h3.8l1.79-0.457m-1.93,15.8,0.141,1.41,0.422,0c1.45,0.00003,2.39-0.469,2.81-1.41l1.48-7.42-0.668-0.949h-0.422c-0.774,0.00005-2.03,2.79-3.76,8.37m-13.1-7.88c-0.703,0.633-2.74,7.29-6.12,20l0.668,0.914-0.106,0.457c-1.69,0.00003-3.25,3.56-4.68,10.7-1.31,2.51-2.37,5.77-3.16,9.77l-0.106,0.457c2.84-0.188,4.29-0.492,4.36-0.914l0.352,0.457h0.844l9.1,0.457,1.02-5.1,1.16-7.91,0.527-0.457h3.8l2.99-0.457c0.773,0.00001,0.445,4.49-0.984,13.5l0.668,0.914,10.2-0.914,2.85,0.457,0.492-0.457,0.0703-0.457c-0.328-1.01,0.281-7.51,1.83-19.5l-0.984-1.41,0.527-0.457h0.422l1.16-7.91,1.41-6.96-0.457-4.18-6.36,0.457h-2.07l-1.09,3.27-1.58,7.88c-0.492,2.48-3.68,3.73-9.56,3.73l-1.51-0.914,2.28-9.32,0.949-4.64-0.668-0.914h-3.34l-4.92-0.457m26.2,30.2-0.106,0.492,0.844,0,0.281-1.41-1.02,0.914m1.37-2.43c0.375,0.00002,0.633,0.293,0.773,0.879,0.164,0.586,0.164,1.29,0,2.11-0.164,0.844-0.445,1.56-0.844,2.14-0.375,0.586-0.75,0.879-1.12,0.879-0.375,0.00001-0.645-0.293-0.809-0.879-0.141-0.586-0.129-1.3,0.0351-2.14,0.164-0.82,0.434-1.52,0.809-2.11,0.398-0.586,0.785-0.879,1.16-0.879m-1.51,11.5c0.305,0.00001,0.527,0.199,0.668,0.598,0.164,0.398,0.188,0.879,0.0703,1.44-0.117,0.586-0.328,1.08-0.633,1.48-0.305,0.398-0.609,0.598-0.914,0.598-0.305,0.00001-0.527-0.199-0.668-0.598-0.117-0.398-0.117-0.891,0-1.48,0.117-0.562,0.316-1.04,0.598-1.44,0.281-0.398,0.574-0.598,0.879-0.598"/>
      </g>
      <path id="becasse" stroke-linejoin="miter" d="m728,566c3.78,2.53,14.5,0.521,21.7-5.64,2.25-1.93,4.14-6.06,1.9-9.18-3.62-5.05-10.8-1.19-12.7,0.904-5.7,6.08-13.3,14.6-18.1,14.4-0.888-0.0378-1.94,0.205-3.01-2.3-1.11,6.91,15.1,7.23,18.9,12.2,4.71,6-2.92,4.41,2.04,0.417,2.14-1.72,4.3-2.62,7.23-2.95,14.8-1.69,17.7-11.5,10.1-21-2-2.53-4.24-6.63-1.9-4.31,4.95,4.92,12.3,14.9,12.3,14.9s-6.63-8.19-11.1-16.5c-1.55-2.88-0.319-4.13-2.42-6.4-2.3-2.49-6.57-0.653-7,2.71-0.367,2.85,2.29,5.88,4.37,5.08,0.704-0.27-1.16-5.01-1.16-5.01l2.03,0.921" stroke="#000" stroke-linecap="butt" stroke-miterlimit="4" stroke-dasharray="none" stroke-width="1.07200003" fill="none"/>
      <path id="canne" stroke-linejoin="miter" d="m742,84,41.1-39.6c-0.119,66.9-28.3,158,0.714,204" transform="translate(0.2712087,495.68502)" stroke="#000" stroke-linecap="butt" stroke-miterlimit="4" stroke-dasharray="none" stroke-width="1.10000002" fill="none"/>
      <path id="hole-bottom" transform="matrix(1.1086957,0,0,0.72774248,-89.657808,581.84818)" fill="#72ffff" d="m820,246c0,5.52-11,10-24.6,10s-24.6-4.48-24.6-10,11-10,24.6-10,24.6,4.48,24.6,10z"/>
      <path id="escargot" stroke-linejoin="miter" d="m800,260c-0.0329,0.0121-0.0314-0.0651-0.0281-0.0765,0.0452-0.154,0.265-0.114,0.36-0.0455,0.307,0.222,0.186,0.681-0.0444,0.907-0.508,0.497-1.33,0.244-1.73-0.255-0.731-0.909-0.287-2.23,0.594-2.85,1.43-1.01,3.37-0.314,4.26,1.07,1.33,2.06,0.323,4.78-1.68,5.98-2.83,1.7-6.45,0.314-8.02-2.43-2.12-3.71-0.287-8.39,3.32-10.4,4.73-2.59,10.6-0.241,13,4.36,1.71,3.25,1.64,7.2,0.009,10.5" transform="matrix(1.2927398,0,0,1.2927398,-245.57531,417.64489)" stroke="#000" stroke-linecap="butt" stroke-width="1px" fill="none"/>
    </g>
  </svg>


</svg>
