<svg xmlns="http://www.w3.org/2000/svg" id="svg2" width="1200" height="600"><g id="layer1"><g id="g3836" transform="matrix(13.182 0 0 13.182 -952.578 -10507.742)" opacity="0"><animate id="animate3838" fill="freeze" attributeType="CSS" attributeName="opacity" from="0" to="1" dur="0.1s" begin="p3.end"/><animate id="p4" fill="freeze" attributeType="CSS" attributeName="opacity" from="1" to="0" dur="0.1s" begin="p3.end+1s"/><path id="path3841" d="M115.28 812.36c0 1.4-1.1 2.5-2.5 2.5s-2.5-1.1-2.5-2.5 1.1-2.5 2.5-2.5 2.5 1.1 2.5 2.5z" opacity=".98"/><path id="path3843" d="M125.28 822.36c0 1.4-1.1 2.5-2.5 2.5s-2.5-1.1-2.5-2.5 1.1-2.5 2.5-2.5 2.5 1.1 2.5 2.5z" opacity=".98"/><path id="path3845" d="M125.28 827.36c0 1.4-1.1 2.5-2.5 2.5s-2.5-1.1-2.5-2.5 1.1-2.5 2.5-2.5 2.5 1.1 2.5 2.5z" opacity=".98"/></g><g id="g3847" transform="matrix(13.182 0 0 13.182 -1146.667 -10474.786)" opacity="0"><animate id="animate3849" fill="freeze" attributeType="CSS" attributeName="opacity" from="0" to="1" dur="0.1s" begin="p2.end"/><animate id="p3" fill="freeze" attributeType="CSS" attributeName="opacity" from="1" to="0" dur="0.1s" begin="p2.end+1s"/><path id="path3852" d="M135 812.36c0 1.4-1.1 2.5-2.5 2.5s-2.5-1.1-2.5-2.5 1.1-2.5 2.5-2.5 2.5 1.1 2.5 2.5z" opacity=".98"/><path id="path3854" d="M135 827.36c0 1.4-1.1 2.5-2.5 2.5s-2.5-1.1-2.5-2.5 1.1-2.5 2.5-2.5 2.5 1.1 2.5 2.5z" opacity=".98"/><path id="path3856" d="M145 822.36c0 1.4-1.1 2.5-2.5 2.5s-2.5-1.1-2.5-2.5 1.1-2.5 2.5-2.5 2.5 1.1 2.5 2.5z" opacity=".98"/><path id="path3858" d="M145 827.36c0 1.4-1.1 2.5-2.5 2.5s-2.5-1.1-2.5-2.5 1.1-2.5 2.5-2.5 2.5 1.1 2.5 2.5z" opacity=".98"/><path id="path3860" d="M125 817.36c0 1.4-1.1 2.5-2.5 2.5s-2.5-1.1-2.5-2.5 1.1-2.5 2.5-2.5 2.5 1.1 2.5 2.5z" opacity=".98"/><path id="path3862" d="M130 807.36c0 1.4-1.1 2.5-2.5 2.5s-2.5-1.1-2.5-2.5 1.1-2.5 2.5-2.5 2.5 1.1 2.5 2.5z" opacity=".98"/></g><g id="g3864" transform="matrix(13.182 0 0 13.182 -751.195 -10474.786)" opacity="0"><animate id="animate3866" fill="freeze" attributeType="CSS" attributeName="opacity" from="0" to="1" dur="0.1s" begin="p1.end"/><animate id="p2" fill="freeze" attributeType="CSS" attributeName="opacity" from="1" to="0" dur="0.1s" begin="p1.end+1s"/><path id="path3869" d="M100 817.36c0 1.4-1.1 2.5-2.5 2.5s-2.5-1.1-2.5-2.5 1.1-2.5 2.5-2.5 2.5 1.1 2.5 2.5z" opacity=".98"/><path id="path3871" d="M105 817.36c0 1.4-1.1 2.5-2.5 2.5s-2.5-1.1-2.5-2.5 1.1-2.5 2.5-2.5 2.5 1.1 2.5 2.5z" opacity=".98"/><path id="path3873" d="M105 812.36c0 1.4-1.1 2.5-2.5 2.5s-2.5-1.1-2.5-2.5 1.1-2.5 2.5-2.5 2.5 1.1 2.5 2.5z" opacity=".98"/><path id="path3875" d="M105 822.36c0 1.4-1.1 2.5-2.5 2.5s-2.5-1.1-2.5-2.5 1.1-2.5 2.5-2.5 2.5 1.1 2.5 2.5z" opacity=".98"/><path id="path3877" d="M100 812.36c0 1.4-1.1 2.5-2.5 2.5s-2.5-1.1-2.5-2.5 1.1-2.5 2.5-2.5 2.5 1.1 2.5 2.5z" opacity=".98"/><path id="path3879" d="M110 822.36c0 1.4-1.1 2.5-2.5 2.5s-2.5-1.1-2.5-2.5 1.1-2.5 2.5-2.5 2.5 1.1 2.5 2.5z" opacity=".98"/><path id="path3881" d="M110 827.36c0 1.4-1.1 2.5-2.5 2.5s-2.5-1.1-2.5-2.5 1.1-2.5 2.5-2.5 2.5 1.1 2.5 2.5z" opacity=".98"/><path id="path3883" d="M115 822.36c0 1.4-1.1 2.5-2.5 2.5s-2.5-1.1-2.5-2.5 1.1-2.5 2.5-2.5 2.5 1.1 2.5 2.5z" opacity=".98"/><path id="path3885" d="M115 827.36c0 1.4-1.1 2.5-2.5 2.5s-2.5-1.1-2.5-2.5 1.1-2.5 2.5-2.5 2.5 1.1 2.5 2.5z" opacity=".98"/><path id="path3887" d="M95 817.36c0 1.4-1.1 2.5-2.5 2.5s-2.5-1.1-2.5-2.5 1.1-2.5 2.5-2.5 2.5 1.1 2.5 2.5z" opacity=".98"/><path id="path3889" d="M95 807.36c0 1.4-1.1 2.5-2.5 2.5s-2.5-1.1-2.5-2.5 1.1-2.5 2.5-2.5 2.5 1.1 2.5 2.5z" opacity=".98"/></g><g id="g3891" transform="matrix(13.182 0 0 13.182 -190.943 -9782.711)"><animate id="animate3893" fill="freeze" attributeType="CSS" attributeName="opacity" from="0" to="1" dur="0.1s" begin="p4.end+1s"/><animate id="p0" fill="freeze" attributeType="CSS" attributeName="opacity" from="1" to="0" dur="0.1s" begin="1s;p4.end +2s"/><path id="path3896" d="M55 752.36c0 1.4-1.1 2.5-2.5 2.5s-2.5-1.1-2.5-2.5 1.1-2.5 2.5-2.5 2.5 1.1 2.5 2.5z" opacity=".98"/><path id="path3898" d="M60 757.36c0 1.4-1.1 2.5-2.5 2.5s-2.5-1.1-2.5-2.5 1.1-2.5 2.5-2.5 2.5 1.1 2.5 2.5z" opacity=".98"/><path id="path3900" d="M60 762.36c0 1.4-1.1 2.5-2.5 2.5s-2.5-1.1-2.5-2.5 1.1-2.5 2.5-2.5 2.5 1.1 2.5 2.5z" opacity=".98"/><path id="path3902" d="M55 762.36c0 1.4-1.1 2.5-2.5 2.5s-2.5-1.1-2.5-2.5 1.1-2.5 2.5-2.5 2.5 1.1 2.5 2.5z" opacity=".98"/><path id="path3904" d="M50 762.36c0 1.4-1.1 2.5-2.5 2.5s-2.5-1.1-2.5-2.5 1.1-2.5 2.5-2.5 2.5 1.1 2.5 2.5z" opacity=".98"/><path id="path3906" d="M70 772.36c0 1.4-1.1 2.5-2.5 2.5s-2.5-1.1-2.5-2.5 1.1-2.5 2.5-2.5 2.5 1.1 2.5 2.5z" opacity=".98"/><path id="path3908" d="M70 777.36c0 1.4-1.1 2.5-2.5 2.5s-2.5-1.1-2.5-2.5 1.1-2.5 2.5-2.5 2.5 1.1 2.5 2.5z" opacity=".98"/><path id="path3910" d="M75 772.36c0 1.4-1.1 2.5-2.5 2.5s-2.5-1.1-2.5-2.5 1.1-2.5 2.5-2.5 2.5 1.1 2.5 2.5z" opacity=".98"/><path id="path3912" d="M75 777.36c0 1.4-1.1 2.5-2.5 2.5s-2.5-1.1-2.5-2.5 1.1-2.5 2.5-2.5 2.5 1.1 2.5 2.5z" opacity=".98"/></g><g id="g3914" transform="matrix(13.182 0 0 13.182 -718.239 -9815.667)" opacity="0"><animate id="animate3916" fill="freeze" attributeType="CSS" attributeName="opacity" from="0" to="1" dur="0.1s" begin="p0.end"/><animate id="p1" fill="freeze" attributeType="CSS" attributeName="opacity" from="1" to="0" dur="0.1s" begin="p0.end+1s"/><path id="path3919" d="M95 767.36c0 1.4-1.1 2.5-2.5 2.5s-2.5-1.1-2.5-2.5 1.1-2.5 2.5-2.5 2.5 1.1 2.5 2.5z" opacity=".98"/><path id="path3921" d="M100 762.36c0 1.4-1.1 2.5-2.5 2.5s-2.5-1.1-2.5-2.5 1.1-2.5 2.5-2.5 2.5 1.1 2.5 2.5z" opacity=".98"/><path id="path3923" d="M100 757.36c0 1.4-1.1 2.5-2.5 2.5s-2.5-1.1-2.5-2.5 1.1-2.5 2.5-2.5 2.5 1.1 2.5 2.5z" opacity=".98"/><path id="path3925" d="M100 767.36c0 1.4-1.1 2.5-2.5 2.5s-2.5-1.1-2.5-2.5 1.1-2.5 2.5-2.5 2.5 1.1 2.5 2.5z" opacity=".98"/><path id="path3927" d="M90 762.36c0 1.4-1.1 2.5-2.5 2.5s-2.5-1.1-2.5-2.5 1.1-2.5 2.5-2.5 2.5 1.1 2.5 2.5z" opacity=".98"/><path id="path3929" d="M110 772.36c0 1.4-1.1 2.5-2.5 2.5s-2.5-1.1-2.5-2.5 1.1-2.5 2.5-2.5 2.5 1.1 2.5 2.5z" opacity=".98"/><path id="path3931" d="M110 777.36c0 1.4-1.1 2.5-2.5 2.5s-2.5-1.1-2.5-2.5 1.1-2.5 2.5-2.5 2.5 1.1 2.5 2.5z" opacity=".98"/><path id="path3933" d="M115 772.36c0 1.4-1.1 2.5-2.5 2.5s-2.5-1.1-2.5-2.5 1.1-2.5 2.5-2.5 2.5 1.1 2.5 2.5z" opacity=".98"/><path id="path3935" d="M115 777.36c0 1.4-1.1 2.5-2.5 2.5s-2.5-1.1-2.5-2.5 1.1-2.5 2.5-2.5 2.5 1.1 2.5 2.5z" opacity=".98"/></g><g id="flowRoot5228" style="text-align:center;line-height:125%;-inkscape-font-specification:Lobster Two" font-size="100" letter-spacing="0" word-spacing="0" text-anchor="middle" font-family="Lobster Two"><path id="path5267" d="M58.53 85.6v64.1h10.8v-28.5h2.2c15.8 0 23.8-13.8 23.8-25 0-12-10-21.5-27.7-21.5-16.2 0-30.5 10.9-30.5 23.6 0 8.6 4.6 12.1 12 12.1-1-.9-4.2-3.7-4.2-11.9 0-13 9.4-20.2 21.2-20.2 17.3 0 19.8 10.9 19.8 19.4 0 9.7-4.8 20.3-16.6 20.4v-34l-10.8 1.5"/><path id="path5269" d="M100.08 99.7v50h10v-36.8c2.3-2.4 5.2-5 8.2-5 2.9 0 3.3 2.5 5.6 2.5 1.6 0 4.6-1.2 4.6-5.2 0-3.3-2.1-6-6.6-6-5.7 0-8.7 4.2-11.8 8.9v-8.4h-10"/><path id="path5271" d="M164.98 112.2c0-10.6-6.7-13-13.3-13-14.4 0-19.1 16.8-19.1 28 0 17.1 8.9 23.1 18.1 23.1 10.2 0 19.7-8.7 23.1-18.5h-3.2c-3.5 7.8-9.5 10.9-15.8 10.9-5.7 0-10.5-2.4-11.5-13 13.5-1.5 21.7-8.2 21.7-17.5m-21.8 13.6c0-9.8 3.4-21.7 10.4-21.7 3.2 0 5 2.1 5 7.1 0 7.5-6 13.1-15.4 14.6"/><path id="path5273" d="M170.4 99.7v50h10v-32c1.9-7.8 4.9-10.9 9-10.9 3.4 0 6.4 2.2 6.4 10.8 0 2.7-.3 14.9-.3 17.4 0 8.1 3.3 15.3 11.7 15.3 4.2 0 10.7-1.8 13.7-18.5h-3.7c-1.6 7.6-4.1 10.9-7.2 10.9-4.4 0-4.5-6.5-4.5-8.6 0-5.2.6-12.3.6-17 0-7.7-1.6-17.9-13.7-17.9-3.4 0-8.1.8-12 8.1v-7.6h-10"/><path id="path5275" d="M243.98 81.1v23.4c-1.9-4.1-6-5.3-9.5-5.3-13.4 0-18.8 16-18.8 28.5 0 16.2 9 22.6 17 22.6 6.4 0 11.1-4.2 13.1-9.4 1.2 6.7 4.9 9.4 9 9.4 3.9 0 7.5-2.4 7.5-6.4 0-.7-.1-1.2-.2-1.8-.8.3-2.3.6-3.3.6-4.7 0-4.8-5.9-4.8-9v-54l-10 1.4m-9.2 61.6c-4.8 0-8.6-4.5-8.6-15.3 0-10 3.3-22.7 11.7-22.7 3.4 0 5.2 2.1 6.1 4.3v22.8c0 5.8-4.1 10.9-9.2 10.9"/><path id="path5277" d="M288.27 81.1v54.7c0 6.5 2.3 14.5 11.5 14.5 4.4 0 10.9-1.8 13.9-18.5h-3.7c-1.5 7.2-4 10.9-7.2 10.9-4.3 0-4.5-6.4-4.5-9v-54l-10 1.4"/><path id="path5279" d="M341.15 112.2c0-10.6-6.7-13-13.3-13-14.4 0-19.1 16.8-19.1 28 0 16.9 10.1 23.1 19.1 23.1 7.4 0 14.1-4 14.1-10 0-.7-.1-1.6-.2-2.5-2.5 3.6-6.5 4.9-10.8 4.9-5.7 0-10.5-2.4-11.5-13 13.5-1.5 21.7-8.2 21.7-17.5m-21.8 13.6c0-9.8 3.4-21.7 10.4-21.7 3.2 0 5 2.1 5 7.1 0 7.5-6 13.1-15.4 14.6"/><path id="path5281" d="M74.64 240c.9 1.3 2.1 2.1 3.7 2.1 2.6 0 3.9-2.6 3.9-5.9 0-7.8-4.5-12-12.9-12-15.1 0-18.5 16.7-18.5 27.8 0 17.3 9.9 23.3 19.1 23.3 9.8 0 18.7-8.7 21.9-18.5h-3.4c-3.4 7.4-8.2 10.9-15.2 10.9-6.5 0-11.8-3-11.8-17 0-9.5 2.2-21.2 9.4-21.2 3.5 0 5.5 2.2 5.5 5.3 0 1.9-.6 4.3-1.7 5.2"/><path id="path5283" d="M106.57 224.2c-15 0-19.5 16.1-19.5 27.8 0 17.2 9.8 23.3 18.7 23.3 10.8 0 17.1-9.9 17.1-26.3 0-1.4-.1-2.8-.1-4.1 6.1-1 12.7-3.9 15.3-8.2l-1.5-2.7c-3.3 3.4-8.2 6-13.7 6h-.6c-1.3-8.9-5.2-15.8-15.7-15.8m1 43.5c-4.5 0-9.7-3.1-9.7-16.1 0-9.8 3-21.9 11.3-21.9 3 0 5.6 1.6 7.2 6.2-2.6.1-4 1.2-4 4.3 0 3.4 1.6 4.8 5.4 5 .1.8.1 1.6.1 2.4 0 12.7-3.3 20.1-10.3 20.1"/><path id="path5285" d="M130.26 224.7v50h10v-32c1.9-7.8 4.9-10.9 9-10.9 3.4 0 6.4 2.2 6.4 10.8 0 2.7-.3 14.9-.3 17.4 0 8.1 3.3 15.3 11.7 15.3 4.2 0 10.7-1.8 13.7-18.5h-3.7c-1.6 7.6-4.1 10.9-7.2 10.9-4.4 0-4.5-6.5-4.5-8.6 0-5.2.6-12.3.6-17 0-7.7-1.6-17.9-13.7-17.9-3.4 0-8.1.8-12 8.1v-7.6h-10"/><path id="path5287" d="M177.04 210.9v13.8h-3.4v3.5h3.4v32.6c0 6.6 2.2 14.5 11.8 14.5 4.6 0 11.2-1.8 15.6-18.5h-3.7c-1.9 7.3-5.4 10.9-9 10.9-4.5 0-4.7-5.9-4.7-9v-30.5h7.7v-3.5h-7.7v-15.2l-10 1.4"/><path id="path5289" d="M200.57 224.7v50h10v-36.8c2.3-2.4 5.2-5 8.2-5 2.9 0 3.3 2.5 5.6 2.5 1.6 0 4.6-1.2 4.6-5.2 0-3.3-2.1-6-6.6-6-5.7 0-8.7 4.2-11.8 8.9v-8.4h-10"/><path id="path5291" d="M252.47 224.2c-15 0-19.5 16.1-19.5 27.8 0 17.2 9.8 23.3 18.7 23.3 10.8 0 17.1-9.9 17.1-26.3 0-1.4-.1-2.8-.1-4.1 6.1-1 12.7-3.9 15.3-8.2l-1.5-2.7c-3.3 3.4-8.2 6-13.7 6h-.6c-1.3-8.9-5.2-15.8-15.7-15.8m1 43.5c-4.5 0-9.7-3.1-9.7-16.1 0-9.8 3-21.9 11.3-21.9 3 0 5.6 1.6 7.2 6.2-2.6.1-4 1.2-4 4.3 0 3.4 1.6 4.8 5.4 5 .1.8.1 1.6.1 2.4 0 12.7-3.3 20.1-10.3 20.1m14-49.1l-9.6-16.7h-2.1l-16.6 16.7h3.4l14.1-10.1 8.6 10.1h2.2"/><path id="path5293" d="M276.26 206.1v54.7c0 6.5 2.3 14.5 11.5 14.5 4.4 0 10.9-1.8 13.9-18.5h-3.7c-1.5 7.2-4 10.9-7.2 10.9-4.3 0-4.5-6.4-4.5-9v-54l-10 1.4"/><path id="path5295" d="M329.14 237.2c0-10.6-6.7-13-13.3-13-14.4 0-19.1 16.8-19.1 28 0 16.9 10.1 23.1 19.1 23.1 7.4 0 14.1-4 14.1-10 0-.7-.1-1.6-.2-2.5-2.5 3.6-6.5 4.9-10.8 4.9-5.7 0-10.5-2.4-11.5-13 13.5-1.5 21.7-8.2 21.7-17.5m-21.8 13.6c0-9.8 3.4-21.7 10.4-21.7 3.2 0 5 2.1 5 7.1 0 7.5-6 13.1-15.4 14.6"/><path id="path5297" d="M56.77 331.1v23.4c-1.9-4.1-6.1-5.3-9.3-5.3-13.6 0-19 15.9-19 28.2 0 16.8 9 22.9 17.1 22.9 6.3 0 11-4.3 13-9.5 1 5 3.6 9.5 9.7 9.5 4.4 0 10.9-1.8 13.9-18.5h-3.7c-1.5 7.2-4 10.9-7.2 10.9-4.3 0-4.5-6.4-4.5-9v-54l-10 1.4m-8.7 61.6c-5.8 0-9.1-4.6-9.1-16 0-9.3 3.3-22 11.9-22 3 0 5 2.2 5.9 4.3v22.8c0 6.1-4.6 10.9-8.7 10.9"/><path id="path5299" d="M109.6 362.2c0-10.6-6.7-13-13.3-13-14.4 0-19.1 16.8-19.1 28 0 16.9 10.1 23.1 19.1 23.1 7.4 0 14.1-4 14.1-10 0-.7-.1-1.6-.2-2.5-2.5 3.6-6.5 4.9-10.8 4.9-5.7 0-10.5-2.4-11.5-13 13.5-1.5 21.7-8.2 21.7-17.5m-21.8 13.6c0-9.8 3.4-21.7 10.4-21.7 3.2 0 5 2.1 5 7.1 0 7.5-6 13.1-15.4 14.6"/><path id="path5301" d="M138.85 346v78.7l10.1-2.5v-26.7c2.4 3 5.4 4.8 9.8 4.8 10.3 0 17.2-9.8 17.2-26.3 0-17-7.3-24.8-16.6-24.8-4.5 0-7.9 1.9-10.4 4.5V346h-10.1m17 9.7c4.4 0 10.1 4 10.1 17.9 0 11.3-3.8 20.3-10.4 20.3-2.3 0-4.7-1-6.6-3.4v-30c1.6-3 4-4.8 6.9-4.8"/><path id="path5303" d="M212.54 362.2c0-10.6-6.7-13-13.3-13-14.4 0-19.1 16.8-19.1 28 0 17.1 8.9 23.1 18.1 23.1 10.2 0 19.7-8.7 23.1-18.5h-3.2c-3.5 7.8-9.5 10.9-15.8 10.9-5.7 0-10.5-2.4-11.5-13 13.5-1.5 21.7-8.2 21.7-17.5m-21.8 13.6c0-9.8 3.4-21.7 10.4-21.7 3.2 0 5 2.1 5 7.1 0 7.5-6 13.1-15.4 14.6"/><path id="path5305" d="M218.05 335.9v13.8h-3.4v3.5h3.4v32.6c0 6.6 2.2 14.5 11.8 14.5 4.6 0 11.2-1.8 15.6-18.5h-3.7c-1.9 7.3-5.4 10.9-9 10.9-4.5 0-4.7-5.9-4.7-9v-30.5h7.7v-3.5h-7.7v-15.2l-10 1.4"/><path id="path5307" d="M241.7 349.7v36.1c0 6.5 2.3 14.5 11.5 14.5 4.4 0 10.9-1.8 13.9-18.5h-3.7c-1.5 7.2-4 10.9-7.2 10.9-4.3 0-4.5-6.4-4.5-9v-34h-10m-1.8-14.4c0 3.7 2.9 6.6 6.6 6.6 3.6 0 6.7-2.9 6.7-6.6 0-3.6-3.1-6.7-6.7-6.7-3.7 0-6.6 3.1-6.6 6.7"/><path id="path5309" d="M263.37 335.9v13.8h-3.4v3.5h3.4v32.6c0 6.6 2.2 14.5 11.8 14.5 4.6 0 11.2-1.8 15.6-18.5h-3.7c-1.9 7.3-5.4 10.9-9 10.9-4.5 0-4.7-5.9-4.7-9v-30.5h7.7v-3.5h-7.7v-15.2l-10 1.4"/><path id="path5311" d="M318.2 362.2c0-10.6-6.7-13-13.3-13-14.4 0-19.1 16.8-19.1 28 0 17.1 8.9 23.1 18.1 23.1 10.2 0 19.7-8.7 23.1-18.5h-3.2c-3.5 7.8-9.5 10.9-15.8 10.9-5.7 0-10.5-2.4-11.5-13 13.5-1.5 21.7-8.2 21.7-17.5m-21.8 13.6c0-9.8 3.4-21.7 10.4-21.7 3.2 0 5 2.1 5 7.1 0 7.5-6 13.1-15.4 14.6"/><path id="path5313" d="M333.42 348.6c-1 9.8-4.9 19.7-8.4 29.6-2 1.1-3.6 3.8-3.6 7.3 0 6.5 3.2 14.8 14.9 14.8 5.7 0 15.5-3.5 15.5-13.4 0-10.5-1.9-14.6-8.3-40.3l-10.1 2m7.8 37.2c0 4.9-2.8 7-7 7-4.4 0-7.1-2.7-8.1-7.4.8 1 1.7 1.4 2.7 1.4 1.6 0 3.2-1.4 3.2-3.9 0-2.2-1-3.6-2.2-4.4 2-7.2 5-13.8 5.8-21.2 3.7 17.4 5.6 20.3 5.6 28.5"/><path id="path5315" d="M104.97 506.8c0 13.9 6.1 18.5 14.4 18.5 14.6 0 21.9-14 21.9-29.2 0-17.3-9.6-21.6-16.7-21.6-4.3 0-7.3 1.6-9.5 3.9v-23.7l-10 1.4-.1 50.7m27.4-8.4c0 10.4-3.8 20-11.4 20-4.1 0-5.9-2.9-5.9-9v-26.3c1.8-2 4.1-3.4 6.8-3.4 6.7 0 10.5 8.4 10.5 18.7"/><path id="path5317" d="M146.86 474.7v36.1c0 6.5 2.3 14.5 11.5 14.5 4.4 0 10.9-1.8 13.9-18.5h-3.7c-1.5 7.2-4 10.9-7.2 10.9-4.3 0-4.5-6.4-4.5-9v-34h-10m-1.8-14.4c0 3.7 2.9 6.6 6.6 6.6 3.6 0 6.7-2.9 6.7-6.6 0-3.6-3.1-6.7-6.7-6.7-3.7 0-6.6 3.1-6.6 6.7"/><path id="path5319" d="M168.54 456.1v54.7c0 6.5 2.3 14.5 11.5 14.5 4.4 0 10.9-1.8 13.9-18.5h-3.7c-1.5 7.2-4 10.9-7.2 10.9-4.3 0-4.5-6.4-4.5-9v-54l-10 1.4"/><path id="path5321" d="M190.22 456.1v54.7c0 6.5 2.3 14.5 11.5 14.5 4.4 0 10.9-1.8 13.9-18.5h-3.7c-1.5 7.2-4 10.9-7.2 10.9-4.3 0-4.5-6.4-4.5-9v-54l-10 1.4"/><path id="path5323" d="M243.1 487.2c0-10.6-6.7-13-13.3-13-14.4 0-19.1 16.8-19.1 28 0 17.1 8.9 23.1 18.1 23.1 10.2 0 19.7-8.7 23.1-18.5h-3.2c-3.5 7.8-9.5 10.9-15.8 10.9-5.7 0-10.5-2.4-11.5-13 13.5-1.5 21.7-8.2 21.7-17.5m-21.8 13.6c0-9.8 3.4-21.7 10.4-21.7 3.2 0 5 2.1 5 7.1 0 7.5-6 13.1-15.4 14.6"/><path id="path5325" d="M258.32 473.6c-1 9.8-4.9 19.7-8.4 29.6-2 1.1-3.6 3.8-3.6 7.3 0 6.5 3.2 14.8 14.9 14.8 5.7 0 15.5-3.5 15.5-13.4 0-10.5-1.9-14.6-8.3-40.3l-10.1 2m7.8 37.2c0 4.9-2.8 7-7 7-4.4 0-7.1-2.7-8.1-7.4.8 1 1.7 1.4 2.7 1.4 1.6 0 3.2-1.4 3.2-3.9 0-2.2-1-3.6-2.2-4.4 2-7.2 5-13.8 5.8-21.2 3.7 17.4 5.6 20.3 5.6 28.5"/></g><g id="flowRoot5258" style="text-align:center;line-height:125%;-inkscape-font-specification:Lobster Two" font-size="100" letter-spacing="0" word-spacing="0" text-anchor="middle" font-family="Lobster Two"><path id="path5328" d="M884.22 85.6v64.1h10.8v-28.5h2.2c15.8 0 23.8-13.8 23.8-25 0-12-10-21.5-27.7-21.5-16.2 0-30.5 10.9-30.5 23.6 0 8.6 4.6 12.1 12 12.1-1-.9-4.2-3.7-4.2-11.9 0-13 9.4-20.2 21.2-20.2 17.3 0 19.8 10.9 19.8 19.4 0 9.7-4.8 20.3-16.6 20.4v-34l-10.8 1.5"/><path id="path5330" d="M925.77 99.7v50h10v-36.8c2.3-2.4 5.2-5 8.2-5 2.9 0 3.3 2.5 5.6 2.5 1.6 0 4.6-1.2 4.6-5.2 0-3.3-2.1-6-6.6-6-5.7 0-8.7 4.2-11.8 8.9v-8.4h-10"/><path id="path5332" d="M990.67 112.2c0-10.6-6.7-13-13.3-13-14.4 0-19.1 16.8-19.1 28 0 17.1 8.9 23.1 18.1 23.1 10.2 0 19.7-8.7 23.1-18.5h-3.2c-3.5 7.8-9.5 10.9-15.8 10.9-5.7 0-10.5-2.4-11.5-13 13.5-1.5 21.7-8.2 21.7-17.5m-21.8 13.6c0-9.8 3.4-21.7 10.4-21.7 3.2 0 5 2.1 5 7.1 0 7.5-6 13.1-15.4 14.6"/><path id="path5334" d="M996.08 99.7v50h10v-32c1.9-7.8 4.9-10.9 9-10.9 3.4 0 6.4 2.2 6.4 10.8 0 2.7-.3 14.9-.3 17.4 0 8.1 3.3 15.3 11.7 15.3 4.2 0 10.7-1.8 13.7-18.5h-3.7c-1.6 7.6-4.1 10.9-7.2 10.9-4.4 0-4.5-6.5-4.5-8.6 0-5.2.6-12.3.6-17 0-7.7-1.6-17.9-13.7-17.9-3.4 0-8.1.8-12 8.1v-7.6h-10"/><path id="path5336" d="M1069.66 81.1v23.4c-1.9-4.1-6-5.3-9.5-5.3-13.4 0-18.8 16-18.8 28.5 0 16.2 9 22.6 17 22.6 6.4 0 11.1-4.2 13.1-9.4 1.2 6.7 4.9 9.4 9 9.4 3.9 0 7.5-2.4 7.5-6.4 0-.7-.1-1.2-.2-1.8-.8.3-2.3.6-3.3.6-4.7 0-4.8-5.9-4.8-9v-54l-10 1.4m-9.2 61.6c-4.8 0-8.6-4.5-8.6-15.3 0-10 3.3-22.7 11.7-22.7 3.4 0 5.2 2.1 6.1 4.3v22.8c0 5.8-4.1 10.9-9.2 10.9"/><path id="path5338" d="M1113.96 81.1v54.7c0 6.5 2.3 14.5 11.5 14.5 4.4 0 10.9-1.8 13.9-18.5h-3.7c-1.5 7.2-4 10.9-7.2 10.9-4.3 0-4.5-6.4-4.5-9v-54l-10 1.4"/><path id="path5340" d="M1166.84 112.2c0-10.6-6.7-13-13.3-13-14.4 0-19.1 16.8-19.1 28 0 16.9 10.1 23.1 19.1 23.1 7.4 0 14.1-4 14.1-10 0-.7-.1-1.6-.2-2.5-2.5 3.6-6.5 4.9-10.8 4.9-5.7 0-10.5-2.4-11.5-13 13.5-1.5 21.7-8.2 21.7-17.5m-21.8 13.6c0-9.8 3.4-21.7 10.4-21.7 3.2 0 5 2.1 5 7.1 0 7.5-6 13.1-15.4 14.6"/><path id="path5342" d="M900.33 240c.9 1.3 2.1 2.1 3.7 2.1 2.6 0 3.9-2.6 3.9-5.9 0-7.8-4.5-12-12.9-12-15.1 0-18.5 16.7-18.5 27.8 0 17.3 9.9 23.3 19.1 23.3 9.8 0 18.7-8.7 21.9-18.5h-3.4c-3.4 7.4-8.2 10.9-15.2 10.9-6.5 0-11.8-3-11.8-17 0-9.5 2.2-21.2 9.4-21.2 3.5 0 5.5 2.2 5.5 5.3 0 1.9-.6 4.3-1.7 5.2"/><path id="path5344" d="M932.26 224.2c-15 0-19.5 16.1-19.5 27.8 0 17.2 9.8 23.3 18.7 23.3 10.8 0 17.1-9.9 17.1-26.3 0-1.4-.1-2.8-.1-4.1 6.1-1 12.7-3.9 15.3-8.2l-1.5-2.7c-3.3 3.4-8.2 6-13.7 6h-.6c-1.3-8.9-5.2-15.8-15.7-15.8m1 43.5c-4.5 0-9.7-3.1-9.7-16.1 0-9.8 3-21.9 11.3-21.9 3 0 5.6 1.6 7.2 6.2-2.6.1-4 1.2-4 4.3 0 3.4 1.6 4.8 5.4 5 .1.8.1 1.6.1 2.4 0 12.7-3.3 20.1-10.3 20.1"/><path id="path5346" d="M955.95 224.7v50h10v-32c1.9-7.8 4.9-10.9 9-10.9 3.4 0 6.4 2.2 6.4 10.8 0 2.7-.3 14.9-.3 17.4 0 8.1 3.3 15.3 11.7 15.3 4.2 0 10.7-1.8 13.7-18.5h-3.7c-1.6 7.6-4.1 10.9-7.2 10.9-4.4 0-4.5-6.5-4.5-8.6 0-5.2.6-12.3.6-17 0-7.7-1.6-17.9-13.7-17.9-3.4 0-8.1.8-12 8.1v-7.6h-10"/><path id="path5348" d="M1002.73 210.9v13.8h-3.4v3.5h3.4v32.6c0 6.6 2.2 14.5 11.8 14.5 4.6 0 11.2-1.8 15.6-18.5h-3.7c-1.9 7.3-5.4 10.9-9 10.9-4.5 0-4.7-5.9-4.7-9v-30.5h7.7v-3.5h-7.7v-15.2l-10 1.4"/><path id="path5350" d="M1026.26 224.7v50h10v-36.8c2.3-2.4 5.2-5 8.2-5 2.9 0 3.3 2.5 5.6 2.5 1.6 0 4.6-1.2 4.6-5.2 0-3.3-2.1-6-6.6-6-5.7 0-8.7 4.2-11.8 8.9v-8.4h-10"/><path id="path5352" d="M1078.15 224.2c-15 0-19.5 16.1-19.5 27.8 0 17.2 9.8 23.3 18.7 23.3 10.8 0 17.1-9.9 17.1-26.3 0-1.4-.1-2.8-.1-4.1 6.1-1 12.7-3.9 15.3-8.2l-1.5-2.7c-3.3 3.4-8.2 6-13.7 6h-.6c-1.3-8.9-5.2-15.8-15.7-15.8m1 43.5c-4.5 0-9.7-3.1-9.7-16.1 0-9.8 3-21.9 11.3-21.9 3 0 5.6 1.6 7.2 6.2-2.6.1-4 1.2-4 4.3 0 3.4 1.6 4.8 5.4 5 .1.8.1 1.6.1 2.4 0 12.7-3.3 20.1-10.3 20.1m14-49.1l-9.6-16.7h-2.1l-16.6 16.7h3.4l14.1-10.1 8.6 10.1h2.2"/><path id="path5354" d="M1101.95 206.1v54.7c0 6.5 2.3 14.5 11.5 14.5 4.4 0 10.9-1.8 13.9-18.5h-3.7c-1.5 7.2-4 10.9-7.2 10.9-4.3 0-4.5-6.4-4.5-9v-54l-10 1.4"/><path id="path5356" d="M1154.83 237.2c0-10.6-6.7-13-13.3-13-14.4 0-19.1 16.8-19.1 28 0 16.9 10.1 23.1 19.1 23.1 7.4 0 14.1-4 14.1-10 0-.7-.1-1.6-.2-2.5-2.5 3.6-6.5 4.9-10.8 4.9-5.7 0-10.5-2.4-11.5-13 13.5-1.5 21.7-8.2 21.7-17.5m-21.8 13.6c0-9.8 3.4-21.7 10.4-21.7 3.2 0 5 2.1 5 7.1 0 7.5-6 13.1-15.4 14.6"/><path id="path5358" d="M935.97 331.1v23.4c-1.9-4.1-6.1-5.3-9.3-5.3-13.6 0-19 15.9-19 28.2 0 16.8 9 22.9 17.1 22.9 6.3 0 11-4.3 13-9.5 1 5 3.6 9.5 9.7 9.5 4.4 0 10.9-1.8 13.9-18.5h-3.7c-1.5 7.2-4 10.9-7.2 10.9-4.3 0-4.5-6.4-4.5-9v-54l-10 1.4m-8.7 61.6c-5.8 0-9.1-4.6-9.1-16 0-9.3 3.3-22 11.9-22 3 0 5 2.2 5.9 4.3v22.8c0 6.1-4.6 10.9-8.7 10.9"/><path id="path5360" d="M981.3 349.7v32.1c0 6.9-4 10.9-7.8 10.9-3.5 0-6-2.5-6-9v-34h-10v35.1c0 11.4 6.3 15.5 14.1 15.5 4.5 0 9-2.9 11.5-9.4 1.2 6.8 4.9 9.4 9 9.4 3.9 0 7.5-2.4 7.5-6.4 0-.7-.1-1.2-.2-1.8-.8.3-2.3.6-3.3.6-4.7 0-4.8-5.9-4.8-9v-34h-10"/><path id="path5362" d="M1025.97 349.7v51.2c-6.5 2.7-13.1 7.1-13.1 14 0 5.4 4 9.8 10.6 9.8 6.7 0 12.5-4.6 12.5-17.1v-6.4c8.9-2.7 13.3-5.2 15.4-19.4h-3.7c-1.4 11.2-4.9 13.6-11.7 15.8v-47.9h-10m-1.8-14.4c0 3.7 2.9 6.6 6.6 6.6 3.6 0 6.7-2.9 6.7-6.6 0-3.6-3.1-6.7-6.7-6.7-3.7 0-6.6 3.1-6.6 6.7m-2.6 84.2c-3 0-4.8-2-4.8-5 0-3.7 2.6-6.6 9.2-9.6v7c0 4.7-.8 7.6-4.4 7.6"/><path id="path5364" d="M1078.85 362.2c0-10.6-6.7-13-13.3-13-14.4 0-19.1 16.8-19.1 28 0 17.1 8.9 23.1 18.1 23.1 10.2 0 19.7-8.7 23.1-18.5h-3.2c-3.5 7.8-9.5 10.9-15.8 10.9-5.7 0-10.5-2.4-11.5-13 13.5-1.5 21.7-8.2 21.7-17.5m-21.8 13.6c0-9.8 3.4-21.7 10.4-21.7 3.2 0 5 2.1 5 7.1 0 7.5-6 13.1-15.4 14.6"/><path id="path5366" d="M1108.07 349.7v32.1c0 6.9-4 10.9-7.8 10.9-3.5 0-6-2.5-6-9v-34h-10v35.1c0 11.4 6.3 15.5 14.1 15.5 4.5 0 9-2.9 11.5-9.4 1.2 6.8 4.9 9.4 9 9.4 3.9 0 7.5-2.4 7.5-6.4 0-.7-.1-1.2-.2-1.8-.8.3-2.3.6-3.3.6-4.7 0-4.8-5.9-4.8-9v-34h-10"/><path id="path5368" d="M895.74 456.1v23.4c-1.9-4.1-6.1-5.3-9.3-5.3-13.6 0-19 15.9-19 28.2 0 16.8 9 22.9 17.1 22.9 6.3 0 11-4.3 13-9.5 1 5 3.6 9.5 9.7 9.5 4.4 0 10.9-1.8 13.9-18.5h-3.7c-1.5 7.2-4 10.9-7.2 10.9-4.3 0-4.5-6.4-4.5-9v-54l-10 1.4m-8.7 61.6c-5.8 0-9.1-4.6-9.1-16 0-9.3 3.3-22 11.9-22 3 0 5 2.2 5.9 4.3v22.8c0 6.1-4.6 10.9-8.7 10.9"/><path id="path5370" d="M948.58 487.2c0-10.6-6.7-13-13.3-13-14.4 0-19.1 16.8-19.1 28 0 16.9 10.1 23.1 19.1 23.1 7.4 0 14.1-4 14.1-10 0-.7-.1-1.6-.2-2.5-2.5 3.6-6.5 4.9-10.8 4.9-5.7 0-10.5-2.4-11.5-13 13.5-1.5 21.7-8.2 21.7-17.5m-21.8 13.6c0-9.8 3.4-21.7 10.4-21.7 3.2 0 5 2.1 5 7.1 0 7.5-6 13.1-15.4 14.6"/><path id="path5372" d="M977.92 456.1v54.7c0 6.5 2.3 14.5 11.5 14.5 4.4 0 10.9-1.8 13.9-18.5h-3.7c-1.5 7.2-4 10.9-7.2 10.9-4.3 0-4.5-6.4-4.5-9v-54l-10 1.4"/><path id="path5374" d="M1026.4 474.7v4.8c-1.9-4.1-6-5.3-9.5-5.3-13.4 0-18.8 16-18.8 28.5 0 16.2 9 22.6 17 22.6 6.4 0 11.1-4.2 13.1-9.4 1.2 6.7 4.9 9.4 9 9.4 3.9 0 7.5-2.4 7.5-6.4 0-.7-.1-1.2-.2-1.8-.8.3-2.3.6-3.3.6-4.7 0-4.8-5.9-4.8-9v-34h-10m-9.2 43c-4.8 0-8.6-4.5-8.6-15.3 0-10 3.3-22.7 11.7-22.7 3.4 0 5.2 2.1 6.1 4.3v22.8c0 5.8-4.1 10.9-9.2 10.9"/><path id="path5376" d="M1103 491c0-13.5-3.8-18.4-8.4-18.4-3.3 0-5.1 2.5-5.1 5.1 0 2.5 1.6 5.3 4.8 5.3.6 0 2-.1 2.6-.8.6 2.9.9 6.8.9 10.5 0 11.8-3 25-11.2 25-4.9 0-5.8-4.6-5.8-9v-34h-10v36.9c0 8.9 6.8 13.7 13.7 13.7 13.8 0 18.5-19.2 18.5-34.3"/><path id="path5378" d="M1110.73 474.7v36.1c0 6.5 2.3 14.5 11.5 14.5 4.4 0 10.9-1.8 13.9-18.5h-3.7c-1.5 7.2-4 10.9-7.2 10.9-4.3 0-4.5-6.4-4.5-9v-34h-10m-1.8-14.4c0 3.7 2.9 6.6 6.6 6.6 3.6 0 6.7-2.9 6.7-6.6 0-3.6-3.1-6.7-6.7-6.7-3.7 0-6.6 3.1-6.6 6.7"/><path id="path5380" d="M1163.6 487.2c0-10.6-6.7-13-13.3-13-14.4 0-19.1 16.8-19.1 28 0 16.9 10.1 23.1 19.1 23.1 7.4 0 14.1-4 14.1-10 0-.7-.1-1.6-.2-2.5-2.5 3.6-6.5 4.9-10.8 4.9-5.7 0-10.5-2.4-11.5-13 13.5-1.5 21.7-8.2 21.7-17.5m-21.8 13.6c0-9.8 3.4-21.7 10.4-21.7 3.2 0 5 2.1 5 7.1 0 7.5-6 13.1-15.4 14.6"/></g></g></svg>