<svg xmlns="http://www.w3.org/2000/svg" width="200" height="500" ><g transform="matrix(4 0 0 4 -362.213 -3029.712)" opacity="0"><animate fill="freeze" attributeType="CSS" attributeName="opacity" from="0" to="1" dur="0.1s" begin="p3.end"/><animate fill="freeze" attributeType="CSS" attributeName="opacity" from="1" to="0" dur="0.1s" begin="p3.end+1s" id="p4"/><path d="M115.28 812.36c0 1.4-1.1 2.5-2.5 2.5s-2.5-1.1-2.5-2.5 1.1-2.5 2.5-2.5 2.5 1.1 2.5 2.5zM125.28 822.36c0 1.4-1.1 2.5-2.5 2.5s-2.5-1.1-2.5-2.5 1.1-2.5 2.5-2.5 2.5 1.1 2.5 2.5zM125.28 827.36c0 1.4-1.1 2.5-2.5 2.5s-2.5-1.1-2.5-2.5 1.1-2.5 2.5-2.5 2.5 1.1 2.5 2.5z" opacity=".98"/></g><g transform="matrix(4 0 0 4 -421.107 -3029.712)" opacity="0"><animate fill="freeze" attributeType="CSS" attributeName="opacity" from="0" to="1" dur="0.1s" begin="p2.end"/><animate fill="freeze" attributeType="CSS" attributeName="opacity" from="1" to="0" dur="0.1s" begin="p2.end+1s" id="p3"/><path d="M135 812.36c0 1.4-1.1 2.5-2.5 2.5s-2.5-1.1-2.5-2.5 1.1-2.5 2.5-2.5 2.5 1.1 2.5 2.5zM135 827.36c0 1.4-1.1 2.5-2.5 2.5s-2.5-1.1-2.5-2.5 1.1-2.5 2.5-2.5 2.5 1.1 2.5 2.5zM145 822.36c0 1.4-1.1 2.5-2.5 2.5s-2.5-1.1-2.5-2.5 1.1-2.5 2.5-2.5 2.5 1.1 2.5 2.5zM145 827.36c0 1.4-1.1 2.5-2.5 2.5s-2.5-1.1-2.5-2.5 1.1-2.5 2.5-2.5 2.5 1.1 2.5 2.5zM125 817.36c0 1.4-1.1 2.5-2.5 2.5s-2.5-1.1-2.5-2.5 1.1-2.5 2.5-2.5 2.5 1.1 2.5 2.5zM130 807.36c0 1.4-1.1 2.5-2.5 2.5s-2.5-1.1-2.5-2.5 1.1-2.5 2.5-2.5 2.5 1.1 2.5 2.5z" opacity=".98"/></g><g transform="matrix(4 0 0 4 -301.107 -3029.712)" opacity="0"><animate fill="freeze" attributeType="CSS" attributeName="opacity" from="0" to="1" dur="0.1s" begin="p1.end"/><animate fill="freeze" attributeType="CSS" attributeName="opacity" from="1" to="0" dur="0.1s" begin="p1.end+1s" id="p2"/><path d="M100 817.36c0 1.4-1.1 2.5-2.5 2.5s-2.5-1.1-2.5-2.5 1.1-2.5 2.5-2.5 2.5 1.1 2.5 2.5zM105 817.36c0 1.4-1.1 2.5-2.5 2.5s-2.5-1.1-2.5-2.5 1.1-2.5 2.5-2.5 2.5 1.1 2.5 2.5zM105 812.36c0 1.4-1.1 2.5-2.5 2.5s-2.5-1.1-2.5-2.5 1.1-2.5 2.5-2.5 2.5 1.1 2.5 2.5zM105 822.36c0 1.4-1.1 2.5-2.5 2.5s-2.5-1.1-2.5-2.5 1.1-2.5 2.5-2.5 2.5 1.1 2.5 2.5zM100 812.36c0 1.4-1.1 2.5-2.5 2.5s-2.5-1.1-2.5-2.5 1.1-2.5 2.5-2.5 2.5 1.1 2.5 2.5zM110 822.36c0 1.4-1.1 2.5-2.5 2.5s-2.5-1.1-2.5-2.5 1.1-2.5 2.5-2.5 2.5 1.1 2.5 2.5zM110 827.36c0 1.4-1.1 2.5-2.5 2.5s-2.5-1.1-2.5-2.5 1.1-2.5 2.5-2.5 2.5 1.1 2.5 2.5zM115 822.36c0 1.4-1.1 2.5-2.5 2.5s-2.5-1.1-2.5-2.5 1.1-2.5 2.5-2.5 2.5 1.1 2.5 2.5zM115 827.36c0 1.4-1.1 2.5-2.5 2.5s-2.5-1.1-2.5-2.5 1.1-2.5 2.5-2.5 2.5 1.1 2.5 2.5zM95 817.36c0 1.4-1.1 2.5-2.5 2.5s-2.5-1.1-2.5-2.5 1.1-2.5 2.5-2.5 2.5 1.1 2.5 2.5zM95 807.36c0 1.4-1.1 2.5-2.5 2.5s-2.5-1.1-2.5-2.5 1.1-2.5 2.5-2.5 2.5 1.1 2.5 2.5z" opacity=".98"/></g><g transform="matrix(4 0 0 4 -141.107 -2829.712)"><animate fill="freeze" attributeType="CSS" attributeName="opacity" from="0" to="1" dur="0.1s" begin="p4.end+1s"/><animate fill="freeze" attributeType="CSS" attributeName="opacity" from="1" to="0" dur="0.1s" begin="1s;p4.end +2s" id="p0"/><path d="M55 752.36c0 1.4-1.1 2.5-2.5 2.5s-2.5-1.1-2.5-2.5 1.1-2.5 2.5-2.5 2.5 1.1 2.5 2.5zM60 757.36c0 1.4-1.1 2.5-2.5 2.5s-2.5-1.1-2.5-2.5 1.1-2.5 2.5-2.5 2.5 1.1 2.5 2.5zM60 762.36c0 1.4-1.1 2.5-2.5 2.5s-2.5-1.1-2.5-2.5 1.1-2.5 2.5-2.5 2.5 1.1 2.5 2.5zM55 762.36c0 1.4-1.1 2.5-2.5 2.5s-2.5-1.1-2.5-2.5 1.1-2.5 2.5-2.5 2.5 1.1 2.5 2.5zM50 762.36c0 1.4-1.1 2.5-2.5 2.5s-2.5-1.1-2.5-2.5 1.1-2.5 2.5-2.5 2.5 1.1 2.5 2.5zM70 772.36c0 1.4-1.1 2.5-2.5 2.5s-2.5-1.1-2.5-2.5 1.1-2.5 2.5-2.5 2.5 1.1 2.5 2.5zM70 777.36c0 1.4-1.1 2.5-2.5 2.5s-2.5-1.1-2.5-2.5 1.1-2.5 2.5-2.5 2.5 1.1 2.5 2.5zM75 772.36c0 1.4-1.1 2.5-2.5 2.5s-2.5-1.1-2.5-2.5 1.1-2.5 2.5-2.5 2.5 1.1 2.5 2.5zM75 777.36c0 1.4-1.1 2.5-2.5 2.5s-2.5-1.1-2.5-2.5 1.1-2.5 2.5-2.5 2.5 1.1 2.5 2.5z" opacity=".98"/></g><g transform="matrix(4 0 0 4 -301.107 -2829.712)" opacity="0"><animate fill="freeze" attributeType="CSS" attributeName="opacity" from="0" to="1" dur="0.1s" begin="p0.end"/><animate fill="freeze" attributeType="CSS" attributeName="opacity" from="1" to="0" dur="0.1s" begin="p0.end+1s" id="p1"/><path d="M95 767.36c0 1.4-1.1 2.5-2.5 2.5s-2.5-1.1-2.5-2.5 1.1-2.5 2.5-2.5 2.5 1.1 2.5 2.5zM100 762.36c0 1.4-1.1 2.5-2.5 2.5s-2.5-1.1-2.5-2.5 1.1-2.5 2.5-2.5 2.5 1.1 2.5 2.5zM100 757.36c0 1.4-1.1 2.5-2.5 2.5s-2.5-1.1-2.5-2.5 1.1-2.5 2.5-2.5 2.5 1.1 2.5 2.5zM100 767.36c0 1.4-1.1 2.5-2.5 2.5s-2.5-1.1-2.5-2.5 1.1-2.5 2.5-2.5 2.5 1.1 2.5 2.5zM90 762.36c0 1.4-1.1 2.5-2.5 2.5s-2.5-1.1-2.5-2.5 1.1-2.5 2.5-2.5 2.5 1.1 2.5 2.5zM110 772.36c0 1.4-1.1 2.5-2.5 2.5s-2.5-1.1-2.5-2.5 1.1-2.5 2.5-2.5 2.5 1.1 2.5 2.5zM110 777.36c0 1.4-1.1 2.5-2.5 2.5s-2.5-1.1-2.5-2.5 1.1-2.5 2.5-2.5 2.5 1.1 2.5 2.5zM115 772.36c0 1.4-1.1 2.5-2.5 2.5s-2.5-1.1-2.5-2.5 1.1-2.5 2.5-2.5 2.5 1.1 2.5 2.5zM115 777.36c0 1.4-1.1 2.5-2.5 2.5s-2.5-1.1-2.5-2.5 1.1-2.5 2.5-2.5 2.5 1.1 2.5 2.5z" opacity=".98"/></g><g style="text-align:center;line-height:125%" font-size="40" letter-spacing="0" word-spacing="0" text-anchor="middle" font-family="Lobster Two"><path d="M46.96 25.36V51h4.32V39.6h.88c6.32 0 9.52-5.52 9.52-10 0-4.8-4-8.6-11.08-8.6-6.48 0-12.2 4.36-12.2 9.44 0 3.44 1.84 4.84 4.8 4.84-.4-.36-1.68-1.48-1.68-4.76 0-5.2 3.76-8.08 8.48-8.08 6.92 0 7.92 4.36 7.92 7.76 0 3.88-1.92 8.12-6.64 8.16v-13.6l-4.32.6M63.6 31v20h4V36.28c.9-.96 2.07-2 3.27-2 1.16 0 1.32 1 2.24 1 .7 0 1.9-.48 1.9-2.08 0-1.32-.8-2.4-2.6-2.4-2.2 0-3.4 1.68-4.7 3.56V31h-4M89.54 36c0-4.24-2.68-5.2-5.32-5.2-5.76 0-7.64 6.72-7.64 11.2 0 6.84 3.56 9.24 7.24 9.24 4.08 0 7.88-3.48 9.24-7.4h-1.28c-1.4 3.12-3.8 4.36-6.32 4.36-2.28 0-4.2-.96-4.6-5.2 5.4-.6 8.68-3.28 8.68-7m-8.72 5.44c0-3.92 1.36-8.68 4.16-8.68 1.28 0 2 .84 2 2.84 0 3-2.4 5.24-6.16 5.84"/><path d="M91.7 31v20h4V38.2c.77-3.12 1.97-4.36 3.6-4.36 1.37 0 2.57.88 2.57 4.32 0 1.08-.12 5.96-.12 6.96 0 3.24 1.32 6.12 4.68 6.12 1.68 0 4.28-.72 5.48-7.4h-1.4c-.6 3.04-1.6 4.36-2.9 4.36-1.7 0-1.8-2.6-1.8-3.44 0-2.08.3-4.92.3-6.8 0-3.08-.6-7.16-5.5-7.16-1.3 0-3.2.32-4.8 3.24V31h-4"/><path d="M121.14 23.56v9.36c-.76-1.64-2.4-2.12-3.8-2.12-5.36 0-7.52 6.4-7.52 11.4 0 6.48 3.6 9.04 6.8 9.04 2.56 0 4.44-1.68 5.24-3.76.48 2.68 1.96 3.76 3.6 3.76 1.56 0 3-.96 3-2.56 0-.28-.04-.48-.08-.72-.32.12-.92.24-1.32.24-1.88 0-1.92-2.36-1.92-3.6V23l-4 .56m-3.68 24.64c-1.92 0-3.44-1.8-3.44-6.12 0-4 1.32-9.08 4.68-9.08 1.36 0 2.08.84 2.44 1.72v9.12c0 2.32-1.64 4.36-3.68 4.36M138.86 23.56v21.88c0 2.6.92 5.8 4.6 5.8 1.76 0 4.36-.72 5.56-7.4h-1.48c-.6 2.88-1.6 4.36-2.88 4.36-1.72 0-1.8-2.56-1.8-3.6V23l-4 .56"/><path d="M160 36c0-4.24-2.67-5.2-5.3-5.2-5.77 0-7.65 6.72-7.65 11.2 0 6.76 4.04 9.24 7.64 9.24 2.9 0 5.6-1.6 5.6-4 0-.28-.1-.64-.1-1-1 1.44-2.6 1.96-4.3 1.96-2.3 0-4.2-.96-4.6-5.2 5.4-.6 8.7-3.28 8.7-7m-8.7 5.44c0-3.92 1.3-8.68 4.1-8.68 1.3 0 2 .84 2 2.84 0 3-2.4 5.24-6.2 5.84M31.6 87.12c.37.52.85.84 1.5.84 1.03 0 1.55-1.04 1.55-2.36 0-3.12-1.8-4.8-5.16-4.8-6.1 0-7.4 6.68-7.4 11.12 0 6.92 3.9 9.32 7.6 9.32 3.9 0 7.5-3.48 8.7-7.4h-1.3c-1.4 2.96-3.3 4.36-6.1 4.36-2.6 0-4.8-1.2-4.8-6.8 0-3.8.9-8.48 3.8-8.48 1.4 0 2.2.88 2.2 2.12 0 .76-.2 1.72-.7 2.08"/><path d="M44.38 80.8c-6 0-7.8 6.44-7.8 11.12 0 6.88 3.92 9.32 7.48 9.32 4.32 0 6.84-3.96 6.84-10.52 0-.56-.04-1.12-.04-1.64 2.44-.4 5.08-1.56 6.12-3.28l-.6-1.08c-1.32 1.36-3.28 2.4-5.48 2.4h-.24c-.52-3.56-2.08-6.32-6.28-6.32m.4 17.4c-1.8 0-3.88-1.24-3.88-6.44 0-3.92 1.2-8.76 4.52-8.76 1.2 0 2.24.64 2.88 2.48-1.04.04-1.6.48-1.6 1.72 0 1.36.64 1.92 2.16 2 .04.32.04.64.04.96 0 5.08-1.32 8.04-4.12 8.04M53.86 81v20h4V88.2c.76-3.12 1.96-4.36 3.6-4.36 1.36 0 2.56.88 2.56 4.32 0 1.08-.12 5.96-.12 6.96 0 3.24 1.32 6.12 4.68 6.12 1.68 0 4.28-.72 5.48-7.4h-1.48c-.64 3.04-1.64 4.36-2.88 4.36-1.76 0-1.8-2.6-1.8-3.44 0-2.08.24-4.92.24-6.8 0-3.08-.64-7.16-5.48-7.16-1.36 0-3.24.32-4.8 3.24V81h-4"/><path d="M72.57 75.48V81H71.2v1.4h1.37v13.04c0 2.64.88 5.8 4.72 5.8 1.8 0 4.4-.72 6.2-7.4H82c-.76 2.92-2.16 4.36-3.6 4.36-1.8 0-1.88-2.36-1.88-3.6V82.4h3.08V81h-3.08v-6.08l-4 .56"/><path d="M81.98 81v20h4V86.28c.92-.96 2.08-2 3.28-2 1.16 0 1.32 1 2.24 1 .64 0 1.84-.48 1.84-2.08 0-1.32-.84-2.4-2.64-2.4-2.28 0-3.48 1.68-4.72 3.56V81h-4M102.74 80.8c-6 0-7.8 6.44-7.8 11.12 0 6.88 3.92 9.32 7.48 9.32 4.32 0 6.84-3.96 6.84-10.52 0-.56-.04-1.12-.04-1.64 2.44-.4 5.08-1.56 6.12-3.28l-.6-1.08c-1.32 1.36-3.28 2.4-5.48 2.4h-.24c-.52-3.56-2.08-6.32-6.28-6.32m.4 17.4c-1.8 0-3.88-1.24-3.88-6.44 0-3.92 1.2-8.76 4.52-8.76 1.2 0 2.24.64 2.88 2.48-1.04.04-1.6.48-1.6 1.72 0 1.36.64 1.92 2.16 2 .04.32.04.64.04.96 0 5.08-1.32 8.04-4.12 8.04m5.6-19.64l-3.84-6.68h-.84l-6.64 6.68h1.36l5.64-4.04 3.44 4.04h.88"/><path d="M112.26 73.56v21.88c0 2.6.92 5.8 4.6 5.8 1.76 0 4.36-.72 5.56-7.4h-1.48c-.6 2.88-1.6 4.36-2.88 4.36-1.72 0-1.8-2.56-1.8-3.6V73l-4 .56"/><path d="M133.4 86c0-4.24-2.67-5.2-5.3-5.2-5.77 0-7.65 6.72-7.65 11.2 0 6.76 4.04 9.24 7.64 9.24 2.9 0 5.6-1.6 5.6-4 0-.28-.1-.64-.1-1-1 1.44-2.6 1.96-4.3 1.96-2.3 0-4.2-.96-4.6-5.2 5.4-.6 8.7-3.28 8.7-7m-8.7 5.44c0-3.92 1.3-8.68 4.1-8.68 1.3 0 2 .84 2 2.84 0 3-2.4 5.24-6.2 5.84M155.87 73.56v9.36c-.76-1.64-2.44-2.12-3.72-2.12-5.44 0-7.6 6.36-7.6 11.28 0 6.72 3.6 9.16 6.84 9.16 2.5 0 4.4-1.72 5.2-3.8.4 2 1.4 3.8 3.8 3.8 1.7 0 4.3-.72 5.5-7.4h-1.5c-.6 2.88-1.6 4.36-2.9 4.36-1.7 0-1.8-2.56-1.8-3.6V73l-4 .56m-3.4 24.64c-2.4 0-3.7-1.84-3.7-6.4 0-3.72 1.3-8.8 4.7-8.8 1.2 0 2 .88 2.4 1.72v9.12c0 2.44-1.8 4.36-3.5 4.36M177 86c0-4.24-2.68-5.2-5.32-5.2-5.76 0-7.64 6.72-7.64 11.2 0 6.76 4.04 9.24 7.64 9.24 2.96 0 5.64-1.6 5.64-4 0-.28-.04-.64-.08-1-1 1.44-2.6 1.96-4.32 1.96-2.28 0-4.2-.96-4.6-5.2 5.4-.6 8.68-3.28 8.68-7m-8.72 5.44c0-3.92 1.36-8.68 4.16-8.68 1.28 0 2 .84 2 2.84 0 3-2.4 5.24-6.16 5.84M17.22 129.52V161l4.04-1v-10.68c.96 1.2 2.16 1.92 3.92 1.92 4.12 0 6.88-3.92 6.88-10.52 0-6.8-2.92-9.92-6.64-9.92-1.8 0-3.16.76-4.16 1.8v-3.08h-4.04m6.8 3.88c1.76 0 4.04 1.6 4.04 7.16 0 4.52-1.52 8.12-4.16 8.12-.92 0-1.88-.4-2.64-1.36v-12c.64-1.2 1.6-1.92 2.76-1.92M46.7 136c0-4.24-2.7-5.2-5.33-5.2-5.76 0-7.64 6.72-7.64 11.2 0 6.84 3.56 9.24 7.24 9.24 4.08 0 7.88-3.48 9.24-7.4H49c-1.4 3.12-3.8 4.36-6.32 4.36-2.27 0-4.2-.96-4.6-5.2 5.4-.6 8.7-3.28 8.7-7M38 141.44c0-3.92 1.35-8.68 4.15-8.68 1.28 0 2 .84 2 2.84 0 3-2.4 5.24-6.16 5.84"/><path d="M48.9 125.48V131h-1.36v1.4h1.36v13.04c0 2.64.88 5.8 4.72 5.8 1.84 0 4.48-.72 6.24-7.4h-1.48c-.76 2.92-2.16 4.36-3.6 4.36-1.8 0-1.88-2.36-1.88-3.6v-12.2h3.08V131H52.9v-6.08l-4 .56"/><path d="M58.35 131v14.44c0 2.6.92 5.8 4.6 5.8 1.76 0 4.36-.72 5.56-7.4h-1.4c-.6 2.88-1.6 4.36-2.8 4.36-1.7 0-1.8-2.56-1.8-3.6V131h-4m-.7-5.76c0 1.48 1.2 2.64 2.7 2.64 1.47 0 2.7-1.16 2.7-2.64 0-1.44-1.23-2.68-2.7-2.68-1.5 0-2.63 1.24-2.63 2.68"/><path d="M67.02 125.48V131h-1.36v1.4h1.36v13.04c0 2.64.88 5.8 4.72 5.8 1.84 0 4.48-.72 6.24-7.4H76.5c-.76 2.92-2.16 4.36-3.6 4.36-1.8 0-1.88-2.36-1.88-3.6v-12.2h3.08V131h-3.08v-6.08l-4 .56"/><path d="M88.96 136c0-4.24-2.68-5.2-5.32-5.2-5.76 0-7.64 6.72-7.64 11.2 0 6.84 3.56 9.24 7.24 9.24 4.08 0 7.88-3.48 9.24-7.4H91.2c-1.4 3.12-3.8 4.36-6.32 4.36-2.28 0-4.2-.96-4.6-5.2 5.4-.6 8.68-3.28 8.68-7m-8.72 5.44c0-3.92 1.36-8.68 4.16-8.68 1.28 0 2 .84 2 2.84 0 3-2.4 5.24-6.16 5.84"/><path d="M95.05 130.56c-.4 3.92-1.96 7.88-3.36 11.84-.8.44-1.5 1.52-1.5 2.92 0 2.6 1.3 5.92 5.9 5.92 2.3 0 6.2-1.4 6.2-5.36 0-4.2-.8-5.84-3.3-16.12l-4.1.8m3.1 14.88c0 1.96-1.2 2.8-2.8 2.8-1.8 0-2.9-1.08-3.3-2.96.3.4.62.56 1.02.56.66 0 1.3-.56 1.3-1.56 0-.88-.4-1.44-.9-1.76.8-2.88 2-5.52 2.34-8.48 1.5 6.96 2.27 8.12 2.27 11.4M113.86 143.84c0 5.56 2.44 7.4 5.76 7.4 5.84 0 8.76-5.6 8.76-11.68 0-6.92-3.84-8.64-6.68-8.64-1.72 0-2.92.64-3.8 1.56V123l-4 .56-.04 20.28m10.96-3.36c0 4.16-1.52 8-4.56 8-1.64 0-2.36-1.16-2.36-3.6v-10.52c.72-.8 1.64-1.36 2.72-1.36 2.68 0 4.2 3.36 4.2 7.48M130.62 131v14.44c0 2.6.92 5.8 4.6 5.8 1.76 0 4.36-.72 5.56-7.4h-1.48c-.6 2.88-1.6 4.36-2.88 4.36-1.72 0-1.8-2.56-1.8-3.6V131h-4m-.72-5.76c0 1.48 1.16 2.64 2.64 2.64 1.44 0 2.68-1.16 2.68-2.64 0-1.44-1.24-2.68-2.68-2.68-1.48 0-2.64 1.24-2.64 2.68"/><path d="M139.3 123.56v21.88c0 2.6.9 5.8 4.6 5.8 1.75 0 4.35-.72 5.55-7.4h-1.48c-.6 2.88-1.6 4.36-2.88 4.36-1.8 0-1.8-2.56-1.8-3.6V123l-4 .56"/><path d="M147.96 123.56v21.88c0 2.6.92 5.8 4.6 5.8 1.76 0 4.36-.72 5.56-7.4h-1.48c-.6 2.88-1.6 4.36-2.88 4.36-1.72 0-1.8-2.56-1.8-3.6V123l-4 .56"/><path d="M169.1 136c0-4.24-2.67-5.2-5.3-5.2-5.77 0-7.65 6.72-7.65 11.2 0 6.84 3.56 9.24 7.24 9.24 4 0 7.8-3.48 9.2-7.4h-1.3c-1.4 3.12-3.8 4.36-6.3 4.36-2.3 0-4.2-.96-4.6-5.2 5.4-.6 8.7-3.28 8.7-7m-8.7 5.44c0-3.92 1.3-8.68 4.1-8.68 1.3 0 2 .84 2 2.84 0 3-2.4 5.24-6.2 5.84"/><path d="M175.2 130.56c-.4 3.92-1.96 7.88-3.36 11.84-.8.44-1.44 1.52-1.44 2.92 0 2.6 1.28 5.92 5.96 5.92 2.28 0 6.2-1.4 6.2-5.36 0-4.2-.76-5.84-3.32-16.12l-4.04.8m3.12 14.88c0 1.96-1.12 2.8-2.8 2.8-1.76 0-2.84-1.08-3.24-2.96.32.4.68.56 1.08.56.64 0 1.28-.56 1.28-1.56 0-.88-.4-1.44-.88-1.76.8-2.88 2-5.52 2.32-8.48 1.48 6.96 2.24 8.12 2.24 11.4"/></g><g style="text-align:center;line-height:125%;-inkscape-font-specification:Lobster Two" font-size="40" letter-spacing="0" word-spacing="0" text-anchor="middle" font-family="Lobster Two"><path d="M45.75 329.8v31.48l4.04-1V349.6c.9 1.2 2.1 1.92 3.9 1.92 4.1 0 6.9-3.92 6.9-10.52 0-6.8-3-9.92-6.7-9.92-1.8 0-3.2.76-4.2 1.8v-3.08h-4m6.8 3.88c1.7 0 4 1.6 4 7.16 0 4.52-1.6 8.12-4.2 8.12-1 0-1.9-.4-2.7-1.36v-12c.6-1.2 1.6-1.92 2.7-1.92M62.7 331.28v20h4v-14.72c.92-.96 2.08-2 3.28-2 1.16 0 1.32 1 2.24 1 .64 0 1.84-.48 1.84-2.08 0-1.32-.84-2.4-2.64-2.4-2.28 0-3.48 1.68-4.72 3.56v-3.36h-4M88.66 336.28c0-4.24-2.68-5.2-5.32-5.2-5.76 0-7.64 6.72-7.64 11.2 0 6.84 3.56 9.24 7.24 9.24 4.08 0 7.88-3.48 9.24-7.4H90.9c-1.4 3.12-3.8 4.36-6.32 4.36-2.28 0-4.2-.96-4.6-5.2 5.4-.6 8.68-3.28 8.68-7m-8.72 5.44c0-3.92 1.36-8.68 4.16-8.68 1.28 0 2 .84 2 2.84 0 3-2.4 5.24-6.16 5.84M90.83 331.28v20h4v-12.8c.76-3.12 1.96-4.36 3.6-4.36 1.36 0 2.56.88 2.56 4.32 0 1.08-.2 5.96-.2 6.96 0 3.24 1.3 6.12 4.7 6.12 1.7 0 4.3-.72 5.5-7.4h-1.5c-.7 3.04-1.7 4.36-2.9 4.36-1.8 0-1.8-2.6-1.8-3.44 0-2.08.2-4.92.2-6.8 0-3.08-.7-7.16-5.5-7.16-1.4 0-3.3.32-4.8 3.24v-3.04h-4"/><path d="M120.26 323.84v9.36c-.76-1.64-2.4-2.12-3.8-2.12-5.36 0-7.52 6.4-7.52 11.4 0 6.48 3.6 9.04 6.8 9.04 2.56 0 4.44-1.68 5.24-3.76.48 2.68 1.96 3.76 3.6 3.76 1.56 0 3-.96 3-2.56 0-.28-.04-.48-.08-.72-.32.12-.92.24-1.32.24-1.88 0-1.92-2.36-1.92-3.6v-21.6l-4 .56m-3.68 24.64c-1.92 0-3.44-1.8-3.44-6.12 0-4 1.32-9.08 4.68-9.08 1.36 0 2.08.84 2.44 1.72v9.12c0 2.32-1.64 4.36-3.68 4.36M137.98 323.84v21.88c0 2.6.92 5.8 4.6 5.8 1.76 0 4.36-.72 5.56-7.4h-1.48c-.6 2.88-1.6 4.36-2.88 4.36-1.72 0-1.8-2.56-1.8-3.6v-21.6l-4 .56"/><path d="M159.13 336.28c0-4.24-2.68-5.2-5.32-5.2-5.7 0-7.6 6.72-7.6 11.2 0 6.76 4.1 9.24 7.7 9.24 3 0 5.7-1.6 5.7-4 0-.28 0-.64-.1-1-1 1.44-2.6 1.96-4.3 1.96-2.3 0-4.2-.96-4.6-5.2 5.4-.6 8.7-3.28 8.7-7m-8.7 5.44c0-3.92 1.4-8.68 4.2-8.68 1.3 0 2 .84 2 2.84 0 3-2.4 5.24-6.1 5.84M32.72 387.4c.36.52.84.84 1.48.84 1.04 0 1.56-1.04 1.56-2.36 0-3.12-1.8-4.8-5.16-4.8-6.04 0-7.4 6.68-7.4 11.12 0 6.92 3.96 9.32 7.64 9.32 3.92 0 7.48-3.48 8.76-7.4h-1.36c-1.36 2.96-3.28 4.36-6.08 4.36-2.6 0-4.72-1.2-4.72-6.8 0-3.8.88-8.48 3.76-8.48 1.4 0 2.2.88 2.2 2.12 0 .76-.24 1.72-.68 2.08"/><path d="M45.5 381.08c-6 0-7.8 6.44-7.8 11.12 0 6.88 3.9 9.32 7.47 9.32 4.32 0 6.84-3.96 6.84-10.52v-1.64c2.5-.4 5.1-1.56 6.1-3.28l-.6-1.08c-1.3 1.36-3.3 2.4-5.5 2.4h-.2c-.5-3.56-2.1-6.32-6.3-6.32m.4 17.4c-1.8 0-3.9-1.24-3.9-6.44 0-3.92 1.2-8.76 4.6-8.76 1.2 0 2.3.64 2.9 2.48-1 .04-1.6.48-1.6 1.72 0 1.36.7 1.92 2.2 2 .1.32.1.64.1.96 0 5.08-1.3 8.04-4.1 8.04"/><path d="M54.97 381.28v20h4v-12.8c.76-3.12 1.96-4.36 3.6-4.36 1.36 0 2.56.88 2.56 4.32 0 1.08-.12 5.96-.12 6.96 0 3.24 1.4 6.12 4.7 6.12 1.7 0 4.3-.72 5.5-7.4h-1.5c-.6 3.04-1.6 4.36-2.9 4.36-1.7 0-1.8-2.6-1.8-3.44 0-2.08.3-4.92.3-6.8 0-3.08-.6-7.16-5.5-7.16-1.3 0-3.2.32-4.8 3.24v-3.04h-4"/><path d="M73.68 375.76v5.52h-1.36v1.4h1.36v13.04c0 2.64.88 5.8 4.72 5.8 1.84 0 4.48-.72 6.24-7.4h-1.48c-.76 2.92-2.16 4.36-3.6 4.36-1.8 0-1.88-2.36-1.88-3.6v-12.2h3.08v-1.4h-3.08v-6.08l-4 .56"/><path d="M83.1 381.28v20h4v-14.72c.9-.96 2.07-2 3.27-2 1.16 0 1.32 1 2.24 1 .7 0 1.9-.48 1.9-2.08 0-1.32-.8-2.4-2.6-2.4-2.2 0-3.4 1.68-4.7 3.56v-3.36h-4M103.85 381.08c-6 0-7.8 6.44-7.8 11.12 0 6.88 3.92 9.32 7.48 9.32 4.32 0 6.84-3.96 6.84-10.52 0-.56-.04-1.12-.04-1.64 2.44-.4 5.08-1.56 6.12-3.28l-.6-1.08c-1.32 1.36-3.28 2.4-5.48 2.4h-.24c-.52-3.56-2.08-6.32-6.28-6.32m.4 17.4c-1.8 0-3.88-1.24-3.88-6.44 0-3.92 1.2-8.76 4.52-8.76 1.2 0 2.2.64 2.8 2.48-1.1.04-1.6.48-1.6 1.72 0 1.36.6 1.92 2.1 2v.96c0 5.08-1.3 8.04-4.1 8.04m5.6-19.64l-3.9-6.68h-.8l-6.68 6.68h1.36l5.6-4.04 3.44 4.04h.9"/><path d="M113.37 373.84v21.88c0 2.6.92 5.8 4.6 5.8 1.76 0 4.36-.72 5.56-7.4h-1.48c-.6 2.88-1.6 4.36-2.88 4.36-1.72 0-1.8-2.56-1.8-3.6v-21.6l-4 .56"/><path d="M134.52 386.28c0-4.24-2.68-5.2-5.32-5.2-5.76 0-7.64 6.72-7.64 11.2 0 6.76 4.04 9.24 7.64 9.24 2.96 0 5.64-1.6 5.64-4 0-.28-.04-.64-.08-1-1 1.44-2.6 1.96-4.32 1.96-2.28 0-4.2-.96-4.6-5.2 5.4-.6 8.68-3.28 8.68-7m-8.72 5.44c0-3.92 1.36-8.68 4.16-8.68 1.28 0 2 .84 2 2.84 0 3-2.4 5.24-6.16 5.84M156.98 373.84v9.36c-.76-1.64-2.44-2.12-3.72-2.12-5.44 0-7.6 6.36-7.6 11.28 0 6.72 3.6 9.16 6.84 9.16 2.52 0 4.4-1.72 5.2-3.8.4 2 1.44 3.8 3.88 3.8 1.76 0 4.36-.72 5.56-7.4h-1.48c-.6 2.88-1.6 4.36-2.88 4.36-1.72 0-1.8-2.56-1.8-3.6v-21.6l-4 .56m-3.48 24.64c-2.32 0-3.64-1.84-3.64-6.4 0-3.72 1.32-8.8 4.76-8.8 1.2 0 2 .88 2.36 1.72v9.12c0 2.44-1.84 4.36-3.48 4.36"/><path d="M175.1 381.28v12.84c0 2.76-1.6 4.36-3.1 4.36-1.4 0-2.4-1-2.4-3.6v-13.6h-4v14.04c0 4.56 2.5 6.2 5.63 6.2 1.8 0 3.6-1.16 4.6-3.76.48 2.72 1.96 3.76 3.6 3.76 1.56 0 3-.96 3-2.56 0-.28-.04-.48-.08-.72-.32.12-.92.24-1.32.24-1.88 0-1.92-2.36-1.92-3.6v-13.6h-4M18.17 431.28v20.48c-2.6 1.08-5.24 2.84-5.24 5.6 0 2.16 1.6 3.92 4.24 3.92 2.68 0 5-1.84 5-6.84v-2.56c3.56-1.08 5.32-2.08 6.16-7.76h-1.48c-.56 4.48-1.96 5.44-4.68 6.32v-19.16h-4m-.72-5.76c0 1.48 1.16 2.64 2.64 2.64 1.4 0 2.6-1.16 2.6-2.64 0-1.44-1.3-2.68-2.7-2.68-1.5 0-2.7 1.24-2.7 2.68m-1 33.68c-1.2 0-1.9-.8-1.9-2 0-1.48 1-2.64 3.6-3.84v2.8c0 1.88-.3 3.04-1.8 3.04"/><path d="M39.33 436.28c0-4.24-2.68-5.2-5.32-5.2-5.7 0-7.6 6.72-7.6 11.2 0 6.84 3.6 9.24 7.3 9.24 4.1 0 7.9-3.48 9.3-7.4h-1.3c-1.4 3.12-3.8 4.36-6.3 4.36-2.2 0-4.2-.96-4.6-5.2 5.4-.6 8.7-3.28 8.7-7m-8.7 5.44c0-3.92 1.4-8.68 4.2-8.68 1.3 0 2 .84 2 2.84 0 3-2.4 5.24-6.12 5.84"/><path d="M51 431.28v12.84c0 2.76-1.6 4.36-3.1 4.36-1.4 0-2.4-1-2.4-3.6v-13.6h-4v14.04c0 4.56 2.5 6.2 5.63 6.2 1.8 0 3.6-1.16 4.6-3.76.48 2.72 1.96 3.76 3.6 3.76 1.56 0 3-.96 3-2.56 0-.28-.04-.48-.08-.72-.32.12-.92.24-1.32.24-1.88 0-1.92-2.36-1.92-3.6v-13.6h-4M79.6 423.84v9.36c-.76-1.64-2.44-2.12-3.72-2.12-5.44 0-7.6 6.36-7.6 11.28 0 6.72 3.6 9.16 6.84 9.16 2.52 0 4.4-1.72 5.2-3.8.4 2 1.44 3.8 3.88 3.8 1.76 0 4.36-.72 5.56-7.4h-1.48c-.6 2.88-1.6 4.36-2.88 4.36-1.72 0-1.8-2.56-1.8-3.6v-21.6l-4 .56m-3.48 24.64c-2.32 0-3.64-1.84-3.64-6.4 0-3.72 1.32-8.8 4.76-8.8 1.2 0 2 .88 2.36 1.72v9.12c0 2.44-1.84 4.36-3.48 4.36"/><path d="M100.73 436.28c0-4.24-2.68-5.2-5.32-5.2-5.7 0-7.6 6.72-7.6 11.2 0 6.76 4.1 9.24 7.7 9.24 3 0 5.7-1.6 5.7-4 0-.28 0-.64-.1-1-1 1.44-2.6 1.96-4.3 1.96-2.3 0-4.2-.96-4.6-5.2 5.4-.6 8.7-3.28 8.7-7m-8.8 5.44c0-3.92 1.4-8.68 4.2-8.68 1.3 0 2 .84 2 2.84 0 3-2.4 5.24-6.1 5.84M112.47 423.84v21.88c0 2.6.92 5.8 4.6 5.8 1.76 0 4.36-.72 5.56-7.4h-1.48c-.6 2.88-1.6 4.36-2.88 4.36-1.72 0-1.8-2.56-1.8-3.6v-21.6l-4 .56"/><path d="M131.86 431.28v1.92c-.76-1.64-2.4-2.12-3.8-2.12-5.36 0-7.52 6.4-7.52 11.4 0 6.48 3.6 9.04 6.8 9.04 2.56 0 4.44-1.68 5.24-3.76.48 2.68 1.96 3.76 3.6 3.76 1.56 0 3-.96 3-2.56 0-.28-.04-.48-.08-.72-.32.12-.92.24-1.32.24-1.88 0-1.92-2.36-1.92-3.6v-13.6h-4m-3.68 17.2c-1.92 0-3.44-1.8-3.44-6.12 0-4 1.32-9.08 4.68-9.08 1.36 0 2.08.84 2.44 1.72v9.12c0 2.32-1.64 4.36-3.68 4.36M162.5 437.8c0-5.4-1.52-7.36-3.36-7.36-1.32 0-2.04 1-2.04 2.04 0 1 .64 2.12 1.92 2.12.24 0 .8-.04 1.04-.32.24 1.16.36 2.72.36 4.2 0 4.72-1.2 10-4.48 10-1.96 0-2.32-1.84-2.32-3.6v-13.6h-4v14.76c0 3.56 2.72 5.48 5.48 5.48 5.52 0 7.4-7.68 7.4-13.72M165.6 431.28v14.44c0 2.6.92 5.8 4.6 5.8 1.76 0 4.36-.72 5.56-7.4h-1.48c-.6 2.88-1.6 4.36-2.88 4.36-1.72 0-1.8-2.56-1.8-3.6v-13.6h-4m-.72-5.76c0 1.48 1.16 2.64 2.64 2.64 1.44 0 2.68-1.16 2.68-2.64 0-1.44-1.24-2.68-2.68-2.68-1.48 0-2.64 1.24-2.64 2.68"/><path d="M186.75 436.28c0-4.24-2.68-5.2-5.32-5.2-5.76 0-7.64 6.72-7.64 11.2 0 6.76 4 9.24 7.6 9.24 2.9 0 5.6-1.6 5.6-4 0-.28-.1-.64-.1-1-1 1.44-2.6 1.96-4.4 1.96-2.3 0-4.2-.96-4.6-5.2 5.4-.6 8.7-3.28 8.7-7m-8.7 5.44c0-3.92 1.3-8.68 4.1-8.68 1.22 0 2 .84 2 2.84 0 3-2.4 5.24-6.2 5.84"/></g></svg>
