<?xml version="1.0" encoding="UTF-8" standalone="no"?>
<!-- Created with Inkscape (http://www.inkscape.org/) -->

<svg
   xmlns:dc="http://purl.org/dc/elements/1.1/"
   xmlns:cc="http://creativecommons.org/ns#"
   xmlns:rdf="http://www.w3.org/1999/02/22-rdf-syntax-ns#"
   xmlns:svg="http://www.w3.org/2000/svg"
   xmlns="http://www.w3.org/2000/svg"
   xmlns:sodipodi="http://sodipodi.sourceforge.net/DTD/sodipodi-0.dtd"
   xmlns:inkscape="http://www.inkscape.org/namespaces/inkscape"
   id="svg2"
   height="36.272957"
   width="4.041821"
   version="1.1"
   inkscape:version="0.48.5 r10040"
   sodipodi:docname="top_header_bar.svg">
  <defs
     id="defs2999" />
  <sodipodi:namedview
     pagecolor="#ffffff"
     bordercolor="#666666"
     borderopacity="1"
     objecttolerance="10"
     gridtolerance="10"
     guidetolerance="10"
     inkscape:pageopacity="0"
     inkscape:pageshadow="2"
     inkscape:window-width="640"
     inkscape:window-height="480"
     id="namedview2997"
     showgrid="false"
     fit-margin-top="0"
     fit-margin-left="0"
     fit-margin-right="0"
     fit-margin-bottom="0"
     inkscape:zoom="4.720944"
     inkscape:cx="37.488338"
     inkscape:cy="14.764243"
     inkscape:window-x="0"
     inkscape:window-y="0"
     inkscape:window-maximized="0"
     inkscape:current-layer="svg2" />
  <metadata
     id="metadata7">
    <rdf:RDF>
      <cc:Work
         rdf:about="">
        <dc:format>image/svg+xml</dc:format>
        <dc:type
           rdf:resource="http://purl.org/dc/dcmitype/StillImage" />
        <dc:title />
      </cc:Work>
    </rdf:RDF>
  </metadata>
  <path
     style="opacity:0.86000001;fill:#000000;fill-opacity:1;stroke-width:3;stroke-miterlimit:4;stroke-dasharray:none"
     d="M 3.1496848,0 C 4.5690424,0.151213 2.7216918,1.893667 3.402221,2.810927 3.413544,3.825632 2.4883717,4.774538 3.6471524,5.490108 3.2671512,4.749808 2.3919072,4.614838 2.9506435,5.648368 c 0.1044747,0.93943 1.8535495,0.892 0.697966,1.96512 -1.009616,0.86043 -0.087526,2.1902 -0.6724748,3.22258 0.6453037,1.06571 -0.150598,2.24829 0.5983824,3.30679 0.1906323,0.64329 -0.7489426,1.44783 -0.060193,2.2438 0.198063,1.15974 -0.5684634,2.24253 0.2317675,3.26975 -0.508155,1.13634 -0.9321927,2.28904 -0.2357911,3.42739 -0.1417633,0.68435 -0.3698695,1.20965 0.5099316,1.43472 -1.0185482,0.57321 -0.9129203,1.43034 -0.4861995,2.30014 -0.090453,0.93981 -1.2215232,1.68059 -0.3171216,2.56284 0.2780111,0.6462 -0.4284479,1.56964 0.4673409,1.87796 -0.067678,0.79485 -0.5250348,1.51028 -0.1194728,2.36466 0.1277294,0.8428 -0.020715,1.54638 -0.8999977,1.75249 -0.5863953,0.29879 -1.1727905,0.59757 -1.7591858,0.89635 -1.7885717,-0.29311 0.512971,-1.48786 -0.2823593,-2.39799 0.8503536,-1.29817 -0.06758,-2.42487 -0.3211074,-3.74516 0.044908,-0.9659 0.9461508,-2.15625 -0.3021289,-2.7156 0.00718,-0.66439 1.2300285,-1.23481 0.1189873,-1.53904 0.027693,-1.11826 1.0463413,-2.31782 0.4188849,-3.56049 -0.2333368,-1.3842 0.6245967,-2.7398 0.1043535,-3.93236 0.6015469,-0.57587 0.2198519,-1.03829 -0.3740563,-1.27111 0.1973147,-0.76321 1.0618989,-1.263 0.066969,-1.8441 -0.4243912,-0.82432 1.0974359,-2.06862 -0.2160626,-2.77673 -0.4015903,-0.89066 1.0469462,-1.50572 0.2539487,-2.2835 0.041925,-1.16678 -0.068207,-2.23053 0.5907762,-3.3149 C 1.3639275,5.915988 -0.535971,6.397938 0.3063332,5.382978 0.7848406,4.265203 0.4323575,3.112343 0.3522922,1.984307 0.2713522,0.99045 0.6007599,1.995587 0.5234341,1.869402 0.194351,1.186722 1.0929591,1.143983 1.4953345,0.842935 2.0467835,0.561957 2.5982422,0.280977 3.1496853,0 z"
     id="path3011"
     inkscape:connector-curvature="0" />
</svg>
