<svg id="svg2" viewBox="0 0 1500 1500" height="744.09" width="1052.4" version="1.1" >
 <defs id="defs3003"></defs>
 <g id="layer1" stroke="#000" transform="translate(-546.11003,1401.2271)">
  <path id="path3101" stroke-linejoin="miter" d="m891.05-631.58c106.15,71.157,407.27,14.623,608.54-158.44,63.182-54.327,116.21-170.17,53.328-257.77-101.81-141.83-302.01-33.449-357.12,25.4-159.93,170.79-373.1,408.94-507.74,403.22-24.953-1.0606-54.368,5.7504-84.608-64.453-31.2,193.98,422.86,203.09,531.71,341.55,132.37,168.4-81.938,123.95,57.431,11.717,60.103-48.4,120.86-73.427,203.15-82.8,416.87-47.49,496.13-323.25,283.61-591.03-56.315-70.962-119-186.25-53.36-121.08,139.13,138.14,345.88,417.7,345.88,417.7s-186.3-229.95-312.58-464.01c-43.637-80.878-8.9644-115.96-67.935-179.74-64.582-69.849-184.5-18.342-196.62,76.012-10.298,80.128,64.192,165.13,122.78,142.68,19.772-7.5772-32.594-140.83-32.594-140.83l56.897,25.862" transform="translate(160,0)" stroke="#000" stroke-linecap="butt" stroke-miterlimit="4" stroke-dasharray="none" stroke-width="20" fill="none"/>
  <text id="text15" style="letter-spacing:0px;word-spacing:0px;" font-weight="normal" font-size="400px" font-style="normal" line-height="125%" dx="0 -130 -130 -130 -130" dy="0 230 230 230 230" y="-1100" x="150" font-family="Sans" fill="#000000">CHÈRE</text>
  <text id="text3073" opacity="0.86000001" style="letter-spacing:0px;word-spacing:0px;" font-weight="normal" xml:space="preserve" font-size="400px" font-style="normal" y="100" x="150" font-family="Sans" line-height="125%" fill="#fb0707"><tspan id="tspan3075" x="150" y="100">DE</tspan></text>
  <text id="text3845" style="letter-spacing:0px;word-spacing:0px;" font-weight="normal" xml:space="preserve" font-size="400px" font-style="normal" y="100" x="800" font-family="Sans" line-height="125%" fill="#000000"><tspan id="tspan3847" x="800" y="100">PRINCE</tspan></text>
 </g>
</svg>
