<?xml version="1.0" encoding="UTF-8" standalone="no"?>
<svg id="svg2" xmlns:rdf="http://www.w3.org/1999/02/22-rdf-syntax-ns#" xmlns="http://www.w3.org/2000/svg" enable-background="new 0 0 239.098 194.191" xml:space="preserve" height="186" width="231" version="1.1" y="0px" x="0px" xmlns:cc="http://creativecommons.org/ns#" xmlns:dc="http://purl.org/dc/elements/1.1/" viewBox="0 0 231.16699 185.833"><metadata id="metadata51"><rdf:RDF><cc:Work rdf:about=""><dc:format>image/svg+xml</dc:format><dc:type rdf:resource="http://purl.org/dc/dcmitype/StillImage"/><dc:title/></cc:Work></rdf:RDF></metadata><g id="Calque_5" transform="translate(-0.01500713,-8)" display="none" stroke="#172983" stroke-width="0.5" fill="#00aad3"><polyline id="polyline5" points="239,0.25,231,8.25,0.599,8.32,8.52,0.325,50,0.325,239,0.25,239,186,231,194,231,8.25" display="inline"/><path id="path7" d="m0.266,51.1,7.92-8,0.839,0.297c5.48,1.59,12.6,6.79,21.5,15l2.44,3.31,62.2,84c-47.3-53.8-77.8-89.9-94-94.6l-0.834-0.3" display="inline"/><path id="path9" stroke-linejoin="round" d="M12.4,34" display="inline" stroke-linecap="round"/></g><g id="Calque_3" transform="translate(-0.01500713,-8)"><path id="path12" stroke-width="0.5" d="m0.265,188v5.33h231v-185l-189,0.075h-41.5s15,5.18,11.8,25.7l82.9,112c-47.3-53.8-77.8-89.9-94-94.6l-0.839-0.297,0.025,2.01s43.6,47.7-0.025,97.1l-0.001,38.1z" stroke="#000"/></g><g id="Calque_4" fill="#FFF" transform="translate(-0.01500713,-8)"><g id="g15"><path id="path17" d="m80.9,40.8c0.389,11.4-5.86,17.1-15.5,17.1-10.3,0-17.5-6.95-17.5-16.1,0-9.11,7.22-16,16.9-16,4,0,8.54,1.19,11.2,2.97l0.888,6.22h-0.366c-1.34-5.14-6.57-7.86-11.7-7.86-7.83,0-13.6,6.25-13.6,14.6,0,8.32,5.76,14.8,14.4,14.8,8.71,0,14.9-5.85,14.9-15.8l0.439-0.003z"/><path id="path19" d="m121,57.3h-9.63l0.007-0.44h0.557c1.53,0,2.77-1.23,2.82-2.75v-11.5h-18.3v11.4c0.029,1.53,1.28,2.75,2.82,2.75h0.557l0.007,0.44h-9.63l0.007-0.44h0.557c1.54,0,2.79-1.22,2.82-2.75v-24.3c0-1.48-1.2-2.78-2.8-2.78h-0.557l-0.007-0.44h9.63l-0.007,0.44h-0.557c-1.53,0-2.78,1.22-2.82,2.74v11.8h18v-11.8c-0.058-1.51-1.3-2.71-2.82-2.71h-0.557l-0.007-0.44h9.63l-0.007,0.44h-0.6c-1.54,0-2.79,1.23-2.82,2.77v24.4c0.029,1.53,1.28,2.75,2.82,2.75h0.557l0.007,0.441z"/><path id="path21" d="M153,50.2,150,57.3h-17.9l0.008-0.44h0.557c1.54,0,2.79-1.23,2.82-2.77v-24.6c0-1.42-1.35-2.52-2.8-2.52h-0.557l-0.007-0.438h12.9c1.9-0.018,4.43-0.456,5.25-0.8v5.55l-0.444-0.006v-0.84c0-1.4-1.09-2.54-2.46-2.62h-8.97v13.6h7.44c1.18-0.022,2.13-0.983,2.13-2.17v-0.57l0.431-0.005v6.96l-0.431-0.005v-0.648c0-1.17-0.925-2.12-2.08-2.17h-7.48v13.2h6.31c4.66,0,6.45-2.41,7.81-5.76l0.443-0.001zm-7-33.6c-2.36-1.12-4.72-2.37-7.08-3.75,0.468-0.904,1.11-1.68,1.8-2.32,1.86,1.79,3.72,3.71,5.59,5.76l-0.308,0.309z"/><path id="path23" d="m175,26.5c5.33,0,8.6,3.14,8.6,8.27,0,4.26-3.24,8.39-7.48,8.39,0.944,0.436,2.3,1.89,3.15,3.1,0,0,3.79,5.42,5.5,7.28,1.77,1.93,3.4,3.31,5.98,3.33v0.441h-3.9c-4.1,0-6.29-2.21-7.68-3.86-0.5-0.597-5.46-7.81-5.8-8.24-1.15-1.44-2.44-2.97-4.04-2.97v-0.407s1,0.021,2.32-0.015c2.28-0.062,5.62-0.606,6.87-4.57,0.193-0.617,0.306-1.67,0.279-2.64-0.108-3.98-2.18-6.53-5.46-6.71-2.24-0.123-4.91-0.014-5.48-0.034v26.2c0.029,1.53,1.28,2.77,2.82,2.77h0.557l0.007,0.44h-9.61l0.007-0.44h0.557c1.53,0,2.78-1.22,2.82-2.75v-24.5c-0.029-1.53-1.28-2.77-2.82-2.77h-0.557l-0.007-0.437,11.9-0.001z"/><path id="path25" d="m218,50.2-2.56,7.11h-17.8l0.008-0.44h0.557c1.54,0,2.79-1.23,2.82-2.77v-24.6c0-1.42-1.35-2.52-2.8-2.52h-0.557l-0.007-0.437h12.9c1.9-0.018,4.43-0.457,5.25-0.801v5.55l-0.444-0.006v-0.784c0-1.4-1.09-2.54-2.46-2.62h-8.97v13.6h7.44c1.18-0.022,2.13-0.983,2.13-2.17v-0.648l0.431-0.005v6.96l-0.431-0.005v-0.648c0-1.17-0.925-2.12-2.08-2.17h-7.48v13.2h6.31c4.66,0,6.45-2.41,7.81-5.76l0.442-0.001z"/></g><g id="g27"><path id="path29" d="m117,84.7c9.4,0,15.8,6.16,15.8,15.4,0,9.23-6.4,15.4-15.8,15.4h-14.9l0.007-0.44h0.557c1.54,0,2.79-1.23,2.82-2.76v-24.3c0-1.42-1.35-2.52-2.8-2.52h-0.557l-0.007-0.436,14.9,0.003zm-8.65,29.5h8.65c7.54,0,12.5-5.62,12.5-14,0-8.46-5.01-14.1-12.5-14.1h-8.65v28.1z"/><path id="path31" d="m163,108-2.56,7.11h-17.5l0.008-0.44h0.557c1.54,0,2.79-1.23,2.82-2.77v-24.6c0-1.42-1.35-2.52-2.8-2.52h-0.557l-0.007-0.437h12.9c1.9-0.018,4.43-0.457,5.25-0.801v5.56l-0.444-0.006v-0.49c0-1.4-1.09-2.54-2.46-2.62h-8.97v13.6h7.44c1.18-0.022,2.13-0.983,2.13-2.17v-0.62l0.431-0.005v6.96l-0.431-0.005v-0.648c0-1.17-0.925-2.12-2.08-2.17h-7.48v13.2h6.31c4.66,0,6.45-2.41,7.81-5.76l0.443-0.002z"/></g><g id="g33"><path id="path35" d="m11.5,147c4.3-0.454,9.24-1.46,11.6-1.75,7.68-0.961,12.9,2.59,13.2,9.74,0.19,5.95-3.17,10.4-8.64,10.7-3.26,0.192-6.67-1.1-7.15-4.99l0.432-0.145c0.766,2.97,3.98,3.79,6.38,3.36,3.65-0.672,5.54-4.42,5.38-8.93-0.225-6.19-4.08-8.88-9.74-8.26-1.29,0.154-2.88,0.485-4.56,0.777v28.5c0.046,1.77,1.49,3.02,3.07,3.02h0.612l0.007,0.48h-10.7l0.007-0.48h0.617c1.58,0,3.02-1.25,3.07-3.02v-26c-0.008-1.58-1.01-2.8-3.07-2.58l-0.583,0.064-0.066-0.473z"/><path id="path37" d="m60.1,146c5.82,0,9.38,3.43,9.38,9.02,0,4.65-3.54,9.15-8.15,9.15,1.03,0.475,2.5,2.06,3.44,3.38,0,0,4.14,5.91,6,7.94,1.93,2.11,3.71,3.61,6.53,3.63v0.482h-2.63c-4.47,0-6.87-2.41-8.38-4.21-0.546-0.651-5.96-8.52-6.32-8.98-1.26-1.58-2.66-3.24-4.41-3.24v-0.444s1.09,0.023,2.54-0.016c2.49-0.067,6.13-0.661,7.49-4.98,0.211-0.673,0.334-1.82,0.305-2.87-0.118-4.34-2.38-7.12-5.96-7.32-2.45-0.134-5.35-0.016-5.98-0.038v28.6c0.031,1.67,1.4,3.02,3.07,3.02h0.607l0.008,0.479h-10.5l0.008-0.479h0.607c1.67,0,3.03-1.33,3.07-3v-26.6c-0.031-1.67-1.4-3.02-3.08-3.02h-0.65l-0.008-0.477h12.9z"/><path id="path39" d="M95.1,179h-10.5l0.008-0.48h0.607c1.68,0,3.04-1.35,3.08-3.02v-26.6c-0.042-1.66-1.4-3-3.07-3h-0.61l-0.008-0.48h10.5l-0.008,0.48h-0.607c-1.67,0-3.03,1.33-3.07,2.99v26.6c0.031,1.67,1.4,3.02,3.08,3.02h0.606l0.007,0.48z"/><path id="path41" d="m143,146-0.007,0.48h-0.887c-1.6,0-2.91,1.28-2.96,2.87v24.8c0,3.09,0.438,6.12,0.438,6.12h-0.436l-26.2-27.9v23.9c0.05,1.6,1.36,2.87,2.96,2.87h0.886l0.008,0.48h-9.89l0.008-0.48h0.886c1.62,0,2.93-1.3,2.96-2.91v-24.9c0-3.28-0.442-6-0.442-6h0.474l26.1,27.9v-23.8c-0.03-1.61-1.34-2.91-2.96-2.91h-0.886l-0.007-0.479h9.89z"/><path id="path43" d="m184,165-0.585,7.53c-2.53,4.14-6.82,7.15-13.5,7.15-10-0.048-17.1-6.91-17.1-17.5,0-10.4,6.86-17.4,17.4-17.4,4.7,0,8.54,1.39,11.4,3.24l0.969,6.78h-0.399c-1.46-5.6-6.16-8.58-11.9-8.58-8.44,0-13.8,6.38-13.8,15.9,0,9.65,5.47,15.9,13.5,16.1,6.82-0.021,12.6-3.42,13.7-13.2h0.399z"/><path id="path45" d="m219,172-2.8,7.76h-19.9l0.008-0.48h0.607c1.68,0,3.04-1.35,3.08-3.02v-26.9c0-1.54-1.47-2.75-3.06-2.75h-0.607l-0.008-0.478h14c2.07-0.02,4.83-0.498,5.72-0.873v6.06l-0.485-0.007v-0.855c0-1.52-1.19-2.77-2.69-2.86h-9.79v14.8h8.11c1.29-0.024,2.32-1.07,2.32-2.36v-0.708l0.469-0.006v7.6l-0.469-0.006v-0.707c0-1.28-1.01-2.31-2.27-2.36h-8.16v14.4h6.88c5.09,0,7.04-2.63,8.52-6.29h0.484z"/></g></g></svg>
