<?xml version="1.0" encoding="UTF-8" standalone="no"?>
<!-- Created with Inkscape (http://www.inkscape.org/) -->
<svg id="svg2" xmlns:rdf="http://www.w3.org/1999/02/22-rdf-syntax-ns#" xmlns="http://www.w3.org/2000/svg" height="123.03" width="302.9" version="1.1" xmlns:cc="http://creativecommons.org/ns#" xmlns:dc="http://purl.org/dc/elements/1.1/">
 <defs id="defs4"></defs>
 <metadata id="metadata7">
  <rdf:RDF>
   <cc:Work rdf:about="">
    <dc:format>image/svg+xml</dc:format>
    <dc:type rdf:resource="http://purl.org/dc/dcmitype/StillImage"/>
    <dc:title/>
   </cc:Work>
  </rdf:RDF>
 </metadata>
 <g id="layer1" transform="translate(-78.623873,-300.00927)">
  <path id="path3783" d="M290.16,297.25,176.1,280.25,96.349,307.12-31.593,318.37-48.005,234.87,79.177,181.01,224.38,194.69z" transform="matrix(0.89570553,0,0,0.89570553,121.62264,137.87561)" fill="#CCC"/>
  <g id="flowRoot2985" style="writing-mode:lr-tb;letter-spacing:0px;word-spacing:0px;" font-weight="normal" font-size="40px" font-style="normal" font-stretch="normal" line-height="125%" font-variant="normal" font-family="Montez" fill="#000">
   <path id="path3825" style="" d="m159.62,340.15c-0.00002,0.93751-0.17581,1.8164-0.52735,2.6367-0.35158,0.82033-0.82684,1.5755-1.4258,2.2656-0.58595,0.6771-1.2696,1.2891-2.0508,1.8359-0.78127,0.54688-1.6016,1.0091-2.4609,1.3867-0.85939,0.36459-1.7383,0.65105-2.6367,0.85937-0.88542,0.19532-1.7318,0.29298-2.5391,0.29297h-0.11719v-0.39063c1.1719-0.14321,2.3047-0.50129,3.3984-1.0742,1.1068-0.58593,2.0833-1.3216,2.9297-2.207,0.85936-0.8854,1.543-1.888,2.0508-3.0078,0.52081-1.1198,0.78123-2.2916,0.78125-3.5156-0.00002-0.66404-0.0912-1.263-0.27344-1.7969-0.16929-0.54685-0.4297-1.0091-0.78125-1.3867-0.33856-0.3906-0.76824-0.69008-1.2891-0.89843-0.52085-0.20831-1.1263-0.31248-1.8164-0.3125-1.3932,0.00002-2.6563,0.2995-3.7891,0.89843-1.1198,0.58596-2.1159,1.3737-2.9883,2.3633-0.8724,0.97659-1.6276,2.1029-2.2656,3.3789-0.62501,1.2761-1.1458,2.6042-1.5625,3.9844-0.40365,1.3802-0.70313,2.7669-0.89844,4.1602-0.19532,1.3802-0.29297,2.6628-0.29297,3.8477,0,0.95052,0.0586,1.9141,0.17578,2.8906,0.13021,0.96355,0.33203,1.8945,0.60547,2.793,0.27343,0.89844,0.62499,1.7383,1.0547,2.5195,0.42968,0.79427,0.944,1.4844,1.543,2.0703,0.61197,0.58593,1.3151,1.0482,2.1094,1.3867,0.79426,0.33854,1.6992,0.50781,2.7148,0.50782,0.70312-0.00001,1.3802-0.13022,2.0312-0.39063,0.65103-0.26042,1.263-0.60547,1.8359-1.0352,0.5729-0.4297,1.0872-0.91798,1.543-1.4648,0.46873-0.54687,0.86587-1.1068,1.1914-1.6797l0.23437,0.11719c-0.22137,0.80729-0.59897,1.6016-1.1328,2.3828-0.53387,0.78125-1.1719,1.4714-1.9141,2.0703-0.72918,0.61197-1.53,1.1002-2.4024,1.4648-0.85938,0.3776-1.7253,0.5664-2.5976,0.56641-1.1589-0.00001-2.207-0.1823-3.1445-0.54688-0.93751-0.35157-1.7774-0.84636-2.5195-1.4844-0.72917-0.62501-1.3607-1.3672-1.8945-2.2266-0.53385-0.84635-0.97656-1.7643-1.3281-2.7539-0.35157-1.0026-0.61198-2.0443-0.78125-3.125-0.16927-1.0938-0.25391-2.1875-0.25391-3.2812,0-1.4323,0.14974-2.9297,0.44922-4.4922s0.74219-3.0989,1.3281-4.6094c0.58593-1.5104,1.3021-2.9427,2.1484-4.2969,0.85937-1.3672,1.8424-2.5651,2.9492-3.5938,1.1068-1.0416,2.3307-1.862,3.6719-2.4609,1.3542-0.61195,2.8125-0.91794,4.375-0.91797,0.97654,0.00003,1.8685,0.14326,2.6758,0.42969,0.80727,0.27347,1.4974,0.67711,2.0703,1.2109,0.58592,0.53388,1.0351,1.1914,1.3477,1.9727,0.31248,0.76825,0.46873,1.6537,0.46875,2.6562"/>
   <path id="path3827" style="" d="m176.75,357.96c-0.22137,0.46875-0.49481,0.9375-0.82031,1.4062-0.31252,0.45573-0.66408,0.87239-1.0547,1.25-0.39064,0.36458-0.82032,0.66406-1.2891,0.89843-0.46876,0.23438-0.97006,0.35156-1.5039,0.35157-0.58595-0.00001-1.0938-0.15626-1.5234-0.46875-0.4297-0.29948-0.79428-0.69662-1.0938-1.1914-0.29949-0.50781-0.54689-1.0872-0.74219-1.7383-0.19532-0.65104-0.35808-1.3216-0.48828-2.0117-0.13022-0.6901-0.2409-1.3802-0.33203-2.0703-0.0781-0.6901-0.15626-1.3216-0.23438-1.8945-0.41667,0.54688-0.79428,1.1263-1.1328,1.7383-0.33855,0.61198-0.66407,1.25-0.97656,1.9141-0.31251,0.65104-0.6185,1.3151-0.91797,1.9922-0.29949,0.67708-0.6185,1.3476-0.95703,2.0117-0.0781,0.14322-0.15626,0.29947-0.23438,0.46875-0.0781,0.15625-0.16927,0.29947-0.27344,0.42968-0.10417,0.14323-0.22786,0.26042-0.37109,0.35157-0.14323,0.0911-0.3125,0.13671-0.50781,0.13671-0.1823,0-0.33855-0.0326-0.46875-0.0977-0.11719-0.0651-0.22136-0.14974-0.3125-0.25391-0.0781-0.0911-0.14323-0.19531-0.19531-0.3125-0.0391-0.11719-0.0716-0.22786-0.0977-0.33203-0.15625-0.55989-0.29948-1.263-0.42969-2.1094-0.11719-0.84636-0.22135-1.7513-0.3125-2.7148-0.0911-0.96353-0.16276-1.9401-0.21484-2.9297-0.0391-1.0026-0.0586-1.9271-0.0586-2.7734,0-1.2109,0.0781-2.4544,0.23438-3.7305,0.15625-1.289,0.39713-2.5456,0.72266-3.7695,0.33854-1.2239,0.76171-2.3763,1.2695-3.457,0.52083-1.0937,1.1328-2.0508,1.8359-2.8711,0.70312-0.82029,1.5039-1.4713,2.4024-1.9531,0.91145-0.48175,1.9271-0.72263,3.0469-0.72266,0.74218,0.00003,1.3281,0.22138,1.7578,0.66406,0.42967,0.42972,0.64451,1.0482,0.64453,1.8555-0.00002,1.211-0.21486,2.3763-0.64453,3.4961-0.41668,1.1068-0.95705,2.168-1.6211,3.1836-0.65105,1.0156-1.3802,1.9792-2.1875,2.8906-0.79428,0.89846-1.5625,1.7318-2.3047,2.5l-0.2539-0.19531c0.32551-0.36457,0.67056-0.81379,1.0352-1.3476,0.3776-0.54686,0.74218-1.1328,1.0938-1.7578,0.36458-0.638,0.70963-1.3021,1.0352-1.9922,0.32551-0.70311,0.61197-1.3932,0.85938-2.0703,0.24738-0.67706,0.44269-1.3281,0.58593-1.9531,0.14322-0.638,0.21484-1.2174,0.21485-1.7383-0.00001-0.27342-0.0261-0.53383-0.0781-0.78125-0.0521-0.24737-0.14324-0.46222-0.27344-0.64453-0.13021-0.19529-0.29948-0.34503-0.50781-0.44922-0.19532-0.11717-0.43621-0.17576-0.72265-0.17578-0.57293,0.00002-1.1133,0.22137-1.6211,0.66406-0.4948,0.44273-0.95053,1.0417-1.3672,1.7969-0.41667,0.74221-0.78776,1.6081-1.1133,2.5977-0.3125,0.9896-0.58594,2.0248-0.82031,3.1055-0.22136,1.0807-0.39063,2.1745-0.50781,3.2812-0.11719,1.1068-0.17579,2.1615-0.17578,3.1641-0.00001,0.67709-0.00001,1.3607,0,2.0508-0.00001,0.69011,0.013,1.4128,0.0391,2.168,0.0391,0.75521,0.0976,1.556,0.17578,2.4023,0.0911,0.84636,0.21484,1.7643,0.37109,2.7539,0.57292-1.4844,1.1784-2.9362,1.8164-4.3555,0.63802-1.4323,1.3281-2.7409,2.0703-3.9258,0.10416-0.16926,0.20833-0.33853,0.3125-0.50781,0.11718-0.16926,0.24088-0.319,0.3711-0.44922,0.1302-0.14322,0.27343-0.26041,0.42968-0.35156,0.15625-0.0911,0.32552-0.13671,0.50782-0.13672,0.22134,0.00001,0.39712,0.0651,0.52734,0.19531,0.1302,0.1172,0.23437,0.26694,0.3125,0.44922,0.0781,0.1823,0.1302,0.37761,0.15625,0.58594,0.0391,0.20834,0.0716,0.39714,0.0977,0.5664,0.0521,0.37762,0.11066,0.8659,0.17578,1.4648,0.0651,0.59896,0.14322,1.2435,0.23437,1.9336,0.0911,0.67709,0.20181,1.3607,0.33203,2.0508,0.14322,0.69011,0.319,1.3151,0.52735,1.875,0.22134,0.54688,0.48176,0.9961,0.78125,1.3477,0.29946,0.35156,0.65754,0.52734,1.0742,0.52734,0.33852,0,0.67707-0.0716,1.0156-0.21484,0.33853-0.14323,0.66405-0.32552,0.97656-0.54688,0.31249-0.22135,0.59895-0.47526,0.85938-0.76172,0.27342-0.28645,0.50128-0.5664,0.68359-0.83984l0.15625,0.0781"/>
   <path id="path3829" style="" d="m188.25,358.04c-0.33855,0.49479-0.74871,0.95703-1.2305,1.3867-0.46876,0.42969-0.98959,0.80078-1.5625,1.1133-0.5599,0.3125-1.1524,0.5599-1.7773,0.74219-0.61199,0.18229-1.2305,0.27343-1.8555,0.27344-0.88542-0.00001-1.7122-0.11719-2.4805-0.35157-0.76823-0.22135-1.4388-0.5664-2.0117-1.0352-0.57292-0.46875-1.0221-1.0547-1.3477-1.7578-0.32552-0.71614-0.48828-1.5495-0.48828-2.5,0-0.93749,0.16927-1.8099,0.50782-2.6172,0.35156-0.82031,0.82682-1.5299,1.4258-2.1289,0.61197-0.61197,1.3281-1.0937,2.1484-1.4453,0.82031-0.35155,1.6992-0.52733,2.6367-0.52735,0.4427,0.00002,0.85286,0.0651,1.2305,0.19532,0.39062,0.1172,0.72916,0.29949,1.0156,0.54687,0.28645,0.23439,0.5078,0.52736,0.66406,0.87891,0.16926,0.35157,0.2539,0.75522,0.25391,1.2109-0.00001,0.54688-0.11069,1.0286-0.33204,1.4453-0.22136,0.41667-0.51433,0.78125-0.8789,1.0938-0.36459,0.3125-0.78126,0.57292-1.25,0.78125-0.45574,0.20834-0.93751,0.37761-1.4453,0.50781-0.4948,0.13021-0.98959,0.22787-1.4844,0.29297-0.48177,0.0521-0.92448,0.0781-1.3281,0.0781h-0.46875c0.16926,1.1849,0.63801,2.0898,1.4062,2.7148,0.76822,0.625,1.8294,0.9375,3.1836,0.9375,0.96353,0,1.901-0.16927,2.8125-0.50781,0.92447-0.33854,1.7578-0.80729,2.5-1.4062l0.15625,0.0781m-10.117-2.4023,0.48828,0c0.46875,0,0.95052-0.0716,1.4453-0.21485,0.49478-0.15624,0.93749-0.3776,1.3281-0.66406,0.40364-0.29947,0.73567-0.66406,0.99609-1.0938,0.26041-0.42968,0.39062-0.91796,0.39063-1.4648-0.00001-0.53385-0.1172-0.97656-0.35156-1.3281-0.22136-0.35155-0.61199-0.52733-1.1719-0.52734-0.57292,0.00001-1.0612,0.17579-1.4648,0.52734-0.39063,0.33855-0.70964,0.76173-0.95703,1.2695-0.2474,0.4948-0.42969,1.0222-0.54688,1.582-0.10417,0.54689-0.15625,1.0352-0.15625,1.4648v0.44922m6.0156-7.8125c-1.276-0.59895-2.4154-1.2825-3.418-2.0508-0.98959-0.78124-1.888-1.7252-2.6953-2.832l2.5-1.6797c0.22134,0.66408,0.46874,1.2761,0.74218,1.8359,0.27343,0.55992,0.5664,1.0938,0.87891,1.6016,0.32551,0.4948,0.67056,0.97657,1.0352,1.4453,0.37759,0.46876,0.76822,0.93751,1.1719,1.4062l-0.21484,0.27344"/>
   <path id="path3831" style="" d="m202.31,358.04c-0.23439,0.52084-0.53387,0.98959-0.89844,1.4062-0.35157,0.41667-0.73569,0.77474-1.1523,1.0742-0.41668,0.28646-0.84637,0.50781-1.2891,0.66406-0.44272,0.16927-0.8659,0.25391-1.2695,0.25391-0.75521,0-1.3932-0.13021-1.9141-0.39063-0.52084-0.26041-0.94402-0.61198-1.2695-1.0547-0.32553-0.44271-0.5599-0.96354-0.70312-1.5625-0.14324-0.59896-0.21485-1.237-0.21485-1.9141,0-0.52083,0.0391-1.0612,0.11719-1.6211,0.0781-0.55989,0.18879-1.1002,0.33203-1.6211,0.026-0.0781,0.0521-0.16927,0.0781-0.27344,0.026-0.11718,0.0391-0.21484,0.0391-0.29297-0.00001-0.0651-0.0391-0.11718-0.11719-0.15625-0.22136-0.0781-0.45574-0.14973-0.70312-0.21484-0.24741-0.0781-0.4948-0.16276-0.74219-0.25391-0.23438-0.0911-0.46225-0.1953-0.6836-0.3125-0.20833-0.11718-0.39063-0.26692-0.54687-0.44922-0.013,0.78126-0.14323,1.5755-0.39063,2.3828-0.2474,0.79428-0.57943,1.5625-0.99609,2.3047-0.40365,0.72917-0.87891,1.4128-1.4258,2.0508-0.54688,0.63802-1.1263,1.1914-1.7383,1.6602l-0.19531-0.19531c0.3776-0.41667,0.72265-0.91146,1.0352-1.4844,0.3125-0.57291,0.57943-1.1719,0.80078-1.7969,0.22136-0.625,0.39063-1.2565,0.50782-1.8945,0.1302-0.63801,0.19531-1.237,0.19531-1.7969,0-0.28645-0.026-0.55338-0.0781-0.80078-0.0521-0.26041-0.11068-0.50781-0.17578-0.74219-0.0521-0.23436-0.10417-0.45572-0.15625-0.66406-0.0521-0.22135-0.0781-0.4427-0.0781-0.66406,0-0.36458,0.11718-0.65103,0.35156-0.85938,0.23437-0.20832,0.53385-0.31249,0.89844-0.3125,0.19531,0.00001,0.34505,0.0586,0.44922,0.17578,0.10416,0.10418,0.1953,0.23439,0.27343,0.39063,0.0781,0.15626,0.16927,0.31902,0.27344,0.48828,0.10416,0.16928,0.2539,0.31251,0.44922,0.42969,0.24739,0.14324,0.55989,0.2474,0.9375,0.3125,0.3776,0.0651,0.77473,0.1237,1.1914,0.17578,0.41666,0.0521,0.83332,0.10417,1.25,0.15625,0.41665,0.0521,0.78775,0.14324,1.1133,0.27343,0.33853,0.1172,0.61197,0.28647,0.82031,0.50782,0.20832,0.20834,0.31249,0.4948,0.3125,0.85937-0.00001,0.1823-0.0195,0.36459-0.0586,0.54688-0.0261,0.16928-0.0716,0.33204-0.13672,0.48828-0.15626,0.54688-0.29298,1.1068-0.41016,1.6797-0.10418,0.5599-0.15626,1.1198-0.15625,1.6797-0.00001,0.48178,0.0325,0.92449,0.0977,1.3281,0.0781,0.39063,0.21483,0.72917,0.41015,1.0156,0.19531,0.28646,0.45572,0.50782,0.78125,0.66407,0.32551,0.15625,0.74218,0.23437,1.25,0.23437,0.72916,0,1.3672-0.17578,1.9141-0.52734,0.54686-0.36459,1.0286-0.83985,1.4453-1.4258l0.17578,0.0781"/>
   <path id="path3833" style="" d="m213.64,358.04c-0.33855,0.49479-0.74871,0.95703-1.2305,1.3867-0.46877,0.42969-0.9896,0.80078-1.5625,1.1133-0.55991,0.3125-1.1524,0.5599-1.7774,0.74219-0.61198,0.18229-1.2305,0.27343-1.8555,0.27344-0.88542-0.00001-1.7122-0.11719-2.4805-0.35157-0.76823-0.22135-1.4388-0.5664-2.0117-1.0352-0.57292-0.46875-1.0221-1.0547-1.3477-1.7578-0.32552-0.71614-0.48828-1.5495-0.48828-2.5,0-0.93749,0.16927-1.8099,0.50781-2.6172,0.35156-0.82031,0.82682-1.5299,1.4258-2.1289,0.61198-0.61197,1.3281-1.0937,2.1484-1.4453,0.82031-0.35155,1.6992-0.52733,2.6367-0.52735,0.4427,0.00002,0.85286,0.0651,1.2305,0.19532,0.39061,0.1172,0.72915,0.29949,1.0156,0.54687,0.28645,0.23439,0.5078,0.52736,0.66406,0.87891,0.16927,0.35157,0.2539,0.75522,0.25391,1.2109-0.00001,0.54688-0.11069,1.0286-0.33203,1.4453-0.22136,0.41667-0.51433,0.78125-0.87891,1.0938-0.36459,0.3125-0.78125,0.57292-1.25,0.78125-0.45573,0.20834-0.9375,0.37761-1.4453,0.50781-0.4948,0.13021-0.98959,0.22787-1.4844,0.29297-0.48178,0.0521-0.92449,0.0781-1.3281,0.0781h-0.46875c0.16927,1.1849,0.63802,2.0898,1.4062,2.7148,0.76822,0.625,1.8294,0.9375,3.1836,0.9375,0.96354,0,1.901-0.16927,2.8125-0.50781,0.92447-0.33854,1.7578-0.80729,2.5-1.4062l0.15625,0.0781m-10.117-2.4023,0.48828,0c0.46874,0,0.95051-0.0716,1.4453-0.21485,0.49479-0.15624,0.9375-0.3776,1.3281-0.66406,0.40364-0.29947,0.73567-0.66406,0.99609-1.0938,0.26041-0.42968,0.39062-0.91796,0.39062-1.4648,0-0.53385-0.11719-0.97656-0.35156-1.3281-0.22136-0.35155-0.61198-0.52733-1.1719-0.52734-0.57293,0.00001-1.0612,0.17579-1.4648,0.52734-0.39063,0.33855-0.70964,0.76173-0.95703,1.2695-0.2474,0.4948-0.42969,1.0222-0.54687,1.582-0.10417,0.54689-0.15626,1.0352-0.15625,1.4648v0.44922"/>
   <path id="path3835" style="" d="m240.12,358.04c-0.20835,0.42969-0.46877,0.82031-0.78125,1.1719-0.31252,0.33854-0.66408,0.63151-1.0547,0.8789-0.39064,0.23438-0.80731,0.41667-1.25,0.54688-0.44272,0.1302-0.90496,0.19531-1.3867,0.19531-1.0156,0-1.8815-0.2474-2.5976-0.74219-0.70314-0.49479-1.2956-1.1393-1.7774-1.9336-0.35157,0.39062-0.74219,0.78125-1.1719,1.1719-0.41668,0.37761-0.86589,0.71615-1.3477,1.0156-0.46875,0.28646-0.95704,0.52083-1.4648,0.70312-0.50782,0.18229-1.0156,0.27344-1.5234,0.27344-0.61198,0-1.1589-0.1237-1.6406-0.37109-0.48178-0.2474-0.89193-0.57292-1.2305-0.97657-0.33855-0.41666-0.59896-0.88541-0.78125-1.4062-0.1823-0.53385-0.27344-1.0872-0.27344-1.6602,0-0.85937,0.1888-1.7253,0.56641-2.5977,0.39062-0.87239,0.89843-1.6602,1.5234-2.3633,0.63802-0.71614,1.3672-1.2956,2.1875-1.7383,0.82031-0.4427,1.6732-0.66405,2.5586-0.66406,0.26041,0.00001,0.48827,0.026,0.68359,0.0781v-0.82031c-0.00001-0.37759,0.013-0.87889,0.0391-1.5039,0.026-0.62498,0.0781-1.3151,0.15625-2.0703,0.0781-0.76821,0.17578-1.569,0.29297-2.4023,0.1302-0.84634,0.29296-1.6797,0.48828-2.5,0.20833-0.83332,0.44921-1.6211,0.72266-2.3633,0.27343-0.75519,0.59244-1.4127,0.95703-1.9727,0.36457-0.57289,0.78124-1.0286,1.25-1.3672,0.46874-0.33851,0.99608-0.50778,1.582-0.50781,0.69009,0.00003,1.25,0.20185,1.6797,0.60547,0.42967,0.40367,0.76821,0.90497,1.0156,1.5039,0.24738,0.58597,0.41014,1.211,0.48829,1.875,0.0911,0.66409,0.1367,1.2565,0.13671,1.7774-0.00001,0.6771-0.0651,1.4649-0.19531,2.3633-0.13022,0.88543-0.31251,1.8294-0.54687,2.832-0.23439,0.9896-0.51434,2.0052-0.83985,3.0469-0.32553,1.0417-0.67709,2.0443-1.0547,3.0078-0.37762,0.96355-0.78778,1.862-1.2305,2.6953-0.4297,0.82032-0.8659,1.5169-1.3086,2.0898,0.16926,0.50782,0.37109,0.97657,0.60547,1.4062,0.24739,0.42969,0.53384,0.80079,0.85938,1.1133,0.3255,0.3125,0.6966,0.55989,1.1133,0.74218,0.41665,0.16928,0.89191,0.25391,1.4258,0.25391,1.2239,0,2.2265-0.48828,3.0078-1.4648l0.11719,0.0781m-8.0078-10.879c-0.00001,0.46877-0.00001,1.0156,0,1.6406-0.00001,0.61199,0.013,1.263,0.0391,1.9531,0.0391,0.69012,0.0976,1.3998,0.17578,2.1289,0.0911,0.71615,0.22134,1.4128,0.39063,2.0898,0.54686-1.0547,1.0482-2.207,1.5039-3.457,0.45572-1.263,0.84634-2.5521,1.1719-3.8672,0.33852-1.3281,0.59894-2.6497,0.78125-3.9648,0.18227-1.3151,0.27342-2.5586,0.27343-3.7305-0.00001-0.24737-0.013-0.60544-0.0391-1.0742-0.026-0.46872-0.0977-0.93096-0.21484-1.3867-0.1172-0.46873-0.29298-0.87238-0.52735-1.2109-0.23438-0.35154-0.55339-0.52732-0.95703-0.52735-0.31251,0.00003-0.59246,0.14977-0.83984,0.44922-0.24741,0.28649-0.46225,0.67711-0.64453,1.1719-0.1823,0.48179-0.33855,1.0352-0.46875,1.6602-0.1172,0.62503-0.22137,1.2761-0.3125,1.9531-0.0781,0.6771-0.14324,1.3477-0.19531,2.0117-0.0391,0.66408-0.0716,1.2826-0.0977,1.8555-0.013,0.55991-0.026,1.0482-0.0391,1.4648-0.00001,0.40366-0.00001,0.68361,0,0.83984m-4.9219,12.031c0.74218,0.00001,1.4258-0.14322,2.0508-0.42968,0.63802-0.28646,1.2174-0.66406,1.7383-1.1328-0.2474-0.48176-0.46224-0.99609-0.64453-1.543-0.16928-0.5599-0.31902-1.1198-0.44922-1.6797-0.11719-0.57291-0.21485-1.1458-0.29296-1.7188-0.0651-0.57291-0.1172-1.1263-0.15625-1.6602-0.15626-0.16926-0.35157-0.30598-0.58594-0.41015-0.23438-0.11718-0.52084-0.17578-0.85938-0.17579-0.61198,0.00001-1.1589,0.16929-1.6406,0.50782-0.46876,0.32553-0.86589,0.74219-1.1914,1.25-0.32552,0.4948-0.57292,1.0417-0.74219,1.6406-0.16927,0.58595-0.2539,1.1458-0.2539,1.6797,0,0.4948,0.0521,0.97006,0.15625,1.4258,0.11718,0.44271,0.29947,0.83334,0.54687,1.1719,0.2474,0.32552,0.5599,0.58593,0.9375,0.78125,0.39062,0.19531,0.85286,0.29297,1.3867,0.29296"/>
   <path id="path3837" style="" d="m251.61,358.04c-0.33855,0.49479-0.74871,0.95703-1.2305,1.3867-0.46877,0.42969-0.9896,0.80078-1.5625,1.1133-0.55991,0.3125-1.1524,0.5599-1.7774,0.74219-0.61198,0.18229-1.2305,0.27343-1.8555,0.27344-0.88542-0.00001-1.7122-0.11719-2.4805-0.35157-0.76823-0.22135-1.4388-0.5664-2.0117-1.0352-0.57292-0.46875-1.0221-1.0547-1.3477-1.7578-0.32552-0.71614-0.48828-1.5495-0.48828-2.5,0-0.93749,0.16927-1.8099,0.50781-2.6172,0.35156-0.82031,0.82682-1.5299,1.4258-2.1289,0.61198-0.61197,1.3281-1.0937,2.1484-1.4453,0.82031-0.35155,1.6992-0.52733,2.6367-0.52735,0.4427,0.00002,0.85286,0.0651,1.2305,0.19532,0.39061,0.1172,0.72915,0.29949,1.0156,0.54687,0.28645,0.23439,0.5078,0.52736,0.66406,0.87891,0.16927,0.35157,0.2539,0.75522,0.25391,1.2109-0.00001,0.54688-0.11069,1.0286-0.33203,1.4453-0.22136,0.41667-0.51433,0.78125-0.87891,1.0938-0.36459,0.3125-0.78125,0.57292-1.25,0.78125-0.45573,0.20834-0.9375,0.37761-1.4453,0.50781-0.4948,0.13021-0.98959,0.22787-1.4844,0.29297-0.48178,0.0521-0.92449,0.0781-1.3281,0.0781h-0.46875c0.16927,1.1849,0.63802,2.0898,1.4062,2.7148,0.76822,0.625,1.8294,0.9375,3.1836,0.9375,0.96354,0,1.901-0.16927,2.8125-0.50781,0.92447-0.33854,1.7578-0.80729,2.5-1.4062l0.15625,0.0781m-10.117-2.4023,0.48828,0c0.46874,0,0.95051-0.0716,1.4453-0.21485,0.49479-0.15624,0.9375-0.3776,1.3281-0.66406,0.40364-0.29947,0.73567-0.66406,0.99609-1.0938,0.26041-0.42968,0.39062-0.91796,0.39062-1.4648,0-0.53385-0.11719-0.97656-0.35156-1.3281-0.22136-0.35155-0.61198-0.52733-1.1719-0.52734-0.57293,0.00001-1.0612,0.17579-1.4648,0.52734-0.39063,0.33855-0.70964,0.76173-0.95703,1.2695-0.2474,0.4948-0.42969,1.0222-0.54687,1.582-0.10417,0.54689-0.15626,1.0352-0.15625,1.4648v0.44922"/>
   <path id="path3839" style="" d="m268.86,367.16c-0.00001,0.36458-0.20183,0.54687-0.60547,0.54688-0.26043-0.00001-0.50782-0.0521-0.74219-0.15625-0.23438-0.0912-0.44922-0.19532-0.64453-0.3125-0.40365-0.22136-0.76172-0.54688-1.0742-0.97656-0.29948-0.4297-0.5599-0.92449-0.78125-1.4844-0.20834-0.5599-0.39063-1.1719-0.54687-1.8359-0.14324-0.65104-0.26042-1.3151-0.35157-1.9922-0.0912-0.67709-0.16276-1.3477-0.21484-2.0117-0.0521-0.66406-0.0846-1.2826-0.0977-1.8555-0.3776-0.14323-0.76172-0.30599-1.1523-0.48828-0.37761-0.18229-0.72266-0.38411-1.0352-0.60547-0.29948-0.23437-0.54687-0.48177-0.74218-0.74219-0.19532-0.27343-0.29297-0.55989-0.29297-0.85937,0-0.23437,0.0521-0.4427,0.15625-0.625,0.11718-0.19531,0.30599-0.29296,0.5664-0.29297,0.22136,0.00001,0.42969,0.0521,0.625,0.15625,0.19531,0.0912,0.39063,0.21485,0.58594,0.37109,0.19531,0.15626,0.39713,0.33855,0.60547,0.54688,0.20833,0.19532,0.42968,0.39714,0.66406,0.60547,0-1.3281,0.0456-2.7344,0.13672-4.2188,0.0911-1.4974,0.2539-2.9883,0.48828-4.4727,0.23437-1.4974,0.54687-2.9557,0.9375-4.375,0.40364-1.4192,0.91145-2.7278,1.5234-3.9258l0.35156,0.11719c-0.44271,2.2526-0.76823,4.5117-0.97656,6.7773-0.19532,2.2526-0.29297,4.5117-0.29297,6.7773,0,0.83334,0.0195,1.6602,0.0586,2.4805,0.0521,0.8073,0.12369,1.6146,0.21484,2.4219,0.39062,0.15625,0.82681,0.27995,1.3086,0.37109,0.48177,0.0912,1.0156,0.13672,1.6016,0.13672,0.98957,0,1.9075-0.14974,2.7539-0.44922,0.85936-0.29947,1.6406-0.70963,2.3438-1.2305,0.71613-0.53385,1.3476-1.1588,1.8945-1.875,0.54686-0.71614,1.0091-1.4844,1.3867-2.3047,0.37759-0.83332,0.66405-1.6927,0.85938-2.5781,0.19529-0.89843,0.29295-1.7969,0.29297-2.6953-0.00002-0.8854-0.0977-1.7838-0.29297-2.6953-0.19533-0.92446-0.4883-1.8164-0.87891-2.6758-0.37762-0.87237-0.84637-1.6862-1.4062-2.4414-0.54689-0.75519-1.1784-1.4127-1.8945-1.9727-0.71616-0.57289-1.5104-1.0221-2.3828-1.3477-0.85939-0.33851-1.7904-0.50778-2.793-0.50781-0.82032,0.00003-1.6667,0.14977-2.5391,0.44922-0.87241,0.2995-1.6667,0.72268-2.3828,1.2695-0.70313,0.53388-1.2891,1.1784-1.7578,1.9336-0.45573,0.75523-0.6836,1.582-0.68359,2.4805-0.00001,0.35159,0.0391,0.6706,0.11718,0.95704,0.0911,0.27345,0.18229,0.52736,0.27344,0.76171,0.10417,0.2344,0.19531,0.45575,0.27344,0.66407,0.0911,0.19533,0.13672,0.39715,0.13672,0.60547,0,0.37762-0.13021,0.69663-0.39063,0.95703-0.24739,0.24741-0.55338,0.37111-0.91797,0.37109-0.33854,0.00002-0.60547-0.0911-0.80078-0.27344-0.19531-0.18227-0.35156-0.41014-0.46875-0.68359-0.10416-0.27342-0.17578-0.55988-0.21484-0.85938-0.026-0.31248-0.0391-0.58592-0.0391-0.82031,0-1.1458,0.26692-2.181,0.80078-3.1055,0.54687-0.93747,1.2565-1.7708,2.1289-2.5,0.54688-0.46872,1.0938-0.87888,1.6406-1.2305,0.55989-0.36455,1.1328-0.66403,1.7188-0.89843,0.58593-0.24737,1.1979-0.42966,1.8359-0.54688,0.65103-0.13018,1.3411-0.19528,2.0703-0.19531,1.6927,0.00003,3.2552,0.29299,4.6875,0.87891,1.4323,0.57294,2.6627,1.3802,3.6914,2.4219,1.0416,1.0287,1.8489,2.2591,2.4219,3.6914,0.58592,1.4193,0.87889,2.9818,0.87891,4.6875-0.00002,1.7578-0.31252,3.405-0.9375,4.9414-0.612,1.5234-1.4714,2.8581-2.5781,4.0039-1.0938,1.1328-2.3958,2.0247-3.9062,2.6758-1.5104,0.65104-3.1576,0.97657-4.9414,0.97656-0.45574,0.00001-0.91798-0.026-1.3867-0.0781-0.46876-0.0521-0.931-0.11719-1.3867-0.19531,0.42968,2.9427,1.2109,5.8464,2.3438,8.7109,0.039,0.10416,0.0716,0.20833,0.0976,0.3125,0.0391,0.11718,0.0586,0.22786,0.0586,0.33203"/>
   <path id="path3841" style="" d="m296.92,358.04c-0.23439,0.52084-0.53386,0.98959-0.89843,1.4062-0.35158,0.41667-0.73569,0.77474-1.1524,1.0742-0.41668,0.28646-0.84636,0.50781-1.2891,0.66406-0.44272,0.16927-0.8659,0.25391-1.2695,0.25391-0.75522,0-1.3932-0.13021-1.9141-0.39063-0.52084-0.26041-0.94402-0.61198-1.2695-1.0547-0.32553-0.44271-0.55991-0.96354-0.70313-1.5625-0.14324-0.59896-0.21485-1.237-0.21484-1.9141-0.00001-0.52083,0.0391-1.0612,0.11718-1.6211,0.0781-0.55989,0.1888-1.1002,0.33204-1.6211,0.026-0.0781,0.0521-0.16927,0.0781-0.27344,0.026-0.11718,0.0391-0.21484,0.0391-0.29297,0-0.0651-0.0391-0.11718-0.11718-0.15625-0.22137-0.0781-0.45574-0.14973-0.70313-0.21484-0.2474-0.0781-0.4948-0.16276-0.74219-0.25391-0.23438-0.0911-0.46224-0.1953-0.68359-0.3125-0.20834-0.11718-0.39063-0.26692-0.54688-0.44922-0.013,0.78126-0.14323,1.5755-0.39062,2.3828-0.2474,0.79428-0.57943,1.5625-0.99609,2.3047-0.40365,0.72917-0.87891,1.4128-1.4258,2.0508-0.54687,0.63802-1.1263,1.1914-1.7383,1.6602l-0.19531-0.19531c0.3776-0.41667,0.72266-0.91146,1.0352-1.4844,0.3125-0.57291,0.57942-1.1719,0.80078-1.7969,0.22135-0.625,0.39062-1.2565,0.50781-1.8945,0.13021-0.63801,0.19531-1.237,0.19531-1.7969,0-0.28645-0.026-0.55338-0.0781-0.80078-0.0521-0.26041-0.11068-0.50781-0.17578-0.74219-0.0521-0.23436-0.10417-0.45572-0.15625-0.66406-0.0521-0.22135-0.0781-0.4427-0.0781-0.66406,0-0.36458,0.11719-0.65103,0.35156-0.85938,0.23438-0.20832,0.53386-0.31249,0.89844-0.3125,0.19531,0.00001,0.34505,0.0586,0.44922,0.17578,0.10416,0.10418,0.19531,0.23439,0.27344,0.39063,0.0781,0.15626,0.16927,0.31902,0.27344,0.48828,0.10416,0.16928,0.2539,0.31251,0.44921,0.42969,0.2474,0.14324,0.5599,0.2474,0.9375,0.3125s0.77474,0.1237,1.1914,0.17578c0.41666,0.0521,0.83333,0.10417,1.25,0.15625,0.41666,0.0521,0.78775,0.14324,1.1133,0.27343,0.33853,0.1172,0.61197,0.28647,0.82031,0.50782,0.20833,0.20834,0.31249,0.4948,0.3125,0.85937-0.00001,0.1823-0.0195,0.36459-0.0586,0.54688-0.026,0.16928-0.0716,0.33204-0.13672,0.48828-0.15626,0.54688-0.29298,1.1068-0.41015,1.6797-0.10418,0.5599-0.15626,1.1198-0.15625,1.6797-0.00001,0.48178,0.0325,0.92449,0.0976,1.3281,0.0781,0.39063,0.21484,0.72917,0.41016,1.0156,0.1953,0.28646,0.45572,0.50782,0.78125,0.66407,0.32551,0.15625,0.74217,0.23437,1.25,0.23437,0.72915,0,1.3672-0.17578,1.9141-0.52734,0.54686-0.36459,1.0286-0.83985,1.4453-1.4258l0.17578,0.0781"/>
   <path id="path3843" style="" d="m300.52,345.07c0,0.26043-0.0586,0.52085-0.17578,0.78125-0.11719,0.26043-0.27344,0.49481-0.46875,0.70313-0.18229,0.19532-0.39714,0.35808-0.64453,0.48828-0.2474,0.13022-0.5013,0.19532-0.76172,0.19531-0.33854,0.00001-0.61198-0.11066-0.82031-0.33203-0.19531-0.22134-0.29297-0.50129-0.29297-0.83985,0-0.2604,0.0586-0.5143,0.17578-0.76171,0.11719-0.26041,0.26693-0.48827,0.44922-0.6836,0.19531-0.19529,0.41016-0.35154,0.64453-0.46875,0.2474-0.13019,0.5013-0.19529,0.76172-0.19531,0.33854,0.00002,0.61198,0.10418,0.82031,0.3125,0.20833,0.20835,0.3125,0.47528,0.3125,0.80078m5.4688,12.969c-0.29948,0.49479-0.65756,0.95052-1.0742,1.3672-0.40366,0.40364-0.85288,0.76172-1.3477,1.0742-0.48178,0.29948-1.0026,0.53385-1.5625,0.70312-0.54688,0.16927-1.1133,0.25391-1.6992,0.25391-0.72917,0-1.3802-0.1237-1.9531-0.3711-0.5599-0.24739-1.0352-0.58593-1.4258-1.0156-0.3776-0.44271-0.67057-0.95703-0.8789-1.543-0.19531-0.59896-0.29297-1.25-0.29297-1.9531,0-0.75521,0.11068-1.4714,0.33203-2.1484,0.22135-0.67708,0.52734-1.3086,0.91797-1.8945,0.39062-0.59895,0.84635-1.1458,1.3672-1.6406,0.53385-0.49478,1.1002-0.93749,1.6992-1.3281l0.23437,0.17578c-0.63802,0.75522-1.1589,1.6016-1.5625,2.5391-0.39063,0.93751-0.58594,1.9141-0.58594,2.9297,0,0.58594,0.0651,1.1524,0.19532,1.6992,0.14322,0.53385,0.35807,1.0091,0.64453,1.4258,0.29947,0.41667,0.67708,0.7487,1.1328,0.99609,0.45572,0.2474,1.0091,0.3711,1.6602,0.3711,0.76822,0,1.4974-0.16276,2.1875-0.48829,0.70311-0.32551,1.3346-0.73567,1.8945-1.2305l0.11718,0.0781"/>
   <path id="path3845" style="" d="m321.9,358.04c-0.24741,0.46875-0.51434,0.91797-0.80078,1.3477-0.27345,0.42968-0.58595,0.80729-0.9375,1.1328-0.35158,0.32552-0.74871,0.58594-1.1914,0.78125-0.44273,0.19531-0.95054,0.29297-1.5234,0.29297-0.65106,0-1.211-0.16276-1.6797-0.48828-0.46876-0.3125-0.87241-0.72917-1.2109-1.25-0.32553-0.53386-0.59245-1.1393-0.80078-1.8164-0.19532-0.67708-0.35808-1.3672-0.48828-2.0703-0.13022-0.70312-0.22787-1.3932-0.29297-2.0703-0.0651-0.6901-0.1237-1.3086-0.17578-1.8555-0.2474,0.19532-0.54688,0.57292-0.89844,1.1328-0.35157,0.54688-0.70964,1.1914-1.0742,1.9336-0.36458,0.7422-0.71615,1.5495-1.0547,2.4219-0.32553,0.8724-0.59246,1.7318-0.80078,2.5781-0.0391,0.18229-0.10418,0.3711-0.19532,0.56641-0.0781,0.19531-0.18229,0.37109-0.3125,0.52734-0.11719,0.16927-0.26042,0.30599-0.42968,0.41016-0.16928,0.11719-0.35808,0.17578-0.56641,0.17578-0.33854,0-0.58594-0.11719-0.74219-0.35156-0.14323-0.23438-0.2474-0.5013-0.3125-0.80078-0.3776-1.6536-0.64453-3.2357-0.80078-4.7461-0.14323-1.5104-0.21484-3.0208-0.21484-4.5312,0-0.36457,0.0586-0.67707,0.17578-0.9375,0.13021-0.27342,0.29948-0.49478,0.50781-0.66406,0.20833-0.18228,0.45573-0.31249,0.74219-0.39062,0.28645-0.0911,0.58593-0.13671,0.89844-0.13672,0.0391,0.00001,0.0976,0.00001,0.17578,0,0.0911,0.00001,0.17577,0.013,0.2539,0.0391,0.0781,0.013,0.14323,0.0391,0.19532,0.0781,0.0521,0.0391,0.0716,0.0912,0.0586,0.15625-0.33855,1.7057-0.50131,3.444-0.48828,5.2148,0.013,1.7578,0.10416,3.4505,0.27344,5.0781,0.14322-0.65104,0.35155-1.3867,0.625-2.207,0.28645-0.83333,0.61197-1.6667,0.97656-2.5,0.3776-0.84635,0.78124-1.6471,1.2109-2.4023,0.4427-0.76822,0.89192-1.4128,1.3476-1.9336,0.22135-0.24738,0.4427-0.45571,0.66406-0.625,0.23437-0.18228,0.52083-0.27342,0.85938-0.27343,0.1953,0.00001,0.35806,0.0391,0.48828,0.11718,0.1302,0.0781,0.23437,0.1758,0.3125,0.29297,0.0911,0.1172,0.15624,0.25392,0.19531,0.41016,0.0521,0.14324,0.0911,0.28647,0.11719,0.42969,0.0651,0.37761,0.1302,0.86589,0.19531,1.4648,0.0651,0.59897,0.14322,1.237,0.23438,1.9141,0.10415,0.67709,0.22785,1.3607,0.37109,2.0508,0.14322,0.67709,0.32551,1.2956,0.54688,1.8555,0.22134,0.54688,0.48827,0.9961,0.80078,1.3477,0.31249,0.35156,0.68358,0.52734,1.1133,0.52734,0.35155,0,0.69009-0.0651,1.0156-0.19531,0.33853-0.14323,0.65754-0.31901,0.95704-0.52734,0.29946-0.22136,0.57941-0.46875,0.83984-0.74219,0.2604-0.28646,0.49477-0.5664,0.70312-0.83984l0.13672,0.0781"/>
   <path id="path3847" style="" d="m333.29,358.04c-0.33855,0.5599-0.78126,1.0612-1.3281,1.5039-0.53387,0.42968-1.1263,0.80078-1.7774,1.1133-0.63803,0.29948-1.3086,0.52734-2.0117,0.68359-0.69011,0.16927-1.3542,0.25391-1.9922,0.25391-0.78126,0-1.5104-0.11719-2.1875-0.35156-0.66407-0.23438-1.25-0.57292-1.7578-1.0156-0.49479-0.45573-0.88541-0.99609-1.1719-1.6211-0.27344-0.63802-0.41016-1.3607-0.41016-2.168,0-0.91146,0.16276-1.8034,0.48828-2.6758,0.33855-0.87239,0.80078-1.6471,1.3867-2.3242,0.59896-0.67708,1.3021-1.2174,2.1094-1.6211,0.82031-0.41665,1.7057-0.62498,2.6562-0.625,0.31249,0.00002,0.62499,0.0326,0.9375,0.0977,0.31249,0.0651,0.59895,0.17579,0.85937,0.33203,0.26041,0.14324,0.46874,0.33855,0.625,0.58594,0.16926,0.24741,0.2539,0.5599,0.25391,0.9375-0.00001,0.37761-0.0977,0.70964-0.29297,0.99609-0.19532,0.27345-0.44272,0.50131-0.74219,0.6836-0.29948,0.1823-0.625,0.33204-0.97656,0.44922-0.33855,0.10417-0.66407,0.18229-0.97656,0.23437v-0.27344c0.18228-0.0521,0.3776-0.12369,0.58594-0.21484,0.22134-0.0911,0.42317-0.20833,0.60546-0.35156,0.18229-0.14322,0.33203-0.3125,0.44922-0.50782,0.1302-0.1953,0.19531-0.41014,0.19532-0.64453-0.00001-0.18228-0.0456-0.33202-0.13672-0.44922-0.0781-0.13019-0.1823-0.23436-0.3125-0.3125-0.1172-0.0781-0.25392-0.1367-0.41016-0.17578-0.15626-0.039-0.31251-0.0586-0.46875-0.0586-0.66407,0.00001-1.263,0.14975-1.7969,0.44922-0.52084,0.28647-0.96355,0.67058-1.3281,1.1523-0.36459,0.48178-0.64453,1.0221-0.83984,1.6211-0.1823,0.59896-0.27344,1.2044-0.27344,1.8164,0,0.70313,0.10416,1.3346,0.3125,1.8945,0.22135,0.54688,0.52734,1.0156,0.91797,1.4062,0.39062,0.39063,0.86588,0.69011,1.4258,0.89844,0.55989,0.20833,1.1849,0.3125,1.875,0.3125,0.4427,0,0.91145-0.0456,1.4062-0.13672,0.5078-0.10416,0.99608-0.24739,1.4648-0.42969,0.48176-0.18229,0.93749-0.40364,1.3672-0.66406,0.42968-0.26041,0.80077-0.55338,1.1133-0.8789l0.15625,0.0781"/>
   <path id="path3849" style="" d="m344.81,358.04c-0.33855,0.49479-0.74871,0.95703-1.2305,1.3867-0.46876,0.42969-0.98959,0.80078-1.5625,1.1133-0.5599,0.3125-1.1524,0.5599-1.7773,0.74219-0.61199,0.18229-1.2305,0.27343-1.8555,0.27344-0.88542-0.00001-1.7122-0.11719-2.4805-0.35157-0.76823-0.22135-1.4388-0.5664-2.0117-1.0352-0.57292-0.46875-1.0221-1.0547-1.3477-1.7578-0.32552-0.71614-0.48828-1.5495-0.48828-2.5,0-0.93749,0.16927-1.8099,0.50782-2.6172,0.35156-0.82031,0.82682-1.5299,1.4258-2.1289,0.61197-0.61197,1.3281-1.0937,2.1484-1.4453,0.82031-0.35155,1.6992-0.52733,2.6367-0.52735,0.4427,0.00002,0.85286,0.0651,1.2305,0.19532,0.39062,0.1172,0.72916,0.29949,1.0156,0.54687,0.28645,0.23439,0.5078,0.52736,0.66406,0.87891,0.16926,0.35157,0.2539,0.75522,0.25391,1.2109-0.00001,0.54688-0.11069,1.0286-0.33204,1.4453-0.22136,0.41667-0.51433,0.78125-0.8789,1.0938-0.36459,0.3125-0.78126,0.57292-1.25,0.78125-0.45574,0.20834-0.93751,0.37761-1.4453,0.50781-0.4948,0.13021-0.98959,0.22787-1.4844,0.29297-0.48177,0.0521-0.92448,0.0781-1.3281,0.0781h-0.46875c0.16926,1.1849,0.63801,2.0898,1.4062,2.7148,0.76822,0.625,1.8294,0.9375,3.1836,0.9375,0.96353,0,1.901-0.16927,2.8125-0.50781,0.92447-0.33854,1.7578-0.80729,2.5-1.4062l0.15625,0.0781m-10.117-2.4023,0.48828,0c0.46875,0,0.95052-0.0716,1.4453-0.21485,0.49478-0.15624,0.93749-0.3776,1.3281-0.66406,0.40364-0.29947,0.73567-0.66406,0.99609-1.0938,0.26041-0.42968,0.39062-0.91796,0.39063-1.4648-0.00001-0.53385-0.1172-0.97656-0.35156-1.3281-0.22136-0.35155-0.61199-0.52733-1.1719-0.52734-0.57292,0.00001-1.0612,0.17579-1.4648,0.52734-0.39063,0.33855-0.70964,0.76173-0.95703,1.2695-0.2474,0.4948-0.42969,1.0222-0.54688,1.582-0.10417,0.54689-0.15625,1.0352-0.15625,1.4648v0.44922"/>
  </g>
  <path id="path3003" stroke-linejoin="miter" d="m113.47,343.88c-3.5173-0.0985,1.5857,13.042-0.40934,14.703-1.854,1.5437-3.6669-5.0498-5.8975-3.278-2.9294,2.327,7.0665,6.529,6.0487,9.7442-0.58947,1.8621-9.9584-3.252-10.747-2.03-1.0127,1.5701,2.1973,2.5208,4.4927,2.933,2.2954,0.41219,4.6684,0.59327,4.4952,1.4762-0.54778,2.7937,2.1281-0.0961,3.9579,8.3003,0.56053,2.5721-14.626,23.354-9.5191,24.023,5.1065,0.66888-0.35177-13.469,9.2742-11.189,3.0249,0.71651,2.6459-4.5284,5.5941-3.0174,2.1393,1.0964-3.0878,9.0834-0.39148,9.0442,6.8165-0.0989,1.5495-12.69,7.2158-10.048,10.779,5.0251,8.1798,29.419,15.141,24.904,7.6386-4.9546-15.26-13.708,0.37212-26.896,18.624-1.9109,172.02,0.85535,217.5-0.19004-47.133-6.6985-160-5.0226-218.09-7.2475,1.8946-3.8565-1.1126-7.8801-3.657-8.4078-1.632-0.33844-1.9085,3.0092-3.1527,2.0242-2.7946-2.2123,1.3783-8.7113-1.0501-11.025-1.4789-1.4094-4.4748,3.9108-5.4864,2.7696-2.2923-2.586,3.2747-6.7269,0.5793-7.3861-3.8739-0.23265-4.1784,10.902-12.799,5.2977-2.8603-2.1928,1.2063-14.373-3.4684-14.504z" stroke="#000" stroke-linecap="butt" stroke-width="1px" fill="#1a1a1a"/>
 </g>
</svg>
