<svg id="banniere" version="1.1"
     xmlns="http://www.w3.org/2000/svg" xmlns:xlink="http://www.w3.org/1999/xlink" xmlns:a="http://ns.adobe.com/AdobeSVGViewerExtensions/3.0/"
     width="100%" height="100%">
  <defs>
    <linearGradient id="blancbleu" x1="20%" y1="50%" x2="100%" y2="50%">
      <stop offset="0%" style="stop-color:#ffffff; stop-opacity:1"/>
      <stop offset="100%" style="stop-color:#72ffff; stop-opacity:1"/>
    </linearGradient>
    <linearGradient id="bleublanc" x1="80%" y1="50%" x2="0%" y2="50%">
      <stop offset="0%" style="stop-color:#ffffff; stop-opacity:1"/>
      <stop offset="100%" style="stop-color:#72ffff; stop-opacity:1"/>
    </linearGradient>
      <style type="text/css">
	#banniere {
	height:300px;
	}
	@media screen and (max-width:768px) {
	.border{
	   display:none;
	}
	}	
	@media screen and (orientation:portrait) {
	 #banniere {
	height:200px;
	}   
	}

  </style>
  </defs>
	<defs id="defs4635">
		<radialGradient id="radialGradient5553" gradientUnits="userSpaceOnUse" cy="-114" cx="656" gradientTransform="matrix(-1.2501704,0.1994826,-0.0448087,-0.20160656,1552.8027,809.6169)" r="196">
			<stop id="stop5425" stop-color="#72ffff" stop-opacity="0.71653545" offset="0"/>
			<stop id="stop5427" stop-color="#72ffff" stop-opacity="0" offset="1"/>
		</radialGradient>
		<radialGradient id="radialGradient6037" gradientUnits="userSpaceOnUse" cy="733" cx="315" gradientTransform="matrix(-2.0783505,-0.05149789,0.01182303,-0.50655544,1388.3812,1408.346)" r="157">
			<stop id="stop3767" stop-color="#72ccff" stop-opacity="0.83464569" offset="0"/>
			<stop id="stop3769" stop-color="#72b1ff" stop-opacity="0" offset="1"/>
		</radialGradient>
	</defs>
<svg preserveAspectRatio="xMidYMid meet" width="100%" height="100%"  viewBox="0 0 900 290">
	<g id="layer1" transform="translate(0,-780)">
		<use id="use5368" xlink:href="#path2995" transform="matrix(0.87494312,0.06226785,-0.06226785,0.87494312,291.77229,42.086189)" height="250" width="950" y="0" x="0"/>
		<path id="path2995" fill="url(#radialGradient6037)" d="m445,970c30.1-53.3,260-74.8,366,11.7,84.1,69-18.4,132-141,91.3-105-35.2-147,73.9-211-28.7-25.9-41.6-27.4-49.9-13.6-74.4z"/>
		<use id="use5334" xlink:href="#path2995" transform="matrix(0.966051,-0.25835143,0.25835143,0.966051,-375.40523,36.606826)" height="250" width="950" y="0" x="0"/>
		<use id="use5336" xlink:href="#path2995" transform="matrix(0.97968185,-0.20055791,0.20055791,0.97968185,-623.4039,25.102336)" height="250" width="950" y="0" x="0"/>
		<use id="use5338" xlink:href="#path2995" transform="matrix(0.99327549,0.11577479,-0.11577479,0.99327549,-357.36791,-80.131838)" height="250" width="950" y="0" x="0"/>
		<use id="use5340" xlink:href="#path2995" transform="matrix(0.97337734,0.12600072,-0.12600072,0.97337734,313.11127,-208.29164)" height="250" width="950" y="0" x="0"/>
		<use id="use5342" xlink:href="#path2995" transform="matrix(0.95785922,0.14184998,-0.14184998,0.95785922,-437.78196,-54.292856)" height="250" width="950" y="0" x="0"/>
		<use id="use5344" xlink:href="#path2995" transform="matrix(0.97665273,-0.14709784,0.14709784,0.97665273,-2.04712,37.294977)" height="250" width="950" y="0" x="0"/>
		<use id="use5346" xlink:href="#path2995" transform="matrix(0.95092768,8.746715e-4,-8.746715e-4,0.95092768,-149.68649,44.153508)" height="250" width="950" y="0" x="0"/>
		<use id="use5348" xlink:href="#path2995" transform="matrix(1.0496811,-0.00148026,0.00148026,1.0496811,92.678161,-38.071351)" height="250" width="950" y="0" x="0"/>
		<use id="use5350" xlink:href="#path2995" transform="matrix(0.8868411,0.39111936,-0.39111936,0.8868411,523.21153,-346.47928)" height="250" width="950" y="0" x="0"/>
		<use id="use5352" xlink:href="#path2995" transform="matrix(0.86870797,-0.1674853,0.1674853,0.86870797,-164.19843,146.50556)" height="250" width="950" y="0" x="0"/>
		<use id="use5354" xlink:href="#path2995" transform="matrix(0.93635705,0.26336752,-0.26336752,0.93635705,41.66485,-292.40511)" height="250" width="950" y="0" x="0"/>
		<use id="use5356" xlink:href="#path2995" transform="matrix(1.0366747,-0.34572911,0.34572911,1.0366747,-696.9636,187.6974)" height="250" width="950" y="0" x="0"/>
		<use id="use5358" xlink:href="#path2995" transform="matrix(0.88634865,-0.32647328,0.32647328,0.88634865,-720.25979,176.52602)" height="250" width="950" y="0" x="0"/>
		<use id="use5360" xlink:href="#path2995" transform="matrix(1.011835,-0.08885996,0.08885996,1.011835,61.236231,-147.02251)" height="250" width="950" y="0" x="0"/>
		<use id="use5362" xlink:href="#path2995" transform="matrix(0.81567723,-0.33582174,0.33582174,0.81567723,-624.42689,356.7381)" height="250" width="950" y="0" x="0"/>
		<use id="use5364" xlink:href="#path2995" transform="matrix(1.0826318,0.13439,-0.13439,1.0826318,-120.70196,-276.35373)" height="250" width="950" y="0" x="0"/>
		<use id="use5366" xlink:href="#path2995" transform="matrix(0.97003941,0.04605149,-0.04605149,0.97003941,-542.95876,-112.5653)" height="250" width="950" y="0" x="0"/>
		<use id="use5370" xlink:href="#path2995" transform="matrix(1.0052544,0.33793739,-0.33793739,1.0052544,348.17577,-310.85142)" height="250" width="950" y="0" x="0"/>
		<use id="use5372" xlink:href="#path2995" transform="matrix(0.93161201,0.33098691,-0.33098691,0.93161201,-142.97611,-309.10133)" height="250" width="950" y="0" x="0"/>
		<path id="path5421" fill="url(#radialGradient5553)" d="m687,942c34.3-8.7,98.5-14.3,95.1,21.5-4.47,47.5-43.7,30.3-83.9,22.8-72.8-13.4-203,61.2-151,11.5,17.5-16.8-23.9,11.7-14.5-7.27,0,0-111,18.7,154-48.6z"/>
		<use id="use5493" xlink:href="#path5421" transform="matrix(1.035422,-0.16367679,0.16367679,1.035422,-715.03003,-96.95441)" height="250" width="950" y="0" x="0"/>
		<use id="use5495" xlink:href="#path5421" transform="matrix(0.91649378,0.39656701,-0.39656701,0.91649378,141.49334,-295.66665)" height="250" width="950" y="0" x="0"/>
		<use id="use5497" xlink:href="#path5421" transform="matrix(0.96343432,0.34640199,-0.34640199,0.96343432,119.71937,-232.15086)" height="250" width="950" y="0" x="0"/>
		<use id="use5499" xlink:href="#path5421" transform="matrix(0.77359404,-0.34706378,0.34706378,0.77359404,-414.8297,425.95878)" height="250" width="950" y="0" x="0"/>
		<use id="use5501" xlink:href="#path5421" transform="matrix(0.84295055,-0.37789769,0.37789769,0.84295055,-151.38243,380.41236)" height="250" width="950" y="0" x="0"/>
		<use id="use5503" xlink:href="#path5421" transform="matrix(1.0516772,-0.03739617,0.03739617,1.0516772,-463.02599,-150.51111)" height="250" width="950" y="0" x="0"/>
		<use id="use5505" xlink:href="#path5421" transform="matrix(1.0582729,0.00100058,-0.00100058,1.0582729,-402.10433,-208.06019)" height="250" width="950" y="0" x="0"/>
		<use id="use5507" xlink:href="#path5421" transform="matrix(0.85728551,-0.38394213,0.38394213,0.85728551,-91.082463,297.47101)" height="250" width="950" y="0" x="0"/>
		<use id="use5509" xlink:href="#path5421" transform="matrix(1.0052173,0.2877859,-0.2877859,1.0052173,153.35069,-353.62072)" height="250" width="950" y="0" x="0"/>
		<use id="use5511" xlink:href="#path5421" transform="matrix(1.074672,-0.19439892,0.19439892,1.074672,-327.00748,-72.876058)" height="250" width="950" y="0" x="0"/>
		<use id="use5513" xlink:href="#path5421" transform="matrix(0.87033442,0.15125393,-0.15125393,0.87033442,392.58176,-76.970725)" height="250" width="950" y="0" x="0"/>
		<use id="use5515" xlink:href="#path5421" transform="matrix(0.8399027,0.20999713,-0.20999713,0.8399027,-62.30809,-83.428436)" height="250" width="950" y="0" x="0"/>
		<use id="use5517" xlink:href="#path5421" transform="matrix(0.82096357,-0.21554707,0.21554707,0.82096357,-24.665437,420.67311)" height="250" width="950" y="0" x="0"/>
		<use id="use5519" xlink:href="#path5421" transform="matrix(0.97597015,-0.27254624,0.27254624,0.97597015,-711.91414,179.9937)" height="250" width="950" y="0" x="0"/>
		<use id="use5521" xlink:href="#path5421" transform="matrix(1.1051017,0.14883425,-0.14883425,1.1051017,-382.14353,-172.35184)" height="250" width="950" y="0" x="0"/>
		<use id="use5523" xlink:href="#path5421" transform="matrix(1.0575496,-0.34634076,0.34634076,1.0575496,-931.70649,107.92673)" height="250" width="950" y="0" x="0"/>
		<use id="use5525" xlink:href="#path5421" transform="matrix(1.0030704,-0.06448448,0.06448448,1.0030704,-80.75945,-8.0096202)" height="250" width="950" y="0" x="0"/>
		<use id="use5527" xlink:href="#path5421" transform="matrix(0.93133329,0.29031983,-0.29031983,0.93133329,219.66986,-121.50695)" height="250" width="950" y="0" x="0"/>
		<use id="use5529" xlink:href="#path5421" transform="matrix(1.0204525,0.12929121,-0.12929121,1.0204525,370.93495,-107.12075)" height="250" width="950" y="0" x="0"/>
		<use id="use5531" xlink:href="#path5421" transform="matrix(0.93764704,-0.05564711,0.05564711,0.93764704,229.78078,46.238884)" height="250" width="950" y="0" x="0"/>
		<use id="use5533" xlink:href="#path5421" transform="matrix(0.81133254,-0.22036355,0.22036355,0.81133254,9.5640855,184.63651)" height="250" width="950" y="0" x="0"/>
		<use id="use5535" xlink:href="#path5421" transform="matrix(0.92358391,-0.23643545,0.23643545,0.92358391,-303.96581,142.85906)" height="250" width="950" y="0" x="0"/>
		<use id="use5537" xlink:href="#path5421" transform="matrix(0.97233869,0.0475214,-0.0475214,0.97233869,-546.21704,58.769607)" height="250" width="950" y="0" x="0"/>
		<use id="use5539" xlink:href="#path5421" transform="matrix(1.0572199,-0.37968044,0.37968044,1.0572199,-1083.6174,211.42801)" height="250" width="950" y="0" x="0"/>
		<use id="use5541" xlink:href="#path5421" transform="matrix(0.81148102,-0.30262613,0.30262613,0.81148102,-838.79744,284.36355)" height="250" width="950" y="0" x="0"/>
		<use id="use5543" xlink:href="#path5421" transform="matrix(1.1131846,-0.10432354,0.10432354,1.1131846,-811.82751,-103.15501)" height="250" width="950" y="0" x="0"/>
		<use id="use5545" xlink:href="#path5421" transform="matrix(0.90046247,0.31240664,-0.31240664,0.90046247,232.62731,-88.664224)" height="250" width="950" y="0" x="0"/>
		<use id="use5547" xlink:href="#path5421" transform="matrix(0.85082003,-0.38595712,0.38595712,0.85082003,-544.86907,509.92273)" height="250" width="950" y="0" x="0"/>
		<use id="use5549" xlink:href="#path5421" transform="matrix(1.0185494,0.40082919,-0.40082919,1.0185494,257.42558,-228.56238)" height="250" width="950" y="0" x="0"/>
	</g>
      </svg>
  <svg  class="border"  preserveAspectRatio="xMinYMid meet" width="100%" height="100%"  viewBox="0 0 30 60">

  </svg>
  <svg  class="border" preserveAspectRatio="xMaxYMid meet" width="100%" height="100%"  viewBox="0 0 30 60">

  </svg>
  <svg  preserveAspectRatio="xMidYMid meet" width="100%" height="100%"  viewBox="0 0 900 430">
    <!-- <rect rx="20" width="900px" height="430px" x="0" fill="rgba(255,0,255,0.5)"/> -->
	<g id="layer1" transform="translate(-72.80031,-538.37987)">
		<path id="iceberg-bottom" fill="#b8feff" d="m76.5,778c-36.6,102,212,78.4,248,106,31,23.9,59.9,67.4,126,65.1,126-4.35,276-48.5,365-122,47.5-41.4,158-1.92,154-62.7"/>
		<path id="iceberg-top" fill="#FFF" d="m457,931c111,0.886,278-50.7,354-115,75.6-63.9,231,14.4,120-100-112-114-875-7.8-857,69.2,18.5,77,197,54.6,254,74.6,25.4,11.6,17,70.1,128,71z"/>
		<path id="hole-top" fill="#b8ffff" d="m960,377c0,5.52-14.4,10-32.1,10-17.8,0-32.1-4.48-32.1-10s14.4-10,32.1-10c17.8,0,32.1,4.48,32.1,10z" transform="matrix(0.95852446,0,0,0.95852446,-97.618468,397.64603)"/>
		<g id="pimp-my-math" style="letter-spacing:0px;word-spacing:0px;" font-weight="bold" transform="matrix(1.2324736,0,0,1.2324736,-43.521332,394.51988)" font-stretch="normal" line-height="125%" font-size="72px" font-variant="normal" font-family="inner city" font-style="italic" fill="#000">
			<path id="p1-pimp" d="m300,155c-0.562,9.87-1.78,19.5-3.66,28.8-1.71,8.53-3.56,15.7-5.56,21.4l-10.1,3.38-0.106-0.141,0.0703-0.422c6.87-16.6,11.4-30.2,13.5-40.9l0.457-2.25,1.2-7.45c2.44-1.59,3.82-2.39,4.15-2.39m1.41,0c7.15,4.24,16.3,8.37,27.5,12.4,4.76,1.59,10.1,3.14,16,4.64l-0.0703,0.281c-1.17,4.78-2.02,7.17-2.53,7.17-2.27,0.00004-8.32,0.938-18.1,2.81-3.75,0.938-8.33,2.25-13.8,3.94h-0.141c-0.141-0.0234-1.15-2.7-3.02-8.02,0.0937-0.469,3.64-1.12,10.6-1.97,5.93-0.562,10.1-0.844,12.6-0.844h2.95l0.527-0.562c0.0937-0.445-0.692-0.726-2.36-0.844-7.03-1.41-13.6-3.23-19.9-5.48l-6.08-2.67-0.809,0.562-0.0703,0.281c-0.492,13.8-1.49,24.4-2.99,31.9l-2.64,10.4-0.176,0.141h-0.141c-4.5-2.56-6.74-4.06-6.72-4.5,2.06-6.56,3.57-12.2,4.54-17l1.34-6.61c1.24-6.19,2.31-14.8,3.2-25.9l0.176-0.141h0.141m4.57,12.2,10.3,4.08,7.49,1.97,3.62,0.844-0.0703,0.422c-3.14,0.00004-7.64,0.422-13.5,1.27-5.74-1.29-8.56-2.23-8.44-2.81l0.281-5.62,0.176-0.141h0.141m-0.316,11.4,0.281,0c0.352,0.234,1.39,3,3.13,8.3-2.39,3.94-3.86,6.09-4.4,6.47-0.75-0.891-0.926-2.34-0.527-4.36l0.949-9,0.562-1.41m36.2,1.83,0.106,0.141-0.0351,0.141c-3.54,2.39-5.57,3.66-6.08,3.8-4.48,0.562-9.42,1.59-14.8,3.09-3.82,1.24-8.57,2.93-14.2,5.06l-0.106-0.141,0.0351-0.141c1.97-3.28,3.14-4.92,3.52-4.92,8.3-2.84,16.5-4.9,24.7-6.19l6.93-0.844m-50.4,25.6,6.05,3.66c0.281,0,0.469,0.188,0.562,0.562-0.0469,0.234-1.31,0.703-3.8,1.41l-5.27,1.83h-0.984l-6.36-4.08,0.0703-0.281,9.74-3.09"/>
			<path id="i-pimp" d="m358,160c4.15,1.45,6.22,2.34,6.22,2.67,0.938,5.74,0.949,16,0.0352,30.8-0.422,5.79-1.06,10.8-1.9,15l0.0703,0.422-0.633,0.281-8.65-3.09,1.55-6.47,0.387-1.83c2.13-10.6,2.99-22.9,2.57-36.8l0.0352-0.844,0.176-0.141h0.141m-1.76,0.281c0.352,0.00006,0.504,2.06,0.457,6.19,0.0703,11.9-0.762,22.2-2.5,30.8l-0.984,4.92c-0.375,1.88-0.656,2.81-0.844,2.81l0.106,0.141-0.0351,0.281c-0.0938,0.375-3.28,1.55-9.56,3.52l-0.141-0.141h-0.141c2.7-6.87,4.78-14,6.26-21.4l0.106-0.562c1.41-7.01,2.43-14.9,3.06-23.6l4.22-2.95m-4.25,46.7c5.6,1.8,8.66,2.93,9.18,3.38-1.12,0.562-3.7,1.5-7.73,2.81-0.0469,0.188-0.305,0.281-0.773,0.281l-9.18-3.38,0.106-0.422,8.4-2.67"/>
			<path id="m-pimp" d="m432,160,0.106,0.141c-5.79,13.5-10,26.8-12.7,40.1l-1.06,6.05-9.32,2.95-0.211-0.422,0.281-0.703,0.352-1.69c0.938-4.73,3.81-13.9,8.61-27.6l-0.106-0.141,0.562-2.81-0.246-0.281c-1.94,3.12-4.96,6.44-9.04,9.98-3.33,2.72-6.27,4.08-8.82,4.08h-0.984c-4.34,0.00002-7.88-4.08-10.6-12.2l-0.106-0.141-0.141,0.562-0.492,1.83-0.703,12c-0.82,8.37-1.56,14.2-2.22,17.4l-0.176,0.141h-0.141c-4.71-1.59-7.41-2.62-8.09-3.09l0.703-2.81,1.12-5.77c2.27-11.4,3.23-23.6,2.88-36.8l0.0703-0.281c0.0234-0.187,0.176-0.281,0.457-0.281l5.73,2.39,3.38,6.33c3.87,6.28,7.83,9.42,11.9,9.42h1.12c5.32,0.00004,12.3-5.2,20.8-15.6,0.797-0.562,3.13-1.45,7-2.67m-51.5,0.422c0.352,13.7-0.492,25.6-2.53,35.7l-1.34,6.75c-0.422,2.16-0.867,3.23-1.34,3.23l-8.16,2.81h-0.141v-0.141c2.7-7.29,4.77-14.6,6.22-21.9,1.12-5.62,2.19-13.6,3.2-23.8l4.08-2.67m53,0,2.67,2.81c-2.74,8.53-4.76,16-6.05,22.4l-0.633,3.23c-1.22,6.14-1.96,12.7-2.22,19.6l-0.0703,0.281c-0.0235,0.188-0.176,0.281-0.457,0.281l-7.24-3.23,1.12-6.33,0.211-1.12c2.3-11.4,6.36-24,12.2-37.7l0.176-0.141h0.281m-16.8,19.1,0.106,0.141-0.0352,0.141c-1.76,5.11-2.88,8.16-3.38,9.14-5.72,6.75-10.8,10.1-15.4,10.1h-0.141c-4.03,0.00002-7.17-2.81-9.42-8.44l0.527-9h0.141c2.25,4.52,4.51,7.24,6.78,8.16,1.15,0.562,2.13,0.844,2.95,0.844h2.11c1.38,0.00003,3.4-0.75,6.05-2.25,4.01-2.93,6.63-5.23,7.88-6.89,0.726-0.961,1.32-1.62,1.79-1.97m-41.3,27.4,0.422,0,8.33,3.23,0,0.141c-0.164,0.258-1.76,0.914-4.78,1.97l-3.3,1.12-8.47-3.38,0.0352-0.141,7.77-2.95m43.7,0,0.141,0c4.12,1.55,6.4,2.58,6.82,3.09-5.53,1.97-8.9,3.09-10.1,3.38l-6.57-2.95,0.0352-0.141,9.67-3.38"/>
			<path id="p-pimp" d="m452,155c-0.562,9.87-1.78,19.5-3.66,28.8-1.71,8.53-3.56,15.7-5.56,21.4l-10.1,3.38-0.106-0.141,0.0703-0.422c6.87-16.6,11.4-30.2,13.5-40.9l0.457-2.25,1.2-7.45c2.44-1.59,3.82-2.39,4.15-2.39m1.41,0c7.15,4.24,16.3,8.37,27.5,12.4,4.76,1.59,10.1,3.14,16,4.64l-0.0703,0.281c-1.17,4.78-2.02,7.17-2.53,7.17-2.27,0.00004-8.32,0.938-18.1,2.81-3.75,0.938-8.33,2.25-13.8,3.94h-0.141c-0.141-0.0234-1.15-2.7-3.02-8.02,0.0937-0.469,3.64-1.12,10.6-1.97,5.93-0.562,10.1-0.844,12.6-0.844h2.95l0.527-0.562c0.0937-0.445-0.691-0.726-2.36-0.844-7.03-1.41-13.6-3.23-19.9-5.48l-6.08-2.67-0.809,0.562-0.0703,0.281c-0.492,13.8-1.49,24.4-2.99,31.9l-2.64,10.4-0.176,0.141h-0.141c-4.5-2.56-6.74-4.06-6.72-4.5,2.06-6.56,3.57-12.2,4.54-17l1.34-6.61c1.24-6.19,2.31-14.8,3.2-25.9l0.176-0.141h0.141m4.57,12.2,10.3,4.08,7.49,1.97,3.62,0.844-0.0703,0.422c-3.14,0.00004-7.64,0.422-13.5,1.27-5.74-1.29-8.56-2.23-8.44-2.81l0.281-5.62,0.176-0.141h0.141m-0.316,11.4,0.281,0c0.352,0.234,1.4,3,3.13,8.3-2.39,3.94-3.86,6.09-4.4,6.47-0.75-0.891-0.926-2.34-0.527-4.36l0.949-9,0.562-1.41m36.2,1.83,0.106,0.141-0.0352,0.141c-3.54,2.39-5.57,3.66-6.08,3.8-4.48,0.562-9.42,1.59-14.8,3.09-3.82,1.24-8.57,2.93-14.2,5.06l-0.106-0.141,0.0352-0.141c1.97-3.28,3.14-4.92,3.52-4.92,8.3-2.84,16.5-4.9,24.7-6.19l6.93-0.844m-50.4,25.6,6.05,3.66c0.281,0,0.469,0.188,0.562,0.562-0.0469,0.234-1.31,0.703-3.8,1.41l-5.27,1.83h-0.984l-6.36-4.08,0.0703-0.281,9.74-3.09"/>
			<path id="m-my" d="m576,160,0.106,0.141c-5.79,13.5-10,26.8-12.7,40.1l-1.06,6.05-9.32,2.95-0.211-0.422,0.281-0.703,0.352-1.69c0.938-4.73,3.81-13.9,8.61-27.6l-0.106-0.141,0.562-2.81-0.246-0.281c-1.94,3.12-4.96,6.44-9.04,9.98-3.33,2.72-6.27,4.08-8.82,4.08h-0.984c-4.34,0.00002-7.88-4.08-10.6-12.2l-0.106-0.141-0.141,0.562-0.492,1.83-0.703,12c-0.82,8.37-1.56,14.2-2.22,17.4l-0.176,0.141h-0.141c-4.71-1.59-7.41-2.62-8.09-3.09l0.703-2.81,1.12-5.77c2.27-11.4,3.23-23.6,2.88-36.8l0.0703-0.281c0.0234-0.187,0.176-0.281,0.457-0.281l5.73,2.39,3.38,6.33c3.87,6.28,7.83,9.42,11.9,9.42h1.12c5.32,0.00004,12.3-5.2,20.8-15.6,0.797-0.562,3.13-1.45,7-2.67m-51.5,0.422c0.352,13.7-0.492,25.6-2.53,35.7l-1.34,6.75c-0.422,2.16-0.867,3.23-1.34,3.23l-8.16,2.81h-0.141v-0.141c2.7-7.29,4.77-14.6,6.22-21.9,1.12-5.62,2.19-13.6,3.2-23.8l4.08-2.67m53,0,2.67,2.81c-2.74,8.53-4.76,16-6.05,22.4l-0.633,3.23c-1.22,6.14-1.96,12.7-2.22,19.6l-0.0703,0.281c-0.0235,0.188-0.176,0.281-0.457,0.281l-7.24-3.23,1.12-6.33,0.211-1.12c2.3-11.4,6.36-24,12.2-37.7l0.176-0.141h0.281m-16.8,19.1,0.106,0.141-0.0352,0.141c-1.76,5.11-2.88,8.16-3.38,9.14-5.72,6.75-10.8,10.1-15.4,10.1h-0.141c-4.03,0.00002-7.17-2.81-9.42-8.44l0.527-9h0.141c2.25,4.52,4.51,7.24,6.78,8.16,1.15,0.562,2.13,0.844,2.95,0.844h2.11c1.38,0.00003,3.4-0.75,6.05-2.25,4.01-2.93,6.63-5.23,7.88-6.89,0.726-0.961,1.32-1.62,1.79-1.97m-41.3,27.4,0.422,0,8.33,3.23,0,0.141c-0.164,0.258-1.76,0.914-4.78,1.97l-3.3,1.12-8.47-3.38,0.0352-0.141,7.77-2.95m43.7,0,0.141,0c4.12,1.55,6.4,2.58,6.82,3.09-5.53,1.97-8.9,3.09-10.1,3.38l-6.57-2.95,0.0352-0.141,9.67-3.38"/>
			<path id="y-my" d="m636,159,0.106,0.141-0.0352,0.141c-0.844,4.29-0.668,9.77,0.527,16.4,1.52,7.8,1.92,13.5,1.2,17.2-1.17,5.86-5.27,10.2-12.3,13.1-2.74,0.938-5.7,1.41-8.86,1.41h-0.984c-3.73,0.00001-9.39-0.797-17-2.39l-2.64-0.141h-1.41c-6.19,0.00001-11.3,1.08-15.3,3.23h-0.141c-1.15-2.3-1.8-3.94-1.97-4.92,1.69-1.36,3.64-2.25,5.87-2.67,0.0703-0.328,2.86-0.703,8.37-1.12h4.92l13.8,0.844c10.3,0.00001,16-2.58,17-7.73,0.375-1.83,0.281-3.94-0.281-6.33l-1,1h-0.141c-3.8,2.06-8.59,4.03-14.4,5.91-4.29,1.12-7.41,1.69-9.35,1.69h-2.95c-3.84,0.00002-7.52-1.31-11-3.94-1.15-1.66-1.52-3.49-1.12-5.48l0.106-0.562c1.08-5.37,5.98-10.7,14.7-15.9l3.76-1.97,0.246-1.12h-1.41l-4.89,0.422-0.106-0.141,0.0352-0.141c1.36-2.16,2.46-3.23,3.3-3.23,4.36-1.41,8.34-2.11,12-2.11h1.41l0.246,0.281-0.914,4.5c-0.117,0.164-1.4,0.727-3.83,1.69-6.84,3.75-10.9,8.86-12.2,15.3-1.01,5.06,0.504,7.59,4.54,7.59,4.24,0.00003,11.5-2.48,21.9-7.45v-0.141c-0.0469-3.42,0.281-6.94,0.984-10.6,0.773-3.84,2.05-7.64,3.83-11.4l0.738-0.141,3.83-0.141m-17.4,0.281c1.69,1.88,2.52,2.91,2.5,3.09l-1.02,6.47h-0.281l-2.64-3.8,1.12-5.48,0.316-0.281m18.6,0.703c2.23,2.51,3.3,3.91,3.23,4.22,0.117,3.14,0.715,6.94,1.79,11.4,2.3,7.8,2.93,14.3,1.9,19.4-1.24,6.26-4.12,11-8.65,14.3-4.55,2.62-9.87,3.94-16,3.94-3.75,0-10.4-0.75-19.8-2.25l-4.04-0.141c-5.25,0-9.4,0.797-12.4,2.39h-0.141l-3.38-4.22c3.54-2.16,8.48-3.23,14.8-3.23,2.88,0.00001,7.12,0.609,12.7,1.83,2.81,0.469,5.25,0.703,7.31,0.703h2.67c5.72,0,10.9-1.83,15.4-5.48,3.21-2.93,5.07-5.7,5.59-8.3l0.668-3.23c0.562-2.88-0.0587-9.4-1.86-19.6-0.68-5.02-0.75-8.91-0.211-11.7l0.176-0.141h0.141m-21.1,5.62c0.562,0.539,1.32,1.66,2.28,3.38l-0.0352,0.141c-7.06,3.87-11,8.18-12,12.9l-0.281,1.41c-0.328,1.64-0.41,2.95-0.246,3.94l-0.352,0.422c-3.75,0.00002-5.2-2.11-4.36-6.33,1.45-7.27,6.21-12.6,14.3-15.9h0.703m-12.4,0.141,0,0.141c-0.0469,0.141-1.17,0.844-3.38,2.11h-0.281c-0.234-0.0937-0.562-0.562-0.984-1.41v-0.141c0.0703-0.281,1.62-0.516,4.64-0.703m21.9,21.8,0.281,0c0.375,0.00002,0.504,1.5,0.387,4.5-0.117,0.516-2.27,1.69-6.47,3.52-6.47,2.25-10.9,3.38-13.3,3.38h-0.281l-9.6-0.562h-1.97c-2.23,0.00002-4.11-2.06-5.66-6.19l-0.633-1.12,0.176-0.141h0.141c3.68,2.53,7.84,3.8,12.5,3.8,6.44,0.00002,14.6-2.39,24.5-7.17"/>
		</g>
		<path id="fissure-1" style="direction:ltr;enable-background:accumulate;baseline-shift:baseline;block-progression:tb;text-indent:0;color:#000000;text-transform:none;text-align:start;" fill="#a1e1ff" d="m294,778-33.2,16.1,6.77,4.8c-1.31,2.38-0.114,0.716-2.9,4.22,1.9,0.463-10.2-0.199-8.34,0.26l-16.9,5.29c6.67-1.86,11.6-2.34,18.3-4.28,3.59,0.471,5.36,0.517,7.81,0.788l5.87-6.21c-1.66-2.13-2.13-2.11-5.65-4.32l29.5-14.5z"/>
		<path id="fissure-2" style="direction:ltr;enable-background:accumulate;baseline-shift:baseline;block-progression:tb;text-indent:0;color:#000000;text-transform:none;text-align:start;" fill="#a1e1ff" d="m374,781c-3.14,7.89-5.28,13.8-8.42,21.7,1.12-0.193,0.183-0.343,3.2,3.26l-2.83,8.63c1.88-4.18,1.87-2.93,5.37-11.2,0,0,0.927,1.09-1.91-2.02l8.47-21.4z"/>
		<path id="fissure-3" style="direction:ltr;enable-background:accumulate;baseline-shift:baseline;block-progression:tb;text-indent:0;color:#000000;text-transform:none;text-align:start;" fill="#a1e1ff" d="m415,780c1.23,8.74,2.89,17.2,4.16,25.9,1.78-1.09,3.37-1.78,5.18-2.82-0.115,3.88-0.0218,7.43-0.127,11.3,2.82,0.48,5.65,0.792,8.47,1.17l-7.37-2.06c0.139-4.24,0.284-8.48,0.422-12.7-1.94,1.08-3.56,1.57-5.48,2.68l-3.55-23.8z"/>
		<path id="fissure-4" style="direction:ltr;enable-background:accumulate;baseline-shift:baseline;block-progression:tb;text-indent:0;color:#000000;text-transform:none;text-align:start;" fill="#a1e1ff" d="m480,779c-4.18,7.7-7.42,12.9-11.6,20.6-1.06,0.829-8.15,5.21-6.86,5.23l2.76,9.18c-0.668-4.96-1.31-8.41-1.69-9.33,1.16-0.991,5.22-3.32,6.69-4.15l12-21z"/>
		<path id="fissure-5" style="direction:ltr;enable-background:accumulate;baseline-shift:baseline;block-progression:tb;text-indent:0;color:#000000;text-transform:none;text-align:start;" fill="#a1e1ff" d="m547,754c-1.86,2.14-3.67,4.32-5.5,6.49-4.57-1.54-9.11-3.17-13.7-4.65-1.38,2.73-2.76,5.46-4.14,8.19l-21.2,6.62,0.445,1.43,21.4-7.07c1.22-2.34,2.69-5.7,3.98-8.24,4.51,1.53,9.02,2.9,13.5,4.43,1.91-2.26,3.75-4.28,5.66-6.54l5.82-1.55c-1.28-0.0421-3.76,0.421-6.23,0.896z"/>
		<path id="fissure-6" style="direction:ltr;enable-background:accumulate;baseline-shift:baseline;block-progression:tb;text-indent:0;color:#000000;text-transform:none;text-align:start;" fill="#a1e1ff" d="m549,781c-5.08,4.05-9.91,8.48-15.7,12.5,4.34,1.57,7.7,3.09,12.1,4.62-10,2-8.75,1.22-18.8,3.22,0.425,3.18,0.851,6.24,1.28,9.42l-6.47-6.67c1.01,1.19,4.29,5.78,7.43,8.43-0.481-3.94-0.643-6.23-1.16-10.2,11.3-2.21,9.49-1.74,20.8-3.88-5.11-1.82-7.97-3.58-13.1-5.37l15.2-10.6-1.92-1.52z"/>
		<path id="fissure-7" style="direction:ltr;enable-background:accumulate;baseline-shift:baseline;block-progression:tb;text-indent:0;color:#000000;text-transform:none;text-align:start;" fill="#a1e1ff" d="m588,756c0.155,3.75,0.147,5.36-0.302,9.56l3.26-0.463,0.487-8.39c4.52-1.34,9.02-2.75,13.5-4.07-1.07-2.01-2.14-4.03-3.2-6.04,1.99,0.318,4.26,0.71,6.13,0.558l6.68-5.91-7.03,4.42c-4.39-0.612-1.95-0.291-8.7-1.09,1.25,2.36,2.5,4.72,3.75,7.07-4.87,1.45-9.74,2.89-14.6,4.35z"/>
		<path id="fissure-8" style="direction:ltr;enable-background:accumulate;baseline-shift:baseline;block-progression:tb;text-indent:0;color:#000000;text-transform:none;text-align:start;" fill="#a1e1ff" d="m634,779-4.5,1.89,11.8,20-9.29,6.32c-4.58,0.888-9.16,1.85-13.7,2.84,0.541,3.22,1.08,6.88,1.08,9.89l-4.19,4.3c5.59-3.6,3.5-2.47,5.53-3.88,0.0504-2.62-0.541-6.08-0.541-8.8,4.09-0.849,8.73-1.18,12.8-1.96,4.27-2.72,8.73-5.38,12.4-7.65-3.73-6.64-8.33-18-11.4-23z"/>
		<path id="fissure-9" style="direction:ltr;enable-background:accumulate;baseline-shift:baseline;block-progression:tb;text-indent:0;color:#000000;text-transform:none;text-align:start;" fill="#a2e1ff" d="m718,770-1.92,2.79,9.65,13.6c-1.99,5.96-3.18,11.5-5.17,17.4,4.16-1.26,8.29-2.58,12.4-3.87l5.92,0.125c1.49,2.57,1.95,9.21,3.78,12.4-0.979-4.38-1.89-8.77-2.91-13.1-2.44-0.236-4.86,0.007-6.96-0.256-3.36,1.06-6.64,1.41-10,2.47,1.78-5.3,3.39-10.5,5.22-15.7-3.36-5.24-6.7-10.5-10-15.7z"/>
		<g id="math" style="letter-spacing:0px;word-spacing:0px;" font-weight="bold" transform="matrix(2.2774407,0,0,2.2774407,-448.78153,-155.51376)" font-stretch="normal" line-height="125%" font-size="72px" font-variant="normal" font-family="Mathematics Boredom" font-style="italic" fill="#000">
			<path id="path3793" d="m335,367c-1.71,8.56-3.39,15.6-5.03,21.1h0.422l-0.527,0.457-3.27,16.4,0.0351,1.86-0.773,1.9,2.46-0.492,11.1,1.41c0.82-1.41,1.5-3.43,2.04-6.08l0.387-1.86,0.773-9.84,0.457-0.492h0.387c1.59,3.75,2.8,5.62,3.62,5.62l4.6-3.27h0.809l-0.0703,2.36-0.3,1.8c-0.68,3.42-1.09,7.49-1.23,12.2l7.94-0.492h3.94l3.87-19.2-0.809-1.9,1.27-0.457c0.891-4.45,2.38-9.91,4.46-16.4,0.305-2.81,0.187-4.22-0.352-4.22h-9.84c-1.92,1.01-3.67,3.19-5.24,6.54-0.82,0.00004-1.86,1.25-3.13,3.76l-4.32,3.76c-0.774,0.00003-2.17-4.85-4.18-14.6l-2.85,0.492h-2l-4.6-0.492m10.8,32.8-2.81,12.5,6.29-2.18,1.12-11.7-1.2,0c-1.29,0.938-2.43,1.41-3.41,1.41m20.5,0-0.352,1.9,0.809,0,0.352-1.9-0.809,0m1.2-2.74c0.234,0.00001,0.363,0.293,0.387,0.879,0.0468,0.586-0.0118,1.3-0.176,2.14-0.164,0.82-0.387,1.54-0.668,2.14-0.258,0.586-0.504,0.879-0.738,0.879-0.234,0.00001-0.375-0.293-0.422-0.879-0.0235-0.609,0.0468-1.32,0.211-2.14,0.164-0.844,0.375-1.56,0.633-2.14,0.281-0.586,0.539-0.879,0.773-0.879m-23.1-37.6,7.31,0.949,0.387,0,3.87,10.3,0.387,0,2.95-2.81,0.0703-0.457-0.316-0.492,0.106-0.457,12-6.57c6.91,0.938,10.3,1.72,10.2,2.36-0.445,2.18-0.469,3.59-0.0703,4.22-1.03,1.15-1.65,2.24-1.86,3.27l-4.25,17.3,0.106,1.41-0.738,1.9-0.0352,6.08-0.984,0.949-1.23,6.08,0.281,0.457c-0.117,0.586-1.61,2.16-4.46,4.71l-0.106,0.457c-0.141,0.703,0.422,1.17,1.69,1.41-0.117,0.562-1.4,1.03-3.83,1.41l-7.38-0.457h-1.97l-5.24,0.457,5.27-0.457h-17.8l-2.07,0.457-2.28-0.457h-4.71l-2.22-0.949-2.46,0.457-1.86-0.457,0.106-0.457c1.06,0,1.64-0.316,1.76-0.949l-0.352-2.36,8.9-38.4-0.211-2.81h0.387c5.3-4.06,8.86-6.08,10.7-6.08"/>
			<path id="path3795" d="m415,362c-0.117,0.586,0.199,0.879,0.949,0.879l1.2-0.457c-0.0938,0.516,0.457,0.961,1.65,1.34-0.539,2.62-0.106,12.3,1.3,29,0.773,1.17,0.926,2.93,0.457,5.27h-0.387c0.398,1.73,0.492,3.77,0.281,6.12l-0.492,0.457-0.0703,0.422,0.106,1.34c-1.8,0.516-3.23,1.4-4.29,2.64h1.12l-0.422,0.422-4.22,2.22h-0.387l0.176-0.879h-1.86l-0.176,0.879h-0.387l-0.0703-1.34-12.1,0.457-0.176,0.879h-1.12c0.422-2.09,0.223-5.46-0.598-10.1h-2.1c-2.98,6.66-4.66,10-5.06,10.1l0.352-1.76c-0.609,0-1.1,0.586-1.48,1.76l-1.55,0.422-2.57-0.422h-10.1c0.305-1.48,0.199-2.22-0.316-2.22l-0.562-0.879,0.0703-0.422h0.738l0.316,0.422h0.387l9.67-20.2c2.16-3.3,5.45-9.74,9.88-19.3,3.42-2.25,7.58-4.3,12.5-6.15l0.422-0.457,1.44,0.457,5.8-0.879m-28.5,28.1,0.281,0.422c-1.1,0.117-4.3,6.12-9.6,18l9.04,1.76,6.05-9.67-0.281-0.422,0.176-0.879,1.58-0.422,1.41,0.422,1.62-0.422c0.375,6.14,0.879,9.21,1.51,9.21h0.738l-0.0703,0.422-0.492,0.457-0.0703,0.422,0.281,0.457h2.64l0.633-1.34,8.86,0.879,0.7-0.4c-0.961-3.77-1.38-11.7-1.27-23.7-0.305-3.33-0.176-8.31,0.387-14.9h-12.4c-2.27,2.53-5.54,8.24-9.81,17.1-0.516,0.0938-1.07,0.973-1.65,2.64m8.75-19.3-0.281,1.3,0.914-0.879,0.106-0.422-0.738,0m5.45,8.33c1.83,2.16,2.4,4.93,1.72,8.33l-0.176,2.64,0.598,0.879-0.949,0.879-1.79-0.457-5.31,0.457c-0.914-0.445-1.34-0.891-1.27-1.34l4.11-9.21-0.387-1.76,0.422-0.422h3.02m-0.352,3.52c-1.06,1.52-1.78,3.27-2.18,5.24h3.02c0.0468-3.49-0.234-5.24-0.844-5.24m11.6,21.1,0.352,0,1.41-1.34-0.352,0-1.41,1.34m-21.2,4.4-0.0703,0.422,0.949-0.879,0.0703-0.422-0.949,0.879m27,0,0.738,0-0.914,0.879-0.773,0,0.949-0.879m-40.9,1.76-0.0703,0.422,2.25,0,0.0703-0.422-2.25,0"/>
			<path id="path3797" d="m452,359c15.8,0.867,23.5,2.13,23.1,3.8-0.727,0.00005-1.2,0.48-1.41,1.44l1.34,4.29-2.88,7.14c-3.3,3.8-7.66,5.7-13.1,5.7l-1.97,0.949c0.211,3.21-0.0118,9.08-0.668,17.6,0.328,0.00002,0.41,1.43,0.246,4.29-0.164,0.773-2.23,2.67-6.19,5.7l-0.211,0.949,0.246,0.492-0.0703,0.457-0.457,0.492h-0.387l-2.78-0.492-4.08,0.492h-4.36l-0.246-0.492h-0.352l0.422-0.457,0.106-0.492,3.41-26.2,0.387-1.9c0.164-0.82-3.68-1.45-11.5-1.9l-0.316-0.492,0.211-0.949,12.5,0.949,0.422,1.44-0.457,2.36-2.95,25.7h0.352l8.05-0.457,0.773-3.83c0.82-4.06,1.2-12,1.12-23.8,9.68-1.38,14.6-2.5,14.8-3.34,1.34-6.66,1.46-10.3,0.387-10.9h-12l-19.1-0.492-3.06,0.949-1.02,10.5h-0.352c-0.609,0.00003-0.609-3.64,0-10.9-0.727,0.00005-1.02-0.316-0.879-0.949,0.82,0.00005,3.88-1.43,9.18-4.29,3.98-2.23,8.56-3.34,13.7-3.34m4.36,5.24-0.0703,0.457,4.01-1.9,0.0703-0.457-0.352,0c-2.27,0.516-3.49,1.15-3.66,1.9m12.8,4.75-0.176,0.949,1.09,0,1.62-0.949,0.106-0.457-1.09,0-1.55,0.457m-16.2,21.4,1.09,0,0.176-0.949-0.352,0-0.914,0.949m6.3-28.8c0.938,0.00005,1.7,0.188,2.28,0.562,0.609,0.375,0.855,0.82,0.738,1.34-0.0938,0.539-0.516,0.996-1.27,1.37-0.75,0.375-1.59,0.562-2.53,0.562-0.961,0.00004-1.73-0.188-2.32-0.562-0.586-0.375-0.832-0.832-0.738-1.37,0.117-0.516,0.539-0.961,1.27-1.34,0.75-0.375,1.6-0.562,2.57-0.562m12.6,5.2c0.516,0.00005,0.902,0.258,1.16,0.773,0.281,0.492,0.352,1.1,0.211,1.83-0.141,0.727-0.457,1.35-0.949,1.86-0.469,0.492-0.961,0.738-1.48,0.738-0.539,0.00004-0.949-0.246-1.23-0.738-0.258-0.516-0.316-1.14-0.176-1.86,0.141-0.726,0.445-1.34,0.914-1.83,0.492-0.516,1.01-0.773,1.55-0.773m-17.8,22.2c0.492,0.00003,0.879,0.188,1.16,0.562,0.281,0.375,0.363,0.832,0.246,1.37-0.0938,0.539-0.363,0.996-0.809,1.37-0.422,0.375-0.879,0.562-1.37,0.562-0.492,0.00002-0.867-0.188-1.12-0.562-0.258-0.375-0.34-0.832-0.246-1.37,0.117-0.539,0.375-0.996,0.773-1.37,0.422-0.375,0.879-0.562,1.37-0.562"/>
			<path id="path3799" d="m498,360c2.09,0.633,3.07,1.25,2.95,1.86l-1.69,4.18,0.352,0.457h2.11c0.891,0.00004,3.72-1.55,8.47-4.64l0.281,0.457,4.32-0.457h1.65l0.527-0.457c3.63,0.00005,5.11,1.7,4.43,5.1h0.422l-0.211,0.914h-0.422c-2.44,14.2-3.43,21.4-2.99,21.4l-0.879,2.32-0.773,14.4-0.527,0.457h-0.844l-0.316-0.457h-0.422l-4.6,4.18-1.62-0.457-0.176,0.914h2.11l-0.281,1.41h-8.82l-8.96,0.914c0.117-0.609-0.246-0.914-1.09-0.914l-0.316-0.492,0.106-0.457,1.09-1.37c-0.281-1.41-0.152-3.42,0.387-6.05l0.844-4.18-0.668-0.949h-2.07l-1.44,9.32-0.106,0.457c-0.305,1.55-0.0469,2.32,0.773,2.32l-0.176,0.914-5.2,0.949-13.7-0.949-0.281-0.457h-0.422l-1.79,0.457-0.668-0.914c0.844,0,3.26-7.12,7.24-21.4l0.0703-0.457c0.867-0.633,3.07-7.44,6.61-20.4l-0.984-1.41,7.63-4.64c1.62-0.937,3.1-1.41,4.46-1.41h3.8l1.79-0.457m-1.93,15.8,0.141,1.41,0.422,0c1.45,0.00003,2.39-0.469,2.81-1.41l1.48-7.42-0.668-0.949h-0.422c-0.774,0.00005-2.03,2.79-3.76,8.37m-13.1-7.88c-0.703,0.633-2.74,7.29-6.12,20l0.668,0.914-0.106,0.457c-1.69,0.00003-3.25,3.56-4.68,10.7-1.31,2.51-2.37,5.77-3.16,9.77l-0.106,0.457c2.84-0.188,4.29-0.492,4.36-0.914l0.352,0.457h0.844l9.1,0.457,1.02-5.1,1.16-7.91,0.527-0.457h3.8l2.99-0.457c0.773,0.00001,0.445,4.49-0.984,13.5l0.668,0.914,10.2-0.914,2.85,0.457,0.492-0.457,0.0703-0.457c-0.328-1.01,0.281-7.51,1.83-19.5l-0.984-1.41,0.527-0.457h0.422l1.16-7.91,1.41-6.96-0.457-4.18-6.36,0.457h-2.07l-1.09,3.27-1.58,7.88c-0.492,2.48-3.68,3.73-9.56,3.73l-1.51-0.914,2.28-9.32,0.949-4.64-0.668-0.914h-3.34l-4.92-0.457m26.2,30.2-0.106,0.492,0.844,0,0.281-1.41-1.02,0.914m1.37-2.43c0.375,0.00002,0.633,0.293,0.773,0.879,0.164,0.586,0.164,1.29,0,2.11-0.164,0.844-0.445,1.56-0.844,2.14-0.375,0.586-0.75,0.879-1.12,0.879-0.375,0.00001-0.645-0.293-0.809-0.879-0.141-0.586-0.129-1.3,0.0351-2.14,0.164-0.82,0.434-1.52,0.809-2.11,0.398-0.586,0.785-0.879,1.16-0.879m-1.51,11.5c0.305,0.00001,0.527,0.199,0.668,0.598,0.164,0.398,0.188,0.879,0.0703,1.44-0.117,0.586-0.328,1.08-0.633,1.48-0.305,0.398-0.609,0.598-0.914,0.598-0.305,0.00001-0.527-0.199-0.668-0.598-0.117-0.398-0.117-0.891,0-1.48,0.117-0.562,0.316-1.04,0.598-1.44,0.281-0.398,0.574-0.598,0.879-0.598"/>
		</g>
		<path id="becasse" style="baseline-shift:baseline;block-progression:tb;color:#000000;direction:ltr;text-indent:0;text-align:start;enable-background:accumulate;text-transform:none;" fill="#000" d="m755,542c-0.995-0.173-2.03-0.0329-2.97,0.344-1.87,0.753-3.43,2.48-3.72,4.72-0.245,1.91,0.732,3.4,1.9,4.63,1.16,1.23,2.78,2.59,4.14,1.65,1.54-1.07-0.112-3.62-0.469-4.94,1.69,0.0618,0.257-0.0287,1.86,0.134-1.22-1.8-2.99-2.55-4.2-2.6,0.787,1.33,1.68,2.75,2.1,3.97,0.219,0.656,0.984,2.66,0.537,2.93-0.77,0.46-2.84-1.08-3.4-1.66-0.919-0.97-1.4-2.48-1.21-3.96,0.224-1.74,1.46-3.13,2.94-3.72,1.47-0.594,3.1-0.43,4.28,0.844,1.16,1.26,1.36,2.09,1.53,3.19s0.277,2.48,1.25,4.28c1,1.86,6.69,8.4,7.8,10.2-1.26-1.44-7.07-7.83-8.21-8.96-0.663-0.767-1.27-1.08-2.06-0.781-0.457,0.17-0.253,0.686-0.125,1.03,0.767,2.07,2.24,4.1,3.5,5.69,4.39,5.55,5.68,11,3.88,15.3s-6.77,7.64-15.4,8.62c-12.3,1.82-5.91,2.78-16.3-0.531-2.46-1-5.5-1.26-7.81-2.78-4.81-2.94,2.23-7.46,5.09-10,3.85-3.42,7.78-7.74,11.2-11.3,4.13-3.61,8.84-2.48,11.6,0.23,2.07,2.02,3.19,6.18,0.36,8.68-4.16,3.58-9.3,6.39-14.1,7.06-3.28,0.462-10-0.463-11.6,0.625,2.54,1.7,6.95,1.78,11.8,0.625,4.9-1.16,10.3-3.61,14.6-7.34,1.44-1.24,2.71-3.14,3.31-5.25,0.601-2.11,0.517-4.47-0.938-6.5-2.31-3.22-5.88-3.65-8.97-2.91-3.09,0.742-5.83,2.53-7.12,3.91-3.38,3.61-7.29,7.93-11.1,11.3-3.77,3.35-7.42,5.66-9.88,5.56-1.75,0.0812-2.53-1.2-3.03-2.34l-0.875-2-0.344,2.16c-0.368,2.29,0.771,4.14,2.56,5.5s4.25,2.35,6.88,3.28c2.62,0.932,5.4,1.78,7.78,2.75,2.67,1.13,4.88,2.44,6.25,4.72-0.4,0.583-0.61,1.11-0.656,1.62-0.0898,0.987,0.478,1.81,1.25,1.97,0.386,0.0805,0.846-0.034,1.16-0.344,0.31-0.31,0.426-0.752,0.406-1.25-0.0206-0.522-0.171-1.16-0.531-1.88,2.34-2.48,6.37-3.89,9.09-4.22,8.94-1.02,14.4-4.52,16.5-9.38,2.03-4.85,0.518-10.9-4.06-16.6-0.572-0.721-2.31-2.76-1.47-2.28,2.95,1.68,11.5,15,13.3,15.2-3.29-6.78-9.53-14.2-12.6-19.9-0.87-1.61-0.944-2.71-1.12-3.88-0.181-1.17-0.517-2.41-1.84-3.84-0.775-0.838-1.72-1.33-2.72-1.5zm-15.9,47.8c0.0521,0.184,0.183,0.446,0.188,0.562,0.01,0.253-0.0644,0.314-0.0625,0.312-0.0568-0.0118-0.293-0.118-0.25-0.594,0.006-0.0671,0.103-0.198,0.125-0.281z"/>
		<path id="canne" stroke-linejoin="miter" d="m742,84,41.1-39.6c-0.119,66.9-28.3,158,0.714,204" transform="translate(0.2712087,495.68502)" stroke="#000" stroke-linecap="butt" stroke-miterlimit="4" stroke-dasharray="none" stroke-width="1.10000002" fill="none"/>
		<path id="hole-bottom" fill="#72ffff" d="m820,246c0,5.52-11,10-24.6,10s-24.6-4.48-24.6-10,11-10,24.6-10,24.6,4.48,24.6,10z" transform="matrix(1.1086957,0,0,0.72774248,-89.657808,581.84818)"/>
		<path id="escargot" stroke-linejoin="miter" d="m800,260c-0.0329,0.0121-0.0314-0.0651-0.0281-0.0765,0.0452-0.154,0.265-0.114,0.36-0.0455,0.307,0.222,0.186,0.681-0.0444,0.907-0.508,0.497-1.33,0.244-1.73-0.255-0.731-0.909-0.287-2.23,0.594-2.85,1.43-1.01,3.37-0.314,4.26,1.07,1.33,2.06,0.323,4.78-1.68,5.98-2.83,1.7-6.45,0.314-8.02-2.43-2.12-3.71-0.287-8.39,3.32-10.4,4.73-2.59,10.6-0.241,13,4.36,1.71,3.25,1.64,7.2,0.009,10.5" transform="matrix(1.2927398,0,0,1.2927398,-245.57531,417.64489)" stroke="#000" stroke-linecap="butt" stroke-width="1px" fill="none"/>
	</g>

  </svg>


</svg>
