<?xml version="1.0" encoding="UTF-8" standalone="no"?>
<svg id="svg2" xmlns:rdf="http://www.w3.org/1999/02/22-rdf-syntax-ns#" xmlns="http://www.w3.org/2000/svg" height="744.09" width="524.41" version="1.1" xmlns:cc="http://creativecommons.org/ns#" xmlns:dc="http://purl.org/dc/elements/1.1/">
  <g id="layer1" fill="#000" transform="translate(0,-308.26765)" onmouseover="evt.target.setAttribute('opacity',0);" >
    <path id="path2987" d="m258.46,617.77c-0.4526,15.55-4.8398,30.246-10.613,45.124-4.9831,14.465-10.647,27.186-13.177,41.951-2.5674,10.771-6.4887,21.04-8.3719,31.81-1.8038,10.021-4.4341,20.559-7.2573,30.599-4.5111,22.444-3.4479,45.802-9.5508,68.004-1.7748,10.411-1.0907,20.949-0.22262,31.952,1.8829,16.226,7.9476,30.352,10.315,46.245,4.1843,2.9873-1.5567,18.374-5.9738,11.424-0.87597-7.5244-4.1248-19.027-5.6051-27.727-2.9774-7.7471-5.3847-17.629-5.753-24.686-1.2751-10.203-1.5968-21.019-0.10114-29.678,1.0833-10.715,5.5913-22.631,4.7882-32.266,2.661-18.005,2.4715-36.888,9.352-54.005,2.1064-13.213,4.7237-26.734,9.3358-39.187,4.0337-21.771,12.256-42.628,20.088-63.357,3.1422-10.043,5.006-20.488,5.6311-31.032,2.3714-1.7231,4.7451-3.447,7.115-5.1697z"/>
    <g id="close">
      <path id="path3021" d="m223.52,646.93c-3.6286-0.12058-17.445,9.941-15.147,5.224,4.9479-3.0426,10.613-4.7506,15.747-8.0141,5.8383-1.8287-0.0301,1.52-0.60066,2.7902z"/>
      <path id="path3023" d="m214.39,640.75c-7.9397,2.8968-16.544,2.2987-24.862,1.8759,4.0264-5.9766,11.763-1.2968,17.769-2.98,3.2156,1.3767,15.901-6.174,7.0934,1.1042z"/>
      <path id="path3025" d="m190.38,627.95c-6.0249,0.22906-12.158,1.8736-18.031,0.38845,4.19-5.6755,12.22-0.94592,17.925-3.4292,4.6395-0.67235,2.5275,0.67351,0.10584,3.0407z"/>
      <path id="path3027" d="m174.53,613.34c-5.4622-0.89278-11.819-1.2666-16.153-5.1575,3.7206-6.0907,6.8163,1.197,11.711,0.9265,3.2429,1.2001,11.839-0.73205,4.4422,4.231z"/>
      <path id="path3029" d="m160.46,593.07c-6.8287-0.85899-14.138-0.79726-20.804-3.1074,3.39-5.7312,8.9581-0.30339,13.782-1.0451,2.5928,1.3932,14.836-1.141,7.0223,4.1525z"/>
      <path id="path3031" d="m156.23,576.77c-6.342-1.9882-10.777-7.166-15.123-11.634,4.4643-6.4373,7.7326,3.7693,12.258,5.572,2.4788,2.96,9.8178,1.3202,2.8656,6.0616z"/>
      <path id="path3033" d="m153.04,546.81c-6.2574-1.4434-10.564-5.3953-12.525-10.963,4.319-6.3039,4.6584,1.2936,7.4923,3.8239,2.3632,3.7435,12.525,2.5127,5.1931,6.9905l-0.16041,0.14864-0.00004-0.00041z"/>
      <path id="path3035" d="m154.99,517.24c-3.1136-2.5908-15.113-3.1002-12.236-6.0666,4.3802-3.9016,10.585,2.0487,15.532,3.063-1.0986,1.0012-2.1973,2.0024-3.2958,3.0036z"/>
      <path id="path3037" d="m159.52,498.46c-2.9069-4.877-8.5119-8.1384-12.09-12.618,3.6428-5.7975,5.8329,0.63532,9.0048,2.8505,2.619,2.9326,10.279,6.9939,3.0855,9.7675z"/>
      <path id="path3039" d="m173.1,482.71c-7.4659-3.0209-11.449-9.7786-14.933-16.266-4.3531-6.7459,5.9842-4.5193,6.5425,2.3053,2.3062,5.085,6.8252,8.6882,11.766,11.078-1.125,0.96092-2.2508,1.9222-3.3752,2.8828z"/>
      <path id="path3041" d="m195.85,469.77c-1.8092-9.2723-0.15766-18.883-1.4636-28.199,5.5797-5.9326,3.784,3.8301,3.9467,7.4098-0.70586,6.3281,2.2322,14.636-0.78066,19.5l-0.89427,0.6771-0.80875,0.61234h0.00052z"/>
      <path id="path3043" d="m210.27,450.8c-1.9298-6.276-5.724-11.636-5.2479-18.595,3.3882-7.1158,4.5575,1.3528,4.6311,5.6913,0.97106,4.538,7.6994,10.375,0.61685,12.904z"/>
      <path id="path3045" d="m233.9,443.05c-0.72008-6.2921-0.33979-13.874,2.0798-19.596,5.4176-4.8833,0.78089,6.238,1.1754,9.434-0.55488,4.1248,1.738,8.2512-3.2552,10.162z"/>
      <path id="path3051" d="m254.26,438.51c1.7607-5.3724,0.66539-12.197,4.1894-16.293,3.9309-1.5445-0.51654,10.557-0.77408,13.597-0.73941,1.074-2.3827,1.7779-3.4153,2.6964z"/>
      <path id="path3053" d="m271.91,439.86c2.4542-7.9882,24.269-26.498,13.838-16.293,4.9489-4.726-8.0959,9.051-10.014,13.629-0.92144,0.90257-2.609,1.7979-3.8249,2.6641z"/>
      <path id="path3055" d="m289.17,442.08c5.8922-5.5195,10.994-14.821,17.647-17.77-6.3388,5.4448-10.172,13.697-17.647,17.77z"/>
      <path id="path3057" d="m307.4,447.54c8.1493,0.99261,16.822-2.3028,24.324-5.8524-4.8788,3.3958,5.581-2.4716-4.0376,3.8421-7.3355,3.2165-15.412,5.9042-23.655,5.2488,1.1226-1.0796,2.2465-2.1587,3.3684-3.2386z"/>
      <path id="path3059" d="m326.74,469.44c6.7283-4.3902,11.922-11.775,18.489-15.672,2.1751,6.0598-5.0998,7.2175-7.6674,11.016-3.3538,1.8664-10.626,12.833-10.736,5.9895l-0.0721-1.1194-0.0138-0.21413v0.00002z"/>
      <path id="path3061" d="m344.92,482.79c8.8524-3.7925,17.781-8.3775,23.934-16.193,1.6737,6.7374-4.2132,9.0661-8.6962,12.538-4.6355,3.1911-9.7206,6.0836-15.035,8.0151-0.0674-1.4536-0.13489-2.9072-0.20233-4.3608z"/>
      <path id="path3063" d="m352.34,501.76c7.3348,0.61375,13.624-1.5039,20.59-1.6472,2.436,6.6602-6.7027,4.4224-9.5799,5.3713-3.4806-0.007-12.423,3.6304-11.01-2.454v-1.1217-0.1487l0.00004,0.00026z"/>
      <path id="path3065" d="m358.26,512.34c6.0013,2.5122,11.931,5.8047,16.331,10.812,1.0748,9.375-6.0128-2.6841-10.18-3.4923-3.9625-1.5958-7.8386-2.0996-6.1511-7.3201z"/>
      <path id="path3067" d="m359.66,526.37c5.9888,5.2426,14.869,8.0995,16.162,17.034-0.0161,11.201-2.2923-6.138-7.7412-6.0934-2.4659-3.1402-11.074-4.7049-8.4211-10.94z"/>
      <path id="path3069" d="m360.13,555.02c5.5336,8.7941,11.642,18.682,12.777,29.144-1.4162,2.6317-4.4289-12.168-8.0173-15.707-1.3188-4.9377-6.5918-7.9252-4.7602-13.437z"/>
      <path id="path3077" d="m346.05,589.51c6.1544,3.2854,10.085,10.552,16.874,13.764,1.1397,8.6529-6.5552-0.42761-9.5692-2.9658-2.6832-2.4471-4.6217-4.8944-7.6409-6.525,0.11211-1.4245,0.22423-2.849,0.33633-4.2735z"/>
      <path id="path3079" d="m355.13,576.26c4.4124,4.8178,10.891,7.4992,15.678,11.64,0.87326,7.822-3.218,0.84337-6.9221-0.28341-3.8918-2.5239-10.715-5.5764-8.7562-11.357z"/>
      <path id="path3081" d="m330.19,609.37c5.3558,3.3521,11.167,8.2258,13.068,14.159-0.63438,7.7647-6.0289-8.3847-11.173-8.1302-3.0175-1.4262-2.1339-2.785-1.8946-6.0285z"/>
      <path id="path3083" d="m337.45,603.44c4.4607,4.4319,9.8234,7.5426,14.897,10.264,1.5915,8.4524-4.3018,1.362-8.0241-0.22601-3.3399-2.6884-8.8501-4.5985-6.8729-10.038z"/>
      <path id="path3085" d="m319.35,623.45c3.1919,5.5465,10.882,15.459,8.0328,20.124-1.4638-7.0618-9.4103-12.944-8.0328-20.124z"/>
      <path id="path3087" d="m293.99,631.66c-0.21377,8.3088,2.2767,16.481,1.1874,24.663-1.2692-8.1163-2.3307-16.48-1.1874-24.663z"/>
      <path id="path3089" d="m274.06,643.26c1.1851-7.6522,1.1224,33.153-0.70676,20.307,1.3156-9.7637,0.22839-16.097,0.21324-23.424,0.1645,1.0387,0.32909,2.0776,0.49352,3.1162z"/>
      <path id="path3091" d="m262.73,646.94c0.54198,8.24-4.3548,14.423-8.2699,20.947-1.894-8.2873,7.8138-13.039,7.2725-21.094,0.60905-6.5336,0.0396-4.5376,0.99745,0.14651z"/>
    </g>
    <g id="open" style="display:none;">
      <path id="path3145" d="m51.263,566.06c-1.5083,13.757,2.4934,25.801,12.2,34.39-3.5635,9.3017-9.0612-5.5876-11.563-8.9531-3.197-6.7102-5.9463-18.978-0.637-25.436z"/>
      <path id="path3147" d="m53.798,567.91c-19.562,8.3953-14.002-0.29934,2.1835-4.3284-0.72782,1.4428-1.4557,2.8857-2.1835,4.3284z"/>
      <path id="path3149" d="m45.094,560.13c8.13,3.3923,13.801,8.326,20.427,16.374-5.1116,7.0403-10.923-9.1226-17.781-10.104-4.061-2.7286-6.4293-1.1364-2.6458-6.27z"/>
      <path id="path3151" d="m54.17,557.58c0.26279,19.359-6.0352,19.473-1.9628,2.6142,0.65426-0.8714,1.3085-1.7428,1.9628-2.6142z"/>
      <path id="path3163" d="m90.192,442.9c-0.23723-9.0045,0.84282-33.974,4.4251-30.716-3.2646,9.4885,1.281,22.787-4.4251,30.716z"/>
      <path id="path3169" d="m90.229,404.45c4.8422,2.1799,16.03,5.4427,12.621,11.501-2.0204-1.3643-18.285-6.064-12.621-11.501v0.00005z"/>
      <path id="path3171" d="m98.551,405.77c-9.4579,13.147-4.4908,6.2208-9.0447,13.341,3.3226-4.2567-4.7045,5.5198,2.0242-4.695-1.1514,1.7733,3.1463-5.1498,1.7903-2.8713,2.3141-3.7679-5.3027,8.4979,1.9473-3.0407,2.5426-3.2351,6.9817-10.235,3.2828-2.7339z"/>
      <path id="path3173" d="m96.499,400.27c3.7967,12.168-1.3228,29.134-2.0648,8.6777-1.078-3.7856-0.52922-5.8723,2.0648-8.6777z"/>
      <path id="path3175" d="m271.3,405.35c-10.674-3.9368-11.112-16.336-15.264-25.533,6.1022-8.213,5.6563,15.265,12.592,19.041,4.8756,1.7348,5.768,2.3486,2.6721,6.4915z"/>
      <path id="path3177" d="m262.18,370.43c-1.1174,9.992-13.455,30.212-4.0299,7.5976-0.28709-3.413,2.2969-5.2768,4.0299-7.5976z"/>
      <path id="path3179" d="m250.83,374.41c3.0622,5.78,19.623,6.207,14.185,13.652-4.4356-3.9846-20.126-6.4061-14.185-13.652z"/>
      <path id="path3181" d="m257.84,369.43c4.9143,5.5363,6.1227,31.774,1.6984,14.885-0.64506-4.7068-7.2511-10.569-1.6984-14.885z"/>
      <path id="path3183" d="m411.71,401.1c10.131-6.3967,5.0734-21.22,14.127-32.685-0.4515,9.2038-13.805,41.401-14.149,32.737l0.0228-0.0527h-0.00001z"/>
      <path id="path3185" d="m422.71,364.88c4.9958,1.9114,16.974,16.729,6.6024,12.792-1.386-5.3367-12.322-7.8833-6.6024-12.792z"/>
      <path id="path3187" d="m430.97,367.72c-11.949,5.1574-25.72,21.62-9.0995,2.2384,2.5049-1.9603,15.744-11.663,9.0995-2.2384z"/>
      <path id="path3189" d="m426.41,360.35c1.11,4.4416-0.007,26.082-2.1851,13.735-0.59684-4.702-1.9841-10.194,2.1851-13.735z"/>
      <path id="path3191" d="m432.51,549.69c-2.0722,6.8111,6.0278-20.56,8.167-32.69,7.7522-18.088-7.7674,39.701-6.8678,31.8-5.5993,10.484-2.274,3.3762-1.2992,0.89045z"/>
      <path id="path3193" d="m439.24,506.03c3.1486,3.448,18.111,18.63,6.2941,13.713-2.9332-4.5139-12.393-8.274-6.2941-13.713z"/>
      <path id="path3195" d="m448.14,506.18c-8.0536,13.526-11.184,14.981-0.94889,0.25931-4.6411,6.9697-0.23475,1.0459,0.94889-0.25931z"/>
      <path id="path3197" d="m439.04,512.32z"/>
      <path id="path3201" d="m338.58,328.47c3.5419,7.4833,8.1816,14.527,13.202,20.87-4.0554,9.3533-8.2528-7.9773-12.52-10.712-1.441-4.4516-5.3817-6.0049-0.68279-10.158z"/>
      <path id="path3203" d="m341.3,328.62c-15.83,14.141,1.8519-8.0455,0.73832-1.5659l-0.63593,1.3488-0.10239,0.21715z"/>
      <path id="path3205" d="m334.94,322.96c5.0182,2.4502,13.917,17.877,4.0832,10.55-2.8886-4.1183-9.4504-5.7135-4.0832-10.55z"/>
      <path id="path3207" d="m348.38,330.22c-21.11,4.7318-5.2155-8.0271,1.4686-2.7736-0.48952,0.92453-0.97905,1.8491-1.4686,2.7736z"/>
      <path id="path3209" d="m417.11,647.8c15.399-7.6802,11.573-19.208,11.949-34.197,9.9294,9.6947-4.4732,34.334-13.052,36.747l0.59222-1.3685,0.51113-1.1812h0.00001z"/>
      <path id="path3211" d="m419.26,613.76c8.5282,0.87832,29.374-4.1248,8.656,3.1023-3.1768,2.0127-15.127,3.7839-8.656-3.1023z"/>
      <path id="path3213" d="m429.15,605.93c-1.1747,15.538-7.6355,19.341-1.8835,2.5086,0.62784-0.83619,1.2557-1.6724,1.8835-2.5086z"/>
      <path id="path3215" d="m423.84,608.32c4.5953,3.2998,9.7813,22.961,2.3348,13.104,0.29688-2.6795-8.0273-9.6125-2.3348-13.104z"/>
      <path id="path3227" d="m28.568,442.57c10.644,3.8793,12.001,18.313,22.254,21.76-2.1836,9.4858-10.673-3.4478-14.126-6.7481,0.09783-7.224-12.814-9.0294-8.1273-15.012z"/>
      <path id="path3235" d="m34.833,433.7c-8.5674,11.326-1.5181,3.3152-9.6661,17.263,5.0151-13.499,2.4419-8.666,9.6661-17.263z"/>
      <path id="path3237" d="m23.14,437.28c0.37433,8.1658,12.479,15.352,7.9195,21.839-4.5507-5.1525-13.151-14.941-7.9195-21.839h0.000003z"/>
      <path id="path3239" d="m35.778,445.35c-6.2005-0.98593-19.969,7.3534-19.533,3.0154,1.4018-3.1901,26.407-10.583,19.533-3.0154z"/>
    </g>
  </g>
</svg>
