<?xml version="1.0" encoding="UTF-8" standalone="no"?>
<!-- Created with Inkscape (http://www.inkscape.org/) -->
<svg id="svg2" xmlns:rdf="http://www.w3.org/1999/02/22-rdf-syntax-ns#" xmlns="http://www.w3.org/2000/svg" height="200" width="200" version="1.1" xmlns:cc="http://creativecommons.org/ns#" xmlns:dc="http://purl.org/dc/elements/1.1/">
<defs id="defs4"></defs>
<metadata id="metadata7">
<rdf:RDF>
<cc:Work rdf:about="">
<dc:format>image/svg+xml</dc:format>
<dc:type rdf:resource="http://purl.org/dc/dcmitype/StillImage"/>
<dc:title/>
</cc:Work>
</rdf:RDF>
</metadata>
<g id="layer1" fill="#000" transform="translate(0,-852.36218)">
<path id="path3187" d="m116.78,76.846a32.215,33.557,0,1,1,-64.43,0,32.215,33.557,0,1,1,64.43,0z" transform="matrix(1.6559575,0,0,1.5897191,-86.687711,783.54549)"/>
<path id="path3189" d="m116.78,76.846a32.215,33.557,0,1,1,-64.43,0,32.215,33.557,0,1,1,64.43,0z" transform="matrix(0.7284969,0,0,0.69935696,114.72586,821.95379)"/>
<path id="path3211" d="m116.78,76.846a32.215,33.557,0,1,1,-64.43,0,32.215,33.557,0,1,1,64.43,0z" transform="matrix(0.98396933,0,0,0.94461047,85.093515,948.07465)"/>
<path id="path3213" d="m116.78,76.846a32.215,33.557,0,1,1,-64.43,0,32.215,33.557,0,1,1,64.43,0z" transform="matrix(0.81966031,0,0,0.78687383,-42.908394,965.4892)"/>
<path id="path3229" d="m39.219,999.63c-1.2452-0.68632-5.7537-1.585-8.325-1.6594l-1.572-0.0455-0.14104-2.0113c-0.31067-4.4301-1.8993-40.031-1.791-40.138,0.06382-0.0628,1.3815,0.41395,2.9283,1.0596,5.1814,2.1628,10.353,3.4514,16.056,4.0012,2.4057,0.23188,2.826,0.33101,2.7291,0.64379-0.06297,0.20334-2.2043,8.8908-4.7584,19.305-2.5542,10.415-4.6695,18.961-4.7007,18.992-0.03121,0.0305-0.22278-0.0355-0.42571-0.14755z"/>
<path id="path3231" d="M105.85,982.79c-16.981-13.83-31.163-25.38-31.511-25.67l-0.63272-0.52855,2.8392-1.402c8.0173-3.959,15.051-10.029,19.993-17.251l1.2292-1.7968,24.996,28.809,24.996,28.809-1.6704,1.3297c-3.5062,2.791-6.629,6.8497-8.5928,11.168l-0.75826,1.6674-30.883-25.138z"/>
<path id="path3233" d="m108.4,910.49c0.36603-2.2653,0.28481-12.022-0.12063-14.489-0.18784-1.1431-0.31011-2.0784-0.27171-2.0784,0.12477,0,42.94-9.9931,43.219-10.087,0.15525-0.0524,0.49544,0.58512,0.7974,1.4944,1.1116,3.3473,4.1944,8.0756,6.3246,9.7004l0.82456,0.62893-25.329,8.158c-13.931,4.4869-25.409,8.158-25.506,8.158-0.0977,0-0.0698-0.66805,0.0622-1.4846z"/>
</g>
</svg>
