<?xml version="1.0" encoding="UTF-8" standalone="no"?>
<!-- Created with Inkscape (http://www.inkscape.org/) -->
<svg id="svg2" xmlns:rdf="http://www.w3.org/1999/02/22-rdf-syntax-ns#" xmlns="http://www.w3.org/2000/svg" height="200" width="200" version="1.1" xmlns:cc="http://creativecommons.org/ns#" xmlns:dc="http://purl.org/dc/elements/1.1/">
 <defs id="defs4"></defs>
 <metadata id="metadata7">
  <rdf:RDF>
   <cc:Work rdf:about="">
    <dc:format>image/svg+xml</dc:format>
    <dc:type rdf:resource="http://purl.org/dc/dcmitype/StillImage"/>
    <dc:title/>
   </cc:Work>
  </rdf:RDF>
 </metadata>
 <g id="layer1" transform="translate(0,-852.36218)">
  <path id="path2987" d="m114.96,65.083a57.245,55.582,0,1,1,-114.49,0,57.245,55.582,0,1,1,114.49,0z" transform="matrix(0.93775933,0,0,0.96581198,-0.72103292,843.66089)" fill="#000"/>
  <path id="path2989" d="m114.96,65.083a57.245,55.582,0,1,1,-114.49,0,57.245,55.582,0,1,1,114.49,0z" transform="matrix(0.67634854,0,0,0.6965812,14.685814,859.50156)" fill="#FFF"/>
  <path id="path3002" fill="#000" d="m178.4,1047.1c0-0.2883-0.36736-1.622-0.81636-2.9638-2.6413-7.8933-8.6006-16.118-20.192-27.869-8.1745-8.2869-16.083-15.479-36.474-33.171-10.616-9.2104-13.079-11.385-19.235-16.98-5.7771-5.251-14.543-13.768-14.443-14.032,0.03666-0.0964,0.9752-0.90303,2.0857-1.7925,3.6637-2.9348,7.3494-6.8963,10.309-11.081l1.1345-1.6039,0.61621,0.4847c3.9782,3.1293,18.343,17.519,33.423,33.483,25.14,26.613,37.636,38.253,48.176,44.879,5.4316,3.4146,11.733,5.9341,14.892,5.9543,0.45725,0,0.97684,0.097,1.1546,0.2101,0.24205,0.1534-2.2565,3.3009-9.9434,12.526-5.6467,6.7766-10.362,12.357-10.478,12.4-0.11605,0.044-0.211-0.1567-0.211-0.445z"/>
 </g>
</svg>
