<?xml version="1.0" encoding="UTF-8" standalone="no"?>
<!-- Created with Inkscape (http://www.inkscape.org/) -->
<svg id="svg2" xmlns:rdf="http://www.w3.org/1999/02/22-rdf-syntax-ns#" xmlns="http://www.w3.org/2000/svg" height="36.273" width="4.0418" version="1.1" xmlns:cc="http://creativecommons.org/ns#" xmlns:dc="http://purl.org/dc/elements/1.1/">
 <metadata id="metadata7">
  <rdf:RDF>
   <cc:Work rdf:about="">
    <dc:format>image/svg+xml</dc:format>
    <dc:type rdf:resource="http://purl.org/dc/dcmitype/StillImage"/>
    <dc:title/>
   </cc:Work>
  </rdf:RDF>
 </metadata>
 <path id="path3011" opacity="0.86000001" d="M3.1497,0c1.4193,0.15121-0.428,1.8937,0.2525,2.8109,0.0113,1.0147-0.9138,1.9636,0.245,2.6792-0.38-0.7403-1.2553-0.8753-0.6966,0.1583,0.10447,0.93943,1.8535,0.892,0.69797,1.9651-1.0096,0.86043-0.087526,2.1902-0.67247,3.2226,0.6453,1.0657-0.1506,2.2483,0.59838,3.3068,0.19063,0.64329-0.74894,1.4478-0.060193,2.2438,0.19806,1.1597-0.56846,2.2425,0.23177,3.2698-0.50816,1.1363-0.93219,2.289-0.23579,3.4274-0.14176,0.68435-0.36987,1.2096,0.50993,1.4347-1.0185,0.57321-0.91292,1.4303-0.4862,2.3001-0.090453,0.93981-1.2215,1.6806-0.31712,2.5628,0.27801,0.6462-0.42845,1.5696,0.46734,1.878-0.067678,0.79485-0.52503,1.5103-0.11947,2.3647,0.12773,0.8428-0.020715,1.5464-0.9,1.7525-0.5864,0.29879-1.1728,0.59757-1.7592,0.89635-1.7886-0.29311,0.51297-1.4879-0.28236-2.398,0.85035-1.2982-0.06758-2.4249-0.32111-3.7452,0.044908-0.9659,0.94615-2.1562-0.30213-2.7156,0.00718-0.66439,1.23-1.2348,0.11899-1.539,0.027693-1.1183,1.0463-2.3178,0.41888-3.5605-0.23334-1.3842,0.6246-2.7398,0.10435-3.9324,0.60155-0.57587,0.21985-1.0383-0.37406-1.2711,0.19731-0.76321,1.0619-1.263,0.066969-1.8441-0.42439-0.82432,1.0974-2.0686-0.21606-2.7767-0.40159-0.89066,1.0469-1.5057,0.25395-2.2835,0.041925-1.1668-0.068207-2.2305,0.59078-3.3149,0.4002-0.9771-1.4997-0.4952-0.65737-1.5101,0.47851-1.1178,0.12603-2.2707,0.04596-3.3987-0.08094-0.99385,0.24847,0.0113,0.17114-0.1149-0.32908-0.6827,0.56957-0.7254,0.97187-1.0265,0.5515-0.28098,1.1029-0.56196,1.6544-0.84294z" stroke-dasharray="none" stroke-miterlimit="4" stroke-width="3" fill="#000"/>
</svg>
