<?xml version="1.0" encoding="UTF-8" standalone="no"?>
<!-- Created with Inkscape (http://www.inkscape.org/) -->
<svg id="svg2" xmlns:rdf="http://www.w3.org/1999/02/22-rdf-syntax-ns#" xmlns="http://www.w3.org/2000/svg" height="200" width="200" version="1.1" xmlns:cc="http://creativecommons.org/ns#" xmlns:dc="http://purl.org/dc/elements/1.1/">
<defs id="defs4"></defs>
<metadata id="metadata7">
<rdf:RDF>
<cc:Work rdf:about="">
<dc:format>image/svg+xml</dc:format>
<dc:type rdf:resource="http://purl.org/dc/dcmitype/StillImage"/>
<dc:title/>
</cc:Work>
</rdf:RDF>
</metadata>
<g id="layer1" transform="translate(0,-852.36218)">
<path id="path3358" d="m160.1,96.912a54.157,55.344,0,1,1,-108.31,0,54.157,55.344,0,1,1,108.31,0z" transform="matrix(1.8464913,0,0,1.806867,-95.614034,777.25488)" fill="#a02c2c"/>
<path id="path3421" fill="#FFF" d="m149.85,875.9c-9.6605-0.38577-19.328-0.9642-28.984-1.2264-3.6717-0.0388-6.2657,4.4662-4.3566,7.6058,1.4158,2.3208,3.7986,3.9019,5.62,5.9082,2.26,2.2057,4.5278,4.4036,6.7784,6.6178-15.899,16.391-31.87,32.721-47.721,49.152-2.0985,2.252-1.5104,5.9284,0.76892,7.8321,5.1086,5.4976,9.9809,11.241,15.283,16.543,2.0337,1.5501,5.3659,1.2876,7.1237-0.71511,15.725-15.281,31.327-30.748,47.009-46.014,3.0734,3.0787,5.956,6.4243,9.2165,9.3152,2.5673,2.0569,6.7981,0.91961,7.9562-2.164,0.90549-2.5133,0.17862-5.2891,0.28941-7.9085-0.45178-13.291-0.79669-26.588-1.4264-39.869-0.44896-2.841-3.2318-4.6955-6.0151-4.5239-3.847-0.19382-7.6945-0.37604-11.542-0.55207z"/>
<path id="path3362" d="m160.1,96.912a54.157,55.344,0,1,1,-108.31,0,54.157,55.344,0,1,1,108.31,0z" transform="matrix(0.82364611,0,0,0.83216236,-28.589346,906.37308)" fill="#000"/>
</g>
</svg>
