<?xml version="1.0" encoding="UTF-8" standalone="no"?>
<!-- Created with Inkscape (http://www.inkscape.org/) -->
<svg id="svg2" xmlns:rdf="http://www.w3.org/1999/02/22-rdf-syntax-ns#" xmlns="http://www.w3.org/2000/svg" height="885.83" width="885.83" version="1.1" xmlns:cc="http://creativecommons.org/ns#" xmlns:dc="http://purl.org/dc/elements/1.1/">
<metadata id="metadata7">
<rdf:RDF>
<cc:Work rdf:about="">
<dc:format>image/svg+xml</dc:format>
<dc:type rdf:resource="http://purl.org/dc/dcmitype/StillImage"/>
<dc:title/>
</cc:Work>
</rdf:RDF>
</metadata>
<g id="layer1" transform="translate(0,-166.53404)">
<path id="path3032" style="fill:#000000;" d="m511.63,699.79c38.318-19.783,47.198-70.98,32.344-105.91-8.7417-28.876-37.82-48.61-69.001-49.033-18.078-5.2001-38.659-0.58933-56.819,5.8407,26.703-12.729-11.931,8.2616-13.443,18.77-13.874,16.006-12.309,38.79-13.9,57.889,1.7596,20.344,11.068,37.976,27.948,50.741,0.31026,13.582-22.667,17.355-29.735,29.007-14.091,18.04-23.282,41.394-25.707,65.572-3.4946,22.746-3.8275,49.158,2.4256,72.974,1.884,14.908,4.9361,24.162,8.748,39.735,6.7009,25.017,14.752,47.147,32.646,65.29,15.084,15.951,29.322,23.774,49.781,30.538,24.192,12.707,51.962,21.445,76.66,25.299,39.53,9.9661,81.009,10.642,122.49,5.1975,12.554-1.2288,35.963-10.061,8.8048,0.3394,9.1803-4.1651,39.93-15.394,13.207-4.857,16.974-7.1122,17.884-7.1221,4.412-1.798,28.959-12.042-13.248,6.7146,15.494-9.0453,35.832-18.797,60.348-45.778,87.735-75.016,9.8136-12.243-33.726,7.1648-46.72,3.7386-29.095,0.54581-54.974-13.654-74.492-33.412-19.097-20.135-23.655-47.009-42.128-67.275-9.597-15.375-20.538-31.353-30.252-48.417-13.249-14.891-31.437-26.507-50.613-37.197-10.642-4.8657-39.243,3.3113-13.15-5.2359-21.39,11.275-19.117,41.939-16.209,61.138,7.6809,21.949,24.062,46.272,37.569,60.477,22.011,21.198,52.893,34.161,86.165,30.284,32.253-10.64-15.485,15.013-27.918,8.2558-41.948-2.002-78.392-29.358-95.358-63.729-13.319-18.986-21.467-41.677-14.983-66.41-1.1414-9.6356,3.6986-14.458,11.277-22.959,20.603-17.579,49.51-12.064,66.801,3.7493,18.774,11.604,33.662,25.529,41.839,44.563,9.8748,15.25,20.524,30.332,31.47,46.924,12.323,21.957,20.369,44.962,41.016,59.834,24.684,19.992,58.577,27.695,90.257,17.488,25.396-9.8949,30.466,1.1304,10.93,14.131-23.755,26.241-48.789,49.537-80.289,66.837-10.682,8.4934-38.302,17.784-15.006,8.3533-15.399,6.2525-22.018,9.2796-3.5285,1.4028-19.377,8.0348-20.937,7.7676-9.8572,3.5348-29.739,11.863,13.503-4.9762-18.636,7.4792-37.705,7.6298-74.157,10.751-112.04,4.9883-22.897-3.7194-43.63-8.7241-67.423-14.075-23.712-8.4738-45.456-19.58-68.14-28.924-18.009-12.9-36.068-30.352-44.029-50.709-8.4204-16.889-11.856-37.378-17.51-54.405-3.3015-21.075-10.423-44.271-7.5749-66.982-2.0772-16.529,3.3862-35.07,5.6841-51.261,8.2295-24.065,19.152-48.526,44.882-61.117,12.709-5.3016,2.8501-11.811-3.0248-17.653-24.202-22.945-19.738-60.203-12.188-90.656,9.991-17.335,26.743-35.512,44.8-39.586-24.146,9.287,38.417-16.952,55.602-8.6005,24.018,2.3417,51.238,11.095,63,30.011,14.377,14.586,16.145,36.444,19.78,51.914,0.83917,32.714-14.246,77.268-54.097,81.971z"/>
<path id="path3034" style="fill:#000000;" d="m436.58,640.17c-37.174,22.86-70.992,49.646-110.01,69.622-23.471,15.266-49.885,31.48-74.136,47.271-6.6868,10.946-33.329,14.427-7.2835,1.7478,57.473-33.167,111.86-69.163,167.85-104.73,20.988-8.5258,3.628-0.37134,7.9637-3.1937,28.376-8.161-15.34,9.1133-20.364,17.76-49.812,30.035-98.21,62.754-148.76,91.512-37.022,26.607-8.0684-12.993,12.672-15.883,35.042-26.092,74.582-44.769,110.73-69.294,18.968-13.489,37.982-30.312,61.338-34.808z"/>
<path id="path3040" style="fill:#000000;" d="m419.45,591.69c10.328,7.0062,50.104-2.6165,24.432,8.7537-11.3,4.7219-53.489,0.95061-24.432-8.7538v0.00013z"/>
<path id="path3042" style="fill:#000000;" d="m485.89,596.27c17.481,0.9241,42.373,2.1285,16.527,10.039-11.347-3.3508-46.815,2.4689-16.527-10.039z"/>
<path id="path3060" style="fill:#000000;" d="m581.48,338.33c-5.5826,22.149-8.9769,11.067,7.3297,28.832,18.039,10.157,44.099-0.0672,46.559-22.011,13.473-33.006,20.633-69.487,32.235-103.63,8.4842-34.233,21.203-67.109,28.766-101.67,7.2378-32.085,19.214-62.572,23.208-95.15-2.1256-18.689,4.7707,25.714-0.90162-7.2527,6.2384,17.727-12.176-24.087-27.914-16.646-13.188-0.71658-27.228,6.071-29.279,21.086-12.5-23.404,23.052-37.988,41.184-26.942,27.205,14.581,21.812,51.592,12.506,74.973-10.267,37.914-19.621,77.31-30.476,114.72-17.651,51.752-29.042,108.19-49.096,158.39-9.4621,23.947-47.996,23.234-58.396-0.51636-6.0577-2.7061-0.68214-51.216,4.2745-24.183z"/>
<path id="path3062" style="fill:#000000;" d="M573.54,343.34c49.2,28.72,90.07-197.3,103.55-247.29,3.8-14.074,20.18-82.968-17.92-65.267-8.58,3.984-102.21,291.8-85.63,312.56z"/>
<path id="path3832" style="fill:#333333;" d="m328.85,471.33c45.061-0.51073,15.765,18.435,0.58569,38.028,4.2703,5.4059,37.444-5.4445,15.229,4.9664-11.542,9.6928-44.492,4.3688-22.815-11.338,24.391-18.265,14.416-20.783-5.2803-25.344,4.0934-2.1043,8.1886-4.2092,12.281-6.3132z"/>
<path id="path3834" style="fill:#333333;" d="m248.29,401.95c8.5254,8.2187,54.944,11.082,26.708,24.111-6.7852,4.6295-57.358,33.111-29.309,33.809,24.152-3.7902,39.205,4.3906,7.4751,7.873-16.226,2.4474-49.337,0.98396-23.345-17.404,3.9768-11.817,56.037-23.973,31.687-30.299-12.028-5.6064-44.053-8.2415-13.216-18.09z"/>
<path id="path3836" style="fill:#333333;" d="m85.5,297.1c15.759,5.3022,32.055,12.454,48.438,16.01,26.032,4.6497-5.7327,17.793-10.908,25.438-9.8093,14.856-40.164,26.704-34.679,43.517,24.585,3.2694,48.323,12.352,73.451,9.9197-26.562,18.803-57.603-0.48756-86.364-1.6066-16.229-8.1895,7.074-23.531,13.814-30.267,13.193-12.264,26.442-26.614,41.451-35.609-15.129-6.6195-33.823-8.5611-48.946-16.199-17.167-3.7568-8.9209-3.619,3.7432-11.203z"/>
<path id="path3840" style="fill:#502d16;" d="m369.35,949.83c-37.513,23.367-9.3296,3.9293,4.6078,14.624-3.827,11.237-34.664,34.852-2.8729,22.236,26.985-16.169,47.978-5.3468,16.747,13.697-11.368,8.7087-22.387,23.238-10.465,15.933-35.608,13.45,45.249-19.969,9.8417-5.2581,22.294-15.782,48.345-8.9031,17.776,11.435,6.091,13.46,47.499-6.4768,64.137-8.3337,6.4017,5.963-8.5916,27.757,15.811,18.797,21.713-6.789,41.411-12.744,24.713-7.2352-1.0253,14.289,33.068-22.475,16.937,5.3047,27.289,2.3622,59.837-21.113,84.112-12.83-18.94,28.571,31.601,21.001,47.443,15.863,33.724-11.655-19.86,9.6239,11.6-4.4524,23.41-15.322,21.065-6.6804,23.284,6.1875,33.134,1.3038,44.213-9.0436,42.855-7.0351,29.568-12.413-27.987,12.445,3.3083-2.3668,15.724-16.988,18.641-1.6571,14.549,7.1789,16.369-4.482-13.968,7.8493,6.8941-3.3664,14.288-12.096,56.048-35.926,38.78-2.244,13.525,4.8329,16.749-2.6212,4.3103,3.9506,15.836-10.252,42.346-25.374,36.595-45.834-15.893-12.246,8.984-24.816,2.9511-7.541,14.921,5.004-14.707,17.392-1.7602-2.1868-4.7013-15.704-20.958-7.5409,2.9616-15.748-18.82,11.203-37.157,9.2687-2.2478-1.8101,18.299-5.0035,20.283,29.042,1.1779,29.361-37.076,12.749,5.9113-45.877,11.275-9.6126,7.7746,13.797-7.5941,30.937-20.324,39.7-11.924,8.8296-43.608,31.059-50.398,12.579,6.2615-25.217,24.193-20.532-6.9758-4.8987-14.558,21.072-58.036,13.036-28.798-0.365,20.362-7.2613-36.291,16.741-6.5102,3.8389-17.007,5.1517-62.449,29.622-67.148,4.6325,39.659-31.06-19.783,15.829-45.017,11.041-15.298,4.8757-51.844,3.2521-34.759-20.758-18.56-7.2453-88.319,34.398-79.301,2.107,25.818-13.746-51.303,28.583-63.158,10.782,19.166-32.418-30.68,0.1205-45.845-2.9883-36.404,8.9486-3.9843-17.683-3.3463-25.496-29.98,10.088,21.112-9.5928-18.864,6.3189,41.318-17.777-61.335,32.494-18.712-4.9349,12.357-7.9749,40.867-34.845,5.5242-18.947-26.82,14.549-40.252,2.6587-16.793-14.925,19.001-19.732-48.425,5.9857-10.706-15.801,7.7251-6.4776,16.222-8.5349,25.811-10.598z"/>
<path id="path3852" style="fill:#000000;" d="m563.72,262.6c-10.655-33.063-12.393-67.241-19.118-100.42-6.6748-22.09,0.47689-56.915,6.8114-14.511,0.14426,26.885,8.9922,54.245,10.587,80.736-0.56083,9.4709,15.451,32.143,1.7195,34.198z"/>
<path id="path3854" style="opacity:0.98000004;fill:#000000;" d="m549.26,330.46c-28.222-40.579-22.972-91.443-23.68-138.21,16.99-1.902,1.4724,36.298,7.7987,50.51-0.92905,30.229,6.0371,59.23,22.641,84.811-2.2532,0.96428-4.5064,1.9286-6.7596,2.8928z"/>
</g>
</svg>
