<?xml version="1.0" encoding="UTF-8" standalone="no"?>
<!-- Created with Inkscape (http://www.inkscape.org/) -->
<svg xmlns:rdf="http://www.w3.org/1999/02/22-rdf-syntax-ns#" xmlns="http://www.w3.org/2000/svg" height="885.83" width="885.83" version="1.1" xmlns:cc="http://creativecommons.org/ns#" xmlns:dc="http://purl.org/dc/elements/1.1/">
<metadata>
<rdf:RDF>
<cc:Work rdf:about="">
<dc:format>image/svg+xml</dc:format>
<dc:type rdf:resource="http://purl.org/dc/dcmitype/StillImage"/>
<dc:title/>
</cc:Work>
</rdf:RDF>
</metadata>
<g transform="translate(0,-166.53404)">
<path fill="#000000" d="m511.63,699.79c20.28-10.108,30.706-27.81,36.344-48.396,3.8144-14.69,4.1405-30.345-0.17181-45.008-2.0403-10.762-6.5567-22.51-13.735-31.699-6.9389-8.808-14.816-17.486-26.637-22.327-24.991-8.7209-52.833-14.335-79.297-4.4248-26.57,8.5914,17.727-8.0828-6.9852,1.5868-16.136,7.1987,19.999-10.031-0.60687,2.789-13.601,11.892-25.666,25.607-26.766,44.179-2.0028,3.7852-1.2217,15.093-3.0116,22.24-0.35966,11.406,2.1128,23.277,6.5036,33.177,3.3853,10.608,13.308,18.405,21.492,26.183,1.758,11.527-19.301,15.857-25.772,25.094-11.924,9.7289-13.52,20.927-20.952,33.182-6.2938,14.376-7.6536,30.919-9.9424,46.144-2.1992,8.3788,0.28888,20.563-1.4725,30.349,0.86471,14.568,4.5279,28.623,6.0925,42.781,4.0178,7.2609,2.0651,12.342,5.2722,19.818,3.7322,15.057,8.4576,28.111,12.531,42.567,4.7197,4.8118,5.4683,12.428,10.396,17.197,6.336,9.0463,14.334,18.475,23.637,26.252,6.905,5.1605,12.217,8.524,19.516,12.599,20.054,6.7399,37.329,16.638,57.064,23.568,9.865,3.211,23.284,5.491,31.831,7.5431,17.794,2.9263,32.927,8.0114,51.559,8.4215,19.953,3.3762,41.731,1.8772,62.366-0.5891,12.883,2.0565,56.881-13.039,23.989-0.9752,9.4956-4.3001,38.652-14.893,13.207-4.857,13.017-5.4664,20.946-8.4331,3.3963-1.3438,15.092-6.5108,16.47-6.2365,3.8835-1.9691,23.417-13.89,47.333-27.479,64.793-45.988,14.475-13.059,26.524-28.863,41.484-41.471-25.51,3.5358-51.812,14.088-76.747,5.508-14.628-2.9064-27.175-10.774-38.104-19.955-10.278-5.8727-18.065-16.577-24.525-26.553-7.4411-12.227-11.41-26.166-20.646-37.875-5.1052-7.8727-10.71-16.064-15.631-23.875-8.8799-10.671-14.68-24.172-23.107-36.008-4.9764-8.0644-11.847-12.584-18.87-18.526-14.188-7.0958-26.85-23.876-45.953-21.957-14.95,0.90368-10.987,1.2398,0.3141-3.6452-13.064,7.0228-17.573,21.05-17.894,35.871-0.40344,10.61,0.0316,20.184,3.2439,29.159,3.0227,8.5866,7.736,18.18,13.116,25.328,4.6996,8.9032,11.276,17.691,16.069,23.814,5.3568,5.59,7.9194,8.8763,14.356,14.511,10.535,7.8613,19.233,12.235,31.355,17.821,17.897,5.4204,37.813,9.5063,56.292,3.0776,12.097-2.542-19.664,12.356-25.775,10.679-25.021,1.0779-49.181-6.6329-68.684-19.847-11.728-7.8863-19.865-17.512-28.146-28.011-5.6424-10.033-13.968-20.704-18.198-31.073-7.6326-11.967-10.072-28.336-7.8029-43.805,1.4806-10.802,0.82773-15.774,5.4756-22.312,12.961-19.939,45.969-25.449,63.801-11.063,10.8,7.1516,23.393,15.304,33.126,23.844,8.2492,8.1218,12.693,16.537,18.954,26.213,2.7304,5.4544,6.8572,13.191,11.373,17.934,5.1596,7.3046,8.4021,13.941,13.887,20.722,8.0269,10.111,13.915,25.48,20.048,34.874,1.6705,7.9353,8.5604,15.137,13.215,21.091,8.8649,10.682,20.512,17.459,31.652,24.983,21.816,11.169,48.148,13.285,72.463,5.8033,11.937-6.8222,36.63-3.8601,16.901,7.615-12.615,14.075-27.051,28.108-39.497,40.608-20.855,17.602-43.964,31.94-68.227,44.574-15.747,4.6991,22.382-9.6481-1.439-0.1985-24.292,10.039,17.89-7.3011-3.3119,1.1275-26.62,10.62,5.2213-2.5637-2.177,0.5333-11.106,4.1742-20.905,8.8781-2.6765,1.1758-25.437,13.266-54.738,10.584-80.991,14.968-23.223-1.029-46.605-2.9459-69.415-7.5113-7.821-2.5441-21.712-5.0851-32.073-6.9963-9.9074-2.4334-21.534-4.9686-31.796-10.77-14.075-5.6472-27.269-12.804-42.745-17.727-5.4045-4.3807-14.735-8.5135-19.318-13.898-9.6297-6.7838-16.111-16.768-23.478-25.25-4.0982-6.4282-7.5636-15.509-11.859-23.147-1.1326-7.6012-5.2566-14.142-5.843-21.204-3.2858-11.653-7.1129-20.245-8.1297-30.848-2.1821-9.1305-5.1697-19.332-5.5514-30.58-3.5974-12.214-1.3185-23.423-2.0384-35.776-1.0041-7.7643,2.2812-17.694,2.2462-24.125,2.4211-12.484,2.871-23.714,9.2462-35.857,4.9493-10.266,10.256-25.085,20.307-33.217,5.4824-8.7215,28.898-14.321,25.039-23.686-8.0813-6.0902-17.539-15.77-21.093-26.096-4.6698-11.824-6.558-23.234-5.9142-36.638,2.5453-16.034,1.7549-33.86,13.333-47.078,8.8481-13.214,24.475-25.535,37.551-28.641-26.781,10.819,17.979-8.2013,29.404-8.3926,26.76-2.3352,55.373,2.0988,77.557,16.64,4.2162,5.1916,8.3453,8.6897,13.026,14.314,6.9923,9.5222,12.76,19.746,14.074,31.599,1.7048,7.4779,3.6234,13.458,4.2954,21.682-0.16693,19.95-5.0178,42.641-19.074,59.556-8.0035,11.735-21.269,17.817-34.998,19.896z"/>
<path fill="#000000" d="m436.58,640.17c-20.724,11.807-40.118,26.07-59.251,39.802-32.998,19.894-65.556,37.037-96.331,60.005-12.866,4.6831-28.38,16.628-36.093,23.524-8.4969,1.6562-18.8,7.851-3.6788-2.6241,44.302-24.181,85.099-52.443,127.74-78.385,21.057-11.304,37.909-28.932,61.394-35.705-19.462,6.6724-6.6789,3.5854,3.4822,1.082-15.215,5.5483-22.358,9.43-2.7512,1.1418-21.773,11.189-39.627,27.375-61.434,38.424-39.199,25.101-77.542,49.615-117.81,72.721-10.623,15.335-31.921,10.575-10.314-2.8733,16.118-8.7836,33.131-18.316,47.945-30.282,27.019-17.08,57.006-33.019,84.392-50.651,14.175-13.267,32.304-22.24,48.015-32.513,4.9012-1.2221,9.8039-2.4444,14.704-3.6663z"/>
<path fill="#000000" d="m419.45,591.69c7.7476,5.7298,38.908,0.0579,31.915,4.5782-13.166,9.5142-30.744,6.5434-45.092,2.2952,4.3924-2.2911,8.7852-4.5826,13.177-6.8734z"/>
<path fill="#000000" d="m485.89,596.27c8.9289,2.6522,44.083-1.0873,22.244,7.6701-8.4486,5.5196-27.696-1.0593-34.631-0.86002,4.1288-2.2701,8.2584-4.5397,12.387-6.8101z"/>
<path fill="#000000" d="m581.48,338.33c-2.7307,4.9178-4.5054,23.596-4.0684,19.176-3.4719-14.724,7.3935,13.702,16.244,12.089,5.7464,1.9108,12.242,1.7636,18.628-0.0603,6.5393-0.26176,12.678-3.4544,16.239-9.1063,4.9626-6.4148,6.3114-14.829,9.794-21.721,2.7723-11.171,8.5057-21.693,10.41-33.431,3.2976-10.665,5.9606-21.636,8.6651-32.47,5.4327-9.3888,7.3388-22.074,10.274-32.895,4.4838-12.738,6.0217-25.915,11.496-38.096,5.6514-12.617,7.8189-26.387,11.133-39.846,3.1849-12.4,6.696-24.432,9.7459-36.825,1.8312-6.4373,4.9994-16.97,6.7444-25.274,2.8492-9.2265,5.4699-19.353,7.8012-28.013,3.3099-8.8165,5.9137-27.763,5.0085-29.866,2.2369,11.689,0.0688,1.0427-0.92008-4.537,1.1157,5.9632,2.5409,11.865-0.39327,2.0705-3.8071-8.4136-12.22-14.873-20.881-17.27-7.6047-2.7423-16.522-0.34184-22.574,1.158-7.0841,3.0953-11.891,10.573-13.345,18.482-2.5944-6.0545-4.4053-11.827-0.65224-17.793,4.1178-6.8209,13.286-12.258,22.279-12.246,6.7968-1.2606,18.291,0.7352,24.708,6.7061,12.032,7.5191,13.928,22.776,15.452,35.836-0.002,10.948-4.4598,20.929-6.4254,31.366-2.4242,6.9252-4.1075,14.811-6.1152,21.869-5.2604,19.306-10.272,38.285-15.477,57.618-3.5565,10.537-4.5728,21.487-7.5014,31.798-3.9907,9.3239-7.4304,18.703-10.278,28.528-2.9602,12.464-6.8442,24.128-9.5478,36.689-2.1309,8.4246-7.7789,20.77-10.086,31.56-4.534,14.828-6.9602,30.014-13.237,44.132-2.8388,9.5702-6.2092,18.63-10.259,27.523-3.6268,8.1687-11.09,12.735-18.87,13.779-8.7044,1.9292-17.199,2.187-25.523-2.4881-9.0442-5.9716-14.844-16.275-15.895-27.268-0.65644-4.7337,2.8748-20.473,4.8195-18.674,0.86883,2.4998,1.7361,5.0005,2.6059,7.4997z"/>
<path fill="#000000" d="M573.54,343.34c49.2,28.72,90.07-197.3,103.55-247.29,3.8-14.074,20.18-82.968-17.92-65.267-8.58,3.984-102.21,291.8-85.63,312.56z"/>
<path fill="#333333" d="m328.85,471.33c8.6558,4.3061,20.92,1.995,27.836,6.7669-5.0938,9.8155-16.856,15.293-23.456,24.552-10.277,10.362,4.6679,8.6698,12.284,7.5384,10.597-1.8445,7.6571-0.87702,0.89085,3.1071-4.8298,3.7555-9.768,4.9899-15.689,5.2812-10.198,3.0617-23.999-3.6355-11.743-12.524,5.6684-8.2048,13.855-14,20.703-20.62,3.7414-2.3484-15.01-2.2074-19.132-5.3067-12.035-0.10732-0.3097-4.0741,3.9746-6.5682,1.4438-0.74229,2.8894-1.4851,4.332-2.227z"/>
<path fill="#333333" d="m248.29,401.95c7.5272,3.3752,16.21,7.6489,23.997,9.554,7.1492,1.6934,20.062,6.5946,7.4931,11.656-9.6284,7.1298-21.62,11.904-30.02,19.831-5.1058,4.9059-24.135,18.491-6.3274,16.76,9.8767,0.25243,26.868-0.45352,32.21,0.34571-4.6983,2.641-9.3965,5.282-14.095,7.923-13.645-1.3534-27.306,1.3212-40.533-1.5528-6.2681-5.7004,7.7473-13.392,11.763-18.238,8.2437-9.1012,19.006-11.783,27.462-19.052,5.0293-3.5518,15.847-6.6051,3.2763-7.5381-8.1173-4.256-24.817-8.1595-29.032-12.811,4.6021-2.2926,9.2044-4.585,13.806-6.8778z"/>
<path fill="#333333" d="m85.5,297.1c9.4159,1.5652,17.597,6.5191,26.578,10.311,7.9949,2.2819,19.281,3.323,28.368,7.672,13.514,6.9-9.5223,13.689-13.201,19.202-8.1648,6.5367-14.643,15.727-23.257,22.609-6.6531,6.9292-20.214,13.711-17.622,24.206,10.267,4.1177,22.379,3.7625,33.381,6.5307,11.13,3.6296,21.795,4.7147,33.42,4.3138,9.9149-0.55439,8.322,0.64976,0.99555,4.2366-5.9637,4.9922-13.512,3.528-20.588,3.9718-10.028-0.61312-17.615-2.3615-27.533-4.1763-11.472-4.7543-26.2-1.5022-36.529-9.2919-1.25-7.0039,4.6017-12.325,9.4613-17.486,7.0828-6.585,13.814-11.618,20.861-18.469,5.6055-8.7285,15.356-14.656,23.112-21.345,9.2661-2.4587,7.8984-6.4084-0.18047-8.2377-9.0092-2.9345-16.016-2.8558-25.286-6.6732-8.37-3.1846-15.695-7.6397-24.855-8.9651,3.1688-1.5269-5.6675,0.20433,1.3601-2.4903,3.8383-1.9726,7.6767-3.9472,11.515-5.9185z"/>
<path fill="#502d16" d="m369.35,949.83c-13.143,8.7766-33.645,19.144-5.7787,10.505,21.78-3.0732,1.9578,17.042-4.4085,24.39-12.237,14.071,26.033-4.5818,33.788-3.9214,26.699-9.887-0.29903,19.38-9.3284,23.969-6.8964,5.0627-22.33,20.12-2.981,10.258-38.137,15.673,11.193-6.7784,14.555-7.1312-28.813,11.026,46.092-21.17,19.45,4.433-22.497,14.348-2.9126,18.369,12.743,12.396,12.732,1.7165,53.659-24.075,42.188,1.0959-4.1184,18.443,30.76,1.4374,41.117-0.9095,22.362-5.2576-12.977,0.096-1.4909,6.1204,7.6504-1.9651,30.296-22.593,17.973-1.6239,18.133,5.1634,46.758-11.164,68.933-12.403,26.076-9.5251,3.8214,12.804,13.678,20.033,15.511,6.5871,64.101-6.9879,58.487-5.7899-31.97,16.299,36.08-25.417,22.634-4.1734-7.338,16.233,23.903,7.8075,32.914,5.3366,12.542-2.3348,17.137-6.2777,1.4904,0.771,11.988-5.2414,27.503-11.082,6.6558-2.8122,1.5149-3.5754,33.465-18.965,21.765,3.2014,26.98-8.0112-3.9439,2.7695,0.55846,0.7473,14.705-8.2302,35.722-28.089,49.643-23.346-3.53,9.8911-9.1035,27.276,10.065,17.008-26.397,12.438,21.468-14.093,24.094-25.375,7.6907-7.5587,0.89315-23.676-4.4241-28.202,7.8655-6.2299,12.628-4.4238,11.052,7.5534,16.272-1.4663-19.86,14.396-3.7607-2.2122,5.7636-16.572-25.369-11.934-0.4617-17.609,12.264-2.4683-36.971,14.448-12.911,2.3564,14.742-14.425,35.513-2.1732,28.082,14.929-5.7394,12.885-35.735,16.86-26.882-4.0345,15.517-18.864,29.142-2.3602,28.235,13.617-3.3319,16.43-20.306,27.242-32.441,36.68-10.198,6.2842-47.125,23.516-38.586,0.7438-3.1438-13.586,25.612-19.721,5.304-9.7098-15.611,8.181-38.574,31.18-54.475,20.599-0.42157-12.974,30.969-18.649,6.9871-8.3704-16.753,8.183-8.1564,1.4426-2.1484,0.4488-20.741,8.0898-44.132,19.197-65.916,13.192-14.094-16.164,34.411-27.721,4.8938-14.052-26.55,12.217-58.345,23.332-86.96,15.302-9.2728-8.6101,12.564-29.128-12.368-18.337-20.469-2.1565-60.186,25.97-69.518,6.3859,5.9576-8.7554,1.4611-4.4541,14.536-10.106-23.378,8.1509-49.152,23.84-73.779,17.958-2.2137-6.4435,13.811-25.579-6.8059-15.208-18.287,4.2444-42.202,15.708-58.81,7.4393,2.273-9.9457,32.534-29.597,5.8945-19.802-8.0605,2.1332,23.652-9.8998-0.0376-0.6061-22.558,9.2077,20.727-8.5804-4.8127,2.17-12.85,9.5304-50.247,19.942-22.912-2.6911,6.0729-5.9665,39.826-31.392,13.082-21.841-14.446,5.4189-55.331,16.368-28.777-7.8242,24.131-21.499-10.093-6.5-17.634-12.914,10.372-8.6038,23.276-16.489,37.61-18.634z"/>
<path fill="#000000" d="m563.72,262.6c-0.004-2.5932-3.1394-10.593-2.4286-9.8383-0.0121-0.41113-3.6326-9.8127-3.8458-13.892-1.9755-6.1944-2.8076-11.67-3.3958-17.155-1.2654-5.7859-0.51226-11.915-2.7751-17.223,0.0311-7.1603-0.74077-14.454-3.259-21.221-0.12972-6.7853-3.8504-13.063-3.3056-19.854,0.32841-7.6955-1.4493-14.302-2.6476-21.852,0.85901-4.4949-4.5125-13.393,1.2469-14.822,6.0484-3.9534,4.1695,2.1498,4.5073,6.8399,0.56116,6.1334,4.3968,11.995,2.9854,18.24,1.1407,5.0242,0.96444,10.767,1.8387,16.152,1.443,7.2525,2.6686,14.578,4.161,21.862,1.5487,4.4406,2.1546,10.349,2.0119,16.22,2.1182,7.4672,1.608,15.808,3.3835,23.185,1.5821,3.8294,2.5123,9.9122,3.3886,12.535,1.7628,5.5788,2.5563,11.115,4.6333,16.726,0.5588,2.8728-4.4851,2.6481-6.4996,4.0982h0.0004z"/>
<path opacity="0.98000004" fill="#000000" d="m549.26,330.46c-4.2251-4.7846-6.653-13.038-9.4162-15.96-3.9923-8.3395-6.6838-16.939-8.5354-25.869-2.1214-6.4728-2.292-13.393-4.1825-19.918-0.92175-6.7538-0.71656-13.64-1.2722-20.671,0.45683-6.1523,0.10025-12.531,0.21005-18.814-1.0668-8.0439-0.25893-16.13-0.0396-24.159,0.70261-3.9653-2.4726-11.75,1.5338-13.536,4.1935-2.7191,6.9894-1.0608,5.1741,4.3097,0.40028,6.8433-0.36982,13.635,0.20623,20.381-0.70981,6.0208-0.25074,11.769-0.47745,18.165,1.4167,6.9264-0.56111,13.463,0.5106,20.448,0.54167,6.2585,1.2693,12.774,2.605,18.631,2.0254,4.584-0.98244,3.1149,1.4002,7.4256,0.56524,7.8558,4.423,15.034,6.0449,22.224,3.0364,6.0417,5.6735,12.834,9.3913,18.962,2.9144,3.8649,4.5708,6.3909-1.0323,7.4725-0.70681,0.30248-1.4136,0.60497-2.1204,0.90745z"/>
</g>
</svg>
