<?xml version="1.0" encoding="UTF-8" standalone="no"?>
<!-- Created with Inkscape (http://www.inkscape.org/) -->
<svg id="svg2" xmlns:rdf="http://www.w3.org/1999/02/22-rdf-syntax-ns#" xmlns="http://www.w3.org/2000/svg" height="885.83" width="885.83" version="1.1" xmlns:cc="http://creativecommons.org/ns#" xmlns:dc="http://purl.org/dc/elements/1.1/">
 <metadata id="metadata7">
  <rdf:RDF>
   <cc:Work rdf:about="">
    <dc:format>image/svg+xml</dc:format>
    <dc:type rdf:resource="http://purl.org/dc/dcmitype/StillImage"/>
    <dc:title/>
   </cc:Work>
  </rdf:RDF>
 </metadata>
 <g id="layer1" transform="translate(0,-166.53404)">
  <path id="path3032" fill="#000" d="m441.1,772.03c30.343-15.665,37.375-56.207,25.612-83.865-6.9223-22.866-29.949-38.493-54.64-38.828-14.316-4.1178-30.613-0.4667-44.993,4.6251,21.146-10.079-9.4476,6.5421-10.645,14.864-10.987,12.675-9.7469,30.717-11.007,45.84,1.3934,16.11,8.7641,30.072,22.131,40.18,0.24566,10.755-17.95,13.743-23.546,22.97-11.158,14.285-18.437,32.778-20.357,51.925-2.7672,18.012-3.0309,38.927,1.9208,57.786,1.4915,11.805,3.9081,19.133,6.9268,31.465,5.3062,19.811,11.682,37.334,25.851,51.701,11.944,12.631,23.219,18.826,39.42,24.182,19.157,10.062,41.147,16.983,60.705,20.034,31.303,7.8927,64.149,8.428,96.998,4.1162,9.9413-0.9731,28.478-7.9673,6.9722,0.2684,7.2696-3.2981,31.62-12.19,10.458-3.8462,13.442-5.6318,14.162-5.6398,3.4938-1.4237,22.932-9.5357-10.491,5.3171,12.27-7.1627,28.374-14.885,47.787-36.25,69.475-59.403,7.7712-9.6952-26.707,5.6738-36.996,2.9604-23.039,0.43166-43.532-10.812-58.988-26.458-15.123-15.944-18.732-37.225-33.36-53.274-7.5996-12.175-16.264-24.828-23.956-38.34-10.492-11.792-24.894-20.99-40.079-29.455-8.4273-3.853-31.075,2.6222-10.413-4.1461-16.938,8.9285-15.138,33.211-12.835,48.414,6.0824,17.381,19.054,36.642,29.75,47.89,17.43,16.786,41.884,27.052,68.232,23.981,25.54-8.4254-12.262,11.888-22.107,6.5375-33.218-1.5853-62.077-23.248-75.512-50.466-10.547-15.035-16.999-33.003-11.865-52.588-0.90383-7.6302,2.9288-11.449,8.9298-18.181,16.315-13.92,39.206-9.5529,52.898,2.9688,14.866,9.1892,26.656,20.216,33.131,35.288,7.8195,12.076,16.252,24.019,24.92,37.157,9.7584,17.387,16.13,35.605,32.479,47.381,19.546,15.831,46.386,21.931,71.472,13.848,20.11-7.8355,24.125,0.89516,8.655,11.19-18.811,20.78-38.635,39.227-63.579,52.927-8.4586,6.7257-30.331,14.083-11.883,6.6147-12.194,4.9513-17.435,7.3483-2.7941,1.1109-15.344,6.3626-16.58,6.151-7.8056,2.7991-23.549,9.3938,10.693-3.9405-14.758,5.9226-29.858,6.0419-58.723,8.5134-88.721,3.9496-18.132-2.9454-34.549-6.9084-53.39-11.146-18.777-6.7103-35.995-15.505-53.958-22.904-14.261-10.215-28.561-24.035-34.866-40.155-6.6681-13.374-9.3886-29.599-13.866-43.082-2.6143-16.688-8.2536-35.057-5.9984-53.041-1.6448-13.089,2.6819-27.771,4.5015-40.592,6.517-19.057,15.166-38.426,35.541-48.397,10.064-4.1981,2.2569-9.353-2.3953-13.979-19.165-18.17-15.63-47.673-9.651-71.788,7.9117-13.727,21.177-28.121,35.476-31.347-19.121,7.3541,30.422-13.424,44.029-6.8107,19.019,1.8543,40.574,8.7858,49.888,23.765,11.385,11.55,12.785,28.859,15.664,41.109,0.66419,25.907-11.279,61.182-42.837,64.912z"/>
  <path id="path3034" fill="#000" d="m381.68,724.81c-29.437,18.102-56.216,39.313-87.117,55.132-18.586,12.089-39.503,24.928-58.706,37.432-5.2951,8.6678-26.392,11.424-5.7676,1.384,45.511-26.264,88.582-54.769,132.92-82.935,16.62-6.7513,2.8729-0.29404,6.3062-2.529,22.47-6.4625-12.147,7.2166-16.126,14.063-39.445,23.784-77.769,49.693-117.8,72.466-29.316,21.069-6.3892-10.289,10.035-12.577,27.749-20.662,59.06-35.452,87.685-54.872,15.02-10.682,30.078-24.003,48.572-27.564z"/>
  <path id="path3040" fill="#000" d="m368.11,686.42c8.1788,5.548,39.676-2.0719,19.347,6.9318-8.9482,3.7392-42.357,0.75277-19.347-6.9319v0.00007z"/>
  <path id="path3042" fill="#000" d="m420.72,690.05c13.843,0.73177,33.554,1.6855,13.087,7.95-8.9857-2.6534-37.072,1.9551-13.087-7.95z"/>
  <path id="path3060" fill="#000" d="m496.42,485.8c-4.4208,17.539-7.1086,8.7639,5.8042,22.832,14.284,8.0433,34.921-0.0532,36.869-17.43,10.669-26.137,16.338-55.025,25.526-82.06,6.7186-27.108,16.79-53.142,22.779-80.507,5.7312-25.407,15.215-49.549,18.378-75.346-1.6832-14.799,3.7778,20.363-0.71397-5.7432,4.9401,14.038-9.6418-19.074-22.105-13.182-10.443-0.56747-21.561,4.8076-23.185,16.698-9.8981-18.533,18.255-30.081,32.613-21.335,21.543,11.547,17.272,40.854,9.9032,59.369-8.1301,30.023-15.538,61.219-24.133,90.84-13.977,40.981-22.998,85.675-38.878,125.42-7.4928,18.962-38.007,18.399-46.242-0.40836-4.7971-2.1422-0.53981-40.556,3.3846-19.15z"/>
  <path id="path3062" fill="#000" d="m490.13,489.76c38.96,22.742,71.324-156.23,82-195.82,3.0053-11.144,15.976-65.7-14.194-51.683-6.7918,3.1553-80.934,231.07-67.806,247.51z"/>
  <path id="path3832" fill="#333" d="m296.37,591.11c35.683-0.40443,12.484,14.598,0.46375,30.114,3.3815,4.2809,29.651-4.3114,12.06,3.9327-9.1395,7.6755-35.232,3.4595-18.067-8.9784,19.314-14.464,11.415-16.457-4.1814-20.069,3.2415-1.6663,6.4841-3.3332,9.725-4.9991z"/>
  <path id="path3834" fill="#333" d="m232.57,536.17c6.7511,6.5081,43.508,8.7759,21.149,19.093-5.373,3.666-45.421,26.22-23.209,26.773,19.126-3.0014,31.046,3.4768,5.9193,6.2344-12.849,1.9379-39.069,0.77915-18.486-13.782,3.1491-9.3573,44.374-18.984,25.093-23.993-9.5243-4.4396-34.884-6.5261-10.466-14.325z"/>
  <path id="path3836" fill="#333" d="m103.66,453.15c12.479,4.1986,25.384,9.862,38.357,12.678,20.614,3.682-4.5395,14.09-8.6376,20.143-7.7677,11.764-31.804,21.146-27.462,34.46,19.468,2.589,38.265,9.7812,58.164,7.8552-21.034,14.89-45.614-0.38606-68.389-1.2722-12.851-6.485,5.6017-18.634,10.939-23.968,10.447-9.7115,20.939-21.075,32.823-28.198-11.98-5.2418-26.784-6.7793-38.759-12.828-13.594-2.9747-7.0639-2.8662,2.9645-8.8713z"/>
  <path id="path3840" fill="#502d16" d="m328.43,970.02c-29.705,18.504-7.3879,3.1116,3.6488,11.581-3.0304,8.8981-27.45,27.598-2.275,17.608,21.369-12.804,37.993-4.234,13.262,10.846-9.0024,6.8962-17.727,18.401-8.2872,12.617-28.197,10.651,35.832-15.813,7.7933-4.1637,17.654-12.497,38.283-7.0501,14.076,9.0552,4.8233,10.657,37.613-5.1301,50.789-6.6004,5.0693,4.7221-6.8035,21.98,12.52,14.885,17.194-5.3759,32.792-10.092,19.569-5.7293-0.8118,11.315,26.185-17.797,13.412,4.2006,21.609,1.8703,47.383-16.72,66.606-10.161-14.998,22.624,25.024,16.63,37.569,12.561,26.705-9.2293-15.727,7.6209,9.1858-3.5257,18.538-12.133,16.681-5.2901,18.438,4.8997,26.238,1.0323,35.011-7.1614,33.935-5.5709,23.414-9.8295-22.163,9.8551,2.6197-1.8743,12.451-13.453,14.762-1.3122,11.521,5.6848,12.962-3.5492-11.061,6.2158,5.4593-2.6658,11.314-9.5784,44.383-28.449,30.709-1.7769,10.71,3.8271,13.263-2.0758,3.4133,3.1284,12.54-8.1186,33.533-20.093,28.979-36.295-12.586-9.6973,7.1142-19.651,2.3369-5.9715,11.816,3.9626-11.646,13.772-1.3939-1.7317-3.7228-12.436-16.596-5.9714,2.3452-12.47-14.903,8.8712-29.424,7.3396-1.7799-1.4333,14.49-3.9622,16.061,22.998,0.93277,23.25-29.359,10.096,4.681-36.329,8.928-7.6119,6.1566,10.925-6.0137,24.498-16.094,31.438-9.4426,6.9918-34.532,24.595-39.909,9.9612,4.9585-19.969,19.158-16.258-5.5238-3.8789-11.528,16.687-45.957,10.323-22.805-0.2891,16.124-5.7499-28.738,13.256-5.1552,3.04-13.467,4.0795-49.452,23.457-53.173,3.6683,31.405-24.596-15.666,12.535-35.648,8.7428-12.114,3.8608-41.054,2.5756-27.524-16.438-14.697-5.7373-69.937,27.239-62.796,1.6685,20.445-10.885-40.626,22.634-50.013,8.5378,15.177-25.671-24.294,0.094-36.304-2.3672-28.827,7.0861-3.155-14.003-2.6498-20.19-23.741,7.9883,16.718-7.5965-14.938,5.0037,32.719-14.077-48.569,25.731-14.818-3.9074,9.7847-6.3157,32.361-27.593,4.3744-15.004-21.238,11.521-31.874,2.1048-13.298-11.819,15.046-15.625-38.346,4.7399-8.4775-12.513,6.1182-5.127,12.842-6.7614,20.439-8.3901z"/>
  <path id="path3848" fill="#000" d="m526.27,274.64c-4.0571-15.34-5.1707-29.374-6.3798-46.768,2.5131-12.617-7.5473-34.803,4.9352-41.462-1.1197,29.2,0.37272,58.049,6.8941,86.116-1.8161,0.70478-3.637,1.4105-5.4495,2.1146z"/>
  <path id="path3850" fill="#000" d="m492.99,325.41c-0.40801-30.544-10.677-60.868-8.4784-91.574,12.016-3.0534,2.1871,29.163,8.2529,39.718-1.3846,16.023,12.341,39.858,1.2969,51.47l-1.0717,0.38582h0.00027z"/>
  <path id="path3852" fill="#000" d="m482.35,425.82c-8.4371-26.182-9.8133-53.247-15.139-79.523-5.2855-17.492,0.37763-45.069,5.3938-11.491,0.11418,21.289,7.1207,42.955,8.3836,63.933-0.44406,7.4998,12.235,25.453,1.3616,27.081z"/>
  <path id="path3854" opacity="0.98000004" fill="#000" d="m470.9,479.56c-22.349-32.133-18.191-72.411-18.752-109.45,13.454-1.5062,1.1659,28.743,6.1756,39.998-0.73568,23.938,4.7806,46.903,17.929,67.16-1.7843,0.76358-3.5685,1.5272-5.3528,2.2908z"/>
 </g>
</svg>
