<?xml version="1.0" encoding="UTF-8" standalone="no"?>
<!-- Created with Inkscape (http://www.inkscape.org/) -->
<svg id="svg2" xmlns:rdf="http://www.w3.org/1999/02/22-rdf-syntax-ns#" xmlns="http://www.w3.org/2000/svg" height="885.83" width="885.83" version="1.1" xmlns:cc="http://creativecommons.org/ns#" xmlns:dc="http://purl.org/dc/elements/1.1/">
 <metadata id="metadata7">
  <rdf:RDF>
   <cc:Work rdf:about="">
    <dc:format>image/svg+xml</dc:format>
    <dc:type rdf:resource="http://purl.org/dc/dcmitype/StillImage"/>
    <dc:title/>
   </cc:Work>
  </rdf:RDF>
 </metadata>
 <g id="layer1" transform="translate(0,-166.53401)">
  <path id="path3060" fill="#000" d="m40.344,861.12c-17.997-4.1358-14.635-4.1154-25.086,15.278-1.1837,15.08,8.9352,30.815,25.648,30.486,30.376,7.4469,62.853,9.8255,93.967,15.19,34.458,4.9237,68.563,10.975,103.39,13.905,22.111,2.005,44.772,8.9951,67.16,5.423-13.751,4.2744-4.0742,2.3377,0.17344-0.79674,18.701-10.971,15.768-46.746-8.5712-47.128,18.182-13.126,34.496,15.167,27.265,31.244-9.492,25.385-41.923,23.578-63.144,19.061-32.146-4.539-65.461-7.2463-97.25-12.039-46.7-9.37-96.912-11.117-142.25-24.215-19.165-8.8366-18.849-42.585,3.2035-49.442,3.0916-2.9963,36.143-3.4886,15.488,3.0332z"/>
  <path id="path3062" fill="#000" d="m35.247,855.07c-18.258,44.394,175.11,52.268,218.4,57.716,12.186,1.5337,71.585,7.2069,52.39-22.535-4.3211-6.6954-255.39-51.427-270.79-35.181z"/>
  <path id="path3875" opacity="0.98000004" fill="#A00" d="m18.144,842.31c0.08056-8.6675-12.461-36.021-1.2637-28.55,0.97792,8.4346,12.725,26.473,1.2637,28.55z"/>
  <path id="path3889" opacity="0.98000004" fill="#A00" d="m61.922,843.78c-5.9545-17.377,6.7981-41.578,4.495-11.68,0.45614,5.9146,3.8466,10.807-4.495,11.68z"/>
  <path id="path3891" opacity="0.98000004" fill="#A00" d="m99.012,845.09c-5.7259-30.662,15.439-18.67,0.68098-0.2452l-0.68106,0.2452h0.000085z"/>
  <path id="path3893" opacity="0.98000004" fill="#A00" d="m137.42,852.24c2.5547-13.895,21.376-32.937,8.3888-9.4875-1.245,5.1243-2.1232,9.0992-8.3888,9.4875z"/>
  <path id="path3895" opacity="0.98000004" fill="#A00" d="m169.18,859.44c13.501-13.011,38.726-25.246,9.5636-4.1572-2.419,3.1377-6.222,3.1186-9.5636,4.1572z"/>
  <path id="path3897" opacity="0.98000004" fill="#A00" d="m221.48,863.72c11.569-11.484,40.951-28.9,13.059-7.7581-3.6268,4.7976-7.5828,6.9171-13.059,7.7581z"/>
  <path id="path3899" opacity="0.98000004" fill="#A00" d="m263.87,870.82c19.752-17.384,33.946-20.132,5.0936-1.2859-1.6979,0.42863-3.3958,0.85731-5.0936,1.2859z"/>
  <path id="path3901" opacity="0.98000004" fill="#A00" d="m313.52,889.3c14.012-7.5591,49.821-23.308,14.539-5.4024-4.2462,3.5456-9.5059,4.1442-14.539,5.4024z"/>
  <path id="path4011" opacity="0.98000004" fill="#000" d="m597.27,481.32c27.002-10.975,37.944-41.698,46.357-66.032,7.5797-30.138,12.651-65.137-8.3883-90.994-4.5195-13.844-17.11-23.833-26.005-31.932-16.818-12.945-34.293-18.811-54.922-24.33-27.384-5.8472-58.415-8.4299-86.006,3.9584,40.283-17.092-5.6448,2.943-15.972,17.496-10.641,9.5112-16.893,26.875-21.73,37.69-12.042,19.359-8.2247,48.853,1.153,69.545,3.3539,14.859,19.929,18.794,26.861,30.117-20.201,21.315-35.34,48.013-56.674,67.266-20.819,22.463-47.213,42.004-67.052,65.927-15.529,12.641-31.172,30.858-45.208,46.883-21.204,20.067-36.64,44.581-61.108,62.729-14.81,12.579-24.511,36.018-47.404,37.26,0.99038-3.7608,19.848-24.673,30.024-33.224,16.985-15.512,32.361-29.97,46.332-48.672,21.242-19.44,35.822-43.484,59.358-60.555,22.886-28.99,56.673-51.217,79.259-79.677,11.38-8.6762,19.093-26.452,28.853-35.918,18.645-13.144,7.7983-21.968-3.632-30.943-12.274-13.381-14.918-33.16-17.847-50.023-0.29328-18.545,6.0203-34.472,14.759-50.135,9.1903-25.4,35.595-41.615,59.134-55.329,21.691-4.4108,43.981-12.588,65.597-8.2264,22.408,2.3493,44.848,6.699,64.582,17.569,16.886,4.9126,27.722,20.428,38.838,29.59,5.5816,13.137,18.759,28.247,21.762,46.522,3.491,33.754-4.0143,66.522-19.598,95.976-7.9066,17.567-26.127,35.6-48.41,36.766l-2.3775,0.56888-0.5337,0.1277-0.00057-0.0001z"/>
  <path id="path4019" opacity="0.98000004" fill="#000" d="m480.63,445.46c12.709,13.199,35.817,13.694,44.409,28.879,11.31,15.027,15.474,34.068,14.774,52.871,4.5824,18.602,1.396,43.388,0.40141,60.596-4.4558,19.692-5.2032,37.057-12.775,55.558-2.0234,14.538-5.5236,24.457-6.4744,38.624-4.3877,19.433-7.2496,36.704-15.637,54.483-9.3487,24.541-19.138,46.812-21.388,72.561-1.4356,18.255-2.1068,36.755-2.9276,55.595,0.16038,17.624,0.78224,38.098,15.752,47.454,10.815,9.694,25.272,21.185,37.411,27.24,20.29,8.4034,34.781,17.938,53.391,28.537,13.634,10.724,34.505,15.431,35.208,34.199,9.0908,15.192-8.9718,51.518-22.361,30.774-0.38533-24.538,28.222-30.581,46.804-38.032-27.201,9.742-10.051,5.906,2.9663-1.8739-30.8,12.653-7.2746,3.6558,4.3977-1.1614-23.752,9.7623-16.622,6.2389,2.3359-1.0591-30.068,13.969-8.2312,0.55873,10.794-4.7417-24.401,10.33-13.573,5.1325,3.0166-1.0138-48.3,19.371,35.465-14.873-2.1765,0.44212-20.379,8.3463,31.566-12.867-6.1082,1.51-3.1523,2.3459,46.553-18.995,11.042-4.1723,38.911-15.045,9.724-2.0561,0.436-0.20124,12.053-8.9907,58.225-29.429,24.341-14.388,23.193-9.5977,16.377-6.3068,4.1423-1.8085,15.413-7.3386,33.308-12.885,5.7369-2.5502,44.421-18.304,93.235-21.882,140.14-27.88,18.231-0.66424,36.308-2.2312,5.7424,8.5277-1.5654-6.8963-17.116-16.623-19.658-26.414-12.989-21.918-26.324-42.938-34.202-66.711-9.2455-19.221-13.442-41.924-20.993-58.992-5.4593-19.753-12.944-38.368-21.309-55.803-2.9129-10.355-4.236-12.211-8.213-21.199-10.409-22.524-13.179-48.157-25.089-69.845-4.1464-13.6-10.388-28.715-14.046-43.032-7.0956-10.618-7.8498-27.98-16.548-34.013-5.4427-19.447-24.125-33.368-40.227-45.001-10.676-13.338-29.996-13.146-45.614-16.223,29.87-11.264,8.3735-0.52867,5.6516,15.163-2.6167,13.534-4.953,28.987-3.5126,41.044-1.9646,21.544-0.005,43.678,9.0564,62.782,7.6321,23.291,18.661,43.768,30.189,63.833,6.5974,13.044,12.517,25.241,20.738,36.921,8.3747,17.681,24.343,34.181,46.442,35.299,35.556-2.6067-12.212,19.324-24.122,8.4736-13.9-3.7657-24.083-10.203-31.145-20.996-9.3303-11.36-15.166-23.621-22.921-36.326-7.4752-15.712-15.618-30.409-23.354-43.787-7.0227-17.136-14.062-30.941-19.396-49.762-3.9668-8.9646-5.6794-21.207-4.5298-33.046-1.4758-9.5962-0.11264-26.322,0.0948-38.947,3.2467-17.034,3.9708-40.939,25.642-45.178,18.093-8.5641,37.45-1.4127,52.386,8.7984,12.603,12.928,32.917,23.252,39.515,41.866,13.909,18.511,19.564,41.854,26.881,63.015,9.0174,23.678,18.963,46.093,24.411,70.012,9.0338,22.798,17.956,46.802,28.244,68.706,3.5791,11.537,9.5274,30.277,14.632,43.295,5.9064,13.502,7.2263,29.78,14.502,40.026,1.5704,9.5028,8.6411,21.245,10.862,29.973,8.3087,9.9342,13.903,27.067,22.817,38.487,5.0464,11.889,14.423,20.795,23.452,28.482-5.6099,12.388-31.083,10.402-45.969,10.159-41.211,7.0029-82.825,8.2798-122.34,23.198,32.225-12.429,3.6087-0.0329,5.8743-2.9831,36.757-15.195-39.585,16.579,5.4654-2.1173-15.51,6.6043-26.549,10.669-2.9257,1.2452-13.418,9.8905-55.496,29.108-22.964,13.841-20.97,8.8635-19.254,7.3177-4.0796,1.9026-16.083,10.545-34.151,13.019-9.1027,4.0833-16.288,6.8123-26.518,10.688-3.1998,1.264-15.167,6.8187-33.607,13.826-6.2174,2.8234-20.998,8.7004-36.139,14.361-5.4091,2.1941-17.833,6.7168-31.738,13.77-8.0918,3.6271-16.668,6.9571-25.459,10.246-2.5482,0.99364-21.094,8.2215-20.099,8.4872-3.8666,1.6666-15.588,6.6847-35.571,14.163-6.2012,2.3536-21.543,8.6238-22.284,9.1662-0.0205-0.11605-14.08,4.4997-27.532,16.581-22.365,30.617-25.216,19.09-14.749-0.6757-15.273-17.324-3.8077-10.259-3.0748-15.72-13.691-22.429-19.631-11.547-39.666-23.907-57.294-33.614-12.606-6.2006-27.273-11.374-36.604-20.738-14.387-10.741-29.034-19.415-33.964-36.917-3.5156-26.446-0.29832-54.574,0.75548-82.226,1.8953-27.561,15.224-58.55,23.994-80.486,8.24-20.164,12.521-44.389,15.861-64.524,0.7846-7.6698,4.4721-25.205,7.9951-35.91,6.7034-22.149,8.0825-43.715,10.78-66.094-1.0409-26.387-0.0495-54.425-9.9411-76.364-5.3078-13.766-18.312-23.522-33.029-27.334-20.265-10.077-22.703-12.235,0.34618-20.661z"/>
  <path id="path4021" opacity="0.98000004" fill="#000" d="m481.13,335.44c0.56336,19.74,35.189,4.767-0.0561,17.284,16.27-14.183-18.355-21.273,3.7242-25.458,14.699-14.803,28.208,17.888,11.317,22.606-16.736,20.345-51.38-9.2934-18.348-13.178l2.2908-0.85349,1.072-0.3994,0.00019-0.00044z"/>
  <path id="path4023" opacity="0.98000004" fill="#000" d="m583.36,354.7c-11.719,9.9205-7.6895,30.269,6.6135,31.078-27.773,15.82,3.827-11.479-7.1424-20.447-9.654-8.6023-17.829-5.59,0.81802-14.521,12.16-5.9744,23.199,9.4113,19.677,19.153-1.1578,15.338-24.702,30.503-37.785,22.578-11.135-8.8418-11.391-33.709,7.2982-34.876,3.507-0.98837,7.0147-1.977,10.521-2.9652z"/>
  <path id="path4035" opacity="0.98000004" fill="#333" d="m524.27,206.46c12.221,4.0932,38.691,2.5137,19.901,5.7445,8.969-19.638-35.868-15.005-15.213-16.504-9.4484,9.2647-0.83844,18.191,10.626,16.915,12.209,2.4008,28.24,12.396,37.104,14.184-15.267,13.116-26.06-5.4646-31.771-16.296,15.091-12.416,42.842,1.2698,46.956,19.336,1.0262,17.123,46.923,5.2033,25.812,18.392-22.469,1.3015-42.954-17.541-54.007-34.728-8.8555-10.93-5.3411-41.925,9.8368-25.922,1.5833,18.936,23.938,34.495,4.5922,30.193,4.1514-10.635,42.392-25.475,21.294-16.636,21.666-17.664,29.877,3.1241,26.86,20.554,5.9558,21.04-29.609,33.071,0.87994,12.481,19.279-10.283,30.226-14.58,32.021-15.053,14.777-16.512,76.729-3.7683,46.166,3.8414-11.14-16.756-42.094-0.76892-48.524-0.75409-21.317,7.4211-54.262,44.513-42.064,2.7873,0.97504-16.64-4.9921-33.436-10.46-23.354-10.143,4.8613-20.452,26.203-32.399,16.388-10.453-14.91-9.384-39.684,0.649-35.926-9.5494,21.479,12.706,45.789,32.263,54.846,21.07,6.6602,17.148,11.201-0.44668,9.2178-18.569,3.8302-23.066-15.869-31.715-26.02-18.52-4.3213-33.303-19.134-14.128-7.4791,7.9405,9.6398,20.258,16.114,8.3136,17.385-19.032,0.13022-29.431-15.269-48.87-15.145-17.553-18.589,33.56-36.651,38.346-12.208,9.4277,19.89-54.532,10.427-40.253,8.1651,2.743-1.4685,5.489-2.9393,8.2297-4.4062z"/>
 </g>
</svg>
