<?xml version="1.0" encoding="UTF-8" standalone="no"?>
<!-- Created with Inkscape (http://www.inkscape.org/) -->
<svg xmlns:rdf="http://www.w3.org/1999/02/22-rdf-syntax-ns#" xmlns="http://www.w3.org/2000/svg" height="100%" width="100%" version="1.1" xmlns:cc="http://creativecommons.org/ns#" xmlns:dc="http://purl.org/dc/elements/1.1/" viewBox="0 0 885.83 885.83">
<metadata>
<rdf:RDF>
<cc:Work rdf:about="">
<dc:format>image/svg+xml</dc:format>
<dc:type rdf:resource="http://purl.org/dc/dcmitype/StillImage"/>
<dc:title/>
</cc:Work>
</rdf:RDF>
</metadata>
<g transform="translate(0,-166.53401)">
<path d="m49.168,818.17c-4.1389-1.5989-18.925-0.95624-15.424-1.0949,11.126-4.3126-9.9019,7.2654-7.6793,14.005-0.86847,4.6971-0.04751,9.7556,2.0714,14.547,0.91502,5.0806,4.0765,9.53,8.8792,11.698,5.5509,3.1846,12.271,3.3149,18.034,5.2877,9.0288,0.95272,17.872,4.2855,27.25,4.4983,8.6905,1.418,17.551,2.3059,26.31,3.2416,7.9255,3.2254,18.043,3.335,26.817,4.4527,10.439,2.119,20.901,1.8882,31.013,4.8419,10.071,2.8976,20.639,3.262,31.096,4.2478,10.468,1.1238,20.649,2.6604,31.074,3.7331,5.2283,0.73156,13.801,2.0618,20.479,2.5226,6.7659,1.1868,14.773,1.9237,20.908,2.8734,7.8095,1.4994,23.676,1.993,25.703,0.84588-8.8891,3.0178-0.80711,0.16712,3.4447-1.2118-4.5377,1.5196-8.9935,3.2745-1.6604-0.0823,6.1596-3.8886,10.292-11.163,11.224-18.19,1.3161-6.2394-1.5282-12.945-3.3578-17.511-3.1883-5.198-9.5528-8.1415-15.89-8.4176,4.4485-2.681,8.7626-4.7144,13.83-2.4432,5.7764,2.4759,11.02,9.0482,11.989,16.075,1.5594,4.7653,1.5887,13.538-2.0226,18.883-3.4605,8.847-12.138,13.057-20.921,15.493-11.197,4.1532-23.175,0.30763-34.208-0.50478-6.0573-0.68481-11.954-1.9024-18.229-2.1954-11.887-2.0407-23.695-2.6969-35.577-4.7259-9.9396-0.87197-20.143-2.8208-29.828-2.6205-7.2371-1.6083-14.558-3.2304-21.666-4.8557-11.845-1.1584-23.038-3.1698-34.837-4.1217-6.8133-0.74989-17.072-3.8205-25.753-4.4505-12.077-1.9308-24.205-2.1764-35.918-5.5465-7.7854-1.1777-15.23-2.8259-22.618-5.0239-6.776-1.9458-11.155-7.2801-12.815-13.245-2.4534-6.5908-3.5786-13.2-0.83042-20.211,3.6828-7.7149,11.102-13.365,19.577-15.381,3.644-1.0307,16.238,0.0285,15.136,1.7249-1.8656,0.95393-3.7337,1.9078-5.5978,2.8618z" fill="#000000"/>
<path d="m44.396,812.5c-17.092,41.559,163.93,48.93,204.45,54.03,11.408,1.4357,67.013,6.7466,49.044-21.096-4.04-6.26-239.08-48.13-253.49-32.93z" fill="#000000"/>
<path opacity="0.98000004" d="m28.386,800.57c-1.7344-7.9158-10.305-39.778-0.2623-23.492,0.91316,6.5766,10.521,23.173,0.2623,23.492z" fill="#aa0000"/>
<path opacity="0.98000004" d="m69.368,801.94c-5.5788-16.252,6.3932-38.94,4.208-10.934,0.39644,5.5239,3.6414,10.124-4.208,10.934z" fill="#aa0000"/>
<path opacity="0.98000004" d="m104.09,803.17c-5.371-28.86,14.583-17.298,0.52233-0.18807l-0.52238,0.18807h0.00005z" fill="#aa0000"/>
<path opacity="0.98000004" d="m140.04,809.86c2.7493-13.182,19.794-31.366,7.7151-7.5716-1.6318,4.4079-2.1434,7.0967-7.7151,7.5716z" fill="#aa0000"/>
<path opacity="0.98000004" d="m169.78,816.6c13.06-12.403,34.757-22.827,8.9528-3.8917-2.2606,2.9466-5.8276,2.913-8.9528,3.8917z" fill="#aa0000"/>
<path opacity="0.98000004" d="m218.73,820.6c10.812-10.74,38.382-27.069,12.225-7.2626-3.394,4.4729-7.0951,6.4872-12.225,7.2626z" fill="#aa0000"/>
<path opacity="0.98000004" d="m258.42,827.25c18.474-16.26,31.83-18.87,4.7684-1.2038-1.5895,0.40117-3.1789,0.80263-4.7684,1.2038z" fill="#aa0000"/>
<path opacity="0.98000004" d="m304.9,844.56c13.085-7.0639,46.701-21.837,13.61-5.0574-3.9741,3.3223-8.8992,3.8783-13.61,5.0574z" fill="#aa0000"/>
<path opacity="0.98000004" d="m570.52,462.63c25.277-10.274,35.521-39.035,43.396-61.815,7.0955-28.214,11.843-60.977-7.8526-85.183-4.2309-12.959-16.017-22.311-24.345-29.892-15.744-12.118-32.102-17.61-51.415-22.776-25.636-5.4736-54.684-7.8922-80.513,3.7053,37.71-16.001-5.2844,2.755-14.952,16.379-9.9618,8.9038-15.814,25.159-20.342,35.283-11.806,19.136-7.2598,47.659,2.1618,67.935,1.1365,13.178,26.985,16.21,21.718,27.948-19.258,21.806-35.023,46.956-55.685,65.767-19.547,19.428-42.639,37.044-58.914,58.305-21.577,15.645-37.264,39.88-56.917,57.935-17.412,25.272-45.081,42.719-63.824,67.099-5.4018,9.152-36.47,15.983-15.835,2.9226,17.793-25.043,44.949-39.228,60.844-64.934,22.126-19.141,36.403-43.575,59.997-60.854,21.436-27.14,52.975-47.884,74.197-74.588,10.691-7.8841,17.31-24.556,26.808-32.981,16.085-12.548,9.5971-20.409-3.1976-29.61-12.912-15.628-17.13-37.766-15.864-57.673,1.169-17.769,12.334-33.356,19.035-48.428,17.106-21.85,41.617-39.014,69.338-43.941,29.529-9.1464,58.013-1.1844,86.17,5.4741,13.023,7.3258,31.538,12.157,40.886,25.433,8.9584,7.3438,13.59,13.776,18.363,24.022,16.132,20.163,16.587,50.603,10.42,75.575-3.902,21.334-12.5,41.652-25.433,58.754-8.3145,13.882-23.685,17.079-38.246,20.14z" fill="#000000"/>
<path opacity="0.98000004" d="m461.33,429.06c11.886,12.358,33.541,12.85,41.572,27.034,11.59,14.597,13.61,33.384,14.67,51.57,2.3896,20.185,1.5502,44.311-2.3679,63.268-1.6909,19.928-8.7707,37.068-12.698,57.194-1.4119,8.1193-3.4491,19.019-4.8778,30.198-3.8489,19.758-10.134,36.455-17.746,55.569-7.5295,18.239-13.616,35.843-15.454,55.519-1.2829,19.885-2.7344,39.875-2.6665,60.602-0.10748,16.688,5.0171,31.475,19.32,39.458,7.3173,7.0779,20.462,17.491,29.786,21.212,17.152,8.4527,30.605,14.866,46.117,25.256,11.406,8.5992,30.2,13.469,35.331,26.716,4.6691,13.217,8.983,40.553-13.047,42.447-11.845-3.4632-3.0766-24.395,7.4107-28.821,15.405-8.2329,43.087-17.374,15.12-6.8064,19.001-6.2378,24.096-11.482,0.92025-0.58153,19.993-7.8143,28.486-11.142,4.9165-1.8976,28.217-9.9782,15.038-7.581,6.6299-3.0453-2.8815,0.16264,41.429-16.152,5.7284-2.1621,14.814-6.2488,27.784-10.998,3.1354-1.2544,17.898-7.725,36.116-14.809,6.4572-2.9387,20.828-7.8675,16.826-8.0028-1.8975,0.2243,15.896-6.49,39.519-16.045,14.178-5.8028,36.426-14.085,9.103-1.9249,0.40816-0.18845,11.283-8.4164,54.507-27.55,22.786-13.469,21.712-8.9847,15.331-5.9042,3.8778-1.693,14.428-6.87,31.181-12.062,5.3705-2.3873,41.584-17.135,87.281-20.484,131.19-26.1,17.067-0.6213,33.99-2.0884,5.3757,7.9832-1.4655-6.4558-16.023-15.561-18.402-24.727-12.159-20.518-24.643-40.196-32.018-62.45-8.655-17.994-12.583-39.246-19.653-55.224-5.1106-18.492-12.117-35.918-19.948-52.239-2.7269-9.6934-3.9655-11.431-7.6885-19.845-8.9223-19.755-12.193-41.547-21.212-61.299-7.4989-16.693-12.327-36.517-19.834-53.884-2.6862-13.73-10.416-20.072-14.291-31.628-10.406-15.659-27.143-27.525-41.946-39.644-11.925-8.1-54.186-5.7608-17.207-13.335-16.487,10.368-14.675,34.469-16.121,49.036-1.0453,22.226-1.5333,46.912,8.606,67.32,8.6144,26.261,21.621,47.901,34.431,71.35,4.8116,11.524,13.314,22.292,19.229,33.941,8.9555,11.322,21.363,21.511,37.491,22.074,33.276-2.4511-11.418,18.154-22.581,7.9327-13.012-3.5252-22.545-9.5517-29.156-19.655-10.349-13.627-18.852-27.985-26.123-44.414-7.7386-12.379-13.191-24.067-19.551-36.287-5.9981-13.784-11.348-25.531-15.803-40.879-4.01-7.7505-4.9064-22.061-4.5513-30.292-0.59669-22.067-0.73354-46.461,7.7147-67.412,10.241-16.396,36.177-18.97,51.753-11.204,14.136,4.6094,21.922,16.357,34.035,24.459,17.653,16.294,27.848,38.168,34.862,60.835,6.5441,14.872,10.521,33.055,18.327,47.768,7.8352,22.199,13.052,44.215,22.614,65.54,5.9977,16.385,13.706,31.39,18.674,46.034,5.2451,19.939,14.783,39.934,18.934,58.232,4.7249,9.5962,6.2988,17.257,11.915,27.937,2.4734,10.765,10.785,20.501,16.459,33.074,9.2282,14.134,15.037,30.774,30.115,38.842-2.0722,14.128-28.635,10.446-42.409,11.43-35.893,4.4699-71.933,8.6012-107.4,17.695-22.35,11.039,35.594-15.246-0.58097-0.34278-16.916,8.0577,29.399-11.985-0.53422,1.0599-29.851,11.873,24.702-10.036-9.6871,3.8576-6.4484,2.4559,20.922-9.2385-0.0825,2.1214-12.234,10.797-37.068,15.756-10.245,6.2808-19.63,8.2974-18.024,6.8503-3.819,1.781-15.056,9.8711-31.97,12.187-8.5214,3.8225-15.248,6.3772-24.824,10.006-2.9954,1.1834-14.199,6.3832-31.46,12.943-5.8203,2.643-19.657,8.1448-33.831,13.444-5.0636,2.054-16.694,6.2877-29.711,12.891-7.575,3.3954-15.603,6.5128-23.833,9.592-2.3854,0.93023-19.747,7.6965-18.815,7.945-3.6197,1.5602-14.593,6.2578-33.299,13.258-5.8051,2.2032-20.167,8.073-20.861,8.5808-0.0192-0.10859-15.102,3.991-24.338,16.828-21.894,29.68-24.76,17.469-10.558-4.3282-14.049-18.322-2.4178-9.1156-2.8315-13.829-12.109-19.91-18.377-10.809-37.133-22.38-53.635-31.467-11.801-5.8046-25.531-10.648-34.267-19.414-13.468-10.055-27.18-18.175-31.795-34.559-3.2912-24.757-0.27957-51.089,0.70699-76.974,1.7742-25.8,14.251-54.81,22.461-75.346,7.7137-18.876,11.721-41.554,14.848-60.404,0.73449-7.18,4.1865-23.595,7.4845-33.617,6.2752-20.735,7.5664-40.923,10.091-61.873-1.3758-26.272,0.75225-53.501-11.486-75.097-4.1333-11.056-16.809-18.634-28.741-21.979-20.792-10.317-19.869-11.366,0.32421-19.342z" fill="#000000"/>
<path opacity="0.98000004" d="m461.8,326.06c0.52755,18.48,32.941,4.4625-0.0529,16.18,15.152-13.442-17.339-19.927,3.7541-23.981,13.804-13.522,25.939,17.063,10.327,21.31-16.089,19.13-48.058-9.0053-16.775-12.486l2.2018-0.82036,0.54465-0.20292,0.00059-0.00038z" fill="#000000"/>
<path opacity="0.98000004" d="m557.5,344.1c-10.971,9.287-7.1985,28.336,6.1911,29.094-25.999,14.809,3.5826-10.746-6.6862-19.142-10.873-8.0741-14.164-6.0916,2.8584-14.806,22.096-1.4824,21.36,31.07,2.6034,37.052-10.567,9.8001-26.419,6.043-27.681-7.0287-6.1086-16.576,8.1541-22.828,22.714-25.169z" fill="#000000"/>
<path opacity="0.98000004" d="m502.19,205.32c11.44,3.8317,36.22,2.3532,18.63,5.3776,8.3962-18.384-33.578-14.047-14.241-15.449-8.845,8.673-0.7849,17.03,9.9469,15.835,11.429,2.2474,26.436,11.605,34.734,13.278-14.239,12.265-24.954-5.3716-29.867-15.869,16.994-11.093,40.887,3.3987,45.579,20.881,6.2471,12.815,50.187,6.671,14.269,15.767-22.39-8.2457-48.326-28.281-45.924-52.435,6.4104-25.393,20.466,7.6444,22.099,20.157,12.715,0.47971-18.331,9.0856,4.2154-6.0302,6.221-5.9831,29.22-13.187,10.891-6.4921,20.282-16.535,27.969,2.9245,25.145,19.242,3.2397,23.559-27.776,28.402,4.5876,9.4486,4.9184-3.4764,40.71-17.501,19.852-9.219,11.686-12.192,78.869-15.253,49.665,3.0551-6.238-19.702-37.879-2.701-45.513-2.8022-19.955,6.9472-50.797,41.67-39.377,2.6093,0.91277-15.577-4.6736-31.301-9.7918-21.863-9.495,4.5508-19.146,24.529-30.33,15.341-10.577-13.91-8.1404-37.209,0.60755-33.631-8.9395,20.107,11.895,42.865,30.202,51.343,19.724,6.2349,16.053,10.486-0.41815,8.6291-17.383,3.5856-21.593-14.856-29.69-24.358-21.092-4.4567-29.127-19.294-10.73-5.2611,6.6028,10.176,15.63,11.944,4.7706,14.658-17.53-4.0751-35.136-11.505-49.251-19.773,1.1654-20.12,38.369-23.361,40.566-3.9255-0.11531,16.888-52.217,9.4636-32.063,2.2565l1.4363-0.76906,0.00005,0.00062z" fill="#333333"/>
<path opacity="0.98000004" d="m361.58,885.92c-27.712,1.7034,1.0646,5.3826,18.122,3.9139,16.064,0.2453,35.886,1.2104,54.034,3.9863-0.73516,10.526-33.93,13.867-20.925,12.144-10.305,4.045-37.659,13.591-35.987,13.15-9.9437,4.0026-3.9746,1.5998-13.731,5.8901-21.351,7.2577-33.19,17.197-3.2441,12.935,21.68-0.41113,44.964-2.5704,65.737,0.9176-14.663,15.423-42.454,20.413-33.225,18.532-22.421,11.053-42.383,10.411-12.31,14.095,20.254,2.9712,43.657-0.13405,62.258,6.5542-5.9623,11.425-43.999,19.576-5.2553,15.179,20.72,0.90354,44.189-7.7013,63.23,0.2189-8.625,25.594-1.1296,2.8607,15.19-8.1711,16.451-17.456,18.04,7.5571,16.711,18.927,0.64165,10.01,0.39577,24.547,14.952,23.464,31.86,1.571,37.273-18.682,67.225-37.666,7.9399-6.7059,21.774-13.57,24.318,7.1678,4.473,19.475,27.831,26.043,45.998,20.454-5.8043,6.0411,15.328-24.292,15.086-37.945,5.403-16.675,14.871,3.7888,22.851,9.291,18.754,14.529,46.49,17.515,69.909,16.508,12.466-1.5772,10.849,0.6871,12.559-15.735-3.1571-17.643-22.62-24.026-35.006-32.802,18.041-8.7401,33.399-0.62141,38.137-16.5,0.50844-12.666-22.588-11.994-32.612-16.64-17.257-3.8739-40.392,3.1177-13.448-2.5971,19.917-5.6755,44.624-3.3112,31.057-21.36-22.31,2.2941,5.0974-10.735,10.831-0.6192,3.1256,23.159-35.804,20.658-51.374,26.349-22.404,0.28369,25.125-12.592,35.589-3.9962,8.1949,5.675,27.696,3.2655,28.255,15.816-8.4349,16.864-30.192,17.821-46.717,20.54,12.84-7.3159,29.576,8.5641,38.206,18.967,18.125,21.24-13.895,35.995-32.654,32.936-27.38-2.4429-60.312-7.147-73.765-33.709,15.367-8.1806-5.9158,33.432-10.786,39.54-20.981,15.51-57.205,7.1265-60.67-19.978-7.9845-14.507,1.9674-12.193-16.295-2.0134-21.804,20.123-53.179,45.432-83.073,35.241-11.246-12.309-1.2854-33.166-9.6422-46.002,12.272-7.7675-36.195,42.64-29.59,18.291,6.1712-12.495-16.359-4.9677-23.321-6.9085-18.935,0.0206-39.716,6.3571-57.952,2.1467,13.28-7.2495,38.889-19.2,7.6202-18.108-19.865-3.686-43.701,0.53377-61.347-7.7427,16.341-8.8682,15.647-7.567,24.599-9.678,22.999-10,15.88-5.9734,24.468-10.714,31.584-16.814-30.585-6.5679-42.622-8.9984-20.749,3.885-47.145-0.67558-13.183-11.702,25.558-11.546,23.438-10.693,47.264-18.997-8.4016,3.1125,11.357-4.5537,16.903-6.4588,5.1121-1.7303,22.254-8.6794,8.01-2.8276,13.276-8.2487-22.077-3.945-27.808-6.9276-13.815-1.7927-77.494,4.4432-33.162-11.627,16.107-3.6782,3.7489,1.168,0.58916,3.2696z" fill="#502d16"/>
</g>
</svg>
