<?xml version="1.0" encoding="UTF-8" standalone="no"?>
<!-- Created with Inkscape (http://www.inkscape.org/) -->
<svg id="svg2" xmlns:rdf="http://www.w3.org/1999/02/22-rdf-syntax-ns#" xmlns="http://www.w3.org/2000/svg" height="885.83" width="885.83" version="1.1" xmlns:cc="http://creativecommons.org/ns#" xmlns:dc="http://purl.org/dc/elements/1.1/">
 <metadata id="metadata7">
  <rdf:RDF>
   <cc:Work rdf:about="">
    <dc:format>image/svg+xml</dc:format>
    <dc:type rdf:resource="http://purl.org/dc/dcmitype/StillImage"/>
    <dc:title/>
   </cc:Work>
  </rdf:RDF>
 </metadata>
 <g id="layer1" transform="translate(0,-166.53401)">
  <path id="path3060-9" fill="#000" d="m49.168,818.17c-16.848-3.8718-13.7-3.8527-23.484,14.302-2.6032,19.82,15.477,29.592,32.061,30.565,77.375,11.917,155.22,24.634,233.2,31.455,5.4886-1.4318-0.5197,5.6485,14.371-10.579,8.6707-13.215,1.8047-35.483-15.856-35.455,22.745-14.052,36.512,27.229,18.761,40.274-28.815,19.722-62.982,1.5946-94.438,1.7305-54.823-6.5204-109.8-15.434-164.77-24.089-22.154,0.96631-38.614-22.249-26.486-41.773,3.2973-11.582,44.056-15.281,26.644-6.4301z"/>
  <path id="path3062-7" fill="#000" d="m44.396,812.5c-17.092,41.559,163.93,48.93,204.45,54.03,11.408,1.4357,67.013,6.7466,49.044-21.096-4.04-6.26-239.08-48.13-253.49-32.93z"/>
  <path id="path3875-7" opacity="0.98000004" fill="#A00" d="m28.386,800.57c-2.0571-8.5974-10.28-40.704,0.28466-22.468-0.14511,6.9474,11.64,21.912-0.28466,22.468z"/>
  <path id="path3889-0" opacity="0.98000004" fill="#A00" d="m69.368,801.94c-5.0337-25.28,7.4729-33.993,5.3297-3.2854,0.23726,2.933-3.5052,2.2343-5.3297,3.2854z"/>
  <path id="path3891-4" opacity="0.98000004" fill="#A00" d="m104.09,803.17z"/>
  <path id="path3893-5" opacity="0.98000004" fill="#A00" d="m140.04,809.86z"/>
  <path id="path3895-8" opacity="0.98000004" fill="#A00" d="m169.78,816.6z"/>
  <path id="path3897-2" opacity="0.98000004" fill="#A00" d="m218.73,820.6c11.955-11.518,37.411-26.391,11.5-6.4965-2.3539,5.1045-7.1731,5.3114-11.5,6.4965z"/>
  <path id="path3899-9" opacity="0.98000004" fill="#A00" d="m258.42,827.25z"/>
  <path id="path3901-2" opacity="0.98000004" fill="#A00" d="m304.9,844.56z"/>
  <path id="path4011-1" opacity="0.98000004" fill="#000" d="m570.52,462.63c34.764-17.19,44.343-59.238,49.462-94.497,3.4217-33.352-17.475-68.149-41.982-84.835-35.727-23.142-84.984-33.102-128.21-16.629,39.777-17.204-8.7517,4.639-16.665,18.351-17.853,23.199-32.802,54-21.997,85.501,2.0352,18.667,17.6,29.515,29.593,41.108-28.205,34.4-53.572,68.565-88.487,96.616-29.735,29.707-62.707,61.832-89.94,94.266-21.169,23.941-44.932,43.269-65.841,67.097-33.449,14.513-0.78888-11.861,8.6645-23.448,35.468-29.654,61.763-68.144,95.526-99.664,31.854-34.966,72.821-63.641,98.494-101.69,7.0283-12.624,35.001-29.486,10.523-37.192-25.792-27.013-25.289-70.887-4.9607-101.83,21.614-41.051,75.823-62.786,120.87-54.833,33.264,2.7832,69.857,17.087,89.463,42.783,15.188,19.704,28.961,50.322,20.941,79.285-5.1524,32.488-16.019,67.82-47.15,85.228-6.1014,1.46-12.204,2.92-18.305,4.38z"/>
  <path id="path4019-3" opacity="0.98000004" fill="#000" d="m461.33,429.06c17.112,13.558,44.733,17.472,48.991,41.266,10.772,28.873,9.0292,61.457,6.5254,93.421-5.2187,33.848-16.585,65.917-20.331,100.5-10.6,43.414-37.181,84.044-33.106,129.82-2.3726,26.816-7.3019,63.892,20.007,77.126,21.943,22.134,54.615,29.229,79.632,48.465,19.439,8.7599,36.823,22.885,32.323,45.716,2.4149,31.003-39.559,17.14-14.539-4.8848,12.274-10.911,55.114-23.184,20.968-11.01,41.062-16.442-26.134,9.9943,23.605-9.5197-35.098,13.463,8.5228-2.3392-9.2598,3.2512-5.2249,0.92755,39.576-15.311,3.8498-1.418,39.304-15.774-18.502,7.3562,29.394-12.167-45.343,18.825,20.41-8.9895-21.699,8.1977,13.792-5.5993,43.342-17.598,14.178-5.8028,38.572-17.381-24.385,11.862,11.664-7.0479,13.842-9.5021,38.361-16.539,11.53-6.6097,41.377-16.502-26.333,10.374,25.715-10.756-34.254,11.673,52.207-15.293,74.851-14.852,21.059-2.5264,42.098-5.4767,63.511-5.1556-18.185,18.949-26.124-2.71-36.668-16.161-24.541-36.274-39.162-78.377-51.725-119.38-6.5144-21.294-17.255-44.595-24.068-61.897-7.779-15.608-14.193-41.371-21.376-61.531-14.147-31.352-21.695-69.622-39.98-96.315-17.609-21.825-40.856-45.911-72.671-44.013,20.64-13.849,7.7401-1.6508,2.9391,14.972-6.1864,36.584-6.3117,77.078,12.185,111.61,15.138,32.616,31.264,65.813,52.752,94.669,9.5485,13.558,30.312,17.666,46.988,17.086-21.21,18.184-55.151,5.6776-66.944-12.756-20.538-28.697-36.526-62.827-52.014-94.899-9.9318-22.634-16.549-45.746-14.088-71.273,0.11552-27.63-0.0707-69.146,38.835-69.155,29.229,2.0327,50.848,23.849,68.87,45.415,21.347,32.723,28.414,72.561,44.857,108.19,10.461,44.317,33.816,82.325,45.147,126.47,10.694,27.681,16.726,52.263,30.988,76.101,10.302,21.077,22.456,40.557,38.576,55.918-27.824,10.826-59.605,5.5033-89.518,12.935-23.872,4.447-46.946,4.8421-69.596,15.286,37.996-15.975-12.391,3.7213,14.288-6.3622-44.012,18.225,20.632-8.2876-22.157,9.1397,46.811-20.266-52.171,29.313-5.7517,6.5703-41.845,17.051,22.476-9.9811-21.523,11.105-6.8619-1.7901,25.949-10.71-9.7205,2.2176,38.477-15.749-26.991,11.441,7.2042-2.7277-44.716,18.353,13.606-5.9622-25.113,10.543,45.785-18.553-31.151,12.62,12.972-5.3286-36.745,14.621,17.619-6.53-26.364,10.67,29.844-10.734,8.3428,4.6312,2.3115,1.4849-11.933,8.6125-1.4246,30.942-23.141,26.819,4.2056-18.135,4.2209-38.86-15.031-46.126-27.797-19.848-56.782-30.732-83.766-48.545-16.448-11.872-34.505-25.559-32.102-49.098-1.3767-43.054,0.35001-89.902,21.704-130.17,8.2344-21.109,15.226-52.669,18.259-74.328,11.364-44.654,20.962-86.737,14.136-133.23-1.594-23.869-13.262-47.49-38.661-53.891-18.598-7.7354-19.474-11.714,1.1527-18.548z"/>
  <path id="path4021-6" opacity="0.98000004" fill="#000" d="m461.8,326.06c11.558,15.241,16.487,13.415,3.0418,12.204-7.9086-16.188-4.0504-27.626,16.029-18.388,14.193,21.735-34.328,38.72-37.231,12.95,6.0534-2.2554,12.107-4.5105,18.16-6.7662z"/>
  <path id="path4023-7" opacity="0.98000004" fill="#000" d="m557.5,344.1c-10.971,9.287-7.1985,28.336,6.1911,29.094-27.023,15.772,6.2468-13.649-8.2407-20.297-19.817-4.9836,3.8235-18.46,15.929-10.096,24.642,24.294-39.094,60.259-37.755,20.348-0.5573-14.389,11.3-15.963,23.875-19.048z"/>
  <path id="path4035-3" opacity="0.98000004" fill="#333" d="m502.19,205.32c25.837,2.1989,28.593,11.495,13.418-7.4637-21.444-6.5098-12.81,1.235-7.6244,11.687,16.376-0.65987,26.793,13.906,43.593,12.825-10.791,17.266-28.763-4.6087-29.187-14.531,21.939-11.615,40.12,9.3119,48.923,26.354,46.869,2.8472,5.2277,18.644-13.658-1.5685-15.233-11.005-26.256-28.49-21.975-47.644,27.78-7.3139,17.22,57.499,23.219,24.588,22.056-13.445,9.9256-14.113,37.172-10.555,0.68853,14.189,6.6493,40.391-12.2,43.489,40.492-26.354,45.895-34.189,96.55-29.564-1.3373,14.437-52.925,21.571-56.011,8.0608-30.266,20.993-45.822,31.458-37.583-9.5676-5.8831-16.24-1.8908-16.016-15.866-6.1419-12.559,19.606-32.244,14.232-31.16-10.89,6.3518-36.046,1.6299,25.062,27.734,33.48,7.9048,8.632,38.28,13.251,18.245,15.322-15.558,1.8477-30.87-4.2326-33.776-20.679-17.994-8.9593-34.308-25.707-13.042-6.8726,16.449,13.125,0.25367,14.219-15.136,7.7785-18.776-8.2242-54.308-21.616-8.4354-32.729,27.525-0.53544,16.185,31.748-6.8253,22.63-7.6724-3.3771-27.517,1.0639-6.3745-8.0094z"/>
  <path id="path3094-4" opacity="0.98000004" fill="#502d16" d="m361.58,885.92c-27.712,1.7034,1.0646,5.3826,18.122,3.9139,17.664,1.8819,39.414-1.1429,54.85,5.7307-13.793,10.537-63.937,24.127-53.436,21.747-3.0215,2.5595-30.891,10.342-40.729,20.784,28.228,0.48445,57.853-3.3472,85.198,0.76141-22.685,19.284-44.688,26.338-40.32,21.719-47.581,10.146-3.3137,9.975,20.687,12.856,8.0218,1.5876,46.695-2.7098,32.009,10.007-43.669,16.067,8.6956,9.3365,24.49,7.8764,17.109-6.8821,51.323,3.1192,31.208,14.933,10.701-5.1707,28.833-38.768,37.62-20.475,2.9644,16.021-5.4198,44.938,20.46,41.938,29.935,0.8216,40.274-28.832,73.269-43.163,3.7652-10.327,14.043,7.2834,16.514,18.633,6.301,16.498,27.993,17.984,43.153,14.429-5.4437,5.8008,15.445-24.942,15.406-38.974,8.843-16.609,15.336,9.2946,25.055,12.701,23.447,12.621,52.855,18.357,79.053,11.532-5.7722,6.9416,8.9494-18.466-5.5705-25.941-3.6259-11.357-40.688-16.836-19.598-23.88,18.66-1.5125,29.595-1.437,28.188-18.356-19.103-8.1792-40.996-16.989-61.866-9.3443,17.153-5.0154,51.27-9.4394,51.399-17.319,1.198-13.77-23.406-9.2416,0.45864-12.675,24.703,12.43-31.784,41.863-27.544,26.748-42.799,12.744-10.356-9.8987,14.788-1.5894,8.8659,4.9887,39.299,5.3527,29.213,20.891-10.82,21.881-60.777,7.163-22.226,21.225,19.58,5.9458,34.36,41.447,3.6883,44.895-32.414,4.5378-76.156-0.038-93.541-31.407,20.293-14.678-19.777,59.613-10.786,39.54-23.111,17.419-60.199,4.5915-61.839-24.218-4.1075-14.211-5.2062-0.60134-21.625,7.2792-19.257,18.896-51.631,41.941-78.562,28.395-7.9055-13.718,0.39774-32.46-8.0372-44.189,13.363-7.264-38.648,44.228-28.939,17.14,2.3714-13.886-47.602-6.9092-39.763-4.179-13.656-0.61536-29.63,5.213-42.034,0.1166,30.171-10.444,27.343-20.434-3.3672-18.651-13.652-3.7976-42.571,2.2215-48.782-8.1093,36.822-14.996,28.731-7.0451,60.011-27.141-28.016-4.9294-61.68,3.5613-87.637-2.4197,24.464-13.98,45.708-21.699,59.991-26.785,14.215-8.2847,24.354-22.102,33.644-15.968-26.309-4.403-55.648-0.008-80.395-5.3008-1.2344-5.5257,42.158-16.592,18.124-5.7053z"/>
 </g>
</svg>
