<?xml version="1.0" encoding="UTF-8" standalone="no"?>
<!-- Created with Inkscape (http://www.inkscape.org/) -->
<svg xmlns:rdf="http://www.w3.org/1999/02/22-rdf-syntax-ns#" xmlns="http://www.w3.org/2000/svg" height="885.83" width="885.83" version="1.1" xmlns:cc="http://creativecommons.org/ns#" xmlns:dc="http://purl.org/dc/elements/1.1/">
<metadata>
<rdf:RDF>
<cc:Work rdf:about="">
<dc:format>image/svg+xml</dc:format>
<dc:type rdf:resource="http://purl.org/dc/dcmitype/StillImage"/>
<dc:title/>
</cc:Work>
</rdf:RDF>
</metadata>
<g transform="translate(0,-166.53404)">
<path fill="#000000" d="M179.94,675.59c-5.32,0.25-10.45,2.6-15.69,5.41,11.57,1.09,22.95,7.07,28.31,16.88,2.93,8.52,7.51,21.04,4.53,32.34-2.35,12.77-10.59,25.7-22.21,32.25-3.62,1.44-5.67,2.3-6.63,2.75-8.3,0.53-29.39-0.89-40.37-3.94-12.77-2.25-27.7-4.76-41.349-7.69-12.178-1.45-27.748-4.65-37.25-6.47-18.98-2.91-37.446-6.67-56.5-9.68-13.052-1.9-26.248-3.27-39.093-5.94-0.309,2.87-0.646,5.71-1.032,8.53,17.04,0.82,34.731,5.04,52.063,7.44,21.56,4.8,43.088,7.08,64.656,11.91,11.459,1.11,22.165,3.87,33.185,5.68,20.12,2.5,41.69,10.64,62.56,4.06,16.3-3.65,32.55-10.56,39.69-26.43,7.1-9.45,7.86-25.51,5.44-34.38-1.13-12.95-10.12-25.44-20.47-30.5-3.4-1.73-6.65-2.36-9.84-2.22zm-8.44,89.1c-0.21,0.11-0.56,0.2-1,0.28,0.51-0.14,0.42-0.12,1-0.28z" transform="translate(0,166.53404)"/>
<path fill="#000000" d="M-108.28,607.34c16.347,26.7,30.93,53.89,43.061,80.54,65.217,10.67,126.55,17.72,153.5,22.5,19.839,3.51,115.37,10.36,96.999-34.44-19.93,3.21-95.215,23.42-126.4,14.47-35.068-12.84-68.505-38.94-12.469-50.94-48.276-11.09-103.47-22.74-154.69-32.13z" transform="translate(0,166.53404)"/>
<path fill="#502d16" d="m377.54,846.17c-7.7668,5.9563-38.144,20.58-12.453,12.278,19.503-8.8845,22.414,9.4619,6.5368,17.95-7.2444,8.1351-15.95,17.316,1.9632,11.077,12.432-1.5945,36.627-15.305,43.893-7.9426-5.1653,15.263-23.234,20.772-32.596,33.065-11.394,8.4812-3.9664,7.2818,5.2545,3.2888-7.072,2.5718-24.837,9.4701-8.2932,2.1015,7.6129-3.8734,40.521-15.705,17.509-6.9961-4.2069,1.3193,22.296-8.6065,29.899-10.326,16.213,4.7331-10.428,17.527-13.567,24.704,6.6688,9.2683,32.692-1.8388,45.462-3.0726,11.785-4.5442,42.535-14.512,27.29,6.4899-2.3422,16.385,28.869,1.9297,38.445,0.53923,10.38-3.712,26.849-8.8304,7.8181-1.836-7.7122,1.6864,0.2581-0.10208,0.35806,7.046,6.3108-5.9672,31.541-24.873,19.382-5.7014,0.0631,13.091,31.767-4.0961,43.265-3.5897,15.387-2.0609,36.526-13.069,49.107-5.9683-7.2294,11.564-6.441,24.906,12.428,21.592,16.182,1.1186,36.879-3.3489,53.877-8.5729,5.77-1.9644-26.297,10.435-6.8425,2.2807,8.9394-5.9261,43.672-22.023,28.227-3.2276,0.31997,15.164,28.119,4.4528,38.529,3.1264,9.6598-0.88371,22.385-8.0117,5.2406-0.54568-9.6333,3.2811,33.915-13.1,9.3951-3.8062-16.817,9.8642,11.898-10.875,20.271-9.5356,5.6007,6.7055-12.001,20.063,5.9426,13.603,22.326-8.0392-27.224,10.824-2.1106,0.0159,13.067-8.5774,40.701-30.369,50.214-21.327-5.2022,11.165-7.5352,26.404,10.949,17.188-5.5127,1.8532-18.85,7.717-3.7268,0.16809,13.387-7.9658,24.093-18.959,33.292-29.417,5.3619-8.84-1.8515-20.524-4.5673-27.537-10.976,1.1088,17.534-12.802,9.8711-0.0109-8.2259,10.204,16.614,6.8763-0.17687,10.431-18.31,11.883,7.8526-14.625-9.694-19.589-23.329,2.7147,21.515-9.6206,3.8754-3.8226-4.1791,3.536-30.98,10.079-15.581,2.8579,11.104-4.997,28.124-14.645,34.628,0.13602,1.9062,11.215-0.59728,21.593-14.411,23.867-20.619,14.228-23.669-22.248-2.7837-21.298,15.525-6.2813,16.658,13.911,17.589,24.077-4.3926,14.66-18.981,25.594-31.742,33.938-12.29,7.8749-30.372,18.459-46.187,15.966-7.2821-4.1907,1.7058-23.392,4.7061-24.055,7.4298-2.3766,16.348-7.6173,4.7399-0.59782-18.227,9.7167-34.021,23.955-54.937,28.07-17.935,5.1726-6.6409-19.279,2.3729-16.107,26.186-10.112-39.202,18.546-8.9825,4.5895,4.531-1.436-21.931,8.7725-29.399,10.995-13.921,1.9572-30.963,8.9676-43.345,1.3396-8.4204-13.853,15.606-20.603,18.167-20.249-31.302,17.959-69.527,29.293-105.36,24.492-13.523-2.6275-2.1104-18.616-2.8428-23.466-28.687,2.6092-56.158,12.996-84.588,17.274-16.95,1.9589-0.60177-18.683-2.3515-14.681,24.835-9.782-12.884,5.8584-21.774,7.8865-13.589,3.7283-42.809,16.276-49.654,4.2679,0.37148-7.0143,13.131-21.99-3.744-14.597-21.72,5.9549-44.887,14.632-67.341,11.306-7.5662-9.8756,23.029-21.046,16.201-27.166-11.474,3.8981-19.976,5.9987-3.487,0.007,10.001-4.0054-33.289,12.879-8.0898,3.0677,12.56-5.1296-21.47,9.5001-27.536,11.746-13.487,8.8292-21.002-0.23363-6.594-9.4216,8.2573-9.6226,27.546-18.865,29.827-29.263-17.608,1.0831-39.284,16.507-54.718,9.5672,0.77152-10.374,21.513-19.014,19.989-29.8-8.3425,1.3155-41.936,9.0269-22.035-4.1084,10.372-6.0958,19.978-12.638,32.184-14.074,0.93535-0.23339,1.8866-0.44493,2.8154-0.68746z"/>
<path opacity="0.98000004" fill="#000000" d="m422.21,372.17c6.6116-19.85,3.1637-40.39-3.2126-58.398-3.4669-13.148-7.4711-26.087-15.533-39.06-6.7309-12.708-15.287-22.147-29.293-28.085-18.079-10.703-41.239-12.311-63.237-11.891-10.22-0.30377-40.372,9.2251-20.407,2.3984-22.377,8.6246-44.005,26.308-47.138,50.579-1.2464,6.3824-5.8519,15.568-5.4264,24.597-3.8541,16.656-4.7967,38.163,4.8804,52.787,4.0092,12.278,13.055,21.478,18.32,32.623-0.58887,12.863-9.7212,25.776-12.762,35.465-11.467,24.673-19.809,51.688-34.643,75.365-8.6481,17.151-16.681,34.954-27.894,51.176-13.62,25.963-27.888,51.487-42.784,76.22-17.331,25.156-29.221,52.756-44.165,78.369-2.337,9.5536-21.501,34.556-20.591,22.1,17.962-24.411,36.157-48.863,47.431-77.562,9.729-19.558,18.843-34.608,31.36-52.684,11.964-21.337,23.903-40.74,35.275-62.367,6.6831-16.132,14.363-33.744,19.34-48.278,13.151-22.214,28.115-42.851,38.443-66.834,8.9144-17.677,24.228-14.765,11.482,2.6805-4.3311,18.767-10.267,36.033-17.895,53.718-1.6164,8.7091-8.0202,19.165-9.7036,28.28-3.7611,7.8731-9.2958,23.039-14.524,35.441-3.2203,10.781-7.6364,20.726-10.095,28.939-11.124,25.565-23.701,51.889-33.716,78.862-5.5242,11.01-9.3111,22.528-14.098,32.061-7.6842,22.387-18.173,44.479-28.08,65.428-19.703,9.0502-4.7492-10.115-0.27584-18.68,13.508-24.516,21.083-49.769,34.251-75.274,13.9-26.221,19.458-55.085,34.341-80.666,2.7326-7.5347,10.123-20.641,15.192-29.497,5.3912-11.305,7.896-17.695,12.9-28.31,7.9666-19.843,11.192-41.152,24.21-57.891,16.879-19.164,47.156-11.097,57.338,10.2,9.4317,13.637,12.955,32.769,13.247,49.711,1.1899,22.988-9.7903,46.163-15.502,68.576-8.0602,23.743-21.209,49.46-20.636,76.864-3.6718,14.623,0.57962,30.894,0.0732,44.084,2.535,18.51,10.89,33.003,19.364,47.879,6.881,6.559,12.57,14.333,21.513,18.91,8.956,9.637,32.739,16.058,47.761,16.773,28.666,3.3216,58.159,3.5275,86.565-2.4022,19.12-1.385,38.526,4.2076,51.129,18.53,15.911,12.582,24.89,29.146,34.06,46.061,2.8876,16.222-1.1613,35.382-19.793,41.693-17.644-0.58928,0.2532-22.625,9.4606-24.411,28.714-21.929,56.309-44.427,84.445-66.781,15.523-8.826,56.601-32.664,55.343-29.889-14.959,5.9044,22.735-8.7644-0.44191,0.1,8.0593-4.3436,20.259-6.6156,4.4777-1.7454,26.135-10.542-11.618,4.6606,14.024-5.6487,22.829-9.2159,50.878-4.7467,72.43-2.8596-1.2284,6.3403-24.419,2.7491-32.216-11.213-11.557-12.433-22.932-24.087-30.48-37.95-7.9182-14.893-15.815-29.591-23.319-42.569-7.3368-15.195-16.643-28.779-23.746-43-4.3546-8.285-10.62-20.74-15.218-27.395-5.2064-13.204-11.669-25.768-14.692-40.705-1.4158-9.6511-6.6294-19.35-9.3819-30.27-3.3821-7.2554-9.1532-19.709-12.743-28.841-8.5212-10.509-12.27-23.937-22.02-34.144-5.7497-9.2576-15.849-17.194-23.643-22.514-9.0311-6.073-15.237-14.377-26.145-16.783-15.903-5.3334-35.98-5.6524-53.731-3.7101-5.3713,1.4991,16.464-6.7106-3.6096,1.3438-13.748,5.1403,18.012-7.1137-9.342,3.664,24.186-12.02-24.036,15.173-25.898,30.921-7.222,17.248-14.665,38.007-17.666,54.052-3.3428,26.094-4.6757,52.72-0.0416,77.91,6.905,18.009,11.414,37.983,21.388,55.147,6.2585,7.2781,16.883,20.151,28.136,25.286,29.281,20.384,69.909,14.046,104.37,15.393,9.8733-1.5727,55.755,5.6294,29.712,13.924-29.197-14.729-66.783-4.5546-99.692-9.5482-34.886-2.1122-67.851-22.285-80.62-54.016-6.2035-17.186-13.096-34.566-16.492-52.385-1.3139-15.341-1.3736-32.714-0.20282-45.495-0.39731-14.438,3.7591-34.128,9.7821-50.105,6.9594-29.571,26.423-58.3,57.641-67.296-27.706,11.026,19.43-7.6578-6.5408,2.7236,8.7972-3.9466,19.438-7.655,4.203-1.8153,21.988-11.327,47.758-6.4184,70.401-1.9726,13.037,5.3752,21.131,16.547,33.182,22.914,12.04,10.251,21.866,23.667,30.055,39.105,8.0483,11.66,12.46,24.829,18.721,36.404,3.0203,11.608,8.967,22.702,12.088,36.099,3.7684,19.589,12.446,37.581,21.922,53.848,8.1874,14.453,15.061,29.237,24.197,43.927,5.3297,9.2874,11.535,20.167,15.554,28.921,9.3465,13.422,14.459,31.44,27.182,43.748,6.2735,8.476,15.78,18.424,23.294,25.385,22.014,9.7622,6.464,21.813-13.691,14.736-9.9333-4.5585-62.868,6.5798-38.71-0.58079-10.66,4.3285-19.753,7.9209-3.7153,1.3217-11.203,4.9786-14.994,5.9823-4.0753,1.7685-11.61,4.9382-15.652,5.9388-4.3109,1.7039-14.244,5.6682-10.851,4.3838-3.1911,1.363-12.902,5.2719-15.189,6.1137-1.7284,0.57075-29.107,15.75-59.115,30.297-82.788,54.565-22.197,16.646-43.257,33.621-65.018,50.444-6.1302,10.431,5.3111,12.604-9.0076,14.137,15.799-12.469,13.922-37.729,1.0297-51.105-6.9917-14.237-19.166-26.331-31.95-35.82-6.5872-7.2184-24.054-11.679-36.776-11.488-20.421,1.5086-38.805,7.3099-59.546,4.5833-22.527-0.28091-46.124-1.8773-66.924-10.045-21.432-10.303-38.782-28.992-47.937-50.994-9.9403-18.806-8.503-42.906-9.2345-64.448,3.5549-13.951-0.2004-23.629,5.634-37.211,4.7167-18.502,14.333-36.535,18.921-55.748,5.162-14.106,8.2432-27.542,11.143-39.388,2.677-8.5316,2.978-18.726,0.65686-27.544,0.32642-11.123-3.4424-26.376-10.263-37.446-7.7462-13.318-21.866-27.506-39.526-22.034,19.403-11.852-11.274,15.536-10.77,27.843-8.2167,28.071-18.749,51.649-33.15,77.495-10.663,20.129-20.174,42.267-27.431,65.235-14.114,31.208-28.161,61.467-41.782,93.425-5.8192,10.104-11.109,20.232-16.923,30.431-22.063,11.832,3.2032-17.124,3.8278-26.394,8.8676-22.672,18.128-45.988,28.108-68.505,7.5938-20.727,17.55-42.883,26.649-61.7,8.6544-20.096,15.858-42.014,22.748-60.365,4.2419-8.4113,7.2239-16.569,11.155-27.308,6.7334-18.751,13.197-37.073,21.317-55.423,1.7845-12.432,6.7658-36.896,14.506-36.495,16.167-8.295-5.0988,12.897-5.8738,21.489-11.296,24.144-31.437,45.814-38.136,70.57-4.0258,9.3856-7.0718,17.539-11.724,27.895-15.343,27.841-29.146,55.419-47.546,81.9-7.7862,12.555-10.467,16.591-16.484,28.933-8.0374,16.428-15.95,34.913-27.585,51.344-9.2182,12.671-17.642,27.391-29.054,39.421-20.322,6.8652,9.9168-28.418,12.797-38.688,8.262-16.763,16.608-32.769,25.492-48.144,13.056-18.471,24.823-40.633,35.825-60.429,10.829-18.123,19.183-35.353,30.834-53.849,11.476-25.065,25.928-49.11,37.325-75.02,1.1732-8.7793,6.6983-18.512,10.182-27.652,2.1902-6.8734,12.182-22.692,12.785-32.488-3.5779-10.72-15.113-22.205-18.22-34.79-10.711-17.732-7.6437-36.809-4.7074-57.386,5.9733-20.587,7.4421-42.708,27.417-56.727,27.199-20.671,63.094-30.016,95.846-23.807,10.225,0.0405,26.257,5.092,36.39,11.296,18.588,7.6384,28.048,25.584,35.607,41.652,3.1265,7.559,6.6384,18.694,8.6801,25.659,5.2836,17.381,9.5046,33.39,4.8079,53.165,1.3671,8.6623-8.2555,7.118-13.109,9.8336z"/>
<path opacity="0.98000004" fill="#000000" d="m364.73,301.86c1.896,0.93917,1.1276,2.9831,1.739,4.5469,0.95436,1.4095,0.74912,3.2624,1.8476,4.6024,0.43085,1.4286-0.25105,3.0019,1.2085,4.038-0.68729,0.52726,0.13285,2.6537,0.66198,3.2819,0.58149-1.0297,0.63531,1.6469,0.83119,2.0763,0.24439,1.121-0.46347,0.42494,0.16329,1.4554,1.2936,1.5129,1.3528,3.5233,1.5576,5.431,0.12804,0.78741,1.1033,2.331,1.0091,1.3553,0.38826,1.5876,0.0732,3.311,0.62064,4.8399,1.0289,1.6688,0.69788,3.9503,1.8248,5.7271,0.1758,0.88074,1.29,2.7084-0.003,3.0298-1.6402,0.64324-3.2804,1.2865-4.9206,1.9297-0.21354-1.4936-1.3835-2.7532-1.6601-4.0381,0.62797-1.8044-0.24631-3.431-0.99206-5.0119-0.123-1.5833-0.44961-3.1382-0.77073-4.6816-0.8564-1.3666-1.0954-2.9519-1.2722-4.5213-0.65975-1.1733-0.9141-2.401-0.91294-3.7643-0.32661-1.4697-1.2672-2.7416-1.5466-4.2508-0.39454-1.8359-1.1214-3.541-1.9217-5.2322-1.1649-2.8536-0.85193-6.1292-2.3248-8.8847,1.6204-0.64296,3.2408-1.286,4.8612-1.9289z"/>
<path opacity="0.98000004" fill="#000000" d="m255.89,319.75c1.7326,2.4963,3.9069,4.9301,6.8732,5.9164,0.30997,0.49101,1.1277,0.037,1.2822-0.0781-1.5215,0.53665-2.9874,1.2582-4.5568,1.6416,0.24541-0.62924,0.88736-1.1049,0.95426-1.8158,0.10893-0.76-0.0962-1.5541-0.0691-2.3313-0.10011-0.68692,0.21214-1.7512-0.72621-1.9473-0.65613-0.28794-0.91158-1.3028-1.6224-1.3574-0.7203,0.0579-1.4822-0.0442-2.1433-0.33883-0.52863-0.49451-1.3624-0.24722-1.9998-0.1054-0.68143,0.19304-1.3645,0.39998-2.0144,0.68074,2.2501-0.75228,4.4572-1.6287,6.678-2.4627-0.95395,0.39251-1.6865,1.1503-2.5057,1.7422-1.8485,0.54278-3.697,1.0856-5.5454,1.6284,0.72754-0.83242,1.4419-1.7825,2.5471-2.1231,1.9697-0.75583,3.8232-1.8541,5.8996-2.3061,1.8844-0.42434,3.7664,0.36004,5.3029,1.3998,0.65673,0.3818,1.4238,0.66463,1.9167,1.263-0.0122,0.70703-0.12701,1.4421,0.23912,2.1149,0.27873,0.63244,0.17195,1.3665-0.19992,1.9382-0.15753,1.8062-1.0021,3.669-2.6471,4.574-1.8644,1.0496-4.1212,0.96825-6.1627,0.6019-1.7707-1.0419-3.6563-1.8768-5.4229-2.9255-0.60531-0.59697-0.25035-1.5324-0.37279-2.2812,0.14609-0.64322-0.91652-1.0669-0.93796-1.2068,1.7445-0.74051,3.4891-1.4811,5.2335-2.2216z"/>
<path opacity="0.98000004" fill="#000000" d="m317.3,307.82c-2.3618,3.0635-4.3249,6.4318-5.8437,9.9888-0.14763,1.4833-0.21392,3.2106,0.7842,4.428,0.96626,0.8526,2.5551,0.1041,3.2992,1.3828,1.121,0.12697,2.2681-0.0464,3.2889,0.60383,1.0457,0.32206,2.1542,0.32126,3.1942,0.66447,1.8118,0.34349,3.6615,0.0245,5.4415-0.34971-2.2251,0.84595-4.4533,1.6842-6.6696,2.5533,1.1558-0.47362,2.3887-0.83505,3.4449-1.5077,0.37547-1.1935,2.308-1.9359,1.5792-3.3028,1.0694-0.95191,0.55644-2.3838,0.48104-3.5908,0.29389-0.64922,0.10248-1.9599-0.49206-2.1176-0.30727,1.3093,0.26784-0.965-0.37523-1.1635-0.68834-1.0518-1.3628-2.2312-2.6849-2.551-1.2465-0.26824-2.2285-1.5193-3.5405-1.2958-0.889,0.13265-1.0197,0.021-0.21065-0.31996,1.7726-0.92442,3.5453-1.8488,5.3179-2.7733,1.1991,0.4372,2.0207,1.5087,3.2944,1.8113,1.0828,0.42242,2.3808,1.0322,2.6239,2.2855,0.55024,0.69645,1.8973,0.56865,1.2534,1.7468-0.10325,0.6613-0.24691,0.91321,0.0301,0.11949,0.73831,0.28347,0.14736,1.873,0.0938,2.6218,0.83481,0.8245,0.14218,1.8288-0.14007,2.7227,0.0866,1.2294-0.47767,2.4314-1.0824,3.4924-1.314,2.1367-3.9321,2.6978-6.1191,3.5136-1.422,0.54728-2.868,1.054-4.3795,1.2878-1.2414-0.49959-2.7173,0.27064-3.879-0.58108-0.94179-0.33055-2.0697-0.11238-3.0692-0.38428-1.1316-0.21376-2.3051-0.49572-3.2018-1.2468-1.3322,0.0795-2.201-0.60136-2.9888-1.6269-0.89409-0.74783-1.3315-1.9249-1.1031-3.0747,0.39924-1.0666-0.0381-2.027-0.0286-3.0701,0.43352-1.7117,2.037-2.7508,2.7447-4.3277,0.90369-1.6167,1.7727-3.5118,3.5402-4.3301,1.7988-0.53622,3.5979-1.0726,5.3965-1.6087z"/>
<path opacity="0.98000004" fill="#d45500" d="m187.44,187.37c2.4447,0.94599,7.2517,1.7939,8.4154,2.1444-0.84482,0.4594,5.1135,1.1673,6.8072,1.3798,7.3472,0.41419,14.823,1.0316,22.096-0.55461,5.4845-0.62963,10.629-2.5717,15.838-4.2241,4.2121-0.94209,12.096-3.4054,14.029-4.2549-1.6029,0.53445-7.7448,3.3365-3.3864,1.0333,2.9091-1.5194,5.4668-6.1203,2.6994-8.5122-1.9678-2.5578-5.9843-1.3158-8.9872-2.0665-3.9111,0.18605-7.7646,1.192-11.681,1.6108-3.0905,0.2548-8.4136,1.6073-9.6331,2.2332,1.5476-0.69477,6.8273-2.9089,2.6535-0.89442-4.2731,2.047-8.467,4.2003-12.58,6.4869-4.4978,3.0387-9.3741,5.6281-13.389,9.318-2.05,2.131-6.1835,8.1454-5.1364,9.1791-1.5598,2.5212-2.3091,7.6397-2.8077,11.321-0.4491,3.0682,1.6388,6.0022,4.6914,6.3544,4.0364,1.1069,8.657,3.1022,13.248,3.0226,4.7672,1.3778,9.9323,0.31709,14.827,1.0224,4.1585-0.41915,8.2774-1.1477,12.304-2.1479,1.7427-0.2324,5.7505-1.9904,1.9526-0.41711-1.8653,0.67999-4.4553,1.8212-1.3285,0.092,1.9414-0.95271,3.616-2.2979,4.6493-3.9757,3.7656-3.4886-1.6085-6.067-4.8674-5.0439-1.7189,0.14707-5.5083,1.8827-1.6027,0.334,2.0196-0.70238,6.4191-2.727,2.2785-0.55082-4.5826,2.8816-9.086,6.1238-12.193,10.618-2.0615,2.4405-6.1173,7.6792-1.2211,9.2874,3.6303,0.93172,7.5036,1.3922,11.127,2.0415,1.8157,0.57843,8.6826-1.008,4.1858,0.48241-1.652,0.56053-7.6492,3.4209-2.8971,1.0656,0.98186-2.2549-7.4964-0.82292-7.2905-0.8595,1.6034-0.53069,4.952-2.341,1.9022-0.26251-2.0685,2.1214-4.6143,4.9684-3.7773,8.089,0.52775,2.9717,3.6661,2.2748,5.9091,4.4209,3.7463,0.00005,7.283,2.7253,10.536,1.3886,1.3547-0.70151-6.382,2.5222-5.306,1.9652-2.9285,0.004-5.8802-0.84642-8.5948,0.14805,1.8744-0.44687,7.426-3.4912,3.4698-0.82903-2.3225,2.0439-1.4879,6.8483,0.75593,8.5904,1.526,1.5413,7.8424,2.1475,3.2694,3.6346-1.3654,0.49026-2.8214,2.0294-4.0488,1.3566-3.4317-0.69643-6.5511-3.3793-7.3141-6.6259-1.1081-4.7229,3.4256-7.4397,7.3171-8.5651,3.5432-1.6074,7.7306-1.4206,11.322-0.082-1.05,3.5551-6.7257,3.7159-10.034,3.4737-4.1304-0.6307-5.2652-1.2734-8.9127-2.8245-3.1838-0.51604-5.5211-3.9014-4.2899-6.9268,1.6874-3.5233,3.9708-7.1657,8.0226-8.2892,3.9877-1.4633,8.3003-3.3451,12.457-1.3951,3.8106,2.1076-3.8462,3.9664-5.7494,4.75-3.559,0.56421-7.8811,0.22226-11.001-0.51761-2.6503-0.15867-5.494-0.46515-7.6845-2.2631-3.6597-2.108-1.155-5.5151,0.56506-8.2186,2.778-3.5664,5.5052-6.6309,9.3345-9.3728,3.0402-2.4961,6.7034-4.503,10.537-5.9102,3.3665-1.3512,7.7132-1.8462,10.485,0.0944,2.0226,2.84-1.5606,6.4083-3.8184,8.4531-3.9349,2.8128-8.7652,4.5453-13.444,5.8134-4.492,0.97477-8.9328,2.131-13.505,1.7679-4.1142,0.31056-7.3697-0.176-10.983-0.32376-4.0054-0.29128-7.5541-1.1973-11.356-2.1677-2.7014-0.7638-8.83-1.5922-9.5747-5.7486-0.028-4.5418,0.12914-9.6997,2.3006-13.854,0.1216-3.9238,2.9061-7.4916,5.6154-10.276,2.2359-2.2059,5.8133-4.6628,9.7197-6.9736,4.5688-2.9322,9.2104-5.726,14.245-7.7874,5.5466-3.2568,11.605-5.7323,18.025-6.4669,3.1587-0.74025,6.1883-0.69766,9.4452-1.5649,3.5699-0.43133,7.0669-0.32653,10.457,0.31319,3.4963,0.70245,5.7478,4.7698,4.0551,7.8193-1.8761,4.7077-7.5442,5.4138-11.599,7.4271-6.6649,2.6332-13.838,3.6501-20.481,6.3695-7.7006,1.9862-15.664,3.3473-23.642,2.6645-3.8537-0.175-7.6759-0.0733-11.491-0.75248-3.5003-1.3762-7.1162-1.507-10.595-2.8935-2.0602-0.5755,1.9058-1.4788,2.7435-2.2142,0.63715-0.31916,1.275-0.63939,1.9117-0.95788z"/>
</g>
</svg>
