<?xml version="1.0" encoding="UTF-8" standalone="no"?>
<!-- Created with Inkscape (http://www.inkscape.org/) -->
<svg xmlns:rdf="http://www.w3.org/1999/02/22-rdf-syntax-ns#" xmlns="http://www.w3.org/2000/svg" height="885.83" width="885.83" version="1.1" xmlns:cc="http://creativecommons.org/ns#" xmlns:dc="http://purl.org/dc/elements/1.1/">
<metadata>
<rdf:RDF>
<cc:Work rdf:about="">
<dc:format>image/svg+xml</dc:format>
<dc:type rdf:resource="http://purl.org/dc/dcmitype/StillImage"/>
<dc:title/>
</cc:Work>
</rdf:RDF>
</metadata>
<path d="m179.94,675.59c-5.32,0.25-10.45,2.6-15.69,5.41,11.57,1.09,22.95,7.07,28.31,16.88,2.93,8.52,7.51,21.04,4.53,32.34-2.35,12.77-10.59,25.7-22.21,32.25-3.62,1.44-5.67,2.3-6.63,2.75-8.3,0.53-29.39-0.89-40.37-3.94-12.77-2.25-27.7-4.76-41.349-7.69-12.178-1.45-27.748-4.65-37.25-6.47-18.98-2.91-37.446-6.67-56.5-9.68-13.052-1.9-26.248-3.27-39.093-5.94-0.309,2.87-0.646,5.71-1.032,8.53,17.04,0.82,34.731,5.04,52.063,7.44,21.56,4.8,43.088,7.08,64.656,11.91,11.459,1.11,22.165,3.87,33.185,5.68,20.12,2.5,41.69,10.64,62.56,4.06,16.3-3.65,32.55-10.56,39.69-26.43,7.1-9.45,7.86-25.51,5.44-34.38-1.13-12.95-10.12-25.44-20.47-30.5-3.4-1.73-6.65-2.36-9.84-2.22zm-8.44,89.1c-0.21,0.11-0.56,0.2-1,0.28,0.51-0.14,0.42-0.12,1-0.28z" fill="#000000"/>
<path d="m-108.28,607.34c16.347,26.7,30.93,53.89,43.061,80.54,65.217,10.67,126.55,17.72,153.5,22.5,19.839,3.51,115.37,10.36,96.999-34.44-19.93,3.21-95.215,23.42-126.4,14.47-35.068-12.84-68.505-38.94-12.469-50.94-48.276-11.09-103.47-22.74-154.69-32.13z" fill="#000000"/>
<path d="m377.54,679.64c-7.7668,5.9563-38.144,20.58-12.453,12.278,19.503-8.8845,22.414,9.4619,6.5368,17.95-7.2444,8.1351-15.95,17.316,1.9632,11.077,12.432-1.5945,36.627-15.305,43.893-7.9426-5.1653,15.263-23.234,20.772-32.596,33.065-11.394,8.4812-3.9664,7.2818,5.2545,3.2888-7.072,2.5718-24.837,9.4701-8.2932,2.1015,7.6129-3.8734,40.521-15.705,17.509-6.9961-4.2069,1.3193,22.296-8.6065,29.899-10.326,16.213,4.7331-10.428,17.527-13.567,24.704,6.6688,9.2683,32.692-1.8388,45.462-3.0726,11.785-4.5442,42.535-14.512,27.29,6.4899-2.3422,16.385,28.869,1.9297,38.445,0.53923,10.38-3.712,26.849-8.8304,7.8181-1.836-7.7122,1.6864,0.2581-0.10208,0.35806,7.046,6.3108-5.9672,31.541-24.873,19.382-5.7014,0.0631,13.091,31.767-4.0961,43.265-3.5897,15.387-2.0609,36.526-13.069,49.107-5.9683-7.2294,11.564-6.441,24.906,12.428,21.592,16.182,1.1186,36.879-3.3489,53.877-8.5729,5.77-1.9644-26.297,10.435-6.8425,2.2807,8.9394-5.9261,43.672-22.023,28.227-3.2276,0.31997,15.164,28.119,4.4528,38.529,3.1264,9.6598-0.88371,22.385-8.0117,5.2406-0.54568-9.6333,3.2811,33.915-13.1,9.3951-3.8062-16.817,9.8642,11.898-10.875,20.271-9.5356,5.6007,6.7055-12.001,20.063,5.9426,13.603,22.326-8.0392-27.224,10.824-2.1106,0.0159,13.067-8.5774,40.701-30.369,50.214-21.327-5.2022,11.165-7.5352,26.404,10.949,17.188-5.5127,1.8532-18.85,7.717-3.7268,0.16809,13.387-7.9658,24.093-18.959,33.292-29.417,5.3619-8.84-1.8515-20.524-4.5673-27.537-10.976,1.1088,17.534-12.802,9.8711-0.0109-8.2259,10.204,16.614,6.8763-0.17687,10.431-18.31,11.883,7.8526-14.625-9.694-19.589-23.329,2.7147,21.515-9.6206,3.8754-3.8226-4.1791,3.536-30.98,10.079-15.581,2.8579,11.104-4.997,28.124-14.645,34.628,0.13602,1.9062,11.215-0.59728,21.593-14.411,23.867-20.619,14.228-23.669-22.248-2.7837-21.298,15.525-6.2813,16.658,13.911,17.589,24.077-4.3926,14.66-18.981,25.594-31.742,33.938-12.29,7.8749-30.372,18.459-46.187,15.966-7.2821-4.1907,1.7058-23.392,4.7061-24.055,7.4298-2.3766,16.348-7.6173,4.7399-0.59782-18.227,9.7167-34.021,23.955-54.937,28.07-17.935,5.1726-6.6409-19.279,2.3729-16.107,26.186-10.112-39.202,18.546-8.9825,4.5895,4.531-1.436-21.931,8.7725-29.399,10.995-13.921,1.9572-30.963,8.9676-43.345,1.3396-8.4204-13.853,15.606-20.603,18.167-20.249-31.302,17.959-69.527,29.293-105.36,24.492-13.523-2.6275-2.1104-18.616-2.8428-23.466-28.687,2.6092-56.158,12.996-84.588,17.274-16.95,1.9589-0.60177-18.683-2.3515-14.681,24.835-9.782-12.884,5.8584-21.774,7.8865-13.589,3.7283-42.809,16.276-49.654,4.2679,0.37148-7.0143,13.131-21.99-3.744-14.597-21.72,5.9549-44.887,14.632-67.341,11.306-7.5662-9.8756,23.029-21.046,16.201-27.166-11.474,3.8981-19.976,5.9987-3.487,0.007,10.001-4.0054-33.289,12.879-8.0898,3.0677,12.56-5.1296-21.47,9.5001-27.536,11.746-13.487,8.8292-21.002-0.23363-6.594-9.4216,8.2573-9.6226,27.546-18.865,29.827-29.263-17.608,1.0831-39.284,16.507-54.718,9.5672,0.77152-10.374,21.513-19.014,19.989-29.8-8.3425,1.3155-41.936,9.0269-22.035-4.1084,10.372-6.0958,19.978-12.638,32.184-14.074,0.93535-0.23339,1.8866-0.44493,2.8154-0.68746z" fill="#502d16"/>
<path opacity="0.98000004" fill="#000000" d="m522.58,226.89c26.031-24.352,26.142-64.624,13.447-95.685-7.1974-29.133-52.534-52.025-65.417-49.034,28.873,0.76577-30.333-3.3333-35.469,11.145-29.417,14.987-16.295,66.175-46.051,72.037-24.966-1.9488-47.607-13.689-71.425-20.116-46.017-16.351-94.032-26.307-142.28-33.844-14.014-4.5767-51.648-10.381-52.679-9.7055,10.253-4.9026,47.74,4.1453,40.501,2.3688-16.791-3.7267,36.033,5.9045,50.898,10.063,33.956,6.0096,67.435,14.214,99.566,26.791,29.128,5.0753,56.832,14.648,85.273,22.074,4.1604,12.829-58.845,3.6784-21.847,6.5557-20.295,7.4822-36.806,2.5567-19.341,4.869-33.534,9.301-67.927,14.362-101.47,23.333-35.032,5.63-68.272,18.554-103.16,24.364-24.677-3.8663,24.146-4.9576,29.732-11.379,35.346-8.3731,72.213-10.335,106.69-22.815,32.724-2.9599,68.845-20.095,100.26-7.2004,19.492,26.456,22.947,68.819,10.371,98.417-16.632,24.877-35.731,47.721-46.762,75.4-16.721,30.182-21.118,65.431-31.209,98.148-4.0965,37.714-7.83,76.544-0.53206,114.08,8.2193,29.271,18.599,64.56,48.137,78.758,16.842,2.2399,15.924,1.072,2.3319,1.376,22.327-1.6161,44.827,2.4455,24.201,1.0485,15.748-0.69243,52.895,2.1343,21.717,0.89419,14.403-2.2708,41.503-0.15331,12.417-0.12001,30.964-7.5886,67.905-0.22383,81.089,32.364,17.814,31.156-70.19,43.171-32.998,8.7166,26.923-19.258,60.183-26.178,89.194-41.624,28.208-15.454,69.698-18.798,95.278-17.067-30.298-0.48464,29.606,0.17872,36.491,5.8391,11.584-0.39498,45.785,17.839,16.644,12.352-11.19-20.615-22.562-44.399-27.926-68.646-9.816-41.222-24.335-81.344-38.62-121.19-14.289-30.579-21.099-64.461-37.544-93.88-18.566-24.534-27.292-55.987-52.834-75.267-10.716-13.549-38.628-35.848-44.765-29.282,31.446-1.4469-23.011,0.59102-25.221,17.016-27.249,31.579-48.533,70.125-48.382,112.92-6.113,31.419-6.2555,64.752,8.2228,93.947,6.215,32.802,37.318,53.26,67.997,59.507,29.638,6.8751,63.451,8.8248,86.353,31.634-21.45,7.2915-32.792-19.07-54.06-19.25-33.928-8.4938-72.071-10.651-98.047-37.192-19.33-28.444-31.359-64.038-29.41-98.793,4.6741-40.657,6.0717-84.418,32.789-117.97,15.381-27.675,41.611-52.17,75.8-44.167,30,5.7658,48.929,37.664,69.449,58.889,13.393,31.458,37.944,56.594,45.266,90.653,17.166,43.312,33.225,86.962,47.164,131.49,12.03,35.381,15.65,75.054,39.017,105.5-8.9932,22.068-38.925-13.904-58.578-8.7257-13.542-1.8614-22.339-3.9298-2.78-3.021-9.9705,0.005-49.159-0.009-19.997-0.008-45.953-0.24655-84.391,27.359-126.38,41.54-19.62,2.9621-48.41,32.018-34.9,32.777-41.549,5.1041,32.197-8.8862,4.8239-30.626-3.8905-15.689-40.034-33.031-42.551-27.909,38.485-0.61278-46.648,2.5293-6.1394,1.0523-12.557,2.1286-59.339-0.16023-22.051-0.0772-12.092,1.9498-66.982-2.6836-29.493-0.9668-34.784,8.1996-65.546-13.842-75.312-46.996-21.666-46.886-16.365-100.03-10.764-149.69,9.3729-33.152,14.704-68.391,30.857-99.073,10.701-25.98,27.514-48.288,44.299-71.238,17.049-28.552,11.519-72.185-6.7805-99.114-16.494-8.1948-12.773-4.2055,2.974-5.0926-39.175,4.6594-77.681,11.914-115.49,23.137-28.867,5.6662-58.495,7.2463-86.171,17.968-11.339,3.0718-49.949,2.6344-18.555-2.8376,28.87-9.8082,58.747-14.774,88.182-22.245,28.191-7.8898,57.604-9.9686,85.408-19.844,21.059-4.7415,33.108-1.4979,20.516-3.2116,10.115-7.3984,42.395-2.2697,15.784-3.8468,13.263,0.39555,25.002-3.189,3.7883-5.2724-34.575-12.008-71.626-15.624-105.19-30.614-35.947-9.7245-72.808-14.46-108.53-24.85-12.849,0.89376-52.936-5.1453-20.292-6.5969,34.806,3.1405,68.26,14.656,103.11,18.138,48.791,10.082,95.674,26.825,142.93,42.056,18.915,2.6543,7.3941,3.6445-4.2182,1.9102,21.06-12.504,14.914-58.567,43.593-73.117,29.391-14.055,68.961-13.488,97.427,3.3042,29.112,21.463,41.831,59.163,37.868,94.287-4.2093,17.031-12.803,48.853-36.237,40.486z"/>
<path opacity="0.98000004" fill="#d45500" d="m619.71,6.4914c-2.1205,7.8873-4.1188,15.811-6.4174,23.646-1.8496,7.5977-4.2088,15.06-5.7904,22.728-2.9605,8.9946-5.759,18.073-9.381,26.833-2.9192,6.1302-5.5561,12.397-7.9012,18.769-1.6418,1.8526-1.1132,6.8934-4.0796,6.7157-2.6223-0.11689-5.2446-0.23379-7.8669-0.35068,2.289-5.0452,4.1854-10.251,6.2159-15.399,1.9751-4.6177,4.0365-9.1753,6.0891-13.756,2.733-7.6537,5.2382-15.382,7.8786-23.064,1.4451-5.9661,2.6722-11.97,4.5612-17.809,1.8994-9.4613,5.6426-18.438,7.5724-27.898,0.42221-1.2657,2.7215-0.25646,3.9652-0.52647,1.718,0.037573,3.436,0.075146,5.154,0.11272z"/>
<path opacity="0.98000004" fill="#d45500" d="m578.95,116.73c-3.4736,1.4146-6.8869,3.4125-9.153,6.4677-1.4029,2.1202-1.2485,4.7595-1.9086,7.131-0.72314,2.6549-0.10462,5.6898,1.8078,7.7039,1.5453,2.0051,3.7662,3.4409,6.2613,3.9257,1.5824,0.35949,3.2159,0.37719,4.8307,0.42272-2.9261-0.0409-5.854,0.0513-8.778,0.0678,1.6381-0.19732,3.2827-0.66662,4.5303-1.8148,1.9019-1.3871,3.2338-3.3489,4.5966-5.2232,1.2917-2.6014,2.271-5.4529,2.2953-8.3847-0.32098-2.7936-1.999-5.2176-3.9913-7.1159-1.1537-1.6699-3.1914-2.1446-5.0002-2.752-0.55463-0.58126-2.5955-0.37409-3.7154-0.58972,3.101-0.0102,6.2073-0.0718,9.3057-0.0456-1.1095,0.0361-2.1799,0.51265-3.2832,0.26752-2.737-0.33229-5.474-0.66459-8.211-0.99688,1.2919-0.73084,2.8551-0.64561,4.2864-0.86239,4.6971-0.37998,9.5907,0.23278,13.807,2.4263,1.5347,1.1617,2.759,2.7138,3.907,4.2508,1.441,2.2036,2.397,4.8786,1.8481,7.5304-0.20606,2.2737-1.1431,4.3804-1.91,6.5024-1.0217,1.5317-2.0811,3.07-3.3167,4.4568-1.694,1.5403-3.4534,3.429-5.8857,3.5926-4.6325,0.70122-9.3711,0.30951-13.965-0.46234-2.4161-0.62479-4.6134-1.9946-6.1917-3.9355-2.451-2.4132-3.1355-6.1759-2.2854-9.4339,0.71556-2.7162,0.54689-5.8673,2.5131-8.1016,2.4052-2.6258,5.4898-4.6071,8.7205-6.015,2.962,0.32926,5.924,0.65861,8.8859,0.98781z"/>
<path opacity="0.98000004" fill="#000000" d="m493.29,113.49c-4.4672-0.062-8.8378-1.0312-13.296-1.0537,2.2658-0.002,5.3686,0.004,1.3091-0.00058-5.5527,0.54339-10.672,3.4-15.446,6.1478-4.8788,2.9598-9.1731,6.7939-13.674,10.218-4.1462,5.5231-9.5523,10.518-11.165,17.491-0.77298,4.3576-2.8664,8.4517-2.6067,12.969-0.55505,3.8937-0.3729,7.9176-0.19681,11.816,1.1207,4.1158,0.90097,8.6604,3.375,12.367,2.9038,4.2903,4.5031,9.4559,8.1026,13.25,3.9464,3.6756,8.2274,7.0117,13.258,9.0779,3.8605,1.7982,7.7892,3.7182,12.149,3.7057,3.0122,0.35778,9.2502,1.0413,10.562,0.97613-5.6188-0.0151,3.3988,0.20153,4.9822-0.6805,6.1209-1.7104,12.36-5.1284,15.108-11.149,3.4254-7.5949,7.7688-14.856,9.7364-23.023,1.6818-5.222,3.1855-10.586,2.7272-16.133,0.092-7.9067-2.7848-15.395-5.5195-22.697-3.0542-6.0157-3.969-13.464-9.4392-18.007-1.5024-3.2364-8.9878-4.9734-9.2148-5.6096,3.6896-1.0164,7.3784,0.91887,10.371,2.9504,4.184,3.4137,7.2969,7.9232,8.8949,13.093,2.0827,6.1893,5.2416,12.002,6.6398,18.428,2.0638,5.8533,2.046,12.216,1.6346,18.341-1.2938,6.4483-3.3281,12.767-5.6012,18.936-3.067,5.7097-5.1613,11.969-8.7678,17.368-3.6549,4.5368-9.2495,7.1862-14.864,8.3945-7.269,0.9293-14.624,0.0888-21.854-0.79254-5.3541-0.21997-9.917-3.4494-14.72-5.4738-4.5866-2.9459-9.6113-6.1583-12.214-11.098-2.3049-3.8104-4.3631-7.7247-6.4734-11.648-1.7776-3.6415-1.4982-7.8383-2.5812-11.672,0.081-5.874-0.25277-11.9,1.3278-17.597,1.5894-5.2318,2.2745-11.065,6.0654-15.343,3.6291-4.4456,6.6371-9.6032,11.801-12.46,6.6162-5.761,14.418-10.476,22.976-12.631,5.0732-0.27063,10.16-0.0592,15.174,0.69251,2.9471,0.0467,6.6644,0.33702,2.0727,0.75529-0.21068,0.0302-0.42291,0.0635-0.63294,0.0924z"/>
</svg>
